<svg width="96" height="96" viewBox="0 0 96 96" fill="none" xmlns="http://www.w3.org/2000/svg">
<path d="M64.0015 36V24C64.0015 15.1634 56.838 8 48.0015 8C39.1649 8 32.0015 15.1634 32.0015 24V36M14.3695 41.4079L11.9695 67.0079C11.2871 74.2867 10.9459 77.9261 12.1537 80.7371C13.2147 83.2065 15.074 85.2483 17.4336 86.5351C20.1196 88 23.7749 88 31.0857 88H64.9173C72.228 88 75.8834 88 78.5694 86.5351C80.929 85.2483 82.7883 83.2065 83.8493 80.7371C85.057 77.9261 84.7159 74.2867 84.0335 67.0079L81.6335 41.4079C81.0572 35.2614 80.7691 32.1881 79.3868 29.8647C78.1694 27.8183 76.3708 26.1804 74.2198 25.1594C71.7774 24 68.6907 24 62.5173 24L33.4857 24C27.3122 24 24.2255 24 21.7832 25.1594C19.6321 26.1804 17.8335 27.8183 16.6161 29.8646C15.2338 32.1881 14.9457 35.2614 14.3695 41.4079Z" stroke="#C57B36" stroke-width="6" stroke-linecap="round" stroke-linejoin="round"/>
</svg>
