<svg width="96" height="96" viewBox="0 0 96 96" fill="none" xmlns="http://www.w3.org/2000/svg">
<path d="M36 48H18.4C16.1598 48 15.0397 48 14.184 48.436C13.4314 48.8195 12.8195 49.4314 12.436 50.184C12 51.0397 12 52.1598 12 54.4V77.6C12 79.8402 12 80.9603 12.436 81.816C12.8195 82.5686 13.4314 83.1805 14.184 83.564C15.0397 84 16.1598 84 18.4 84H36M36 84H60M36 84L36 34.4C36 32.1598 36 31.0397 36.436 30.184C36.8195 29.4314 37.4314 28.8195 38.184 28.436C39.0397 28 40.1598 28 42.4 28H53.6C55.8402 28 56.9603 28 57.816 28.436C58.5686 28.8195 59.1805 29.4314 59.564 30.184C60 31.0397 60 32.1598 60 34.4V84M60 84H77.6C79.8402 84 80.9603 84 81.816 83.564C82.5686 83.1805 83.1805 82.5686 83.564 81.816C84 80.9603 84 79.8402 84 77.6V18.4C84 16.1598 84 15.0397 83.564 14.184C83.1805 13.4314 82.5686 12.8195 81.816 12.436C80.9603 12 79.8402 12 77.6 12H66.4C64.1598 12 63.0397 12 62.184 12.436C61.4314 12.8195 60.8195 13.4314 60.436 14.184C60 15.0397 60 16.1598 60 18.4V32" stroke="#C57B36" stroke-width="6" stroke-linecap="round" stroke-linejoin="round"/>
</svg>
