<svg width="96" height="96" viewBox="0 0 96 96" fill="none" xmlns="http://www.w3.org/2000/svg">
<path d="M84.8 88C85.9201 88 86.4802 88 86.908 87.782C87.2843 87.5903 87.5903 87.2843 87.782 86.908C88 86.4802 88 85.9201 88 84.8V43.2C88 42.0799 88 41.5198 87.782 41.092C87.5903 40.7157 87.2843 40.4097 86.908 40.218C86.4802 40 85.9201 40 84.8 40L75.2 40C74.0799 40 73.5198 40 73.092 40.218C72.7157 40.4097 72.4097 40.7157 72.218 41.092C72 41.5198 72 42.0799 72 43.2V52.8C72 53.9201 72 54.4802 71.782 54.908C71.5903 55.2843 71.2843 55.5903 70.908 55.782C70.4802 56 69.9201 56 68.8 56H59.2C58.0799 56 57.5198 56 57.092 56.218C56.7157 56.4097 56.4097 56.7157 56.218 57.092C56 57.5198 56 58.0799 56 59.2V68.8C56 69.9201 56 70.4802 55.782 70.908C55.5903 71.2843 55.2843 71.5903 54.908 71.782C54.4802 72 53.9201 72 52.8 72H43.2C42.0799 72 41.5198 72 41.092 72.218C40.7157 72.4097 40.4097 72.7157 40.218 73.092C40 73.5198 40 74.0799 40 75.2V84.8C40 85.9201 40 86.4802 40.218 86.908C40.4097 87.2843 40.7157 87.5903 41.092 87.782C41.5198 88 42.0799 88 43.2 88L84.8 88Z" stroke="#C57B36" stroke-width="6" stroke-linecap="round" stroke-linejoin="round"/>
<path d="M40 27.2C40 26.0799 40 25.5198 40.218 25.092C40.4097 24.7157 40.7157 24.4097 41.092 24.218C41.5198 24 42.0799 24 43.2 24H52.8C53.9201 24 54.4802 24 54.908 24.218C55.2843 24.4097 55.5903 24.7157 55.782 25.092C56 25.5198 56 26.0799 56 27.2V36.8C56 37.9201 56 38.4802 55.782 38.908C55.5903 39.2843 55.2843 39.5903 54.908 39.782C54.4802 40 53.9201 40 52.8 40H43.2C42.0799 40 41.5198 40 41.092 39.782C40.7157 39.5903 40.4097 39.2843 40.218 38.908C40 38.4802 40 37.9201 40 36.8V27.2Z" stroke="#C57B36" stroke-width="6" stroke-linecap="round" stroke-linejoin="round"/>
<path d="M12 51.2C12 50.0799 12 49.5198 12.218 49.092C12.4097 48.7157 12.7157 48.4097 13.092 48.218C13.5198 48 14.0799 48 15.2 48H24.8C25.9201 48 26.4802 48 26.908 48.218C27.2843 48.4097 27.5903 48.7157 27.782 49.092C28 49.5198 28 50.0799 28 51.2V60.8C28 61.9201 28 62.4802 27.782 62.908C27.5903 63.2843 27.2843 63.5903 26.908 63.782C26.4802 64 25.9201 64 24.8 64H15.2C14.0799 64 13.5198 64 13.092 63.782C12.7157 63.5903 12.4097 63.2843 12.218 62.908C12 62.4802 12 61.9201 12 60.8V51.2Z" stroke="#C57B36" stroke-width="6" stroke-linecap="round" stroke-linejoin="round"/>
<path d="M8 11.2C8 10.0799 8 9.51984 8.21799 9.09202C8.40973 8.71569 8.71569 8.40973 9.09202 8.21799C9.51984 8 10.0799 8 11.2 8H20.8C21.9201 8 22.4802 8 22.908 8.21799C23.2843 8.40973 23.5903 8.71569 23.782 9.09202C24 9.51984 24 10.0799 24 11.2V20.8C24 21.9201 24 22.4802 23.782 22.908C23.5903 23.2843 23.2843 23.5903 22.908 23.782C22.4802 24 21.9201 24 20.8 24H11.2C10.0799 24 9.51984 24 9.09202 23.782C8.71569 23.5903 8.40973 23.2843 8.21799 22.908C8 22.4802 8 21.9201 8 20.8V11.2Z" stroke="#C57B36" stroke-width="6" stroke-linecap="round" stroke-linejoin="round"/>
</svg>
