<svg width="96" height="96" viewBox="0 0 96 96" fill="none" xmlns="http://www.w3.org/2000/svg">
<path d="M8 8H13.2247C14.2087 8 14.7008 8 15.0967 8.18096C15.4457 8.34043 15.7414 8.5969 15.9486 8.91978C16.1837 9.28617 16.2533 9.77328 16.3925 10.7475L18.2857 24M18.2857 24L22.4933 54.9256C23.0272 58.8501 23.2942 60.8123 24.2324 62.2894C25.0591 63.5909 26.2443 64.6258 27.6454 65.2695C29.2355 66 31.2158 66 35.1764 66H69.408C73.1782 66 75.0633 66 76.6038 65.3217C77.9622 64.7236 79.1274 63.7593 79.9691 62.5369C80.9237 61.1505 81.2765 59.2987 81.9819 55.595L87.2764 27.7988C87.5247 26.4952 87.6489 25.8435 87.4689 25.334C87.3111 24.8871 86.9997 24.5107 86.5902 24.2721C86.1234 24 85.4599 24 84.1329 24H18.2857ZM40 84C40 86.2091 38.2091 88 36 88C33.7909 88 32 86.2091 32 84C32 81.7909 33.7909 80 36 80C38.2091 80 40 81.7909 40 84ZM72 84C72 86.2091 70.2091 88 68 88C65.7909 88 64 86.2091 64 84C64 81.7909 65.7909 80 68 80C70.2091 80 72 81.7909 72 84Z" stroke="#C57B36" stroke-width="6" stroke-linecap="round" stroke-linejoin="round"/>
</svg>
