<svg width="46" height="42" viewBox="0 0 46 42" fill="none" xmlns="http://www.w3.org/2000/svg">
<path d="M44.7836 21C44.7836 32.0457 35.8293 41 24.7836 41C22.25 41 19.8264 40.5289 17.5957 39.6695C17.1879 39.5124 16.9839 39.4338 16.8218 39.3964C16.6623 39.3597 16.5468 39.3443 16.3833 39.3381C16.217 39.3317 16.0345 39.3506 15.6696 39.3883L3.62015 40.6338C2.47135 40.7526 1.89694 40.8119 1.55811 40.6053C1.26299 40.4252 1.06198 40.1245 1.00847 39.783C0.947042 39.3909 1.22153 38.8828 1.77049 37.8667L5.6191 30.7431C5.93605 30.1564 6.09452 29.8631 6.1663 29.5811C6.23718 29.3025 6.25432 29.1016 6.23165 28.8151C6.20869 28.525 6.0814 28.1473 5.82681 27.392C5.15028 25.3849 4.78358 23.2353 4.78358 21C4.78358 9.95431 13.7379 1 24.7836 1C35.8293 1 44.7836 9.95431 44.7836 21Z" stroke="white" stroke-opacity="0.3" stroke-width="2" stroke-linecap="round" stroke-linejoin="round"/>
<path fill-rule="evenodd" clip-rule="evenodd" d="M24.7763 14.9982C22.6594 12.5539 19.1292 11.8964 16.4768 14.1347C13.8244 16.373 13.451 20.1153 15.5339 22.7625C16.8244 24.4026 20.0633 27.398 22.3411 29.4399C23.1778 30.1899 23.5962 30.565 24.0982 30.7161C24.5289 30.8457 25.0237 30.8457 25.4544 30.7161C25.9565 30.565 26.3748 30.1899 27.2115 29.4399C29.4893 27.398 32.7283 24.4026 34.0188 22.7625C36.1017 20.1153 35.7739 16.3494 33.0759 14.1347C30.3779 11.9199 26.8933 12.5539 24.7763 14.9982Z" stroke="white" stroke-opacity="0.3" stroke-width="2" stroke-linecap="round" stroke-linejoin="round"/>
</svg>
