<svg width="42" height="42" viewBox="0 0 42 42" fill="none" xmlns="http://www.w3.org/2000/svg">
<path d="M14.3333 14.3333V7.66667C14.3333 3.98477 11.3486 1 7.66667 1C3.98477 1 1 3.98477 1 7.66667C1 11.3486 3.98477 14.3333 7.66667 14.3333H14.3333ZM14.3333 14.3333V27.6667M14.3333 14.3333H27.6667M14.3333 27.6667V34.3333C14.3333 38.0152 11.3486 41 7.66667 41C3.98477 41 1 38.0152 1 34.3333C1 30.6514 3.98477 27.6667 7.66667 27.6667H14.3333ZM14.3333 27.6667H27.6667M27.6667 27.6667H34.3333C38.0152 27.6667 41 30.6514 41 34.3333C41 38.0152 38.0152 41 34.3333 41C30.6514 41 27.6667 38.0152 27.6667 34.3333V27.6667ZM27.6667 27.6667V14.3333M27.6667 14.3333V7.66667C27.6667 3.98477 30.6514 1 34.3333 1C38.0152 1 41 3.98477 41 7.66667C41 11.3486 38.0152 14.3333 34.3333 14.3333H27.6667Z" stroke="white" stroke-opacity="0.3" stroke-width="2" stroke-linecap="round" stroke-linejoin="round"/>
</svg>
