<svg width="28" height="28" viewBox="0 0 28 28" fill="none" xmlns="http://www.w3.org/2000/svg">
<path fill-rule="evenodd" clip-rule="evenodd" d="M14 0C21.732 0 28 6.30631 28 14.0856C28 21.116 22.8804 26.9433 16.1875 28V18.1572H19.4496L20.0703 14.0856H19.9015L19.9295 13.9028H16.1875V11.4445C16.1875 10.3295 16.73 9.24365 18.4691 9.24365H20.2344V5.77728C20.2344 5.77728 20.184 5.76863 20.0925 5.75439V5.70231C20.0925 5.70231 18.5015 5.43077 16.9804 5.43077C13.8047 5.43077 11.7291 7.35544 11.7291 10.8398V13.9028H8.19907V17.9215H8.25781V18.1572H11.7291V27.6367C11.7569 27.641 11.7847 27.6453 11.8125 27.6495V28C5.11957 26.9433 0 21.116 0 14.0856C0 6.30631 6.26801 0 14 0Z" fill="#C57B36"/>
</svg>
