<svg width="96" height="96" viewBox="0 0 96 96" fill="none" xmlns="http://www.w3.org/2000/svg">
<path d="M32 84V28C32 24.2801 32 22.4202 32.4089 20.8942C33.5185 16.7531 36.7531 13.5185 40.8942 12.4089C42.4202 12 44.2801 12 48 12C51.7199 12 53.5798 12 55.1058 12.4089C59.2469 13.5185 62.4815 16.7531 63.5911 20.8942C64 22.4202 64 24.2801 64 28V84M20.8 84H75.2C79.6804 84 81.9206 84 83.6319 83.1281C85.1372 82.3611 86.3611 81.1372 87.1281 79.6319C88 77.9206 88 75.6804 88 71.2V40.8C88 36.3196 88 34.0794 87.1281 32.3681C86.3611 30.8628 85.1372 29.6389 83.6319 28.8719C81.9206 28 79.6804 28 75.2 28H20.8C16.3196 28 14.0794 28 12.3681 28.8719C10.8628 29.6389 9.63893 30.8628 8.87195 32.3681C8 34.0794 8 36.3196 8 40.8V71.2C8 75.6804 8 77.9206 8.87195 79.6319C9.63893 81.1372 10.8628 82.3611 12.3681 83.1281C14.0794 84 16.3196 84 20.8 84Z" stroke="#C57B36" stroke-width="6" stroke-linecap="round" stroke-linejoin="round"/>
</svg>
