<svg width="96" height="96" viewBox="0 0 96 96" fill="none" xmlns="http://www.w3.org/2000/svg">
<path d="M8 8L16 16M88 8L80 16M88 88L80 80M8 88L16 80M8 64H14M32 8V14M88 32H82M64 88V82M72 64H86M64 8V24M8 32H24M32 88V72M45.7373 30.2627L30.2627 45.7373C29.4707 46.5293 29.0747 46.9253 28.9263 47.382C28.7958 47.7837 28.7958 48.2163 28.9263 48.618C29.0747 49.0747 29.4707 49.4707 30.2627 50.2627L45.7373 65.7373C46.5293 66.5293 46.9253 66.9253 47.382 67.0737C47.7837 67.2042 48.2163 67.2042 48.618 67.0737C49.0747 66.9253 49.4707 66.5293 50.2627 65.7373L65.7373 50.2627C66.5293 49.4707 66.9253 49.0747 67.0737 48.618C67.2042 48.2163 67.2042 47.7837 67.0737 47.382C66.9253 46.9253 66.5293 46.5293 65.7373 45.7373L50.2627 30.2627C49.4707 29.4707 49.0747 29.0747 48.618 28.9263C48.2163 28.7958 47.7837 28.7958 47.382 28.9263C46.9253 29.0747 46.5293 29.4707 45.7373 30.2627Z" stroke="#C57B36" stroke-width="6" stroke-linecap="round" stroke-linejoin="round"/>
</svg>
