<svg width="96" height="96" viewBox="0 0 96 96" fill="none" xmlns="http://www.w3.org/2000/svg">
<path d="M84 44L53.6235 13.6235C51.5481 11.5481 50.5104 10.5104 49.2994 9.76832C48.2257 9.11037 47.0552 8.62552 45.8308 8.33156C44.4497 8 42.9822 8 40.0471 8L24 8M12 34.8L12 42.6981C12 44.6548 12 45.6332 12.221 46.5539C12.417 47.3701 12.7402 48.1505 13.1789 48.8663C13.6736 49.6736 14.3654 50.3654 15.749 51.749L46.949 82.949C50.1172 86.1172 51.7012 87.7012 53.5279 88.2947C55.1346 88.8168 56.8654 88.8168 58.4721 88.2947C60.2988 87.7012 61.8828 86.1172 65.051 82.949L74.949 73.051C78.1172 69.8828 79.7012 68.2988 80.2947 66.4721C80.8168 64.8654 80.8168 63.1346 80.2947 61.5279C79.7012 59.7012 78.1172 58.1172 74.949 54.949L45.749 25.749C44.3654 24.3654 43.6736 23.6736 42.8663 23.1789C42.1505 22.7403 41.3701 22.417 40.5539 22.221C39.6332 22 38.6548 22 36.6981 22H24.8C20.3196 22 18.0794 22 16.3681 22.8719C14.8628 23.6389 13.6389 24.8628 12.8719 26.3681C12 28.0794 12 30.3196 12 34.8Z" stroke="#C57B36" stroke-width="6" stroke-linecap="round" stroke-linejoin="round"/>
</svg>
