<svg width="96" height="96" viewBox="0 0 96 96" fill="none" xmlns="http://www.w3.org/2000/svg">
<path d="M8 68V67.3992C8 66.1333 8 65.5003 8.09683 64.8836C8.1828 64.3361 8.32544 63.7989 8.52246 63.2809C8.74435 62.6974 9.0584 62.1478 9.68649 61.0486L24 36M8 68C8 76.8366 15.1634 84 24 84C32.8366 84 40 76.8366 40 68M8 68V67.2C8 66.0799 8 65.5198 8.21799 65.092C8.40973 64.7157 8.71569 64.4097 9.09202 64.218C9.51984 64 10.0799 64 11.2 64H36.8C37.9201 64 38.4802 64 38.908 64.218C39.2843 64.4097 39.5903 64.7157 39.782 65.092C40 65.5198 40 66.0799 40 67.2V68M24 36L38.3135 61.0486C38.9416 62.1478 39.2557 62.6974 39.4775 63.2809C39.6746 63.7989 39.8172 64.3361 39.9032 64.8836C40 65.5003 40 66.1333 40 67.3992V68M24 36L72 28M56 60V59.3992C56 58.1333 56 57.5003 56.0968 56.8836C56.1828 56.3361 56.3254 55.7989 56.5225 55.2809C56.7443 54.6974 57.0584 54.1478 57.6865 53.0486L72 28M56 60C56 68.8366 63.1634 76 72 76C80.8366 76 88 68.8366 88 60M56 60V59.2C56 58.0799 56 57.5198 56.218 57.092C56.4097 56.7157 56.7157 56.4097 57.092 56.218C57.5198 56 58.0799 56 59.2 56H84.8C85.9201 56 86.4802 56 86.908 56.218C87.2843 56.4097 87.5903 56.7157 87.782 57.092C88 57.5198 88 58.0799 88 59.2V60M72 28L86.3135 53.0486C86.9416 54.1478 87.2557 54.6974 87.4775 55.2809C87.6746 55.7989 87.8172 56.3361 87.9032 56.8836C88 57.5003 88 58.1333 88 59.3992V60M48 12V32" stroke="#C57B36" stroke-width="6" stroke-linecap="round" stroke-linejoin="round"/>
</svg>
