<svg width="250" height="125" viewBox="0 0 250 125" fill="none" xmlns="http://www.w3.org/2000/svg">
<circle cx="18.1627" cy="18.1627" r="16.4127" transform="matrix(-0.923876 -0.382692 0.382675 -0.923883 134.207 149.972)" fill="#C57B36" stroke="#C57B36" stroke-width="3.5"/>
<path d="M17.226 90.8353C17.226 90.8353 73.9772 116.933 94.2753 96.6349C114.573 76.3366 90.9614 17.0982 90.9614 17.0982" stroke="white" stroke-width="3.5" stroke-linecap="round"/>
<circle cx="18.1607" cy="18.1607" r="16.4107" transform="matrix(0.707098 -0.707116 -0.707098 -0.707116 49.4727 75.7588)" fill="#C57B36" stroke="#C57B36" stroke-width="3.5"/>
<path d="M24.6437 177.048C24.6437 177.048 83.2263 155.372 83.2266 126.665C83.2268 97.959 24.6437 72.7677 24.6437 72.7677" stroke="white" stroke-width="3.5" stroke-linecap="round"/>
<path d="M18.6264 109.013C9.56309 109.013 2.21574 116.36 2.21574 125.424C2.21574 134.487 9.56309 141.835 18.6264 141.835C27.6898 141.835 35.0371 134.487 35.0371 125.424C35.0371 116.36 27.6898 109.013 18.6264 109.013Z" fill="#C57B36" stroke="#C57B36" stroke-width="3.5"/>
<path d="M90.8315 232.779C90.8315 232.779 116.929 176.026 96.6309 155.728C76.3332 135.429 17.0962 159.042 17.0962 159.042" stroke="white" stroke-width="3.5" stroke-linecap="round"/>
<path d="M232.807 159.167C232.807 159.167 176.056 133.069 155.758 153.367C135.46 173.665 159.072 232.904 159.072 232.904" stroke="white" stroke-width="3.5" stroke-linecap="round"/>
<path d="M225.374 72.9385C225.374 72.9385 166.791 94.6147 166.791 123.321C166.791 152.027 225.374 177.219 225.374 177.219" stroke="white" stroke-width="3.5" stroke-linecap="round"/>
<path d="M231.391 140.974C240.454 140.974 247.802 133.626 247.802 124.563C247.802 115.499 240.454 108.151 231.391 108.151C222.328 108.151 214.98 115.499 214.98 124.563C214.98 133.626 222.328 140.974 231.391 140.974Z" fill="#C57B36" stroke="#C57B36" stroke-width="3.5"/>
<path d="M159.165 17.2104C159.165 17.2104 133.067 73.963 153.365 94.2616C173.663 114.56 232.9 90.9475 232.9 90.9475" stroke="white" stroke-width="3.5" stroke-linecap="round"/>
<circle cx="18.1607" cy="18.1607" r="16.4107" transform="matrix(0.707098 0.707116 0.707098 -0.707116 174.241 49.458)" fill="#C57B36" stroke="#C57B36" stroke-width="3.5"/>
<path d="M72.9512 24.6315C72.9512 24.6315 94.6268 83.2156 123.332 83.2158C152.038 83.2161 177.229 24.6315 177.229 24.6315" stroke="white" stroke-width="3.5" stroke-linecap="round"/>
<path d="M140.983 18.6133C140.983 9.5496 133.636 2.20212 124.573 2.20212C115.509 2.20212 108.162 9.5496 108.162 18.6133C108.162 27.6769 115.509 35.0244 124.573 35.0244C133.636 35.0244 140.983 27.6769 140.983 18.6133Z" fill="#C57B36" stroke="#C57B36" stroke-width="3.5"/>
</svg>
