<svg width="194" height="50" viewBox="0 0 194 50" fill="none" xmlns="http://www.w3.org/2000/svg">
<path d="M25 49C38.2548 49 49 38.2548 49 25C49 11.7452 38.2548 1 25 1C11.7452 1 1 11.7452 1 25C1 38.2548 11.7452 49 25 49Z" stroke="#3A84C9" stroke-width="1.25"/>
<path d="M24.9981 27.6378C26.4554 27.6378 27.6368 26.4564 27.6368 24.9991C27.6368 23.5418 26.4554 22.3604 24.9981 22.3604C23.5408 22.3604 22.3594 23.5418 22.3594 24.9991C22.3594 26.4564 23.5408 27.6378 24.9981 27.6378Z" fill="#3A84C9" stroke="#3A84C9" stroke-width="1.25"/>
<path d="M41.9614 16.2021C41.9614 16.2021 32.0588 19.8662 32.0586 24.7186C32.0586 29.5709 41.9614 33.829 41.9614 33.829" stroke="#C57B36" stroke-width="1.25" stroke-linecap="round"/>
<path d="M45.6225 24.9294C45.6225 26.3865 44.4412 27.5678 42.9841 27.5678C41.527 27.5678 40.3457 26.3865 40.3457 24.9294C40.3457 23.4723 41.527 22.291 42.9841 22.291C44.4412 22.291 45.6225 23.4723 45.6225 24.9294Z" stroke="#C57B36" stroke-width="1.25"/>
<path d="M30.7731 6.78613C30.7731 6.78613 26.3618 16.3792 29.7929 19.8103C33.224 23.2416 43.2372 19.2502 43.2372 19.2502" stroke="#3A84C9" stroke-width="1.25" stroke-linecap="round"/>
<path d="M39.5285 10.3697C40.5589 11.4001 40.5589 13.0706 39.5285 14.101C38.4982 15.1313 36.8276 15.1313 35.7973 14.101C34.7669 13.0706 34.7669 11.4001 35.7973 10.3697C36.8276 9.33937 38.4982 9.33937 39.5285 10.3697Z" stroke="#3A84C9" stroke-width="1.25"/>
<path d="M16.1973 8.03516C16.1973 8.03516 19.8613 17.9378 24.7136 17.9379C29.566 17.9379 33.8241 8.03516 33.8241 8.03516" stroke="#C57B36" stroke-width="1.25" stroke-linecap="round"/>
<path d="M24.9235 4.37654C26.3807 4.37654 27.5619 5.55779 27.5619 7.01493C27.5619 8.47207 26.3807 9.65332 24.9235 9.65332C23.4664 9.65332 22.2852 8.47207 22.2852 7.01493C22.2852 5.55779 23.4664 4.37654 24.9235 4.37654Z" stroke="#C57B36" stroke-width="1.25"/>
<path d="M6.7832 19.2258C6.7832 19.2258 16.3763 23.6371 19.8074 20.2061C23.2386 16.775 19.2473 6.76172 19.2473 6.76172" stroke="#3A84C9" stroke-width="1.25" stroke-linecap="round"/>
<path d="M10.3668 10.4725C11.3972 9.44211 13.0677 9.44211 14.098 10.4725C15.1284 11.5028 15.1284 13.1734 14.098 14.2037C13.0677 15.2341 11.3972 15.2341 10.3668 14.2037C9.33644 13.1734 9.33644 11.5028 10.3668 10.4725Z" stroke="#3A84C9" stroke-width="1.25"/>
<path d="M8.03125 33.8016C8.03125 33.8016 17.9339 30.1377 17.934 25.2854C17.934 20.433 8.03125 16.1748 8.03125 16.1748" stroke="#C57B36" stroke-width="1.25" stroke-linecap="round"/>
<path d="M4.37361 25.0765C4.37361 23.6193 5.55486 22.4381 7.012 22.4381C8.46914 22.4381 9.65039 23.6193 9.65039 25.0765C9.65039 26.5336 8.46914 27.7148 7.012 27.7148C5.55486 27.7148 4.37361 26.5336 4.37361 25.0765Z" stroke="#C57B36" stroke-width="1.25"/>
<path d="M19.2199 43.2258C19.2199 43.2258 23.6313 33.6328 20.2002 30.2017C16.7691 26.7706 6.75586 30.7618 6.75586 30.7618" stroke="#3A84C9" stroke-width="1.25" stroke-linecap="round"/>
<path d="M10.4715 39.6342C9.44113 38.6038 9.44113 36.9333 10.4715 35.9029C11.5018 34.8726 13.1724 34.8726 14.2027 35.9029C15.2331 36.9333 15.2331 38.6038 14.2027 39.6342C13.1724 40.6645 11.5018 40.6645 10.4715 39.6342Z" stroke="#3A84C9" stroke-width="1.25"/>
<path d="M33.7988 41.9682C33.7988 41.9682 30.1347 32.0654 25.2824 32.0654C20.43 32.0654 16.1719 41.9682 16.1719 41.9682" stroke="#C57B36" stroke-width="1.25" stroke-linecap="round"/>
<path d="M25.0725 45.6274C23.6154 45.6274 22.4342 44.4461 22.4342 42.989C22.4342 41.5318 23.6154 40.3506 25.0725 40.3506C26.5297 40.3506 27.7109 41.5318 27.7109 42.989C27.7109 44.4461 26.5297 45.6274 25.0725 45.6274Z" stroke="#C57B36" stroke-width="1.25"/>
<path d="M43.2192 30.7762C43.2192 30.7762 33.6261 26.3647 30.1949 29.7958C26.7638 33.2268 30.755 43.2403 30.755 43.2403" stroke="#3A84C9" stroke-width="1.25" stroke-linecap="round"/>
<path d="M39.6312 39.5295C38.6009 40.5598 36.9304 40.5598 35.9 39.5295C34.8696 38.4991 34.8696 36.8286 35.9 35.7982C36.9304 34.7679 38.6009 34.7679 39.6312 35.7982C40.6616 36.8286 40.6616 38.4991 39.6312 39.5295Z" stroke="#3A84C9" stroke-width="1.25"/>
<path d="M87.5553 26.8126L86.6843 12.5856C86.6197 11.4888 86.3294 10.6097 85.8132 9.94833C85.297 9.28698 84.5068 8.795 83.4421 8.47239L82.329 8.20625C82.2163 8.17398 82.1355 8.14173 82.0872 8.10946C82.0548 8.0772 82.0387 8.03688 82.0387 7.98848C82.0387 7.9401 82.0548 7.89977 82.0872 7.8675C82.1355 7.81912 82.2001 7.79492 82.2807 7.79492H91.4025C91.483 7.79492 91.5396 7.81912 91.5718 7.8675C91.6201 7.89977 91.6443 7.9401 91.6443 7.98848C91.6443 8.03688 91.6201 8.0772 91.5718 8.10946C91.5235 8.14173 91.4427 8.17398 91.3298 8.20625L90.3378 8.49659C89.37 8.78694 88.5957 9.28698 88.0151 9.9967C87.4343 10.6903 87.1762 11.521 87.2408 12.4888L88.1118 26.5706C88.1764 27.4417 88.2327 28.3046 88.2813 29.1594C88.3296 30.0145 88.3537 30.8854 88.3537 31.7727C88.3537 33.6921 87.9988 35.4423 87.2891 37.0229C86.5794 38.6037 85.4099 39.862 83.7808 40.7974C82.1516 41.733 79.966 42.2009 77.2239 42.2009C74.0623 42.2009 71.4573 41.7734 69.4088 40.9184C67.3764 40.0636 65.8602 38.8941 64.86 37.4101C63.8761 35.91 63.384 34.2003 63.384 32.2806C63.384 31.8291 63.4001 31.2404 63.4326 30.5144C63.4809 29.7725 63.5292 29.0304 63.5777 28.2885C63.6421 27.5464 63.6985 26.9174 63.747 26.4012L64.8117 9.17406C64.8278 8.9805 64.747 8.83532 64.5697 8.73855C64.3923 8.62564 64.1261 8.53692 63.7712 8.47239L62.1259 8.20625C61.9001 8.15786 61.7871 8.08528 61.7871 7.98848C61.7871 7.9401 61.8115 7.89977 61.8598 7.8675C61.9081 7.81912 61.9727 7.79492 62.0533 7.79492H76.1351C76.2318 7.79492 76.2964 7.81912 76.3286 7.8675C76.3769 7.89977 76.4013 7.9401 76.4013 7.98848C76.4013 8.03688 76.3769 8.0772 76.3286 8.10946C76.2803 8.14173 76.1915 8.17398 76.0625 8.20625L74.2962 8.47239C73.9574 8.53692 73.7075 8.62564 73.5461 8.73855C73.3848 8.83532 73.2962 8.98856 73.2799 9.19826L72.1911 26.2319C72.1267 27.4739 72.0864 28.6191 72.0703 29.6676C72.054 30.7161 72.046 31.5951 72.046 32.305C72.046 35.5309 72.6751 37.8618 73.9332 39.2973C75.1915 40.7169 76.8287 41.4266 78.845 41.4266C80.5871 41.4266 82.1275 41.0555 83.4663 40.3136C84.8051 39.5715 85.8536 38.4988 86.6117 37.0956C87.3699 35.6923 87.749 34.0227 87.749 32.0872C87.749 30.9096 87.7246 29.9176 87.6763 29.1111C87.6441 28.2885 87.6038 27.5222 87.5553 26.8126Z" fill="#3A84C9"/>
<path d="M100.708 20.0156V40.1945C100.708 40.4365 100.757 40.63 100.853 40.7751C100.95 40.9203 101.095 41.0171 101.289 41.0654L102.426 41.2833C102.604 41.3155 102.692 41.3801 102.692 41.4768C102.692 41.6058 102.612 41.6704 102.45 41.6704H91.6592C91.6109 41.6704 91.5624 41.6543 91.5141 41.6221C91.4658 41.5897 91.4414 41.5414 91.4414 41.4768C91.4414 41.4445 91.4577 41.4123 91.4899 41.3801C91.5382 41.3316 91.6109 41.2994 91.7076 41.2833L92.8449 41.0654C93.0707 41.0171 93.224 40.9203 93.3045 40.7751C93.3852 40.63 93.4255 40.4445 93.4255 40.2187V22.7979C93.4255 22.685 93.3933 22.5964 93.3287 22.5318C93.2803 22.4674 93.1915 22.435 93.0625 22.435H91.8044C91.7076 22.435 91.6431 22.4188 91.6109 22.3866C91.5787 22.3544 91.5624 22.3059 91.5624 22.2415C91.5624 22.177 91.5787 22.1285 91.6109 22.0963C91.6592 22.0641 91.7158 22.0399 91.7802 22.0236L99.8132 19.7978C99.9906 19.7494 100.112 19.717 100.176 19.7009C100.241 19.6848 100.313 19.6768 100.394 19.6768C100.507 19.6768 100.587 19.709 100.636 19.7736C100.684 19.838 100.708 19.9188 100.708 20.0156ZM100.104 25.1448L99.8132 24.8304L100.732 24.0319C102.378 22.564 103.83 21.4833 105.088 20.7897C106.346 20.08 107.491 19.7251 108.523 19.7251C109.991 19.7251 111.128 20.1607 111.935 21.0317C112.758 21.9026 113.274 23.2819 113.484 25.1692L115.226 40.1462C115.258 40.4043 115.314 40.6139 115.395 40.7751C115.492 40.9203 115.653 41.0171 115.879 41.0654L116.919 41.2833C117.016 41.2994 117.081 41.3316 117.113 41.3801C117.161 41.4123 117.185 41.4445 117.185 41.4768C117.185 41.5414 117.161 41.5897 117.113 41.6221C117.081 41.6543 117.024 41.6704 116.943 41.6704H105.959C105.797 41.6704 105.717 41.6058 105.717 41.4768C105.717 41.3962 105.814 41.3316 106.007 41.2833L107.144 41.0654C107.386 41.0171 107.556 40.9122 107.653 40.751C107.765 40.5897 107.806 40.388 107.773 40.1462L106.322 25.9433C106.209 24.895 105.975 24.1287 105.62 23.6447C105.265 23.1609 104.717 22.9189 103.975 22.9189C103.475 22.9189 102.983 23.048 102.499 23.3061C102.015 23.5481 101.515 23.9028 100.999 24.3707L100.104 25.1448Z" fill="#3A84C9"/>
<path d="M125.493 20.0121V40.191C125.493 40.433 125.534 40.6265 125.614 40.7716C125.711 40.9168 125.864 41.0136 126.074 41.0619L127.211 41.2798C127.308 41.2959 127.373 41.32 127.405 41.3524C127.453 41.3847 127.477 41.4249 127.477 41.4732C127.477 41.5379 127.453 41.5862 127.405 41.6186C127.373 41.6508 127.316 41.6669 127.235 41.6669H116.444C116.38 41.6669 116.323 41.6508 116.275 41.6186C116.243 41.5862 116.227 41.5379 116.227 41.4732C116.227 41.441 116.243 41.4088 116.275 41.3766C116.323 41.3281 116.396 41.2959 116.493 41.2798L117.63 41.0619C117.856 41.0136 118.009 40.9168 118.09 40.7716C118.17 40.6265 118.211 40.441 118.211 40.2151V22.7944C118.211 22.6815 118.178 22.5929 118.114 22.5283C118.065 22.4638 117.977 22.4314 117.848 22.4314H116.59C116.493 22.4314 116.428 22.4153 116.396 22.3831C116.364 22.3509 116.348 22.3024 116.348 22.2379C116.348 22.1735 116.364 22.125 116.396 22.0928C116.444 22.0606 116.501 22.0364 116.565 22.0201L124.598 19.7942C124.776 19.7459 124.897 19.7135 124.961 19.6974C125.026 19.6813 125.098 19.6732 125.179 19.6732C125.292 19.6732 125.372 19.7054 125.421 19.7701C125.469 19.8345 125.493 19.9152 125.493 20.0121ZM121.743 17.4714C120.501 17.4714 119.493 17.0682 118.719 16.2617C117.944 15.4551 117.557 14.4712 117.557 13.3098C117.557 12.1323 117.944 11.1403 118.719 10.3338C119.509 9.52728 120.517 9.12402 121.743 9.12402C123.001 9.12402 124.026 9.52728 124.816 10.3338C125.623 11.1403 126.026 12.1323 126.026 13.3098C126.026 14.4712 125.623 15.4551 124.816 16.2617C124.026 17.0682 123.001 17.4714 121.743 17.4714Z" fill="#3A84C9"/>
<path d="M128.768 21.0558L126.833 20.6203C126.736 20.5881 126.663 20.5558 126.615 20.5234C126.583 20.4751 126.566 20.4268 126.566 20.3783C126.566 20.33 126.583 20.2897 126.615 20.2573C126.663 20.2251 126.704 20.209 126.736 20.209H128.768C128.849 20.209 128.922 20.2009 128.986 20.1848C129.051 20.1526 129.123 20.096 129.204 20.0155L135.059 15.2247C135.172 15.1279 135.285 15.0553 135.398 15.0069C135.527 14.9424 135.632 14.9102 135.712 14.9102C135.825 14.9102 135.914 14.9505 135.978 15.0311C136.059 15.1118 136.099 15.2247 136.099 15.3699V35.3553C136.099 36.7263 136.35 37.7507 136.85 38.4281C137.35 39.0895 138.035 39.4201 138.906 39.4201C139.197 39.4201 139.479 39.3718 139.753 39.2749C140.027 39.1781 140.277 39.0249 140.503 38.8153C140.745 38.6055 140.955 38.3232 141.132 37.9683C141.326 37.5975 141.479 37.1537 141.592 36.6377C141.624 36.5248 141.681 36.4763 141.761 36.4926C141.858 36.4926 141.89 36.5489 141.858 36.6619C141.6 37.9039 141.221 38.9282 140.721 39.7347C140.221 40.525 139.56 41.1219 138.737 41.5252C137.914 41.9284 136.89 42.1299 135.664 42.1299C133.535 42.1299 131.906 41.6381 130.777 40.654C129.647 39.654 129.083 38.1217 129.083 36.0569V21.5156C129.083 21.3704 129.059 21.2655 129.01 21.2009C128.978 21.1365 128.897 21.088 128.768 21.0558ZM133.946 20.7896L134.164 20.209H141.713C141.793 20.209 141.85 20.2251 141.882 20.2573C141.931 20.2734 141.955 20.3219 141.955 20.4024C141.955 20.4993 141.89 20.5881 141.761 20.6686C141.648 20.7493 141.487 20.7896 141.277 20.7896H133.946Z" fill="#3A84C9"/>
<path d="M154.064 39.4185V39.1282L153.725 39.467V22.8446C153.725 21.9736 153.524 21.3042 153.12 20.8365C152.733 20.3525 152.209 20.1105 151.548 20.1105C150.774 20.1105 150.177 20.3203 149.757 20.7397C149.354 21.159 149.152 21.6752 149.152 22.2881V24.5383C149.152 25.49 148.806 26.3046 148.112 26.9821C147.418 27.6595 146.515 27.9984 145.402 27.9984C144.644 27.9984 144.015 27.7805 143.515 27.345C143.015 26.9096 142.765 26.2402 142.765 25.3368C142.765 24.4657 143.128 23.6028 143.853 22.7479C144.579 21.8768 145.66 21.151 147.096 20.5704C148.547 19.9895 150.33 19.6992 152.443 19.6992C155.314 19.6992 157.459 20.2799 158.879 21.4413C160.314 22.5867 161.032 24.2319 161.032 26.3773V38.62C161.032 39.104 161.121 39.459 161.299 39.6846C161.492 39.8944 161.718 39.9993 161.976 39.9993C162.25 39.9993 162.5 39.9105 162.726 39.7332C162.952 39.5556 163.097 39.2411 163.162 38.7895C163.178 38.7088 163.194 38.6605 163.21 38.6442C163.242 38.612 163.274 38.5959 163.307 38.5959C163.355 38.5959 163.387 38.612 163.403 38.6442C163.42 38.6605 163.428 38.7088 163.428 38.7895C163.428 39.1282 163.266 39.5636 162.944 40.096C162.621 40.6122 162.081 41.08 161.323 41.4994C160.564 41.9188 159.54 42.1284 158.25 42.1284C156.766 42.1284 155.693 41.8703 155.032 41.3543C154.387 40.8219 154.064 40.1767 154.064 39.4185ZM141.482 36.9023C141.482 35.0473 142.249 33.5794 143.781 32.4986C145.329 31.4018 147.846 30.8534 151.33 30.8534C152.201 30.8534 152.895 30.942 153.411 31.1195C153.943 31.2808 154.435 31.5067 154.887 31.797L154.669 31.9905C154.201 31.7485 153.741 31.5711 153.29 31.4582C152.838 31.3452 152.322 31.2889 151.741 31.2889C150.774 31.2889 150.023 31.676 149.491 32.4503C148.959 33.2244 148.693 34.3617 148.693 35.8618C148.693 37.2973 148.959 38.3619 149.491 39.0557C150.023 39.7493 150.709 40.096 151.548 40.096C152.064 40.096 152.58 39.9508 153.096 39.6605C153.629 39.3541 154.056 38.9508 154.378 38.4507L154.693 38.6442C154.016 39.7734 153.056 40.6363 151.814 41.2333C150.572 41.83 149.233 42.1284 147.797 42.1284C145.959 42.1284 144.442 41.6446 143.249 40.6768C142.071 39.6927 141.482 38.4346 141.482 36.9023Z" fill="#3A84C9"/>
<path d="M172.576 41.5494C173.56 41.5494 174.334 41.2994 174.898 40.7993C175.479 40.2833 175.77 39.6219 175.77 38.8154C175.77 38.2185 175.624 37.6781 175.334 37.1943C175.06 36.7103 174.584 36.2587 173.907 35.8394C173.229 35.4039 172.293 34.9924 171.1 34.6054C169.083 33.928 167.503 33.1939 166.358 32.4035C165.212 31.597 164.406 30.7019 163.938 29.7178C163.47 28.7178 163.236 27.5968 163.236 26.3546C163.236 24.2095 163.962 22.564 165.414 21.4188C166.866 20.2574 168.809 19.6768 171.245 19.6768C172.245 19.6768 173.068 19.7736 173.713 19.9671C174.358 20.1607 174.85 20.3542 175.189 20.5477C175.544 20.7253 175.77 20.8139 175.866 20.8139C176.044 20.8139 176.366 20.7253 176.834 20.5477C177.318 20.3542 177.794 20.1607 178.262 19.9671C178.73 19.7736 179.036 19.6768 179.181 19.6768C179.262 19.6768 179.334 19.7009 179.399 19.7494C179.479 19.7816 179.528 19.8622 179.544 19.9912L180.681 27.2982C180.713 27.4597 180.721 27.5887 180.705 27.6854C180.689 27.7661 180.657 27.8225 180.609 27.8549C180.544 27.871 180.488 27.871 180.439 27.8549C180.391 27.8225 180.343 27.7742 180.294 27.7095C179.229 25.8062 178.229 24.3061 177.294 23.2093C176.374 22.1124 175.447 21.3381 174.511 20.8865C173.592 20.435 172.608 20.2091 171.56 20.2091C170.495 20.2091 169.68 20.4833 169.116 21.0317C168.551 21.564 168.269 22.2737 168.269 23.1609C168.269 23.8062 168.414 24.3868 168.704 24.903C169.011 25.4192 169.551 25.895 170.325 26.3304C171.116 26.7659 172.229 27.1855 173.665 27.5887C175.455 28.1048 176.874 28.742 177.923 29.5002C178.988 30.2582 179.754 31.1212 180.222 32.089C180.689 33.0568 180.923 34.1134 180.923 35.2585C180.923 36.6781 180.568 37.904 179.859 38.9364C179.165 39.9525 178.237 40.7429 177.076 41.3074C175.915 41.872 174.616 42.1542 173.181 42.1542C172.277 42.1542 171.495 42.0334 170.834 41.7914C170.188 41.5494 169.664 41.3155 169.261 41.0898C168.874 40.8478 168.64 40.7268 168.559 40.7268C168.446 40.7268 168.172 40.8317 167.737 41.0413C167.317 41.2511 166.882 41.4606 166.43 41.6704C165.995 41.8963 165.696 42.0091 165.535 42.0091C165.438 42.0091 165.341 41.9607 165.245 41.8639C165.164 41.7834 165.107 41.6382 165.075 41.4284L164.132 35.2829C164.115 35.0892 164.115 34.9521 164.132 34.8716C164.148 34.7747 164.188 34.7101 164.252 34.6779C164.301 34.6457 164.341 34.6457 164.373 34.6779C164.422 34.7101 164.478 34.7667 164.543 34.8472C165.978 37.2507 167.341 38.9686 168.632 40.001C169.939 41.0332 171.253 41.5494 172.576 41.5494Z" fill="#3A84C9"/>
<path d="M187.618 42.2037C186.585 42.2037 185.657 41.9506 184.834 41.4443C184.011 40.917 183.357 40.221 182.872 39.3561C182.387 38.4913 182.145 37.5421 182.145 36.5086C182.145 35.4961 182.387 34.5678 182.872 33.7241C183.357 32.8593 184.011 32.1738 184.834 31.6676C185.678 31.1613 186.606 30.9082 187.618 30.9082C188.673 30.9082 189.612 31.1613 190.434 31.6676C191.278 32.1738 191.942 32.8593 192.428 33.7241C192.934 34.5678 193.187 35.4961 193.187 36.5086C193.187 37.5421 192.934 38.4913 192.428 39.3561C191.942 40.221 191.278 40.917 190.434 41.4443C189.612 41.9506 188.673 42.2037 187.618 42.2037Z" fill="#C57B36"/>
</svg>
