<svg width="96" height="96" viewBox="0 0 96 96" fill="none" xmlns="http://www.w3.org/2000/svg">
<path d="M48 64V84M72 84L56.1944 70.8286C53.2792 68.3994 51.8217 67.1847 50.1947 66.7206C48.7602 66.3114 47.2398 66.3114 45.8053 66.7206C44.1783 67.1847 42.7208 68.3994 39.8056 70.8286L24 84M32 44V48M48 36V48M64 28V48M88 12H8M12 12H84V44.8C84 51.5206 84 54.8809 82.6921 57.4479C81.5416 59.7058 79.7058 61.5416 77.4479 62.6921C74.8809 64 71.5206 64 64.8 64H31.2C24.4794 64 21.1191 64 18.5521 62.6921C16.2942 61.5416 14.4584 59.7058 13.3079 57.4479C12 54.8809 12 51.5206 12 44.8V12Z" stroke="#C57B36" stroke-width="6" stroke-linecap="round" stroke-linejoin="round"/>
</svg>
