<svg width="96" height="96" viewBox="0 0 96 96" fill="none" xmlns="http://www.w3.org/2000/svg">
<path d="M68.8 55.9997C69.908 55.9997 70.462 55.9997 70.911 56.2457C71.2814 56.4487 71.6262 56.8298 71.7911 57.2186C71.9911 57.6899 71.9408 58.1914 71.8402 59.1945C71.3184 64.3947 69.5286 69.4055 66.607 73.778C63.0908 79.0403 58.0931 83.1418 52.2459 85.5639C46.3986 87.9859 39.9645 88.6196 33.7571 87.3848C27.5497 86.1501 21.8479 83.1024 17.3726 78.6271C12.8973 74.1518 9.84961 68.45 8.61489 62.2426C7.38016 56.0352 8.01387 49.6011 10.4359 43.7538C12.8579 37.9066 16.9594 32.9089 22.2218 29.3927C26.5943 26.4711 31.605 24.6813 36.8052 24.1596C37.8083 24.0589 38.3098 24.0086 38.7811 24.2086C39.1699 24.3735 39.551 24.7183 39.754 25.0887C40 25.5377 40 26.0917 40 27.1997V52.7997C40 53.9198 40 54.4799 40.218 54.9077C40.4097 55.284 40.7157 55.59 41.092 55.7817C41.5199 55.9997 42.0799 55.9997 43.2 55.9997H68.8Z" stroke="#C57B36" stroke-width="6" stroke-linecap="round" stroke-linejoin="round"/>
<path d="M56 11.1997C56 10.0917 56 9.53768 56.246 9.08867C56.449 8.71826 56.8301 8.3735 57.2189 8.20854C57.6902 8.00856 58.1917 8.05887 59.1948 8.15948C66.5084 8.89308 73.384 12.1289 78.6274 17.3723C83.8708 22.6157 87.1066 29.4913 87.8402 36.8049C87.9408 37.808 87.9912 38.3095 87.7912 38.7809C87.6262 39.1697 87.2815 39.5507 86.9111 39.7537C86.462 39.9997 85.908 39.9997 84.8 39.9997L59.2 39.9997C58.0799 39.9997 57.5199 39.9997 57.092 39.7817C56.7157 39.59 56.4097 39.284 56.218 38.9077C56 38.4799 56 37.9198 56 36.7997V11.1997Z" stroke="#C57B36" stroke-width="6" stroke-linecap="round" stroke-linejoin="round"/>
</svg>
