<svg width="96" height="96" viewBox="0 0 96 96" fill="none" xmlns="http://www.w3.org/2000/svg">
<path d="M52 20C52 24.4183 42.1503 28 30 28C17.8497 28 8 24.4183 8 20M52 20C52 15.5817 42.1503 12 30 12C17.8497 12 8 15.5817 8 20M52 20V26M8 20V68C8 72.4183 17.8497 76 30 76M30 44C29.3258 44 28.6587 43.989 28 43.9674C16.787 43.5999 8 40.1731 8 36M30 60C17.8497 60 8 56.4183 8 52M88 46C88 50.4183 78.1503 54 66 54C53.8497 54 44 50.4183 44 46M88 46C88 41.5817 78.1503 38 66 38C53.8497 38 44 41.5817 44 46M88 46V76C88 80.4183 78.1503 84 66 84C53.8497 84 44 80.4183 44 76V46M88 61C88 65.4183 78.1503 69 66 69C53.8497 69 44 65.4183 44 61" stroke="#C57B36" stroke-width="6" stroke-linecap="round" stroke-linejoin="round"/>
</svg>
