<svg width="96" height="96" viewBox="0 0 96 96" fill="none" xmlns="http://www.w3.org/2000/svg">
<path d="M12 31.2C12 24.4794 12 21.1191 13.3079 18.5521C14.4584 16.2942 16.2942 14.4584 18.5521 13.3079C21.1191 12 24.4794 12 31.2 12H64.8C71.5206 12 74.8809 12 77.4479 13.3079C79.7058 14.4584 81.5416 16.2942 82.6921 18.5521C84 21.1191 84 24.4794 84 31.2V64.8C84 71.5206 84 74.8809 82.6921 77.4479C81.5416 79.7058 79.7058 81.5416 77.4479 82.6921C74.8809 84 71.5206 84 64.8 84H31.2C24.4794 84 21.1191 84 18.5521 82.6921C16.2942 81.5416 14.4584 79.7058 13.3079 77.4479C12 74.8809 12 71.5206 12 64.8V31.2Z" stroke="#C57B36" stroke-width="6" stroke-linecap="round" stroke-linejoin="round"/>
<path d="M55.3333 29.2C55.3333 28.0799 55.3333 27.5198 55.1153 27.092C54.9236 26.7157 54.6176 26.4097 54.2413 26.218C53.8135 26 53.2534 26 52.1333 26H43.8667C42.7466 26 42.1865 26 41.7587 26.218C41.3824 26.4097 41.0764 26.7157 40.8847 27.092C40.6667 27.5198 40.6667 28.0799 40.6667 29.2V37.4667C40.6667 38.5868 40.6667 39.1468 40.4487 39.5746C40.2569 39.951 39.951 40.2569 39.5746 40.4487C39.1468 40.6667 38.5868 40.6667 37.4667 40.6667H29.2C28.0799 40.6667 27.5198 40.6667 27.092 40.8847C26.7157 41.0764 26.4097 41.3824 26.218 41.7587C26 42.1865 26 42.7466 26 43.8667V52.1333C26 53.2534 26 53.8135 26.218 54.2413C26.4097 54.6176 26.7157 54.9236 27.092 55.1153C27.5198 55.3333 28.0799 55.3333 29.2 55.3333H37.4667C38.5868 55.3333 39.1468 55.3333 39.5746 55.5513C39.951 55.7431 40.2569 56.049 40.4487 56.4254C40.6667 56.8532 40.6667 57.4132 40.6667 58.5333V66.8C40.6667 67.9201 40.6667 68.4802 40.8847 68.908C41.0764 69.2843 41.3824 69.5903 41.7587 69.782C42.1865 70 42.7466 70 43.8667 70H52.1333C53.2534 70 53.8135 70 54.2413 69.782C54.6176 69.5903 54.9236 69.2843 55.1153 68.908C55.3333 68.4802 55.3333 67.9201 55.3333 66.8V58.5333C55.3333 57.4132 55.3333 56.8532 55.5513 56.4254C55.7431 56.049 56.049 55.7431 56.4254 55.5513C56.8532 55.3333 57.4132 55.3333 58.5333 55.3333H66.8C67.9201 55.3333 68.4802 55.3333 68.908 55.1153C69.2843 54.9236 69.5903 54.6176 69.782 54.2413C70 53.8135 70 53.2534 70 52.1333V43.8667C70 42.7466 70 42.1865 69.782 41.7587C69.5903 41.3824 69.2843 41.0764 68.908 40.8847C68.4802 40.6667 67.9201 40.6667 66.8 40.6667H58.5333C57.4132 40.6667 56.8532 40.6667 56.4254 40.4487C56.049 40.2569 55.7431 39.951 55.5513 39.5746C55.3333 39.1468 55.3333 38.5868 55.3333 37.4667V29.2Z" stroke="#C57B36" stroke-width="6" stroke-linecap="round" stroke-linejoin="round"/>
</svg>
