<svg width="27" height="28" viewBox="0 0 27 28" fill="none" xmlns="http://www.w3.org/2000/svg">
<path fill-rule="evenodd" clip-rule="evenodd" d="M13.5079 2.93153C17.1171 2.93153 17.5445 2.94735 18.9638 3.01065C20.283 3.06867 20.9953 3.29019 21.4702 3.4748C22.0981 3.71743 22.5519 4.0128 23.0215 4.48222C23.4964 4.95693 23.7866 5.40526 24.0293 6.03292C24.214 6.50762 24.4356 7.22495 24.4936 8.53829C24.557 9.96239 24.5728 10.3896 24.5728 13.9921C24.5728 17.5998 24.557 18.0271 24.4936 19.4459C24.4356 20.7645 24.214 21.4766 24.0293 21.9513C23.7866 22.5789 23.4911 23.0325 23.0215 23.502C22.5466 23.9767 22.0981 24.2668 21.4702 24.5094C20.9953 24.694 20.2777 24.9155 18.9638 24.9735C17.5392 25.0368 17.1118 25.0526 13.5079 25.0526C9.89877 25.0526 9.47137 25.0368 8.05198 24.9735C6.73285 24.9155 6.02052 24.694 5.54563 24.5094C4.91773 24.2668 4.46394 23.9714 3.99433 23.502C3.51944 23.0273 3.22924 22.5789 2.98652 21.9513C2.80184 21.4766 2.58022 20.7592 2.52218 19.4459C2.45886 18.0218 2.44303 17.5946 2.44303 13.9921C2.44303 10.3844 2.45886 9.95712 2.52218 8.53829C2.58022 7.21967 2.80184 6.50762 2.98652 6.03292C3.22924 5.40526 3.52472 4.95165 3.99433 4.48222C4.46922 4.00752 4.91773 3.71743 5.54563 3.4748C6.02052 3.29019 6.73813 3.06867 8.05198 3.01065C9.47137 2.94735 9.89877 2.93153 13.5079 2.93153ZM13.5079 0.5C9.84073 0.5 9.38167 0.515823 7.94118 0.579117C6.50596 0.642411 5.51925 0.874487 4.66445 1.20678C3.77272 1.55489 3.01817 2.01377 2.26891 2.76802C1.51436 3.517 1.05531 4.27125 0.707055 5.15736C0.374634 6.01709 0.142466 6.99814 0.0791479 8.4328C0.0158296 9.878 0 10.3369 0 14.0026C0 17.6684 0.0158296 18.1273 0.0791479 19.5672C0.142466 21.0019 0.374634 21.9882 0.707055 22.8426C1.05531 23.734 1.51436 24.4883 2.26891 25.2373C3.01817 25.9862 3.77272 26.4504 4.65918 26.7932C5.51925 27.1255 6.50068 27.3576 7.9359 27.4209C9.37639 27.4842 9.83545 27.5 13.5026 27.5C17.1698 27.5 17.6289 27.4842 19.0694 27.4209C20.5046 27.3576 21.4913 27.1255 22.3461 26.7932C23.2326 26.4504 23.9871 25.9862 24.7364 25.2373C25.4856 24.4883 25.95 23.734 26.2929 22.8479C26.6254 21.9882 26.8575 21.0071 26.9209 19.5725C26.9842 18.1325 27 17.6737 27 14.0079C27 10.3422 26.9842 9.88328 26.9209 8.44335C26.8575 7.00869 26.6254 6.02237 26.2929 5.1679C25.9605 4.27124 25.5015 3.517 24.7469 2.76802C23.9977 2.01905 23.2431 1.55489 22.3567 1.21205C21.4966 0.879762 20.5151 0.647685 19.0799 0.584391C17.6342 0.515823 17.1751 0.5 13.5079 0.5ZM13.5089 7.06641C9.67819 7.06641 6.57031 10.1731 6.57031 14.0023C6.57031 17.8316 9.67819 20.9383 13.5089 20.9383C17.3397 20.9383 20.4476 17.8316 20.4476 14.0023C20.4476 10.1731 17.3397 7.06641 13.5089 7.06641ZM13.5089 18.5015C11.0237 18.5015 9.00807 16.4866 9.00807 14.0023C9.00807 11.5181 11.0237 9.50321 13.5089 9.50321C15.9942 9.50321 18.0098 11.5181 18.0098 14.0023C18.0098 16.4866 15.9942 18.5015 13.5089 18.5015ZM20.7215 8.41138C21.6132 8.41138 22.3414 7.68878 22.3414 6.79212C22.3414 5.90073 21.6132 5.17285 20.7215 5.17285C19.8297 5.17285 19.1016 5.89545 19.1016 6.79212C19.1016 7.6835 19.8244 8.41138 20.7215 8.41138Z" fill="#C57B36"/>
</svg>
