<svg width="25" height="26" viewBox="0 0 25 26" fill="none" xmlns="http://www.w3.org/2000/svg">
<path d="M23.1545 0.5H1.84549C1.35603 0.5 0.886626 0.694435 0.540531 1.04053C0.194435 1.38663 0 1.85603 0 2.34549V23.6545C0 24.144 0.194435 24.6134 0.540531 24.9595C0.886626 25.3056 1.35603 25.5 1.84549 25.5H23.1545C23.644 25.5 24.1134 25.3056 24.4595 24.9595C24.8056 24.6134 25 24.144 25 23.6545V2.34549C25 1.85603 24.8056 1.38663 24.4595 1.04053C24.1134 0.694435 23.644 0.5 23.1545 0.5ZM7.45139 21.7969H3.69271V9.85764H7.45139V21.7969ZM5.56944 8.20312C5.14309 8.20072 4.72699 8.07208 4.37368 7.83342C4.02037 7.59477 3.74567 7.2568 3.58425 6.86218C3.42283 6.46755 3.38192 6.03395 3.4667 5.6161C3.55147 5.19825 3.75813 4.81487 4.06058 4.51436C4.36303 4.21384 4.74772 4.00965 5.16611 3.92756C5.5845 3.84547 6.01783 3.88916 6.41141 4.05311C6.80499 4.21706 7.14119 4.49392 7.37757 4.84876C7.61395 5.2036 7.73992 5.62051 7.73958 6.04688C7.74361 6.33233 7.69012 6.61567 7.5823 6.88C7.47449 7.14434 7.31456 7.38427 7.11205 7.58549C6.90954 7.7867 6.66859 7.94509 6.40357 8.0512C6.13854 8.15731 5.85486 8.20898 5.56944 8.20312ZM21.3056 21.8073H17.5486V15.2847C17.5486 13.3611 16.7309 12.7674 15.6753 12.7674C14.5608 12.7674 13.467 13.6076 13.467 15.3333V21.8073H9.70833V9.86632H13.3229V11.5208H13.3715C13.7344 10.7865 15.0052 9.53125 16.9444 9.53125C19.0417 9.53125 21.3073 10.776 21.3073 14.4219L21.3056 21.8073Z" fill="#C57B36"/>
</svg>
