<svg width="50" height="50" viewBox="0 0 50 50" fill="none" xmlns="http://www.w3.org/2000/svg">
<path d="M25 49C38.2548 49 49 38.2548 49 25C49 11.7452 38.2548 1 25 1C11.7452 1 1 11.7452 1 25C1 38.2548 11.7452 49 25 49Z" stroke="#3A84C9" stroke-width="1.25"/>
<path d="M24.9993 27.6378C26.4567 27.6378 27.6381 26.4564 27.6381 24.9991C27.6381 23.5418 26.4567 22.3604 24.9993 22.3604C23.542 22.3604 22.3606 23.5418 22.3606 24.9991C22.3606 26.4564 23.542 27.6378 24.9993 27.6378Z" fill="#3A84C9" stroke="#3A84C9" stroke-width="1.25"/>
<path d="M41.9614 16.2021C41.9614 16.2021 32.0588 19.8662 32.0586 24.7186C32.0586 29.5709 41.9614 33.829 41.9614 33.829" stroke="#C57B36" stroke-width="1.25" stroke-linecap="round"/>
<path d="M45.62 24.9304C45.62 26.3875 44.4388 27.5688 42.9817 27.5688C41.5245 27.5688 40.3433 26.3875 40.3433 24.9304C40.3433 23.4732 41.5245 22.292 42.9817 22.292C44.4388 22.292 45.62 23.4732 45.62 24.9304Z" stroke="#C57B36" stroke-width="1.25"/>
<path d="M30.7744 6.78613C30.7744 6.78613 26.363 16.3792 29.7941 19.8103C33.2252 23.2416 43.2384 19.2502 43.2384 19.2502" stroke="#3A84C9" stroke-width="1.25" stroke-linecap="round"/>
<path d="M39.5277 10.3697C40.558 11.4001 40.558 13.0706 39.5277 14.101C38.4973 15.1313 36.8268 15.1313 35.7964 14.101C34.7661 13.0706 34.7661 11.4001 35.7964 10.3697C36.8268 9.33937 38.4973 9.33937 39.5277 10.3697Z" stroke="#3A84C9" stroke-width="1.25"/>
<path d="M16.1991 8.03516C16.1991 8.03516 19.8631 17.9378 24.7154 17.9379C29.5678 17.9379 33.8259 8.03516 33.8259 8.03516" stroke="#C57B36" stroke-width="1.25" stroke-linecap="round"/>
<path d="M24.9239 4.37654C26.3811 4.37654 27.5623 5.55779 27.5623 7.01493C27.5623 8.47207 26.3811 9.65332 24.9239 9.65332C23.4668 9.65332 22.2855 8.47207 22.2855 7.01493C22.2855 5.55779 23.4668 4.37654 24.9239 4.37654Z" stroke="#C57B36" stroke-width="1.25"/>
<path d="M6.78076 19.2258C6.78076 19.2258 16.3739 23.6371 19.8049 20.2061C23.2362 16.775 19.2448 6.76172 19.2448 6.76172" stroke="#3A84C9" stroke-width="1.25" stroke-linecap="round"/>
<path d="M10.3642 10.4725C11.3946 9.44211 13.0651 9.44211 14.0955 10.4725C15.1258 11.5028 15.1258 13.1734 14.0955 14.2037C13.0651 15.2341 11.3946 15.2341 10.3642 14.2037C9.33388 13.1734 9.33388 11.5028 10.3642 10.4725Z" stroke="#3A84C9" stroke-width="1.25"/>
<path d="M8.03271 33.8016C8.03271 33.8016 17.9354 30.1377 17.9354 25.2854C17.9355 20.433 8.03271 16.1748 8.03271 16.1748" stroke="#C57B36" stroke-width="1.25" stroke-linecap="round"/>
<path d="M4.37129 25.0765C4.37129 23.6193 5.55254 22.4381 7.00968 22.4381C8.46682 22.4381 9.64807 23.6193 9.64807 25.0765C9.64807 26.5336 8.46682 27.7148 7.00968 27.7148C5.55254 27.7148 4.37129 26.5336 4.37129 25.0765Z" stroke="#C57B36" stroke-width="1.25"/>
<path d="M19.2188 43.2258C19.2188 43.2258 23.6302 33.6328 20.1991 30.2017C16.7681 26.7706 6.75476 30.7618 6.75476 30.7618" stroke="#3A84C9" stroke-width="1.25" stroke-linecap="round"/>
<path d="M10.4723 39.6342C9.44199 38.6038 9.44199 36.9333 10.4723 35.9029C11.5027 34.8726 13.1732 34.8726 14.2036 35.9029C15.2339 36.9333 15.2339 38.6038 14.2036 39.6342C13.1732 40.6645 11.5027 40.6645 10.4723 39.6342Z" stroke="#3A84C9" stroke-width="1.25"/>
<path d="M33.8 41.9682C33.8 41.9682 30.136 32.0654 25.2836 32.0654C20.4313 32.0654 16.1731 41.9682 16.1731 41.9682" stroke="#C57B36" stroke-width="1.25" stroke-linecap="round"/>
<path d="M25.0732 45.6274C23.616 45.6274 22.4348 44.4461 22.4348 42.989C22.4348 41.5318 23.616 40.3506 25.0732 40.3506C26.5303 40.3506 27.7115 41.5318 27.7115 42.989C27.7115 44.4461 26.5303 45.6274 25.0732 45.6274Z" stroke="#C57B36" stroke-width="1.25"/>
<path d="M43.2213 30.7762C43.2213 30.7762 33.6282 26.3647 30.1969 29.7958C26.7659 33.2268 30.757 43.2403 30.757 43.2403" stroke="#3A84C9" stroke-width="1.25" stroke-linecap="round"/>
<path d="M39.63 39.5295C38.5997 40.5598 36.9291 40.5598 35.8988 39.5295C34.8684 38.4991 34.8684 36.8286 35.8988 35.7982C36.9291 34.7679 38.5997 34.7679 39.63 35.7982C40.6604 36.8286 40.6604 38.4991 39.63 39.5295Z" stroke="#3A84C9" stroke-width="1.25"/>
</svg>
