<svg width="96" height="96" viewBox="0 0 96 96" fill="none" xmlns="http://www.w3.org/2000/svg">
<path d="M81.9999 29.1111L47.9999 48M47.9999 48L13.9999 29.1111M47.9999 48L48 86.0001M84 64.2343V31.7659C84 30.3953 84 29.71 83.7981 29.0988C83.6194 28.5581 83.3274 28.0618 82.9415 27.643C82.5053 27.1697 81.9062 26.8369 80.7081 26.1713L51.1081 9.72682C49.9737 9.09659 49.4065 8.78147 48.8058 8.65793C48.2742 8.54859 47.7258 8.54859 47.1942 8.65793C46.5935 8.78148 46.0263 9.09659 44.8919 9.72682L15.2919 26.1713C14.0938 26.8369 13.4947 27.1697 13.0585 27.643C12.6726 28.0618 12.3806 28.5581 12.2019 29.0988C12 29.71 12 30.3953 12 31.7659V64.2343C12 65.6049 12 66.2902 12.2019 66.9014C12.3806 67.4421 12.6726 67.9384 13.0585 68.3572C13.4947 68.8305 14.0938 69.1633 15.2919 69.8289L44.8919 86.2734C46.0263 86.9036 46.5935 87.2187 47.1942 87.3422C47.7258 87.4516 48.2742 87.4516 48.8058 87.3422C49.4065 87.2187 49.9737 86.9036 51.1081 86.2734L80.7081 69.8289C81.9062 69.1633 82.5053 68.8305 82.9415 68.3572C83.3274 67.9384 83.6194 67.4421 83.7981 66.9014C84 66.2902 84 65.6049 84 64.2343Z" stroke="#C57B36" stroke-width="6" stroke-linecap="round" stroke-linejoin="round"/>
<path d="M66 38L30 18" stroke="#C57B36" stroke-width="6" stroke-linecap="round" stroke-linejoin="round"/>
</svg>
