<svg width="96" height="96" viewBox="0 0 96 96" fill="none" xmlns="http://www.w3.org/2000/svg">
<path d="M38 35.8613C38 33.9522 38 32.9976 38.399 32.4647C38.7466 32.0003 39.2789 31.7097 39.8575 31.6684C40.5215 31.621 41.3245 32.1372 42.9304 33.1696L61.8128 45.3082C63.2063 46.2041 63.9031 46.652 64.1438 47.2216C64.3541 47.7192 64.3541 48.2808 64.1438 48.7784C63.9031 49.348 63.2063 49.7959 61.8128 50.6918L42.9304 62.8304C41.3245 63.8628 40.5215 64.379 39.8575 64.3316C39.2789 64.2903 38.7466 63.9997 38.399 63.5353C38 63.0024 38 62.0478 38 60.1387V35.8613Z" stroke="#C57B36" stroke-width="6" stroke-linecap="round" stroke-linejoin="round"/>
<path d="M12 31.2C12 24.4794 12 21.1191 13.3079 18.5521C14.4584 16.2942 16.2942 14.4584 18.5521 13.3079C21.1191 12 24.4794 12 31.2 12H64.8C71.5206 12 74.8809 12 77.4479 13.3079C79.7058 14.4584 81.5416 16.2942 82.6921 18.5521C84 21.1191 84 24.4794 84 31.2V64.8C84 71.5206 84 74.8809 82.6921 77.4479C81.5416 79.7058 79.7058 81.5416 77.4479 82.6921C74.8809 84 71.5206 84 64.8 84H31.2C24.4794 84 21.1191 84 18.5521 82.6921C16.2942 81.5416 14.4584 79.7058 13.3079 77.4479C12 74.8809 12 71.5206 12 64.8V31.2Z" stroke="#C57B36" stroke-width="6" stroke-linecap="round" stroke-linejoin="round"/>
</svg>
