<svg width="34" height="34" viewBox="0 0 34 34" fill="none" xmlns="http://www.w3.org/2000/svg">
<path id="Icon" d="M10.3746 11.8332C11.5717 14.3265 13.2035 16.6632 15.2701 18.7299C17.3368 20.7965 19.6735 22.4283 22.1668 23.6254C22.3812 23.7284 22.4885 23.7798 22.6241 23.8194C23.1063 23.96 23.6984 23.859 24.1068 23.5666C24.2217 23.4843 24.32 23.386 24.5166 23.1894C25.1179 22.5881 25.4186 22.2874 25.7209 22.0909C26.861 21.3496 28.3308 21.3496 29.4709 22.0909C29.7733 22.2874 30.0739 22.5881 30.6752 23.1894L31.0104 23.5246C31.9244 24.4386 32.3814 24.8956 32.6297 25.3864C33.1234 26.3626 33.1234 27.5154 32.6297 28.4916C32.3814 28.9824 31.9244 29.4394 31.0104 30.3535L30.7393 30.6246C29.8283 31.5355 29.3729 31.991 28.7537 32.3388C28.0665 32.7248 26.9993 33.0023 26.2112 33C25.501 32.9979 25.0156 32.8601 24.0448 32.5846C18.8276 31.1038 13.9045 28.3098 9.79737 24.2026C5.69022 20.0955 2.89625 15.1724 1.41544 9.95522C1.1399 8.98441 1.00213 8.49901 1.00001 7.78877C0.997669 7.00066 1.2752 5.93346 1.66119 5.24634C2.00904 4.62712 2.46449 4.17166 3.37541 3.26075L3.64653 2.98963C4.56057 2.07559 5.01759 1.61857 5.50842 1.3703C6.48459 0.876565 7.63739 0.876565 8.61355 1.3703C9.10439 1.61857 9.56141 2.07559 10.4754 2.98963L10.8106 3.32479C11.4119 3.92609 11.7126 4.22673 11.9091 4.52906C12.6504 5.66918 12.6504 7.139 11.9091 8.27912C11.7126 8.58144 11.4119 8.88209 10.8106 9.48339C10.614 9.68 10.5157 9.7783 10.4334 9.89321C10.141 10.3016 10.04 10.8937 10.1806 11.3759C10.2202 11.5115 10.2716 11.6188 10.3746 11.8332Z" stroke="white" stroke-width="2" stroke-linecap="round" stroke-linejoin="round"/>
</svg>
