<svg width="22" height="22" viewBox="0 0 22 22" fill="none" xmlns="http://www.w3.org/2000/svg">
<path d="M6.85913 7.77077C7.6073 9.32905 8.6272 10.7895 9.91884 12.0812C11.2105 13.3728 12.671 14.3927 14.2292 15.1409C14.3633 15.2052 14.4303 15.2374 14.5151 15.2621C14.8165 15.35 15.1865 15.2869 15.4417 15.1041C15.5136 15.0527 15.575 14.9912 15.6979 14.8684C16.0737 14.4926 16.2616 14.3047 16.4506 14.1818C17.1631 13.7185 18.0818 13.7185 18.7943 14.1818C18.9833 14.3047 19.1712 14.4926 19.547 14.8684L19.7565 15.0778C20.3278 15.6491 20.6134 15.9348 20.7686 16.2415C21.0771 16.8516 21.0771 17.5721 20.7686 18.1822C20.6134 18.489 20.3278 18.7746 19.7565 19.3459L19.587 19.5154C19.0177 20.0847 18.7331 20.3694 18.346 20.5868C17.9166 20.828 17.2496 21.0015 16.757 21C16.3131 20.9987 16.0097 20.9126 15.403 20.7403C12.1422 19.8148 9.06532 18.0686 6.49836 15.5016C3.93139 12.9347 2.18516 9.85777 1.25965 6.59701C1.08744 5.99026 1.00133 5.68688 1.00001 5.24298C0.998543 4.75042 1.172 4.08342 1.41324 3.65397C1.63065 3.26695 1.91531 2.98229 2.48463 2.41297L2.65408 2.24352C3.22535 1.67224 3.51099 1.3866 3.81776 1.23144C4.42787 0.922853 5.14837 0.922853 5.75847 1.23144C6.06524 1.3866 6.35088 1.67224 6.92216 2.24352L7.13163 2.45299C7.50744 2.8288 7.69535 3.01671 7.8182 3.20566C8.2815 3.91824 8.2815 4.83687 7.8182 5.54945C7.69535 5.7384 7.50744 5.92631 7.13163 6.30212C7.00875 6.425 6.94731 6.48644 6.89588 6.55826C6.71313 6.81348 6.65003 7.18355 6.73788 7.48491C6.7626 7.56972 6.79478 7.63674 6.85913 7.77077Z" stroke="#C57B36" stroke-width="2" stroke-linecap="round" stroke-linejoin="round"/>
</svg>
