<svg width="96" height="96" viewBox="0 0 96 96" fill="none" xmlns="http://www.w3.org/2000/svg">
<path d="M44 44H24.8C20.3196 44 18.0794 44 16.3681 44.8719C14.8628 45.6389 13.6389 46.8628 12.8719 48.3681C12 50.0794 12 52.3196 12 56.8V84M84 84V24.8C84 20.3196 84 18.0794 83.1281 16.3681C82.3611 14.8628 81.1372 13.6389 79.6319 12.8719C77.9206 12 75.6804 12 71.2 12H56.8C52.3196 12 50.0794 12 48.3681 12.8719C46.8628 13.6389 45.6389 14.8628 44.8719 16.3681C44 18.0794 44 20.3196 44 24.8V84M88 84H8M58 28H70M58 44H70M58 60H70" stroke="#C57B36" stroke-width="6" stroke-linecap="round" stroke-linejoin="round"/>
</svg>
