<svg width="22" height="22" viewBox="0 0 22 22" fill="none" xmlns="http://www.w3.org/2000/svg">
<path d="M11 20.5C16.2467 20.5 20.5 16.2467 20.5 11C20.5 5.75329 16.2467 1.5 11 1.5C5.75329 1.5 1.5 5.75329 1.5 11C1.5 16.2467 5.75329 20.5 11 20.5Z" stroke="#C57B36" stroke-width="2" stroke-linecap="round" stroke-linejoin="round"/>
<path d="M8.16523 16.4306C7.93216 16.4306 7.72949 16.3445 7.55723 16.1722C7.38496 16 7.29883 15.7973 7.29883 15.5642V15.3666C7.29883 15.0525 7.50656 14.7586 7.92203 14.485C8.48949 14.1101 8.77323 13.4058 8.77323 12.3722V11.6426C8.77323 11.5615 8.72763 11.521 8.63643 11.521H8.28683C8.08416 11.521 7.91189 11.4501 7.77003 11.3082C7.62816 11.1562 7.55723 10.9789 7.55723 10.7762C7.55723 10.5736 7.62816 10.4013 7.77003 10.2594C7.91189 10.1176 8.08416 10.0466 8.28683 10.0466H8.63643C8.72763 10.0466 8.77323 10.001 8.77323 9.90982V8.37462C8.77323 7.36128 9.08736 6.57595 9.71563 6.01862C10.354 5.46128 11.266 5.18262 12.4516 5.18262C12.8367 5.18262 13.2167 5.21302 13.5916 5.27382C13.8348 5.31435 14.0324 5.44102 14.1844 5.65382C14.3466 5.86662 14.4276 6.09968 14.4276 6.35302V6.39862C14.4276 6.60128 14.3415 6.76342 14.1692 6.88502C14.0071 7.00662 13.8196 7.04208 13.6068 6.99142C13.3231 6.93062 13.0191 6.90022 12.6948 6.90022C12.0463 6.90022 11.5802 7.03195 11.2964 7.29542C11.0127 7.55888 10.8708 7.98448 10.8708 8.57222V9.90982C10.8708 10.001 10.9164 10.0466 11.0076 10.0466H12.9532C13.1559 10.0466 13.3282 10.1176 13.47 10.2594C13.6119 10.4013 13.6828 10.5736 13.6828 10.7762C13.6828 10.9789 13.6119 11.1562 13.47 11.3082C13.3282 11.4501 13.1559 11.521 12.9532 11.521H11.0076C10.9164 11.521 10.8708 11.5615 10.8708 11.6426V12.3722C10.8708 12.9296 10.7746 13.416 10.582 13.8314C10.3895 14.2368 10.1412 14.5154 9.83723 14.6674V14.6978C9.83723 14.708 9.8423 14.713 9.85243 14.713H13.7892C14.0223 14.713 14.225 14.7992 14.3972 14.9714C14.5695 15.1336 14.6556 15.3312 14.6556 15.5642C14.6556 15.7973 14.5695 16 14.3972 16.1722C14.225 16.3445 14.0223 16.4306 13.7892 16.4306H8.16523Z" fill="#C57B36"/>
</svg>
