<svg width="100" height="88" viewBox="0 0 100 88" fill="none" xmlns="http://www.w3.org/2000/svg">
<path d="M15.4486 11.6188C15.1664 23.2846 14.0845 34.3859 12.5322 40.9244C12.1088 42.6178 11.5444 45.1109 11.2151 46.5221C10.6506 49.0622 10.6036 49.1093 7.12264 51.179C3.21836 53.4369 0.537109 55.7889 0.537109 56.8708C0.537109 58.2349 3.31244 63.5034 5.47626 66.3257C9.94502 72.1587 15.6838 76.11 20.2937 76.5804C22.4105 76.7685 22.7398 76.6744 24.0569 75.3103C25.421 73.9462 25.5151 73.711 25.1858 71.6412C24.9977 70.3711 24.3391 67.6899 23.7276 65.6202C21.4697 58.0468 19.3059 47.4629 19.8704 46.8043C20.0585 46.5221 21.2345 45.5813 22.4105 44.7346C23.9158 43.6527 24.5743 43.4175 24.7154 43.8409C24.8566 44.1701 25.4681 47.1807 26.1266 50.5205C27.3496 56.7767 27.8671 57.9998 28.8549 57.0119C29.4194 56.4474 29.1371 54.0014 27.5378 46.1458C27.0204 43.6527 26.8793 42.0063 27.1615 41.583C27.3967 41.2066 28.5256 40.3129 29.6546 39.6543C31.395 38.6195 31.6773 38.5724 31.395 39.278C31.2539 39.7484 30.7835 42.0063 30.3602 44.3112C29.3723 50.003 29.9839 52.6843 32.2888 52.6843C33.3707 52.6843 34.4056 51.0849 34.4056 49.2974C34.4056 48.5918 34.5937 48.4507 35.2523 48.6859C37.0398 49.4856 37.8865 49.1563 38.8273 47.4159C39.5799 46.0987 40.0503 45.7224 40.9911 45.7695C41.8849 45.8635 42.3082 45.5343 42.8727 44.3583C43.3901 43.2293 43.8135 42.9001 44.425 43.0882C45.9773 43.5586 47.4355 42.853 48.7526 40.9244C49.5053 39.8425 50.7753 38.7135 51.622 38.3372C52.4688 38.0079 53.2684 37.2553 53.4566 36.7379C53.6918 35.9852 54.1622 35.75 55.2911 35.75C56.1849 35.75 57.1727 35.3737 57.5961 34.9033C58.3487 34.0566 60.2773 28.6 60.2773 27.2359C60.2773 25.5895 61.1711 25.8717 61.6415 27.6122C63.1467 33.4922 63.476 36.879 62.8175 40.2188C62.4882 42.0063 62.2059 44.5464 62.1589 45.7695C62.1589 48.0274 62.1589 48.0274 61.124 47.3218C59.1954 45.9576 55.4323 46.6632 52.1395 49.0152C50.0697 50.5205 47.2944 54.6129 45.648 58.6113C44.8484 60.681 43.9076 62.9389 43.5783 63.7386C41.9319 67.5488 41.6967 73.6169 43.1549 74.8399C44.3309 75.8277 44.7543 74.8399 44.472 71.5942C44.2368 68.96 44.425 67.784 45.4599 64.4442C47.9059 56.7297 51.4339 51.2731 55.15 49.3915C59.7599 47.0395 61.6415 49.0152 62.6763 57.3882C63.1467 61.5748 63.1467 61.7629 61.7355 65.7613C60.0892 70.4652 58.0194 80.3435 57.8783 84.3419C57.6901 89.1399 59.5247 89.234 61.7355 84.53C63.6642 80.3906 64.4638 76.157 64.9342 68.4425C65.2635 62.3274 65.4046 61.6218 66.8158 58.7994C67.6625 57.106 68.6504 55.4126 69.0737 55.0363C69.6852 54.4247 69.7323 54.8011 69.45 59.1757C69.1678 63.2682 69.2148 64.1619 69.9204 65.1968C71.1435 67.0784 72.978 66.608 74.1069 64.1149C74.9537 62.3274 75.1418 62.1863 76.506 62.4215C77.729 62.6096 78.1994 62.4215 78.8109 61.5748C79.5635 60.4928 79.6576 60.4928 80.081 61.2925C80.7395 62.4685 82.3859 62.9859 83.6089 62.4685C84.5497 62.0452 87.5603 57.4823 87.5603 56.4945C87.5603 55.6007 88.2658 55.93 88.7362 57.0119C89.0185 57.6234 89.7711 58.282 90.5238 58.5172C92.1701 59.1287 93.0639 58.2349 94.9925 54.3777L96.3567 51.6024L96.8741 54.8481C97.4856 59.0817 98.1441 60.681 99.2261 60.681C100.026 60.681 100.026 60.4458 99.5083 56.7767C99.179 54.6599 99.0379 51.0849 99.179 48.8741C99.4613 44.9698 99.4142 44.7816 98.3793 44.4524C97.8149 44.2642 97.1563 44.3112 96.9211 44.5464C96.6859 44.7816 95.6511 47.0395 94.6162 49.6267C92.5935 54.5659 91.5586 56.4474 90.853 56.4474C89.7241 56.4474 89.9122 49.8619 91.1823 44.7816C91.3705 43.8879 91.2293 43.7468 90.0063 43.7468C88.6892 43.7468 88.5951 43.8879 88.3599 46.0987C87.8425 50.5675 83.703 60.681 82.4329 60.681C81.0688 60.681 81.5392 54.707 83.2326 50.8027C84.2675 48.3566 84.1264 47.5099 82.6681 47.5099C81.7744 47.5099 81.4922 48.0274 80.5514 51.0849C79.9869 53.0136 79.3754 55.7889 79.2343 57.2001C79.0461 59.1287 78.7168 59.9284 78.0112 60.2576C76.2708 61.1984 75.9415 59.5521 76.7412 54.1895C77.2116 50.6616 76.9764 49.7678 75.6122 49.956C74.7185 50.0971 74.5773 50.5675 74.0599 54.754C72.931 63.7386 71.3787 65.8554 71.802 57.7646C71.9431 54.8481 71.8961 52.2139 71.7079 51.8846C70.8612 50.6616 68.6033 51.9316 66.8629 54.4718C65.0754 57.153 64.7931 57.059 64.3227 53.484C64.0875 51.5083 64.1816 51.0849 65.0283 50.4264C66.5336 49.1563 66.9569 46.428 66.3454 41.1126L65.828 36.4086L67.5685 31.2813C69.4971 25.5425 71.8491 20.4152 73.6366 17.7339C75.0477 15.6642 75.0948 15.523 74.154 15.523C72.3665 15.523 68.4152 21.8734 66.1102 28.553C65.6398 29.9171 65.0754 31.0461 64.9342 31.0461C64.7461 31.0461 64.4638 30.0583 64.2757 28.7882C63.8994 26.154 62.7234 23.5668 61.5944 22.8612C60.1832 21.9675 59.2425 23.0964 57.9253 27.33C56.0908 33.304 55.5263 33.9155 55.6674 29.8701C55.8086 26.6244 55.8086 26.5773 54.6326 26.5773C53.3625 26.5773 52.9392 27.6592 52.798 31.0461C52.751 31.9398 52.3276 33.5392 51.8102 34.5741L50.9165 36.4556L51.1987 29.1175C51.528 20.3211 51.3398 19.1451 49.5993 19.3803C48.4704 19.5214 48.1882 19.8977 47.2474 22.8142C45.9773 26.8125 45.7891 32.5984 46.8711 35.1385C47.8118 37.3494 47.7648 38.7135 46.7299 39.9836C45.5539 41.4418 44.8954 40.8774 44.472 38.3372C44.1428 35.8912 43.7194 35.5149 42.4493 36.2204C41.8378 36.5497 41.4145 36.5497 41.2263 36.2204C40.897 35.656 39.1095 35.5619 39.0625 36.0793C39.0155 36.926 38.5921 39.0428 37.8865 42.4297C37.0868 46.1458 36.3342 47.1807 36.2401 44.7816C36.1931 44.076 36.099 43.0882 36.052 42.5708C36.0049 42.0533 35.9579 40.5951 35.9108 39.3721C35.8168 37.4905 35.6286 37.0201 34.876 36.832C34.3585 36.6908 33.9352 36.3145 33.9352 35.9382C33.9352 35.1385 32.9944 35.4678 29.8427 37.4905C27.0674 39.278 26.4089 39.3721 26.3618 38.1961C26.3148 37.7728 26.1737 34.6211 25.9855 31.2813C25.7033 25.5895 25.6562 25.1662 24.7625 25.1662C23.8687 25.1662 23.8217 25.4954 23.8217 30.3405C23.8217 33.1629 23.9628 36.6908 24.151 38.1491L24.4332 40.7833L22.0812 42.5237C20.8111 43.5116 19.5411 44.1231 19.3529 43.8879C18.7885 43.3234 17.5654 31.5165 17.2361 23.2846C17.095 19.3803 17.1891 12.8888 17.4243 8.84344C17.7065 4.751 17.8006 1.12895 17.6595 0.705597C17.4713 0.329277 17.0009 0 16.5306 0C15.7779 0 15.6838 0.987831 15.4486 11.6188ZM16.2954 34.6211C16.4365 36.1264 16.6246 37.9139 16.7658 38.5724C16.8598 39.231 17.048 41.1126 17.2361 42.806L17.5184 45.8635L14.8842 47.1807C13.473 47.8862 12.297 48.2626 12.297 48.0274C12.297 47.7922 12.8144 45.3932 13.4259 42.7119C14.0375 40.0777 14.696 37.0201 14.8371 35.9852C15.6838 30.6698 15.919 30.4346 16.2954 34.6211ZM18.6473 51.7435C18.7885 53.1547 19.9174 58.0938 21.0463 62.7037C23.8217 73.8521 23.7746 74.7929 20.7641 74.7929C17.8006 74.7929 14.7901 73.1465 11.074 69.5244C8.29863 66.8432 7.59304 65.9024 7.68712 64.9616C7.7812 64.0679 7.59304 63.7386 6.93449 63.7386C6.37001 63.7386 5.61738 62.8919 4.77067 61.3866C2.70093 57.6705 2.65389 57.2001 4.34731 55.5537C5.71146 54.1895 9.38054 51.9316 9.70982 52.308C9.75686 52.402 9.52166 53.8132 9.14534 55.5067C8.11048 60.5399 8.67495 61.2925 9.85094 56.4474C10.4625 54.0014 11.168 51.6494 11.4032 51.179C11.6384 50.7557 13.1437 49.7678 14.743 48.9682C18.1299 47.2747 18.0358 47.2277 18.6473 51.7435Z" fill="#B1C9B1"/>
</svg>
