<svg width="148" height="88" viewBox="0 0 148 88" fill="none" xmlns="http://www.w3.org/2000/svg">
<path d="M37.4238 87.6036C36.7652 86.8626 36.5501 85.5427 36.9179 84.5C37.1003 83.9831 37.2496 83.4144 37.2496 83.2363C37.2496 83.0581 37.7674 81.7788 38.4004 80.3933C39.8662 77.1847 40.0435 76.6904 41.4283 71.9511C42.5843 67.9949 43.88 63.9208 44.6612 61.7856C44.8937 61.1502 45.2559 60.0066 45.466 59.2442C45.978 57.3871 46.7095 55.1939 46.9947 54.6611C47.5018 53.7136 49.4908 54.8439 49.8935 56.3083C50.0721 56.9575 50.0766 58.2549 49.9288 66.4063L49.8409 71.258L50.4995 72.6835C51.2562 74.3213 51.9494 74.7623 53.3533 74.4989C54.0914 74.3604 56.0649 73.3983 56.4253 73.0012C56.4889 72.9312 56.9803 72.5758 57.5173 72.2116C58.5028 71.5431 61.2548 68.4404 62.5641 66.5218C65.2261 62.6206 66.404 57.1933 65.6727 52.1977C65.0991 48.2793 64.7526 47.0183 63.4822 44.227C62.4814 42.0281 61.5308 40.5879 61.1713 40.7258C60.8112 40.864 60.0434 40.2667 60.218 39.9842C60.2964 39.8575 60.2548 39.6885 60.1256 39.6087C59.7045 39.3484 59.8644 38.0663 60.3729 37.6252C60.9598 37.1162 61.5508 37.292 62.9522 38.3924C64.2782 39.4334 64.8601 40.0961 65.7428 41.5701C68.8766 46.803 70.1115 55.7325 68.559 61.9341C67.3967 66.577 63.927 71.8431 59.6055 75.5232C56.5156 78.1544 53.9126 79.0932 51.6062 78.4083C49.1912 77.6911 48.0874 76.08 46.7866 71.3735C46.6563 70.902 46.5509 71.1048 45.2247 74.377C44.6324 75.8382 43.7814 77.8135 43.3336 78.7666C41.2511 83.1987 40.5448 84.8449 40.2399 85.9772C39.7779 87.693 38.2749 88.561 37.4238 87.6036ZM46.4177 67.8647C46.3439 67.6804 46.2892 67.7351 46.2781 68.0042C46.2681 68.2478 46.3227 68.3842 46.3995 68.3075C46.4762 68.2307 46.4845 68.0314 46.4177 67.8647ZM75.3701 85.7573C74.2064 85.5936 73.5512 85.1902 73.3058 84.4861C72.701 82.7513 73.376 81.0769 74.6801 81.0769C75.0446 81.0769 75.4071 81.1809 75.4856 81.3079C75.5641 81.435 76.3458 81.539 77.2226 81.539C79.2318 81.539 82.4681 81.1271 90.0407 79.9078C92.455 79.519 95.0542 79.1019 95.8166 78.9808C97.5923 78.6987 102.537 77.9645 106.675 77.3684C108.454 77.1122 110.17 76.8599 110.487 76.8078C110.981 76.7269 116.622 76.044 119.96 75.661C125.783 74.9928 127.72 74.9791 128.519 75.6006C129.061 76.0224 129.503 77.2985 129.336 77.9616C129.14 78.7431 128.424 78.9917 125.62 79.2518C123.417 79.4561 119.696 79.8776 115.685 80.377C114.669 80.5035 113.265 80.6612 112.567 80.7274C111.868 80.7935 111.036 80.8917 110.718 80.9456C110.401 80.9996 109.153 81.1631 107.946 81.3091C106.739 81.455 104.815 81.7285 103.672 81.9168C102.528 82.1051 100.916 82.3511 100.089 82.4633C98.5613 82.6706 96.1994 83.0576 94.3149 83.4093C92.7672 83.6981 87.4046 84.5506 86.3442 84.6765C85.8359 84.7368 84.1725 84.9895 82.6477 85.2381C79.949 85.678 76.5371 85.9214 75.3701 85.7573ZM71.5552 69.8984C71.3004 69.3614 71.2078 68.7955 71.2958 68.3124C71.3711 67.8994 71.4809 67.1958 71.5398 66.749C71.5987 66.3021 72.023 64.7946 72.4826 63.399C73.3186 60.8603 73.6438 59.7622 74.3285 57.1649C74.7908 55.4115 75.1094 54.7796 75.6116 54.6202C76.5955 54.3079 78.1425 55.8737 78.1425 57.182C78.1425 57.8999 77.434 60.2593 76.4257 62.8993C76.0947 63.766 75.4566 65.6894 75.0078 67.1735C74.5589 68.6575 74.0598 70.0052 73.8985 70.1683C73.7373 70.3314 73.2332 70.5252 72.7784 70.599C72.0052 70.7245 71.9255 70.6789 71.5552 69.8984ZM89.3476 64.0852C89.2206 64.0498 88.8326 63.9582 88.4855 63.8818C87.7194 63.713 86.2287 62.4488 86.2287 61.968C86.2287 61.7222 86.1105 61.6736 85.8244 61.8018C85.602 61.9015 84.9251 62.0267 84.3202 62.0801C83.2453 62.1749 83.2127 62.1584 82.8763 61.3534C82.1589 59.6365 82.6346 58.512 84.3304 57.9161C85.4132 57.5357 86.9218 56.3101 86.9218 55.8109C86.9218 55.6862 87.2506 54.9093 87.6524 54.0845C88.5781 52.1842 89.9087 50.8115 90.8249 50.8115C92.0863 50.8115 93.4971 52.6936 93.0326 53.7567C92.9354 53.9793 92.8772 54.2935 92.9034 54.4548C92.9683 54.8546 91.6572 57.2769 90.9815 58.0056C90.6799 58.3309 90.1542 58.8165 89.8132 59.0846C89.0963 59.6486 89.2484 60.1568 90.0723 59.95C91.4209 59.6116 94.8967 57.7172 96.4158 56.4928C96.7454 56.2271 97.4198 55.6979 97.9146 55.3167C99.2642 54.2768 100.932 52.5412 102.688 50.3494C104.321 48.3097 105.019 46.7087 105.76 43.3029C105.926 42.5405 106.168 41.5008 106.298 40.9926C106.428 40.4843 106.592 39.7565 106.662 39.3753C106.732 38.9941 107.005 37.6946 107.268 36.4874C107.531 35.2803 107.951 33.307 108.2 32.1024C108.449 30.8978 108.797 29.4254 108.974 28.8303C109.151 28.2352 109.237 27.6898 109.165 27.6183C109.094 27.5468 109.141 27.3558 109.27 27.1939C109.399 27.032 109.564 26.5876 109.636 26.2064C109.872 24.9523 110.061 24.1324 110.194 23.7806C110.267 23.59 110.352 23.309 110.385 23.1563C110.51 22.5629 112.471 19.3357 112.82 19.1482C113.091 19.003 113.391 19.1585 113.945 19.7297C114.891 20.7051 114.939 21.8978 114.103 23.6339C113.063 25.7932 112.344 28.4012 112.788 28.4012C113.041 28.4012 113.763 29.6692 113.602 29.8305C113.546 29.8864 113.455 31.2771 113.4 32.921C113.288 36.2429 112.773 38.822 111.612 41.8641C110.922 43.6719 109.007 47.4928 108.171 48.7322C107.298 50.0244 105.579 55.8976 105.617 57.4537C105.625 57.7396 105.541 57.9735 105.432 57.9735C105.323 57.9735 105.18 58.4478 105.115 59.0276C104.908 60.8617 103.374 61.7675 102.151 60.7774C101.692 60.405 101.614 60.1271 101.604 58.8133C101.598 57.9716 101.552 57.2824 101.503 57.2817C101.453 57.281 100.777 57.835 100.001 58.5127C98.0335 60.2298 95.8814 61.7557 94.3466 62.5218C93.6303 62.8793 92.9922 63.2347 92.9286 63.3116C92.6532 63.6449 89.9011 64.2395 89.3476 64.0852ZM1.82102 62.2498C0.804946 61.2337 0.542135 57.2021 1.31635 54.508C2.97 48.7536 6.84845 43.6132 10.2917 42.6122C11.0177 42.4011 12.0001 42.2621 12.4747 42.3031C13.2794 42.3728 13.3843 42.305 14.0307 41.2964C17.1913 36.3646 21.8234 26.546 23.275 21.7013C23.4844 21.0024 23.7958 20.0147 23.967 19.5064C24.1383 18.9982 24.4495 17.8026 24.6587 16.8496C24.8678 15.8965 25.2366 14.2851 25.4782 13.2685C25.8887 11.5411 26.0513 10.618 26.2556 8.85475C26.4756 6.95608 27.609 6.58279 29.0442 7.93634C29.8463 8.69284 29.8799 8.78683 29.831 10.1412C29.8029 10.9192 29.7149 11.596 29.6355 11.6451C29.556 11.6942 29.465 12.1203 29.4333 12.5921C29.4015 13.0638 29.2895 13.6169 29.1843 13.8212C29.0792 14.0255 28.9198 14.6085 28.8302 15.1168C28.7406 15.6251 28.4041 16.9766 28.0825 18.1202C25.8796 25.9526 22.202 34.6265 18.2031 41.4211C17.4966 42.6215 16.9186 43.7558 16.9186 43.9418C16.9186 44.1278 17.2707 44.528 17.701 44.8311C18.1314 45.1342 19.0615 45.8323 19.768 46.3825C20.6891 47.0999 21.3337 47.415 22.0467 47.4968C23.0673 47.6138 23.8496 48.1106 23.8496 48.6416C23.8496 49.9701 22.3926 50.9573 20.787 50.7165C19.8144 50.5707 17.5834 49.3523 16.6876 48.4777C16.1798 47.982 14.8231 47.051 14.7491 47.1475C14.7141 47.1931 14.2817 47.9062 13.7882 48.7322C13.0189 50.0198 11.2086 52.7297 10.6244 53.4684C10.4027 53.7486 8.11658 57.0498 7.79277 57.5572C7.6657 57.7563 6.96865 58.6478 6.24376 59.5382C3.9916 62.3046 2.68 63.1087 1.82102 62.2498ZM6.59193 52.8367C6.99825 52.3621 7.54447 51.5824 7.80574 51.1039C8.39006 50.0338 9.34623 48.5783 9.97093 47.8081C10.5083 47.1456 10.5851 46.6529 10.1512 46.6529C9.33119 46.6529 6.35981 50.652 5.44453 52.9875C4.78725 54.6647 4.77041 55.0401 5.38669 54.277C5.64324 53.9593 6.1856 53.3112 6.59193 52.8367ZM111.788 55.6076C111.105 55.0934 110.868 53.0501 111.384 52.1261C111.682 51.5918 111.745 51.2014 111.611 50.7067C111.395 49.9095 111.537 49.1884 112.152 47.9622C112.496 47.2753 112.878 46.9516 113.858 46.5183C115.668 45.718 116.384 45.7779 117.358 46.8116C118.072 47.5687 118.15 47.771 118.052 48.6325C117.958 49.4712 118.031 49.6849 118.597 50.2192C120.019 51.5605 119.867 53.138 118.213 54.2221C116.267 55.4982 112.671 56.2735 111.788 55.6076ZM122.772 51.726C122.293 51.4351 122.063 51.0351 121.855 50.1328C121.482 48.5171 121.473 48.5578 122.328 48.0366C123.219 47.493 124.29 47.4454 124.966 47.9192C125.402 48.2247 125.612 48.2134 126.923 47.8133C133.061 45.9413 137.774 44.5736 138.086 44.5736C138.29 44.5736 138.516 44.4182 138.589 44.2284C138.662 44.0385 138.811 43.938 138.919 44.0052C139.028 44.0723 139.92 43.9214 140.901 43.67C141.883 43.4185 142.771 43.2652 142.874 43.3292C142.978 43.3933 143.063 43.3356 143.063 43.201C143.063 43.0665 143.274 42.9564 143.532 42.9564C143.79 42.9564 144.055 42.8174 144.12 42.6476C144.242 42.3297 145.026 42.3096 146.093 42.5969C146.534 42.7157 146.768 42.9962 146.959 43.6357C147.589 45.738 147.203 46.0418 142.119 47.449C138.415 48.474 134.061 49.7621 131.511 50.5868C126.482 52.2138 124.087 52.526 122.772 51.726ZM97.0338 44.1626C96.8989 44 96.759 43.0124 96.723 41.9677C96.6869 40.9231 96.5462 39.7052 96.4103 39.2613C96.0234 37.998 96.1096 36.8488 96.642 36.172C97.3256 35.3029 98.1029 35.3824 99.083 36.4217L99.8926 37.2801L99.7904 40.3709C99.6998 43.1076 99.6334 43.5163 99.2108 43.9389C98.6705 44.4792 97.4045 44.6093 97.0338 44.1626ZM29.1753 43.1469C28.6519 42.5851 28.3526 41.3807 28.5679 40.7024C28.6457 40.4572 29.2014 39.9227 29.8028 39.5148C30.4041 39.1068 31.312 38.4626 31.8203 38.0833C32.3285 37.7039 33.4493 36.9124 34.3109 36.3243C35.5606 35.4713 36.0244 34.9793 36.6044 33.8911C37.0043 33.1408 37.7124 32.0977 38.178 31.5731C38.8767 30.7857 39.171 30.6192 39.8635 30.6192C40.8414 30.6192 41.7559 31.343 42.2533 32.5108C42.538 33.1793 42.5307 33.3675 42.1917 34.0818C41.9799 34.5282 41.1451 35.5364 40.3367 36.3224C39.5282 37.1083 38.8668 37.8828 38.8668 38.0435C38.8668 38.7396 40.6794 38.1013 42.6788 36.7012C43.8678 35.8686 46.3041 33.4803 50.0719 29.4542C55.0446 24.1404 57.2715 22.6585 58.6987 23.7136C59.9561 24.6433 60.3068 26.122 59.6681 27.8018C59.2319 28.9491 57.5109 31.2777 55.7673 33.0797C53.8016 35.1112 53.2421 35.2852 51.9189 34.2759L51.1397 33.6816L48.18 36.6636C44.4964 40.3749 42.0205 42.0417 39.7488 42.3394C38.2782 42.5321 37.2933 42.1653 36.2883 41.0505L35.4426 40.1124L34.44 40.897C33.8886 41.3285 33.3039 41.7865 33.1407 41.9147C32.9774 42.0429 32.6958 42.2809 32.5148 42.4436C32.1164 42.8017 30.313 43.6373 29.9232 43.6444C29.7694 43.6472 29.4328 43.4233 29.1753 43.1469ZM69.2477 29.587C67.5815 29.1491 66.8021 28.1749 66.2605 25.8531C65.6218 23.1152 66.3929 19.8556 68.9093 14.6566C69.6788 13.0666 70.5725 11.0642 70.8952 10.2068C71.2179 9.34939 71.5609 8.5439 71.6574 8.41683C71.7539 8.28976 71.9705 7.66597 72.1387 7.03063C72.5073 5.63855 73.8638 2.05149 74.4759 0.850483C75.0722 -0.319647 75.6445 -0.283469 76.3031 0.965999C77.1759 2.6219 76.8181 5.31594 75.2522 8.8789C75.0846 9.26011 74.5638 10.5023 74.0948 11.6394C73.6258 12.7764 72.6408 14.9597 71.9059 16.4911C70.2803 19.8786 69.5859 21.8626 69.4257 23.5779C69.3218 24.6906 69.3748 24.9474 69.7959 25.3684C70.0667 25.6392 70.5823 25.8599 70.9443 25.8599C72.2378 25.8599 75.2028 24.6114 78.6046 22.6344C81.1772 21.1392 81.6581 20.668 82.1136 19.1957C83.8787 13.491 87.9201 11.1202 90.1474 14.4828C90.937 15.6749 91.0056 16.2593 90.4987 17.4726C90.1595 18.2843 86.8056 21.8175 85.8853 22.3326C85.2163 22.7069 85.6464 23.6621 86.8869 24.5572C87.757 25.185 88.06 25.2749 89.1462 25.227C90.3183 25.1754 90.4178 25.2133 90.6623 25.8046C90.8062 26.1527 90.906 26.519 90.884 26.6187C90.8159 26.9275 90.6536 27.8155 90.6355 27.9781C90.626 28.063 90.2479 28.3615 89.7952 28.6413C89.1118 29.0636 88.7755 29.1239 87.8151 28.9965C86.165 28.7777 84.3855 27.9225 83.5136 26.9296C83.1009 26.4595 82.7599 26.0005 82.7558 25.9096C82.7515 25.8187 82.6027 25.5519 82.4245 25.3167C82.1124 24.9048 82.0722 24.9099 81.3344 25.455C79.9161 26.5028 76.4231 28.3479 74.677 28.9717C72.8618 29.6201 70.4248 29.8963 69.2477 29.587ZM82.5749 11.1416C82.0349 10.6898 81.2449 8.99442 81.5745 8.99442C81.6865 8.99442 81.8351 8.57049 81.9045 8.05235C82.1131 6.49763 83.2346 5.74018 84.1869 6.51081C85.6109 7.66304 85.7051 9.72563 84.382 10.7833C83.4329 11.5419 83.1262 11.6027 82.5749 11.1416Z" fill="#B1C9B1"/>
</svg>
