<svg width="114" height="88" viewBox="0 0 114 88" fill="none" xmlns="http://www.w3.org/2000/svg">
<path d="M8.59492 87.6825C5.75921 86.9636 2.80369 85.0065 1.32593 82.8099C0.527136 81.6516 0.0878013 79.6547 0.20762 77.4979C0.407317 73.464 2.08478 68.5515 5.12018 63.1197C6.39824 60.8431 8.63486 57.8477 10.3523 56.1303C13.4276 53.0549 17.8209 49.74 19.9377 48.9412C20.3371 48.7814 20.6167 48.5817 20.5368 48.5418C20.457 48.5018 19.8579 48.6217 19.1789 48.9412C17.5014 49.6601 14.9852 50.2192 13.2678 50.2192C12.0697 50.2192 11.7501 50.0994 11.1111 49.4604C9.91292 48.2622 10.3123 46.7445 11.7901 47.0241C12.0697 47.064 12.3892 47.1439 12.469 47.1439C12.5889 47.1439 12.6687 47.3436 12.6687 47.5832C12.6687 47.9027 12.8285 47.9427 13.5075 47.8229C15.0252 47.5033 17.3816 46.6646 19.2188 45.7859L21.0161 44.9472L21.1759 41.5524C21.4554 35.5215 23.1728 29.251 26.3281 22.9405C28.0455 19.4658 29.5632 17.0295 29.8827 17.2292C30.0424 17.3091 30.0824 17.2691 29.9626 17.0694C29.7229 16.71 30.2821 15.9511 30.6016 16.1508C30.7214 16.2307 30.7613 16.1109 30.6815 15.9112C30.6016 15.6716 30.7613 15.4319 31.0809 15.2322C31.4403 15.0325 31.5601 14.7929 31.4803 14.5532C31.3604 14.2737 31.4403 14.1938 31.7199 14.3136C31.9595 14.3935 32.0394 14.3536 31.9595 14.1139C31.8797 13.9142 32.3589 13.2352 33.0778 12.5163C33.7568 11.8374 34.6355 10.8788 34.9949 10.3995C36.5126 8.4425 40.1471 4.96777 42.4237 3.29031C44.7002 1.61285 47.9353 0.135084 48.814 0.374721C48.9338 0.414661 49.0137 0.334782 49.0137 0.214963C49.0137 -0.0646134 50.4116 -0.0646134 52.4485 0.175024C54.6452 0.4546 55.6037 1.13357 56.5223 3.01073C57.6806 5.4071 57.4809 8.36262 55.8434 12.1169C53.447 17.6286 49.3332 24.1787 45.0198 29.2111C39.4282 35.8011 33.2775 41.0331 26.0085 45.3067C24.2911 46.3451 24.1314 46.4649 24.2113 47.1838C24.2911 47.8628 24.411 47.9826 25.3296 48.2223C26.7674 48.5817 28.0854 49.4604 28.8442 50.5787C29.5232 51.5772 30.4418 54.0534 30.7214 55.6909C31.0409 57.6879 31.1208 57.6879 32.2391 54.9321C33.8367 50.9381 35.1946 49.1009 36.5925 48.9811C37.8306 48.8613 38.7892 50.3391 38.7892 52.336C38.7892 53.1748 39.3084 53.5342 39.6679 52.9351C39.7477 52.7754 40.2669 52.6955 40.8261 52.6955C42.5834 52.6955 43.1027 53.6141 43.8615 57.8077C44.3008 60.1642 45.5789 66.0752 45.7786 66.5944C46.0182 67.2335 46.2579 67.1136 46.7771 66.0752C48.0951 63.3194 48.3347 62.2011 48.2948 58.2071C48.2948 56.0903 48.2149 53.7738 48.0951 53.0549C47.9353 51.8568 47.9753 51.697 48.5744 51.3375C49.8524 50.4988 50.8509 51.5772 51.0906 54.1333C51.1704 54.7324 51.2104 54.6525 51.3701 53.6141C51.8893 50.1793 52.9278 48.3021 54.6052 47.5832C55.6836 47.1439 57.2013 47.6232 57.8803 48.5817C59.4779 50.8583 60.0769 54.2531 59.8373 59.8447C59.7574 61.8816 59.7175 63.4791 59.7574 63.4392C59.7974 63.3993 60.5962 61.8816 61.5148 60.1242C63.5916 56.1303 64.2307 54.2531 64.2307 52.1363C64.2307 49.9796 65.349 45.5863 66.0679 44.9872C66.7468 44.3881 67.4258 44.428 68.0648 45.067C68.624 45.6262 68.7039 47.1838 68.3444 49.5403C68.1048 51.018 68.4642 57.608 68.8636 59.5651C69.1832 61.0828 69.6624 61.2825 70.5411 60.3239C70.9405 59.8846 71.3399 58.5266 72.1387 54.3729C73.4167 47.9826 74.0558 46.425 75.5735 45.9058C76.2524 45.6661 76.6918 45.6661 77.0113 45.8259C77.6903 46.1853 78.2494 47.4235 78.3293 48.6217C78.3692 49.4204 78.4491 49.5802 78.6888 49.3805C78.8885 49.2207 79.0882 48.9012 79.168 48.6217C79.2479 48.3421 80.0866 47.5832 81.0452 46.9442C82.0037 46.2652 82.8025 45.6661 82.8824 45.5863C82.9623 45.5064 83.5614 45.107 84.2403 44.7076C87.4355 42.9103 89.5124 44.6676 89.5922 49.2207L89.6322 51.4973L90.5907 50.4189C91.9087 48.9412 92.1883 48.3021 93.1868 45.1469C94.2652 41.6322 96.3021 36.2803 96.9811 35.162C97.3405 34.5629 97.6201 34.3633 97.9396 34.4431C98.1792 34.523 98.6186 34.4032 98.8982 34.2035C99.3774 33.884 99.4573 33.884 99.8567 34.4831C100.536 35.5215 100.016 38.8764 98.4189 43.1899C97.7399 44.9872 96.2222 48.1424 95.703 48.7015C95.3435 49.1009 93.4664 55.5312 93.6261 55.8906C93.6661 56.0105 94.0255 55.7708 94.4649 55.3714C94.9042 54.972 95.8627 54.1732 96.6216 53.5342C97.3805 52.8952 98.1393 52.2561 98.2991 52.1363C98.4588 52.0165 99.7369 50.8982 101.175 49.74C103.451 47.8628 103.811 47.4634 104.17 46.3052C104.809 44.3481 108.484 37.2788 109.722 35.6014C110.56 34.4431 111 34.0837 111.679 33.9639C112.398 33.844 112.637 33.884 113.037 34.3632C113.796 35.3218 113.556 37.199 112.198 40.1944C111.918 40.7935 111.519 41.792 111.279 42.3512C110.84 43.5094 108.883 46.5049 107.765 47.7829C106.806 48.8613 106.567 49.4204 105.488 52.8952C104.969 54.5726 104.45 56.2501 104.29 56.5696C104.17 56.8891 103.891 57.8077 103.691 58.6065C103.491 59.4053 103.132 60.6834 102.932 61.4422C102.692 62.2011 102.413 63.4791 102.253 64.238C101.854 66.4347 101.814 66.5545 101.055 66.5545C100.136 66.5545 99.7768 65.8755 99.5771 63.7987C99.4573 62.3209 99.5771 61.5221 100.456 58.2471C101.015 56.1303 101.534 54.1732 101.654 53.8937C101.774 53.6141 101.734 53.4943 101.614 53.654C101.494 53.8138 100.655 54.5327 99.7369 55.3315C98.8183 56.0903 98.0195 56.8093 97.9396 56.8891C97.4603 57.4483 94.7045 59.4852 93.5463 60.1642C92.5078 60.7633 92.0685 61.1627 91.9487 61.6819C91.709 62.6804 91.1099 64.7173 89.9517 68.2319C89.2328 70.4286 89.0331 71.507 89.113 72.1061C89.2328 72.825 89.1928 72.9848 88.6337 73.1845C87.755 73.5439 86.5568 73.1046 86.1974 72.2658C86.0376 71.9064 85.9178 71.0677 85.9178 70.4286C85.9178 69.7496 85.798 68.7512 85.6382 68.192C85.4785 67.6329 85.3187 66.874 85.2388 66.5545C85.159 66.195 85.0391 65.8755 84.9992 65.8356C84.9593 65.7956 84.4001 66.2749 83.7611 66.9139C82.4031 68.3118 81.165 68.871 79.5275 68.871C77.0512 68.871 75.6134 67.3133 75.4137 64.3978C75.3738 64.0782 75.1741 64.4377 74.8546 65.2365C74.1357 67.0737 73.3768 67.8725 72.2585 67.8725C71.7792 67.8725 71.1003 67.6329 70.7009 67.3533C70.1018 66.9139 70.0219 66.6344 70.0219 65.4362C70.0219 64.3179 69.942 64.0383 69.5826 64.0383C69.3429 64.0383 68.6639 63.7587 68.0249 63.3593C67.3859 62.9999 66.8267 62.7602 66.7468 62.8401C66.667 62.92 66.5471 63.3993 66.4673 63.9584C66.1877 66.1551 65.1093 69.7896 64.5502 70.3487C63.312 71.7067 61.2751 70.6283 61.2751 68.6313V67.553L60.1568 69.0707C59.5577 69.9094 58.5992 70.9478 58.04 71.4271C57.4809 71.9064 56.8818 72.4256 56.6821 72.5854C55.7235 73.3842 54.9247 73.7835 54.2458 73.7835C53.447 73.7835 52.3686 73.2244 52.0092 72.5854C51.8494 72.3457 51.5698 72.3058 51.0506 72.3857C49.8524 72.6652 48.814 71.8664 48.6143 70.5484C48.4545 69.51 48.175 69.1905 47.8954 69.6698C47.8155 69.7896 47.3362 69.9493 46.817 70.0292C45.7387 70.189 44.181 69.55 43.5819 68.6713C43.1426 68.0323 43.0228 68.192 42.7831 69.7497C42.5435 71.3472 41.6648 72.6253 40.7462 72.7451C40.0672 72.825 40.0273 72.8649 40.1072 74.3427C40.1871 77.0186 38.9489 77.418 36.7123 75.461C34.3958 73.4241 34.4358 73.504 35.9135 73.7037L37.2315 73.8634L37.1117 71.3472C37.0318 69.9493 36.952 68.192 36.8721 67.4332C36.7922 66.6743 36.6724 65.1167 36.5925 63.9984C36.5126 62.8801 36.4328 61.9215 36.3928 61.8816C36.3129 61.8017 34.9151 63.9984 33.7568 66.1152C33.1577 67.1935 32.4388 68.4716 32.1992 68.9509C31.7998 69.6298 31.64 70.7881 31.4004 73.6637C31.2406 75.7805 31.001 78.4964 30.9211 79.7345C30.8013 81.2522 30.6016 82.051 30.3619 82.2108C29.7629 82.6102 28.9641 82.4904 28.4848 81.9312C28.0854 81.4919 28.0455 81.0126 28.0854 78.5363C28.1653 73.464 28.2052 72.825 28.4848 72.6652C28.6046 72.5854 28.0854 72.5055 27.2467 72.5454C25.8887 72.5854 25.7689 72.6652 25.6491 73.2244C25.05 76.2598 23.2527 80.6531 22.0545 82.091C21.8149 82.4105 21.2957 83.0096 20.9362 83.4489C20.0576 84.5672 17.5014 86.4444 15.824 87.2432C14.2663 88.042 10.7517 88.2417 8.59492 87.6825ZM14.2264 85.1663C18.0606 83.6087 21.056 79.8544 22.5737 74.782C23.9317 70.3487 24.1713 65.7557 23.3725 60.0843C22.8533 56.29 21.8548 50.6985 21.6951 50.5387C21.4155 50.2592 18.2203 52.0964 16.2234 53.694C13.7471 55.6909 10.3922 59.2456 8.63486 61.7617C4.60097 67.513 1.84514 75.9003 2.72381 79.7345C3.28296 82.1309 4.28145 83.369 6.59794 84.5672C9.19401 85.8852 11.9099 86.0849 14.2264 85.1663ZM27.7659 69.8295L28.5247 68.9908L28.4049 62.6005C28.2851 56.4099 28.2851 56.1303 27.5662 54.0534C26.8073 51.7769 25.8488 50.4589 24.9701 50.4589C24.5308 50.4589 24.4908 50.5787 24.6905 51.6571C25.9686 59.2056 26.4878 63.8386 26.4479 66.7941C26.4079 68.5515 26.4079 70.1491 26.4479 70.3088C26.4878 70.9079 27.007 70.7082 27.7659 69.8295ZM55.404 67.6728C56.4824 64.1581 56.9217 60.6035 56.762 56.6096C56.5623 51.5772 55.8034 49.3006 54.9647 51.2976C54.3257 52.8952 54.0461 54.8123 53.3671 62.9999C53.2872 64.0383 53.0476 65.9953 52.8878 67.2734C52.7281 68.5914 52.6083 69.7097 52.6881 69.7497C52.768 69.8295 53.2473 69.8695 53.7665 69.8695H54.7251L55.404 67.6728ZM87.9547 64.3578C88.3541 63.1197 88.7136 61.9615 88.7535 61.8017C88.8334 61.602 88.5938 61.4822 87.9947 61.4822C87.1559 61.4822 87.0761 61.5621 86.477 62.9999L85.8379 64.5176L86.5169 65.556C86.8764 66.1152 87.1959 66.5944 87.2358 66.5944C87.2358 66.5944 87.5553 65.5959 87.9547 64.3578ZM80.4461 65.5959C81.2049 65.0767 82.0437 64.0383 81.7242 63.9984C80.5659 63.9185 79.6872 63.7188 79.4876 63.5191C78.9683 62.9999 78.8086 63.2795 78.8086 64.6773C78.8485 66.2749 79.168 66.4347 80.4461 65.5959ZM33.5172 61.4023C33.6769 61.0828 34.3559 59.9245 35.0349 58.8462L36.273 56.8492L36.2331 54.7324C36.1931 53.5742 36.1532 52.5757 36.0733 52.5357C36.0334 52.4958 35.634 53.1348 35.1946 53.9735C34.5556 55.2516 33.9964 57.0888 32.998 61.3624C32.7983 62.1611 33.1577 62.1611 33.5172 61.4023ZM81.6443 60.7633C81.6443 60.5236 79.8071 59.645 79.6473 59.8047C79.6074 59.8447 79.6872 60.1242 79.847 60.4437C80.0467 60.8032 80.3662 60.963 80.8854 60.963C81.3248 60.963 81.6443 60.8831 81.6443 60.7633ZM89.7919 57.648C89.9517 57.2086 90.0316 56.8891 89.9916 56.8891C89.9517 56.8891 89.5523 57.2486 89.073 57.648L88.2343 58.4068H88.8733C89.3926 58.4068 89.5922 58.2071 89.7919 57.648ZM83.9208 57.2486C84.6797 56.6894 84.6797 55.9705 83.8809 52.0165C83.6413 50.9381 83.162 49.9397 82.9623 50.1394C82.8425 50.2592 82.3632 51.1378 81.844 52.0964C80.8854 53.9735 80.7656 54.6925 81.2049 56.4897C81.4845 57.5681 81.5245 57.608 82.4431 57.608C82.9223 57.648 83.6013 57.4483 83.9208 57.2486ZM86.5568 47.8628C86.477 46.8643 86.1574 46.7046 85.3587 47.2637C84.9193 47.5832 84.9193 47.6631 85.6382 49.3406L86.3971 51.058L86.5169 49.9397C86.5968 49.3406 86.5968 48.382 86.5568 47.8628ZM26.4878 41.792C28.9241 40.2743 32.7583 37.4386 35.7937 34.8825C40.0672 31.3278 45.5789 24.5781 49.4131 18.2676C50.9308 15.7514 53.3272 11.3581 53.3272 11.0386C53.3272 10.8389 53.447 10.5992 53.5668 10.4395C54.0061 10.0001 54.6052 7.64371 54.7251 6.12601C54.9248 3.33025 54.0061 2.29182 51.3302 2.29182C48.2549 2.29182 45.2993 3.6897 41.7447 6.7251C37.6309 10.2797 35.3144 12.9157 32.319 17.349C27.2467 24.8976 24.3311 33.0053 23.8119 40.6737C23.5323 43.8289 23.3326 43.749 26.4878 41.792Z" fill="#B1C9B1"/>
</svg>
