<svg width="196" height="196" viewBox="0 0 196 196" fill="none" xmlns="http://www.w3.org/2000/svg">
<path d="M132 79.1113L97.9999 98.0002M97.9999 98.0002L63.9999 79.1113M97.9999 98.0002L98 136M134 114.235V81.7661C134 80.3955 134 79.7103 133.798 79.0991C133.619 78.5584 133.327 78.062 132.941 77.6433C132.505 77.1699 131.906 76.8371 130.708 76.1715L101.108 59.7271C99.9737 59.0968 99.4065 58.7817 98.8058 58.6582C98.2742 58.5488 97.7258 58.5488 97.1942 58.6582C96.5935 58.7817 96.0263 59.0968 94.8919 59.7271L65.2919 76.1715C64.0938 76.8371 63.4947 77.1699 63.0585 77.6433C62.6726 78.062 62.3806 78.5584 62.2019 79.0991C62 79.7103 62 80.3956 62 81.7661V114.235C62 115.605 62 116.29 62.2019 116.902C62.3806 117.442 62.6726 117.939 63.0585 118.357C63.4947 118.831 64.0938 119.164 65.2919 119.829L94.8919 136.274C96.0263 136.904 96.5935 137.219 97.1942 137.342C97.7258 137.452 98.2742 137.452 98.8058 137.342C99.4065 137.219 99.9737 136.904 101.108 136.274L130.708 119.829C131.906 119.164 132.505 118.831 132.941 118.357C133.327 117.939 133.619 117.442 133.798 116.902C134 116.29 134 115.605 134 114.235Z" stroke="#C57B36" stroke-width="4" stroke-linecap="round" stroke-linejoin="round"/>
<rect x="2" y="2" width="192" height="192" rx="96" stroke="#C57B36" stroke-width="4"/>
</svg>
