<svg width="92" height="24" viewBox="0 0 92 24" fill="none" xmlns="http://www.w3.org/2000/svg">
<path d="M17.9731 13.2646L17.3656 3.34147C17.3205 2.57643 17.118 1.96326 16.758 1.50198C16.3979 1.0407 15.8468 0.697545 15.1042 0.472529L14.3278 0.286901C14.2492 0.264391 14.1928 0.241895 14.1591 0.219386C14.1365 0.196889 14.1253 0.168762 14.1253 0.135004C14.1253 0.10126 14.1365 0.0731332 14.1591 0.0506235C14.1928 0.0168791 14.2379 0 14.2941 0H20.6565C20.7126 0 20.7521 0.0168791 20.7745 0.0506235C20.8083 0.0731332 20.8251 0.10126 20.8251 0.135004C20.8251 0.168762 20.8083 0.196889 20.7745 0.219386C20.7408 0.241895 20.6845 0.264391 20.6058 0.286901L19.9139 0.489407C19.2389 0.691927 18.6988 1.0407 18.2938 1.53572C17.8887 2.01952 17.7087 2.59892 17.7537 3.27397L18.3612 13.0959C18.4063 13.7035 18.4456 14.3053 18.4794 14.9016C18.5132 15.498 18.53 16.1054 18.53 16.7243C18.53 18.0631 18.2824 19.2838 17.7874 20.3863C17.2924 21.4889 16.4767 22.3665 15.3404 23.019C14.2041 23.6715 12.6796 23.9978 10.767 23.9978C8.56182 23.9978 6.74487 23.6997 5.31605 23.1033C3.89846 22.5071 2.84092 21.6914 2.1433 20.6563C1.45704 19.61 1.11385 18.4175 1.11385 17.0786C1.11385 16.7636 1.12508 16.353 1.14768 15.8466C1.18139 15.3292 1.21509 14.8116 1.24893 14.2941C1.29387 13.7765 1.33319 13.3378 1.36703 12.9778L2.1096 0.961936C2.12083 0.826932 2.06452 0.725672 1.9408 0.65817C1.81709 0.57942 1.63145 0.517535 1.38388 0.472529L0.236331 0.286901C0.0787769 0.253143 0 0.20252 0 0.135004C0 0.10126 0.0169856 0.0731332 0.0506899 0.0506235C0.0843942 0.0168791 0.129467 0 0.185641 0H10.0076C10.075 0 10.1201 0.0168791 10.1426 0.0506235C10.1763 0.0731332 10.1933 0.10126 10.1933 0.135004C10.1933 0.168762 10.1763 0.196889 10.1426 0.219386C10.1089 0.241895 10.047 0.264391 9.95694 0.286901L8.725 0.472529C8.48866 0.517535 8.31439 0.57942 8.20178 0.65817C8.0893 0.725672 8.02751 0.832549 8.01614 0.978815L7.25672 12.8597C7.21178 13.7259 7.18369 14.5247 7.17246 15.256C7.16109 15.9873 7.15547 16.6004 7.15547 17.0956C7.15547 19.3456 7.5943 20.9714 8.47181 21.9727C9.34946 22.9628 10.4914 23.4578 11.8977 23.4578C13.1128 23.4578 14.1872 23.199 15.1211 22.6815C16.0549 22.1639 16.7862 21.4157 17.3149 20.437C17.8437 19.4582 18.1082 18.2937 18.1082 16.9436C18.1082 16.1223 18.0912 15.4304 18.0575 14.8679C18.035 14.2941 18.0069 13.7596 17.9731 13.2646Z" fill="white" fill-opacity="0.5"/>
<path d="M27.1491 8.52344V22.5981C27.1491 22.7668 27.1828 22.9018 27.2504 23.003C27.3179 23.1043 27.4192 23.1718 27.5541 23.2055L28.3474 23.3575C28.4711 23.3799 28.533 23.425 28.533 23.4924C28.533 23.5824 28.4767 23.6275 28.3642 23.6275H20.8375C20.8038 23.6275 20.7699 23.6163 20.7362 23.5938C20.7025 23.5712 20.6855 23.5375 20.6855 23.4924C20.6855 23.47 20.6969 23.4475 20.7194 23.425C20.7531 23.3912 20.8038 23.3687 20.8712 23.3575L21.6644 23.2055C21.822 23.1718 21.9289 23.1043 21.985 23.003C22.0413 22.9018 22.0694 22.7725 22.0694 22.6149V10.4641C22.0694 10.3853 22.047 10.3235 22.0019 10.2785C21.9682 10.2335 21.9063 10.2109 21.8162 10.2109H20.9387C20.8712 10.2109 20.8262 10.1997 20.8038 10.1772C20.7813 10.1548 20.7699 10.1209 20.7699 10.076C20.7699 10.031 20.7813 9.9972 20.8038 9.97473C20.8375 9.95226 20.8769 9.93541 20.9219 9.92404L26.5248 8.3715C26.6485 8.3378 26.7329 8.3152 26.7779 8.30396C26.8229 8.29274 26.8735 8.28711 26.9298 8.28711C27.0086 8.28711 27.0647 8.30958 27.0986 8.35465C27.1323 8.39959 27.1491 8.4559 27.1491 8.52344ZM26.7273 12.101L26.5248 11.8817L27.166 11.3248C28.3135 10.3009 29.3262 9.54714 30.2038 9.06338C31.0813 8.56838 31.8801 8.32081 32.6001 8.32081C33.624 8.32081 34.4171 8.62469 34.9796 9.23217C35.5534 9.83965 35.9135 10.8017 36.0598 12.118L37.2749 22.5644C37.2973 22.7444 37.3367 22.8906 37.393 23.003C37.4605 23.1043 37.573 23.1718 37.7304 23.2055L38.4561 23.3575C38.5237 23.3687 38.5686 23.3912 38.5912 23.425C38.6249 23.4475 38.6418 23.47 38.6418 23.4924C38.6418 23.5375 38.6249 23.5712 38.5912 23.5938C38.5686 23.6163 38.5293 23.6275 38.473 23.6275H30.8113C30.6988 23.6275 30.6425 23.5824 30.6425 23.4924C30.6425 23.4363 30.71 23.3912 30.845 23.3575L31.6382 23.2055C31.807 23.1718 31.9251 23.0987 31.9927 22.9862C32.0713 22.8737 32.0995 22.733 32.0769 22.5644L31.0645 12.658C30.9857 11.9268 30.8225 11.3923 30.5751 11.0547C30.3275 10.7173 29.945 10.5485 29.4274 10.5485C29.0787 10.5485 28.7355 10.6385 28.3979 10.8185C28.0605 10.9873 27.7117 11.2348 27.3516 11.5611L26.7273 12.101Z" fill="white" fill-opacity="0.5"/>
<path d="M44.4363 8.52107V22.5957C44.4363 22.7645 44.4643 22.8994 44.5205 23.0007C44.5881 23.1019 44.6949 23.1695 44.8412 23.2032L45.6344 23.3551C45.7019 23.3663 45.747 23.3832 45.7695 23.4058C45.8032 23.4283 45.82 23.4564 45.82 23.4901C45.82 23.5351 45.8032 23.5688 45.7695 23.5914C45.747 23.6139 45.7075 23.6251 45.6512 23.6251H38.1246C38.0795 23.6251 38.0402 23.6139 38.0064 23.5914C37.9839 23.5688 37.9727 23.5351 37.9727 23.4901C37.9727 23.4676 37.9839 23.4451 38.0064 23.4227C38.0402 23.3888 38.0908 23.3663 38.1583 23.3551L38.9514 23.2032C39.109 23.1695 39.2158 23.1019 39.2721 23.0007C39.3283 22.8994 39.3565 22.7701 39.3565 22.6125V10.4617C39.3565 10.383 39.3339 10.3212 39.289 10.2761C39.2553 10.2312 39.1934 10.2086 39.1034 10.2086H38.2258C38.1583 10.2086 38.1132 10.1973 38.0908 10.1749C38.0683 10.1524 38.0571 10.1185 38.0571 10.0736C38.0571 10.0287 38.0683 9.99483 38.0908 9.97236C38.1246 9.94989 38.1639 9.93304 38.2089 9.92167L43.8118 8.36914C43.9355 8.33543 44.0199 8.31283 44.065 8.30159C44.1099 8.29037 44.1606 8.28474 44.2168 8.28474C44.2956 8.28474 44.3519 8.30721 44.3856 8.35228C44.4193 8.39722 44.4363 8.45353 44.4363 8.52107ZM41.8204 6.74902C40.9542 6.74902 40.2509 6.46774 39.7108 5.9052C39.1709 5.34266 38.9009 4.65638 38.9009 3.84633C38.9009 3.02502 39.1709 2.3331 39.7108 1.77056C40.2621 1.20803 40.9654 0.926758 41.8204 0.926758C42.6979 0.926758 43.4124 1.20803 43.9637 1.77056C44.5263 2.3331 44.8075 3.02502 44.8075 3.84633C44.8075 4.65638 44.5263 5.34266 43.9637 5.9052C43.4124 6.46774 42.6979 6.74902 41.8204 6.74902Z" fill="white" fill-opacity="0.5"/>
<path d="M46.7194 9.24939L45.3692 8.94565C45.3018 8.92318 45.2511 8.90071 45.2174 8.87811C45.195 8.8444 45.1836 8.8107 45.1836 8.77686C45.1836 8.74316 45.195 8.71507 45.2174 8.69247C45.2511 8.67 45.2792 8.65876 45.3018 8.65876H46.7194C46.7756 8.65876 46.8263 8.65315 46.8712 8.64191C46.9163 8.61944 46.9668 8.57999 47.0232 8.52381L51.1071 5.18228C51.1859 5.11477 51.2647 5.06415 51.3435 5.03039C51.4335 4.98539 51.5066 4.96289 51.5628 4.96289C51.6416 4.96289 51.7035 4.99102 51.7484 5.04727C51.8048 5.10353 51.8328 5.18228 51.8328 5.28354V19.2232C51.8328 20.1795 52.0072 20.8939 52.3561 21.3665C52.7047 21.8278 53.1829 22.0583 53.7905 22.0583C53.993 22.0583 54.1899 22.0246 54.3811 21.9571C54.5724 21.8896 54.7468 21.7827 54.9043 21.6365C55.073 21.4902 55.2193 21.2933 55.343 21.0457C55.4781 20.7871 55.585 20.4776 55.6638 20.1177C55.6862 20.0389 55.7255 20.0051 55.7819 20.0164C55.8494 20.0164 55.8719 20.0558 55.8494 20.1345C55.6694 21.0008 55.405 21.7153 55.0561 22.2778C54.7075 22.829 54.2462 23.2454 53.6724 23.5266C53.0985 23.8079 52.3841 23.9485 51.5291 23.9485C50.044 23.9485 48.9077 23.6054 48.1202 22.919C47.3325 22.2215 46.9388 21.1527 46.9388 19.7126V9.57012C46.9388 9.46887 46.9219 9.39571 46.8882 9.35064C46.8656 9.3057 46.8094 9.27186 46.7194 9.24939ZM50.3309 9.06375L50.4828 8.65876H55.7481C55.8043 8.65876 55.8438 8.67 55.8662 8.69247C55.9 8.7037 55.9168 8.73754 55.9168 8.79371C55.9168 8.86126 55.8719 8.92318 55.7819 8.97936C55.7031 9.03566 55.5906 9.06375 55.4443 9.06375H50.3309Z" fill="white" fill-opacity="0.5"/>
<path d="M64.3595 22.0568V21.8543L64.1233 22.0906V10.4966C64.1233 9.88911 63.9826 9.4222 63.7014 9.09599C63.4313 8.75841 63.0657 8.58962 62.6044 8.58962C62.0644 8.58962 61.6481 8.73594 61.3556 9.02845C61.0743 9.32095 60.9337 9.681 60.9337 10.1085V11.678C60.9337 12.3418 60.6918 12.9099 60.208 13.3825C59.7243 13.855 59.0942 14.0913 58.3179 14.0913C57.7891 14.0913 57.3504 13.9394 57.0016 13.6356C56.6528 13.3319 56.4784 12.865 56.4784 12.2349C56.4784 11.6273 56.7315 11.0254 57.2378 10.4292C57.7441 9.82157 58.4979 9.31533 59.4993 8.91035C60.5118 8.50523 61.7549 8.30273 63.2288 8.30273C65.2314 8.30273 66.7278 8.70772 67.7179 9.51783C68.7192 10.3167 69.2199 11.4643 69.2199 12.9606V21.4998C69.2199 21.8374 69.2817 22.085 69.4056 22.2424C69.5405 22.3887 69.6981 22.4619 69.8781 22.4619C70.0693 22.4619 70.2437 22.4 70.4012 22.2762C70.5587 22.1524 70.66 21.933 70.705 21.6181C70.7163 21.5618 70.7275 21.5281 70.7387 21.5167C70.7612 21.4942 70.7837 21.483 70.8063 21.483C70.84 21.483 70.8625 21.4942 70.8737 21.5167C70.8849 21.5281 70.8906 21.5618 70.8906 21.6181C70.8906 21.8543 70.7781 22.158 70.5531 22.5293C70.3281 22.8893 69.9511 23.2157 69.4224 23.5082C68.8936 23.8007 68.1792 23.9469 67.2791 23.9469C66.244 23.9469 65.4959 23.7668 65.0346 23.4069C64.5846 23.0357 64.3595 22.5856 64.3595 22.0568ZM55.584 20.3017C55.584 19.0079 56.1184 17.984 57.1872 17.2302C58.2672 16.4652 60.0224 16.0827 62.4526 16.0827C63.06 16.0827 63.5438 16.1445 63.9039 16.2683C64.2751 16.3808 64.6183 16.5383 64.9333 16.7408L64.7815 16.8758C64.4552 16.707 64.1346 16.5833 63.8195 16.5045C63.5045 16.4257 63.1444 16.3864 62.7395 16.3864C62.0644 16.3864 61.5412 16.6564 61.1699 17.1965C60.7987 17.7365 60.613 18.5297 60.613 19.576C60.613 20.5772 60.7987 21.3198 61.1699 21.8037C61.5412 22.2875 62.0194 22.5293 62.6044 22.5293C62.9644 22.5293 63.3245 22.428 63.6845 22.2255C64.0558 22.0118 64.3539 21.7305 64.5789 21.3817L64.7984 21.5167C64.3258 22.3043 63.6564 22.9062 62.79 23.3225C61.9237 23.7388 60.9899 23.9469 59.9887 23.9469C58.706 23.9469 57.6485 23.6094 56.8159 22.9344C55.9946 22.248 55.584 21.3705 55.584 20.3017Z" fill="white" fill-opacity="0.5"/>
<path d="M77.2778 23.5431C77.9641 23.5431 78.5042 23.3687 78.8979 23.0199C79.303 22.66 79.5055 22.1987 79.5055 21.6361C79.5055 21.2198 79.4043 20.8429 79.2016 20.5054C79.0104 20.1679 78.6786 19.8529 78.206 19.5604C77.7335 19.2566 77.081 18.9696 76.2484 18.6997C74.842 18.2272 73.7395 17.7152 72.9407 17.1639C72.1419 16.6014 71.5794 15.977 71.2531 15.2906C70.9268 14.5932 70.7637 13.8113 70.7637 12.9449C70.7637 11.4486 71.2699 10.3009 72.2825 9.5022C73.2951 8.6921 74.6508 8.28711 76.3496 8.28711C77.0472 8.28711 77.621 8.35465 78.071 8.4896C78.521 8.62469 78.8642 8.75964 79.1004 8.89459C79.348 9.01844 79.5055 9.08023 79.5729 9.08023C79.6968 9.08023 79.9217 9.01844 80.2481 8.89459C80.5855 8.75964 80.9175 8.62469 81.2437 8.4896C81.57 8.35465 81.7838 8.28711 81.885 8.28711C81.9413 8.28711 81.9919 8.30396 82.037 8.3378C82.0931 8.36027 82.127 8.41644 82.1382 8.50645L82.9313 13.603C82.9538 13.7156 82.9594 13.8056 82.9482 13.8731C82.9369 13.9294 82.9145 13.9687 82.8808 13.9913C82.8357 14.0025 82.7964 14.0025 82.7625 13.9913C82.7288 13.9687 82.6951 13.935 82.6613 13.8899C81.9187 12.5623 81.2212 11.516 80.5687 10.751C79.9274 9.98597 79.2804 9.44589 78.6279 9.13092C77.9867 8.81595 77.3003 8.65839 76.5691 8.65839C75.8265 8.65839 75.2584 8.84965 74.8645 9.23217C74.4707 9.60345 74.2739 10.0984 74.2739 10.7173C74.2739 11.1674 74.3751 11.5723 74.5776 11.9324C74.7915 12.2924 75.1684 12.6243 75.7083 12.928C76.2596 13.2317 77.036 13.5244 78.0372 13.8056C79.286 14.1656 80.2762 14.61 81.0075 15.1388C81.7501 15.6675 82.2844 16.2695 82.6107 16.9446C82.9369 17.6196 83.1001 18.3565 83.1001 19.1553C83.1001 20.1454 82.8525 21.0004 82.3575 21.7205C81.8738 22.4293 81.2268 22.9806 80.4167 23.3743C79.6068 23.7681 78.701 23.9649 77.6998 23.9649C77.0697 23.9649 76.524 23.8807 76.0627 23.7119C75.6127 23.5431 75.247 23.3799 74.9659 23.2225C74.6958 23.0537 74.5327 22.9693 74.4764 22.9693C74.3976 22.9693 74.2063 23.0425 73.9026 23.1887C73.6101 23.335 73.3063 23.4812 72.9914 23.6275C72.6875 23.7851 72.4794 23.8637 72.3669 23.8637C72.2994 23.8637 72.2318 23.83 72.1644 23.7625C72.1081 23.7063 72.0688 23.605 72.0462 23.4587L71.3881 19.1723C71.3768 19.0372 71.3768 18.9415 71.3881 18.8854C71.3994 18.8178 71.4275 18.7728 71.4724 18.7503C71.5062 18.7278 71.5343 18.7278 71.5568 18.7503C71.5906 18.7728 71.63 18.8122 71.675 18.8684C72.6763 20.5448 73.6269 21.743 74.5271 22.4631C75.4384 23.1831 76.3552 23.5431 77.2778 23.5431Z" fill="white" fill-opacity="0.5"/>
<path d="M87.7651 23.9996C87.0442 23.9996 86.3968 23.8231 85.8231 23.47C85.2493 23.1022 84.7932 22.6167 84.4548 22.0135C84.1165 21.4103 83.9473 20.7482 83.9473 20.0273C83.9473 19.3211 84.1165 18.6737 84.4548 18.0852C84.7932 17.482 85.2493 17.0038 85.8231 16.6507C86.4116 16.2976 87.0589 16.1211 87.7651 16.1211C88.5007 16.1211 89.1555 16.2976 89.7293 16.6507C90.3178 17.0038 90.7812 17.482 91.1196 18.0852C91.4727 18.6737 91.6492 19.3211 91.6492 20.0273C91.6492 20.7482 91.4727 21.4103 91.1196 22.0135C90.7812 22.6167 90.3178 23.1022 89.7293 23.47C89.1555 23.8231 88.5007 23.9996 87.7651 23.9996Z" fill="white" fill-opacity="0.5"/>
</svg>
