<svg width="181" height="39" viewBox="0 0 181 39" fill="none" xmlns="http://www.w3.org/2000/svg">
<g clip-path="url(#clip0_567_9175)">
<path d="M18.375 38.0977V12.1022L18.5876 11.916H18.8801V38.0889C18.7118 38.0977 18.5434 38.0977 18.375 38.0977Z" fill="#7E8192"/>
<path d="M19.4559 38.0624L18.3926 12.0846L18.5786 11.9161L18.8624 11.9072L19.935 38.0359C19.7754 38.0447 19.6159 38.0624 19.4564 38.0713V38.0624H19.4559Z" fill="#7E8192"/>
<path d="M20.6167 37.9647L18.4102 12.0753L18.5785 11.9245L18.8534 11.8979L21.0694 37.9028C20.9187 37.9205 20.7679 37.947 20.6084 37.9647H20.6172H20.6167Z" fill="#7E8192"/>
<path d="M21.8576 37.7697L18.4277 12.0577L18.5784 11.9245L18.8445 11.8892L22.2921 37.6808C22.1502 37.7073 22.0084 37.7427 21.8576 37.7697Z" fill="#7E8192"/>
<path d="M23.1683 37.4681L18.4355 12.04L18.5686 11.9246L18.8258 11.8804L23.5674 37.3615C23.4344 37.3969 23.3013 37.4411 23.16 37.477L23.1688 37.4681H23.1683Z" fill="#7E8192"/>
<path d="M24.5516 37.0426L18.4453 12.0311L18.5607 11.9244L18.8091 11.8625L24.9154 36.9006C24.7912 36.9448 24.667 36.9895 24.5433 37.0426H24.5521H24.5516Z" fill="#7E8192"/>
<path d="M25.9776 36.4747L18.4531 12.0222L18.5508 11.9333L18.7992 11.8625L26.3237 36.315C26.2084 36.3681 26.0935 36.4216 25.9781 36.4747H25.9776Z" fill="#7E8192"/>
<path d="M27.4399 35.7388L18.4707 12.0134L18.5502 11.9427L18.7893 11.8538L27.7497 35.5615C27.6432 35.6234 27.546 35.6858 27.4394 35.7388H27.4399Z" fill="#7E8192"/>
<path d="M28.8944 34.8339L18.4805 12.0134L18.5423 11.9604L18.7814 11.8538L29.1772 34.6389C29.0883 34.7008 28.9911 34.772 28.9023 34.8339H28.8934H28.8944Z" fill="#7E8192"/>
<path d="M30.3214 33.7434L18.498 11.9958L18.5246 11.9693L18.773 11.845L30.5693 33.5302C30.4897 33.6009 30.4097 33.6721 30.3302 33.7429H30.3214V33.7434Z" fill="#7E8192"/>
<path d="M31.6674 32.475L18.5059 11.9958L18.7543 11.845L31.8799 32.2622C31.8092 32.333 31.7381 32.4131 31.6762 32.4838L31.6674 32.475Z" fill="#7E8192"/>
<path d="M32.8995 31.0555L18.5156 11.9956L18.737 11.8359L33.0772 30.8339C33.0242 30.9047 32.9618 30.9848 32.9088 31.0555H32.9H32.8995Z" fill="#7E8192"/>
<path d="M33.9897 29.5038L18.5332 12.0046L18.7281 11.845L34.1315 29.2818C34.0873 29.3525 34.0427 29.4326 33.9985 29.5033H33.9897V29.5038Z" fill="#7E8192"/>
<path d="M34.8943 27.8542L18.543 12.0046L18.7025 11.845L35.0009 27.641C34.9655 27.7117 34.9302 27.7918 34.8943 27.8625V27.8537V27.8542Z" fill="#7E8192"/>
<path d="M35.6115 26.1508L18.5508 11.9956L18.6838 11.8359L35.6827 25.9381C35.6562 26.0088 35.6297 26.08 35.612 26.1508H35.6115Z" fill="#7E8192"/>
<path d="M36.1342 24.4392L18.5684 11.9868L18.6837 11.8359L36.1877 24.2442C36.17 24.3061 36.1524 24.3773 36.1435 24.4392H36.1347H36.1342Z" fill="#7E8192"/>
<path d="M36.4719 22.7721L18.5781 11.9869L18.667 11.845L36.4901 22.5947C36.4812 22.6566 36.4724 22.719 36.4636 22.7721H36.4724H36.4719Z" fill="#7E8192"/>
<path d="M36.6402 21.1754L18.5957 11.9869L18.6664 11.8538L36.649 21.0158C36.649 21.0688 36.6402 21.1224 36.6402 21.1754Z" fill="#7E8192"/>
<path d="M36.6657 19.6765L18.6035 11.978L18.6565 11.8625L36.6657 19.5346C36.6657 19.5788 36.6657 19.6235 36.6745 19.6765H36.6657Z" fill="#7E8192"/>
<path d="M36.5685 18.2926L18.6035 11.9691L18.6389 11.8713L36.5591 18.1772C36.5591 18.2125 36.568 18.2567 36.5768 18.2926H36.568H36.5685Z" fill="#7E8192"/>
<path d="M36.3922 17.0248L18.6133 11.9604L18.6398 11.8809L36.3829 16.9364C36.3917 16.9629 36.3917 16.9983 36.4005 17.0253H36.3917L36.3922 17.0248Z" fill="#7E8192"/>
<path d="M36.1516 15.8895L18.6211 11.9516L18.6299 11.8892L36.1339 15.8183L36.1516 15.8895Z" fill="#7E8192"/>
<path d="M35.8325 14.7453L18.6211 11.9515L18.6299 11.8896L35.806 14.6834C35.8148 14.71 35.8237 14.7277 35.8325 14.7542V14.7453Z" fill="#7E8192"/>
<path d="M35.4074 13.5747L18.6211 11.9516L18.6299 11.8892L35.3804 13.5034L35.4074 13.5747Z" fill="#7E8192"/>
<path d="M34.8841 12.3858L18.6211 11.9511V11.8892L34.8488 12.3239C34.8576 12.3416 34.8664 12.3681 34.8841 12.3858Z" fill="#7E8192"/>
<path d="M34.2557 11.2062L18.6309 11.9514V11.8895L34.2204 11.1443C34.2292 11.162 34.2469 11.1885 34.2557 11.2062Z" fill="#7E8192"/>
<path d="M33.5194 10.0533L18.6299 11.9515L18.6211 11.8896L33.4752 10.0002C33.4929 10.0179 33.5017 10.0356 33.5194 10.0621V10.0533Z" fill="#7E8192"/>
<path d="M32.705 8.96224L18.631 11.9511L18.6133 11.8892L32.652 8.90918C32.6697 8.92687 32.6785 8.94455 32.6962 8.96224H32.705Z" fill="#7E8192"/>
<path d="M31.819 7.95125L18.631 11.9516L18.6133 11.8892H18.6221L31.7655 7.89819L31.819 7.95125Z" fill="#7E8192"/>
<path d="M30.8882 7.02908L18.6398 11.9427L18.6133 11.8891H18.6221L30.8352 6.98438L30.8882 7.02908Z" fill="#7E8192"/>
<path d="M29.9486 6.21316L18.6398 11.9427L18.6133 11.8897L18.6221 11.8808L29.8868 6.16895C29.9045 6.18663 29.9221 6.19547 29.9398 6.21316H29.9486Z" fill="#7E8192"/>
<path d="M29.0091 5.51204L18.6486 11.9421L18.6133 11.8891L18.631 11.8714L28.956 5.45898C28.9737 5.47667 28.9914 5.48551 29.0091 5.5032V5.51204Z" fill="#7E8192"/>
<path d="M28.0955 4.90939L18.6477 11.9428L18.6035 11.8981L18.6389 11.8627L28.0337 4.87402L28.0955 4.90939Z" fill="#7E8192"/>
<path d="M27.2191 4.40378L18.4094 12.1465L18.3652 12.1023L20.2532 10.435L27.1572 4.36841C27.1749 4.37725 27.2014 4.39494 27.2191 4.40378Z" fill="#7E8192"/>
<path d="M18.8801 2V27.996L18.6676 28.1822H18.375V2.00884C18.5434 2 18.7118 2 18.8801 2Z" fill="#7E8192"/>
<path d="M17.7989 2.03545L18.8622 28.0133L18.6762 28.1818L18.3924 28.1906L17.3203 2.06198C17.4799 2.05314 17.6394 2.03545 17.7989 2.02661V2.03545Z" fill="#7E8192"/>
<path d="M16.6377 2.13306L18.8443 28.0225L18.6759 28.1733L18.401 28.1998L16.1855 2.19496C16.3363 2.17727 16.487 2.15074 16.6465 2.13306H16.6377Z" fill="#7E8192"/>
<path d="M15.3968 2.32812L18.8268 28.0402L18.6761 28.1733L18.41 28.2087L14.9629 2.41704C15.1048 2.39052 15.2466 2.35514 15.3973 2.32812H15.3968Z" fill="#7E8192"/>
<path d="M14.0763 2.6297L18.8091 28.0578L18.6761 28.1733L18.4188 28.2175L13.6777 2.73581C13.8108 2.70044 13.9438 2.65622 14.0852 2.62036L14.0763 2.6292V2.6297Z" fill="#7E8192"/>
<path d="M12.7031 3.05518L18.8094 28.0667L18.694 28.1733L18.4457 28.2352L12.3398 3.19715C12.464 3.15294 12.5882 3.10823 12.7119 3.05518H12.7031Z" fill="#7E8192"/>
<path d="M11.2655 3.62305L18.79 28.0755L18.6923 28.1644L18.4439 28.2352L10.9199 3.78271C11.0353 3.72965 11.1502 3.6761 11.2655 3.62305Z" fill="#7E8192"/>
<path d="M9.8122 4.35913L18.7814 28.0845L18.7019 28.1553L18.4628 28.2442L9.50195 4.53648C9.60848 4.47458 9.70568 4.41219 9.8122 4.35913Z" fill="#7E8192"/>
<path d="M8.34966 5.27271L18.7636 28.0932L18.7017 28.1463L18.4627 28.2529L8.06641 5.46774C8.15526 5.40584 8.25246 5.3346 8.34131 5.27271H8.35015H8.34966Z" fill="#7E8192"/>
<path d="M6.93199 6.35498L18.7548 28.1026L18.7283 28.1291L18.4799 28.2534L6.68359 6.5677L6.92266 6.35498H6.9315H6.93199Z" fill="#7E8192"/>
<path d="M5.5861 7.62285L18.7471 28.102L18.4987 28.2528L5.37305 7.83606C5.44374 7.76532 5.51492 7.68524 5.57677 7.6145L5.58561 7.62334L5.5861 7.62285Z" fill="#7E8192"/>
<path d="M4.353 9.04224L18.7373 28.1021L18.5159 28.2618L4.17578 9.26379C4.2288 9.19305 4.29114 9.11298 4.34416 9.04224H4.353Z" fill="#7E8192"/>
<path d="M3.26247 10.603L18.7189 28.1022L18.524 28.2619L3.12109 10.8251C3.16527 10.7543 3.20995 10.6743 3.25413 10.6035H3.26296L3.26247 10.603Z" fill="#7E8192"/>
<path d="M2.35067 12.2437L18.7025 28.0932L18.543 28.2529L2.24414 12.4569C2.27949 12.3862 2.31483 12.3061 2.35067 12.2354V12.2442V12.2437Z" fill="#7E8192"/>
<path d="M1.63319 13.947L18.6939 28.1022L18.5609 28.2619L1.5625 14.1597C1.58901 14.089 1.61552 14.0178 1.63319 13.947Z" fill="#7E8192"/>
<path d="M1.11942 15.6584L18.6853 28.1109L18.5699 28.2617L1.06641 15.854C1.08408 15.7921 1.10175 15.7208 1.11059 15.6589H1.11942V15.6584Z" fill="#7E8192"/>
<path d="M0.781344 17.3259L18.6751 28.1111L18.5863 28.253L0.763672 17.5038C0.772508 17.4419 0.781344 17.3795 0.79018 17.3264H0.781344V17.3259Z" fill="#7E8192"/>
<path d="M0.614305 18.9224L18.6588 28.1109L18.5881 28.244L0.605469 19.082C0.605469 19.029 0.614305 18.9754 0.614305 18.9224Z" fill="#7E8192"/>
<path d="M0.586961 20.4302L18.6491 28.1287L18.5961 28.2442L0.586961 20.5721C0.586961 20.5279 0.586961 20.4832 0.578125 20.4302H0.586961Z" fill="#7E8192"/>
<path d="M0.674852 21.814L18.6398 28.138L18.6045 28.2357L0.683688 21.9294C0.683688 21.894 0.674852 21.8498 0.666016 21.814H0.674852Z" fill="#7E8192"/>
<path d="M0.852586 23.0735L18.6315 28.1379L18.605 28.2175L0.861422 23.1619C0.852586 23.1354 0.852586 23.1 0.84375 23.073H0.852586V23.0735Z" fill="#7E8192"/>
<path d="M1.10156 24.2178L18.6321 28.1557L18.6232 28.2176L1.11923 24.2885L1.10156 24.2178Z" fill="#7E8192"/>
<path d="M1.41992 25.3526L18.6313 28.1464L18.6225 28.2083L1.44643 25.415C1.43759 25.3885 1.42876 25.3708 1.41992 25.3442V25.3531V25.3526Z" fill="#7E8192"/>
<path d="M1.8457 26.5325L18.6315 28.1463L18.6227 28.2175L1.87221 26.5944L1.8457 26.5325Z" fill="#7E8192"/>
<path d="M2.36914 27.7209L18.6321 28.1557V28.2176L2.40449 27.7828C2.39565 27.7652 2.38681 27.7386 2.36914 27.7209Z" fill="#7E8192"/>
<path d="M2.99805 28.9005L18.6229 28.1553V28.2172L3.03339 28.9624C3.02456 28.9447 3.00688 28.9182 2.99805 28.9005Z" fill="#7E8192"/>
<path d="M3.73242 30.0445L18.6219 28.1462L18.6307 28.2081L3.7766 30.0975C3.75893 30.0798 3.75009 30.0622 3.73242 30.0356V30.0445Z" fill="#7E8192"/>
<path d="M4.54883 31.1356L18.6229 28.1467L18.6406 28.2086L4.60185 31.1886C4.58417 31.1709 4.57534 31.1532 4.55766 31.1356H4.54883Z" fill="#7E8192"/>
<path d="M5.43555 32.1556L18.6142 28.1558L18.6319 28.2088V28.2177L5.47973 32.2087L5.43555 32.1556Z" fill="#7E8192"/>
<path d="M6.36523 33.0693L18.6137 28.1558L18.6402 28.2088L18.6313 28.2177L6.40991 33.1224L6.36523 33.0693Z" fill="#7E8192"/>
<path d="M7.30469 33.8853L18.6135 28.1558L18.64 28.2088L18.6312 28.2177L7.36654 33.9295C7.34887 33.9119 7.3312 33.903 7.31352 33.8853H7.30469Z" fill="#7E8192"/>
<path d="M8.24414 34.5859L18.6046 28.1558L18.6399 28.2088L18.6222 28.2265L8.29716 34.6389C8.27949 34.6212 8.26181 34.6124 8.24414 34.5947V34.5859Z" fill="#7E8192"/>
<path d="M9.15625 35.1886L18.6041 28.1558L18.6394 28.2088L18.6041 28.2353L9.21859 35.2245L9.15625 35.1886Z" fill="#7E8192"/>
<path d="M10.0254 35.6947L18.8351 27.9519L18.8793 27.9961L16.9913 29.6635L10.0872 35.73C10.0696 35.7212 10.0431 35.7035 10.0254 35.6947Z" fill="#7E8192"/>
</g>
<path d="M44.6758 14.7772H53.219V16.8829H50.1356V25.3057H47.8795V16.8829H44.6758V14.7772Z" fill="#7E8192"/>
<path d="M56.8242 14.7772V19.0187H61.547V14.7772H63.8031V25.3057H61.547V21.0492H56.8242V25.3057H54.5681V14.7772H56.8242Z" fill="#7E8192"/>
<path d="M65.4521 23.2V14.7772H73.0778V16.8678H67.7082V19.0187H72.4762V21.0642H67.7082V23.2151H73.0778V25.3057H66.6855L65.4521 23.2Z" fill="#7E8192"/>
<path d="M78.7303 25.3057V14.7772H83.378C84.4108 14.7772 85.2881 15.1381 86.0101 15.8601C86.7421 16.5821 87.1081 17.4344 87.1081 18.417C87.1081 19.4198 86.7471 20.2671 86.0251 20.9589C85.3132 21.6408 84.4308 21.9867 83.378 21.9968L81.0015 22.0118V25.3057H78.7303ZM81.0015 19.9963L83.2276 19.9813C83.7189 19.9813 84.125 19.8209 84.4459 19.5C84.7667 19.1791 84.9272 18.7931 84.9272 18.3418C84.9272 17.9006 84.7667 17.5346 84.4459 17.2439C84.135 16.9531 83.7289 16.8077 83.2276 16.8077L81.0015 16.8227V19.9963Z" fill="#7E8192"/>
<path d="M88.3953 25.3057V14.7772H93.0429C94.0757 14.7772 94.9531 15.1381 95.675 15.8601C96.407 16.5821 96.773 17.4344 96.773 18.417C96.773 19.0989 96.5775 19.7306 96.1864 20.3122C95.8054 20.8938 95.299 21.3099 94.6673 21.5606L96.9234 25.3057H94.5169L92.4262 21.8464H90.6514V25.3057H88.3953ZM93.0429 19.891C93.474 19.891 93.84 19.7406 94.1409 19.4398C94.4417 19.139 94.5921 18.773 94.5921 18.3418C94.5921 17.9107 94.4417 17.5497 94.1409 17.2589C93.84 16.9581 93.474 16.8077 93.0429 16.8077H90.6514V19.891H93.0429Z" fill="#7E8192"/>
<path d="M98.2071 25.3057V14.7772H100.388V25.3057H98.2071Z" fill="#7E8192"/>
<path d="M105.62 14.7772L108.192 22.6736L110.689 14.7772H114.269V25.3057H112.013L112.028 17.0333L109.366 25.3057H106.929L104.282 17.0333L104.297 25.3057H102.041V14.7772H105.62Z" fill="#7E8192"/>
<path d="M115.921 23.2V14.7772H123.547V16.8678H118.177V19.0187H122.945V21.0642H118.177V23.2151H123.547V25.3057H117.155L115.921 23.2Z" fill="#7E8192"/>
<path d="M130.327 16.2512C131.38 15.1983 132.649 14.6719 134.133 14.6719C135.206 14.6719 136.163 14.9526 137.006 15.5142C137.858 16.0757 138.5 16.8327 138.931 17.7853L136.78 18.402C136.529 17.9006 136.168 17.5146 135.697 17.2439C135.226 16.9631 134.704 16.8227 134.133 16.8227C133.24 16.8227 132.493 17.1336 131.892 17.7552C131.3 18.3769 131.004 19.144 131.004 20.0565C131.004 20.969 131.3 21.7361 131.892 22.3577C132.493 22.9694 133.24 23.2752 134.133 23.2752C134.775 23.2752 135.356 23.1048 135.878 22.7638C136.409 22.4229 136.795 21.9316 137.036 21.2898L134.193 21.3049L134.163 19.3947H139.232V20.252C139.232 21.7561 138.745 22.9945 137.773 23.9671C136.8 24.9398 135.587 25.4261 134.133 25.4261C132.649 25.4261 131.38 24.9047 130.327 23.8618C129.275 22.809 128.748 21.5405 128.748 20.0565C128.748 18.5725 129.275 17.304 130.327 16.2512Z" fill="#7E8192"/>
<path d="M140.436 25.3057V14.7772H145.084C146.116 14.7772 146.994 15.1381 147.716 15.8601C148.448 16.5821 148.814 17.4344 148.814 18.417C148.814 19.0989 148.618 19.7306 148.227 20.3122C147.846 20.8938 147.34 21.3099 146.708 21.5606L148.964 25.3057H146.558L144.467 21.8464H142.692V25.3057H140.436ZM145.084 19.891C145.515 19.891 145.881 19.7406 146.182 19.4398C146.482 19.139 146.633 18.773 146.633 18.3418C146.633 17.9107 146.482 17.5497 146.182 17.2589C145.881 16.9581 145.515 16.8077 145.084 16.8077H142.692V19.891H145.084Z" fill="#7E8192"/>
<path d="M149.725 20.0565C149.725 18.5725 150.251 17.304 151.304 16.2512C152.357 15.1983 153.625 14.6719 155.109 14.6719C156.593 14.6719 157.857 15.1983 158.9 16.2512C159.953 17.304 160.484 18.5725 160.494 20.0565C160.494 20.0665 160.494 20.0816 160.494 20.1016C160.494 21.5556 159.973 22.804 158.93 23.8468C157.867 24.8996 156.593 25.4261 155.109 25.4261C153.625 25.4261 152.357 24.9047 151.304 23.8618C150.251 22.809 149.725 21.5405 149.725 20.0565ZM151.981 20.0565C151.981 20.969 152.282 21.7411 152.883 22.3728C153.475 23.0045 154.217 23.3204 155.109 23.3204C156.002 23.3204 156.744 23.0045 157.336 22.3728C157.937 21.7411 158.238 20.969 158.238 20.0565C158.238 19.144 157.937 18.3719 157.336 17.7402C156.744 17.0985 156.002 16.7776 155.109 16.7776C154.227 16.7776 153.485 17.0985 152.883 17.7402C152.282 18.3719 151.981 19.144 151.981 20.0565Z" fill="#7E8192"/>
<path d="M161.556 14.7922H163.827V21.0492C163.827 21.6909 164.043 22.2274 164.474 22.6586C164.905 23.0897 165.416 23.3053 166.008 23.3053C166.6 23.3053 167.111 23.0897 167.542 22.6586C167.983 22.2274 168.204 21.6909 168.204 21.0492V14.7922H170.46V21.0492C170.46 22.2926 170.034 23.3354 169.182 24.1777C168.339 25.0099 167.282 25.4261 166.008 25.4261C164.755 25.4261 163.697 25.015 162.834 24.1927C161.982 23.3605 161.556 22.3126 161.556 21.0492V14.7922Z" fill="#7E8192"/>
<path d="M172.045 25.3057V14.7772H176.693C177.726 14.7772 178.603 15.1381 179.325 15.8601C180.057 16.5821 180.423 17.4344 180.423 18.417C180.423 19.4198 180.062 20.2671 179.34 20.9589C178.628 21.6408 177.746 21.9867 176.693 21.9968L174.316 22.0118V25.3057H172.045ZM174.316 19.9963L176.542 19.9813C177.034 19.9813 177.44 19.8209 177.761 19.5C178.082 19.1791 178.242 18.7931 178.242 18.3418C178.242 17.9006 178.082 17.5346 177.761 17.2439C177.45 16.9531 177.044 16.8077 176.542 16.8077L174.316 16.8227V19.9963Z" fill="#7E8192"/>
<defs>
<clipPath id="clip0_567_9175">
<rect width="36.0978" height="36.0978" fill="white" transform="translate(0.578125 2)"/>
</clipPath>
</defs>
</svg>
