<svg width="30" height="26" viewBox="0 0 30 26" fill="none" xmlns="http://www.w3.org/2000/svg">
<path d="M9.4344 25.1881C20.7552 25.1881 26.9472 15.8089 26.9472 7.67528C26.9472 7.40888 26.9472 7.14368 26.9292 6.87968C28.1338 6.00838 29.1736 4.92954 30 3.69368C28.8767 4.19169 27.685 4.51813 26.4648 4.66208C27.7498 3.89295 28.7114 2.68306 29.1708 1.25768C27.9626 1.97469 26.6408 2.47997 25.2624 2.75168C24.3344 1.76491 23.107 1.11149 21.7702 0.892539C20.4335 0.673593 19.0618 0.901327 17.8675 1.5405C16.6731 2.17967 15.7228 3.19465 15.1634 4.42837C14.6041 5.66209 14.4669 7.04576 14.7732 8.36528C12.3261 8.24253 9.9322 7.60657 7.74682 6.49869C5.56144 5.39081 3.63345 3.83576 2.088 1.93448C1.30091 3.28948 1.05984 4.89352 1.41387 6.42001C1.76791 7.9465 2.69043 9.28068 3.9936 10.1509C3.01404 10.1222 2.05581 9.85793 1.2 9.38048V9.45848C1.20039 10.8795 1.69231 12.2567 2.59234 13.3564C3.49236 14.4562 4.74508 15.2107 6.138 15.4921C5.23185 15.7393 4.28109 15.7754 3.3588 15.5977C3.75227 16.8206 4.51804 17.89 5.54905 18.6564C6.58006 19.4227 7.82478 19.8478 9.1092 19.8721C7.83305 20.8752 6.37164 21.6168 4.80859 22.0546C3.24554 22.4923 1.61152 22.6176 0 22.4233C2.81479 24.2296 6.08991 25.1877 9.4344 25.1833" fill="#C57B36"/>
</svg>
