<svg width="41" height="34" viewBox="0 0 41 34" fill="none" xmlns="http://www.w3.org/2000/svg">
<path d="M12.9125 33.2511C28.0068 33.2511 36.2629 20.7455 36.2629 9.9007C36.2629 9.5455 36.2629 9.19191 36.2388 8.8399C37.845 7.67816 39.2314 6.23971 40.3333 4.5919C38.8356 5.25591 37.2466 5.69116 35.6197 5.8831C37.3329 4.85759 38.6152 3.24441 39.2276 1.3439C37.6167 2.29992 35.8543 2.97361 34.0164 3.3359C32.7791 2.0202 31.1426 1.14897 29.3602 0.857045C27.5779 0.565117 25.749 0.868762 24.1565 1.72099C22.5641 2.57322 21.297 3.92653 20.5512 5.57148C19.8054 7.21644 19.6225 9.06134 20.0309 10.8207C16.7681 10.657 13.5762 9.80909 10.6623 8.33191C7.74851 6.85473 5.17786 4.78134 3.11725 2.2463C2.0678 4.05296 1.74637 6.19168 2.21842 8.22701C2.69046 10.2623 3.92049 12.0412 5.65805 13.2015C4.35197 13.1632 3.07433 12.8109 1.93325 12.1743V12.2783C1.93377 14.1731 2.58967 16.0093 3.7897 17.4756C4.98974 18.9419 6.66002 19.9479 8.51725 20.3231C7.30905 20.6527 6.04138 20.7008 4.81165 20.4639C5.33628 22.0944 6.3573 23.5203 7.73198 24.5421C9.10667 25.564 10.7663 26.1307 12.4789 26.1631C10.7773 27.5006 8.82878 28.4894 6.74471 29.0731C4.66064 29.6568 2.48194 29.8238 0.333252 29.5647C4.08631 31.9731 8.45313 33.2506 12.9125 33.2447" fill="white"/>
</svg>
