<svg width="96" height="96" viewBox="0 0 96 96" fill="none" xmlns="http://www.w3.org/2000/svg">
<path d="M54.118 33.4074C51.8283 35.0398 49.0263 36 46 36C38.268 36 32 29.732 32 22C32 14.268 38.268 8 46 8C51.012 8 55.4088 10.6337 57.882 14.5926M24 80.3486H34.4412C35.8025 80.3486 37.1555 80.5106 38.4752 80.8346L49.5076 83.5155C51.9014 84.0987 54.3951 84.1554 56.8139 83.6856L69.0119 81.3125C72.2342 80.6847 75.1983 79.1418 77.5214 76.882L86.1516 68.4869C88.6161 66.0934 88.6161 62.2097 86.1516 59.8123C83.9326 57.6537 80.4189 57.4108 77.9085 59.2412L67.8504 66.5794C66.4099 67.6324 64.6573 68.1993 62.8546 68.1993H53.142L59.3243 68.1991C62.8088 68.1991 65.6314 65.4533 65.6314 62.0637V60.8366C65.6314 58.022 63.6623 55.5678 60.8563 54.8875L51.3144 52.567C49.7615 52.1903 48.1712 52 46.5726 52C42.7133 52 35.7276 55.1953 35.7276 55.1953L24 60.0995M80 26C80 33.732 73.732 40 66 40C58.268 40 52 33.732 52 26C52 18.268 58.268 12 66 12C73.732 12 80 18.268 80 26ZM8 58.4L8 81.6C8 83.8402 8 84.9603 8.43597 85.816C8.81947 86.5686 9.43139 87.1805 10.184 87.564C11.0397 88 12.1598 88 14.4 88H17.6C19.8402 88 20.9603 88 21.816 87.564C22.5686 87.1805 23.1805 86.5686 23.564 85.816C24 84.9603 24 83.8402 24 81.6V58.4C24 56.1598 24 55.0397 23.564 54.184C23.1805 53.4314 22.5686 52.8195 21.816 52.436C20.9603 52 19.8402 52 17.6 52L14.4 52C12.1598 52 11.0397 52 10.184 52.436C9.43139 52.8195 8.81947 53.4314 8.43597 54.184C8 55.0397 8 56.1598 8 58.4Z" stroke="#C57B36" stroke-width="6" stroke-linecap="round" stroke-linejoin="round"/>
</svg>
