<svg width="29" height="29" viewBox="0 0 29 29" fill="none" xmlns="http://www.w3.org/2000/svg">
<path d="M16.11 5.86406L7.44579 7.5969C6.96179 7.6937 6.7198 7.7421 6.52273 7.85979C6.3485 7.96384 6.20033 8.10628 6.08949 8.27627C5.96411 8.46854 5.90621 8.70844 5.79039 9.18824L1.44336 27.1974M1.44336 27.1974L19.4525 22.8504C19.9323 22.7345 20.1722 22.6766 20.3645 22.5513C20.5345 22.4404 20.6769 22.2922 20.781 22.118C20.8986 21.921 20.947 21.679 21.0438 21.195L22.7767 12.5307M1.44336 27.1974L11.558 17.0827M26.6015 8.35556L20.2852 2.03922C19.7572 1.51119 19.4932 1.24718 19.1887 1.14827C18.9209 1.06126 18.6325 1.06126 18.3647 1.14827C18.0602 1.24718 17.7962 1.5112 17.2682 2.03922L16.2852 3.02223C15.7572 3.55025 15.4932 3.81426 15.3942 4.1187C15.3072 4.38649 15.3072 4.67495 15.3942 4.94275C15.4932 5.24718 15.7572 5.51119 16.2852 6.03922L22.6015 12.3556C23.1296 12.8836 23.3936 13.1476 23.698 13.2465C23.9658 13.3335 24.2543 13.3335 24.522 13.2465C24.8265 13.1476 25.0905 12.8836 25.6185 12.3556L26.6015 11.3725C27.1296 10.8445 27.3936 10.5805 27.4925 10.2761C27.5795 10.0083 27.5795 9.71982 27.4925 9.45203C27.3936 9.14759 27.1296 8.88358 26.6015 8.35556ZM13.4434 12.5307C14.9161 12.5307 16.11 13.7246 16.11 15.1974C16.11 16.6701 14.9161 17.8641 13.4434 17.8641C11.9706 17.8641 10.7767 16.6701 10.7767 15.1974C10.7767 13.7246 11.9706 12.5307 13.4434 12.5307Z" stroke="white" stroke-width="2" stroke-linecap="round" stroke-linejoin="round"/>
</svg>
