<svg width="25" height="30" viewBox="0 0 25 30" fill="none" xmlns="http://www.w3.org/2000/svg">
<path d="M17.834 4.41667C19.0739 4.41667 19.6939 4.41667 20.2026 4.55296C21.583 4.92283 22.6612 6.00102 23.031 7.38139C23.1673 7.89006 23.1673 8.51004 23.1673 9.75V22.0167C23.1673 24.2569 23.1673 25.377 22.7313 26.2326C22.3479 26.9853 21.7359 27.5972 20.9833 27.9807C20.1276 28.4167 19.0075 28.4167 16.7673 28.4167H8.23398C5.99377 28.4167 4.87367 28.4167 4.01802 27.9807C3.26537 27.5972 2.65345 26.9853 2.26996 26.2326C1.83398 25.377 1.83398 24.2569 1.83398 22.0167V9.75C1.83398 8.51004 1.83398 7.89006 1.97028 7.38139C2.34015 6.00102 3.41834 4.92283 4.79871 4.55296C5.30737 4.41667 5.92736 4.41667 7.16732 4.41667M12.5007 19.75V13.75C12.5007 12.6454 13.3961 11.75 14.5007 11.75C15.6052 11.75 16.5007 12.6454 16.5007 13.75V19.75C16.5007 21.9591 14.7098 23.75 12.5007 23.75C10.2915 23.75 8.50065 21.9591 8.50065 19.75V14.4167M9.30065 7.08333H15.7007C16.4474 7.08333 16.8208 7.08333 17.106 6.93801C17.3569 6.81018 17.5608 6.6062 17.6887 6.35532C17.834 6.07011 17.834 5.69674 17.834 4.95V3.88333C17.834 3.1366 17.834 2.76323 17.6887 2.47801C17.5608 2.22713 17.3569 2.02316 17.106 1.89532C16.8208 1.75 16.4474 1.75 15.7007 1.75H9.30065C8.55391 1.75 8.18055 1.75 7.89533 1.89532C7.64445 2.02316 7.44047 2.22713 7.31264 2.47801C7.16732 2.76323 7.16732 3.1366 7.16732 3.88333V4.95C7.16732 5.69674 7.16732 6.07011 7.31264 6.35532C7.44047 6.6062 7.64445 6.81018 7.89533 6.93801C8.18055 7.08333 8.55391 7.08333 9.30065 7.08333Z" stroke="white" stroke-width="2" stroke-linecap="round" stroke-linejoin="round"/>
</svg>
