<svg width="29" height="27" viewBox="0 0 29 27" fill="none" xmlns="http://www.w3.org/2000/svg">
<path d="M15.8327 6.74935L14.3453 3.77457C13.9172 2.91842 13.7032 2.49032 13.3838 2.17757C13.1015 1.90099 12.7611 1.69065 12.3874 1.56176C11.9649 1.41602 11.4863 1.41602 10.5291 1.41602H5.43268C3.93921 1.41602 3.19247 1.41602 2.62204 1.70666C2.12028 1.96233 1.71233 2.37028 1.45666 2.87204C1.16602 3.44247 1.16602 4.18921 1.16602 5.68268V6.74935M1.16602 6.74935H21.4327C23.6729 6.74935 24.793 6.74935 25.6486 7.18532C26.4013 7.56882 27.0132 8.18074 27.3967 8.93339C27.8327 9.78903 27.8327 10.9091 27.8327 13.1493V19.016C27.8327 21.2562 27.8327 22.3763 27.3967 23.232C27.0132 23.9846 26.4013 24.5965 25.6486 24.98C24.793 25.416 23.6729 25.416 21.4327 25.416H7.56602C5.32581 25.416 4.2057 25.416 3.35005 24.98C2.59741 24.5965 1.98548 23.9846 1.60199 23.232C1.16602 22.3763 1.16602 21.2562 1.16602 19.016V6.74935ZM10.4993 16.0827L13.166 18.7493L19.166 12.7493" stroke="white" stroke-width="2" stroke-linecap="round" stroke-linejoin="round"/>
</svg>
