<svg width="27" height="30" viewBox="0 0 27 30" fill="none" xmlns="http://www.w3.org/2000/svg">
<path d="M25.5 12.0827H1.5M25.5 15.416V10.4827C25.5 8.24247 25.5 7.12237 25.064 6.26672C24.6805 5.51407 24.0686 4.90215 23.316 4.51866C22.4603 4.08268 21.3402 4.08268 19.1 4.08268H7.9C5.65979 4.08268 4.53969 4.08268 3.68404 4.51866C2.93139 4.90215 2.31947 5.51407 1.93597 6.26672C1.5 7.12237 1.5 8.24247 1.5 10.4827V21.6827C1.5 23.9229 1.5 25.043 1.93597 25.8986C2.31947 26.6513 2.93139 27.2632 3.68404 27.6467C4.53969 28.0827 5.65979 28.0827 7.9 28.0827H13.5M18.8333 1.41602V6.74935M8.16667 1.41602V6.74935M16.8333 24.0827L19.5 26.7493L25.5 20.7493" stroke="white" stroke-width="2" stroke-linecap="round" stroke-linejoin="round"/>
</svg>
