<svg width="29" height="30" viewBox="0 0 29 30" fill="none" xmlns="http://www.w3.org/2000/svg">
<path d="M9.16602 17.418C9.16602 17.418 11.166 20.0846 14.4993 20.0846C17.8327 20.0846 19.8327 17.418 19.8327 17.418M21.166 11.0713C20.6393 11.718 19.9193 12.0846 19.166 12.0846C18.4127 12.0846 17.7127 11.718 17.166 11.0713M11.8327 11.0713C11.306 11.718 10.586 12.0846 9.83268 12.0846C9.07935 12.0846 8.37935 11.718 7.83268 11.0713M27.8327 14.7513C27.8327 22.1151 21.8631 28.0846 14.4993 28.0846C7.13555 28.0846 1.16602 22.1151 1.16602 14.7513C1.16602 7.3875 7.13555 1.41797 14.4993 1.41797C21.8631 1.41797 27.8327 7.3875 27.8327 14.7513Z" stroke="white" stroke-width="2" stroke-linecap="round" stroke-linejoin="round"/>
</svg>
