<svg width="29" height="30" viewBox="0 0 29 30" fill="none" xmlns="http://www.w3.org/2000/svg">
<path d="M6.49935 25.8661H9.97974C10.4335 25.8661 10.8845 25.9201 11.3244 26.0281L15.0019 26.9217C15.7998 27.1161 16.6311 27.135 17.4373 26.9784L21.5033 26.1873C22.5774 25.9781 23.5655 25.4638 24.3398 24.7105L27.2165 21.9121C28.0381 21.1143 28.0381 19.8198 27.2165 19.0206C26.4769 18.3011 25.3056 18.2201 24.4689 18.8303L21.1161 21.2763C20.636 21.6273 20.0518 21.8163 19.4509 21.8163H16.2133L18.2741 21.8162C19.4356 21.8162 20.3765 20.901 20.3765 19.7711V19.3621C20.3765 18.4239 19.7201 17.6058 18.7848 17.379L15.6041 16.6055C15.0865 16.48 14.5564 16.4165 14.0235 16.4165C12.7371 16.4165 10.4085 17.4816 10.4085 17.4816L6.49935 19.1164M1.16602 18.5499L1.16602 26.2832C1.16602 27.0299 1.16602 27.4033 1.31134 27.6885C1.43917 27.9394 1.64315 28.1434 1.89403 28.2712C2.17924 28.4165 2.55261 28.4165 3.29935 28.4165H4.36601C5.11275 28.4165 5.48612 28.4165 5.77134 28.2712C6.02222 28.1434 6.22619 27.9394 6.35402 27.6885C6.49935 27.4033 6.49935 27.0299 6.49935 26.2832V18.5499C6.49935 17.8031 6.49935 17.4298 6.35402 17.1445C6.22619 16.8937 6.02222 16.6897 5.77134 16.5619C5.48612 16.4165 5.11275 16.4165 4.36602 16.4165H3.29935C2.55261 16.4165 2.17924 16.4165 1.89403 16.5619C1.64315 16.6897 1.43917 16.8937 1.31134 17.1445C1.16602 17.4298 1.16602 17.8031 1.16602 18.5499ZM21.4212 3.87287C20.6254 2.20772 18.7908 1.32557 17.0066 2.17702C15.2224 3.02847 14.4623 5.0477 15.2093 6.8203C15.671 7.91581 16.9937 10.0432 17.9368 11.5086C18.2853 12.05 18.4595 12.3207 18.714 12.4791C18.9323 12.6149 19.2056 12.6882 19.4625 12.6797C19.7621 12.6698 20.0484 12.5224 20.6209 12.2278C22.1703 11.4303 24.3795 10.2493 25.3271 9.53136C26.8603 8.36975 27.2401 6.23463 26.0922 4.61151C24.9443 2.9884 22.9429 2.82869 21.4212 3.87287Z" stroke="white" stroke-width="2" stroke-linecap="round" stroke-linejoin="round"/>
</svg>
