<svg width="29" height="27" viewBox="0 0 29 27" fill="none" xmlns="http://www.w3.org/2000/svg">
<path d="M1.16602 20.5143V20.3141C1.16602 19.8921 1.16602 19.6811 1.19829 19.4755C1.22695 19.293 1.2745 19.114 1.34017 18.9413C1.41413 18.7468 1.51882 18.5636 1.72818 18.1972L6.49935 9.84766M1.16602 20.5143C1.16602 23.4598 3.55383 25.8477 6.49935 25.8477C9.44487 25.8477 11.8327 23.4598 11.8327 20.5143M1.16602 20.5143V20.2477C1.16602 19.8743 1.16602 19.6876 1.23868 19.545C1.30259 19.4196 1.40458 19.3176 1.53002 19.2537C1.67263 19.181 1.85931 19.181 2.23268 19.181H10.766C11.1394 19.181 11.3261 19.181 11.4687 19.2537C11.5941 19.3176 11.6961 19.4196 11.76 19.545C11.8327 19.6876 11.8327 19.8743 11.8327 20.2477V20.5143M6.49935 9.84766L11.2705 18.1972C11.4799 18.5636 11.5846 18.7468 11.6585 18.9413C11.7242 19.114 11.7717 19.293 11.8004 19.4755C11.8327 19.6811 11.8327 19.8921 11.8327 20.3141V20.5143M6.49935 9.84766L22.4993 7.18099M17.166 17.8477V17.6474C17.166 17.2254 17.166 17.0144 17.1983 16.8089C17.2269 16.6263 17.2745 16.4473 17.3402 16.2746C17.4141 16.0801 17.5188 15.8969 17.7282 15.5305L22.4993 7.18099M17.166 17.8477C17.166 20.7932 19.5538 23.181 22.4993 23.181C25.4449 23.181 27.8327 20.7932 27.8327 17.8477M17.166 17.8477V17.581C17.166 17.2076 17.166 17.0209 17.2387 16.8783C17.3026 16.7529 17.4046 16.6509 17.53 16.587C17.6726 16.5143 17.8593 16.5143 18.2327 16.5143H26.766C27.1394 16.5143 27.3261 16.5143 27.4687 16.587C27.5941 16.6509 27.6961 16.7529 27.76 16.8783C27.8327 17.0209 27.8327 17.2076 27.8327 17.581V17.8477M22.4993 7.18099L27.2705 15.5305C27.4799 15.8969 27.5846 16.0801 27.6585 16.2746C27.7242 16.4473 27.7717 16.6263 27.8004 16.8089C27.8327 17.0144 27.8327 17.2254 27.8327 17.6474V17.8477M14.4993 1.84766V8.51432" stroke="white" stroke-width="2" stroke-linecap="round" stroke-linejoin="round"/>
</svg>
