<svg width="29" height="27" viewBox="0 0 29 27" fill="none" xmlns="http://www.w3.org/2000/svg">
<path d="M14.4993 25.418L14.3659 25.2179C13.4398 23.8286 12.9767 23.1339 12.3648 22.6311C11.8232 22.1859 11.199 21.8518 10.5282 21.6481C9.77035 21.418 8.93549 21.418 7.26578 21.418H5.43268C3.93921 21.418 3.19247 21.418 2.62204 21.1273C2.12028 20.8717 1.71233 20.4637 1.45666 19.9619C1.16602 19.3915 1.16602 18.6448 1.16602 17.1513V5.68463C1.16602 4.19116 1.16602 3.44443 1.45666 2.87399C1.71233 2.37223 2.12028 1.96428 2.62204 1.70862C3.19247 1.41797 3.93921 1.41797 5.43268 1.41797H5.96602C8.95296 1.41797 10.4464 1.41797 11.5873 1.99927C12.5908 2.51059 13.4067 3.32649 13.918 4.33002C14.4993 5.47088 14.4993 6.96436 14.4993 9.9513M14.4993 25.418V9.9513M14.4993 25.418L14.6328 25.2179C15.5589 23.8286 16.022 23.1339 16.6339 22.6311C17.1755 22.1859 17.7997 21.8518 18.4705 21.6481C19.2283 21.418 20.0632 21.418 21.7329 21.418H23.566C25.0595 21.418 25.8062 21.418 26.3767 21.1273C26.8784 20.8717 27.2864 20.4637 27.542 19.9619C27.8327 19.3915 27.8327 18.6448 27.8327 17.1513V5.68463C27.8327 4.19116 27.8327 3.44443 27.542 2.87399C27.2864 2.37223 26.8784 1.96428 26.3767 1.70862C25.8062 1.41797 25.0595 1.41797 23.566 1.41797H23.0327C20.0457 1.41797 18.5523 1.41797 17.4114 1.99927C16.4079 2.51059 15.592 3.32649 15.0806 4.33002C14.4993 5.47088 14.4993 6.96436 14.4993 9.9513" stroke="white" stroke-width="2" stroke-linecap="round" stroke-linejoin="round"/>
</svg>
