<svg width="27" height="30" viewBox="0 0 27 30" fill="none" xmlns="http://www.w3.org/2000/svg">
<path d="M9.5 23.418H17.5M6.83333 18.7513H20.1667M4.16667 1.41797H22.8333C24.3061 1.41797 25.5 2.74453 25.5 4.38093V25.1217C25.5 26.7581 24.3061 28.0846 22.8333 28.0846H4.16667C2.69391 28.0846 1.5 26.7581 1.5 25.1217V4.38093C1.5 2.74453 2.69391 1.41797 4.16667 1.41797ZM13.4968 7.03389C12.5638 5.99504 11.0079 5.71559 9.83886 6.66686C8.66983 7.61814 8.50525 9.20862 9.42329 10.3337C10.3413 11.4588 13.4968 14.0846 13.4968 14.0846C13.4968 14.0846 16.6523 11.4588 17.5703 10.3337C18.4884 9.20862 18.3439 7.60813 17.1548 6.66686C15.9656 5.72559 14.4298 5.99504 13.4968 7.03389Z" stroke="white" stroke-width="2" stroke-linecap="round" stroke-linejoin="round"/>
</svg>
