<svg width="29" height="27" viewBox="0 0 29 27" fill="none" xmlns="http://www.w3.org/2000/svg">
<path d="M9.16602 25.418V6.7513C9.16602 5.51134 9.16602 4.89136 9.30231 4.38269C9.67218 3.00232 10.7504 1.92413 12.1307 1.55427C12.6394 1.41797 13.2594 1.41797 14.4993 1.41797C15.7393 1.41797 16.3593 1.41797 16.868 1.55427C18.2483 1.92413 19.3265 3.00232 19.6964 4.38269C19.8327 4.89136 19.8327 5.51134 19.8327 6.7513V25.418M5.43268 25.418H23.566C25.0595 25.418 25.8062 25.418 26.3767 25.1273C26.8784 24.8717 27.2864 24.4637 27.542 23.9619C27.8327 23.3915 27.8327 22.6448 27.8327 21.1513V11.018C27.8327 9.5245 27.8327 8.77776 27.542 8.20733C27.2864 7.70556 26.8784 7.29761 26.3767 7.04195C25.8062 6.7513 25.0595 6.7513 23.566 6.7513H5.43268C3.93921 6.7513 3.19247 6.7513 2.62204 7.04195C2.12028 7.29761 1.71233 7.70556 1.45666 8.20733C1.16602 8.77776 1.16602 9.5245 1.16602 11.018V21.1513C1.16602 22.6448 1.16602 23.3915 1.45666 23.9619C1.71233 24.4637 2.12028 24.8717 2.62204 25.1273C3.19247 25.418 3.93921 25.418 5.43268 25.418Z" stroke="white" stroke-width="2" stroke-linecap="round" stroke-linejoin="round"/>
</svg>
