<svg width="29" height="29" viewBox="0 0 29 29" fill="none" xmlns="http://www.w3.org/2000/svg">
<path d="M11.8327 18.4173L7.73234 22.5689C7.1604 23.148 6.87442 23.4376 6.62862 23.458C6.41537 23.4757 6.20657 23.39 6.06729 23.2275C5.90676 23.0402 5.90676 22.6333 5.90676 21.8194V19.7395C5.90676 19.0093 5.30878 18.4809 4.58629 18.3751V18.3751C2.83767 18.1189 1.46438 16.7457 1.20825 14.997C1.16602 14.7087 1.16602 14.3647 1.16602 13.6766V7.48398C1.16602 5.24377 1.16602 4.12367 1.60199 3.26802C1.98548 2.51537 2.59741 1.90345 3.35005 1.51996C4.2057 1.08398 5.32581 1.08398 7.56602 1.08398H17.4327C19.6729 1.08398 20.793 1.08398 21.6486 1.51996C22.4013 1.90345 23.0132 2.51537 23.3967 3.26802C23.8327 4.12367 23.8327 5.24377 23.8327 7.48398V13.084M23.8327 27.7506L20.9308 25.7332C20.5229 25.4496 20.3189 25.3078 20.0969 25.2072C19.8999 25.118 19.6928 25.0531 19.4801 25.0139C19.2405 24.9697 18.9921 24.9697 18.4952 24.9697H16.0993C14.6059 24.9697 13.8591 24.9697 13.2887 24.679C12.7869 24.4234 12.379 24.0154 12.1233 23.5137C11.8327 22.9432 11.8327 22.1965 11.8327 20.703V17.3507C11.8327 15.8572 11.8327 15.1104 12.1233 14.54C12.379 14.0382 12.7869 13.6303 13.2887 13.3746C13.8591 13.084 14.6059 13.084 16.0993 13.084H23.566C25.0595 13.084 25.8062 13.084 26.3767 13.3746C26.8784 13.6303 27.2864 14.0382 27.542 14.54C27.8327 15.1104 27.8327 15.8572 27.8327 17.3506V20.9697C27.8327 22.2122 27.8327 22.8335 27.6297 23.3235C27.359 23.9769 26.8399 24.4961 26.1865 24.7667C25.6964 24.9697 25.0752 24.9697 23.8327 24.9697V27.7506Z" stroke="white" stroke-width="2" stroke-linecap="round" stroke-linejoin="round"/>
</svg>
