<svg width="29" height="24" viewBox="0 0 29 24" fill="none" xmlns="http://www.w3.org/2000/svg">
<path d="M1.16602 5.17773L12.0526 12.7983C12.9341 13.4154 13.3749 13.724 13.8544 13.8435C14.2779 13.949 14.7208 13.949 15.1443 13.8435C15.6238 13.724 16.0646 13.4154 16.9461 12.7983L27.8327 5.17773M7.56602 22.5111H21.4327C23.6729 22.5111 24.793 22.5111 25.6486 22.0751C26.4013 21.6916 27.0132 21.0797 27.3967 20.327C27.8327 19.4714 27.8327 18.3513 27.8327 16.1111V7.57773C27.8327 5.33752 27.8327 4.21742 27.3967 3.36177C27.0132 2.60912 26.4013 1.9972 25.6486 1.61371C24.793 1.17773 23.6729 1.17773 21.4327 1.17773H7.56602C5.32581 1.17773 4.2057 1.17773 3.35005 1.61371C2.59741 1.9972 1.98548 2.60912 1.60199 3.36177C1.16602 4.21742 1.16602 5.33752 1.16602 7.57773V16.1111C1.16602 18.3513 1.16602 19.4714 1.60199 20.327C1.98548 21.0797 2.59741 21.6916 3.35005 22.0751C4.2057 22.5111 5.32581 22.5111 7.56602 22.5111Z" stroke="black" stroke-width="2" stroke-linecap="round" stroke-linejoin="round"/>
</svg>
