<svg width="29" height="27" viewBox="0 0 29 27" fill="none" xmlns="http://www.w3.org/2000/svg">
<path d="M20.8333 18.8236L27.5 25.4902M27.5 18.8236L20.8333 25.4902M19.5 1.87791C21.4546 2.6691 22.8333 4.58532 22.8333 6.82357C22.8333 9.06182 21.4546 10.978 19.5 11.7692M14.8333 17.4902H9.5C7.01498 17.4902 5.77247 17.4902 4.79235 17.8962C3.48554 18.4375 2.44728 19.4758 1.90598 20.7826C1.5 21.7627 1.5 23.0052 1.5 25.4902M16.8333 6.82357C16.8333 9.76909 14.4455 12.1569 11.5 12.1569C8.55448 12.1569 6.16667 9.76909 6.16667 6.82357C6.16667 3.87805 8.55448 1.49023 11.5 1.49023C14.4455 1.49023 16.8333 3.87805 16.8333 6.82357Z" stroke="black" stroke-width="2" stroke-linecap="round" stroke-linejoin="round"/>
</svg>
