<svg width="29" height="28" viewBox="0 0 29 28" fill="none" xmlns="http://www.w3.org/2000/svg">
<path d="M13.2246 17.8242H9.22461C6.73959 17.8242 5.49708 17.8242 4.51696 18.2302C3.21015 18.7715 2.17189 19.8098 1.63059 21.1166C1.22461 22.0967 1.22461 23.3392 1.22461 25.8242M19.2246 2.2119C21.1792 3.00308 22.5579 4.9193 22.5579 7.15755M14.5578 26.4909L17.2579 25.9509C17.4933 25.9038 17.611 25.8803 17.7208 25.8372C17.8182 25.799 17.9108 25.7494 17.9967 25.6896C18.0934 25.6221 18.1782 25.5372 18.348 25.3675L27.2247 16.491C27.9611 15.7545 27.9611 14.5606 27.2246 13.8242C26.4882 13.0878 25.2943 13.0878 24.5579 13.8242L15.6813 22.7009C15.5116 22.8706 15.4267 22.9555 15.3592 23.0522C15.2994 23.138 15.2498 23.2306 15.2116 23.328C15.1686 23.4378 15.145 23.5555 15.0979 23.7909L14.5578 26.4909ZM16.5579 7.15755C16.5579 10.1031 14.1701 12.4909 11.2246 12.4909C8.27909 12.4909 5.89128 10.1031 5.89128 7.15755C5.89128 4.21203 8.27909 1.82422 11.2246 1.82422C14.1701 1.82422 16.5579 4.21203 16.5579 7.15755Z" stroke="black" stroke-width="2" stroke-linecap="round" stroke-linejoin="round"/>
</svg>
