<svg width="29" height="27" viewBox="0 0 29 27" fill="none" xmlns="http://www.w3.org/2000/svg">
<path d="M23.8327 25.4902L27.8327 21.4902M27.8327 21.4902L23.8327 17.4902M27.8327 21.4902H19.8327M19.166 1.87791C21.1206 2.6691 22.4993 4.58532 22.4993 6.82357C22.4993 9.06182 21.1206 10.978 19.166 11.7692M14.4993 17.4902H9.16602C6.68099 17.4902 5.43848 17.4902 4.45837 17.8962C3.15155 18.4375 2.11329 19.4758 1.57199 20.7826C1.16602 21.7627 1.16602 23.0052 1.16602 25.4902M16.4993 6.82357C16.4993 9.76909 14.1115 12.1569 11.166 12.1569C8.2205 12.1569 5.83268 9.76909 5.83268 6.82357C5.83268 3.87805 8.2205 1.49023 11.166 1.49023C14.1115 1.49023 16.4993 3.87805 16.4993 6.82357Z" stroke="white" stroke-width="2" stroke-linecap="round" stroke-linejoin="round"/>
</svg>
