<svg width="29" height="27" viewBox="0 0 29 27" fill="none" xmlns="http://www.w3.org/2000/svg">
<path d="M19.8327 21.8242L22.4993 24.4909L27.8327 19.1576M14.4993 17.8242H9.16602C6.68099 17.8242 5.43848 17.8242 4.45837 18.2302C3.15155 18.7715 2.11329 19.8098 1.57199 21.1166C1.16602 22.0967 1.16602 23.3392 1.16602 25.8242M19.166 2.2119C21.1206 3.00308 22.4993 4.9193 22.4993 7.15755C22.4993 9.3958 21.1206 11.312 19.166 12.1032M16.4993 7.15755C16.4993 10.1031 14.1115 12.4909 11.166 12.4909C8.2205 12.4909 5.83268 10.1031 5.83268 7.15755C5.83268 4.21203 8.2205 1.82422 11.166 1.82422C14.1115 1.82422 16.4993 4.21203 16.4993 7.15755Z" stroke="black" stroke-width="2" stroke-linecap="round" stroke-linejoin="round"/>
</svg>
