<svg width="25" height="29" viewBox="0 0 25 29" fill="none" xmlns="http://www.w3.org/2000/svg">
<path d="M15.1673 1.51563V7.02301C15.1673 7.76975 15.1673 8.14312 15.3126 8.42833C15.4405 8.67922 15.6444 8.88319 15.8953 9.01102C16.1805 9.15634 16.5539 9.15634 17.3007 9.15634H22.808M17.834 23.1563L15.834 21.1563M15.1673 1.15625H8.23398C5.99377 1.15625 4.87367 1.15625 4.01802 1.59222C3.26537 1.97572 2.65345 2.58764 2.26996 3.34029C1.83398 4.19594 1.83398 5.31604 1.83398 7.55625V21.4229C1.83398 23.6631 1.83398 24.7832 2.26996 25.6389C2.65345 26.3915 3.26537 27.0034 4.01802 27.3869C4.87367 27.8229 5.99377 27.8229 8.23398 27.8229H16.7673C19.0075 27.8229 20.1276 27.8229 20.9833 27.3869C21.7359 27.0034 22.3478 26.3915 22.7313 25.6389C23.1673 24.7832 23.1673 23.6631 23.1673 21.4229V9.15625L15.1673 1.15625ZM17.1673 17.8229C17.1673 20.4002 15.078 22.4896 12.5007 22.4896C9.92332 22.4896 7.83398 20.4002 7.83398 17.8229C7.83398 15.2456 9.92332 13.1563 12.5007 13.1563C15.078 13.1563 17.1673 15.2456 17.1673 17.8229Z" stroke="black" stroke-width="2" stroke-linecap="round" stroke-linejoin="round"/>
</svg>
