<svg width="25" height="29" viewBox="0 0 25 29" fill="none" xmlns="http://www.w3.org/2000/svg">
<path d="M17.834 3.82292C19.0739 3.82292 19.6939 3.82292 20.2026 3.95921C21.583 4.32908 22.6612 5.40727 23.031 6.78764C23.1673 7.29631 23.1673 7.91629 23.1673 9.15625V21.4229C23.1673 23.6631 23.1673 24.7832 22.7313 25.6389C22.3479 26.3915 21.7359 27.0034 20.9833 27.3869C20.1276 27.8229 19.0075 27.8229 16.7673 27.8229H8.23398C5.99377 27.8229 4.87367 27.8229 4.01802 27.3869C3.26537 27.0034 2.65345 26.3915 2.26996 25.6389C1.83398 24.7832 1.83398 23.6631 1.83398 21.4229V9.15625C1.83398 7.91629 1.83398 7.29631 1.97028 6.78764C2.34015 5.40727 3.41834 4.32908 4.79871 3.95921C5.30737 3.82292 5.92736 3.82292 7.16732 3.82292M12.5007 21.1562V13.1562M8.50065 17.1562H16.5007M9.30065 6.48958H15.7007C16.4474 6.48958 16.8208 6.48958 17.106 6.34426C17.3569 6.21643 17.5608 6.01245 17.6887 5.76157C17.834 5.47636 17.834 5.10299 17.834 4.35625V3.28958C17.834 2.54285 17.834 2.16948 17.6887 1.88426C17.5608 1.63338 17.3569 1.42941 17.106 1.30157C16.8208 1.15625 16.4474 1.15625 15.7007 1.15625H9.30065C8.55391 1.15625 8.18055 1.15625 7.89533 1.30157C7.64445 1.42941 7.44047 1.63338 7.31264 1.88426C7.16732 2.16948 7.16732 2.54285 7.16732 3.28958V4.35625C7.16732 5.10299 7.16732 5.47636 7.31264 5.76157C7.44047 6.01245 7.64445 6.21643 7.89533 6.34426C8.18055 6.48958 8.55391 6.48958 9.30065 6.48958Z" stroke="white" stroke-width="2" stroke-linecap="round" stroke-linejoin="round"/>
</svg>
