<svg width="25" height="30" viewBox="0 0 25 30" fill="none" xmlns="http://www.w3.org/2000/svg">
<path d="M15.1673 2.18359V7.69098C15.1673 8.43772 15.1673 8.81109 15.3126 9.0963C15.4405 9.34718 15.6444 9.55116 15.8953 9.67899C16.1805 9.82431 16.5539 9.82431 17.3007 9.82431H22.808M15.1673 1.82422H8.23398C5.99377 1.82422 4.87367 1.82422 4.01802 2.26019C3.26537 2.64369 2.65345 3.25561 2.26996 4.00826C1.83398 4.8639 1.83398 5.98401 1.83398 8.22422V22.0909C1.83398 24.3311 1.83398 25.4512 2.26996 26.3068C2.65345 27.0595 3.26537 27.6714 4.01802 28.0549C4.87367 28.4909 5.99377 28.4909 8.23398 28.4909H16.7673C19.0075 28.4909 20.1276 28.4909 20.9833 28.0549C21.7359 27.6714 22.3478 27.0595 22.7313 26.3068C23.1673 25.4512 23.1673 24.3311 23.1673 22.0909V9.82422L15.1673 1.82422ZM12.497 14.9317C11.4307 13.7197 9.65251 13.3937 8.31649 14.5035C6.98046 15.6133 6.79237 17.4689 7.84156 18.7815C8.89075 20.0941 12.497 23.1576 12.497 23.1576C12.497 23.1576 16.1032 20.0941 17.1524 18.7815C18.2016 17.4689 18.0365 15.6016 16.6775 14.5035C15.3185 13.4053 13.5633 13.7197 12.497 14.9317Z" stroke="white" stroke-width="2" stroke-linecap="round" stroke-linejoin="round"/>
</svg>
