<svg width="25" height="30" viewBox="0 0 25 30" fill="none" xmlns="http://www.w3.org/2000/svg">
<path d="M17.834 4.1569C19.0739 4.1569 19.6939 4.1569 20.2026 4.2932C21.583 4.66307 22.6612 5.74126 23.031 7.12162C23.1673 7.63029 23.1673 8.25027 23.1673 9.49023V21.7569C23.1673 23.9971 23.1673 25.1172 22.7313 25.9729C22.3479 26.7255 21.7359 27.3374 20.9833 27.7209C20.1276 28.1569 19.0075 28.1569 16.7673 28.1569H8.23398C5.99377 28.1569 4.87367 28.1569 4.01802 27.7209C3.26537 27.3374 2.65345 26.7255 2.26996 25.9729C1.83398 25.1172 1.83398 23.9971 1.83398 21.7569V9.49023C1.83398 8.25027 1.83398 7.63029 1.97028 7.12162C2.34015 5.74126 3.41834 4.66307 4.79871 4.2932C5.30737 4.1569 5.92736 4.1569 7.16732 4.1569M8.50065 18.8236L11.1673 21.4902L17.1673 15.4902M9.30065 6.82357H15.7007C16.4474 6.82357 16.8208 6.82357 17.106 6.67824C17.3569 6.55041 17.5608 6.34644 17.6887 6.09556C17.834 5.81034 17.834 5.43697 17.834 4.69023V3.62357C17.834 2.87683 17.834 2.50346 17.6887 2.21825C17.5608 1.96736 17.3569 1.76339 17.106 1.63556C16.8208 1.49023 16.4474 1.49023 15.7007 1.49023H9.30065C8.55391 1.49023 8.18055 1.49023 7.89533 1.63556C7.64445 1.76339 7.44047 1.96736 7.31264 2.21825C7.16732 2.50346 7.16732 2.87683 7.16732 3.62357V4.69023C7.16732 5.43697 7.16732 5.81034 7.31264 6.09556C7.44047 6.34644 7.64445 6.55041 7.89533 6.67824C8.18055 6.82357 8.55391 6.82357 9.30065 6.82357Z" stroke="white" stroke-width="2" stroke-linecap="round" stroke-linejoin="round"/>
</svg>
