<svg width="37" height="38" viewBox="0 0 37 38" fill="none" xmlns="http://www.w3.org/2000/svg">
<path fill-rule="evenodd" clip-rule="evenodd" d="M18.5 0.703125C28.7173 0.703125 37 9.03647 37 19.3162C37 28.6064 30.2349 36.3068 21.3906 37.7031V24.6965H25.7013L26.5215 19.3162H26.2998L26.3368 19.0747H21.3906V15.8262C21.3906 14.3528 22.1075 12.9179 24.4055 12.9179H26.7383V8.33739C26.7383 8.33739 26.6721 8.32604 26.5521 8.30734V8.23832C26.5521 8.23832 24.4498 7.8795 22.4397 7.8795C18.2433 7.8795 15.5005 10.4228 15.5005 15.0272V19.0747H10.8358V24.3852H10.9121V24.6965H15.5005V37.223C15.5368 37.2287 15.5731 37.2342 15.6094 37.2397V37.7031C6.76515 36.3068 0 28.6064 0 19.3162C0 9.03647 8.28273 0.703125 18.5 0.703125Z" fill="black"/>
</svg>
