<svg width="37" height="37" viewBox="0 0 37 37" fill="none" xmlns="http://www.w3.org/2000/svg">
<path fill-rule="evenodd" clip-rule="evenodd" d="M18.5106 3.94516C23.3227 3.94516 23.8926 3.96626 25.7851 4.05065C27.544 4.12801 28.4937 4.42338 29.1269 4.66952C29.9641 4.99303 30.5692 5.38685 31.1953 6.01276C31.8285 6.64569 32.2155 7.24347 32.5391 8.08035C32.7853 8.71328 33.0808 9.66972 33.1582 11.4208C33.2426 13.3197 33.2637 13.8893 33.2637 18.6926C33.2637 23.5029 33.2426 24.0725 33.1582 25.9643C33.0808 27.7225 32.7853 28.6719 32.5391 29.3048C32.2155 30.1417 31.8215 30.7465 31.1953 31.3724C30.5621 32.0053 29.9641 32.3921 29.1269 32.7156C28.4937 32.9618 27.5369 33.2571 25.7851 33.3345C23.8856 33.4189 23.3157 33.44 18.5106 33.44C13.6984 33.44 13.1285 33.4189 11.236 33.3345C9.47714 33.2571 8.52736 32.9618 7.89418 32.7156C7.05697 32.3921 6.45192 31.9983 5.82578 31.3724C5.19259 30.7395 4.80565 30.1417 4.48202 29.3048C4.23578 28.6719 3.9403 27.7154 3.86291 25.9643C3.77848 24.0655 3.75738 23.4959 3.75738 18.6926C3.75738 13.8823 3.77848 13.3126 3.86291 11.4208C3.9403 9.66269 4.23578 8.71328 4.48202 8.08035C4.80565 7.24347 5.19963 6.63866 5.82578 6.01276C6.45896 5.37982 7.05697 4.99303 7.89418 4.66952C8.52736 4.42338 9.48417 4.12801 11.236 4.05065C13.1285 3.96626 13.6984 3.94516 18.5106 3.94516ZM18.5106 0.703125C13.621 0.703125 13.0089 0.724223 11.0882 0.808614C9.17461 0.893006 7.859 1.20244 6.71927 1.6455C5.53029 2.10965 4.52423 2.72149 3.52521 3.72715C2.51915 4.72579 1.90707 5.73145 1.44274 6.91293C0.999511 8.05925 0.689955 9.36732 0.605531 11.2802C0.521106 13.2071 0.5 13.819 0.5 18.7066C0.5 23.5943 0.521106 24.2062 0.605531 26.1261C0.689955 28.0389 0.999511 29.354 1.44274 30.4933C1.90707 31.6818 2.51915 32.6875 3.52521 33.6861C4.52423 34.6848 5.53029 35.3036 6.71223 35.7608C7.859 36.2038 9.16758 36.5132 11.0812 36.5976C13.0019 36.682 13.6139 36.7031 18.5035 36.7031C23.3931 36.7031 24.0052 36.682 25.9258 36.5976C27.8395 36.5132 29.1551 36.2038 30.2948 35.7608C31.4767 35.3036 32.4828 34.6848 33.4818 33.6861C34.4808 32.6875 35.1 31.6818 35.5573 30.5004C36.0005 29.354 36.31 28.046 36.3945 26.1331C36.4789 24.2132 36.5 23.6013 36.5 18.7137C36.5 13.826 36.4789 13.2142 36.3945 11.2943C36.31 9.38138 36.0005 8.06628 35.5573 6.927C35.114 5.73145 34.502 4.72579 33.4959 3.72715C32.4969 2.72852 31.4908 2.10965 30.3089 1.65253C29.1621 1.20947 27.8535 0.900038 25.9399 0.815647C24.0122 0.724223 23.4001 0.703125 18.5106 0.703125ZM18.5093 9.45853C13.4016 9.45853 9.25781 13.6007 9.25781 18.7064C9.25781 23.8121 13.4016 27.9543 18.5093 27.9543C23.617 27.9543 27.7608 23.8121 27.7608 18.7064C27.7608 13.6007 23.617 9.45853 18.5093 9.45853ZM18.5093 24.7053C15.1957 24.7053 12.5082 22.0188 12.5082 18.7064C12.5082 15.3941 15.1957 12.7076 18.5093 12.7076C21.823 12.7076 24.5105 15.3941 24.5105 18.7064C24.5105 22.0188 21.823 24.7053 18.5093 24.7053ZM28.1286 11.2517C29.3176 11.2517 30.2885 10.2882 30.2885 9.09269C30.2885 7.90418 29.3176 6.93367 28.1286 6.93367C26.9396 6.93367 25.9688 7.89714 25.9688 9.09269C25.9688 10.2812 26.9326 11.2517 28.1286 11.2517Z" fill="black"/>
</svg>
