<svg width="29" height="24" viewBox="0 0 29 24" fill="none" xmlns="http://www.w3.org/2000/svg">
<path d="M2.49935 17.1777V5.4444C2.49935 3.95093 2.49935 3.20419 2.79 2.63376C3.04566 2.13199 3.45361 1.72405 3.95537 1.46838C4.52581 1.17773 5.27254 1.17773 6.76602 1.17773H22.2327C23.7262 1.17773 24.4729 1.17773 25.0433 1.46838C25.5451 1.72405 25.953 2.13199 26.2087 2.63376C26.4993 3.20419 26.4993 3.95093 26.4993 5.4444V17.1777H19.383C19.0569 17.1777 18.8938 17.1777 18.7404 17.2146C18.6043 17.2472 18.4743 17.3011 18.355 17.3742C18.2204 17.4567 18.1051 17.572 17.8745 17.8026L17.7909 17.8862C17.5603 18.1168 17.445 18.2321 17.3104 18.3146C17.1911 18.3877 17.061 18.4416 16.925 18.4742C16.7715 18.5111 16.6085 18.5111 16.2824 18.5111H12.7163C12.3902 18.5111 12.2272 18.5111 12.0737 18.4742C11.9377 18.4416 11.8076 18.3877 11.6883 18.3146C11.5537 18.2321 11.4384 18.1168 11.2078 17.8862L11.1242 17.8026C10.8936 17.572 10.7783 17.4567 10.6437 17.3742C10.5244 17.3011 10.3944 17.2472 10.2583 17.2146C10.1049 17.1777 9.94181 17.1777 9.61569 17.1777H2.49935ZM2.49935 17.1777C1.76297 17.1777 1.16602 17.7747 1.16602 18.5111V18.9555C1.16602 19.7822 1.16602 20.1955 1.25688 20.5346C1.50346 21.4548 2.22225 22.1736 3.1425 22.4202C3.48161 22.5111 3.89493 22.5111 4.72157 22.5111H24.2771C25.1038 22.5111 25.5171 22.5111 25.8562 22.4202C26.7764 22.1736 27.4952 21.4548 27.7418 20.5346C27.8327 20.1955 27.8327 19.7822 27.8327 18.9555C27.8327 18.5422 27.8327 18.3355 27.7873 18.166C27.664 17.7059 27.3046 17.3465 26.8444 17.2232C26.6749 17.1777 26.4682 17.1777 26.0549 17.1777H25.166" stroke="black" stroke-width="2" stroke-linecap="round" stroke-linejoin="round"/>
</svg>
