<svg width="23" height="23" viewBox="0 0 23 23" fill="none" xmlns="http://www.w3.org/2000/svg">
<path fill-rule="evenodd" clip-rule="evenodd" d="M2.25 5.45312C2.25 3.6582 3.70507 2.20312 5.5 2.20312H17.5C19.2949 2.20312 20.75 3.6582 20.75 5.45312V17.4531C20.75 19.2481 19.2949 20.7031 17.5 20.7031H5.5C3.70507 20.7031 2.25 19.2481 2.25 17.4531V5.45312ZM5.5 0.703125C2.87665 0.703125 0.75 2.82977 0.75 5.45312V17.4531C0.75 20.0765 2.87665 22.2031 5.5 22.2031H17.5C20.1234 22.2031 22.25 20.0765 22.25 17.4531V5.45312C22.25 2.82977 20.1234 0.703125 17.5 0.703125H5.5ZM6.76515 7.51454C6.05147 7.51454 5.5 6.98398 5.5 6.31879C5.5 5.64569 6.05147 5.12305 6.76515 5.12305C7.47882 5.12305 8.03029 5.64569 8.03029 6.31879C8.03029 6.98398 7.47882 7.51454 6.76515 7.51454ZM6.76515 17.223C6.02714 17.223 5.5811 16.7717 5.5811 16.0194V9.60511C5.5811 8.85282 6.02714 8.39353 6.76515 8.39353C7.49504 8.39353 7.9492 8.85282 7.9492 9.60511V16.0194C7.9492 16.7717 7.49504 17.223 6.76515 17.223ZM10.7147 17.223C10.0253 17.223 9.53063 16.8113 9.53063 16.0194V9.5576C9.53063 8.83699 9.96046 8.39353 10.6741 8.39353C11.3878 8.39353 11.8582 8.83699 11.8582 9.56552V10.0407H11.9068C12.3691 8.98744 13.245 8.40937 14.5831 8.40937C16.5133 8.40937 17.6 9.5972 17.6 11.5848V16.0194C17.6 16.8113 17.1053 17.223 16.416 17.223C15.7185 17.223 15.2319 16.8113 15.2319 16.0194V12.0679C15.2319 10.9592 14.6966 10.3257 13.6342 10.3257C12.5718 10.3257 11.8987 11.0859 11.8987 12.1867V16.0194C11.8987 16.8113 11.4121 17.223 10.7147 17.223Z" fill="black"/>
</svg>
