<svg width="35" height="35" viewBox="0 0 35 35" fill="none" xmlns="http://www.w3.org/2000/svg">
<path d="M31.9901 0.703125H3.00986C2.3442 0.703125 1.70581 0.967556 1.23512 1.43825C0.764431 1.90894 0.5 2.54733 0.5 3.21299V32.1933C0.5 32.8589 0.764431 33.4973 1.23512 33.968C1.70581 34.4387 2.3442 34.7031 3.00986 34.7031H31.9901C32.6558 34.7031 33.2942 34.4387 33.7649 33.968C34.2356 33.4973 34.5 32.8589 34.5 32.1933V3.21299C34.5 2.54733 34.2356 1.90894 33.7649 1.43825C33.2942 0.967556 32.6558 0.703125 31.9901 0.703125ZM10.6339 29.6669H5.52208V13.4295H10.6339V29.6669ZM8.07445 11.1794C7.4946 11.1761 6.92871 11.0012 6.44821 10.6766C5.9677 10.352 5.59411 9.89238 5.37458 9.35568C5.15505 8.81899 5.09942 8.2293 5.21471 7.66102C5.33 7.09274 5.61105 6.57135 6.02239 6.16265C6.43372 5.75395 6.9569 5.47625 7.52591 5.36461C8.09492 5.25297 8.68424 5.31238 9.21951 5.53535C9.75479 5.75833 10.212 6.13486 10.5335 6.61744C10.855 7.10002 11.0263 7.66702 11.0258 8.24688C11.0313 8.63509 10.9586 9.02043 10.8119 9.37993C10.6653 9.73943 10.4478 10.0657 10.1724 10.3394C9.89698 10.613 9.56929 10.8284 9.20885 10.9728C8.84842 11.1171 8.46262 11.1873 8.07445 11.1794ZM29.4756 29.681H24.3661V20.8103C24.3661 18.1942 23.254 17.3867 21.8185 17.3867C20.3026 17.3867 18.8151 18.5295 18.8151 20.8765V29.681H13.7033V13.4413H18.6192V15.6915H18.6853C19.1788 14.6927 20.9071 12.9856 23.5444 12.9856C26.3967 12.9856 29.4779 14.6785 29.4779 19.6369L29.4756 29.681Z" fill="black"/>
</svg>
