<svg width="23" height="23" viewBox="0 0 23 23" fill="none" xmlns="http://www.w3.org/2000/svg">
<path fill-rule="evenodd" clip-rule="evenodd" d="M2.5 5.70312C2.5 4.04627 3.84315 2.70312 5.5 2.70312H17.5C19.1569 2.70312 20.5 4.04627 20.5 5.70312V17.7031C20.5 19.36 19.1569 20.7031 17.5 20.7031H5.5C3.84315 20.7031 2.5 19.36 2.5 17.7031V5.70312ZM5.5 0.703125C2.73858 0.703125 0.5 2.9417 0.5 5.70312V17.7031C0.5 20.4646 2.73858 22.7031 5.5 22.7031H17.5C20.2614 22.7031 22.5 20.4645 22.5 17.7031V5.70312C22.5 2.9417 20.2614 0.703125 17.5 0.703125H5.5ZM6.76515 7.76454C6.05147 7.76454 5.5 7.23398 5.5 6.56879C5.5 5.89569 6.05147 5.37305 6.76515 5.37305C7.47882 5.37305 8.03029 5.89569 8.03029 6.56879C8.03029 7.23398 7.47882 7.76454 6.76515 7.76454ZM6.76515 17.473C6.02714 17.473 5.5811 17.0217 5.5811 16.2694V9.85511C5.5811 9.10282 6.02714 8.64353 6.76515 8.64353C7.49504 8.64353 7.9492 9.10282 7.9492 9.85511V16.2694C7.9492 17.0217 7.49504 17.473 6.76515 17.473ZM10.7147 17.473C10.0253 17.473 9.53063 17.0613 9.53063 16.2694V9.8076C9.53063 9.08699 9.96046 8.64353 10.6741 8.64353C11.3878 8.64353 11.8582 9.08699 11.8582 9.81552V10.2907H11.9068C12.3691 9.23744 13.245 8.65937 14.5831 8.65937C16.5133 8.65937 17.6 9.8472 17.6 11.8348V16.2694C17.6 17.0613 17.1053 17.473 16.416 17.473C15.7185 17.473 15.2319 17.0613 15.2319 16.2694V12.3179C15.2319 11.2092 14.6966 10.5757 13.6342 10.5757C12.5718 10.5757 11.8987 11.3359 11.8987 12.4367V16.2694C11.8987 17.0613 11.4121 17.473 10.7147 17.473Z" fill="black"/>
</svg>
