<svg width="29" height="30" viewBox="0 0 29 30" fill="none" xmlns="http://www.w3.org/2000/svg">
<path d="M10.4993 14.849L13.166 17.5156L19.166 11.5156M22.3676 5.51363C22.6421 6.17767 23.1692 6.70549 23.8328 6.98105L26.1597 7.94493C26.8237 8.22 27.3513 8.74762 27.6264 9.4117C27.9015 10.0758 27.9015 10.8219 27.6264 11.486L26.6632 13.8114C26.3881 14.4757 26.3877 15.2227 26.6641 15.8867L27.6256 18.2114C27.7619 18.5403 27.8322 18.8928 27.8322 19.2489C27.8323 19.6049 27.7622 19.9575 27.6259 20.2865C27.4897 20.6154 27.2899 20.9143 27.0381 21.1661C26.7863 21.4178 26.4874 21.6174 26.1584 21.7536L23.8332 22.7168C23.1691 22.9913 22.6413 23.5184 22.3658 24.182L21.4019 26.509C21.1269 27.1731 20.5993 27.7007 19.9352 27.9758C19.2712 28.2508 18.525 28.2508 17.861 27.9758L15.5357 27.0126C14.8716 26.7382 14.1258 26.7387 13.4621 27.0141L11.1352 27.9766C10.4715 28.2511 9.72603 28.2508 9.06251 27.976C8.39898 27.7011 7.87169 27.1741 7.59643 26.5108L6.63231 24.1831C6.35775 23.519 5.83074 22.9912 5.16715 22.7157L2.84023 21.7518C2.17646 21.4768 1.64902 20.9496 1.37386 20.2858C1.09869 19.6221 1.09832 18.8763 1.37282 18.2123L2.33597 15.887C2.61035 15.2229 2.60979 14.477 2.33441 13.8133L1.37265 11.4847C1.23629 11.1558 1.16607 10.8032 1.16602 10.4471C1.16596 10.0911 1.23606 9.73849 1.37231 9.40954C1.50857 9.08058 1.7083 8.78169 1.96011 8.52996C2.21191 8.27823 2.51085 8.07858 2.83984 7.94243L5.16508 6.97925C5.82851 6.70492 6.356 6.17856 6.63175 5.5157L7.59559 3.1887C7.87065 2.52462 8.39825 1.997 9.06231 1.72193C9.72637 1.44686 10.4725 1.44686 11.1366 1.72193L13.4618 2.68511C14.1259 2.95951 14.8718 2.95895 15.5354 2.68355L17.8633 1.72342C18.5273 1.4485 19.2733 1.44856 19.9372 1.72358C20.6011 1.9986 21.1286 2.52606 21.4038 3.18998L22.3679 5.51766L22.3676 5.51363Z" stroke="white" stroke-width="2" stroke-linecap="round" stroke-linejoin="round"/>
</svg>
