<svg width="25" height="29" viewBox="0 0 25 29" fill="none" xmlns="http://www.w3.org/2000/svg">
<path d="M8.50065 14.0662L11.1673 16.7329L17.1673 10.7329M23.1673 14.7329C23.1673 21.2775 16.0287 26.0374 13.4313 27.5527C13.1361 27.7249 12.9885 27.8111 12.7802 27.8557C12.6186 27.8904 12.3827 27.8904 12.2211 27.8557C12.0128 27.8111 11.8652 27.7249 11.57 27.5527C8.9726 26.0374 1.83398 21.2775 1.83398 14.7329V8.35637C1.83398 7.29035 1.83398 6.75735 2.00833 6.29917C2.16235 5.89442 2.41263 5.53327 2.73753 5.24694C3.10531 4.92282 3.60438 4.73567 4.60252 4.36136L11.7516 1.68047C12.0288 1.57652 12.1674 1.52454 12.31 1.50394C12.4364 1.48567 12.5649 1.48567 12.6913 1.50394C12.8339 1.52454 12.9725 1.57652 13.2497 1.68047L20.3988 4.36136C21.3969 4.73567 21.896 4.92282 22.2638 5.24694C22.5887 5.53327 22.839 5.89442 22.993 6.29917C23.1673 6.75735 23.1673 7.29035 23.1673 8.35637V14.7329Z" stroke="white" stroke-width="2" stroke-linecap="round" stroke-linejoin="round"/>
</svg>
