<svg width="29" height="22" viewBox="0 0 29 22" fill="none" xmlns="http://www.w3.org/2000/svg">
<path d="M1.72683 12.1671C1.54525 11.8795 1.45446 11.7358 1.40363 11.514C1.36546 11.3475 1.36546 11.0848 1.40363 10.9183C1.45446 10.6965 1.54525 10.5528 1.72683 10.2652C3.22737 7.88927 7.69387 1.88281 14.5005 1.88281C21.3072 1.88281 25.7737 7.88927 27.2742 10.2652C27.4558 10.5528 27.5466 10.6965 27.5974 10.9183C27.6356 11.0848 27.6356 11.3475 27.5974 11.514C27.5466 11.7358 27.4558 11.8795 27.2742 12.167C25.7737 14.543 21.3072 20.5495 14.5005 20.5495C7.69387 20.5495 3.22737 14.543 1.72683 12.1671Z" stroke="white" stroke-width="2" stroke-linecap="round" stroke-linejoin="round"/>
<path d="M14.5005 15.2161C16.7097 15.2161 18.5005 13.4253 18.5005 11.2161C18.5005 9.00701 16.7097 7.21615 14.5005 7.21615C12.2914 7.21615 10.5005 9.00701 10.5005 11.2161C10.5005 13.4253 12.2914 15.2161 14.5005 15.2161Z" stroke="white" stroke-width="2" stroke-linecap="round" stroke-linejoin="round"/>
</svg>
