<svg width="27" height="29" viewBox="0 0 27 29" fill="none" xmlns="http://www.w3.org/2000/svg">
<path d="M10.0254 24.3431L10.8047 26.0957C11.0363 26.6174 11.4144 27.0607 11.893 27.3718C12.3716 27.6829 12.9302 27.8484 13.501 27.8483C14.0718 27.8484 14.6304 27.6829 15.109 27.3718C15.5876 27.0607 15.9656 26.6174 16.1973 26.0957L16.9765 24.3431C17.2539 23.7212 17.7205 23.2028 18.3099 22.8616C18.9029 22.5196 19.589 22.3738 20.2699 22.4453L22.1765 22.6483C22.7441 22.7083 23.3169 22.6024 23.8254 22.3434C24.334 22.0844 24.7565 21.6834 25.0417 21.189C25.3273 20.695 25.4633 20.1287 25.4334 19.5588C25.4034 18.989 25.2087 18.44 24.8728 17.9787L23.7439 16.4276C23.342 15.8711 23.1272 15.2014 23.1306 14.515C23.1305 13.8304 23.3473 13.1634 23.7499 12.6098L24.8788 11.0587C25.2146 10.5973 25.4093 10.0484 25.4393 9.47854C25.4693 8.90868 25.3332 8.34236 25.0476 7.84831C24.7624 7.35395 24.3399 6.95296 23.8314 6.69394C23.3228 6.43493 22.75 6.32901 22.1825 6.38905L20.2758 6.59201C19.5949 6.66352 18.9088 6.5178 18.3158 6.17571C17.7253 5.83264 17.2586 5.31145 16.9825 4.68683L16.1973 2.93423C15.9656 2.41254 15.5876 1.96926 15.109 1.65817C14.6304 1.34708 14.0718 1.18155 13.501 1.18164C12.9302 1.18155 12.3716 1.34708 11.893 1.65817C11.4144 1.96926 11.0363 2.41254 10.8047 2.93423L10.0254 4.68683C9.74933 5.31145 9.28258 5.83264 8.69209 6.17571C8.09904 6.5178 7.41298 6.66352 6.73209 6.59201L4.81949 6.38905C4.25193 6.32901 3.67915 6.43493 3.17058 6.69394C2.66202 6.95296 2.23952 7.35395 1.95431 7.84831C1.66874 8.34236 1.53269 8.90868 1.56267 9.47854C1.59264 10.0484 1.78736 10.5973 2.1232 11.0587L3.25209 12.6098C3.65468 13.1634 3.87147 13.8304 3.87135 14.515C3.87147 15.1995 3.65468 15.8665 3.25209 16.4202L2.1232 17.9713C1.78736 18.4326 1.59264 18.9815 1.56267 19.5514C1.53269 20.1213 1.66874 20.6876 1.95431 21.1816C2.2398 21.6757 2.66235 22.0765 3.17084 22.3355C3.67933 22.5945 4.25198 22.7006 4.81949 22.6409L6.72616 22.4379C7.40705 22.3664 8.09312 22.5121 8.68616 22.8542C9.27887 23.1963 9.74777 23.7176 10.0254 24.3431Z" stroke="white" stroke-width="2" stroke-linecap="round" stroke-linejoin="round"/>
<path d="M13.4986 18.515C15.7077 18.515 17.4986 16.7241 17.4986 14.515C17.4986 12.3058 15.7077 10.515 13.4986 10.515C11.2895 10.515 9.49859 12.3058 9.49859 14.515C9.49859 16.7241 11.2895 18.515 13.4986 18.515Z" stroke="white" stroke-width="2" stroke-linecap="round" stroke-linejoin="round"/>
</svg>
