<svg width="29" height="29" viewBox="0 0 29 29" fill="none" xmlns="http://www.w3.org/2000/svg">
<path d="M14.1667 18.8493L10.1667 14.8493M14.1667 18.8493C16.0291 18.1409 17.8158 17.2476 19.5 16.1826M14.1667 18.8493V25.516C14.1667 25.516 18.2067 24.7826 19.5 22.8493C20.94 20.6893 19.5 16.1826 19.5 16.1826M10.1667 14.8493C10.8762 13.0085 11.7696 11.244 12.8333 9.58262C14.3869 7.0986 16.5502 5.05335 19.1173 3.64141C21.6845 2.22947 24.5702 1.49778 27.5 1.51596C27.5 5.14262 26.46 11.516 19.5 16.1826M10.1667 14.8493H3.5C3.5 14.8493 4.23333 10.8093 6.16667 9.51596C8.32667 8.07596 12.8333 9.51596 12.8333 9.51596M4.16667 20.8493C2.16667 22.5293 1.5 27.516 1.5 27.516C1.5 27.516 6.48667 26.8493 8.16667 24.8493C9.11333 23.7293 9.1 22.0093 8.04667 20.9693C7.52841 20.4746 6.84572 20.1888 6.12963 20.1667C5.41355 20.1445 4.7145 20.3876 4.16667 20.8493Z" stroke="white" stroke-width="2" stroke-linecap="round" stroke-linejoin="round"/>
</svg>
