<svg width="29" height="30" viewBox="0 0 29 30" fill="none" xmlns="http://www.w3.org/2000/svg">
<path d="M19.2385 12.1161C19.737 11.2302 20.1528 10.4308 20.4092 9.82244C21.6542 6.86812 20.4231 3.46985 17.4136 2.08366C14.4042 0.697466 11.3823 2.13482 10.056 4.91006C7.51982 3.16976 4.13664 3.42535 2.27092 6.14114C0.405191 8.85694 0.99074 12.4049 3.54612 14.3409C4.70587 15.2195 6.99955 16.5144 9.15901 17.6668M20.2407 14.5488C19.6779 11.5248 17.1049 9.31328 13.8653 9.91437C10.6256 10.5155 8.5309 13.4383 8.96886 16.6142C9.32073 19.1658 11.263 25.1525 12.0129 27.4075C12.1153 27.7152 12.1665 27.8691 12.2678 27.9764C12.356 28.0698 12.4734 28.1376 12.5985 28.1673C12.742 28.2014 12.9009 28.1688 13.2185 28.1035C15.5464 27.6255 21.7022 26.3142 24.0879 25.3431C27.0572 24.1345 28.5897 20.861 27.4419 17.7528C26.2941 14.6446 23.1409 13.5242 20.2407 14.5488Z" stroke="white" stroke-width="2" stroke-linecap="round" stroke-linejoin="round"/>
</svg>
