<svg width="29" height="28" viewBox="0 0 29 28" fill="none" xmlns="http://www.w3.org/2000/svg">
<path d="M23.8331 11.5156L5.16646 11.5156M23.8331 11.5156L26.3187 15.6582C26.8757 16.5866 27.1542 17.0508 27.2989 17.5505C27.4271 17.9933 27.4777 18.4549 27.4487 18.9149C27.4159 19.4341 27.2447 19.9477 26.9023 20.9748L26.6252 21.8061C26.1006 23.3798 25.8384 24.1666 25.3519 24.7483C24.9223 25.262 24.3706 25.6596 23.7474 25.9047C23.0417 26.1823 22.2124 26.1823 20.5536 26.1823L8.44598 26.1823C6.78722 26.1823 5.95784 26.1823 5.25214 25.9047C4.62896 25.6596 4.07728 25.262 3.6477 24.7483C3.16123 24.1666 2.89896 23.3798 2.37441 21.8061L2.0973 20.9748C1.75492 19.9477 1.58373 19.4341 1.55093 18.9149C1.52186 18.4549 1.57253 17.9933 1.70071 17.5505C1.84535 17.0508 2.12388 16.5866 2.68092 15.6582L5.16646 11.5156M23.8331 11.5156L24.3895 9.56836C24.6533 8.64518 24.7851 8.18359 24.6815 7.8184C24.5908 7.49849 24.3838 7.22405 24.1011 7.0489C23.7784 6.84896 23.2984 6.84896 22.3382 6.84896L6.66135 6.84896C5.70122 6.84896 5.22116 6.84896 4.89848 7.0489C4.61582 7.22405 4.4088 7.49849 4.31805 7.81839C4.21445 8.18359 4.34633 8.64518 4.6101 9.56836L5.16646 11.5156M14.4998 6.84896H9.78551C9.09089 6.84896 8.42473 6.56801 7.93356 6.06791C7.44239 5.56781 7.16646 4.88954 7.16646 4.18229C7.16646 3.47505 7.44239 2.79677 7.93356 2.29667C8.42473 1.79658 9.09089 1.51563 9.78551 1.51562C13.4522 1.51562 14.4998 6.84896 14.4998 6.84896ZM14.4998 6.84896H19.2141C19.9087 6.84896 20.5749 6.56801 21.066 6.06791C21.5572 5.56781 21.8331 4.88954 21.8331 4.18229C21.8331 3.47505 21.5572 2.79677 21.066 2.29667C20.5749 1.79658 19.9087 1.51563 19.2141 1.51562C15.5474 1.51562 14.4998 6.84896 14.4998 6.84896Z" stroke="white" stroke-width="2" stroke-linecap="round" stroke-linejoin="round"/>
</svg>
