<svg width="29" height="27" viewBox="0 0 29 27" fill="none" xmlns="http://www.w3.org/2000/svg">
<path d="M22.5135 18.6315C24.4547 19.6066 26.119 21.1716 27.3338 23.1285C27.5743 23.516 27.6946 23.7097 27.7362 23.9781C27.8207 24.5233 27.4479 25.1937 26.94 25.4094C26.6901 25.5156 26.409 25.5156 25.8468 25.5156M19.8468 12.8919C21.8224 11.9101 23.1801 9.87144 23.1801 7.51563C23.1801 5.15981 21.8224 3.12111 19.8468 2.1393M17.1801 7.51563C17.1801 10.8293 14.4938 13.5156 11.1801 13.5156C7.86641 13.5156 5.18012 10.8293 5.18012 7.51563C5.18012 4.20192 7.86641 1.51562 11.1801 1.51562C14.4938 1.51562 17.1801 4.20192 17.1801 7.51563ZM1.92576 22.7667C4.0515 19.575 7.40595 17.5156 11.1801 17.5156C14.9543 17.5156 18.3087 19.575 20.4345 22.7667C20.9002 23.466 21.133 23.8156 21.1062 24.2622C21.0853 24.6099 20.8574 25.0356 20.5795 25.2457C20.2227 25.5156 19.7319 25.5156 18.7503 25.5156H3.60993C2.62835 25.5156 2.13756 25.5156 1.78071 25.2457C1.50285 25.0356 1.27491 24.6099 1.25403 24.2622C1.22723 23.8156 1.46007 23.466 1.92576 22.7667Z" stroke="white" stroke-width="2" stroke-linecap="round" stroke-linejoin="round"/>
</svg>
