<svg width="29" height="28" viewBox="0 0 29 28" fill="none" xmlns="http://www.w3.org/2000/svg">
<path d="M1.83266 15.8483H9.83266M19.166 15.8483H27.166M14.4993 7.84831V26.515M14.4993 7.84831C16.3403 7.84831 17.8327 6.35592 17.8327 4.51497M14.4993 7.84831C12.6584 7.84831 11.166 6.35592 11.166 4.51497M3.83266 26.515L25.166 26.515M3.83266 4.51498L11.166 4.51497M11.166 4.51497C11.166 2.67403 12.6584 1.18164 14.4993 1.18164C16.3403 1.18164 17.8327 2.67402 17.8327 4.51497M17.8327 4.51497L25.166 4.51497M10.3399 17.6301C9.80566 19.6757 7.99014 21.1816 5.83266 21.1816C3.67519 21.1816 1.85967 19.6757 1.32541 17.6301C1.28176 17.463 1.25993 17.3794 1.25783 17.0455C1.25654 16.8408 1.33261 16.3688 1.39815 16.1749C1.50507 15.8585 1.62081 15.6799 1.85228 15.3228L5.83266 9.18164L9.81305 15.3228C10.0445 15.6799 10.1603 15.8585 10.2672 16.1749C10.3327 16.3688 10.4088 16.8408 10.4075 17.0455C10.4054 17.3794 10.3836 17.463 10.3399 17.6301ZM27.6732 17.6301C27.139 19.6757 25.3235 21.1816 23.166 21.1816C21.0085 21.1816 19.193 19.6757 18.6587 17.6301C18.6151 17.463 18.5933 17.3794 18.5912 17.0455C18.5899 16.8408 18.6659 16.3688 18.7315 16.1749C18.8384 15.8585 18.9541 15.6799 19.1856 15.3228L23.166 9.18164L27.1464 15.3228C27.3779 15.6799 27.4936 15.8585 27.6005 16.1749C27.666 16.3688 27.7421 16.8408 27.7408 17.0455C27.7387 17.3794 27.7169 17.463 27.6732 17.6301Z" stroke="white" stroke-width="2" stroke-linecap="round" stroke-linejoin="round"/>
</svg>
