<svg width="29" height="29" viewBox="0 0 29 29" fill="none" xmlns="http://www.w3.org/2000/svg">
<path d="M12.5078 16.3225L26.5078 2.3225M12.6779 16.7599L16.1821 25.7706C16.4908 26.5644 16.6451 26.9613 16.8675 27.0772C17.0603 27.1776 17.29 27.1777 17.4829 27.0775C17.7055 26.9619 17.8603 26.5652 18.1699 25.7718L26.957 3.25476C27.2365 2.53852 27.3763 2.1804 27.2998 1.95156C27.2334 1.75283 27.0775 1.59687 26.8788 1.53048C26.6499 1.45404 26.2918 1.59379 25.5756 1.8733L3.05857 10.6604C2.26514 10.97 1.86842 11.1249 1.75281 11.3474C1.65258 11.5403 1.65272 11.77 1.75317 11.9628C1.86904 12.1852 2.26594 12.3395 3.05973 12.6482L12.0704 16.1524C12.2315 16.215 12.3121 16.2464 12.3799 16.2948C12.4401 16.3377 12.4927 16.3902 12.5355 16.4504C12.5839 16.5182 12.6153 16.5988 12.6779 16.7599Z" stroke="black" stroke-width="2" stroke-linecap="round" stroke-linejoin="round"/>
</svg>
