<svg width="27" height="30" viewBox="0 0 27 30" fill="none" xmlns="http://www.w3.org/2000/svg">
<path d="M25.5 12.4167H1.5M18.8333 1.75V7.08333M8.16667 1.75V7.08333M7.9 28.4167H19.1C21.3402 28.4167 22.4603 28.4167 23.316 27.9807C24.0686 27.5972 24.6805 26.9853 25.064 26.2326C25.5 25.377 25.5 24.2569 25.5 22.0167V10.8167C25.5 8.57646 25.5 7.45635 25.064 6.6007C24.6805 5.84806 24.0686 5.23613 23.316 4.85264C22.4603 4.41667 21.3402 4.41667 19.1 4.41667H7.9C5.65979 4.41667 4.53969 4.41667 3.68404 4.85264C2.93139 5.23613 2.31947 5.84806 1.93597 6.6007C1.5 7.45635 1.5 8.57646 1.5 10.8167V22.0167C1.5 24.2569 1.5 25.377 1.93597 26.2326C2.31947 26.9853 2.93139 27.5972 3.68404 27.9807C4.53969 28.4167 5.65979 28.4167 7.9 28.4167Z" stroke="white" stroke-width="2" stroke-linecap="round" stroke-linejoin="round"/>
</svg>
