<svg width="29" height="29" viewBox="0 0 29 29" fill="none" xmlns="http://www.w3.org/2000/svg">
<path d="M10.681 10.599L5.07126 4.98926M5.07126 23.8454L10.7233 18.1934M18.3141 18.2357L23.9239 23.8454M23.9239 4.98926L18.271 10.6421M27.8327 14.4173C27.8327 21.7811 21.8631 27.7506 14.4993 27.7506C7.13555 27.7506 1.16602 21.7811 1.16602 14.4173C1.16602 7.05352 7.13555 1.08398 14.4993 1.08398C21.8631 1.08398 27.8327 7.05352 27.8327 14.4173ZM19.8327 14.4173C19.8327 17.3628 17.4449 19.7506 14.4993 19.7506C11.5538 19.7506 9.16602 17.3628 9.16602 14.4173C9.16602 11.4718 11.5538 9.08398 14.4993 9.08398C17.4449 9.08398 19.8327 11.4718 19.8327 14.4173Z" stroke="white" stroke-width="2" stroke-linecap="round" stroke-linejoin="round"/>
</svg>
