<svg width="29" height="27" viewBox="0 0 29 27" fill="none" xmlns="http://www.w3.org/2000/svg">
<path d="M8.49935 12.4167H4.63268C3.88595 12.4167 3.51258 12.4167 3.22736 12.562C2.97648 12.6898 2.7725 12.8938 2.64467 13.1447C2.49935 13.4299 2.49935 13.8033 2.49935 14.55V25.75M20.4993 12.4167H24.366C25.1128 12.4167 25.4861 12.4167 25.7713 12.562C26.0222 12.6898 26.2262 12.8938 26.354 13.1447C26.4993 13.4299 26.4993 13.8033 26.4993 14.55V25.75M20.4993 25.75V6.01667C20.4993 4.52319 20.4993 3.77646 20.2087 3.20603C19.953 2.70426 19.5451 2.29631 19.0433 2.04065C18.4729 1.75 17.7262 1.75 16.2327 1.75H12.766C11.2725 1.75 10.5258 1.75 9.95537 2.04065C9.45361 2.29631 9.04566 2.70426 8.79 3.20603C8.49935 3.77646 8.49935 4.52319 8.49935 6.01667V25.75M27.8327 25.75H1.16602M13.166 7.08333H15.8327M13.166 12.4167H15.8327M13.166 17.75H15.8327" stroke="white" stroke-width="2" stroke-linecap="round" stroke-linejoin="round"/>
</svg>
