<svg width="29" height="27" viewBox="0 0 29 27" fill="none" xmlns="http://www.w3.org/2000/svg">
<path d="M15.8327 7.08333L14.3453 4.10856C13.9172 3.2524 13.7032 2.82431 13.3838 2.51155C13.1015 2.23497 12.7611 2.02463 12.3874 1.89575C11.9649 1.75 11.4863 1.75 10.5291 1.75H5.43268C3.93921 1.75 3.19247 1.75 2.62204 2.04065C2.12028 2.29631 1.71233 2.70426 1.45666 3.20603C1.16602 3.77646 1.16602 4.52319 1.16602 6.01667V7.08333M1.16602 7.08333H21.4327C23.6729 7.08333 24.793 7.08333 25.6486 7.51931C26.4013 7.9028 27.0132 8.51472 27.3967 9.26737C27.8327 10.123 27.8327 11.2431 27.8327 13.4833V19.35C27.8327 21.5902 27.8327 22.7103 27.3967 23.566C27.0132 24.3186 26.4013 24.9305 25.6486 25.314C24.793 25.75 23.6729 25.75 21.4327 25.75H7.56602C5.32581 25.75 4.2057 25.75 3.35005 25.314C2.59741 24.9305 1.98548 24.3186 1.60199 23.566C1.16602 22.7103 1.16602 21.5902 1.16602 19.35V7.08333ZM19.166 21.0833L17.166 19.0833M18.4993 15.75C18.4993 18.3273 16.41 20.4167 13.8327 20.4167C11.2554 20.4167 9.16602 18.3273 9.16602 15.75C9.16602 13.1727 11.2554 11.0833 13.8327 11.0833C16.41 11.0833 18.4993 13.1727 18.4993 15.75Z" stroke="white" stroke-width="2" stroke-linecap="round" stroke-linejoin="round"/>
</svg>
