<svg width="29" height="30" viewBox="0 0 29 30" fill="none" xmlns="http://www.w3.org/2000/svg">
<path d="M16.5387 9.88614C15.7754 10.4303 14.8414 10.7503 13.8327 10.7503C11.2554 10.7503 9.16602 8.66099 9.16602 6.08366C9.16602 3.50633 11.2554 1.41699 13.8327 1.41699C15.5033 1.41699 16.9689 2.29488 17.7934 3.61451M6.49935 25.5332H9.97974C10.4335 25.5332 10.8845 25.5872 11.3244 25.6952L15.0019 26.5888C15.7998 26.7832 16.6311 26.8021 17.4373 26.6455L21.5033 25.8545C22.5774 25.6452 23.5655 25.1309 24.3398 24.3777L27.2165 21.5793C28.0381 20.7815 28.0381 19.4869 27.2165 18.6877C26.4769 17.9682 25.3056 17.8872 24.4689 18.4974L21.1161 20.9435C20.636 21.2944 20.0518 21.4834 19.4509 21.4834H16.2133L18.2741 21.4833C19.4356 21.4833 20.3765 20.5681 20.3765 19.4382V19.0292C20.3765 18.091 19.7201 17.2729 18.7848 17.0462L15.6041 16.2726C15.0865 16.1471 14.5564 16.0837 14.0235 16.0837C12.7371 16.0837 10.4085 17.1487 10.4085 17.1487L6.49935 18.7835M25.166 7.41699C25.166 9.99432 23.0767 12.0837 20.4993 12.0837C17.922 12.0837 15.8327 9.99432 15.8327 7.41699C15.8327 4.83966 17.922 2.75033 20.4993 2.75033C23.0767 2.75033 25.166 4.83966 25.166 7.41699ZM1.16602 18.217L1.16602 25.9503C1.16602 26.6971 1.16602 27.0704 1.31134 27.3556C1.43917 27.6065 1.64315 27.8105 1.89403 27.9383C2.17924 28.0837 2.55261 28.0837 3.29935 28.0837H4.36601C5.11275 28.0837 5.48612 28.0837 5.77134 27.9383C6.02222 27.8105 6.22619 27.6065 6.35402 27.3556C6.49935 27.0704 6.49935 26.6971 6.49935 25.9503V18.217C6.49935 17.4703 6.49935 17.0969 6.35402 16.8117C6.22619 16.5608 6.02222 16.3568 5.77134 16.229C5.48612 16.0837 5.11275 16.0837 4.36602 16.0837L3.29935 16.0837C2.55261 16.0837 2.17924 16.0837 1.89403 16.229C1.64315 16.3568 1.43917 16.5608 1.31134 16.8117C1.16602 17.0969 1.16602 17.4703 1.16602 18.217Z" stroke="white" stroke-width="2" stroke-linecap="round" stroke-linejoin="round"/>
</svg>
