<svg width="27" height="28" viewBox="0 0 27 28" fill="none" xmlns="http://www.w3.org/2000/svg">
<path d="M8.36315 9.76736C9.29115 11.7002 10.5562 13.5117 12.1583 15.1138C13.7604 16.7159 15.5719 17.981 17.5048 18.909C17.671 18.9888 17.7541 19.0287 17.8593 19.0594C18.2331 19.1683 18.6921 19.0901 19.0087 18.8634C19.0978 18.7996 19.174 18.7234 19.3264 18.571C19.7926 18.1048 20.0256 17.8718 20.26 17.7194C21.1439 17.1447 22.2833 17.1447 23.1672 17.7194C23.4015 17.8718 23.6346 18.1048 24.1007 18.571L24.3606 18.8308C25.0692 19.5394 25.4234 19.8937 25.6159 20.2742C25.9987 21.0309 25.9987 21.9246 25.6159 22.6814C25.4234 23.0619 25.0692 23.4162 24.3606 24.1248L24.1504 24.3349C23.4442 25.0411 23.0911 25.3942 22.6111 25.6638C22.0784 25.9631 21.2511 26.1782 20.6401 26.1764C20.0895 26.1748 19.7132 26.068 18.9606 25.8544C14.9161 24.7064 11.0996 22.5404 7.91567 19.3565C4.73169 16.1725 2.56573 12.356 1.41777 8.31147C1.20416 7.55888 1.09735 7.18258 1.09571 6.63198C1.0939 6.02102 1.30905 5.1937 1.60827 4.66102C1.87794 4.18098 2.23102 3.8279 2.93718 3.12173L3.14736 2.91155C3.85595 2.20297 4.21025 1.84867 4.59075 1.65621C5.3475 1.27345 6.24119 1.27345 6.99794 1.65621C7.37845 1.84867 7.73274 2.20296 8.44133 2.91155L8.70116 3.17138C9.1673 3.63752 9.40037 3.87059 9.55275 4.10496C10.1274 4.98882 10.1274 6.12826 9.55275 7.01211C9.40037 7.24648 9.1673 7.47955 8.70116 7.94569C8.54874 8.09811 8.47253 8.17432 8.40874 8.2634C8.18206 8.57998 8.10379 9.03899 8.21276 9.41279C8.24342 9.51798 8.28333 9.60111 8.36315 9.76736Z" stroke="black" stroke-width="2" stroke-linecap="round" stroke-linejoin="round"/>
</svg>
