<svg width="29" height="29" viewBox="0 0 29 29" fill="none" xmlns="http://www.w3.org/2000/svg">
<path d="M6.55486 13.4574C6.47198 12.9233 6.42899 12.3762 6.42899 11.819C6.42899 5.92797 11.236 1.15234 17.1658 1.15234C23.0956 1.15234 27.9027 5.92797 27.9027 11.819C27.9027 13.1498 27.6574 14.4236 27.2092 15.5983C27.1162 15.8423 27.0696 15.9643 27.0485 16.0596C27.0276 16.1539 27.0195 16.2203 27.0172 16.3169C27.0149 16.4145 27.0281 16.5219 27.0546 16.7368L27.5914 21.097C27.6495 21.5691 27.6785 21.8051 27.6 21.9766C27.5312 22.127 27.409 22.2464 27.2572 22.3117C27.0838 22.3862 26.8485 22.3517 26.378 22.2828L22.131 21.6602C21.9092 21.6277 21.7983 21.6115 21.6974 21.612C21.5975 21.6126 21.5283 21.62 21.4306 21.6405C21.3317 21.6613 21.2055 21.7086 20.953 21.8032C19.7753 22.2443 18.4989 22.4857 17.1658 22.4857C16.6082 22.4857 16.0606 22.4435 15.5259 22.362M8.60447 27.819C12.5577 27.819 15.7624 24.5358 15.7624 20.4857C15.7624 16.4356 12.5577 13.1523 8.60447 13.1523C4.65128 13.1523 1.44658 16.4356 1.44658 20.4857C1.44658 21.2998 1.57607 22.0829 1.8151 22.8146C1.91614 23.124 1.96666 23.2786 1.98325 23.3843C2.00056 23.4946 2.00359 23.5565 1.99714 23.668C1.99097 23.7747 1.96425 23.8954 1.91083 24.1368L1.0957 27.819L5.08877 27.2737C5.30672 27.2439 5.4157 27.229 5.51086 27.2297C5.61106 27.2303 5.66424 27.2358 5.76251 27.2554C5.85584 27.274 5.99458 27.3229 6.27206 27.4209C7.00316 27.6789 7.78785 27.819 8.60447 27.819Z" stroke="black" stroke-width="2" stroke-linecap="round" stroke-linejoin="round"/>
</svg>
