<svg width="96" height="96" viewBox="0 0 96 96" fill="none" xmlns="http://www.w3.org/2000/svg">
<path d="M68 80H67.2C60.4794 80 57.1191 80 54.5521 78.6921C52.2942 77.5416 50.4584 75.7058 49.3079 73.4479C48 70.8809 48 67.5206 48 60.8V35.2C48 28.4794 48 25.1191 49.3079 22.5521C50.4584 20.2942 52.2942 18.4584 54.5521 17.3079C57.1191 16 60.4794 16 67.2 16H68M68 80C68 84.4183 71.5817 88 76 88C80.4183 88 84 84.4183 84 80C84 75.5817 80.4183 72 76 72C71.5817 72 68 75.5817 68 80ZM68 16C68 20.4183 71.5817 24 76 24C80.4183 24 84 20.4183 84 16C84 11.5817 80.4183 8 76 8C71.5817 8 68 11.5817 68 16ZM28 48L68 48M28 48C28 52.4183 24.4183 56 20 56C15.5817 56 12 52.4183 12 48C12 43.5817 15.5817 40 20 40C24.4183 40 28 43.5817 28 48ZM68 48C68 52.4183 71.5817 56 76 56C80.4183 56 84 52.4183 84 48C84 43.5817 80.4183 40 76 40C71.5817 40 68 43.5817 68 48Z" stroke="#FF958C" stroke-width="6" stroke-linecap="round" stroke-linejoin="round"/>
</svg>
