<svg width="96" height="96" viewBox="0 0 96 96" fill="none" xmlns="http://www.w3.org/2000/svg">
<path d="M24 84H36M60 84H72M70 26V58M12 24.8L12 59.2C12 63.6804 12 65.9206 12.8719 67.6319C13.6389 69.1372 14.8628 70.3611 16.3681 71.128C18.0794 72 20.3196 72 24.8 72L71.2 72C75.6804 72 77.9206 72 79.6319 71.128C81.1372 70.3611 82.3611 69.1372 83.1281 67.6319C84 65.9206 84 63.6804 84 59.2V24.8C84 20.3196 84 18.0794 83.1281 16.3681C82.3611 14.8628 81.1372 13.6389 79.6319 12.872C77.9206 12 75.6804 12 71.2 12L24.8 12C20.3196 12 18.0794 12 16.3681 12.8719C14.8628 13.6389 13.6389 14.8628 12.8719 16.3681C12 18.0794 12 20.3196 12 24.8ZM46 42C46 47.5228 41.5228 52 36 52C30.4772 52 26 47.5228 26 42C26 36.4772 30.4772 32 36 32C41.5228 32 46 36.4772 46 42Z" stroke="#FF958C" stroke-width="6" stroke-linecap="round" stroke-linejoin="round"/>
</svg>
