<svg width="96" height="96" viewBox="0 0 96 96" fill="none" xmlns="http://www.w3.org/2000/svg">
<path d="M20 36.0001V68.0001M38 36.0001V68.0001M58 36.0001V68.0001M76 36.0001V68.0001M12 74.4001L12 77.6001C12 79.8403 12 80.9604 12.436 81.816C12.8195 82.5687 13.4314 83.1806 14.184 83.5641C15.0397 84.0001 16.1598 84.0001 18.4 84.0001H77.6C79.8402 84.0001 80.9603 84.0001 81.816 83.5641C82.5686 83.1806 83.1805 82.5687 83.564 81.816C84 80.9604 84 79.8403 84 77.6001V74.4001C84 72.1599 84 71.0398 83.564 70.1841C83.1805 69.4315 82.5686 68.8195 81.816 68.4361C80.9603 68.0001 79.8402 68.0001 77.6 68.0001H18.4C16.1598 68.0001 15.0397 68.0001 14.184 68.4361C13.4314 68.8195 12.8195 69.4315 12.436 70.1841C12 71.0398 12 72.1599 12 74.4001ZM46.6116 12.3086L17.0116 18.8864C15.2234 19.2838 14.3293 19.4825 13.6619 19.9633C13.0732 20.3874 12.6109 20.9637 12.3246 21.6303C12 22.3862 12 23.3021 12 25.134L12 29.6001C12 31.8403 12 32.9604 12.436 33.816C12.8195 34.5687 13.4314 35.1806 14.184 35.5641C15.0397 36.0001 16.1598 36.0001 18.4 36.0001H77.6C79.8402 36.0001 80.9603 36.0001 81.816 35.5641C82.5686 35.1806 83.1805 34.5687 83.564 33.816C84 32.9604 84 31.8403 84 29.6001V25.134C84 23.3021 84 22.3862 83.6754 21.6303C83.3891 20.9637 82.9268 20.3874 82.3381 19.9633C81.6707 19.4825 80.7766 19.2838 78.9884 18.8864L49.3884 12.3086C48.8703 12.1935 48.6112 12.1359 48.3494 12.1129C48.1169 12.0926 47.8831 12.0926 47.6506 12.1129C47.3888 12.1359 47.1297 12.1935 46.6116 12.3086Z" stroke="#FF958C" stroke-width="6" stroke-linecap="round" stroke-linejoin="round"/>
</svg>
