<svg width="96" height="96" viewBox="0 0 96 96" fill="none" xmlns="http://www.w3.org/2000/svg">
<path d="M39 82.9998L44.8919 86.2731C46.0263 86.9034 46.5935 87.2185 47.1942 87.342C47.7258 87.4513 48.2742 87.4513 48.8058 87.342C49.4065 87.2185 49.9737 86.9034 51.1081 86.2731L57 82.9998M21 72.9998L15.2919 69.8287C14.0938 69.1631 13.4947 68.8303 13.0585 68.3569C12.6726 67.9382 12.3806 67.4418 12.2019 66.9011C12 66.2899 12 65.6046 12 64.2341V57.9998M12 37.9999V31.7656C12 30.3951 12 29.7098 12.2019 29.0986C12.3806 28.5579 12.6726 28.0616 13.0585 27.6428C13.4947 27.1694 14.0938 26.8366 15.2919 26.171L21 22.9999M39 12.9999L44.8919 9.72658C46.0263 9.09635 46.5935 8.78123 47.1942 8.65769C47.7258 8.54835 48.2742 8.54835 48.8058 8.65769C49.4065 8.78123 49.9737 9.09635 51.1081 9.72658L57 12.9998M75 22.9998L80.7081 26.171C81.9062 26.8366 82.5053 27.1694 82.9415 27.6428C83.3274 28.0615 83.6194 28.5579 83.7981 29.0986C84 29.7098 84 30.3951 84 31.7656V37.9998M84 57.9998V64.2341C84 65.6046 84 66.2899 83.7981 66.9011C83.6194 67.4418 83.3274 67.9382 82.9415 68.3569C82.5053 68.8303 81.9062 69.1631 80.7081 69.8287L75 72.9998M39 42.9998L48 47.9998M48 47.9998L57 42.9998M48 47.9998V57.9998M12 27.9998L21 32.9998M75 32.9998L84 27.9998M48 77.9998V87.9998" stroke="#FF958C" stroke-width="6" stroke-linecap="round" stroke-linejoin="round"/>
</svg>
