<svg width="96" height="96" viewBox="0 0 96 96" fill="none" xmlns="http://www.w3.org/2000/svg">
<path d="M24 24L42 42M24 24H12L8 12L12 8L24 12V24ZM77.0359 10.9641L66.5255 21.4745C64.9414 23.0586 64.1494 23.8506 63.8526 24.7639C63.5916 25.5673 63.5916 26.4327 63.8526 27.2361C64.1494 28.1494 64.9414 28.9414 66.5255 30.5255L67.4745 31.4745C69.0586 33.0586 69.8506 33.8506 70.7639 34.1474C71.5673 34.4084 72.4327 34.4084 73.2361 34.1474C74.1494 33.8506 74.9414 33.0586 76.5255 31.4745L86.3571 21.6429C87.4161 24.2195 88 27.0416 88 30C88 42.1503 78.1503 52 66 52C64.5352 52 63.1038 51.8568 61.719 51.5837C59.7745 51.2002 58.8022 51.0085 58.2127 51.0672C57.5861 51.1296 57.2773 51.2236 56.722 51.5207C56.1998 51.8002 55.6759 52.3241 54.6281 53.3719L26 81.9999C22.6863 85.3136 17.3137 85.3137 14 81.9999C10.6863 78.6862 10.6863 73.3136 14 69.9999L42.6281 41.3719C43.6759 40.3241 44.1998 39.8002 44.4793 39.278C44.7764 38.7227 44.8704 38.4139 44.9328 37.7872C44.9915 37.1978 44.7998 36.2255 44.4163 34.281C44.1432 32.8962 44 31.4648 44 30C44 17.8497 53.8497 8 66 8C70.022 8 73.7919 9.07929 77.0359 10.9641ZM48.0002 59.9998L70 81.9996C73.3137 85.3133 78.6863 85.3133 81.9999 81.9996C85.3137 78.6859 85.3136 73.3132 81.9999 69.9996L63.9013 51.9012C62.62 51.7799 61.3708 51.5488 60.1631 51.2173C58.6069 50.7902 56.8998 51.1002 55.7586 52.2414L48.0002 59.9998Z" stroke="#FF958C" stroke-width="6" stroke-linecap="round" stroke-linejoin="round"/>
</svg>
