<svg width="96" height="96" viewBox="0 0 96 96" fill="none" xmlns="http://www.w3.org/2000/svg">
<path d="M32.4003 84.8841C26.8408 76.9501 23.5703 67.2973 23.5703 56.8748C23.5703 43.3773 34.506 32.4375 47.9954 32.4375C61.4848 32.4375 72.4205 43.3773 72.4205 56.8748" stroke="#FF958C" stroke-width="6" stroke-linecap="round" stroke-linejoin="round"/>
<path d="M32.4003 84.8841C26.8408 76.9501 23.5703 67.2973 23.5703 56.8748C23.5703 43.3773 34.506 32.4375 47.9954 32.4375C61.4848 32.4375 72.4205 43.3773 72.4205 56.8748" stroke="#FF958C" stroke-width="6" stroke-linecap="round" stroke-linejoin="round"/>
<path d="M73.7445 81.2467C73.3047 81.2711 72.8729 81.3118 72.429 81.3118C58.9396 81.3118 48.0039 70.3721 48.0039 56.8745" stroke="#FF958C" stroke-width="6" stroke-linecap="round" stroke-linejoin="round"/>
<path d="M73.7445 81.2472C73.3047 81.2716 72.8729 81.3123 72.429 81.3123C58.9396 81.3123 48.0039 70.3725 48.0039 56.875" stroke="#FF958C" stroke-width="6" stroke-linecap="round" stroke-linejoin="round"/>
<path d="M53.0776 87.9997C42.6999 81.5279 35.7882 70.0098 35.7882 56.8747C35.7882 50.126 41.2581 44.6561 48.0028 44.6561C54.7475 44.6561 60.2174 50.126 60.2174 56.8747C60.2174 63.6235 65.6873 69.0934 72.432 69.0934C79.1767 69.0934 84.6466 63.6235 84.6466 56.8747C84.6466 36.6284 68.241 20.2188 48.0069 20.2188C27.7728 20.2188 11.3672 36.6284 11.3672 56.8747C11.3672 61.3875 11.8722 65.7821 12.8008 70.0179" stroke="#FF958C" stroke-width="6" stroke-linecap="round" stroke-linejoin="round"/>
<path d="M53.0776 87.9997C42.6999 81.5279 35.7882 70.0098 35.7882 56.8747C35.7882 50.126 41.2581 44.6561 48.0028 44.6561C54.7475 44.6561 60.2174 50.126 60.2174 56.8747C60.2174 63.6235 65.6873 69.0934 72.432 69.0934C79.1767 69.0934 84.6466 63.6235 84.6466 56.8747C84.6466 36.6284 68.241 20.2188 48.0069 20.2188C27.7728 20.2188 11.3672 36.6284 11.3672 56.8747C11.3672 61.3875 11.8722 65.7821 12.8008 70.0179" stroke="#FF958C" stroke-width="6" stroke-linecap="round" stroke-linejoin="round"/>
<path d="M82.103 23.4525C73.7739 13.9912 61.596 8 48.0007 8C34.4054 8 22.2275 13.9912 13.8984 23.4525" stroke="#FF958C" stroke-width="6" stroke-linecap="round" stroke-linejoin="round"/>
<path d="M82.103 23.4525C73.7739 13.9912 61.596 8 48.0007 8C34.4054 8 22.2275 13.9912 13.8984 23.4525" stroke="#FF958C" stroke-width="6" stroke-linecap="round" stroke-linejoin="round"/>
</svg>
