<svg width="96" height="96" viewBox="0 0 96 96" fill="none" xmlns="http://www.w3.org/2000/svg">
<path d="M48 9.99997V86M80 48C80 67.6337 58.5842 81.9136 50.792 86.4595C49.9064 86.9761 49.4636 87.2344 48.8387 87.3684C48.3538 87.4724 47.6462 87.4724 47.1613 87.3684C46.5364 87.2344 46.0936 86.9761 45.208 86.4595C37.4158 81.9136 16 67.6337 16 48V28.8704C16 25.6723 16 24.0733 16.523 22.6988C16.9851 21.4845 17.7359 20.4011 18.7106 19.5421C19.814 18.5697 21.3112 18.0083 24.3056 16.8854L45.7528 8.84267C46.5844 8.53082 47.0002 8.3749 47.4279 8.31309C47.8073 8.25827 48.1927 8.25827 48.5721 8.31309C48.9998 8.3749 49.4156 8.53082 50.2472 8.84267L71.6944 16.8854C74.6888 18.0083 76.186 18.5697 77.2894 19.5421C78.2641 20.4011 79.0149 21.4845 79.477 22.6988C80 24.0733 80 25.6723 80 28.8704V48Z" stroke="#FF958C" stroke-width="6" stroke-linecap="round" stroke-linejoin="round"/>
</svg>
