<svg width="96" height="96" viewBox="0 0 96 96" fill="none" xmlns="http://www.w3.org/2000/svg">
<path d="M12 36H84M36 36L36 84M31.2 12H64.8C71.5206 12 74.8809 12 77.4479 13.3079C79.7058 14.4584 81.5416 16.2942 82.6921 18.5521C84 21.1191 84 24.4794 84 31.2V64.8C84 71.5206 84 74.8809 82.6921 77.4479C81.5416 79.7058 79.7058 81.5416 77.4479 82.6921C74.8809 84 71.5206 84 64.8 84H31.2C24.4794 84 21.1191 84 18.5521 82.6921C16.2942 81.5416 14.4584 79.7058 13.3079 77.4479C12 74.8809 12 71.5206 12 64.8V31.2C12 24.4794 12 21.1191 13.3079 18.5521C14.4584 16.2942 16.2942 14.4584 18.5521 13.3079C21.1191 12 24.4794 12 31.2 12Z" stroke="#FF958C" stroke-width="6" stroke-linecap="round" stroke-linejoin="round"/>
</svg>
