<svg width="64" height="64" viewBox="0 0 64 64" fill="none" xmlns="http://www.w3.org/2000/svg">
<rect width="64" height="64" rx="32" fill="#FF958C"/>
<path d="M18.667 25.3335L29.5536 32.9541C30.4351 33.5712 30.8759 33.8797 31.3553 33.9992C31.7789 34.1048 32.2218 34.1048 32.6453 33.9992C33.1248 33.8797 33.5655 33.5712 34.4471 32.9541L45.3337 25.3335M25.067 42.6668H38.9337C41.1739 42.6668 42.294 42.6668 43.1496 42.2309C43.9023 41.8474 44.5142 41.2354 44.8977 40.4828C45.3337 39.6271 45.3337 38.507 45.3337 36.2668V27.7335C45.3337 25.4933 45.3337 24.3732 44.8977 23.5175C44.5142 22.7649 43.9023 22.153 43.1496 21.7695C42.294 21.3335 41.1739 21.3335 38.9337 21.3335H25.067C22.8268 21.3335 21.7067 21.3335 20.851 21.7695C20.0984 22.153 19.4865 22.7649 19.103 23.5175C18.667 24.3732 18.667 25.4933 18.667 27.7335V36.2668C18.667 38.507 18.667 39.6271 19.103 40.4828C19.4865 41.2354 20.0984 41.8474 20.851 42.2309C21.7067 42.6668 22.8268 42.6668 25.067 42.6668Z" stroke="white" stroke-width="3" stroke-linecap="round" stroke-linejoin="round"/>
</svg>
