<svg width="96" height="96" viewBox="0 0 96 96" fill="none" xmlns="http://www.w3.org/2000/svg">
<path d="M50 8H60.8C67.5206 8 70.8809 8 73.4479 9.30792C75.7058 10.4584 77.5416 12.2942 78.6921 14.5521C80 17.1191 80 20.4794 80 27.2V68.8C80 75.5206 80 78.8809 78.6921 81.4479C77.5416 83.7058 75.7058 85.5416 73.4479 86.6921C70.8809 88 67.5206 88 60.8 88H35.2C28.4794 88 25.1191 88 22.5521 86.6921C20.2942 85.5416 18.4584 83.7058 17.3079 81.4479C16 78.8809 16 75.5206 16 68.8V66M64 52H46M64 36H50M64 68H32M24 40V18C24 14.6863 26.6863 12 30 12C33.3137 12 36 14.6863 36 18V40C36 46.6274 30.6274 52 24 52C17.3726 52 12 46.6274 12 40V24" stroke="#FF958C" stroke-width="6" stroke-linecap="round" stroke-linejoin="round"/>
</svg>
