<svg width="38" height="38" viewBox="0 0 38 38" fill="none" xmlns="http://www.w3.org/2000/svg">
<path fill-rule="evenodd" clip-rule="evenodd" d="M19.167 0.5C29.3843 0.5 37.667 8.83334 37.667 19.1131C37.667 28.4032 30.9018 36.1037 22.0576 37.5V24.4934H26.3683L27.1885 19.1131H26.9668L27.0038 18.8715H22.0576V15.6231C22.0576 14.1497 22.7745 12.7148 25.0725 12.7148H27.4053V8.13426C27.4053 8.13426 27.3391 8.12291 27.2191 8.10422V8.0352C27.2191 8.0352 25.1168 7.67638 23.1067 7.67638C18.9103 7.67638 16.1675 10.2197 16.1675 14.8241V18.8715H11.5028V24.182H11.5791V24.4934H16.1675V37.0199C16.2038 37.0255 16.2401 37.0311 16.2764 37.0366V37.5C7.43214 36.1037 0.666992 28.4032 0.666992 19.1131C0.666992 8.83334 8.94972 0.5 19.167 0.5Z" fill="#310A31"/>
</svg>
