<svg width="375" height="2637" viewBox="0 0 375 2637" fill="none" xmlns="http://www.w3.org/2000/svg">
<path d="M13.4515 2572.4C10.2938 2572.4 7.26645 2574.18 5.80885 2577.21C2.99795 2583.07 0.911939 2589.27 -0.383996 2595.63C-1.45308 2600.88 -1.99805 2606.28 -1.99805 2611.67C-1.99805 2639.05 11.7905 2664.19 34.8826 2678.91C41.4405 2683.09 48.5512 2686.28 56.0165 2688.38C60.5301 2689.64 65.195 2687.01 66.4648 2682.5C67.7295 2677.99 65.0985 2673.3 60.5953 2672.04C54.731 2670.39 49.1379 2667.89 43.9829 2664.6C25.8007 2653.01 14.9482 2633.22 14.9482 2611.67C14.9482 2607.42 15.3784 2603.16 16.2207 2599.02C17.2402 2594.03 18.8777 2589.16 21.0837 2584.56C23.1097 2580.34 21.334 2575.27 17.115 2573.24C15.9338 2572.67 14.6822 2572.4 13.4515 2572.4V2572.4Z" fill="#F6E27F"/>
<path d="M75.8466 2537.29C92.5613 2535.83 104.926 2521.09 103.465 2504.38C102.004 2487.66 87.2666 2475.3 70.5519 2476.76C53.8372 2478.22 41.4723 2492.96 42.9336 2509.67C44.3949 2526.39 59.1319 2538.75 75.8466 2537.29Z" fill="#02C39A"/>
<path d="M54.5909 2609.78C43.4864 2601.64 27.8942 2604.06 19.7642 2615.16C11.6315 2626.26 14.0423 2641.85 25.1442 2649.98C36.2487 2658.12 51.8409 2655.71 59.971 2644.6C68.1037 2633.5 65.6928 2617.91 54.5909 2609.78Z" fill="#F6E27F"/>
<path d="M89.4949 2467.94C53.1897 2458.21 14.6515 2475.52 -2.13569 2509.09C-4.22436 2513.27 -2.53357 2518.35 1.65239 2520.45C5.83382 2522.55 10.9209 2520.84 13.0103 2516.66C26.2148 2490.25 56.5386 2476.63 85.1162 2484.29C106.515 2490.02 122.943 2506.18 129.071 2527.5C130.356 2531.99 135.047 2534.59 139.54 2533.3C144.034 2532.01 146.631 2527.32 145.341 2522.82C137.675 2496.14 116.278 2475.11 89.4949 2467.94Z" fill="#02C39A"/>
<path d="M141.09 2584.94C135.076 2600.61 142.901 2618.18 158.565 2624.19C174.228 2630.21 191.802 2622.38 197.816 2606.72C203.83 2591.05 196.005 2573.48 180.341 2567.47C164.677 2561.45 147.103 2569.28 141.09 2584.94Z" fill="#9B7ED4"/>
<path d="M194.548 2631.8C223.758 2608.15 232.409 2566.8 215.115 2533.48C212.96 2529.33 207.853 2527.71 203.7 2529.87C199.544 2532.02 197.932 2537.14 200.089 2541.29C213.695 2567.49 206.886 2600.03 183.893 2618.65C166.677 2632.59 143.953 2636.39 123.099 2628.81C118.714 2627.21 113.853 2629.48 112.254 2633.87C110.657 2638.26 112.924 2643.12 117.318 2644.72C143.409 2654.2 172.999 2649.25 194.548 2631.8Z" fill="#9B7ED4"/>
<path d="M187.975 2386.15C184.817 2386.15 181.79 2387.92 180.332 2390.96C177.521 2396.82 175.435 2403.01 174.139 2409.37C173.07 2414.63 172.525 2420.03 172.525 2425.42C172.525 2452.8 186.314 2477.94 209.406 2492.66C215.964 2496.84 223.075 2500.02 230.54 2502.12C235.054 2503.39 239.718 2500.76 240.988 2496.25C242.253 2491.73 239.622 2487.05 235.119 2485.78C229.254 2484.13 223.661 2481.63 218.506 2478.35C200.324 2466.76 189.472 2446.97 189.472 2425.42C189.472 2421.16 189.902 2416.91 190.744 2412.77C191.764 2407.78 193.401 2402.91 195.607 2398.31C197.633 2394.08 195.857 2389.01 191.638 2386.98C190.457 2386.41 189.206 2386.15 187.975 2386.15V2386.15Z" fill="#F6E27F"/>
<path d="M250.37 2351.04C267.085 2349.58 279.45 2334.84 277.988 2318.12C276.527 2301.41 261.79 2289.04 245.075 2290.51C228.361 2291.97 215.996 2306.7 217.457 2323.42C218.918 2340.13 233.655 2352.5 250.37 2351.04Z" fill="#02C39A"/>
<path d="M229.114 2423.52C218.01 2415.39 202.418 2417.8 194.288 2428.9C186.155 2440.01 188.566 2455.6 199.668 2463.73C210.772 2471.86 226.364 2469.45 234.494 2458.35C242.627 2447.25 240.216 2431.65 229.114 2423.52Z" fill="#F6E27F"/>
<path d="M264.018 2281.68C227.713 2271.96 189.175 2289.26 172.388 2322.84C170.299 2327.02 171.99 2332.1 176.176 2334.19C180.357 2336.29 185.444 2334.59 187.534 2330.41C200.738 2303.99 231.062 2290.38 259.64 2298.04C281.038 2303.77 297.466 2319.92 303.595 2341.25C304.879 2345.73 309.571 2348.33 314.064 2347.05C318.558 2345.75 321.155 2341.06 319.864 2336.57C312.199 2309.89 290.802 2288.86 264.018 2281.68Z" fill="#02C39A"/>
<path d="M315.617 2398.69C309.603 2414.35 317.428 2431.92 333.092 2437.94C348.756 2443.95 366.329 2436.13 372.343 2420.46C378.357 2404.8 370.532 2387.23 354.868 2381.21C339.205 2375.2 321.631 2383.02 315.617 2398.69Z" fill="#9B7ED4"/>
<path d="M369.076 2445.55C398.285 2421.89 406.936 2380.54 389.643 2347.23C387.487 2343.08 382.381 2341.46 378.227 2343.62C374.071 2345.76 372.459 2350.88 374.616 2355.03C388.222 2381.24 381.413 2413.77 358.421 2432.39C341.204 2446.33 318.48 2450.13 297.626 2442.55C293.241 2440.96 288.38 2443.22 286.781 2447.61C285.184 2452.01 287.452 2456.87 291.846 2458.46C317.936 2467.94 347.527 2463 369.076 2445.55Z" fill="#9B7ED4"/>
<path d="M367.869 2199.9C364.712 2199.9 361.684 2201.67 360.227 2204.71C357.416 2210.56 355.33 2216.76 354.034 2223.12C352.965 2228.37 352.42 2233.77 352.42 2239.16C352.42 2266.55 366.208 2291.68 389.301 2306.41C395.859 2310.59 402.969 2313.77 410.435 2315.87C414.948 2317.14 419.613 2314.5 420.883 2309.99C422.147 2305.48 419.516 2300.8 415.013 2299.53C409.149 2297.88 403.556 2295.38 398.401 2292.09C380.219 2280.5 369.366 2260.72 369.366 2239.16C369.366 2234.91 369.796 2230.66 370.639 2226.52C371.658 2221.52 373.296 2216.65 375.502 2212.05C377.528 2207.83 375.752 2202.76 371.533 2200.73C370.352 2200.16 369.1 2199.89 367.869 2199.89V2199.9Z" fill="#F6E27F"/>
<path d="M409.009 2237.27C397.904 2229.14 382.312 2231.55 374.182 2242.65C366.049 2253.76 368.46 2269.35 379.562 2277.48C390.667 2285.61 406.259 2283.2 414.389 2272.1C422.522 2260.99 420.111 2245.4 409.009 2237.27Z" fill="#F6E27F"/>
<path d="M443.913 2095.43C407.608 2085.7 369.069 2103.01 352.282 2136.58C350.194 2140.76 351.884 2145.85 356.07 2147.94C360.252 2150.04 365.339 2148.34 367.428 2144.15C380.633 2117.74 410.957 2104.12 439.534 2111.78C460.933 2117.52 477.361 2133.67 483.489 2154.99C484.774 2159.48 489.465 2162.08 493.958 2160.79C498.452 2159.5 501.049 2154.81 499.759 2150.32C492.093 2123.64 470.696 2102.61 443.913 2095.43Z" fill="#02C39A"/>
<path d="M313.119 2631.55C309.962 2631.55 306.934 2633.32 305.477 2636.36C302.666 2642.22 300.58 2648.42 299.284 2654.77C298.215 2660.03 297.67 2665.43 297.67 2670.82C297.67 2698.2 311.458 2723.34 334.551 2738.06C341.109 2742.24 348.219 2745.42 355.685 2747.52C360.198 2748.79 364.863 2746.16 366.133 2741.65C367.397 2737.13 364.766 2732.45 360.263 2731.18C354.399 2729.54 348.806 2727.03 343.651 2723.75C325.469 2712.16 314.616 2692.37 314.616 2670.82C314.616 2666.56 315.046 2662.31 315.889 2658.17C316.908 2653.18 318.546 2648.31 320.752 2643.71C322.778 2639.48 321.002 2634.41 316.783 2632.39C315.602 2631.81 314.35 2631.55 313.119 2631.55V2631.55Z" fill="#F6E27F"/>
<path d="M375.519 2596.44C392.233 2594.98 404.598 2580.24 403.137 2563.53C401.676 2546.81 386.938 2534.45 370.224 2535.91C353.509 2537.37 341.144 2552.11 342.605 2568.82C344.067 2585.54 358.804 2597.9 375.519 2596.44Z" fill="#02C39A"/>
<path d="M389.163 2527.09C352.858 2517.36 314.319 2534.67 297.532 2568.24C295.444 2572.42 297.134 2577.5 301.32 2579.6C305.502 2581.69 310.589 2579.99 312.678 2575.81C325.883 2549.4 356.207 2535.78 384.784 2543.44C406.183 2549.17 422.611 2565.32 428.739 2586.65C430.024 2591.14 434.715 2593.74 439.208 2592.45C443.702 2591.16 446.299 2586.47 445.009 2581.97C437.343 2555.29 415.946 2534.26 389.163 2527.09Z" fill="#02C39A"/>
<path d="M-46.4596 2139.52C-17.2499 2115.87 -8.59918 2074.52 -25.8924 2041.2C-28.0477 2037.06 -33.1544 2035.44 -37.3077 2037.59C-41.464 2039.74 -43.076 2044.86 -40.9191 2049.01C-27.313 2075.21 -34.1221 2107.75 -57.1146 2126.37C-74.3311 2140.31 -97.0548 2144.11 -117.909 2136.53C-122.294 2134.93 -127.155 2137.2 -128.754 2141.59C-130.351 2145.99 -128.083 2150.84 -123.689 2152.44C-97.5991 2161.92 -68.0086 2156.97 -46.4596 2139.52Z" fill="#9B7ED4"/>
<path d="M-47.6501 1893.87C-50.8078 1893.87 -53.8351 1895.65 -55.2927 1898.69C-58.1036 1904.54 -60.1896 1910.74 -61.4856 1917.1C-62.5546 1922.35 -63.0996 1927.75 -63.0996 1933.14C-63.0996 1960.52 -49.3111 1985.66 -26.2189 2000.39C-19.661 2004.57 -12.5503 2007.75 -5.08502 2009.85C-0.571415 2011.11 4.09342 2008.48 5.36328 2003.97C6.62793 1999.46 3.99695 1994.77 -0.506229 1993.51C-6.37053 1991.86 -11.9636 1989.36 -17.1187 1986.07C-35.3009 1974.48 -46.1534 1954.69 -46.1534 1933.14C-46.1534 1928.89 -45.7231 1924.63 -44.8809 1920.5C-43.8614 1915.5 -42.2239 1910.63 -40.0179 1906.03C-37.9919 1901.81 -39.7676 1896.74 -43.9865 1894.71C-45.1677 1894.14 -46.4193 1893.87 -47.6501 1893.87V1893.87Z" fill="#F6E27F"/>
<path d="M14.7451 1858.76C31.4597 1857.3 43.8247 1842.56 42.3634 1825.85C40.9021 1809.13 26.165 1796.77 9.45034 1798.23C-7.26434 1799.69 -19.6293 1814.43 -18.168 1831.14C-16.7067 1847.86 -1.96962 1860.22 14.7451 1858.76Z" fill="#02C39A"/>
<path d="M-6.51453 1931.25C-17.619 1923.12 -33.2112 1925.53 -41.3413 1936.63C-49.474 1947.74 -47.0632 1963.33 -35.9613 1971.46C-24.8568 1979.59 -9.26456 1977.18 -1.13448 1966.08C6.9982 1954.97 4.58736 1939.38 -6.51453 1931.25Z" fill="#F6E27F"/>
<path d="M28.3934 1789.41C-7.91185 1779.68 -46.4501 1796.99 -63.2372 1830.56C-65.3259 1834.74 -63.6351 1839.83 -59.4492 1841.92C-55.2677 1844.02 -50.1806 1842.31 -48.0913 1838.13C-34.8868 1811.72 -4.56298 1798.1 24.0147 1805.76C45.4133 1811.49 61.8411 1827.65 67.9696 1848.97C69.254 1853.46 73.9458 1856.06 78.4389 1854.77C82.9326 1853.48 85.5297 1848.79 84.2391 1844.3C76.5735 1817.62 55.1769 1796.59 28.3934 1789.41Z" fill="#02C39A"/>
<path d="M79.9881 1906.41C73.9743 1922.07 81.7994 1939.65 97.4631 1945.66C113.127 1951.68 130.701 1943.85 136.714 1928.19C142.728 1912.52 134.903 1894.95 119.239 1888.94C103.576 1882.92 86.0019 1890.75 79.9881 1906.41Z" fill="#9B7ED4"/>
<path d="M133.447 1953.27C162.656 1929.62 171.307 1888.27 154.014 1854.95C151.859 1850.8 146.752 1849.18 142.599 1851.34C138.442 1853.49 136.83 1858.61 138.987 1862.76C152.593 1888.96 145.784 1921.5 122.792 1940.12C105.575 1954.06 82.8515 1957.85 61.9973 1950.28C57.6126 1948.68 52.7512 1950.95 51.1523 1955.34C49.555 1959.73 51.8228 1964.59 56.2169 1966.19C82.3071 1975.67 111.898 1970.72 133.447 1953.27Z" fill="#9B7ED4"/>
<path d="M132.244 1707.62C129.087 1707.62 126.059 1709.39 124.602 1712.43C121.791 1718.29 119.705 1724.49 118.409 1730.84C117.34 1736.1 116.795 1741.5 116.795 1746.89C116.795 1774.27 130.583 1799.41 153.676 1814.13C160.234 1818.31 167.344 1821.49 174.81 1823.59C179.323 1824.86 183.988 1822.23 185.258 1817.72C186.522 1813.2 183.891 1808.52 179.388 1807.25C173.524 1805.61 167.931 1803.1 162.776 1799.82C144.594 1788.23 133.741 1768.44 133.741 1746.89C133.741 1742.63 134.171 1738.38 135.014 1734.24C136.033 1729.25 137.671 1724.38 139.877 1719.78C141.903 1715.55 140.127 1710.48 135.908 1708.46C134.727 1707.88 133.475 1707.62 132.244 1707.62V1707.62Z" fill="#F6E27F"/>
<path d="M194.644 1672.51C211.358 1671.04 223.723 1656.31 222.262 1639.59C220.801 1622.88 206.063 1610.51 189.349 1611.97C172.634 1613.44 160.269 1628.17 161.73 1644.89C163.192 1661.6 177.929 1673.97 194.644 1672.51Z" fill="#02C39A"/>
<path d="M173.388 1745C162.283 1736.86 146.691 1739.27 138.561 1750.38C130.428 1761.48 132.839 1777.07 143.941 1785.2C155.046 1793.34 170.638 1790.93 178.768 1779.82C186.901 1768.72 184.49 1753.13 173.388 1745Z" fill="#F6E27F"/>
<path d="M208.292 1603.15C171.987 1593.43 133.448 1610.73 116.661 1644.31C114.573 1648.49 116.263 1653.57 120.449 1655.66C124.631 1657.76 129.718 1656.06 131.807 1651.88C145.012 1625.46 175.335 1611.85 203.913 1619.51C225.312 1625.24 241.74 1641.39 247.868 1662.72C249.152 1667.2 253.844 1669.8 258.337 1668.52C262.831 1667.23 265.428 1662.54 264.138 1658.04C256.472 1631.36 235.075 1610.33 208.292 1603.15Z" fill="#02C39A"/>
<path d="M259.887 1720.16C253.873 1735.82 261.698 1753.4 277.362 1759.41C293.025 1765.42 310.599 1757.6 316.613 1741.94C322.627 1726.27 314.801 1708.7 299.138 1702.68C283.474 1696.67 265.9 1704.5 259.887 1720.16Z" fill="#9B7ED4"/>
<path d="M313.345 1767.02C342.555 1743.36 351.206 1702.01 333.912 1668.7C331.757 1664.55 326.65 1662.93 322.497 1665.09C318.341 1667.24 316.729 1672.35 318.886 1676.5C332.492 1702.71 325.683 1735.24 302.69 1753.86C285.474 1767.8 262.75 1771.6 241.896 1764.02C237.511 1762.43 232.65 1764.69 231.051 1769.09C229.453 1773.48 231.721 1778.34 236.115 1779.93C262.206 1789.42 291.796 1784.47 313.345 1767.02Z" fill="#9B7ED4"/>
<path d="M312.143 1521.37C308.985 1521.37 305.958 1523.14 304.5 1526.18C301.689 1532.04 299.603 1538.23 298.307 1544.59C297.238 1549.84 296.693 1555.24 296.693 1560.63C296.693 1588.02 310.482 1613.16 333.574 1627.88C340.132 1632.06 347.243 1635.24 354.708 1637.34C359.222 1638.61 363.886 1635.97 365.156 1631.46C366.421 1626.95 363.79 1622.27 359.287 1621C353.422 1619.35 347.829 1616.85 342.674 1613.56C324.492 1601.97 313.64 1582.19 313.64 1560.63C313.64 1556.38 314.07 1552.13 314.912 1547.99C315.932 1542.99 317.569 1538.12 319.775 1533.52C321.801 1529.3 320.025 1524.23 315.806 1522.2C314.625 1521.63 313.374 1521.36 312.143 1521.36V1521.37Z" fill="#F6E27F"/>
<path d="M374.538 1486.25C391.253 1484.79 403.618 1470.05 402.156 1453.34C400.695 1436.62 385.958 1424.26 369.243 1425.72C352.529 1427.18 340.164 1441.92 341.625 1458.63C343.086 1475.35 357.823 1487.71 374.538 1486.25Z" fill="#02C39A"/>
<path d="M353.282 1558.74C342.178 1550.61 326.586 1553.02 318.456 1564.12C310.323 1575.23 312.734 1590.82 323.836 1598.95C334.94 1607.08 350.532 1604.67 358.662 1593.57C366.795 1582.46 364.384 1566.87 353.282 1558.74Z" fill="#F6E27F"/>
<path d="M388.186 1416.9C351.881 1407.17 313.343 1424.48 296.556 1458.05C294.467 1462.23 296.158 1467.32 300.344 1469.41C304.525 1471.51 309.612 1469.81 311.702 1465.62C324.906 1439.21 355.23 1425.6 383.808 1433.25C405.206 1438.99 421.634 1455.14 427.763 1476.46C429.047 1480.95 433.739 1483.55 438.232 1482.26C442.726 1480.97 445.323 1476.28 444.032 1471.79C436.366 1445.11 414.97 1424.08 388.186 1416.9Z" fill="#02C39A"/>
<path d="M-59.6066 2229.86C-95.9118 2220.14 -134.45 2237.44 -151.237 2271.01C-153.326 2275.2 -151.635 2280.28 -147.449 2282.37C-143.268 2284.47 -138.181 2282.77 -136.091 2278.58C-122.887 2252.17 -92.563 2238.56 -63.9853 2246.22C-42.5867 2251.95 -26.1589 2268.1 -20.0304 2289.43C-18.746 2293.91 -14.0542 2296.51 -9.56114 2295.23C-5.0674 2293.93 -2.47034 2289.24 -3.76094 2284.75C-11.4265 2258.07 -32.8231 2237.04 -59.6066 2229.86Z" fill="#02C39A"/>
<path d="M-8.01188 2346.86C-14.0257 2362.53 -6.20055 2380.1 9.46309 2386.12C25.1267 2392.13 42.7006 2384.3 48.7144 2368.64C54.7282 2352.98 46.903 2335.4 31.2394 2329.39C15.5758 2323.38 -1.99806 2331.2 -8.01188 2346.86Z" fill="#9B7ED4"/>
<path d="M45.4466 2393.72C74.6564 2370.07 83.3071 2328.72 66.0138 2295.4C63.8585 2291.26 58.7519 2289.64 54.5985 2291.79C50.4423 2293.94 48.8302 2299.06 50.9871 2303.21C64.5932 2329.42 57.7841 2361.95 34.7917 2380.57C17.5751 2394.51 -5.14851 2398.31 -26.0027 2390.73C-30.3874 2389.13 -35.2488 2391.4 -36.8477 2395.79C-38.445 2400.19 -36.1772 2405.04 -31.7831 2406.64C-5.69287 2416.12 23.8977 2411.17 45.4466 2393.72Z" fill="#9B7ED4"/>
<path d="M44.2484 2148.07C41.0907 2148.07 38.0633 2149.85 36.6057 2152.89C33.7948 2158.74 31.7088 2164.94 30.4129 2171.3C29.3438 2176.55 28.7988 2181.95 28.7988 2187.34C28.7988 2214.73 42.5874 2239.86 65.6795 2254.59C72.2374 2258.77 79.3481 2261.95 86.8134 2264.05C91.327 2265.32 95.9919 2262.68 97.2617 2258.17C98.5264 2253.66 95.8954 2248.97 91.3922 2247.71C85.5279 2246.06 79.9348 2243.56 74.7797 2240.27C56.5975 2228.68 45.7451 2208.9 45.7451 2187.34C45.7451 2183.09 46.1753 2178.83 47.0175 2174.7C48.0371 2169.7 49.6746 2164.83 51.8805 2160.23C53.9066 2156.01 52.1309 2150.94 47.9119 2148.91C46.7307 2148.34 45.4791 2148.07 44.2484 2148.07V2148.07Z" fill="#F6E27F"/>
<path d="M106.644 2112.96C123.358 2111.5 135.723 2096.76 134.262 2080.05C132.801 2063.33 118.063 2050.97 101.349 2052.43C84.6341 2053.89 72.2692 2068.63 73.7305 2085.34C75.1918 2102.06 89.9288 2114.42 106.644 2112.96Z" fill="#02C39A"/>
<path d="M85.3878 2185.45C74.2833 2177.32 58.6911 2179.73 50.561 2190.83C42.4283 2201.93 44.8392 2217.53 55.9411 2225.66C67.0456 2233.79 82.6378 2231.38 90.7679 2220.28C98.9005 2209.17 96.4897 2193.58 85.3878 2185.45Z" fill="#F6E27F"/>
<path d="M120.296 2043.61C83.9905 2033.88 45.4523 2051.19 28.6651 2084.76C26.5764 2088.94 28.2672 2094.03 32.4532 2096.12C36.6346 2098.22 41.7217 2096.51 43.8111 2092.33C57.0155 2065.92 87.3394 2052.3 115.917 2059.96C137.316 2065.7 153.743 2081.85 159.872 2103.17C161.156 2107.66 165.848 2110.26 170.341 2108.97C174.835 2107.68 177.432 2102.99 176.141 2098.5C168.476 2071.82 147.079 2050.79 120.296 2043.61Z" fill="#02C39A"/>
<path d="M171.894 2160.61C165.881 2176.28 173.706 2193.85 189.369 2199.86C205.033 2205.88 222.607 2198.05 228.621 2182.39C234.634 2166.72 226.809 2149.15 211.146 2143.14C195.482 2137.12 177.908 2144.95 171.894 2160.61Z" fill="#9B7ED4"/>
<path d="M225.353 2207.47C254.563 2183.82 263.213 2142.47 245.92 2109.15C243.765 2105 238.658 2103.38 234.505 2105.54C230.349 2107.69 228.736 2112.81 230.893 2116.95C244.499 2143.16 237.69 2175.7 214.698 2194.32C197.481 2208.26 174.758 2212.05 153.904 2204.48C149.519 2202.88 144.657 2205.15 143.059 2209.54C141.461 2213.93 143.729 2218.79 148.123 2220.39C174.213 2229.87 203.804 2224.92 225.353 2207.47Z" fill="#9B7ED4"/>
<path d="M224.147 1961.82C220.989 1961.82 217.962 1963.6 216.504 1966.64C213.693 1972.49 211.607 1978.69 210.311 1985.05C209.242 1990.3 208.697 1995.7 208.697 2001.09C208.697 2028.47 222.486 2053.61 245.578 2068.33C252.136 2072.51 259.247 2075.7 266.712 2077.8C271.225 2079.06 275.89 2076.43 277.16 2071.92C278.425 2067.41 275.794 2062.72 271.291 2061.46C265.426 2059.81 259.833 2057.31 254.678 2054.02C236.496 2042.43 225.643 2022.64 225.643 2001.09C225.643 1996.84 226.074 1992.58 226.916 1988.44C227.936 1983.45 229.573 1978.58 231.779 1973.98C233.805 1969.76 232.029 1964.69 227.81 1962.66C226.629 1962.09 225.378 1961.82 224.147 1961.82V1961.82Z" fill="#F6E27F"/>
<path d="M286.542 1926.71C303.257 1925.25 315.622 1910.51 314.16 1893.8C312.699 1877.08 297.962 1864.72 281.247 1866.18C264.533 1867.64 252.168 1882.38 253.629 1899.09C255.09 1915.81 269.827 1928.17 286.542 1926.71Z" fill="#02C39A"/>
<path d="M265.286 1999.2C254.182 1991.07 238.59 1993.48 230.459 2004.58C222.327 2015.68 224.738 2031.28 235.84 2039.41C246.944 2047.54 262.536 2045.13 270.666 2034.03C278.799 2022.92 276.388 2007.33 265.286 1999.2Z" fill="#F6E27F"/>
<path d="M300.19 1857.36C263.885 1847.63 225.347 1864.94 208.56 1898.51C206.471 1902.69 208.162 1907.77 212.348 1909.87C216.529 1911.97 221.616 1910.26 223.706 1906.08C236.91 1879.67 267.234 1866.05 295.812 1873.71C317.21 1879.44 333.638 1895.6 339.766 1916.92C341.051 1921.41 345.743 1924.01 350.236 1922.72C354.729 1921.43 357.327 1916.74 356.036 1912.24C348.37 1885.56 326.974 1864.53 300.19 1857.36Z" fill="#02C39A"/>
<path d="M351.785 1974.36C345.771 1990.02 353.596 2007.6 369.26 2013.61C384.924 2019.63 402.497 2011.8 408.511 1996.14C414.525 1980.47 406.7 1962.9 391.036 1956.89C375.373 1950.87 357.799 1958.7 351.785 1974.36Z" fill="#9B7ED4"/>
<path d="M405.244 2021.22C434.453 1997.57 443.104 1956.22 425.811 1922.9C423.655 1918.75 418.549 1917.13 414.395 1919.29C410.239 1921.44 408.627 1926.56 410.784 1930.7C424.39 1956.91 417.581 1989.45 394.589 2008.07C377.372 2022.01 354.648 2025.8 333.794 2018.23C329.409 2016.63 324.548 2018.9 322.949 2023.29C321.352 2027.68 323.62 2032.54 328.014 2034.14C354.104 2043.62 383.695 2038.67 405.244 2021.22Z" fill="#9B7ED4"/>
<path d="M-42.9385 465.275C-26.2238 463.814 -13.8589 449.077 -15.3202 432.362C-16.7815 415.647 -31.5186 403.282 -48.2333 404.744C-64.9479 406.205 -77.3129 420.942 -75.8516 437.657C-74.3903 454.371 -59.6532 466.736 -42.9385 465.275Z" fill="#02C39A"/>
<path d="M-29.2902 395.924C-65.5954 386.196 -104.134 403.503 -120.921 437.075C-123.01 441.257 -121.319 446.341 -117.133 448.433C-112.951 450.533 -107.864 448.829 -105.775 444.645C-92.5704 418.234 -62.2466 404.619 -33.6689 412.276C-12.2703 418.01 4.15753 434.162 10.286 455.487C11.5704 459.973 16.2622 462.574 20.7553 461.286C25.249 459.995 27.8461 455.305 26.5555 450.811C18.8899 424.131 -2.50669 403.101 -29.2902 395.924Z" fill="#02C39A"/>
<path d="M22.3045 512.929C16.2907 528.592 24.1159 546.166 39.7795 552.18C55.4431 558.194 73.017 550.369 79.0308 534.705C85.0446 519.041 77.2195 501.467 61.5558 495.454C45.8922 489.44 28.3183 497.265 22.3045 512.929Z" fill="#9B7ED4"/>
<path d="M75.7591 559.786C104.969 536.132 113.62 494.782 96.3263 461.467C94.171 457.32 89.0644 455.699 84.911 457.856C80.7548 460.005 79.1427 465.121 81.2996 469.271C94.9057 495.478 88.0966 528.013 65.1042 546.632C47.8876 560.574 25.164 564.37 4.30982 556.794C-0.0749335 555.196 -4.93634 557.463 -6.53522 561.855C-8.13247 566.249 -5.86473 571.107 -1.47062 572.704C24.6196 582.185 54.2102 577.236 75.7591 559.786Z" fill="#9B7ED4"/>
<path d="M59.1859 314.659C56.0282 314.659 53.0008 316.432 51.5432 319.471C48.7323 325.328 46.6463 331.525 45.3504 337.883C44.2813 343.137 43.7363 348.537 43.7363 353.926C43.7363 381.31 57.5249 406.448 80.617 421.17C87.1749 425.351 94.2856 428.534 101.751 430.633C106.265 431.9 110.929 429.265 112.199 424.756C113.464 420.243 110.833 415.559 106.33 414.292C100.465 412.645 94.8723 410.143 89.7172 406.856C71.535 395.267 60.6826 375.479 60.6826 353.926C60.6826 349.673 61.1128 345.419 61.955 341.28C62.9746 336.288 64.6121 331.418 66.818 326.817C68.8441 322.592 67.0684 317.523 62.8494 315.494C61.6682 314.923 60.4166 314.656 59.1859 314.656V314.659Z" fill="#F6E27F"/>
<path d="M121.585 279.549C138.3 278.087 150.665 263.35 149.203 246.636C147.742 229.921 133.005 217.556 116.29 219.017C99.5755 220.479 87.2106 235.216 88.6719 251.93C90.1332 268.645 104.87 281.01 121.585 279.549Z" fill="#02C39A"/>
<path d="M100.325 352.036C89.2208 343.903 73.6286 346.314 65.4985 357.416C57.3658 368.52 59.7767 384.112 70.8786 392.242C81.9831 400.375 97.5753 397.964 105.705 386.862C113.838 375.758 111.427 360.166 100.325 352.036Z" fill="#F6E27F"/>
<path d="M135.229 210.196C98.9241 200.468 60.3859 217.775 43.5987 251.347C41.51 255.529 43.2008 260.612 47.3868 262.705C51.5682 264.804 56.6553 263.101 58.7446 258.917C71.9491 232.505 102.273 218.89 130.851 226.547C152.249 232.281 168.677 248.434 174.806 269.758C176.09 274.245 180.782 276.845 185.275 275.557C189.769 274.267 192.366 269.577 191.075 265.083C183.409 238.403 162.013 217.372 135.229 210.196Z" fill="#02C39A"/>
<path d="M186.824 327.196C180.81 342.86 188.635 360.434 204.299 366.447C219.963 372.461 237.536 364.636 243.55 348.973C249.564 333.309 241.739 315.735 226.075 309.721C210.412 303.707 192.838 311.533 186.824 327.196Z" fill="#9B7ED4"/>
<path d="M240.283 374.056C269.492 350.402 278.143 309.051 260.85 275.737C258.694 271.589 253.588 269.969 249.434 272.125C245.278 274.274 243.666 279.391 245.823 283.541C259.429 309.748 252.62 342.283 229.628 360.902C212.411 374.843 189.687 378.64 168.833 371.063C164.449 369.465 159.587 371.733 157.988 376.125C156.391 380.519 158.659 385.377 163.053 386.974C189.143 396.454 218.734 391.506 240.283 374.056Z" fill="#9B7ED4"/>
<path d="M359.385 114.684C356.227 114.684 353.2 116.457 351.742 119.497C348.932 125.354 346.846 131.55 345.55 137.908C344.481 143.162 343.936 148.562 343.936 153.952C343.936 181.336 357.724 206.474 380.816 221.196C387.374 225.376 394.485 228.559 401.95 230.659C406.464 231.925 411.129 229.291 412.398 224.781C413.663 220.269 411.032 215.584 406.529 214.318C400.665 212.67 395.072 210.169 389.916 206.881C371.734 195.292 360.882 175.505 360.882 153.952C360.882 149.698 361.312 145.444 362.154 141.306C363.174 136.313 364.811 131.443 367.017 126.842C369.043 122.617 367.268 117.549 363.049 115.52C361.867 114.948 360.616 114.682 359.385 114.682V114.684Z" fill="#F6E27F"/>
<path d="M421.78 79.572C438.495 78.1107 450.86 63.3736 449.399 46.6589C447.937 29.9443 433.2 17.5793 416.485 19.0406C399.771 20.5019 387.406 35.239 388.867 51.9537C390.328 68.6683 405.066 81.0333 421.78 79.572Z" fill="#02C39A"/>
<path d="M400.525 152.059C389.42 143.926 373.828 146.337 365.698 157.439C357.565 168.544 359.976 184.136 371.078 192.266C382.182 200.399 397.775 197.988 405.905 186.886C414.037 175.781 411.626 160.189 400.525 152.059Z" fill="#F6E27F"/>
<path d="M435.429 10.2193C399.123 0.491319 360.585 17.7981 343.798 51.3704C341.709 55.552 343.4 60.6357 347.586 62.7283C351.767 64.8277 356.855 63.1243 358.944 58.9402C372.148 32.5285 402.472 18.9135 431.05 26.5709C452.448 32.3046 468.876 48.4571 475.005 69.7817C476.289 74.2684 480.981 76.8686 485.474 75.5806C489.968 74.29 492.565 69.6 491.274 65.1063C483.609 38.4263 462.212 17.3959 435.429 10.2193Z" fill="#02C39A"/>
<path d="M-32.4455 944.583C-38.4593 960.247 -30.6341 977.82 -14.9705 983.834C0.693143 989.848 18.267 982.023 24.2808 966.359C30.2946 950.696 22.4695 933.122 6.80581 927.108C-8.85784 921.094 -26.4317 928.919 -32.4455 944.583Z" fill="#9B7ED4"/>
<path d="M21.0131 991.442C50.2228 967.789 58.8735 926.438 41.5802 893.124C39.4249 888.976 34.3183 887.356 30.1649 889.512C26.0087 891.661 24.3966 896.778 26.5536 900.927C40.1596 927.134 33.3505 959.67 10.3581 978.289C-6.85844 992.23 -29.5821 996.026 -50.4363 988.45C-54.821 986.852 -59.6824 989.119 -61.2813 993.511C-62.8786 997.906 -60.6108 1002.76 -56.2167 1004.36C-30.1265 1013.84 -0.535923 1008.89 21.0131 991.442Z" fill="#9B7ED4"/>
<path d="M19.8148 745.792C16.6571 745.792 13.6297 747.565 12.1721 750.604C9.36123 756.461 7.27522 762.658 5.97929 769.016C4.9102 774.27 4.36523 779.67 4.36523 785.059C4.36523 812.443 18.1538 837.581 41.2459 852.303C47.8038 856.484 54.9145 859.667 62.3798 861.766C66.8934 863.033 71.5583 860.398 72.8281 855.888C74.0928 851.376 71.4618 846.692 66.9586 845.425C61.0943 843.778 55.5012 841.276 50.3461 837.988C32.1639 826.4 21.3115 806.612 21.3115 785.059C21.3115 780.805 21.7417 776.552 22.5839 772.413C23.6035 767.42 25.241 762.55 27.4469 757.949C29.473 753.725 27.6973 748.656 23.4783 746.627C22.2971 746.055 21.0455 745.789 19.8148 745.789V745.792Z" fill="#F6E27F"/>
<path d="M82.2099 710.677C98.9246 709.216 111.29 694.479 109.828 677.764C108.367 661.05 93.6299 648.685 76.9152 650.146C60.2005 651.607 47.8356 666.344 49.2969 683.059C50.7582 699.774 65.4952 712.139 82.2099 710.677Z" fill="#02C39A"/>
<path d="M60.9542 783.168C49.8497 775.036 34.2575 777.447 26.1274 788.548C17.9948 799.653 20.4056 815.245 31.5075 823.375C42.612 831.508 58.2042 829.097 66.3343 817.995C74.467 806.891 72.0561 791.299 60.9542 783.168Z" fill="#F6E27F"/>
<path d="M95.8582 641.327C59.553 631.599 21.0148 648.906 4.22759 682.478C2.13892 686.659 3.82971 691.743 8.01567 693.836C12.1971 695.935 17.2842 694.232 19.3736 690.048C32.578 663.636 62.9019 650.021 91.4795 657.678C112.878 663.412 129.306 679.565 135.434 700.889C136.719 705.376 141.411 707.976 145.904 706.688C150.397 705.397 152.994 700.707 151.704 696.214C144.038 669.534 122.642 648.503 95.8582 641.327Z" fill="#02C39A"/>
<path d="M147.453 758.331C141.439 773.995 149.264 791.568 164.928 797.582C180.592 803.596 198.165 795.771 204.179 780.107C210.193 764.444 202.368 746.87 186.704 740.856C171.041 734.842 153.467 742.667 147.453 758.331Z" fill="#9B7ED4"/>
<path d="M200.908 805.188C230.117 781.535 238.768 740.184 221.475 706.87C219.319 702.722 214.213 701.102 210.059 703.258C205.903 705.407 204.291 710.524 206.448 714.674C220.054 740.881 213.245 773.416 190.253 792.035C173.036 805.976 150.312 809.772 129.458 802.196C125.074 800.598 120.212 802.865 118.613 807.258C117.016 811.652 119.284 816.509 123.678 818.107C149.768 827.587 179.359 822.638 200.908 805.188Z" fill="#9B7ED4"/>
<path d="M194.334 546.339C191.177 546.339 188.149 548.112 186.692 551.151C183.881 557.008 181.795 563.204 180.499 569.563C179.43 574.816 178.885 580.216 178.885 585.606C178.885 612.99 192.673 638.128 215.765 652.85C222.323 657.031 229.434 660.214 236.899 662.313C241.413 663.58 246.078 660.945 247.348 656.435C248.612 651.923 245.981 647.239 241.478 645.972C235.614 644.324 230.021 641.823 224.866 638.535C206.683 626.947 195.831 607.159 195.831 585.606C195.831 581.352 196.261 577.099 197.103 572.96C198.123 567.967 199.761 563.097 201.966 558.496C203.993 554.271 202.217 549.203 197.998 547.174C196.817 546.602 195.565 546.336 194.334 546.336V546.339Z" fill="#F6E27F"/>
<path d="M256.733 511.228C273.448 509.767 285.813 495.03 284.352 478.315C282.89 461.601 268.153 449.236 251.439 450.697C234.724 452.158 222.359 466.895 223.82 483.61C225.282 500.325 240.019 512.69 256.733 511.228Z" fill="#02C39A"/>
<path d="M235.474 583.715C224.369 575.583 208.777 577.993 200.647 589.095C192.514 600.2 194.925 615.792 206.027 623.922C217.132 632.055 232.724 629.644 240.854 618.542C248.986 607.438 246.576 591.845 235.474 583.715Z" fill="#F6E27F"/>
<path d="M270.378 441.876C234.073 432.148 195.534 449.454 178.747 483.027C176.658 487.208 178.349 492.292 182.535 494.385C186.717 496.484 191.804 494.781 193.893 490.596C207.098 464.185 237.421 450.57 265.999 458.227C287.398 463.961 303.825 480.113 309.954 501.438C311.238 505.925 315.93 508.525 320.423 507.237C324.917 505.946 327.514 501.256 326.223 496.763C318.558 470.083 297.161 449.052 270.378 441.876Z" fill="#02C39A"/>
<path d="M321.976 558.876C315.963 574.54 323.788 592.113 339.451 598.127C355.115 604.141 372.689 596.316 378.703 580.652C384.716 564.989 376.891 547.415 361.228 541.401C345.564 535.387 327.99 543.212 321.976 558.876Z" fill="#9B7ED4"/>
<path d="M375.431 605.735C404.641 582.082 413.291 540.731 395.998 507.416C393.843 503.269 388.736 501.649 384.583 503.805C380.427 505.954 378.815 511.071 380.972 515.22C394.578 541.427 387.768 573.963 364.776 592.582C347.56 606.523 324.836 610.319 303.982 602.743C299.597 601.145 294.736 603.412 293.137 607.804C291.539 612.199 293.807 617.056 298.201 618.654C324.292 628.134 353.882 623.185 375.431 605.735Z" fill="#9B7ED4"/>
<path d="M374.237 360.085C371.079 360.085 368.052 361.858 366.594 364.897C363.783 370.754 361.697 376.95 360.401 383.309C359.332 388.563 358.787 393.963 358.787 399.352C358.787 426.736 372.576 451.874 395.668 466.596C402.226 470.777 409.336 473.96 416.802 476.059C421.315 477.326 425.98 474.691 427.25 470.181C428.515 465.669 425.884 460.985 421.38 459.718C415.516 458.071 409.923 455.569 404.768 452.281C386.586 440.693 375.733 420.905 375.733 399.352C375.733 395.098 376.164 390.845 377.006 386.706C378.025 381.713 379.663 376.843 381.869 372.242C383.895 368.018 382.119 362.949 377.9 360.92C376.719 360.348 375.467 360.082 374.237 360.082V360.085Z" fill="#F6E27F"/>
<path d="M415.376 397.461C404.272 389.329 388.679 391.74 380.549 402.841C372.417 413.946 374.827 429.538 385.929 437.668C397.034 445.801 412.626 443.39 420.756 432.288C428.889 421.184 426.478 405.591 415.376 397.461Z" fill="#F6E27F"/>
<path d="M450.28 255.622C413.975 245.894 375.437 263.2 358.649 296.773C356.561 300.954 358.252 306.038 362.438 308.131C366.619 310.23 371.706 308.527 373.795 304.343C387 277.931 417.324 264.316 445.901 271.973C467.3 277.707 483.728 293.859 489.856 315.184C491.141 319.671 495.832 322.271 500.326 320.983C504.819 319.692 507.416 315.002 506.126 310.509C498.46 283.829 477.064 262.798 450.28 255.622Z" fill="#02C39A"/>
<path d="M-57.2018 1455.37C-27.992 1431.71 -19.3414 1390.36 -36.6346 1357.05C-38.7899 1352.9 -43.8966 1351.28 -48.0499 1353.44C-52.2062 1355.58 -53.8182 1360.7 -51.6613 1364.85C-38.0552 1391.06 -44.8643 1423.59 -67.8568 1442.21C-85.0733 1456.15 -107.797 1459.95 -128.651 1452.37C-133.036 1450.78 -137.897 1453.04 -139.496 1457.44C-141.093 1461.83 -138.826 1466.69 -134.432 1468.28C-108.341 1477.76 -78.7508 1472.82 -57.2018 1455.37Z" fill="#9B7ED4"/>
<path d="M3.99116 1174.6C20.7058 1173.14 33.0708 1158.4 31.6095 1141.69C30.1482 1124.98 15.4111 1112.61 -1.30357 1114.07C-18.0182 1115.53 -30.3832 1130.27 -28.9219 1146.98C-27.4606 1163.7 -12.7235 1176.06 3.99116 1174.6Z" fill="#02C39A"/>
<path d="M17.6395 1105.25C-18.6658 1095.52 -57.204 1112.83 -73.9912 1146.4C-76.0798 1150.58 -74.389 1155.67 -70.2031 1157.76C-66.0216 1159.86 -60.9345 1158.16 -58.8452 1153.97C-45.6407 1127.56 -15.3169 1113.94 13.2608 1121.6C34.6594 1127.34 51.0872 1143.49 57.2157 1164.81C58.5001 1169.3 63.1919 1171.9 67.685 1170.61C72.1787 1169.32 74.7757 1164.63 73.4852 1160.14C65.8196 1133.46 44.423 1112.43 17.6395 1105.25Z" fill="#02C39A"/>
<path d="M69.2381 1222.25C63.2243 1237.92 71.0494 1255.49 86.7131 1261.5C102.377 1267.52 119.951 1259.69 125.964 1244.03C131.978 1228.37 124.153 1210.79 108.489 1204.78C92.8258 1198.76 75.2519 1206.59 69.2381 1222.25Z" fill="#9B7ED4"/>
<path d="M122.693 1269.11C151.902 1245.46 160.553 1204.11 143.26 1170.79C141.105 1166.65 135.998 1165.03 131.845 1167.18C127.688 1169.33 126.076 1174.45 128.233 1178.6C141.839 1204.8 135.03 1237.34 112.038 1255.96C94.8212 1269.9 72.0976 1273.7 51.2434 1266.12C46.8587 1264.52 41.9973 1266.79 40.3984 1271.18C38.8011 1275.58 41.0689 1280.43 45.463 1282.03C71.5532 1291.51 101.144 1286.56 122.693 1269.11Z" fill="#9B7ED4"/>
<path d="M121.498 1023.46C118.341 1023.46 115.313 1025.24 113.856 1028.28C111.045 1034.13 108.959 1040.33 107.663 1046.69C106.594 1051.94 106.049 1057.34 106.049 1062.73C106.049 1090.11 119.837 1115.25 142.93 1129.98C149.487 1134.16 156.598 1137.34 164.063 1139.44C168.577 1140.7 173.242 1138.07 174.512 1133.56C175.776 1129.05 173.145 1124.36 168.642 1123.1C162.778 1121.45 157.185 1118.95 152.03 1115.66C133.848 1104.07 122.995 1084.28 122.995 1062.73C122.995 1058.48 123.425 1054.22 124.268 1050.08C125.287 1045.09 126.925 1040.22 129.131 1035.62C131.157 1031.4 129.381 1026.33 125.162 1024.3C123.981 1023.73 122.729 1023.46 121.498 1023.46V1023.46Z" fill="#F6E27F"/>
<path d="M183.894 988.353C200.608 986.892 212.973 972.155 211.512 955.44C210.051 938.726 195.313 926.361 178.599 927.822C161.884 929.283 149.519 944.02 150.98 960.735C152.442 977.45 167.179 989.815 183.894 988.353Z" fill="#02C39A"/>
<path d="M162.638 1060.84C151.533 1052.71 135.941 1055.12 127.811 1066.22C119.678 1077.32 122.089 1092.92 133.191 1101.05C144.296 1109.18 159.888 1106.77 168.018 1095.67C176.151 1084.56 173.74 1068.97 162.638 1060.84Z" fill="#F6E27F"/>
<path d="M197.542 919.001C161.237 909.273 122.698 926.579 105.911 960.152C103.823 964.333 105.513 969.417 109.699 971.51C113.881 973.609 118.968 971.906 121.057 967.721C134.262 941.31 164.585 927.695 193.163 935.352C214.562 941.086 230.99 957.238 237.118 978.563C238.402 983.05 243.094 985.65 247.587 984.362C252.081 983.071 254.678 978.381 253.388 973.888C245.722 947.208 224.325 926.177 197.542 919.001Z" fill="#02C39A"/>
<path d="M249.137 1036C243.123 1051.67 250.948 1069.24 266.612 1075.25C282.275 1081.27 299.849 1073.44 305.863 1057.78C311.877 1042.12 304.051 1024.54 288.388 1018.53C272.724 1012.51 255.15 1020.34 249.137 1036Z" fill="#9B7ED4"/>
<path d="M302.595 1082.86C331.805 1059.21 340.456 1017.86 323.162 984.543C321.007 980.396 315.9 978.776 311.747 980.932C307.591 983.081 305.979 988.198 308.136 992.347C321.742 1018.55 314.933 1051.09 291.94 1069.71C274.724 1083.65 252 1087.45 231.146 1079.87C226.761 1078.27 221.9 1080.54 220.301 1084.93C218.703 1089.33 220.971 1094.18 225.365 1095.78C251.456 1105.26 281.046 1100.31 302.595 1082.86Z" fill="#9B7ED4"/>
<path d="M296.014 824.01C292.856 824.01 289.829 825.783 288.371 828.823C285.56 834.68 283.474 840.876 282.179 847.235C281.109 852.488 280.564 857.888 280.564 863.278C280.564 890.662 294.353 915.8 317.445 930.522C324.003 934.702 331.114 937.886 338.579 939.985C343.093 941.251 347.757 938.617 349.027 934.107C350.292 929.595 347.661 924.91 343.158 923.644C337.294 921.996 331.7 919.495 326.545 916.207C308.363 904.619 297.511 884.831 297.511 863.278C297.511 859.024 297.941 854.771 298.783 850.632C299.803 845.639 301.44 840.769 303.646 836.168C305.672 831.943 303.896 826.875 299.678 824.846C298.496 824.274 297.245 824.008 296.014 824.008V824.01Z" fill="#F6E27F"/>
<path d="M358.409 788.898C375.124 787.437 387.489 772.7 386.027 755.985C384.566 739.27 369.829 726.906 353.114 728.367C336.4 729.828 324.035 744.565 325.496 761.28C326.957 777.995 341.694 790.359 358.409 788.898Z" fill="#02C39A"/>
<path d="M337.153 861.387C326.049 853.255 310.457 855.665 302.327 866.767C294.194 877.872 296.605 893.464 307.707 901.594C318.811 909.727 334.403 907.316 342.533 896.214C350.666 885.109 348.255 869.517 337.153 861.387Z" fill="#F6E27F"/>
<path d="M372.057 719.547C335.752 709.819 297.214 727.126 280.427 760.699C278.338 764.88 280.029 769.964 284.215 772.056C288.396 774.156 293.483 772.452 295.573 768.268C308.777 741.857 339.101 728.242 367.679 735.899C389.077 741.633 405.505 757.785 411.634 779.11C412.918 783.597 417.61 786.197 422.103 784.909C426.597 783.618 429.194 778.928 427.903 774.434C420.238 747.754 398.841 726.724 372.057 719.547Z" fill="#02C39A"/>
<path d="M-18.7619 1662.71C-24.7757 1678.37 -16.9506 1695.95 -1.28691 1701.96C14.3767 1707.97 31.9506 1700.15 37.9644 1684.49C43.9782 1668.82 36.153 1651.25 20.4894 1645.23C4.82576 1639.22 -12.7481 1647.05 -18.7619 1662.71Z" fill="#9B7ED4"/>
<path d="M34.6966 1709.57C63.9064 1685.92 72.5571 1644.56 55.2638 1611.25C53.1085 1607.1 48.0019 1605.48 43.8485 1607.64C39.6923 1609.79 38.0802 1614.9 40.2371 1619.05C53.8432 1645.26 47.0341 1677.8 24.0417 1696.42C6.82515 1710.36 -15.8985 1714.15 -36.7527 1706.58C-41.1374 1704.98 -45.9988 1707.25 -47.5977 1711.64C-49.195 1716.03 -46.9272 1720.89 -42.5331 1722.49C-16.4429 1731.97 13.1477 1727.02 34.6966 1709.57Z" fill="#9B7ED4"/>
<path d="M33.4984 1463.92C30.3407 1463.92 27.3133 1465.69 25.8557 1468.73C23.0448 1474.59 20.9588 1480.79 19.6629 1487.14C18.5938 1492.4 18.0488 1497.8 18.0488 1503.19C18.0488 1530.57 31.8374 1555.71 54.9295 1570.43C61.4874 1574.61 68.5981 1577.8 76.0634 1579.9C80.577 1581.16 85.2419 1578.53 86.5117 1574.02C87.7764 1569.51 85.1454 1564.82 80.6422 1563.55C74.7779 1561.91 69.1848 1559.4 64.0297 1556.12C45.8475 1544.53 34.9951 1524.74 34.9951 1503.19C34.9951 1498.93 35.4253 1494.68 36.2675 1490.54C37.2871 1485.55 38.9246 1480.68 41.1305 1476.08C43.1566 1471.85 41.3809 1466.79 37.1619 1464.76C35.9807 1464.18 34.7291 1463.92 33.4984 1463.92V1463.92Z" fill="#F6E27F"/>
<path d="M95.8974 1428.81C112.612 1427.35 124.977 1412.61 123.516 1395.89C122.054 1379.18 107.317 1366.81 90.6027 1368.28C73.888 1369.74 61.5231 1384.47 62.9844 1401.19C64.4457 1417.9 79.1827 1430.27 95.8974 1428.81Z" fill="#02C39A"/>
<path d="M74.6378 1501.3C63.5333 1493.16 47.9411 1495.58 39.811 1506.68C31.6783 1517.78 34.0892 1533.37 45.1911 1541.5C56.2956 1549.64 71.8878 1547.23 80.0179 1536.12C88.1505 1525.02 85.7397 1509.43 74.6378 1501.3Z" fill="#F6E27F"/>
<path d="M109.542 1359.46C73.2366 1349.73 34.6984 1367.03 17.9112 1400.61C15.8225 1404.79 17.5133 1409.87 21.6993 1411.96C25.8807 1414.06 30.9678 1412.36 33.0571 1408.18C46.2616 1381.76 76.5855 1368.15 105.163 1375.81C126.562 1381.54 142.99 1397.69 149.118 1419.02C150.402 1423.5 155.094 1426.1 159.587 1424.82C164.081 1423.53 166.678 1418.84 165.388 1414.34C157.722 1387.66 136.325 1366.63 109.542 1359.46Z" fill="#02C39A"/>
<path d="M161.14 1476.46C155.127 1492.12 162.952 1509.7 178.615 1515.71C194.279 1521.72 211.853 1513.9 217.867 1498.23C223.881 1482.57 216.055 1465 200.392 1458.98C184.728 1452.97 167.154 1460.79 161.14 1476.46Z" fill="#9B7ED4"/>
<path d="M214.595 1523.32C243.805 1499.66 252.456 1458.31 235.162 1425C233.007 1420.85 227.9 1419.23 223.747 1421.39C219.591 1423.54 217.979 1428.65 220.136 1432.8C233.742 1459.01 226.933 1491.54 203.94 1510.16C186.724 1524.11 164 1527.9 143.146 1520.33C138.761 1518.73 133.9 1520.99 132.301 1525.39C130.703 1529.78 132.971 1534.64 137.365 1536.24C163.456 1545.72 193.046 1540.77 214.595 1523.32Z" fill="#9B7ED4"/>
<path d="M213.397 1277.67C210.239 1277.67 207.212 1279.44 205.754 1282.48C202.943 1288.34 200.857 1294.53 199.561 1300.89C198.492 1306.14 197.947 1311.54 197.947 1316.93C197.947 1344.32 211.736 1369.46 234.828 1384.18C241.386 1388.36 248.497 1391.54 255.962 1393.64C260.475 1394.91 265.14 1392.27 266.41 1387.76C267.675 1383.25 265.044 1378.57 260.541 1377.3C254.676 1375.65 249.083 1373.15 243.928 1369.86C225.746 1358.27 214.893 1338.49 214.893 1316.93C214.893 1312.68 215.324 1308.43 216.166 1304.29C217.186 1299.3 218.823 1294.43 221.029 1289.82C223.055 1285.6 221.279 1280.53 217.06 1278.5C215.879 1277.93 214.628 1277.66 213.397 1277.66V1277.67Z" fill="#F6E27F"/>
<path d="M275.792 1242.55C292.507 1241.09 304.872 1226.35 303.41 1209.64C301.949 1192.92 287.212 1180.56 270.497 1182.02C253.783 1183.48 241.418 1198.22 242.879 1214.93C244.34 1231.65 259.077 1244.01 275.792 1242.55Z" fill="#02C39A"/>
<path d="M254.536 1315.04C243.432 1306.91 227.84 1309.32 219.709 1320.42C211.577 1331.53 213.988 1347.12 225.09 1355.25C236.194 1363.38 251.786 1360.97 259.916 1349.87C268.049 1338.77 265.638 1323.17 254.536 1315.04Z" fill="#F6E27F"/>
<path d="M289.44 1173.2C253.135 1163.47 214.597 1180.78 197.81 1214.35C195.721 1218.53 197.412 1223.62 201.598 1225.71C205.779 1227.81 210.866 1226.11 212.956 1221.92C226.16 1195.51 256.484 1181.9 285.062 1189.55C306.46 1195.29 322.888 1211.44 329.016 1232.76C330.301 1237.25 334.993 1239.85 339.486 1238.56C343.979 1237.27 346.577 1232.58 345.286 1228.09C337.62 1201.41 316.224 1180.38 289.44 1173.2Z" fill="#02C39A"/>
<path d="M341.039 1290.2C335.025 1305.87 342.85 1323.44 358.514 1329.46C374.178 1335.47 391.751 1327.64 397.765 1311.98C403.779 1296.32 395.954 1278.74 380.29 1272.73C364.627 1266.72 347.053 1274.54 341.039 1290.2Z" fill="#9B7ED4"/>
<path d="M394.497 1337.06C423.707 1313.41 432.358 1272.06 415.065 1238.74C412.909 1234.6 407.803 1232.98 403.649 1235.13C399.493 1237.28 397.881 1242.4 400.038 1246.55C413.644 1272.76 406.835 1305.29 383.842 1323.91C366.626 1337.85 343.902 1341.65 323.048 1334.07C318.663 1332.47 313.802 1334.74 312.203 1339.13C310.606 1343.53 312.874 1348.38 317.268 1349.98C343.358 1359.46 372.948 1354.51 394.497 1337.06Z" fill="#9B7ED4"/>
<path d="M387.92 1078.22C384.763 1078.22 381.735 1079.99 380.278 1083.03C377.467 1088.88 375.381 1095.08 374.085 1101.44C373.016 1106.69 372.471 1112.09 372.471 1117.48C372.471 1144.87 386.259 1170 409.351 1184.73C415.909 1188.91 423.02 1192.09 430.485 1194.19C434.999 1195.46 439.664 1192.82 440.934 1188.31C442.198 1183.8 439.567 1179.12 435.064 1177.85C429.2 1176.2 423.607 1173.7 418.452 1170.41C400.269 1158.82 389.417 1139.04 389.417 1117.48C389.417 1113.23 389.847 1108.98 390.689 1104.84C391.709 1099.84 393.346 1094.97 395.552 1090.37C397.578 1086.15 395.803 1081.08 391.584 1079.05C390.403 1078.48 389.151 1078.21 387.92 1078.21V1078.22Z" fill="#F6E27F"/>
<path d="M463.964 973.751C427.658 964.023 389.12 981.329 372.333 1014.9C370.244 1019.08 371.935 1024.17 376.121 1026.26C380.303 1028.36 385.39 1026.66 387.479 1022.47C400.684 996.06 431.007 982.445 459.585 990.102C480.984 995.836 497.411 1011.99 503.54 1033.31C504.824 1037.8 509.516 1040.4 514.009 1039.11C518.503 1037.82 521.1 1033.13 519.809 1028.64C512.144 1001.96 490.747 980.927 463.964 973.751Z" fill="#02C39A"/>
<path d="M-56.8947 75.4013C-62.9085 91.0649 -55.0834 108.639 -39.4197 114.653C-23.7561 120.666 -6.18226 112.841 -0.168438 97.1776C5.84538 81.514 -1.97976 63.9401 -17.6434 57.9263C-33.3071 51.9125 -50.8809 59.7376 -56.8947 75.4013Z" fill="#9B7ED4"/>
<path d="M-3.43617 122.261C25.7736 98.607 34.4243 57.2563 17.131 23.9419C14.9757 19.7942 9.86905 18.1739 5.71571 20.3305C1.55947 22.4793 -0.0526062 27.5961 2.10433 31.7458C15.7104 57.9528 8.90129 90.488 -14.0912 109.107C-31.3077 123.049 -54.0313 126.845 -74.8855 119.269C-79.2702 117.67 -84.1317 119.938 -85.7305 124.33C-87.3278 128.724 -85.06 133.582 -80.6659 135.179C-54.5757 144.659 -24.9851 139.711 -3.43617 122.261Z" fill="#9B7ED4"/>
</svg>
