<svg width="1440" height="1266" viewBox="0 0 1440 1266" fill="none" xmlns="http://www.w3.org/2000/svg">
<path d="M-9.17095 183.297C7.54373 181.835 19.9087 167.098 18.4474 150.384C16.9861 133.669 2.249 121.304 -14.4657 122.765C-31.1804 124.227 -43.5453 138.964 -42.084 155.678C-40.6227 172.393 -25.8856 184.758 -9.17095 183.297Z" fill="#02C39A"/>
<path d="M4.47736 113.946C-31.8279 104.218 -70.3661 121.525 -87.1533 155.097C-89.2419 159.279 -87.5512 164.362 -83.3652 166.455C-79.1838 168.554 -74.0967 166.851 -72.0073 162.667C-58.8028 136.255 -28.479 122.64 0.0986564 130.297C21.4973 136.031 37.9251 152.184 44.0536 173.508C45.338 177.995 50.0298 180.595 54.5228 179.307C59.0166 178.017 61.6136 173.327 60.323 168.833C52.6575 142.153 31.2609 121.122 4.47736 113.946Z" fill="#02C39A"/>
<path d="M56.0721 230.947C50.0583 246.611 57.8834 264.185 73.5471 270.198C89.2107 276.212 106.785 268.387 112.798 252.724C118.812 237.06 110.987 219.486 95.3234 213.472C79.6597 207.458 62.0859 215.284 56.0721 230.947Z" fill="#9B7ED4"/>
<path d="M109.535 277.807C138.744 254.153 147.395 212.802 130.102 179.488C127.946 175.34 122.84 173.72 118.686 175.877C114.53 178.025 112.918 183.142 115.075 187.292C128.681 213.499 121.872 246.034 98.8795 264.653C81.663 278.595 58.9394 282.391 38.0852 274.815C33.7005 273.216 28.839 275.484 27.2402 279.876C25.6429 284.27 27.9107 289.128 32.3048 290.725C58.395 300.206 87.9856 295.257 109.535 277.807Z" fill="#9B7ED4"/>
<path d="M108.332 32.1559C105.175 32.1559 102.147 33.9289 100.69 36.9684C97.8788 42.8254 95.7928 49.0218 94.4969 55.3801C93.4278 60.6339 92.8828 66.0338 92.8828 71.4234C92.8828 98.8072 106.671 123.945 129.763 138.667C136.321 142.848 143.432 146.031 150.897 148.13C155.411 149.397 160.076 146.762 161.346 142.253C162.61 137.74 159.979 133.056 155.476 131.789C149.612 130.142 144.019 127.64 138.864 124.353C120.682 112.764 109.829 92.9764 109.829 71.4234C109.829 67.1697 110.259 62.9161 111.102 58.7773C112.121 53.7846 113.759 48.9147 115.965 44.3138C117.991 40.0888 116.215 35.0204 111.996 32.9915C110.815 32.4197 109.563 32.1533 108.332 32.1533V32.1559Z" fill="#F6E27F"/>
<path d="M170.727 -2.95732C187.442 -4.41862 199.807 -19.1557 198.346 -35.8704C196.884 -52.585 182.147 -64.95 165.433 -63.4887C148.718 -62.0274 136.353 -47.2903 137.814 -30.5756C139.276 -13.8609 154.013 -1.49601 170.727 -2.95732Z" fill="#02C39A"/>
<path d="M149.472 69.5317C138.367 61.399 122.775 63.8099 114.645 74.9118C106.512 86.0163 108.923 101.608 120.025 109.739C131.13 117.871 146.722 115.46 154.852 104.359C162.985 93.254 160.574 77.6618 149.472 69.5317Z" fill="#F6E27F"/>
<path d="M184.376 -72.309C148.071 -82.037 109.532 -64.7302 92.7452 -31.1579C90.6565 -26.9763 92.3473 -21.8926 96.5333 -19.8C100.715 -17.7006 105.802 -19.404 107.891 -23.5881C121.096 -49.9998 151.419 -63.6148 179.997 -55.9574C201.396 -50.2237 217.824 -34.0712 223.952 -12.7466C225.236 -8.25993 229.928 -5.65968 234.421 -6.94775C238.915 -8.23835 241.512 -12.9283 240.221 -17.4221C232.556 -44.102 211.159 -65.1324 184.376 -72.309Z" fill="#02C39A"/>
<path d="M235.971 44.6942C229.957 60.3579 237.782 77.9317 253.446 83.9455C269.109 89.9594 286.683 82.1342 292.697 66.4706C298.711 50.8069 290.885 33.2331 275.222 27.2193C259.558 21.2055 241.984 29.0306 235.971 44.6942Z" fill="#9B7ED4"/>
<path d="M289.433 91.5518C318.643 67.8982 327.293 26.5474 310 -6.76698C307.845 -10.9146 302.738 -12.5349 298.585 -10.3783C294.429 -8.22951 292.817 -3.11274 294.973 1.03694C308.58 27.244 301.77 59.7792 278.778 78.3981C261.561 92.3397 238.838 96.1359 217.984 88.5597C213.599 86.9616 208.737 89.2289 207.139 93.621C205.541 98.0151 207.809 102.873 212.203 104.47C238.293 113.951 267.884 109.002 289.433 91.5518Z" fill="#9B7ED4"/>
<path d="M-44.8976 545.603C-81.2029 535.875 -119.741 553.182 -136.528 586.754C-138.617 590.936 -136.926 596.02 -132.74 598.112C-128.559 600.212 -123.472 598.508 -121.382 594.324C-108.178 567.912 -77.854 554.297 -49.2763 561.955C-27.8777 567.689 -11.4499 583.841 -5.32142 605.166C-4.03703 609.652 0.65476 612.253 5.14784 610.964C9.64159 609.674 12.2386 604.984 10.948 600.49C3.28249 573.81 -18.1141 552.78 -44.8976 545.603Z" fill="#02C39A"/>
<path d="M6.6932 662.605C0.679377 678.269 8.50452 695.843 24.1682 701.857C39.8318 707.871 57.4056 700.045 63.4195 684.382C69.4333 668.718 61.6081 651.144 45.9445 645.131C30.2808 639.117 12.707 646.942 6.6932 662.605Z" fill="#9B7ED4"/>
<path d="M60.1517 709.464C89.3615 685.81 98.0121 644.46 80.7189 611.145C78.5636 606.998 73.4569 605.377 69.3036 607.534C65.1474 609.683 63.5353 614.799 65.6922 618.949C79.2983 645.156 72.4892 677.691 49.4967 696.31C32.2802 710.252 9.55657 714.048 -11.2976 706.472C-15.6824 704.874 -20.5438 707.141 -22.1426 711.533C-23.7399 715.927 -21.4721 720.785 -17.078 722.382C9.01221 731.863 38.6027 726.914 60.1517 709.464Z" fill="#9B7ED4"/>
<path d="M53.5784 463.815C50.4207 463.815 47.3934 465.588 45.9358 468.628C43.1249 474.485 41.0389 480.681 39.743 487.039C38.6739 492.293 38.1289 497.693 38.1289 503.083C38.1289 530.466 51.9174 555.605 75.0096 570.327C81.5675 574.507 88.6782 577.69 96.1435 579.79C100.657 581.056 105.322 578.421 106.592 573.912C107.856 569.4 105.225 564.715 100.722 563.449C94.858 561.801 89.2649 559.299 84.1098 556.012C65.9276 544.423 55.0751 524.636 55.0751 503.083C55.0751 498.829 55.5054 494.575 56.3476 490.436C57.3671 485.444 59.0047 480.574 61.2106 475.973C63.2367 471.748 61.4609 466.68 57.242 464.651C56.0608 464.079 54.8092 463.812 53.5784 463.812V463.815Z" fill="#F6E27F"/>
<path d="M115.977 428.701C132.692 427.24 145.057 412.503 143.596 395.788C142.134 379.073 127.397 366.708 110.683 368.17C93.9681 369.631 81.6031 384.368 83.0645 401.083C84.5258 417.797 99.2628 430.162 115.977 428.701Z" fill="#02C39A"/>
<path d="M94.7179 501.192C83.6134 493.059 68.0212 495.47 59.8911 506.572C51.7584 517.676 54.1693 533.269 65.2712 541.399C76.3757 549.531 91.9679 547.121 100.098 536.019C108.231 524.914 105.82 509.322 94.7179 501.192Z" fill="#F6E27F"/>
<path d="M129.622 359.35C93.3167 349.622 54.7785 366.929 37.9913 400.501C35.9026 404.683 37.5934 409.767 41.7793 411.859C45.9608 413.959 51.0479 412.255 53.1372 408.071C66.3417 381.659 96.6655 368.044 125.243 375.702C146.642 381.435 163.07 397.588 169.198 418.913C170.483 423.399 175.174 426 179.667 424.711C184.161 423.421 186.758 418.731 185.468 414.237C177.802 387.557 156.405 366.527 129.622 359.35Z" fill="#02C39A"/>
<path d="M181.221 476.353C175.207 492.016 183.032 509.59 198.696 515.604C214.359 521.618 231.933 513.793 237.947 498.129C243.961 482.465 236.135 464.891 220.472 458.878C204.808 452.864 187.234 460.689 181.221 476.353Z" fill="#9B7ED4"/>
<path d="M234.679 523.211C263.889 499.557 272.539 458.207 255.246 424.892C253.091 420.745 247.984 419.124 243.831 421.281C239.675 423.43 238.063 428.546 240.22 432.696C253.826 458.903 247.017 491.438 224.024 510.057C206.808 523.999 184.084 527.795 163.23 520.219C158.845 518.621 153.984 520.888 152.385 525.28C150.787 529.674 153.055 534.532 157.449 536.129C183.54 545.61 213.13 540.661 234.679 523.211Z" fill="#9B7ED4"/>
<path d="M233.477 277.561C230.319 277.561 227.292 279.334 225.834 282.374C223.023 288.231 220.937 294.427 219.641 300.785C218.572 306.039 218.027 311.439 218.027 316.829C218.027 344.212 231.816 369.351 254.908 384.073C261.466 388.253 268.577 391.436 276.042 393.536C280.556 394.802 285.22 392.167 286.49 387.658C287.755 383.146 285.124 378.461 280.621 377.195C274.756 375.547 269.163 373.046 264.008 369.758C245.826 358.169 234.974 338.382 234.974 316.829C234.974 312.575 235.404 308.321 236.246 304.183C237.266 299.19 238.903 294.32 241.109 289.719C243.135 285.494 241.359 280.426 237.14 278.397C235.959 277.825 234.708 277.559 233.477 277.559V277.561Z" fill="#F6E27F"/>
<path d="M295.876 242.447C312.591 240.986 324.956 226.249 323.494 209.534C322.033 192.819 307.296 180.454 290.581 181.916C273.867 183.377 261.502 198.114 262.963 214.829C264.424 231.543 279.161 243.908 295.876 242.447Z" fill="#02C39A"/>
<path d="M274.616 314.938C263.512 306.805 247.92 309.216 239.79 320.318C231.657 331.423 234.068 347.015 245.17 355.145C256.274 363.278 271.866 360.867 279.996 349.765C288.129 338.66 285.718 323.068 274.616 314.938Z" fill="#F6E27F"/>
<path d="M309.52 173.096C273.215 163.368 234.677 180.675 217.89 214.247C215.801 218.429 217.492 223.513 221.678 225.605C225.859 227.705 230.946 226.001 233.036 221.817C246.24 195.405 276.564 181.79 305.142 189.448C326.54 195.182 342.968 211.334 349.097 232.659C350.381 237.145 355.073 239.746 359.566 238.458C364.06 237.167 366.657 232.477 365.366 227.983C357.7 201.303 336.304 180.273 309.52 173.096Z" fill="#02C39A"/>
<path d="M361.115 290.098C355.101 305.761 362.926 323.335 378.59 329.349C394.254 335.363 411.828 327.538 417.841 311.874C423.855 296.21 416.03 278.637 400.366 272.623C384.703 266.609 367.129 274.434 361.115 290.098Z" fill="#9B7ED4"/>
<path d="M414.574 336.957C443.783 313.303 452.434 271.953 435.141 238.638C432.985 234.491 427.879 232.87 423.725 235.027C419.569 237.176 417.957 242.293 420.114 246.442C433.72 272.649 426.911 305.184 403.919 323.803C386.702 337.745 363.978 341.541 343.124 333.965C338.74 332.367 333.878 334.634 332.279 339.026C330.682 343.42 332.95 348.278 337.344 349.875C363.434 359.356 393.025 354.407 414.574 336.957Z" fill="#9B7ED4"/>
<path d="M-19.2614 927.737C-22.4191 927.737 -25.4464 929.51 -26.904 932.549C-29.7149 938.406 -31.801 944.603 -33.0969 950.961C-34.166 956.215 -34.7109 961.615 -34.7109 967.004C-34.7109 994.388 -20.9224 1019.53 2.16975 1034.25C8.72764 1038.43 15.8383 1041.61 23.3036 1043.71C27.8173 1044.98 32.4821 1042.34 33.752 1037.83C35.0166 1033.32 32.3856 1028.64 27.8824 1027.37C22.0181 1025.72 16.425 1023.22 11.27 1019.93C-6.91223 1008.35 -17.7647 988.557 -17.7647 967.004C-17.7647 962.751 -17.3345 958.497 -16.4922 954.358C-15.4727 949.366 -13.8352 944.496 -11.6292 939.895C-9.60318 935.67 -11.3789 930.601 -15.5979 928.572C-16.7791 928.001 -18.0307 927.734 -19.2614 927.734V927.737Z" fill="#F6E27F"/>
<path d="M43.1376 892.623C59.8523 891.161 72.2173 876.424 70.756 859.71C69.2946 842.995 54.5576 830.63 37.8429 832.091C21.1282 833.553 8.7633 848.29 10.2246 865.004C11.6859 881.719 26.423 894.084 43.1376 892.623Z" fill="#02C39A"/>
<path d="M21.8781 965.114C10.7736 956.981 -4.81866 959.392 -12.9487 970.494C-21.0814 981.598 -18.6706 997.19 -7.56869 1005.32C3.53581 1013.45 19.128 1011.04 27.2581 999.94C35.3908 988.836 32.9799 973.244 21.8781 965.114Z" fill="#F6E27F"/>
<path d="M56.782 823.272C20.4768 813.544 -18.0614 830.851 -34.8486 864.423C-36.9372 868.605 -35.2465 873.688 -31.0605 875.781C-26.8791 877.88 -21.792 876.177 -19.7026 871.993C-6.49813 845.581 23.8257 831.966 52.4033 839.623C73.802 845.357 90.2298 861.51 96.3583 882.834C97.6427 887.321 102.334 889.921 106.828 888.633C111.321 887.343 113.918 882.653 112.628 878.159C104.962 851.479 83.5656 830.449 56.782 823.272Z" fill="#02C39A"/>
<path d="M108.377 940.274C102.363 955.938 110.188 973.512 125.852 979.526C141.515 985.539 159.089 977.714 165.103 962.051C171.117 946.387 163.292 928.813 147.628 922.799C131.964 916.786 114.391 924.611 108.377 940.274Z" fill="#9B7ED4"/>
<path d="M161.835 987.133C191.045 963.479 199.696 922.128 182.402 888.814C180.247 884.666 175.141 883.046 170.987 885.203C166.831 887.351 165.219 892.468 167.376 896.618C180.982 922.825 174.173 955.36 151.18 973.979C133.964 987.921 111.24 991.717 90.386 984.141C86.0012 982.542 81.1398 984.81 79.5409 989.202C77.9437 993.596 80.2114 998.454 84.6056 1000.05C110.696 1009.53 140.286 1004.58 161.835 987.133Z" fill="#9B7ED4"/>
<path d="M155.258 741.483C152.1 741.483 149.073 743.256 147.615 746.296C144.805 752.153 142.719 758.349 141.423 764.707C140.354 769.961 139.809 775.361 139.809 780.751C139.809 808.134 153.597 833.273 176.689 847.995C183.247 852.175 190.358 855.358 197.823 857.458C202.337 858.724 207.002 856.089 208.271 851.58C209.536 847.068 206.905 842.383 202.402 841.117C196.538 839.469 190.945 836.967 185.79 833.68C167.607 822.091 156.755 802.304 156.755 780.751C156.755 776.497 157.185 772.243 158.027 768.104C159.047 763.112 160.684 758.242 162.89 753.641C164.916 749.416 163.141 744.348 158.922 742.319C157.74 741.747 156.489 741.48 155.258 741.48V741.483Z" fill="#F6E27F"/>
<path d="M217.653 706.37C234.368 704.909 246.733 690.171 245.272 673.457C243.81 656.742 229.073 644.377 212.359 645.838C195.644 647.3 183.279 662.037 184.74 678.752C186.202 695.466 200.939 707.831 217.653 706.37Z" fill="#02C39A"/>
<path d="M196.398 778.86C185.293 770.727 169.701 773.138 161.571 784.24C153.438 795.344 155.849 810.937 166.951 819.067C178.055 827.199 193.648 824.789 201.778 813.687C209.91 802.582 207.499 786.99 196.398 778.86Z" fill="#F6E27F"/>
<path d="M231.302 637.018C194.996 627.29 156.458 644.597 139.671 678.169C137.582 682.351 139.273 687.435 143.459 689.527C147.64 691.627 152.728 689.923 154.817 685.739C168.021 659.327 198.345 645.712 226.923 653.37C248.322 659.103 264.749 675.256 270.878 696.581C272.162 701.067 276.854 703.667 281.347 702.379C285.841 701.089 288.438 696.399 287.147 691.905C279.482 665.225 258.085 644.195 231.302 637.018Z" fill="#02C39A"/>
<path d="M282.896 754.021C276.883 769.684 284.708 787.258 300.371 793.272C316.035 799.286 333.609 791.461 339.623 775.797C345.636 760.133 337.811 742.559 322.148 736.546C306.484 730.532 288.91 738.357 282.896 754.021Z" fill="#9B7ED4"/>
<path d="M336.355 800.879C365.565 777.225 374.215 735.875 356.922 702.56C354.767 698.413 349.66 696.792 345.507 698.949C341.35 701.098 339.738 706.214 341.895 710.364C355.501 736.571 348.692 769.106 325.7 787.725C308.483 801.667 285.76 805.463 264.906 797.887C260.521 796.289 255.659 798.556 254.06 802.948C252.463 807.342 254.731 812.2 259.125 813.797C285.215 823.278 314.806 818.329 336.355 800.879Z" fill="#9B7ED4"/>
<path d="M335.16 555.229C332.003 555.229 328.975 557.002 327.518 560.042C324.707 565.899 322.621 572.095 321.325 578.453C320.256 583.707 319.711 589.107 319.711 594.497C319.711 621.88 333.499 647.019 356.592 661.741C363.15 665.921 370.26 669.104 377.726 671.204C382.239 672.47 386.904 669.835 388.174 665.326C389.438 660.814 386.807 656.129 382.304 654.863C376.44 653.215 370.847 650.714 365.692 647.426C347.51 635.837 336.657 616.05 336.657 594.497C336.657 590.243 337.087 585.989 337.93 581.851C338.949 576.858 340.587 571.988 342.793 567.387C344.819 563.162 343.043 558.094 338.824 556.065C337.643 555.493 336.391 555.227 335.16 555.227V555.229Z" fill="#F6E27F"/>
<path d="M397.556 520.116C414.27 518.655 426.635 503.918 425.174 487.203C423.713 470.488 408.976 458.123 392.261 459.585C375.546 461.046 363.181 475.783 364.643 492.498C366.104 509.212 380.841 521.577 397.556 520.116Z" fill="#02C39A"/>
<path d="M376.3 592.606C365.195 584.473 349.603 586.884 341.473 597.986C333.34 609.09 335.751 624.683 346.853 632.813C357.958 640.945 373.55 638.535 381.68 627.433C389.813 616.328 387.402 600.736 376.3 592.606Z" fill="#F6E27F"/>
<path d="M411.204 450.764C374.899 441.036 336.36 458.343 319.573 491.915C317.485 496.097 319.175 501.181 323.361 503.273C327.543 505.373 332.63 503.669 334.719 499.485C347.924 473.073 378.248 459.458 406.825 467.116C428.224 472.85 444.652 489.002 450.78 510.327C452.065 514.813 456.756 517.414 461.249 516.125C465.743 514.835 468.34 510.145 467.05 505.651C459.384 478.971 437.987 457.941 411.204 450.764Z" fill="#02C39A"/>
<path d="M462.799 567.767C456.785 583.43 464.61 601.004 480.274 607.018C495.937 613.032 513.511 605.206 519.525 589.543C525.539 573.879 517.714 556.305 502.05 550.292C486.386 544.278 468.812 552.103 462.799 567.767Z" fill="#9B7ED4"/>
<path d="M516.257 614.625C545.467 590.971 554.118 549.621 536.824 516.306C534.669 512.159 529.562 510.538 525.409 512.695C521.253 514.844 519.641 519.96 521.798 524.11C535.404 550.317 528.595 582.852 505.602 601.471C488.386 615.413 465.662 619.209 444.808 611.633C440.423 610.035 435.562 612.302 433.963 616.694C432.366 621.088 434.633 625.946 439.027 627.543C465.118 637.024 494.708 632.075 516.257 614.625Z" fill="#9B7ED4"/>
<path d="M515.055 368.976C511.897 368.976 508.87 370.749 507.412 373.789C504.601 379.646 502.515 385.842 501.22 392.2C500.15 397.454 499.605 402.854 499.605 408.244C499.605 435.628 513.394 460.766 536.486 475.488C543.044 479.668 550.155 482.851 557.62 484.951C562.134 486.217 566.799 483.583 568.068 479.073C569.333 474.561 566.702 469.876 562.199 468.61C556.335 466.962 550.741 464.461 545.586 461.173C527.404 449.584 516.552 429.797 516.552 408.244C516.552 403.99 516.982 399.736 517.824 395.598C518.844 390.605 520.481 385.735 522.687 381.134C524.713 376.909 522.938 371.841 518.719 369.812C517.537 369.24 516.286 368.974 515.055 368.974V368.976Z" fill="#F6E27F"/>
<path d="M577.45 333.863C594.165 332.402 606.53 317.665 605.068 300.95C603.607 284.235 588.87 271.87 572.155 273.332C555.441 274.793 543.076 289.53 544.537 306.245C545.998 322.959 560.735 335.324 577.45 333.863Z" fill="#02C39A"/>
<path d="M556.194 406.353C545.09 398.22 529.498 400.631 521.368 411.733C513.235 422.838 515.646 438.43 526.748 446.56C537.852 454.693 553.444 452.282 561.575 441.18C569.707 430.075 567.296 414.483 556.194 406.353Z" fill="#F6E27F"/>
<path d="M591.098 264.511C554.793 254.783 516.255 272.09 499.468 305.662C497.379 309.844 499.07 314.928 503.256 317.02C507.437 319.12 512.524 317.416 514.614 313.232C527.818 286.821 558.142 273.206 586.72 280.863C608.118 286.597 624.546 302.749 630.675 324.074C631.959 328.56 636.651 331.161 641.144 329.873C645.638 328.582 648.235 323.892 646.944 319.398C639.279 292.718 617.882 271.688 591.098 264.511Z" fill="#02C39A"/>
<path d="M642.693 381.514C636.679 397.177 644.505 414.751 660.168 420.765C675.832 426.779 693.406 418.954 699.419 403.29C705.433 387.626 697.608 370.053 681.944 364.039C666.281 358.025 648.707 365.85 642.693 381.514Z" fill="#9B7ED4"/>
<path d="M696.156 428.373C725.365 404.719 734.016 363.369 716.723 330.054C714.567 325.907 709.461 324.286 705.308 326.443C701.151 328.592 699.539 333.709 701.696 337.858C715.302 364.065 708.493 396.6 685.501 415.219C668.284 429.161 645.56 432.957 624.706 425.381C620.322 423.783 615.46 426.05 613.861 430.442C612.264 434.836 614.532 439.694 618.926 441.291C645.016 450.772 674.607 445.823 696.156 428.373Z" fill="#9B7ED4"/>
<path d="M72.6448 1181.94C69.4871 1181.94 66.4598 1183.71 65.0022 1186.75C62.1913 1192.61 60.1053 1198.8 58.8094 1205.16C57.7403 1210.42 57.1953 1215.82 57.1953 1221.21C57.1953 1248.59 70.9838 1273.73 94.076 1288.45C100.634 1292.63 107.745 1295.81 115.21 1297.91C119.724 1299.18 124.388 1296.54 125.658 1292.03C126.923 1287.52 124.292 1282.84 119.789 1281.57C113.924 1279.92 108.331 1277.42 103.176 1274.13C84.994 1262.55 74.1415 1242.76 74.1415 1221.21C74.1415 1216.95 74.5718 1212.7 75.414 1208.56C76.4336 1203.57 78.0711 1198.7 80.277 1194.1C82.3031 1189.87 80.5274 1184.8 76.3084 1182.77C75.1272 1182.2 73.8756 1181.94 72.6448 1181.94V1181.94Z" fill="#F6E27F"/>
<path d="M135.04 1146.83C151.755 1145.36 164.12 1130.63 162.658 1113.91C161.197 1097.2 146.46 1084.83 129.745 1086.29C113.031 1087.76 100.666 1102.49 102.127 1119.21C103.588 1135.92 118.325 1148.29 135.04 1146.83Z" fill="#02C39A"/>
<path d="M113.784 1219.32C102.68 1211.18 87.0876 1213.59 78.9575 1224.7C70.8248 1235.8 73.2357 1251.39 84.3376 1259.52C95.4421 1267.66 111.034 1265.24 119.164 1254.14C127.297 1243.04 124.886 1227.45 113.784 1219.32Z" fill="#F6E27F"/>
<path d="M148.688 1077.47C112.383 1067.75 73.8449 1085.05 57.0577 1118.63C54.969 1122.81 56.6598 1127.89 60.8458 1129.98C65.0272 1132.08 70.1143 1130.38 72.2036 1126.19C85.4081 1099.78 115.732 1086.17 144.31 1093.83C165.708 1099.56 182.136 1115.71 188.265 1137.04C189.549 1141.52 194.241 1144.12 198.734 1142.84C203.228 1141.54 205.825 1136.85 204.534 1132.36C196.868 1105.68 175.472 1084.65 148.688 1077.47Z" fill="#02C39A"/>
<path d="M200.283 1194.47C194.269 1210.14 202.094 1227.71 217.758 1233.73C233.422 1239.74 250.995 1231.91 257.009 1216.25C263.023 1200.59 255.198 1183.01 239.534 1177C223.871 1170.99 206.297 1178.81 200.283 1194.47Z" fill="#9B7ED4"/>
<path d="M253.738 1241.33C282.947 1217.68 291.598 1176.33 274.305 1143.01C272.15 1138.87 267.043 1137.25 262.89 1139.4C258.733 1141.55 257.121 1146.67 259.278 1150.82C272.884 1177.03 266.075 1209.56 243.083 1228.18C225.866 1242.12 203.143 1245.92 182.288 1238.34C177.904 1236.74 173.042 1239.01 171.443 1243.4C169.846 1247.8 172.114 1252.65 176.508 1254.25C202.598 1263.73 232.189 1258.78 253.738 1241.33Z" fill="#9B7ED4"/>
<path d="M247.168 995.688C244.011 995.688 240.983 997.461 239.526 1000.5C236.715 1006.36 234.629 1012.55 233.333 1018.91C232.264 1024.17 231.719 1029.57 231.719 1034.96C231.719 1062.34 245.507 1087.48 268.599 1102.2C275.157 1106.38 282.268 1109.56 289.733 1111.66C294.247 1112.93 298.912 1110.29 300.182 1105.78C301.446 1101.27 298.815 1096.59 294.312 1095.32C288.448 1093.67 282.855 1091.17 277.7 1087.88C259.517 1076.3 248.665 1056.51 248.665 1034.96C248.665 1030.7 249.095 1026.45 249.937 1022.31C250.957 1017.32 252.595 1012.45 254.8 1007.85C256.827 1003.62 255.051 998.553 250.832 996.524C249.651 995.952 248.399 995.686 247.168 995.686V995.688Z" fill="#F6E27F"/>
<path d="M309.563 960.576C326.278 959.115 338.643 944.378 337.182 927.663C335.72 910.948 320.983 898.583 304.269 900.045C287.554 901.506 275.189 916.243 276.65 932.958C278.112 949.672 292.849 962.037 309.563 960.576Z" fill="#02C39A"/>
<path d="M288.308 1033.06C277.203 1024.93 261.611 1027.34 253.481 1038.44C245.348 1049.55 247.759 1065.14 258.861 1073.27C269.965 1081.4 285.558 1078.99 293.688 1067.89C301.82 1056.79 299.41 1041.2 288.308 1033.06Z" fill="#F6E27F"/>
<path d="M323.212 891.224C286.907 881.496 248.368 898.803 231.581 932.375C229.492 936.557 231.183 941.641 235.369 943.733C239.551 945.833 244.638 944.129 246.727 939.945C259.932 913.533 290.255 899.918 318.833 907.576C340.232 913.31 356.659 929.462 362.788 950.787C364.072 955.273 368.764 957.874 373.257 956.585C377.751 955.295 380.348 950.605 379.057 946.111C371.392 919.431 349.995 898.401 323.212 891.224Z" fill="#02C39A"/>
<path d="M374.806 1008.22C368.793 1023.89 376.618 1041.46 392.281 1047.48C407.945 1053.49 425.519 1045.66 431.533 1030C437.547 1014.34 429.721 996.764 414.058 990.75C398.394 984.736 380.82 992.561 374.806 1008.22Z" fill="#9B7ED4"/>
<path d="M428.261 1055.08C457.471 1031.43 466.122 990.08 448.828 956.765C446.673 952.618 441.566 950.997 437.413 953.154C433.257 955.303 431.645 960.419 433.802 964.569C447.408 990.776 440.599 1023.31 417.606 1041.93C400.39 1055.87 377.666 1059.67 356.812 1052.09C352.427 1050.49 347.566 1052.76 345.967 1057.15C344.369 1061.55 346.637 1066.41 351.031 1068C377.122 1077.48 406.712 1072.53 428.261 1055.08Z" fill="#9B7ED4"/>
<path d="M427.063 809.432C423.905 809.432 420.878 811.205 419.42 814.245C416.609 820.102 414.523 826.298 413.227 832.656C412.158 837.91 411.613 843.31 411.613 848.7C411.613 876.084 425.402 901.222 448.494 915.944C455.052 920.124 462.163 923.307 469.628 925.407C474.141 926.673 478.806 924.039 480.076 919.529C481.341 915.017 478.71 910.332 474.207 909.066C468.342 907.418 462.749 904.917 457.594 901.629C439.412 890.041 428.56 870.253 428.56 848.7C428.56 844.446 428.99 840.192 429.832 836.054C430.852 831.061 432.489 826.191 434.695 821.59C436.721 817.365 434.945 812.297 430.726 810.268C429.545 809.696 428.294 809.43 427.063 809.43V809.432Z" fill="#F6E27F"/>
<path d="M489.462 774.318C506.177 772.857 518.541 758.12 517.08 741.405C515.619 724.69 500.882 712.325 484.167 713.787C467.452 715.248 455.088 729.985 456.549 746.7C458.01 763.414 472.747 775.779 489.462 774.318Z" fill="#02C39A"/>
<path d="M468.202 846.809C457.098 838.676 441.506 841.087 433.375 852.189C425.243 863.294 427.654 878.886 438.756 887.016C449.86 895.149 465.452 892.738 473.582 881.636C481.715 870.531 479.304 854.939 468.202 846.809Z" fill="#F6E27F"/>
<path d="M503.106 704.967C466.801 695.239 428.263 712.546 411.476 746.118C409.387 750.3 411.078 755.384 415.264 757.476C419.445 759.576 424.532 757.872 426.622 753.688C439.826 727.277 470.15 713.662 498.728 721.319C520.126 727.053 536.554 743.205 542.682 764.53C543.967 769.016 548.659 771.617 553.152 770.329C557.645 769.038 560.243 764.348 558.952 759.854C551.286 733.174 529.89 712.144 503.106 704.967Z" fill="#02C39A"/>
<path d="M554.701 821.97C548.687 837.633 556.512 855.207 572.176 861.221C587.84 867.235 605.413 859.41 611.427 843.746C617.441 828.082 609.616 810.509 593.952 804.495C578.289 798.481 560.715 806.306 554.701 821.97Z" fill="#9B7ED4"/>
<path d="M608.16 868.828C637.369 845.175 646.02 803.824 628.727 770.509C626.571 766.362 621.465 764.741 617.311 766.898C613.155 769.047 611.543 774.164 613.7 778.313C627.306 804.52 620.497 837.056 597.505 855.674C580.288 869.616 557.564 873.412 536.71 865.836C532.325 864.238 527.464 866.505 525.865 870.897C524.268 875.291 526.536 880.149 530.93 881.746C557.02 891.227 586.611 886.278 608.16 868.828Z" fill="#9B7ED4"/>
<path d="M606.961 623.181C603.804 623.181 600.776 624.954 599.319 627.994C596.508 633.851 594.422 640.047 593.126 646.406C592.057 651.659 591.512 657.059 591.512 662.449C591.512 689.833 605.3 714.971 628.392 729.693C634.95 733.874 642.061 737.057 649.526 739.156C654.04 740.422 658.705 737.788 659.975 733.278C661.239 728.766 658.608 724.081 654.105 722.815C648.241 721.167 642.648 718.666 637.493 715.378C619.31 703.79 608.458 684.002 608.458 662.449C608.458 658.195 608.888 653.942 609.73 649.803C610.75 644.81 612.387 639.94 614.593 635.339C616.619 631.114 614.844 626.046 610.625 624.017C609.444 623.445 608.192 623.179 606.961 623.179V623.181Z" fill="#F6E27F"/>
<path d="M669.36 588.068C686.075 586.607 698.44 571.87 696.979 555.155C695.517 538.44 680.78 526.076 664.066 527.537C647.351 528.998 634.986 543.735 636.447 560.45C637.909 577.165 652.646 589.529 669.36 588.068Z" fill="#02C39A"/>
<path d="M648.101 660.558C636.996 652.426 621.404 654.836 613.274 665.938C605.141 677.043 607.552 692.635 618.654 700.765C629.758 708.898 645.351 706.487 653.481 695.385C661.613 684.281 659.203 668.688 648.101 660.558Z" fill="#F6E27F"/>
<path d="M683.005 518.716C646.699 508.989 608.161 526.295 591.374 559.868C589.285 564.049 590.976 569.133 595.162 571.225C599.344 573.325 604.431 571.622 606.52 567.437C619.725 541.026 650.048 527.411 678.626 535.068C700.025 540.802 716.452 556.954 722.581 578.279C723.865 582.766 728.557 585.366 733.05 584.078C737.544 582.787 740.141 578.097 738.85 573.603C731.185 546.923 709.788 525.893 683.005 518.716Z" fill="#02C39A"/>
<path d="M734.599 635.718C728.586 651.382 736.411 668.955 752.074 674.969C767.738 680.983 785.312 673.158 791.326 657.494C797.34 641.831 789.514 624.257 773.851 618.243C758.187 612.229 740.613 620.054 734.599 635.718Z" fill="#9B7ED4"/>
<path d="M788.062 682.577C817.272 658.924 825.922 617.573 808.629 584.259C806.474 580.111 801.367 578.491 797.214 580.647C793.058 582.796 791.445 587.913 793.602 592.062C807.208 618.269 800.399 650.805 777.407 669.424C760.19 683.365 737.467 687.161 716.613 679.585C712.228 677.987 707.366 680.254 705.768 684.646C704.17 689.041 706.438 693.898 710.832 695.496C736.922 704.976 766.513 700.027 788.062 682.577Z" fill="#9B7ED4"/>
<path d="M786.86 436.928C783.702 436.928 780.675 438.701 779.217 441.741C776.406 447.598 774.32 453.794 773.024 460.153C771.955 465.406 771.41 470.806 771.41 476.196C771.41 503.58 785.199 528.718 808.291 543.44C814.849 547.62 821.959 550.804 829.425 552.903C833.938 554.169 838.603 551.535 839.873 547.025C841.138 542.513 838.507 537.828 834.004 536.562C828.139 534.914 822.546 532.413 817.391 529.125C799.209 517.537 788.356 497.749 788.356 476.196C788.356 471.942 788.787 467.689 789.629 463.55C790.648 458.557 792.286 453.687 794.492 449.086C796.518 444.861 794.742 439.793 790.523 437.764C789.342 437.192 788.09 436.926 786.86 436.926V436.928Z" fill="#F6E27F"/>
<path d="M849.255 401.814C865.97 400.353 878.334 385.616 876.873 368.901C875.412 352.186 860.675 339.822 843.96 341.283C827.245 342.744 814.88 357.481 816.342 374.196C817.803 390.911 832.54 403.275 849.255 401.814Z" fill="#02C39A"/>
<path d="M827.999 474.305C816.895 466.172 801.302 468.583 793.172 479.685C785.04 490.79 787.451 506.382 798.552 514.512C809.657 522.645 825.249 520.234 833.379 509.132C841.512 498.027 839.101 482.435 827.999 474.305Z" fill="#F6E27F"/>
<path d="M862.903 332.463C826.598 322.735 788.06 340.042 771.273 373.615C769.184 377.796 770.875 382.88 775.061 384.972C779.242 387.072 784.329 385.368 786.418 381.184C799.623 354.773 829.947 341.158 858.524 348.815C879.923 354.549 896.351 370.701 902.479 392.026C903.764 396.513 908.456 399.113 912.949 397.825C917.442 396.534 920.039 391.844 918.749 387.35C911.083 360.67 889.687 339.64 862.903 332.463Z" fill="#02C39A"/>
<path d="M914.502 449.465C908.488 465.129 916.313 482.702 931.977 488.716C947.64 494.73 965.214 486.905 971.228 471.241C977.242 455.578 969.417 438.004 953.753 431.99C938.089 425.976 920.516 433.801 914.502 449.465Z" fill="#9B7ED4"/>
<path d="M967.96 496.324C997.17 472.671 1005.82 431.32 988.527 398.005C986.372 393.858 981.266 392.238 977.112 394.394C972.956 396.543 971.344 401.66 973.501 405.809C987.107 432.016 980.298 464.552 957.305 483.171C940.089 497.112 917.365 500.908 896.511 493.332C892.126 491.734 887.265 494.001 885.666 498.393C884.069 502.788 886.336 507.645 890.731 509.243C916.821 518.723 946.411 513.774 967.96 496.324Z" fill="#9B7ED4"/>
<path d="M1141.28 51.2194C1138.12 51.2194 1135.09 52.9924 1133.64 56.0319C1130.83 61.8888 1128.74 68.0853 1127.44 74.4436C1126.37 79.6973 1125.83 85.0973 1125.83 90.4869C1125.83 117.871 1139.62 143.009 1162.71 157.731C1169.27 161.911 1176.38 165.095 1183.84 167.194C1188.36 168.46 1193.02 165.826 1194.29 161.316C1195.56 156.804 1192.93 152.119 1188.42 150.853C1182.56 149.205 1176.97 146.704 1171.81 143.416C1153.63 131.828 1142.78 112.04 1142.78 90.4869C1142.78 86.2332 1143.21 81.9795 1144.05 77.8408C1145.07 72.8481 1146.7 67.9782 1148.91 63.3772C1150.94 59.1523 1149.16 54.0839 1144.94 52.055C1143.76 51.4831 1142.51 51.2168 1141.28 51.2168V51.2194Z" fill="#F6E27F"/>
<path d="M1203.67 16.1062C1220.39 14.6449 1232.75 -0.0921989 1231.29 -16.8069C1229.83 -33.5216 1215.09 -45.8865 1198.38 -44.4252C1181.66 -42.9639 1169.3 -28.2268 1170.76 -11.5121C1172.22 5.20253 1186.96 17.5675 1203.67 16.1062Z" fill="#02C39A"/>
<path d="M1182.42 88.5952C1171.31 80.4625 1155.72 82.8734 1147.59 93.9753C1139.46 105.08 1141.87 120.672 1152.97 128.802C1164.08 136.935 1179.67 134.524 1187.8 123.422C1195.93 112.317 1193.52 96.7253 1182.42 88.5952Z" fill="#F6E27F"/>
<path d="M1217.32 -53.2456C1181.02 -62.9735 1142.48 -45.6667 1125.69 -12.0945C1123.6 -7.91284 1125.29 -2.82911 1129.48 -0.736572C1133.66 1.36284 1138.75 -0.340524 1140.84 -4.52465C1154.04 -30.9363 1184.37 -44.5513 1212.94 -36.894C1234.34 -31.1602 1250.77 -15.0077 1256.9 6.31686C1258.18 10.8035 1262.87 13.4038 1267.37 12.1157C1271.86 10.8251 1274.46 6.13516 1273.17 1.64142C1265.5 -25.0386 1244.11 -46.0689 1217.32 -53.2456Z" fill="#02C39A"/>
<path d="M1268.92 63.7567C1262.9 79.4204 1270.73 96.9942 1286.39 103.008C1302.06 109.022 1319.63 101.197 1325.64 85.5331C1331.66 69.8694 1323.83 52.2956 1308.17 46.2818C1292.5 40.268 1274.93 48.0931 1268.92 63.7567Z" fill="#9B7ED4"/>
<path d="M1322.38 110.615C1351.59 86.9616 1360.24 45.6109 1342.94 12.2965C1340.79 8.14884 1335.68 6.52857 1331.53 8.68513C1327.37 10.834 1325.76 15.9507 1327.92 20.1004C1341.52 46.3075 1334.71 78.8426 1311.72 97.4615C1294.5 111.403 1271.78 115.199 1250.93 107.623C1246.54 106.025 1241.68 108.292 1240.08 112.684C1238.48 117.079 1240.75 121.936 1245.15 123.534C1271.24 133.014 1300.83 128.065 1322.38 110.615Z" fill="#9B7ED4"/>
<path d="M-34.192 39.7314C-4.98228 16.0779 3.6684 -25.2729 -13.6249 -58.5873C-15.7802 -62.7349 -20.8868 -64.3552 -25.0402 -62.1987C-29.1964 -60.0498 -30.8085 -54.9331 -28.6515 -50.7834C-15.0454 -24.5763 -21.8546 7.95884 -44.847 26.5778C-62.0635 40.5194 -84.7872 44.3156 -105.641 36.7394C-110.026 35.1412 -114.888 37.4086 -116.486 41.8007C-118.084 46.1948 -115.816 51.0525 -111.422 52.6498C-85.3315 62.1303 -55.741 57.1815 -34.192 39.7314Z" fill="#9B7ED4"/>
<path d="M988.002 1298.22C1004.72 1296.76 1017.08 1282.02 1015.62 1265.31C1014.16 1248.6 999.422 1236.23 982.707 1237.69C965.992 1239.15 953.628 1253.89 955.089 1270.61C956.55 1287.32 971.287 1299.68 988.002 1298.22Z" fill="#02C39A"/>
<path d="M1001.65 1228.87C965.345 1219.14 926.807 1236.45 910.02 1270.02C907.931 1274.2 909.622 1279.29 913.808 1281.38C917.989 1283.48 923.076 1281.78 925.166 1277.59C938.37 1251.18 968.694 1237.57 997.272 1245.22C1018.67 1250.96 1035.1 1267.11 1041.23 1288.43C1042.51 1292.92 1047.2 1295.52 1051.7 1294.23C1056.19 1292.94 1058.79 1288.25 1057.5 1283.76C1049.83 1257.08 1028.43 1236.05 1001.65 1228.87Z" fill="#02C39A"/>
<path d="M1105.5 1147.08C1102.34 1147.08 1099.32 1148.86 1097.86 1151.9C1095.05 1157.75 1092.96 1163.95 1091.67 1170.31C1090.6 1175.56 1090.05 1180.96 1090.05 1186.35C1090.05 1213.73 1103.84 1238.87 1126.93 1253.59C1133.49 1257.77 1140.6 1260.96 1148.07 1263.06C1152.58 1264.32 1157.24 1261.69 1158.51 1257.18C1159.78 1252.67 1157.15 1247.98 1152.65 1246.72C1146.78 1245.07 1141.19 1242.57 1136.03 1239.28C1117.85 1227.69 1107 1207.9 1107 1186.35C1107 1182.1 1107.43 1177.84 1108.27 1173.7C1109.29 1168.71 1110.93 1163.84 1113.13 1159.24C1115.16 1155.02 1113.38 1149.95 1109.16 1147.92C1107.98 1147.35 1106.73 1147.08 1105.5 1147.08V1147.08Z" fill="#F6E27F"/>
<path d="M1167.9 1111.97C1184.61 1110.51 1196.98 1095.77 1195.51 1079.06C1194.05 1062.34 1179.32 1049.98 1162.6 1051.44C1145.89 1052.9 1133.52 1067.64 1134.98 1084.35C1136.44 1101.07 1151.18 1113.43 1167.9 1111.97Z" fill="#02C39A"/>
<path d="M1146.64 1184.46C1135.54 1176.33 1119.94 1178.74 1111.81 1189.84C1103.68 1200.94 1106.09 1216.54 1117.19 1224.67C1128.3 1232.8 1143.89 1230.39 1152.02 1219.29C1160.15 1208.18 1157.74 1192.59 1146.64 1184.46Z" fill="#F6E27F"/>
<path d="M1181.54 1042.62C1145.24 1032.89 1106.7 1050.2 1089.91 1083.77C1087.83 1087.95 1089.52 1093.03 1093.7 1095.13C1097.88 1097.23 1102.97 1095.52 1105.06 1091.34C1118.26 1064.93 1148.59 1051.31 1177.17 1058.97C1198.56 1064.7 1214.99 1080.86 1221.12 1102.18C1222.41 1106.67 1227.1 1109.27 1231.59 1107.98C1236.08 1106.69 1238.68 1102 1237.39 1097.5C1229.72 1070.82 1208.33 1049.79 1181.54 1042.62Z" fill="#02C39A"/>
<path d="M1233.14 1159.62C1227.13 1175.28 1234.95 1192.86 1250.62 1198.87C1266.28 1204.89 1283.86 1197.06 1289.87 1181.4C1295.88 1165.73 1288.06 1148.16 1272.39 1142.15C1256.73 1136.13 1239.16 1143.96 1233.14 1159.62Z" fill="#9B7ED4"/>
<path d="M1286.6 1206.48C1315.81 1182.82 1324.46 1141.47 1307.17 1108.16C1305.01 1104.01 1299.91 1102.39 1295.75 1104.55C1291.6 1106.7 1289.99 1111.81 1292.14 1115.96C1305.75 1142.17 1298.94 1174.71 1275.95 1193.32C1258.73 1207.27 1236.01 1211.06 1215.15 1203.49C1210.77 1201.89 1205.91 1204.16 1204.31 1208.55C1202.71 1212.94 1204.98 1217.8 1209.37 1219.4C1235.46 1228.88 1265.05 1223.93 1286.6 1206.48Z" fill="#9B7ED4"/>
<path d="M1285.4 960.83C1282.24 960.83 1279.21 962.603 1277.76 965.642C1274.95 971.499 1272.86 977.696 1271.56 984.054C1270.5 989.308 1269.95 994.708 1269.95 1000.1C1269.95 1027.48 1283.74 1052.62 1306.83 1067.34C1313.39 1071.52 1320.5 1074.7 1327.96 1076.8C1332.48 1078.07 1337.14 1075.44 1338.41 1070.93C1339.68 1066.41 1337.05 1061.73 1332.54 1060.46C1326.68 1058.82 1321.09 1056.31 1315.93 1053.03C1297.75 1041.44 1286.9 1021.65 1286.9 1000.1C1286.9 995.844 1287.33 991.59 1288.17 987.451C1289.19 982.458 1290.83 977.589 1293.03 972.988C1295.06 968.763 1293.28 963.694 1289.06 961.665C1287.88 961.093 1286.63 960.827 1285.4 960.827V960.83Z" fill="#F6E27F"/>
<path d="M1347.79 925.717C1364.51 924.256 1376.87 909.519 1375.41 892.804C1373.95 876.09 1359.21 863.725 1342.5 865.186C1325.79 866.647 1313.42 881.384 1314.88 898.099C1316.34 914.814 1331.08 927.179 1347.79 925.717Z" fill="#02C39A"/>
<path d="M1326.54 998.207C1315.43 990.074 1299.84 992.485 1291.71 1003.59C1283.58 1014.69 1285.99 1030.28 1297.09 1038.41C1308.2 1046.55 1323.79 1044.14 1331.92 1033.03C1340.05 1021.93 1337.64 1006.34 1326.54 998.207Z" fill="#F6E27F"/>
<path d="M1361.44 856.366C1325.14 846.638 1286.6 863.945 1269.81 897.517C1267.72 901.698 1269.41 906.782 1273.6 908.875C1277.78 910.974 1282.87 909.271 1284.96 905.087C1298.16 878.675 1328.49 865.06 1357.06 872.717C1378.46 878.451 1394.89 894.604 1401.02 915.928C1402.3 920.415 1407 923.015 1411.49 921.727C1415.98 920.436 1418.58 915.746 1417.29 911.253C1409.62 884.573 1388.23 863.542 1361.44 856.366Z" fill="#02C39A"/>
<path d="M1413.04 973.367C1407.02 989.031 1414.85 1006.6 1430.51 1012.62C1446.18 1018.63 1463.75 1010.81 1469.76 995.144C1475.78 979.48 1467.95 961.906 1452.29 955.892C1436.63 949.878 1419.05 957.704 1413.04 973.367Z" fill="#9B7ED4"/>
<path d="M1466.5 1020.23C1495.71 996.572 1504.36 955.221 1487.06 921.907C1484.91 917.759 1479.8 916.139 1475.65 918.295C1471.49 920.444 1469.88 925.561 1472.04 929.711C1485.64 955.918 1478.83 988.453 1455.84 1007.07C1438.62 1021.01 1415.9 1024.81 1395.05 1017.23C1390.66 1015.64 1385.8 1017.9 1384.2 1022.29C1382.6 1026.69 1384.87 1031.55 1389.27 1033.14C1415.36 1042.62 1444.95 1037.68 1466.5 1020.23Z" fill="#9B7ED4"/>
<path d="M1410.55 1206.23C1407.39 1206.23 1404.36 1208.01 1402.91 1211.05C1400.09 1216.9 1398.01 1223.1 1396.71 1229.46C1395.64 1234.71 1395.1 1240.11 1395.1 1245.5C1395.1 1272.89 1408.89 1298.02 1431.98 1312.75C1438.54 1316.93 1445.65 1320.11 1453.11 1322.21C1457.63 1323.48 1462.29 1320.84 1463.56 1316.33C1464.83 1311.82 1462.2 1307.13 1457.69 1305.87C1451.83 1304.22 1446.23 1301.72 1441.08 1298.43C1422.9 1286.84 1412.04 1267.05 1412.04 1245.5C1412.04 1241.25 1412.48 1236.99 1413.32 1232.86C1414.34 1227.86 1415.97 1222.99 1418.18 1218.39C1420.21 1214.17 1418.43 1209.1 1414.21 1207.07C1413.03 1206.5 1411.78 1206.23 1410.55 1206.23V1206.23Z" fill="#F6E27F"/>
<path d="M1472.95 1171.12C1489.66 1169.66 1502.03 1154.92 1500.57 1138.21C1499.1 1121.49 1484.37 1109.13 1467.65 1110.59C1450.94 1112.05 1438.57 1126.79 1440.03 1143.5C1441.5 1160.22 1456.23 1172.58 1472.95 1171.12Z" fill="#02C39A"/>
<path d="M1451.69 1243.61C1440.58 1235.48 1424.99 1237.89 1416.86 1248.99C1408.73 1260.1 1411.14 1275.69 1422.24 1283.82C1433.35 1291.95 1448.94 1289.54 1457.07 1278.44C1465.2 1267.33 1462.79 1251.74 1451.69 1243.61Z" fill="#F6E27F"/>
<path d="M1486.59 1101.77C1450.29 1092.04 1411.75 1109.35 1394.96 1142.92C1392.87 1147.1 1394.56 1152.19 1398.75 1154.28C1402.93 1156.38 1408.02 1154.68 1410.11 1150.49C1423.31 1124.08 1453.64 1110.46 1482.21 1118.12C1503.61 1123.86 1520.04 1140.01 1526.17 1161.33C1527.45 1165.82 1532.14 1168.42 1536.64 1167.13C1541.13 1165.84 1543.73 1161.15 1542.44 1156.66C1534.77 1129.98 1513.38 1108.95 1486.59 1101.77Z" fill="#02C39A"/>
<path d="M335.559 1213.57C332.401 1213.57 329.374 1215.34 327.916 1218.38C325.105 1224.24 323.019 1230.43 321.723 1236.79C320.654 1242.04 320.109 1247.44 320.109 1252.83C320.109 1280.22 333.898 1305.36 356.99 1320.08C363.548 1324.26 370.659 1327.44 378.124 1329.54C382.638 1330.81 387.302 1328.17 388.572 1323.66C389.837 1319.15 387.206 1314.47 382.703 1313.2C376.838 1311.55 371.245 1309.05 366.09 1305.76C347.908 1294.18 337.056 1274.39 337.056 1252.83C337.056 1248.58 337.486 1244.33 338.328 1240.19C339.348 1235.2 340.985 1230.33 343.191 1225.72C345.217 1221.5 343.441 1216.43 339.222 1214.4C338.041 1213.83 336.79 1213.56 335.559 1213.56V1213.57Z" fill="#F6E27F"/>
<path d="M397.954 1178.45C414.669 1176.99 427.034 1162.26 425.572 1145.54C424.111 1128.83 409.374 1116.46 392.659 1117.92C375.945 1119.38 363.58 1134.12 365.041 1150.84C366.502 1167.55 381.239 1179.92 397.954 1178.45Z" fill="#02C39A"/>
<path d="M376.698 1250.94C365.594 1242.81 350.002 1245.22 341.872 1256.32C333.739 1267.43 336.15 1283.02 347.252 1291.15C358.356 1299.28 373.948 1296.87 382.078 1285.77C390.211 1274.67 387.8 1259.07 376.698 1250.94Z" fill="#F6E27F"/>
<path d="M411.602 1109.1C375.297 1099.37 336.759 1116.68 319.972 1150.25C317.883 1154.44 319.574 1159.52 323.76 1161.61C327.941 1163.71 333.028 1162.01 335.118 1157.82C348.322 1131.41 378.646 1117.8 407.224 1125.45C428.622 1131.19 445.05 1147.34 451.179 1168.67C452.463 1173.15 457.155 1175.75 461.648 1174.46C466.142 1173.17 468.739 1168.48 467.448 1163.99C459.782 1137.31 438.386 1116.28 411.602 1109.1Z" fill="#02C39A"/>
<path d="M463.201 1226.1C457.187 1241.77 465.012 1259.34 480.676 1265.36C496.34 1271.37 513.913 1263.54 519.927 1247.88C525.941 1232.22 518.116 1214.64 502.452 1208.63C486.789 1202.62 469.215 1210.44 463.201 1226.1Z" fill="#9B7ED4"/>
<path d="M516.656 1272.96C545.865 1249.31 554.516 1207.96 537.223 1174.64C535.067 1170.5 529.961 1168.88 525.808 1171.03C521.651 1173.18 520.039 1178.3 522.196 1182.45C535.802 1208.65 528.993 1241.19 506.001 1259.81C488.784 1273.75 466.06 1277.55 445.206 1269.97C440.822 1268.37 435.96 1270.64 434.361 1275.03C432.764 1279.43 435.032 1284.28 439.426 1285.88C465.516 1295.36 495.107 1290.41 516.656 1272.96Z" fill="#9B7ED4"/>
<path d="M510.078 1027.31C506.921 1027.31 503.893 1029.09 502.436 1032.13C499.625 1037.98 497.539 1044.18 496.243 1050.54C495.174 1055.79 494.629 1061.19 494.629 1066.58C494.629 1093.96 508.417 1119.1 531.51 1133.82C538.067 1138.01 545.178 1141.19 552.643 1143.29C557.157 1144.55 561.822 1141.92 563.092 1137.41C564.356 1132.9 561.725 1128.21 557.222 1126.95C551.358 1125.3 545.765 1122.8 540.61 1119.51C522.428 1107.92 511.575 1088.13 511.575 1066.58C511.575 1062.33 512.005 1058.07 512.848 1053.93C513.867 1048.94 515.505 1044.07 517.711 1039.47C519.737 1035.25 517.961 1030.18 513.742 1028.15C512.561 1027.58 511.309 1027.31 510.078 1027.31V1027.31Z" fill="#F6E27F"/>
<path d="M572.474 992.2C589.188 990.739 601.553 976.002 600.092 959.287C598.631 942.572 583.894 930.207 567.179 931.669C550.464 933.13 538.099 947.867 539.561 964.582C541.022 981.296 555.759 993.661 572.474 992.2Z" fill="#02C39A"/>
<path d="M551.218 1064.69C540.113 1056.56 524.521 1058.97 516.391 1070.07C508.258 1081.17 510.669 1096.77 521.771 1104.9C532.876 1113.03 548.468 1110.62 556.598 1099.52C564.731 1088.41 562.32 1072.82 551.218 1064.69Z" fill="#F6E27F"/>
<path d="M586.122 922.848C549.817 913.12 511.278 930.427 494.491 963.999C492.403 968.181 494.093 973.265 498.279 975.357C502.461 977.457 507.548 975.753 509.637 971.569C522.842 945.157 553.166 931.542 581.743 939.2C603.142 944.934 619.57 961.086 625.698 982.411C626.983 986.897 631.674 989.498 636.167 988.209C640.661 986.919 643.258 982.229 641.968 977.735C634.302 951.055 612.905 930.025 586.122 922.848Z" fill="#02C39A"/>
<path d="M637.717 1039.85C631.703 1055.51 639.528 1073.09 655.192 1079.1C670.855 1085.12 688.429 1077.29 694.443 1061.63C700.457 1045.96 692.632 1028.39 676.968 1022.38C661.304 1016.36 643.73 1024.19 637.717 1039.85Z" fill="#9B7ED4"/>
<path d="M691.171 1086.71C720.381 1063.06 729.032 1021.7 711.738 988.39C709.583 984.243 704.476 982.622 700.323 984.779C696.167 986.928 694.555 992.044 696.712 996.194C710.318 1022.4 703.509 1054.94 680.516 1073.56C663.3 1087.5 640.576 1091.29 619.722 1083.72C615.337 1082.12 610.476 1084.39 608.877 1088.78C607.28 1093.17 609.547 1098.03 613.941 1099.63C640.032 1109.11 669.622 1104.16 691.171 1086.71Z" fill="#9B7ED4"/>
<path d="M689.981 841.061C686.823 841.061 683.796 842.834 682.338 845.874C679.527 851.731 677.441 857.927 676.145 864.285C675.076 869.539 674.531 874.939 674.531 880.329C674.531 907.712 688.32 932.851 711.412 947.573C717.97 951.753 725.081 954.936 732.546 957.036C737.059 958.302 741.724 955.667 742.994 951.158C744.259 946.646 741.628 941.961 737.125 940.695C731.26 939.047 725.667 936.546 720.512 933.258C702.33 921.669 691.477 901.882 691.477 880.329C691.477 876.075 691.908 871.821 692.75 867.683C693.769 862.69 695.407 857.82 697.613 853.219C699.639 848.994 697.863 843.926 693.644 841.897C692.463 841.325 691.212 841.059 689.981 841.059V841.061Z" fill="#F6E27F"/>
<path d="M752.376 805.947C769.091 804.486 781.456 789.749 779.994 773.034C778.533 756.319 763.796 743.954 747.081 745.416C730.367 746.877 718.002 761.614 719.463 778.329C720.924 795.043 735.661 807.408 752.376 805.947Z" fill="#02C39A"/>
<path d="M731.116 878.437C720.012 870.304 704.42 872.715 696.29 883.817C688.157 894.922 690.568 910.514 701.67 918.644C712.774 926.777 728.366 924.366 736.496 913.264C744.629 902.159 742.218 886.567 731.116 878.437Z" fill="#F6E27F"/>
<path d="M766.024 736.596C729.719 726.868 691.181 744.175 674.394 777.747C672.305 781.929 673.996 787.013 678.182 789.105C682.363 791.205 687.45 789.501 689.54 785.317C702.744 758.905 733.068 745.29 761.646 752.948C783.044 758.682 799.472 774.834 805.6 796.159C806.885 800.645 811.577 803.246 816.07 801.958C820.563 800.667 823.161 795.977 821.87 791.483C814.204 764.803 792.808 743.773 766.024 736.596Z" fill="#02C39A"/>
<path d="M817.619 853.599C811.605 869.262 819.43 886.836 835.094 892.85C850.758 898.864 868.331 891.039 874.345 875.375C880.359 859.711 872.534 842.138 856.87 836.124C841.207 830.11 823.633 837.935 817.619 853.599Z" fill="#9B7ED4"/>
<path d="M871.078 900.457C900.287 876.803 908.938 835.453 891.645 802.138C889.489 797.991 884.383 796.37 880.229 798.527C876.073 800.676 874.461 805.793 876.618 809.942C890.224 836.149 883.415 868.684 860.423 887.303C843.206 901.245 820.482 905.041 799.628 897.465C795.243 895.867 790.382 898.134 788.783 902.526C787.186 906.92 789.454 911.778 793.848 913.375C819.938 922.856 849.529 917.907 871.078 900.457Z" fill="#9B7ED4"/>
<path d="M869.875 654.807C866.718 654.807 863.69 656.58 862.233 659.62C859.422 665.477 857.336 671.673 856.04 678.031C854.971 683.285 854.426 688.685 854.426 694.075C854.426 721.459 868.214 746.597 891.306 761.319C897.864 765.499 904.975 768.682 912.44 770.782C916.954 772.048 921.619 769.414 922.889 764.904C924.153 760.392 921.522 755.707 917.019 754.441C911.155 752.793 905.562 750.292 900.407 747.004C882.224 735.416 871.372 715.628 871.372 694.075C871.372 689.821 871.802 685.567 872.644 681.429C873.664 676.436 875.302 671.566 877.507 666.965C879.534 662.74 877.758 657.672 873.539 655.643C872.358 655.071 871.106 654.805 869.875 654.805V654.807Z" fill="#F6E27F"/>
<path d="M932.275 619.694C948.99 618.233 961.355 603.496 959.894 586.781C958.432 570.066 943.695 557.701 926.981 559.163C910.266 560.624 897.901 575.361 899.362 592.076C900.824 608.79 915.561 621.155 932.275 619.694Z" fill="#02C39A"/>
<path d="M911.019 692.183C899.914 684.05 884.322 686.461 876.192 697.563C868.059 708.668 870.47 724.26 881.572 732.39C892.676 740.523 908.269 738.112 916.399 727.01C924.531 715.905 922.121 700.313 911.019 692.183Z" fill="#F6E27F"/>
<path d="M945.923 550.342C909.617 540.614 871.079 557.921 854.292 591.493C852.203 595.675 853.894 600.759 858.08 602.851C862.262 604.951 867.349 603.247 869.438 599.063C882.642 572.652 912.966 559.037 941.544 566.694C962.943 572.428 979.37 588.58 985.499 609.905C986.783 614.391 991.475 616.992 995.968 615.704C1000.46 614.413 1003.06 609.723 1001.77 605.229C994.103 578.549 972.706 557.519 945.923 550.342Z" fill="#02C39A"/>
<path d="M997.518 667.345C991.505 683.008 999.33 700.582 1014.99 706.596C1030.66 712.61 1048.23 704.785 1054.24 689.121C1060.26 673.457 1052.43 655.883 1036.77 649.87C1021.11 643.856 1003.53 651.681 997.518 667.345Z" fill="#9B7ED4"/>
<path d="M1050.98 714.202C1080.19 690.549 1088.84 649.198 1071.54 615.883C1069.39 611.736 1064.28 610.115 1060.13 612.272C1055.97 614.421 1054.36 619.538 1056.52 623.687C1070.12 649.894 1063.31 682.43 1040.32 701.048C1023.11 714.99 1000.38 718.786 979.528 711.21C975.143 709.612 970.281 711.879 968.683 716.271C967.085 720.665 969.353 725.523 973.747 727.12C999.837 736.601 1029.43 731.652 1050.98 714.202Z" fill="#9B7ED4"/>
<path d="M1049.77 468.553C1046.62 468.553 1043.59 470.326 1042.13 473.366C1039.32 479.223 1037.24 485.419 1035.94 491.778C1034.87 497.031 1034.33 502.431 1034.33 507.821C1034.33 535.205 1048.11 560.343 1071.21 575.065C1077.76 579.245 1084.87 582.429 1092.34 584.528C1096.85 585.794 1101.52 583.16 1102.79 578.65C1104.05 574.138 1101.42 569.453 1096.92 568.187C1091.05 566.539 1085.46 564.038 1080.31 560.75C1062.12 549.162 1051.27 529.374 1051.27 507.821C1051.27 503.567 1051.7 499.314 1052.54 495.175C1053.56 490.182 1055.2 485.312 1057.41 480.711C1059.43 476.486 1057.66 471.418 1053.44 469.389C1052.26 468.817 1051.01 468.551 1049.77 468.551V468.553Z" fill="#F6E27F"/>
<path d="M1112.17 433.439C1128.88 431.978 1141.25 417.241 1139.79 400.526C1138.33 383.811 1123.59 371.447 1106.88 372.908C1090.16 374.369 1077.8 389.106 1079.26 405.821C1080.72 422.536 1095.46 434.9 1112.17 433.439Z" fill="#02C39A"/>
<path d="M1090.91 505.929C1079.81 497.797 1064.22 500.207 1056.09 511.309C1047.95 522.414 1050.37 538.006 1061.47 546.136C1072.57 554.269 1088.16 551.858 1096.29 540.756C1104.43 529.651 1102.02 514.059 1090.91 505.929Z" fill="#F6E27F"/>
<path d="M1125.82 364.088C1089.51 354.36 1050.97 371.667 1034.19 405.24C1032.1 409.421 1033.79 414.505 1037.98 416.597C1042.16 418.697 1047.24 416.993 1049.33 412.809C1062.54 386.398 1092.86 372.783 1121.44 380.44C1142.84 386.174 1159.27 402.326 1165.39 423.651C1166.68 428.138 1171.37 430.738 1175.86 429.45C1180.36 428.159 1182.95 423.469 1181.66 418.975C1174 392.295 1152.6 371.265 1125.82 364.088Z" fill="#02C39A"/>
<path d="M1177.41 481.092C1171.4 496.755 1179.22 514.329 1194.89 520.343C1210.55 526.357 1228.13 518.532 1234.14 502.868C1240.15 487.204 1232.33 469.631 1216.66 463.617C1201 457.603 1183.43 465.428 1177.41 481.092Z" fill="#9B7ED4"/>
<path d="M1230.87 527.949C1260.08 504.296 1268.73 462.945 1251.44 429.63C1249.28 425.483 1244.18 423.863 1240.02 426.019C1235.87 428.168 1234.26 433.285 1236.41 437.434C1250.02 463.641 1243.21 496.177 1220.22 514.796C1203 528.737 1180.28 532.533 1159.42 524.957C1155.04 523.359 1150.18 525.626 1148.58 530.018C1146.98 534.413 1149.25 539.27 1153.64 540.868C1179.73 550.348 1209.32 545.399 1230.87 527.949Z" fill="#9B7ED4"/>
<path d="M1224.29 269.102C1221.14 269.102 1218.11 270.875 1216.65 273.915C1213.84 279.772 1211.75 285.968 1210.46 292.326C1209.39 297.58 1208.84 302.98 1208.84 308.37C1208.84 335.754 1222.63 360.892 1245.73 375.614C1252.28 379.794 1259.39 382.977 1266.86 385.077C1271.37 386.343 1276.04 383.708 1277.31 379.199C1278.57 374.687 1275.94 370.002 1271.44 368.736C1265.57 367.088 1259.98 364.587 1254.83 361.299C1236.64 349.71 1225.79 329.923 1225.79 308.37C1225.79 304.116 1226.22 299.862 1227.06 295.724C1228.08 290.731 1229.72 285.861 1231.93 281.26C1233.95 277.035 1232.18 271.967 1227.96 269.938C1226.78 269.366 1225.52 269.1 1224.29 269.1V269.102Z" fill="#F6E27F"/>
<path d="M1286.69 233.988C1303.4 232.527 1315.77 217.79 1314.31 201.075C1312.85 184.36 1298.11 171.995 1281.39 173.457C1264.68 174.918 1252.32 189.655 1253.78 206.37C1255.24 223.084 1269.97 235.449 1286.69 233.988Z" fill="#02C39A"/>
<path d="M1265.43 306.479C1254.33 298.346 1238.74 300.757 1230.61 311.859C1222.47 322.964 1224.89 338.556 1235.99 346.686C1247.09 354.819 1262.68 352.408 1270.81 341.306C1278.95 330.201 1276.54 314.609 1265.43 306.479Z" fill="#F6E27F"/>
<path d="M1300.34 164.637C1264.03 154.909 1225.49 172.216 1208.71 205.788C1206.62 209.97 1208.31 215.054 1212.5 217.146C1216.68 219.246 1221.76 217.542 1223.85 213.358C1237.06 186.946 1267.38 173.331 1295.96 180.989C1317.36 186.723 1333.79 202.875 1339.91 224.2C1341.2 228.686 1345.89 231.287 1350.38 229.999C1354.88 228.708 1357.47 224.018 1356.18 219.524C1348.52 192.844 1327.12 171.814 1300.34 164.637Z" fill="#02C39A"/>
<path d="M1351.94 281.641C1345.92 297.304 1353.75 314.878 1369.41 320.892C1385.07 326.906 1402.65 319.081 1408.66 303.417C1414.68 287.753 1406.85 270.179 1391.19 264.166C1375.52 258.152 1357.95 265.977 1351.94 281.641Z" fill="#9B7ED4"/>
<path d="M1405.39 328.498C1434.6 304.844 1443.26 263.494 1425.96 230.179C1423.81 226.032 1418.7 224.411 1414.55 226.568C1410.39 228.717 1408.78 233.834 1410.94 237.983C1424.54 264.19 1417.73 296.725 1394.74 315.344C1377.52 329.286 1354.8 333.082 1333.95 325.506C1329.56 323.908 1324.7 326.175 1323.1 330.567C1321.5 334.961 1323.77 339.819 1328.17 341.416C1354.26 350.897 1383.85 345.948 1405.39 328.498Z" fill="#9B7ED4"/>
<path d="M1404.19 82.8483C1401.03 82.8483 1398.01 84.6213 1396.55 87.6608C1393.74 93.5177 1391.65 99.7142 1390.36 106.072C1389.29 111.326 1388.74 116.726 1388.74 122.116C1388.74 149.5 1402.53 174.638 1425.62 189.36C1432.18 193.54 1439.29 196.723 1446.76 198.823C1451.27 200.089 1455.94 197.455 1457.21 192.945C1458.47 188.433 1455.84 183.748 1451.34 182.482C1445.47 180.834 1439.88 178.333 1434.72 175.045C1416.54 163.457 1405.69 143.669 1405.69 122.116C1405.69 117.862 1406.12 113.608 1406.96 109.47C1407.98 104.477 1409.62 99.6071 1411.82 95.0061C1413.85 90.7812 1412.08 85.7128 1407.86 83.6839C1406.68 83.112 1405.42 82.8457 1404.19 82.8457V82.8483Z" fill="#F6E27F"/>
<path d="M1466.59 47.7351C1483.31 46.2738 1495.67 31.5367 1494.21 14.822C1492.75 -1.89265 1478.01 -14.2576 1461.3 -12.7963C1444.58 -11.335 1432.22 3.40208 1433.68 20.1168C1435.14 36.8314 1449.88 49.1964 1466.59 47.7351Z" fill="#02C39A"/>
<path d="M1445.33 120.224C1434.23 112.091 1418.64 114.502 1410.51 125.604C1402.37 136.709 1404.78 152.301 1415.89 160.431C1426.99 168.564 1442.58 166.153 1450.71 155.051C1458.84 143.946 1456.43 128.354 1445.33 120.224Z" fill="#F6E27F"/>
<path d="M1480.24 -21.6167C1443.93 -31.3446 1405.39 -14.0378 1388.61 19.5345C1386.52 23.7161 1388.21 28.7998 1392.39 30.8923C1396.58 32.9917 1401.66 31.2884 1403.75 27.1043C1416.96 0.692585 1447.28 -12.9224 1475.86 -5.26505C1497.26 0.468696 1513.68 16.6212 1519.81 37.9458C1521.1 42.4325 1525.79 45.0327 1530.28 43.7446C1534.78 42.454 1537.37 37.7641 1536.08 33.2703C1528.42 6.59035 1507.02 -14.44 1480.24 -21.6167Z" fill="#02C39A"/>
<path d="M664.376 1246.4C681.091 1244.94 693.456 1230.21 691.994 1213.49C690.533 1196.78 675.796 1184.41 659.081 1185.87C642.367 1187.33 630.002 1202.07 631.463 1218.79C632.924 1235.5 647.661 1247.87 664.376 1246.4Z" fill="#02C39A"/>
<path d="M678.024 1177.05C641.719 1167.32 603.181 1184.63 586.394 1218.2C584.305 1222.39 585.996 1227.47 590.182 1229.56C594.363 1231.66 599.45 1229.96 601.54 1225.77C614.744 1199.36 645.068 1185.75 673.646 1193.4C695.044 1199.14 711.472 1215.29 717.6 1236.61C718.885 1241.1 723.577 1243.7 728.07 1242.41C732.563 1241.12 735.161 1236.43 733.87 1231.94C726.204 1205.26 704.808 1184.23 678.024 1177.05Z" fill="#02C39A"/>
<path d="M729.619 1294.05C723.605 1309.72 731.43 1327.29 747.094 1333.3C762.758 1339.32 780.331 1331.49 786.345 1315.83C792.359 1300.17 784.534 1282.59 768.87 1276.58C753.207 1270.56 735.633 1278.39 729.619 1294.05Z" fill="#9B7ED4"/>
<path d="M783.078 1340.91C812.287 1317.26 820.938 1275.91 803.645 1242.59C801.489 1238.45 796.383 1236.83 792.229 1238.98C788.073 1241.13 786.461 1246.25 788.618 1250.4C802.224 1276.6 795.415 1309.14 772.423 1327.76C755.206 1341.7 732.482 1345.5 711.628 1337.92C707.243 1336.32 702.382 1338.59 700.783 1342.98C699.186 1347.38 701.454 1352.23 705.848 1353.83C731.938 1363.31 761.529 1358.36 783.078 1340.91Z" fill="#9B7ED4"/>
<path d="M781.879 1095.26C778.722 1095.26 775.694 1097.04 774.237 1100.08C771.426 1105.93 769.34 1112.13 768.044 1118.49C766.975 1123.74 766.43 1129.14 766.43 1134.53C766.43 1161.92 780.218 1187.05 803.31 1201.78C809.868 1205.96 816.979 1209.14 824.444 1211.24C828.958 1212.51 833.623 1209.87 834.893 1205.36C836.157 1200.85 833.526 1196.16 829.023 1194.9C823.159 1193.25 817.566 1190.75 812.411 1187.46C794.228 1175.87 783.376 1156.08 783.376 1134.53C783.376 1130.28 783.806 1126.02 784.648 1121.89C785.668 1116.89 787.305 1112.02 789.511 1107.42C791.537 1103.2 789.762 1098.13 785.543 1096.1C784.362 1095.53 783.11 1095.26 781.879 1095.26V1095.26Z" fill="#F6E27F"/>
<path d="M844.274 1060.15C860.989 1058.69 873.354 1043.95 871.893 1027.24C870.431 1010.52 855.694 998.158 838.98 999.62C822.265 1001.08 809.9 1015.82 811.361 1032.53C812.823 1049.25 827.56 1061.61 844.274 1060.15Z" fill="#02C39A"/>
<path d="M823.019 1132.64C811.914 1124.51 796.322 1126.92 788.192 1138.02C780.059 1149.12 782.47 1164.72 793.572 1172.85C804.676 1180.98 820.269 1178.57 828.399 1167.47C836.531 1156.36 834.121 1140.77 823.019 1132.64Z" fill="#F6E27F"/>
<path d="M857.927 990.799C821.621 981.071 783.083 998.378 766.296 1031.95C764.207 1036.13 765.898 1041.22 770.084 1043.31C774.265 1045.41 779.353 1043.7 781.442 1039.52C794.646 1013.11 824.97 999.494 853.548 1007.15C874.947 1012.88 891.374 1029.04 897.503 1050.36C898.787 1054.85 903.479 1057.45 907.972 1056.16C912.466 1054.87 915.063 1050.18 913.772 1045.69C906.107 1019.01 884.71 997.976 857.927 990.799Z" fill="#02C39A"/>
<path d="M909.525 1107.8C903.511 1123.46 911.337 1141.04 927 1147.05C942.664 1153.06 960.238 1145.24 966.251 1129.58C972.265 1113.91 964.44 1096.34 948.777 1090.32C933.113 1084.31 915.539 1092.14 909.525 1107.8Z" fill="#9B7ED4"/>
<path d="M962.984 1154.66C992.194 1131 1000.84 1089.65 983.551 1056.34C981.396 1052.19 976.289 1050.57 972.136 1052.73C967.979 1054.88 966.367 1059.99 968.524 1064.14C982.13 1090.35 975.321 1122.88 952.329 1141.5C935.112 1155.45 912.389 1159.24 891.534 1151.67C887.15 1150.07 882.288 1152.33 880.689 1156.73C879.092 1161.12 881.36 1165.98 885.754 1167.58C911.844 1177.06 941.435 1172.11 962.984 1154.66Z" fill="#9B7ED4"/>
<path d="M961.779 909.011C958.621 909.011 955.594 910.784 954.136 913.824C951.325 919.681 949.239 925.877 947.943 932.236C946.874 937.489 946.329 942.889 946.329 948.279C946.329 975.663 960.118 1000.8 983.21 1015.52C989.768 1019.7 996.878 1022.89 1004.34 1024.99C1008.86 1026.25 1013.52 1023.62 1014.79 1019.11C1016.06 1014.6 1013.43 1009.91 1008.92 1008.64C1003.06 1007 997.465 1004.5 992.31 1001.21C974.128 989.62 963.275 969.832 963.275 948.279C963.275 944.025 963.706 939.772 964.548 935.633C965.567 930.64 967.205 925.77 969.411 921.169C971.437 916.944 969.661 911.876 965.442 909.847C964.261 909.275 963.009 909.009 961.779 909.009V909.011Z" fill="#F6E27F"/>
<path d="M1024.17 873.898C1040.89 872.437 1053.25 857.7 1051.79 840.985C1050.33 824.27 1035.59 811.906 1018.88 813.367C1002.16 814.828 989.799 829.565 991.261 846.28C992.722 862.995 1007.46 875.359 1024.17 873.898Z" fill="#02C39A"/>
<path d="M1002.92 946.387C991.814 938.255 976.221 940.665 968.091 951.767C959.959 962.872 962.369 978.464 973.471 986.594C984.576 994.727 1000.17 992.316 1008.3 981.214C1016.43 970.109 1014.02 954.517 1002.92 946.387Z" fill="#F6E27F"/>
<path d="M1037.82 804.546C1001.52 794.818 962.979 812.125 946.191 845.698C944.103 849.879 945.794 854.963 949.98 857.055C954.161 859.155 959.248 857.451 961.337 853.267C974.542 826.856 1004.87 813.241 1033.44 820.898C1054.84 826.632 1071.27 842.784 1077.4 864.109C1078.68 868.596 1083.37 871.196 1087.87 869.908C1092.36 868.617 1094.96 863.927 1093.67 859.433C1086 832.753 1064.61 811.723 1037.82 804.546Z" fill="#02C39A"/>
<path d="M1089.42 921.549C1083.4 937.213 1091.23 954.786 1106.89 960.8C1122.56 966.814 1140.13 958.989 1146.14 943.325C1152.16 927.662 1144.33 910.088 1128.67 904.074C1113 898.06 1095.43 905.885 1089.42 921.549Z" fill="#9B7ED4"/>
<path d="M1142.88 968.407C1172.09 944.754 1180.74 903.403 1163.44 870.088C1161.29 865.941 1156.18 864.321 1152.03 866.477C1147.87 868.626 1146.26 873.743 1148.42 877.892C1162.02 904.099 1155.21 936.635 1132.22 955.254C1115 969.195 1092.28 972.991 1071.43 965.415C1067.04 963.817 1062.18 966.084 1060.58 970.476C1058.98 974.871 1061.25 979.728 1065.65 981.326C1091.74 990.806 1121.33 985.857 1142.88 968.407Z" fill="#9B7ED4"/>
<path d="M1141.68 722.758C1138.52 722.758 1135.49 724.531 1134.03 727.571C1131.22 733.428 1129.14 739.624 1127.84 745.983C1126.77 751.236 1126.23 756.636 1126.23 762.026C1126.23 789.41 1140.02 814.548 1163.11 829.27C1169.67 833.451 1176.78 836.634 1184.24 838.733C1188.76 839.999 1193.42 837.365 1194.69 832.855C1195.96 828.343 1193.32 823.658 1188.82 822.392C1182.96 820.744 1177.36 818.243 1172.21 814.955C1154.03 803.367 1143.17 783.579 1143.17 762.026C1143.17 757.772 1143.6 753.519 1144.45 749.38C1145.47 744.387 1147.1 739.517 1149.31 734.916C1151.34 730.691 1149.56 725.623 1145.34 723.594C1144.16 723.022 1142.91 722.756 1141.68 722.756V722.758Z" fill="#F6E27F"/>
<path d="M1204.07 687.645C1220.79 686.184 1233.15 671.447 1231.69 654.732C1230.23 638.018 1215.49 625.653 1198.78 627.114C1182.06 628.575 1169.7 643.312 1171.16 660.027C1172.62 676.742 1187.36 689.107 1204.07 687.645Z" fill="#02C39A"/>
<path d="M1182.82 760.134C1171.71 752.002 1156.12 754.412 1147.99 765.514C1139.86 776.619 1142.27 792.211 1153.37 800.341C1164.47 808.474 1180.07 806.063 1188.2 794.961C1196.33 783.857 1193.92 768.264 1182.82 760.134Z" fill="#F6E27F"/>
<path d="M1217.72 618.293C1181.42 608.566 1142.88 625.872 1126.09 659.445C1124 663.626 1125.69 668.71 1129.88 670.802C1134.06 672.902 1139.15 671.199 1141.24 667.014C1154.44 640.603 1184.76 626.988 1213.34 634.645C1234.74 640.379 1251.17 656.531 1257.3 677.856C1258.58 682.343 1263.27 684.943 1267.77 683.655C1272.26 682.364 1274.86 677.674 1273.57 673.18C1265.9 646.501 1244.5 625.47 1217.72 618.293Z" fill="#02C39A"/>
<path d="M1269.32 735.296C1263.3 750.96 1271.13 768.533 1286.79 774.547C1302.45 780.561 1320.03 772.736 1326.04 757.072C1332.06 741.409 1324.23 723.835 1308.57 717.821C1292.9 711.807 1275.33 719.632 1269.32 735.296Z" fill="#9B7ED4"/>
<path d="M1322.77 782.154C1351.98 758.501 1360.63 717.15 1343.34 683.836C1341.19 679.688 1336.08 678.068 1331.93 680.224C1327.77 682.373 1326.16 687.49 1328.31 691.639C1341.92 717.847 1335.11 750.382 1312.12 769.001C1294.9 782.942 1272.18 786.738 1251.32 779.162C1246.94 777.564 1242.08 779.831 1240.48 784.224C1238.88 788.618 1241.15 793.475 1245.54 795.073C1271.63 804.553 1301.22 799.604 1322.77 782.154Z" fill="#9B7ED4"/>
<path d="M1316.2 523.305C1313.04 523.305 1310.02 525.078 1308.56 528.118C1305.75 533.975 1303.66 540.171 1302.37 546.529C1301.3 551.783 1300.75 557.183 1300.75 562.573C1300.75 589.957 1314.54 615.095 1337.63 629.817C1344.19 633.997 1351.3 637.18 1358.77 639.28C1363.28 640.546 1367.94 637.912 1369.21 633.402C1370.48 628.89 1367.85 624.205 1363.34 622.939C1357.48 621.291 1351.89 618.79 1346.73 615.502C1328.55 603.914 1317.7 584.126 1317.7 562.573C1317.7 558.319 1318.13 554.065 1318.97 549.927C1319.99 544.934 1321.63 540.064 1323.83 535.463C1325.86 531.238 1324.08 526.17 1319.86 524.141C1318.68 523.569 1317.43 523.303 1316.2 523.303V523.305Z" fill="#F6E27F"/>
<path d="M1378.6 488.191C1395.31 486.73 1407.68 471.993 1406.22 455.278C1404.76 438.563 1390.02 426.198 1373.3 427.66C1356.59 429.121 1344.23 443.858 1345.69 460.573C1347.15 477.287 1361.88 489.652 1378.6 488.191Z" fill="#02C39A"/>
<path d="M1357.34 560.682C1346.24 552.549 1330.64 554.96 1322.51 566.062C1314.38 577.167 1316.79 592.759 1327.89 600.889C1339 609.022 1354.59 606.611 1362.72 595.509C1370.85 584.404 1368.44 568.812 1357.34 560.682Z" fill="#F6E27F"/>
<path d="M1392.24 418.84C1355.94 409.112 1317.4 426.419 1300.61 459.991C1298.52 464.173 1300.22 469.257 1304.4 471.349C1308.58 473.449 1313.67 471.745 1315.76 467.561C1328.96 441.15 1359.29 427.535 1387.87 435.192C1409.26 440.926 1425.69 457.078 1431.82 478.403C1433.1 482.889 1437.8 485.49 1442.29 484.202C1446.78 482.911 1449.38 478.221 1448.09 473.727C1440.42 447.047 1419.03 426.017 1392.24 418.84Z" fill="#02C39A"/>
<path d="M1443.83 535.843C1437.82 551.506 1445.65 569.08 1461.31 575.094C1476.97 581.108 1494.55 573.283 1500.56 557.619C1506.57 541.955 1498.75 524.382 1483.09 518.368C1467.42 512.354 1449.85 520.179 1443.83 535.843Z" fill="#9B7ED4"/>
<path d="M1497.29 582.701C1526.5 559.048 1535.15 517.697 1517.86 484.382C1515.71 480.235 1510.6 478.614 1506.45 480.771C1502.29 482.92 1500.68 488.037 1502.83 492.186C1516.44 518.393 1509.63 550.929 1486.64 569.547C1469.42 583.489 1446.7 587.285 1425.84 579.709C1421.46 578.111 1416.6 580.378 1415 584.77C1413.4 589.165 1415.67 594.022 1420.06 595.62C1446.15 605.1 1475.74 600.151 1497.29 582.701Z" fill="#9B7ED4"/>
</svg>
