<svg width="263" height="81" viewBox="0 0 263 81" fill="none" xmlns="http://www.w3.org/2000/svg">
<path d="M117.874 31.799C121.023 31.799 123.558 32.7404 125.479 34.6232C127.432 36.5061 128.408 39.2989 128.408 43.0018V56.2822C128.408 56.9546 127.862 57.4996 127.189 57.4996H122.258C121.585 57.4996 121.039 56.9546 121.039 56.2822V44.1315C121.039 42.1232 120.598 40.6326 119.716 39.6598C118.835 38.6556 117.559 38.1535 115.89 38.1535C114.032 38.1535 112.552 38.7341 111.45 39.8951C110.348 41.0248 109.797 42.7194 109.797 44.9788V56.2822C109.797 56.9546 109.251 57.4996 108.578 57.4996H103.646C102.973 57.4996 102.428 56.9546 102.428 56.2822V23.7905C102.428 23.1181 102.973 22.5731 103.646 22.5731H108.578C109.251 22.5731 109.797 23.1181 109.797 23.7905V31.8777C109.797 32.9615 111.202 33.5936 112.169 33.1036C112.542 32.9151 112.932 32.7469 113.339 32.5992C114.725 32.0657 116.237 31.799 117.874 31.799Z" fill="white"/>
<path d="M157.109 32.1755C157.782 32.1755 158.328 32.7206 158.328 33.3929V56.2822C158.328 56.9546 157.782 57.4996 157.109 57.4996H152.167C151.709 57.4996 151.337 57.1283 151.337 56.6702C151.337 55.9074 150.34 55.504 149.723 55.9523C149.142 56.3733 148.515 56.7322 147.841 57.0289C146.487 57.5937 145.023 57.8762 143.448 57.8762C140.11 57.8762 137.465 56.919 135.513 55.0048C133.56 53.0906 132.584 50.2507 132.584 46.485V33.3929C132.584 32.7206 133.13 32.1755 133.803 32.1755H138.734C139.407 32.1755 139.953 32.7206 139.953 33.3929V45.4024C139.953 49.4819 141.669 51.5216 145.102 51.5216C146.865 51.5216 148.282 50.9568 149.353 49.8271C150.424 48.666 150.959 46.9557 150.959 44.6964V33.3929C150.959 32.7206 151.505 32.1755 152.178 32.1755H157.109Z" fill="white"/>
<path d="M187.46 22.5731C188.133 22.5731 188.679 23.1181 188.679 23.7905V56.2822C188.679 56.9546 188.133 57.4996 187.46 57.4996H182.416C181.988 57.4996 181.64 57.1529 181.64 56.7253C181.64 56.0004 180.669 55.6208 180.083 56.0481C178.411 57.2668 176.285 57.8762 173.705 57.8762C171.311 57.8762 169.138 57.3427 167.186 56.2757C165.265 55.2088 163.753 53.6869 162.651 51.7099C161.549 49.7329 160.998 47.4421 160.998 44.8376C160.998 42.233 161.549 39.9422 162.651 37.9652C163.753 35.9883 165.265 34.4663 167.186 33.3994C169.138 32.3324 171.311 31.799 173.705 31.799C175.663 31.799 177.363 32.1707 178.805 32.9143C179.799 33.4269 181.31 32.7893 181.31 31.6718V23.7905C181.31 23.1181 181.855 22.5731 182.528 22.5731H187.46ZM174.98 51.8511C176.838 51.8511 178.381 51.2235 179.609 49.9683C180.837 48.6817 181.452 46.9714 181.452 44.8376C181.452 42.7037 180.837 41.0091 179.609 39.7539C178.381 38.4673 176.838 37.824 174.98 37.824C173.091 37.824 171.532 38.4673 170.304 39.7539C169.076 41.0091 168.461 42.7037 168.461 44.8376C168.461 46.9714 169.076 48.6817 170.304 49.9683C171.532 51.2235 173.091 51.8511 174.98 51.8511Z" fill="white"/>
<path d="M217.804 22.5731C218.477 22.5731 219.023 23.1181 219.023 23.7905V56.2822C219.023 56.9546 218.477 57.4996 217.804 57.4996H212.76C212.332 57.4996 211.985 57.1529 211.985 56.7253C211.985 56.0004 211.013 55.6208 210.427 56.0481C208.755 57.2668 206.629 57.8762 204.049 57.8762C201.655 57.8762 199.483 57.3427 197.53 56.2757C195.609 55.2088 194.098 53.6869 192.995 51.7099C191.893 49.7329 191.342 47.4421 191.342 44.8376C191.342 42.233 191.893 39.9422 192.995 37.9652C194.098 35.9883 195.609 34.4663 197.53 33.3994C199.483 32.3324 201.655 31.799 204.049 31.799C206.007 31.799 207.707 32.1707 209.149 32.9143C210.143 33.4269 211.654 32.7893 211.654 31.6718V23.7905C211.654 23.1181 212.2 22.5731 212.873 22.5731H217.804ZM205.324 51.8511C207.182 51.8511 208.725 51.2235 209.953 49.9683C211.182 48.6817 211.796 46.9714 211.796 44.8376C211.796 42.7037 211.182 41.0091 209.953 39.7539C208.725 38.4673 207.182 37.824 205.324 37.824C203.435 37.824 201.876 38.4673 200.648 39.7539C199.42 41.0091 198.806 42.7037 198.806 44.8376C198.806 46.9714 199.42 48.6817 200.648 49.9683C201.876 51.2235 203.435 51.8511 205.324 51.8511Z" fill="white"/>
<path d="M232.598 57.8762C229.732 57.8762 227.496 57.123 225.89 55.6168C224.284 54.0791 223.481 51.9139 223.481 49.121V23.7905C223.481 23.1181 224.027 22.5731 224.7 22.5731H229.632C230.305 22.5731 230.85 23.1181 230.85 23.7905V48.6974C230.85 49.7643 231.118 50.5959 231.653 51.1921C232.22 51.757 233.007 52.0394 234.015 52.0394C234.393 52.0394 234.771 51.9923 235.149 51.8982C235.599 51.7946 236.125 52.109 236.152 52.5699L236.37 56.3329C236.402 56.8824 236.062 57.3914 235.527 57.5238C234.578 57.7587 233.602 57.8762 232.598 57.8762Z" fill="white"/>
<path d="M250.02 51.9923C251.342 51.9923 252.508 51.804 253.515 51.4275C254.194 51.1612 254.839 50.8012 255.45 50.3477C255.998 49.9412 256.777 49.9558 257.241 50.4564L259.573 52.9767C259.996 53.434 260.011 54.1426 259.556 54.5688C257.204 56.7737 253.963 57.8762 249.831 57.8762C246.965 57.8762 244.43 57.327 242.226 56.2287C240.021 55.099 238.321 53.5456 237.124 51.5687C235.927 49.5917 235.329 47.348 235.329 44.8376C235.329 42.3585 235.912 40.1305 237.077 38.1535C238.274 36.1452 239.895 34.5918 241.942 33.4935C244.021 32.3638 246.351 31.799 248.933 31.799C251.358 31.799 253.563 32.3168 255.547 33.3523C257.53 34.3565 259.105 35.8314 260.27 37.777C261.312 39.4437 261.9 41.3839 262.035 43.5978C262.071 44.1801 261.651 44.6821 261.077 44.7926L244.747 47.941C243.984 48.088 243.546 48.9123 244.013 49.5319C244.484 50.1576 245.069 50.6639 245.768 51.0509C246.934 51.6785 248.351 51.9923 250.02 51.9923ZM248.933 37.3533C247.075 37.3533 245.564 37.9496 244.399 39.142C243.529 40.0318 242.967 41.1749 242.711 42.5713C242.57 43.3389 243.286 43.943 244.052 43.7943L253.656 41.9315C254.347 41.7974 254.794 41.0973 254.474 40.4709C254.081 39.7037 253.526 39.0568 252.807 38.5301C251.736 37.7456 250.445 37.3533 248.933 37.3533Z" fill="white"/>
<path d="M6.10116 41.5868C5.05276 41.5868 4.04764 42.1755 3.56369 43.1846C2.63043 45.1292 1.93784 47.1865 1.50757 49.2976C1.15262 51.0419 0.97168 52.8348 0.97168 54.6242C0.97168 63.7161 5.54969 72.0623 13.2166 76.9503C15.394 78.3383 17.7548 79.3951 20.2334 80.0922C21.732 80.5126 23.2808 79.6379 23.7024 78.1406C24.1223 76.6425 23.2488 75.0872 21.7537 74.6667C19.8066 74.1196 17.9496 73.2891 16.2381 72.1976C10.2013 68.35 6.59809 61.7801 6.59809 54.6242C6.59809 53.2119 6.74094 51.7996 7.02057 50.4255C7.35908 48.7679 7.90276 47.151 8.63517 45.6234C9.30785 44.2206 8.71828 42.5379 7.31752 41.8642C6.92534 41.6744 6.50979 41.5859 6.10116 41.5859V41.5868Z" fill="#F6E27F"/>
<path d="M26.8183 29.9289C32.3678 29.4437 36.4732 24.5507 35.988 19.0012C35.5028 13.4517 30.6099 9.34632 25.0603 9.8315C19.5108 10.3167 15.4055 15.2096 15.8906 20.7591C16.3758 26.3087 21.2687 30.414 26.8183 29.9289Z" fill="#02C39A"/>
<path d="M19.7629 53.9969C16.076 51.2967 10.8992 52.0971 8.19987 55.7831C5.49969 59.47 6.30013 64.6469 9.98613 67.3462C13.673 70.0463 18.8499 69.2459 21.5492 65.5599C24.2493 61.873 23.4489 56.6962 19.7629 53.9969Z" fill="#F6E27F"/>
<path d="M31.3518 6.90321C19.2979 3.67338 6.5026 9.41951 0.928994 20.566C0.235523 21.9544 0.796889 23.6423 2.1867 24.337C3.575 25.0341 5.26399 24.4685 5.95769 23.0793C10.3418 14.3102 20.4098 9.78984 29.898 12.3322C37.0027 14.2359 42.457 19.5988 44.4917 26.6789C44.9182 28.1685 46.4759 29.0318 47.9677 28.6042C49.4597 28.1757 50.3219 26.6185 49.8934 25.1265C47.3484 16.2684 40.2443 9.28596 31.3518 6.90321Z" fill="#02C39A"/>
<path d="M48.4768 45.7496C46.4801 50.9502 49.0782 56.785 54.2787 58.7817C59.4793 60.7784 65.3141 58.1803 67.3108 52.9797C69.3075 47.7791 66.7094 41.9443 61.5088 39.9477C56.3082 37.951 50.4735 40.5491 48.4768 45.7496Z" fill="#9B7ED4"/>
<path d="M66.2246 61.3071C75.9227 53.4538 78.7948 39.7247 73.0532 28.6638C72.3376 27.2867 70.6421 26.7487 69.2631 27.4647C67.8832 28.1782 67.348 29.877 68.0641 31.2548C72.5815 39.9559 70.3208 50.7581 62.6869 56.9399C56.9708 61.5687 49.4262 62.8291 42.5023 60.3137C41.0465 59.7831 39.4324 60.5359 38.9015 61.9941C38.3712 63.453 39.1242 65.0659 40.5831 65.5962C49.2454 68.7439 59.07 67.1008 66.2246 61.3071Z" fill="#9B7ED4"/>
</svg>
