<svg width="96" height="96" viewBox="0 0 96 96" fill="none" xmlns="http://www.w3.org/2000/svg">
<path d="M12 88H48M44 25.0081C46.557 24.35 49.2376 24 52 24C69.6731 24 84 38.3269 84 56C84 69.4295 75.7273 80.9268 64 85.6739M22 52H38C39.8586 52 40.7879 52 41.5607 52.1537C44.7342 52.785 47.215 55.2658 47.8463 58.4393C48 59.2121 48 60.1414 48 62C48 63.8586 48 64.7879 47.8463 65.5607C47.215 68.7342 44.7342 71.215 41.5607 71.8463C40.7879 72 39.8586 72 38 72H22C20.1414 72 19.2121 72 18.4393 71.8463C15.2658 71.215 12.785 68.7342 12.1537 65.5607C12 64.7879 12 63.8586 12 62C12 60.1414 12 59.2121 12.1537 58.4393C12.785 55.2658 15.2658 52.785 18.4393 52.1537C19.2121 52 20.1414 52 22 52ZM16 22V52H44V22C44 14.268 37.732 8 30 8C22.268 8 16 14.268 16 22Z" stroke="#FF958C" stroke-width="6" stroke-linecap="round" stroke-linejoin="round"/>
</svg>
