<svg width="33" height="32" viewBox="0 0 33 32" fill="none" xmlns="http://www.w3.org/2000/svg">
<path d="M8.79314 14.9718C8.71026 14.4377 8.66727 13.8906 8.66727 13.3334C8.66727 7.44238 13.4743 2.66675 19.4041 2.66675C25.3339 2.66675 30.141 7.44238 30.141 13.3334C30.141 14.6642 29.8957 15.938 29.4475 17.1128C29.3545 17.3567 29.3079 17.4787 29.2868 17.574C29.2658 17.6683 29.2578 17.7347 29.2555 17.8313C29.2532 17.9289 29.2664 18.0363 29.2929 18.2512L29.8297 22.6114C29.8878 23.0835 29.9168 23.3195 29.8383 23.491C29.7695 23.6414 29.6473 23.7608 29.4954 23.8261C29.3221 23.9006 29.0868 23.8661 28.6163 23.7972L24.3693 23.1746C24.1475 23.1421 24.0366 23.1259 23.9356 23.1264C23.8357 23.127 23.7666 23.1344 23.6689 23.1549C23.57 23.1757 23.4438 23.223 23.1913 23.3176C22.0136 23.7587 20.7372 24.0001 19.4041 24.0001C18.8465 24.0001 18.2989 23.9579 17.7642 23.8764M10.8428 29.3334C14.796 29.3334 18.0007 26.0502 18.0007 22.0001C18.0007 17.95 14.796 14.6667 10.8428 14.6667C6.88956 14.6667 3.68486 17.95 3.68486 22.0001C3.68486 22.8142 3.81435 23.5973 4.05338 24.3291C4.15442 24.6384 4.20495 24.793 4.22153 24.8987C4.23884 25.009 4.24187 25.0709 4.23542 25.1824C4.22925 25.2891 4.20254 25.4098 4.14911 25.6512L3.33398 29.3334L7.32705 28.7881C7.545 28.7583 7.65398 28.7434 7.74914 28.7441C7.84934 28.7448 7.90253 28.7502 8.0008 28.7698C8.09412 28.7884 8.23286 28.8373 8.51035 28.9353C9.24144 29.1933 10.0261 29.3334 10.8428 29.3334Z" stroke="white" stroke-width="3" stroke-linecap="round" stroke-linejoin="round"/>
</svg>
