<svg width="33" height="32" viewBox="0 0 33 32" fill="none" xmlns="http://www.w3.org/2000/svg">
<path d="M28.3322 15.3333C28.3322 21.5926 23.2581 26.6667 16.9988 26.6667C15.5631 26.6667 14.1898 26.3997 12.9257 25.9127C12.6946 25.8237 12.5791 25.7792 12.4872 25.758C12.3968 25.7371 12.3313 25.7284 12.2387 25.7249C12.1444 25.7213 12.041 25.732 11.8343 25.7534L5.00624 26.4592C4.35525 26.5265 4.02975 26.5601 3.83775 26.443C3.67051 26.341 3.55661 26.1706 3.52629 25.977C3.49147 25.7548 3.64702 25.4669 3.9581 24.8911L6.13897 20.8544C6.31858 20.522 6.40838 20.3558 6.44905 20.1959C6.48922 20.0381 6.49893 19.9243 6.48609 19.7619C6.47307 19.5975 6.40094 19.3835 6.25668 18.9555C5.87331 17.8181 5.66552 16.6 5.66552 15.3333C5.66552 9.07411 10.7396 4 16.9988 4C23.2581 4 28.3322 9.07411 28.3322 15.3333Z" stroke="white" stroke-width="3" stroke-linecap="round" stroke-linejoin="round"/>
<path fill-rule="evenodd" clip-rule="evenodd" d="M16.9947 11.9323C15.7951 10.5472 13.7947 10.1746 12.2917 11.443C10.7886 12.7113 10.577 14.832 11.7574 16.3321C12.4886 17.2615 14.324 18.9589 15.6148 20.1159C16.0889 20.541 16.326 20.7535 16.6105 20.8391C16.8545 20.9126 17.1349 20.9126 17.379 20.8391C17.6635 20.7535 17.9006 20.541 18.3747 20.1159C19.6654 18.9589 21.5009 17.2615 22.2321 16.3321C23.4124 14.832 23.2267 12.698 21.6978 11.443C20.1689 10.1879 18.1944 10.5472 16.9947 11.9323Z" stroke="white" stroke-width="3" stroke-linecap="round" stroke-linejoin="round"/>
</svg>
