<svg width="27" height="28" viewBox="0 0 27 28" fill="none" xmlns="http://www.w3.org/2000/svg">
<path fill-rule="evenodd" clip-rule="evenodd" d="M13.5079 3.12922C17.1171 3.12922 17.5445 3.14505 18.9638 3.20834C20.283 3.26636 20.9953 3.48789 21.4702 3.67249C22.0981 3.91512 22.5519 4.21049 23.0215 4.67992C23.4964 5.15462 23.7866 5.60295 24.0293 6.23061C24.214 6.70531 24.4356 7.42264 24.4936 8.73598C24.557 10.1601 24.5728 10.5873 24.5728 14.1898C24.5728 17.7975 24.557 18.2248 24.4936 19.6436C24.4356 20.9622 24.214 21.6743 24.0293 22.149C23.7866 22.7766 23.4911 23.2302 23.0215 23.6996C22.5466 24.1744 22.0981 24.4644 21.4702 24.7071C20.9953 24.8917 20.2777 25.1132 18.9638 25.1712C17.5392 25.2345 17.1118 25.2503 13.5079 25.2503C9.89877 25.2503 9.47137 25.2345 8.05198 25.1712C6.73285 25.1132 6.02052 24.8917 5.54563 24.7071C4.91773 24.4644 4.46394 24.1691 3.99433 23.6996C3.51944 23.2249 3.22924 22.7766 2.98652 22.149C2.80184 21.6743 2.58022 20.9569 2.52218 19.6436C2.45886 18.2195 2.44303 17.7922 2.44303 14.1898C2.44303 10.582 2.45886 10.1548 2.52218 8.73598C2.58022 7.41736 2.80184 6.70531 2.98652 6.23061C3.22924 5.60295 3.52472 5.14934 3.99433 4.67992C4.46922 4.20521 4.91773 3.91512 5.54563 3.67249C6.02052 3.48789 6.73813 3.26636 8.05198 3.20834C9.47137 3.14505 9.89877 3.12922 13.5079 3.12922ZM13.5079 0.697693C9.84073 0.697693 9.38167 0.713516 7.94118 0.77681C6.50596 0.840104 5.51925 1.07218 4.66445 1.40447C3.77272 1.75259 3.01817 2.21147 2.26891 2.96571C1.51436 3.71469 1.05531 4.46894 0.707055 5.35505C0.374634 6.21479 0.142466 7.19584 0.0791479 8.63049C0.0158296 10.0757 0 10.5346 0 14.2003C0 17.8661 0.0158296 18.325 0.0791479 19.7649C0.142466 21.1996 0.374634 22.1859 0.707055 23.0403C1.05531 23.9317 1.51436 24.686 2.26891 25.4349C3.01817 26.1839 3.77272 26.6481 4.65918 26.9909C5.51925 27.3232 6.50068 27.5553 7.9359 27.6186C9.37639 27.6819 9.83545 27.6977 13.5026 27.6977C17.1698 27.6977 17.6289 27.6819 19.0694 27.6186C20.5046 27.5553 21.4913 27.3232 22.3461 26.9909C23.2326 26.6481 23.9871 26.1839 24.7364 25.4349C25.4856 24.686 25.95 23.9317 26.2929 23.0456C26.6254 22.1859 26.8575 21.2048 26.9209 19.7702C26.9842 18.3302 27 17.8714 27 14.2056C27 10.5399 26.9842 10.081 26.9209 8.64104C26.8575 7.20639 26.6254 6.22006 26.2929 5.3656C25.9605 4.46894 25.5015 3.71469 24.7469 2.96571C23.9977 2.21674 23.2431 1.75259 22.3567 1.40975C21.4966 1.07745 20.5151 0.845378 19.0799 0.782084C17.6342 0.713516 17.1751 0.697693 13.5079 0.697693ZM13.5089 7.2641C9.67819 7.2641 6.57031 10.3708 6.57031 14.2C6.57031 18.0293 9.67819 21.136 13.5089 21.136C17.3397 21.136 20.4476 18.0293 20.4476 14.2C20.4476 10.3708 17.3397 7.2641 13.5089 7.2641ZM13.5089 18.6991C11.0237 18.6991 9.00807 16.6843 9.00807 14.2C9.00807 11.7158 11.0237 9.7009 13.5089 9.7009C15.9942 9.7009 18.0098 11.7158 18.0098 14.2C18.0098 16.6843 15.9942 18.6991 13.5089 18.6991ZM20.7215 8.60907C21.6132 8.60907 22.3414 7.88647 22.3414 6.98981C22.3414 6.09842 21.6132 5.37054 20.7215 5.37054C19.8297 5.37054 19.1016 6.09315 19.1016 6.98981C19.1016 7.8812 19.8244 8.60907 20.7215 8.60907Z" fill="#F6E27F"/>
</svg>
