<svg width="96" height="96" viewBox="0 0 96 96" fill="none" xmlns="http://www.w3.org/2000/svg">
<path d="M47.999 35.9999V51.9999M47.999 67.9999H48.039M42.4603 15.5668L9.56075 72.3933C7.73593 75.5453 6.82352 77.1213 6.95837 78.4147C7.07599 79.5429 7.66708 80.5681 8.58451 81.2352C9.63634 81.9999 11.4574 81.9999 15.0995 81.9999H80.8986C84.5406 81.9999 86.3617 81.9999 87.4135 81.2352C88.331 80.5681 88.922 79.5429 89.0397 78.4147C89.1745 77.1213 88.2621 75.5453 86.4373 72.3933L53.5377 15.5668C51.7195 12.4262 50.8103 10.8559 49.6242 10.3284C48.5896 9.86839 47.4085 9.86839 46.3738 10.3284C45.1877 10.8559 44.2786 12.4262 42.4603 15.5668Z" stroke="#FF958C" stroke-width="6" stroke-linecap="round" stroke-linejoin="round"/>
</svg>
