<svg width="96" height="96" viewBox="0 0 96 96" fill="none" xmlns="http://www.w3.org/2000/svg">
<path d="M84 84H18.4C16.1598 84 15.0397 84 14.184 83.564C13.4314 83.1805 12.8195 82.5686 12.436 81.816C12 80.9603 12 79.8402 12 77.6V12M84 28L62.2627 49.7373C61.4707 50.5293 61.0747 50.9253 60.618 51.0737C60.2163 51.2042 59.7837 51.2042 59.382 51.0737C58.9253 50.9253 58.5293 50.5293 57.7373 49.7373L50.2627 42.2627C49.4707 41.4707 49.0747 41.0747 48.618 40.9263C48.2163 40.7958 47.7837 40.7958 47.382 40.9263C46.9253 41.0747 46.5293 41.4707 45.7373 42.2627L28 60M84 28H68M84 28V44" stroke="#FF958C" stroke-width="6" stroke-linecap="round" stroke-linejoin="round"/>
</svg>
