<svg width="96" height="96" viewBox="0 0 96 96" fill="none" xmlns="http://www.w3.org/2000/svg">
<path d="M47.9981 48.0006H48.0381M62.1402 62.1427C43.395 80.8879 21.8674 89.7522 14.0569 81.9417C6.24644 74.1312 15.1108 52.6036 33.8559 33.8584C52.6011 15.1133 74.1287 6.24896 81.9392 14.0594C89.7497 21.8699 80.8854 43.3975 62.1402 62.1427ZM62.14 33.8577C80.8852 52.6029 89.7495 74.1305 81.939 81.941C74.1285 89.7515 52.6009 80.8871 33.8558 62.142C15.1106 43.3968 6.24628 21.8692 14.0568 14.0587C21.8673 6.24824 43.3949 15.1125 62.14 33.8577ZM49.9981 48.0006C49.9981 49.1051 49.1026 50.0006 47.9981 50.0006C46.8935 50.0006 45.9981 49.1051 45.9981 48.0006C45.9981 46.896 46.8935 46.0006 47.9981 46.0006C49.1026 46.0006 49.9981 46.896 49.9981 48.0006Z" stroke="#FF958C" stroke-width="6" stroke-linecap="round" stroke-linejoin="round"/>
</svg>
