<svg width="22" height="23" viewBox="0 0 22 23" fill="none" xmlns="http://www.w3.org/2000/svg">
<path fill-rule="evenodd" clip-rule="evenodd" d="M5 6.36567C5 7.03085 5.55147 7.56141 6.26515 7.56141C6.97882 7.56141 7.53029 7.03085 7.53029 6.36567C7.53029 5.69257 6.97882 5.16992 6.26515 5.16992C5.55147 5.16992 5 5.69257 5 6.36567ZM5.0811 16.0663C5.0811 16.8185 5.52714 17.2699 6.26515 17.2699C6.99504 17.2699 7.4492 16.8185 7.4492 16.0663V9.65199C7.4492 8.8997 6.99504 8.44041 6.26515 8.44041C5.52714 8.44041 5.0811 8.8997 5.0811 9.65199V16.0663ZM9.03063 16.0663C9.03063 16.8581 9.52534 17.2699 10.2147 17.2699C10.9121 17.2699 11.3987 16.8581 11.3987 16.0663V12.2335C11.3987 11.1328 12.0718 10.3726 13.1342 10.3726C14.1966 10.3726 14.7319 11.0061 14.7319 12.1148V16.0663C14.7319 16.8581 15.2185 17.2699 15.916 17.2699C16.6053 17.2699 17.1 16.8581 17.1 16.0663V11.6317C17.1 9.64407 16.0133 8.45624 14.0831 8.45624C12.745 8.45624 11.8691 9.03432 11.4068 10.0875H11.3582V9.6124C11.3582 8.88386 10.8878 8.44041 10.1741 8.44041C9.46046 8.44041 9.03063 8.88386 9.03063 9.60448V16.0663Z" fill="#7E8192"/>
<path d="M1 17.5V5.5C1 3.29086 2.79086 1.5 5 1.5H17C19.2091 1.5 21 3.29086 21 5.5V17.5C21 19.7091 19.2091 21.5 17 21.5H5C2.79086 21.5 1 19.7091 1 17.5Z" stroke="#7E8192" stroke-width="2"/>
</svg>
