<svg width="25" height="26" viewBox="0 0 25 26" fill="none" xmlns="http://www.w3.org/2000/svg">
<path d="M23.1545 0.697693H1.84549C1.35603 0.697693 0.886626 0.892128 0.540531 1.23822C0.194435 1.58432 0 2.05373 0 2.54318V23.8522C0 24.3417 0.194435 24.8111 0.540531 25.1572C0.886626 25.5033 1.35603 25.6977 1.84549 25.6977H23.1545C23.644 25.6977 24.1134 25.5033 24.4595 25.1572C24.8056 24.8111 25 24.3417 25 23.8522V2.54318C25 2.05373 24.8056 1.58432 24.4595 1.23822C24.1134 0.892128 23.644 0.697693 23.1545 0.697693ZM7.45139 21.9946H3.69271V10.0553H7.45139V21.9946ZM5.56944 8.40082C5.14309 8.39842 4.72699 8.26977 4.37368 8.03112C4.02037 7.79246 3.74567 7.4545 3.58425 7.05987C3.42283 6.66524 3.38192 6.23164 3.4667 5.81379C3.55147 5.39594 3.75813 5.01256 4.06058 4.71205C4.36303 4.41153 4.74772 4.20735 5.16611 4.12526C5.5845 4.04317 6.01783 4.08685 6.41141 4.2508C6.80499 4.41475 7.14119 4.69162 7.37757 5.04646C7.61395 5.40129 7.73992 5.8182 7.73958 6.24457C7.74361 6.53002 7.69012 6.81336 7.5823 7.0777C7.47449 7.34204 7.31456 7.58196 7.11205 7.78318C6.90954 7.98439 6.66859 8.14278 6.40357 8.24889C6.13854 8.355 5.85486 8.40667 5.56944 8.40082ZM21.3056 22.005H17.5486V15.4824C17.5486 13.5588 16.7309 12.9651 15.6753 12.9651C14.5608 12.9651 13.467 13.8053 13.467 15.531V22.005H9.70833V10.064H13.3229V11.7185H13.3715C13.7344 10.9842 15.0052 9.72894 16.9444 9.72894C19.0417 9.72894 21.3073 10.9737 21.3073 14.6196L21.3056 22.005Z" fill="#F6E27F"/>
</svg>
