<svg width="58" height="56" viewBox="0 0 58 56" fill="none" xmlns="http://www.w3.org/2000/svg">
<path fill-rule="evenodd" clip-rule="evenodd" d="M3.14278 27.6653C3.50292 26.9143 4.2509 26.4762 5.0311 26.4762V26.4756C5.33519 26.4756 5.64443 26.5414 5.93628 26.6827C6.97869 27.184 7.41743 28.4363 6.91684 29.4802C6.3718 30.617 5.96721 31.8202 5.7153 33.0538C5.50721 34.0764 5.4009 35.1274 5.4009 36.1783C5.4009 37.1164 5.4841 38.0408 5.64573 38.9431C5.8413 38.277 6.15373 37.6329 6.58761 37.0404C8.59637 34.2974 12.4489 33.7017 15.1925 35.7111C17.9356 37.7199 18.5312 41.5724 16.5218 44.3161C14.8143 46.6477 11.7747 47.4278 9.21626 46.3752C10.1776 47.4736 11.3037 48.4459 12.5747 49.256C13.8484 50.0683 15.2304 50.6863 16.6793 51.0935C17.7919 51.4064 18.442 52.5638 18.1295 53.6787C17.8158 54.7929 16.6632 55.4439 15.548 55.1309C13.7035 54.6122 11.9466 53.8258 10.3263 52.7928C4.62071 49.1554 1.21387 42.9443 1.21387 36.1783C1.21387 34.8467 1.34852 33.5125 1.61266 32.2144C1.93286 30.6434 2.44827 29.1124 3.14278 27.6653Z" fill="#F6E27F"/>
<path fill-rule="evenodd" clip-rule="evenodd" d="M1.17717 10.8326C5.32491 2.53762 14.8468 -1.73851 23.817 0.665051C30.4347 2.43823 35.7213 7.63437 37.6153 14.2264C37.9341 15.3367 37.2925 16.4955 36.1822 16.8144C35.072 17.1326 33.9128 16.4902 33.5954 15.3816C32.3967 11.2105 29.6031 7.84023 25.8679 5.91409C26.6418 6.97897 27.1455 8.26115 27.2685 9.66805C27.6296 13.7979 24.5745 17.4391 20.4447 17.8001C16.3148 18.1612 12.6736 15.1061 12.3126 10.9763C12.0968 8.50818 13.1011 6.21461 14.8258 4.69139C10.6325 5.79418 6.95368 8.63391 4.91939 12.7029C4.40316 13.7367 3.14625 14.1576 2.11312 13.6389C1.07886 13.1218 0.661104 11.8658 1.17717 10.8326Z" fill="#02C39A"/>
<path fill-rule="evenodd" clip-rule="evenodd" d="M54.8556 16.8592C59.1284 25.0904 56.991 35.3073 49.774 41.1515C44.4497 45.4631 37.1385 46.6858 30.6922 44.3434C29.6065 43.9487 29.0462 42.7485 29.4409 41.6628C29.8359 40.5776 31.037 40.0174 32.1204 40.4123C36.1911 41.8911 40.55 41.6162 44.2986 39.7371C43.1746 39.8472 42.0086 39.7043 40.8826 39.272C37.0124 37.7861 35.079 33.444 36.5649 29.5739C38.0508 25.7038 42.3929 23.7703 46.263 25.2562C49.557 26.5209 51.448 29.8547 51.0218 33.2055C53.3726 28.8127 53.5391 23.4028 51.1429 18.7874C50.61 17.7621 51.0083 16.4978 52.0352 15.9669C53.0614 15.4341 54.3231 15.8344 54.8556 16.8592Z" fill="#9B7ED4"/>
</svg>
