<svg width="96" height="96" viewBox="0 0 96 96" fill="none" xmlns="http://www.w3.org/2000/svg">
<path d="M81.9999 29.1108L47.9999 47.9997M47.9999 47.9997L13.9999 29.1108M47.9999 47.9997L48 85.9998M84 64.2341V31.7656C84 30.3951 84 29.7098 83.7981 29.0986C83.6194 28.5579 83.3274 28.0615 82.9415 27.6428C82.5053 27.1694 81.9062 26.8366 80.7081 26.171L51.1081 9.72658C49.9737 9.09635 49.4065 8.78123 48.8058 8.65769C48.2742 8.54835 47.7258 8.54835 47.1942 8.65769C46.5935 8.78123 46.0263 9.09635 44.8919 9.72658L15.2919 26.171C14.0938 26.8366 13.4947 27.1694 13.0585 27.6428C12.6726 28.0616 12.3806 28.5579 12.2019 29.0986C12 29.7098 12 30.3951 12 31.7656V64.2341C12 65.6046 12 66.2899 12.2019 66.9011C12.3806 67.4418 12.6726 67.9382 13.0585 68.3569C13.4947 68.8303 14.0938 69.1631 15.2919 69.8287L44.8919 86.2731C46.0263 86.9033 46.5935 87.2185 47.1942 87.342C47.7258 87.4513 48.2742 87.4513 48.8058 87.342C49.4065 87.2185 49.9737 86.9033 51.1081 86.2731L80.7081 69.8287C81.9062 69.1631 82.5053 68.8303 82.9415 68.3569C83.3274 67.9382 83.6194 67.4418 83.7981 66.9011C84 66.2899 84 65.6046 84 64.2341Z" stroke="#FF958C" stroke-width="6" stroke-linecap="round" stroke-linejoin="round"/>
<path d="M66 38L30 18" stroke="#FF958C" stroke-width="6" stroke-linecap="round" stroke-linejoin="round"/>
</svg>
