<svg width="96" height="96" viewBox="0 0 96 96" fill="none" xmlns="http://www.w3.org/2000/svg">
<path d="M36 24V42.0048C36 44.2085 36 45.3104 35.7253 46.3314C35.4819 47.2361 35.0815 48.091 34.5423 48.8572C33.9338 49.7219 33.0873 50.4273 31.3944 51.838L16.6056 64.162C14.9127 65.5727 14.0662 66.2781 13.4577 67.1428C12.9185 67.909 12.5181 68.7639 12.2747 69.6686C12 70.6896 12 71.7915 12 73.9952V75.2C12 79.6804 12 81.9206 12.8719 83.6319C13.6389 85.1372 14.8628 86.3611 16.3681 87.1281C18.0794 88 20.3196 88 24.8 88H71.2C75.6804 88 77.9206 88 79.6319 87.1281C81.1372 86.3611 82.3611 85.1372 83.1281 83.6319C84 81.9206 84 79.6804 84 75.2V73.9952C84 71.7915 84 70.6896 83.7253 69.6686C83.4819 68.7639 83.0815 67.909 82.5423 67.1428C81.9338 66.2781 81.0873 65.5727 79.3944 64.162L64.6056 51.838C62.9127 50.4273 62.0662 49.7219 61.4577 48.8572C60.9185 48.091 60.5181 47.2361 60.2747 46.3314C60 45.3104 60 44.2085 60 42.0048V24M33.2 24H62.8C63.9201 24 64.4802 24 64.908 23.782C65.2843 23.5903 65.5903 23.2843 65.782 22.908C66 22.4802 66 21.9201 66 20.8V11.2C66 10.0799 66 9.51984 65.782 9.09202C65.5903 8.71569 65.2843 8.40973 64.908 8.21799C64.4802 8 63.9201 8 62.8 8H33.2C32.0799 8 31.5198 8 31.092 8.21799C30.7157 8.40973 30.4097 8.71569 30.218 9.09202C30 9.51984 30 10.0799 30 11.2V20.8C30 21.9201 30 22.4802 30.218 22.908C30.4097 23.2843 30.7157 23.5903 31.092 23.782C31.5198 24 32.0799 24 33.2 24ZM22 68H74C75.8586 68 76.7879 68 77.5607 68.1537C80.7342 68.785 83.215 71.2658 83.8463 74.4393C84 75.2121 84 76.1414 84 78C84 79.8586 84 80.7879 83.8463 81.5607C83.215 84.7342 80.7342 87.215 77.5607 87.8463C76.7879 88 75.8586 88 74 88H22C20.1414 88 19.2121 88 18.4393 87.8463C15.2658 87.215 12.785 84.7342 12.1537 81.5607C12 80.7879 12 79.8586 12 78C12 76.1414 12 75.2121 12.1537 74.4393C12.785 71.2658 15.2658 68.785 18.4393 68.1537C19.2121 68 20.1414 68 22 68Z" stroke="#FF958C" stroke-width="6" stroke-linecap="round" stroke-linejoin="round"/>
</svg>
