<svg width="22" height="23" viewBox="0 0 22 23" fill="none" xmlns="http://www.w3.org/2000/svg">
<path d="M6.85913 7.96845C7.6073 9.52672 8.6272 10.9872 9.91884 12.2788C11.2105 13.5705 12.671 14.5904 14.2292 15.3385C14.3633 15.4029 14.4303 15.4351 14.5151 15.4598C14.8165 15.5476 15.1865 15.4845 15.4417 15.3018C15.5136 15.2504 15.575 15.1889 15.6979 15.066C16.0737 14.6902 16.2616 14.5023 16.4506 14.3795C17.1631 13.9162 18.0818 13.9162 18.7943 14.3795C18.9833 14.5023 19.1712 14.6902 19.547 15.066L19.7565 15.2755C20.3278 15.8468 20.6134 16.1324 20.7686 16.4392C21.0771 17.0493 21.0771 17.7698 20.7686 18.3799C20.6134 18.6867 20.3278 18.9723 19.7565 19.5436L19.587 19.713C19.0177 20.2824 18.7331 20.567 18.346 20.7844C17.9166 21.0257 17.2496 21.1991 16.757 21.1977C16.3131 21.1963 16.0097 21.1102 15.403 20.938C12.1422 20.0125 9.06532 18.2663 6.49836 15.6993C3.93139 13.1324 2.18516 10.0554 1.25965 6.79469C1.08744 6.18794 1.00133 5.88456 1.00001 5.44066C0.998543 4.94809 1.172 4.28109 1.41324 3.85164C1.63065 3.46463 1.91531 3.17997 2.48463 2.61065L2.65408 2.4412C3.22535 1.86992 3.51099 1.58428 3.81776 1.42912C4.42787 1.12053 5.14837 1.12053 5.75847 1.42912C6.06524 1.58428 6.35088 1.86992 6.92216 2.44119L7.13163 2.65067C7.50744 3.02648 7.69535 3.21439 7.8182 3.40334C8.2815 4.11592 8.2815 5.03455 7.8182 5.74713C7.69535 5.93608 7.50744 6.12398 7.13163 6.4998C7.00875 6.62268 6.94731 6.68412 6.89588 6.75594C6.71313 7.01116 6.65003 7.38122 6.73788 7.68259C6.7626 7.7674 6.79478 7.83441 6.85913 7.96845Z" stroke="#FF958C" stroke-width="2" stroke-linecap="round" stroke-linejoin="round"/>
</svg>
