<svg width="64" height="64" viewBox="0 0 64 64" fill="none" xmlns="http://www.w3.org/2000/svg">
<rect width="64" height="64" rx="32" fill="#FF958C"/>
<path d="M27.1737 27.8045C28.1017 29.7373 29.3667 31.5488 30.9689 33.1509C32.571 34.753 34.3825 36.0181 36.3153 36.9461C36.4816 37.0259 36.5647 37.0658 36.6699 37.0965C37.0437 37.2054 37.5027 37.1272 37.8193 36.9005C37.9083 36.8367 37.9846 36.7605 38.137 36.6081C38.6031 36.1419 38.8362 35.9089 39.0706 35.7565C39.9544 35.1818 41.0938 35.1818 41.9777 35.7565C42.2121 35.9089 42.4451 36.1419 42.9113 36.6081L43.1711 36.8679C43.8797 37.5765 44.234 37.9308 44.4265 38.3113C44.8092 39.068 44.8092 39.9617 44.4265 40.7185C44.234 41.099 43.8797 41.4533 43.1711 42.1619L42.9609 42.372C42.2548 43.0782 41.9017 43.4313 41.4216 43.701C40.889 44.0002 40.0616 44.2153 39.4507 44.2135C38.9001 44.2119 38.5238 44.1051 37.7712 43.8915C33.7267 42.7435 29.9102 40.5775 26.7262 37.3936C23.5422 34.2096 21.3763 30.3931 20.2283 26.3486C20.0147 25.596 19.9079 25.2197 19.9063 24.6691C19.9044 24.0581 20.1196 23.2308 20.4188 22.6981C20.6885 22.2181 21.0416 21.865 21.7477 21.1588L21.9579 20.9487C22.6665 20.2401 23.0208 19.8858 23.4013 19.6933C24.1581 19.3106 25.0517 19.3106 25.8085 19.6933C26.189 19.8858 26.5433 20.2401 27.2519 20.9487L27.5117 21.2085C27.9778 21.6746 28.2109 21.9077 28.3633 22.1421C28.938 23.0259 28.938 24.1654 28.3633 25.0492C28.2109 25.2836 27.9778 25.5167 27.5117 25.9828C27.3593 26.1352 27.2831 26.2114 27.2193 26.3005C26.9926 26.6171 26.9143 27.0761 27.0233 27.4499C27.054 27.5551 27.0939 27.6382 27.1737 27.8045Z" stroke="white" stroke-width="3" stroke-linecap="round" stroke-linejoin="round"/>
</svg>
