<svg width="22" height="23" viewBox="0 0 22 23" fill="none" xmlns="http://www.w3.org/2000/svg">
<path d="M6.85913 8.27077C7.6073 9.82905 8.6272 11.2895 9.91884 12.5812C11.2105 13.8728 12.671 14.8927 14.2292 15.6409C14.3633 15.7052 14.4303 15.7374 14.5151 15.7621C14.8165 15.85 15.1865 15.7869 15.4417 15.6041C15.5136 15.5527 15.575 15.4912 15.6979 15.3684C16.0737 14.9926 16.2616 14.8047 16.4506 14.6818C17.1631 14.2185 18.0818 14.2185 18.7943 14.6818C18.9833 14.8047 19.1712 14.9926 19.547 15.3684L19.7565 15.5778C20.3278 16.1491 20.6134 16.4348 20.7686 16.7415C21.0771 17.3516 21.0771 18.0721 20.7686 18.6822C20.6134 18.989 20.3278 19.2746 19.7565 19.8459L19.587 20.0154C19.0177 20.5847 18.7331 20.8694 18.346 21.0868C17.9166 21.328 17.2496 21.5015 16.757 21.5C16.3131 21.4987 16.0097 21.4126 15.403 21.2403C12.1422 20.3148 9.06532 18.5686 6.49836 16.0016C3.93139 13.4347 2.18516 10.3578 1.25965 7.09701C1.08744 6.49026 1.00133 6.18688 1.00001 5.74298C0.998543 5.25042 1.172 4.58342 1.41324 4.15397C1.63065 3.76695 1.91531 3.48229 2.48463 2.91297L2.65408 2.74352C3.22535 2.17224 3.51099 1.8866 3.81776 1.73144C4.42787 1.42285 5.14837 1.42285 5.75847 1.73144C6.06524 1.8866 6.35088 2.17224 6.92216 2.74352L7.13163 2.95299C7.50744 3.3288 7.69535 3.51671 7.8182 3.70566C8.2815 4.41824 8.2815 5.33687 7.8182 6.04945C7.69535 6.2384 7.50744 6.42631 7.13163 6.80212C7.00875 6.925 6.94731 6.98644 6.89588 7.05826C6.71313 7.31348 6.65003 7.68355 6.73788 7.98491C6.7626 8.06972 6.79478 8.13674 6.85913 8.27077Z" stroke="#7E8192" stroke-width="2" stroke-linecap="round" stroke-linejoin="round"/>
</svg>
