<svg width="238" height="59" viewBox="0 0 238 59" fill="none" xmlns="http://www.w3.org/2000/svg">
<path d="M29.4976 58.4652C45.5679 58.4652 58.5954 45.4377 58.5954 29.3674C58.5954 13.2971 45.5679 0.269531 29.4976 0.269531C13.4273 0.269531 0.399719 13.2971 0.399719 29.3674C0.399719 45.4377 13.4273 58.4652 29.4976 58.4652Z" fill="#C28CA7"/>
<path d="M29.4974 32.5664C31.2643 32.5664 32.6966 31.1341 32.6966 29.3672C32.6966 27.6003 31.2643 26.168 29.4974 26.168C27.7305 26.168 26.2982 27.6003 26.2982 29.3672C26.2982 31.1341 27.7305 32.5664 29.4974 32.5664Z" stroke="#15021C" stroke-width="1.5"/>
<path d="M50.0661 18.7031C50.0661 18.7031 38.0601 23.1455 38.0599 29.0285C38.0599 34.9116 50.0661 40.0741 50.0661 40.0741" stroke="#15021C" stroke-width="1.5" stroke-linecap="round"/>
<path d="M54.4888 29.2828C54.4888 31.0494 53.0566 32.4816 51.29 32.4816C49.5233 32.4816 48.0912 31.0494 48.0912 29.2828C48.0912 27.5161 49.5233 26.084 51.29 26.084C53.0566 26.084 54.4888 27.5161 54.4888 29.2828Z" stroke="#15021C" stroke-width="1.5"/>
<path d="M36.4965 7.28125C36.4965 7.28125 31.1482 18.912 35.3081 23.0719C39.4679 27.232 51.6081 22.3928 51.6081 22.3928" stroke="#15021C" stroke-width="1.5" stroke-linecap="round"/>
<path d="M47.1151 11.6287C48.3644 12.8779 48.3644 14.9033 47.1151 16.1525C45.8659 17.4017 43.8406 17.4017 42.5913 16.1525C41.3421 14.9033 41.3421 12.8779 42.5913 11.6287C43.8406 10.3795 45.8659 10.3795 47.1151 11.6287Z" stroke="#15021C" stroke-width="1.5"/>
<path d="M18.8294 8.7998C18.8294 8.7998 23.2717 20.8059 29.1547 20.806C35.0378 20.806 40.2003 8.7998 40.2003 8.7998" stroke="#15021C" stroke-width="1.5" stroke-linecap="round"/>
<path d="M29.4111 4.36703C31.1777 4.36703 32.6099 5.79918 32.6099 7.56584C32.6099 9.33249 31.1777 10.7646 29.4111 10.7646C27.6444 10.7646 26.2122 9.33249 26.2122 7.56584C26.2122 5.79918 27.6444 4.36703 29.4111 4.36703Z" stroke="#15021C" stroke-width="1.5"/>
<path d="M7.40754 22.3684C7.40754 22.3684 19.0383 27.7168 23.1982 23.5569C27.3583 19.3971 22.5191 7.25684 22.5191 7.25684" stroke="#15021C" stroke-width="1.5" stroke-linecap="round"/>
<path d="M11.7511 11.7534C13.0003 10.5041 15.0257 10.5041 16.2749 11.7534C17.5241 13.0026 17.5241 15.0279 16.2749 16.2772C15.0257 17.5264 13.0003 17.5264 11.7511 16.2772C10.5019 15.0279 10.5019 13.0026 11.7511 11.7534Z" stroke="#15021C" stroke-width="1.5"/>
<path d="M8.92316 40.0398C8.92316 40.0398 20.9293 35.5978 20.9293 29.7147C20.9294 23.8317 8.92316 18.6689 8.92316 18.6689" stroke="#15021C" stroke-width="1.5" stroke-linecap="round"/>
<path d="M4.49039 29.4594C4.49039 27.6927 5.92254 26.2606 7.6892 26.2606C9.45585 26.2606 10.888 27.6927 10.888 29.4594C10.888 31.226 9.45585 32.6582 7.6892 32.6582C5.92254 32.6582 4.49039 31.226 4.49039 29.4594Z" stroke="#15021C" stroke-width="1.5"/>
<path d="M22.4957 51.4599C22.4957 51.4599 27.844 39.8291 23.6842 35.6693C19.5243 31.5094 7.3841 36.3484 7.3841 36.3484" stroke="#15021C" stroke-width="1.5" stroke-linecap="round"/>
<path d="M11.8836 47.1135C10.6343 45.8643 10.6343 43.8389 11.8836 42.5897C13.1328 41.3404 15.1581 41.3404 16.4074 42.5897C17.6566 43.8389 17.6566 45.8643 16.4074 47.1135C15.1581 48.3627 13.1328 48.3627 11.8836 47.1135Z" stroke="#15021C" stroke-width="1.5"/>
<path d="M40.1614 49.9418C40.1614 49.9418 35.7191 37.9355 29.836 37.9355C23.953 37.9355 18.7904 49.9418 18.7904 49.9418" stroke="#15021C" stroke-width="1.5" stroke-linecap="round"/>
<path d="M29.5838 54.3732C27.8171 54.3732 26.3849 52.9411 26.3849 51.1744C26.3849 49.4077 27.8171 47.9756 29.5838 47.9756C31.3504 47.9756 32.7826 49.4077 32.7826 51.1744C32.7826 52.9411 31.3504 54.3732 29.5838 54.3732Z" stroke="#15021C" stroke-width="1.5"/>
<path d="M51.5816 36.3714C51.5816 36.3714 39.9508 31.0228 35.7907 35.1827C31.6308 39.3425 36.4698 51.4829 36.4698 51.4829" stroke="#15021C" stroke-width="1.5" stroke-linecap="round"/>
<path d="M47.2398 46.9869C45.9906 48.2361 43.9652 48.2361 42.716 46.9869C41.4668 45.7377 41.4668 43.7123 42.716 42.4631C43.9652 41.2139 45.9906 41.2139 47.2398 42.4631C48.489 43.7123 48.489 45.7377 47.2398 46.9869Z" stroke="#15021C" stroke-width="1.5"/>
<path d="M108.016 31.5963L106.96 14.3474C106.882 13.0175 106.53 11.9517 105.904 11.1499C105.278 10.3481 104.32 9.75157 103.03 9.36043L101.68 9.03777C101.543 8.99864 101.445 8.95954 101.387 8.92041C101.348 8.8813 101.328 8.83241 101.328 8.77373C101.328 8.71508 101.348 8.66619 101.387 8.62706C101.445 8.5684 101.524 8.53906 101.621 8.53906H112.681C112.778 8.53906 112.847 8.5684 112.886 8.62706C112.945 8.66619 112.974 8.71508 112.974 8.77373C112.974 8.83241 112.945 8.8813 112.886 8.92041C112.827 8.95954 112.73 8.99864 112.593 9.03777L111.39 9.38977C110.217 9.7418 109.278 10.3481 108.574 11.2085C107.87 12.0495 107.557 13.0566 107.635 14.23L108.691 31.3029C108.769 32.359 108.838 33.4052 108.897 34.4416C108.955 35.4783 108.985 36.5342 108.985 37.6099C108.985 39.9371 108.554 42.059 107.694 43.9754C106.833 45.892 105.415 47.4176 103.44 48.5516C101.465 49.6859 98.8151 50.2532 95.4906 50.2532C91.6574 50.2532 88.4991 49.735 86.0154 48.6983C83.5513 47.6619 81.7131 46.244 80.5004 44.4448C79.3075 42.626 78.711 40.5532 78.711 38.2258C78.711 37.6783 78.7305 36.9646 78.7698 36.0844C78.8284 35.1849 78.887 34.2852 78.9458 33.3857C79.0239 32.486 79.0923 31.7234 79.1511 31.0976L80.4418 10.2111C80.4614 9.97647 80.3635 9.80046 80.1484 9.68312C79.9334 9.54624 79.6107 9.43866 79.1804 9.36043L77.1856 9.03777C76.9118 8.97909 76.7748 8.89109 76.7748 8.77373C76.7748 8.71508 76.8044 8.66619 76.863 8.62706C76.9215 8.5684 76.9999 8.53906 77.0975 8.53906H94.1705C94.2877 8.53906 94.3661 8.5684 94.4051 8.62706C94.4637 8.66619 94.4932 8.71508 94.4932 8.77373C94.4932 8.83241 94.4637 8.8813 94.4051 8.92041C94.3465 8.95954 94.2389 8.99864 94.0824 9.03777L91.941 9.36043C91.5302 9.43866 91.2273 9.54624 91.0315 9.68312C90.836 9.80046 90.7286 9.98624 90.7088 10.2405L89.3888 30.8923C89.3107 32.3981 89.2619 33.7865 89.2423 35.0577C89.2226 36.3289 89.2128 37.3947 89.2128 38.2553C89.2128 42.1664 89.9756 44.9925 91.5009 46.7329C93.0265 48.454 95.0114 49.3144 97.456 49.3144C99.5682 49.3144 101.436 48.8646 103.059 47.9651C104.682 47.0654 105.953 45.7648 106.872 44.0635C107.792 42.3622 108.251 40.3379 108.251 37.9912C108.251 36.5635 108.222 35.3609 108.163 34.383C108.124 33.3857 108.075 32.4567 108.016 31.5963Z" fill="#C28CA7"/>
<path d="M123.963 23.3532V47.8183C123.963 48.1117 124.022 48.3463 124.139 48.5223C124.257 48.6983 124.433 48.8157 124.667 48.8743L126.046 49.1384C126.261 49.1774 126.369 49.2558 126.369 49.3729C126.369 49.5294 126.271 49.6077 126.075 49.6077H112.992C112.934 49.6077 112.875 49.5882 112.816 49.5492C112.758 49.5099 112.728 49.4513 112.728 49.3729C112.728 49.3339 112.748 49.2948 112.787 49.2558C112.845 49.1969 112.934 49.1579 113.051 49.1384L114.43 48.8743C114.703 48.8157 114.889 48.6983 114.987 48.5223C115.085 48.3463 115.134 48.1215 115.134 47.8476V26.7265C115.134 26.5896 115.094 26.4822 115.016 26.4039C114.958 26.3257 114.85 26.2864 114.693 26.2864H113.168C113.051 26.2864 112.973 26.2669 112.934 26.2279C112.894 26.1888 112.875 26.13 112.875 26.0519C112.875 25.9738 112.894 25.9149 112.934 25.8759C112.992 25.8368 113.061 25.8075 113.139 25.7878L122.878 23.0891C123.093 23.0305 123.24 22.9912 123.318 22.9717C123.396 22.9522 123.484 22.9424 123.582 22.9424C123.719 22.9424 123.817 22.9814 123.875 23.0598C123.934 23.1379 123.963 23.2358 123.963 23.3532ZM123.23 29.5719L122.878 29.1907L123.993 28.2226C125.987 26.4429 127.747 25.1326 129.273 24.2917C130.798 23.4313 132.187 23.001 133.438 23.001C135.218 23.001 136.597 23.5292 137.575 24.5851C138.572 25.6411 139.198 27.3133 139.452 29.6015L141.564 47.7597C141.603 48.0726 141.672 48.3267 141.77 48.5223C141.887 48.6983 142.083 48.8157 142.356 48.8743L143.618 49.1384C143.735 49.1579 143.813 49.1969 143.852 49.2558C143.911 49.2948 143.94 49.3339 143.94 49.3729C143.94 49.4513 143.911 49.5099 143.852 49.5492C143.813 49.5882 143.745 49.6077 143.647 49.6077H130.329C130.133 49.6077 130.036 49.5294 130.036 49.3729C130.036 49.2753 130.153 49.1969 130.388 49.1384L131.766 48.8743C132.06 48.8157 132.265 48.6885 132.383 48.493C132.519 48.2975 132.568 48.0529 132.529 47.7597L130.769 30.54C130.632 29.269 130.349 28.34 129.918 27.7532C129.488 27.1666 128.823 26.8732 127.923 26.8732C127.317 26.8732 126.721 27.0297 126.134 27.3426C125.547 27.636 124.941 28.0661 124.315 28.6334L123.23 29.5719Z" fill="#C28CA7"/>
<path d="M154.596 23.3531V47.8182C154.596 48.1116 154.645 48.3462 154.743 48.5222C154.86 48.6982 155.046 48.8156 155.3 48.8742L156.679 49.1383C156.796 49.1578 156.875 49.1871 156.914 49.2264C156.972 49.2655 157.001 49.3143 157.001 49.3729C157.001 49.4512 156.972 49.5098 156.914 49.5491C156.875 49.5881 156.806 49.6077 156.708 49.6077H143.625C143.547 49.6077 143.478 49.5881 143.419 49.5491C143.38 49.5098 143.361 49.4512 143.361 49.3729C143.361 49.3338 143.38 49.2947 143.419 49.2557C143.478 49.1969 143.566 49.1578 143.684 49.1383L145.062 48.8742C145.336 48.8156 145.522 48.6982 145.62 48.5222C145.717 48.3462 145.766 48.1214 145.766 47.8475V26.7265C145.766 26.5895 145.727 26.4821 145.649 26.4038C145.59 26.3257 145.483 26.2864 145.326 26.2864H143.801C143.684 26.2864 143.605 26.2669 143.566 26.2278C143.527 26.1887 143.508 26.1299 143.508 26.0518C143.508 25.9737 143.527 25.9149 143.566 25.8758C143.625 25.8368 143.693 25.8075 143.771 25.7877L153.511 23.089C153.726 23.0304 153.872 22.9911 153.951 22.9716C154.029 22.9521 154.117 22.9423 154.215 22.9423C154.352 22.9423 154.449 22.9814 154.508 23.0597C154.567 23.1378 154.596 23.2357 154.596 23.3531ZM150.049 20.2728C148.543 20.2728 147.321 19.7839 146.382 18.8061C145.444 17.8283 144.974 16.6353 144.974 15.2273C144.974 13.7996 145.444 12.5969 146.382 11.6191C147.341 10.6413 148.563 10.1523 150.049 10.1523C151.575 10.1523 152.816 10.6413 153.775 11.6191C154.753 12.5969 155.242 13.7996 155.242 15.2273C155.242 16.6353 154.753 17.8283 153.775 18.8061C152.816 19.7839 151.575 20.2728 150.049 20.2728Z" fill="#C28CA7"/>
<path d="M168.309 41.9519V24.5424H174.337C174.615 24.5424 174.867 24.4904 175.063 24.3537C175.246 24.2377 175.408 24.0651 175.408 23.823C175.408 23.7029 175.373 23.5182 175.203 23.4319C175.097 23.3541 174.967 23.3384 174.865 23.3384H168.309V17.7214C168.309 17.5029 168.249 17.2992 168.099 17.1438C167.969 16.9879 167.79 16.9141 167.59 16.9141C167.436 16.9141 167.269 16.9723 167.103 17.0546C166.942 17.1246 166.787 17.2259 166.638 17.3537L159.541 23.1603L159.531 23.1681L159.523 23.1768C159.448 23.2515 159.389 23.2972 159.346 23.3229C159.297 23.3327 159.239 23.3384 159.171 23.3384H156.707C156.593 23.3384 156.493 23.3915 156.422 23.439L156.401 23.4529L156.383 23.4707C156.295 23.5591 156.251 23.6723 156.251 23.7937C156.251 23.9116 156.292 24.0176 156.352 24.1083L156.38 24.1497L156.421 24.1773C156.507 24.2352 156.62 24.2827 156.745 24.3242L156.757 24.3282L156.769 24.331L159.113 24.8583C159.175 24.8739 159.212 24.8903 159.233 24.9027C159.239 24.9063 159.243 24.909 159.245 24.9107L159.251 24.9231L159.264 24.9408C159.274 24.9531 159.302 25.0126 159.302 25.1725V42.8026C159.302 45.35 160 47.2879 161.44 48.5634L161.442 48.5647C162.872 49.8114 164.915 50.4156 167.532 50.4156C169.044 50.4156 170.326 50.1673 171.367 49.6569L171.257 49.4324L171.367 49.6569C172.407 49.1472 173.243 48.3916 173.874 47.3953L173.875 47.3934C174.5 46.3857 174.967 45.1169 175.284 43.5951C175.308 43.5093 175.327 43.3785 175.258 43.258C175.181 43.123 175.047 43.0863 174.948 43.0814C174.84 43.0661 174.729 43.0912 174.636 43.1703C174.549 43.2452 174.504 43.3478 174.478 43.4382L174.476 43.4457L174.474 43.4533C174.341 44.0628 174.162 44.5787 173.939 45.0043L173.939 45.0043L173.937 45.0083C173.734 45.4159 173.498 45.7297 173.235 45.9581L173.235 45.958L173.228 45.9636C172.978 46.1959 172.704 46.3631 172.406 46.4684C172.1 46.5764 171.786 46.6302 171.462 46.6302C170.48 46.6302 169.725 46.2628 169.169 45.5278C168.61 44.7689 168.309 43.5907 168.309 41.9519ZM159.247 24.913C159.247 24.913 159.247 24.9129 159.247 24.9128C159.247 24.9129 159.247 24.913 159.247 24.913Z" fill="#C28CA7" stroke="#C28CA7" stroke-width="0.5"/>
<path d="M189.838 46.8795V46.5275L189.427 46.9384V26.7851C189.427 25.7292 189.182 24.9176 188.694 24.3505C188.224 23.7638 187.589 23.4704 186.787 23.4704C185.848 23.4704 185.124 23.7247 184.616 24.2331C184.127 24.7416 183.883 25.3674 183.883 26.1105V28.8387C183.883 29.9925 183.462 30.9801 182.621 31.8015C181.78 32.6228 180.685 33.0336 179.336 33.0336C178.416 33.0336 177.654 32.7695 177.048 32.2416C176.441 31.7136 176.138 30.902 176.138 29.8067C176.138 28.7506 176.578 27.7044 177.458 26.668C178.338 25.6118 179.649 24.7318 181.389 24.0279C183.149 23.3237 185.31 22.9717 187.872 22.9717C191.353 22.9717 193.954 23.6756 195.675 25.0838C197.416 26.4724 198.286 28.4672 198.286 31.0682V45.9115C198.286 46.4983 198.393 46.9286 198.609 47.2022C198.843 47.4566 199.117 47.5837 199.43 47.5837C199.763 47.5837 200.066 47.4761 200.339 47.261C200.613 47.0458 200.789 46.6645 200.868 46.117C200.887 46.0191 200.907 45.9605 200.926 45.9408C200.965 45.9017 201.004 45.8822 201.044 45.8822C201.102 45.8822 201.141 45.9017 201.161 45.9408C201.18 45.9605 201.19 46.0191 201.19 46.117C201.19 46.5275 200.995 47.0555 200.604 47.7009C200.212 48.3268 199.557 48.894 198.638 49.4025C197.719 49.9109 196.477 50.165 194.912 50.165C193.113 50.165 191.813 49.8521 191.011 49.2265C190.229 48.5811 189.838 47.7988 189.838 46.8795ZM174.584 43.8289C174.584 41.5798 175.513 39.8001 177.37 38.4898C179.248 37.16 182.299 36.4951 186.523 36.4951C187.579 36.4951 188.42 36.6025 189.045 36.8178C189.691 37.0133 190.287 37.2872 190.835 37.6392L190.571 37.8738C190.004 37.5804 189.447 37.3653 188.899 37.2284C188.351 37.0914 187.725 37.0231 187.021 37.0231C185.848 37.0231 184.939 37.4925 184.293 38.4312C183.648 39.3698 183.325 40.7487 183.325 42.5674C183.325 44.3078 183.648 45.5985 184.293 46.4397C184.939 47.2806 185.77 47.7009 186.787 47.7009C187.413 47.7009 188.038 47.5249 188.664 47.1729C189.31 46.8014 189.828 46.3125 190.219 45.7062L190.6 45.9408C189.779 47.3099 188.615 48.356 187.109 49.0798C185.604 49.8033 183.98 50.165 182.24 50.165C180.01 50.165 178.172 49.5785 176.725 48.4051C175.297 47.212 174.584 45.6867 174.584 43.8289Z" fill="#C28CA7"/>
<path d="M212.864 49.461C214.057 49.461 214.995 49.1579 215.68 48.5516C216.384 47.9259 216.736 47.1241 216.736 46.1463C216.736 45.4225 216.56 44.7674 216.208 44.1808C215.875 43.594 215.299 43.0465 214.477 42.5381C213.656 42.0101 212.522 41.5112 211.074 41.0421C208.63 40.2207 206.713 39.3307 205.325 38.3724C203.936 37.3946 202.959 36.3093 202.391 35.1162C201.824 33.9038 201.541 32.5447 201.541 31.0387C201.541 28.4379 202.421 26.4429 204.181 25.0545C205.941 23.6463 208.297 22.9424 211.25 22.9424C212.463 22.9424 213.46 23.0598 214.242 23.2944C215.025 23.5292 215.621 23.7638 216.032 23.9983C216.462 24.2136 216.736 24.321 216.853 24.321C217.068 24.321 217.46 24.2136 218.027 23.9983C218.613 23.7638 219.19 23.5292 219.757 23.2944C220.325 23.0598 220.696 22.9424 220.872 22.9424C220.97 22.9424 221.058 22.9717 221.136 23.0305C221.234 23.0696 221.293 23.1672 221.312 23.3237L222.691 32.1827C222.73 32.3785 222.74 32.535 222.72 32.6521C222.701 32.75 222.662 32.8184 222.603 32.8576C222.525 32.8772 222.456 32.8772 222.398 32.8576C222.339 32.8184 222.28 32.7598 222.222 32.6814C220.931 30.3738 219.718 28.555 218.584 27.2252C217.469 25.8954 216.345 24.9566 215.21 24.4091C214.096 23.8616 212.903 23.5878 211.632 23.5878C210.341 23.5878 209.353 23.9202 208.669 24.5851C207.984 25.2305 207.642 26.0909 207.642 27.1666C207.642 27.949 207.818 28.6529 208.17 29.2788C208.542 29.9046 209.197 30.4814 210.136 31.0094C211.094 31.5374 212.443 32.046 214.184 32.535C216.355 33.1606 218.076 33.9331 219.347 34.8524C220.638 35.7714 221.566 36.8178 222.134 37.9911C222.701 39.1645 222.984 40.4455 222.984 41.8339C222.984 43.555 222.554 45.0413 221.694 46.293C220.853 47.5249 219.728 48.4832 218.32 49.1676C216.912 49.8521 215.338 50.1943 213.597 50.1943C212.502 50.1943 211.553 50.0478 210.752 49.7544C209.969 49.461 209.334 49.1774 208.845 48.9038C208.376 48.6104 208.092 48.4637 207.994 48.4637C207.857 48.4637 207.525 48.5908 206.997 48.845C206.488 49.0993 205.96 49.3534 205.413 49.6077C204.885 49.8816 204.523 50.0183 204.327 50.0183C204.21 50.0183 204.093 49.9597 203.975 49.8423C203.878 49.7447 203.809 49.5687 203.77 49.3143L202.626 41.8634C202.606 41.6286 202.606 41.4624 202.626 41.3647C202.646 41.2473 202.694 41.169 202.773 41.1299C202.831 41.0909 202.88 41.0909 202.919 41.1299C202.978 41.169 203.046 41.2376 203.125 41.3352C204.865 44.2492 206.518 46.332 208.082 47.5837C209.666 48.8352 211.26 49.461 212.864 49.461Z" fill="#C28CA7"/>
<path d="M231.103 50.2543C229.85 50.2543 228.724 49.9475 227.727 49.3337C226.73 48.6944 225.937 47.8504 225.349 46.8019C224.76 45.7534 224.466 44.6026 224.466 43.3495C224.466 42.122 224.76 40.9966 225.349 39.9736C225.937 38.9251 226.73 38.094 227.727 37.4802C228.75 36.8665 229.875 36.5596 231.103 36.5596C232.381 36.5596 233.52 36.8665 234.517 37.4802C235.54 38.094 236.345 38.9251 236.934 39.9736C237.547 40.9966 237.854 42.122 237.854 43.3495C237.854 44.6026 237.547 45.7534 236.934 46.8019C236.345 47.8504 235.54 48.6944 234.517 49.3337C233.52 49.9475 232.381 50.2543 231.103 50.2543Z" fill="#C28CA7"/>
</svg>
