<svg width="237" height="69" viewBox="0 0 237 69" fill="none" xmlns="http://www.w3.org/2000/svg">
<path d="M106.221 26.91C109.075 26.91 111.371 27.7629 113.112 29.4689C114.881 31.1748 115.765 33.7052 115.765 37.06V49.0924C115.765 49.7015 115.271 50.1953 114.661 50.1953H110.193C109.583 50.1953 109.089 49.7015 109.089 49.0924V38.0836C109.089 36.264 108.689 34.9135 107.89 34.032C107.092 33.1223 105.936 32.6674 104.424 32.6674C102.741 32.6674 101.4 33.1934 100.401 34.2454C99.4023 35.2688 98.903 36.8042 98.903 38.8512V49.0924C98.903 49.7015 98.4088 50.1953 97.7989 50.1953H93.3307C92.7208 50.1953 92.2266 49.7015 92.2266 49.0924V19.6542C92.2266 19.0451 92.7208 18.5513 93.3307 18.5513H97.7989C98.4088 18.5513 98.903 19.0451 98.903 19.6542V26.9813C98.903 27.9633 100.176 28.5359 101.053 28.0921C101.39 27.9213 101.743 27.7688 102.113 27.635C103.368 27.1519 104.738 26.91 106.221 26.91Z" fill="#C28CA7"/>
<path d="M141.771 27.2515C142.381 27.2515 142.875 27.7453 142.875 28.3544V49.0925C142.875 49.7016 142.381 50.1955 141.771 50.1955H137.294C136.878 50.1955 136.541 49.8589 136.541 49.444C136.541 48.7529 135.639 48.3874 135.079 48.7936C134.553 49.1749 133.985 49.5001 133.374 49.7689C132.148 50.2807 130.821 50.5365 129.394 50.5365C126.37 50.5365 123.973 49.6694 122.204 47.9351C120.435 46.2009 119.551 43.6279 119.551 40.216V28.3544C119.551 27.7453 120.045 27.2515 120.655 27.2515H125.123C125.733 27.2515 126.227 27.7453 126.227 28.3544V39.2353C126.227 42.9311 127.782 44.7792 130.892 44.7792C132.49 44.7792 133.774 44.2676 134.744 43.244C135.714 42.192 136.199 40.6426 136.199 38.5956V28.3544C136.199 27.7453 136.693 27.2515 137.303 27.2515H141.771Z" fill="#C28CA7"/>
<path d="M169.272 18.5513C169.882 18.5513 170.376 19.0451 170.376 19.6542V49.0924C170.376 49.7015 169.882 50.1953 169.272 50.1953H164.702C164.314 50.1953 163.999 49.8813 163.999 49.4938C163.999 48.8371 163.119 48.4932 162.588 48.8802C161.073 49.9843 159.147 50.5364 156.809 50.5364C154.641 50.5364 152.672 50.0532 150.903 49.0865C149.163 48.1199 147.793 46.7408 146.795 44.9498C145.796 43.1586 145.297 41.0832 145.297 38.7233C145.297 36.3635 145.796 34.2881 146.795 32.4968C147.793 30.7056 149.163 29.3267 150.903 28.36C152.672 27.3934 154.641 26.91 156.809 26.91C158.584 26.91 160.124 27.2468 161.43 27.9206C162.331 28.3851 163.7 27.8072 163.7 26.7949V19.6542C163.7 19.0451 164.194 18.5513 164.804 18.5513H169.272ZM157.965 45.0777C159.648 45.0777 161.046 44.5091 162.159 43.3718C163.272 42.206 163.828 40.6566 163.828 38.7233C163.828 36.79 163.272 35.2546 162.159 34.1175C161.046 32.9518 159.648 32.3689 157.965 32.3689C156.253 32.3689 154.841 32.9518 153.728 34.1175C152.615 35.2546 152.059 36.79 152.059 38.7233C152.059 40.6566 152.615 42.206 153.728 43.3718C154.841 44.5091 156.253 45.0777 157.965 45.0777Z" fill="#C28CA7"/>
<path d="M196.756 18.5513C197.366 18.5513 197.861 19.0451 197.861 19.6542V49.0924C197.861 49.7015 197.366 50.1953 196.756 50.1953H192.186C191.798 50.1953 191.484 49.8813 191.484 49.4938C191.484 48.8371 190.603 48.4932 190.072 48.8802C188.558 49.9843 186.632 50.5364 184.294 50.5364C182.125 50.5364 180.157 50.0532 178.388 49.0865C176.647 48.1199 175.278 46.7408 174.279 44.9498C173.281 43.1586 172.781 41.0832 172.781 38.7233C172.781 36.3635 173.281 34.2881 174.279 32.4968C175.278 30.7056 176.647 29.3267 178.388 28.36C180.157 27.3934 182.125 26.91 184.294 26.91C186.068 26.91 187.608 27.2468 188.914 27.9206C189.815 28.3851 191.184 27.8072 191.184 26.7949V19.6542C191.184 19.0451 191.678 18.5513 192.288 18.5513H196.756ZM185.449 45.0777C187.133 45.0777 188.531 44.5091 189.643 43.3718C190.756 42.206 191.312 40.6566 191.312 38.7233C191.312 36.79 190.756 35.2546 189.643 34.1175C188.531 32.9518 187.133 32.3689 185.449 32.3689C183.737 32.3689 182.325 32.9518 181.212 34.1175C180.1 35.2546 179.543 36.79 179.543 38.7233C179.543 40.6566 180.1 42.206 181.212 43.3718C182.325 44.5091 183.737 45.0777 185.449 45.0777Z" fill="#C28CA7"/>
<path d="M210.158 50.5364C207.562 50.5364 205.536 49.854 204.081 48.4894C202.626 47.0963 201.898 45.1346 201.898 42.6042V19.6542C201.898 19.0451 202.393 18.5513 203.003 18.5513H207.471C208.08 18.5513 208.575 19.0451 208.575 19.6542V42.2203C208.575 43.187 208.817 43.9404 209.302 44.4806C209.816 44.9925 210.529 45.2482 211.442 45.2482C211.785 45.2482 212.127 45.2056 212.47 45.1203C212.877 45.0266 213.354 45.3115 213.378 45.729L213.576 49.1383C213.605 49.6362 213.297 50.0973 212.812 50.2171C211.952 50.43 211.068 50.5364 210.158 50.5364Z" fill="#C28CA7"/>
<path d="M225.947 45.2055C227.145 45.2055 228.201 45.035 229.114 44.6937C229.728 44.4523 230.312 44.1264 230.866 43.7155C231.363 43.3472 232.069 43.3603 232.489 43.8138L234.602 46.0974C234.986 46.5116 234.999 47.1537 234.587 47.5398C232.456 49.5375 229.519 50.5362 225.776 50.5362C223.179 50.5362 220.882 50.0389 218.885 49.0437C216.888 48.0201 215.347 46.6128 214.263 44.8216C213.179 43.0306 212.637 40.9976 212.637 38.7232C212.637 36.477 213.165 34.4584 214.22 32.6672C215.304 30.8476 216.774 29.4403 218.628 28.4453C220.511 27.4217 222.623 26.9099 224.962 26.9099C227.159 26.9099 229.156 27.3791 230.954 28.3172C232.751 29.2271 234.178 30.5634 235.234 32.3262C236.178 33.8363 236.711 35.5941 236.832 37.5999C236.865 38.1275 236.485 38.5823 235.965 38.6825L221.169 41.5349C220.478 41.6681 220.081 42.415 220.504 42.9763C220.931 43.5431 221.462 44.0019 222.095 44.3526C223.15 44.9213 224.435 45.2055 225.947 45.2055ZM224.962 31.9423C223.279 31.9423 221.909 32.4825 220.854 33.563C220.066 34.3689 219.556 35.4046 219.325 36.6698C219.197 37.3654 219.845 37.9127 220.54 37.778L229.241 36.0903C229.867 35.9688 230.272 35.3343 229.982 34.7668C229.626 34.0717 229.123 33.4857 228.472 33.0085C227.502 32.2978 226.332 31.9423 224.962 31.9423Z" fill="#C28CA7"/>
<path d="M4.95601 33.0219C4.00612 33.0219 3.09547 33.5553 2.65701 34.4695C1.81145 36.2313 1.18395 38.0953 0.79412 40.008C0.472526 41.5884 0.308594 43.2129 0.308594 44.834C0.308594 53.0713 4.45635 60.6333 11.4028 65.062C13.3755 66.3193 15.5145 67.2769 17.7601 67.9085C19.1179 68.2894 20.5211 67.4969 20.9031 66.1403C21.2835 64.783 20.4921 63.3738 19.1375 62.9929C17.3734 62.4972 15.6909 61.7448 14.1402 60.7558C8.6708 57.2697 5.40624 51.3175 5.40624 44.834C5.40624 43.5544 5.53565 42.275 5.78902 41.0299C6.0957 39.5281 6.58828 38.0631 7.25185 36.6792C7.86131 35.4081 7.32717 33.8836 6.05804 33.2732C5.70271 33.1013 5.32623 33.021 4.95601 33.021V33.0219Z" fill="#C28CA7"/>
<path d="M17.3277 44.2655C13.9873 41.8189 9.29695 42.5441 6.85133 45.8838C4.4049 49.2242 5.13013 53.9145 8.46972 56.3601C11.8101 58.8064 16.5004 58.0812 18.946 54.7418C21.3925 51.4014 20.6672 46.7111 17.3277 44.2655Z" fill="#C28CA7"/>
<path d="M43.3517 36.7936C41.5427 41.5053 43.8967 46.7918 48.6083 48.6008C53.3203 50.4097 58.6067 48.056 60.4157 43.3441C62.2247 38.6322 59.8707 33.346 55.1591 31.5368C50.4472 29.7278 45.1607 32.0817 43.3517 36.7936Z" fill="#C28CA7"/>
<path d="M59.4325 50.8888C68.2192 43.7735 70.8213 31.3347 65.6194 21.3133C64.971 20.0656 63.4348 19.5782 62.1855 20.2269C60.9352 20.8733 60.4504 22.4125 61.0991 23.6608C65.1919 31.5441 63.1437 41.3312 56.2273 46.932C51.0484 51.1259 44.2127 52.2677 37.9396 49.9886C36.6206 49.5081 35.1584 50.1899 34.6774 51.5113C34.1968 52.8331 34.8789 54.2944 36.2007 54.7747C44.0491 57.6267 52.9502 56.1379 59.4325 50.8888Z" fill="#C28CA7"/>
<path d="M23.7211 22.4597C28.749 22.0201 32.4685 17.587 32.029 12.559C31.5894 7.53105 27.1562 3.81152 22.1284 4.2511C17.1004 4.69067 13.3809 9.12377 13.8204 14.1517C14.26 19.1797 18.6931 22.8993 23.7211 22.4597Z" fill="#C28CA7"/>
<path d="M27.8329 1.59777C16.9118 -1.32852 5.31899 3.8776 0.269201 13.9766C-0.359096 15.2344 0.14951 16.7637 1.4087 17.3931C2.66653 18.0247 4.1968 17.5123 4.8253 16.2536C8.79737 8.30867 17.9191 4.21311 26.5156 6.51655C32.9526 8.24133 37.8943 13.1002 39.7378 19.5149C40.1241 20.8646 41.5357 21.6467 42.8871 21.2593C44.2389 20.871 45.02 19.4602 44.6319 18.1085C42.326 10.0828 35.8897 3.7566 27.8329 1.59777Z" fill="#C28CA7"/>
</svg>
