<svg width="238" height="59" viewBox="0 0 238 59" fill="none" xmlns="http://www.w3.org/2000/svg">
<path d="M29.4963 58.4647C45.5666 58.4647 58.5942 45.4372 58.5942 29.3669C58.5942 13.2966 45.5666 0.269043 29.4963 0.269043C13.426 0.269043 0.398438 13.2966 0.398438 29.3669C0.398438 45.4372 13.426 58.4647 29.4963 58.4647Z" fill="#C28CA7"/>
<path d="M29.4961 32.5662C31.263 32.5662 32.6953 31.1338 32.6953 29.367C32.6953 27.6001 31.263 26.1677 29.4961 26.1677C27.7292 26.1677 26.2969 27.6001 26.2969 29.367C26.2969 31.1338 27.7292 32.5662 29.4961 32.5662Z" stroke="#15021C" stroke-width="1.5"/>
<path d="M50.0648 18.7024C50.0648 18.7024 38.0588 23.1447 38.0586 29.0278C38.0586 34.9108 50.0648 40.0734 50.0648 40.0734" stroke="#15021C" stroke-width="1.5" stroke-linecap="round"/>
<path d="M54.4875 29.2823C54.4875 31.049 53.0553 32.4811 51.2887 32.4811C49.522 32.4811 48.0898 31.049 48.0898 29.2823C48.0898 27.5157 49.522 26.0835 51.2887 26.0835C53.0553 26.0835 54.4875 27.5157 54.4875 29.2823Z" stroke="#15021C" stroke-width="1.5"/>
<path d="M36.4952 7.28101C36.4952 7.28101 31.1469 18.9118 35.3067 23.0717C39.4666 27.2318 51.6067 22.3926 51.6067 22.3926" stroke="#15021C" stroke-width="1.5" stroke-linecap="round"/>
<path d="M47.1138 11.6277C48.363 12.877 48.363 14.9023 47.1138 16.1516C45.8646 17.4008 43.8392 17.4008 42.59 16.1516C41.3408 14.9023 41.3408 12.877 42.59 11.6277C43.8392 10.3785 45.8646 10.3785 47.1138 11.6277Z" stroke="#15021C" stroke-width="1.5"/>
<path d="M18.8281 8.79956C18.8281 8.79956 23.2704 20.8057 29.1534 20.8057C35.0365 20.8058 40.199 8.79956 40.199 8.79956" stroke="#15021C" stroke-width="1.5" stroke-linecap="round"/>
<path d="M29.4097 4.36703C31.1764 4.36703 32.6086 5.79918 32.6086 7.56584C32.6086 9.33249 31.1764 10.7646 29.4097 10.7646C27.6431 10.7646 26.2109 9.33249 26.2109 7.56584C26.2109 5.79918 27.6431 4.36703 29.4097 4.36703Z" stroke="#15021C" stroke-width="1.5"/>
<path d="M7.40625 22.3682C7.40625 22.3682 19.037 27.7165 23.1969 23.5567C27.357 19.3968 22.5178 7.25659 22.5178 7.25659" stroke="#15021C" stroke-width="1.5" stroke-linecap="round"/>
<path d="M11.7498 11.7529C12.999 10.5037 15.0244 10.5037 16.2736 11.7529C17.5228 13.0021 17.5228 15.0275 16.2736 16.2767C15.0244 17.5259 12.999 17.5259 11.7498 16.2767C10.5006 15.0275 10.5006 13.0021 11.7498 11.7529Z" stroke="#15021C" stroke-width="1.5"/>
<path d="M8.92188 40.0389C8.92188 40.0389 20.928 35.5968 20.928 29.7137C20.9281 23.8307 8.92188 18.668 8.92188 18.668" stroke="#15021C" stroke-width="1.5" stroke-linecap="round"/>
<path d="M4.4891 29.4591C4.4891 27.6925 5.92125 26.2603 7.68791 26.2603C9.45456 26.2603 10.8867 27.6925 10.8867 29.4591C10.8867 31.2258 9.45456 32.658 7.68791 32.658C5.92125 32.658 4.4891 31.2258 4.4891 29.4591Z" stroke="#15021C" stroke-width="1.5"/>
<path d="M22.4944 51.4594C22.4944 51.4594 27.8427 39.8286 23.6829 35.6688C19.523 31.5089 7.38281 36.3479 7.38281 36.3479" stroke="#15021C" stroke-width="1.5" stroke-linecap="round"/>
<path d="M11.8823 47.1125C10.633 45.8633 10.633 43.8379 11.8823 42.5887C13.1315 41.3395 15.1569 41.3395 16.4061 42.5887C17.6553 43.8379 17.6553 45.8633 16.4061 47.1125C15.1569 48.3617 13.1315 48.3617 11.8823 47.1125Z" stroke="#15021C" stroke-width="1.5"/>
<path d="M40.1601 49.9411C40.1601 49.9411 35.7178 37.9348 29.8347 37.9348C23.9517 37.9348 18.7891 49.9411 18.7891 49.9411" stroke="#15021C" stroke-width="1.5" stroke-linecap="round"/>
<path d="M29.5824 54.3732C27.8158 54.3732 26.3836 52.9411 26.3836 51.1744C26.3836 49.4077 27.8158 47.9756 29.5824 47.9756C31.3491 47.9756 32.7812 49.4077 32.7812 51.1744C32.7812 52.9411 31.3491 54.3732 29.5824 54.3732Z" stroke="#15021C" stroke-width="1.5"/>
<path d="M51.5802 36.3709C51.5802 36.3709 39.9495 31.0223 35.7894 35.1822C31.6295 39.342 36.4685 51.4824 36.4685 51.4824" stroke="#15021C" stroke-width="1.5" stroke-linecap="round"/>
<path d="M47.2385 46.9861C45.9893 48.2354 43.9639 48.2354 42.7147 46.9861C41.4654 45.7369 41.4654 43.7116 42.7147 42.4623C43.9639 41.2131 45.9893 41.2131 47.2385 42.4623C48.4877 43.7116 48.4877 45.7369 47.2385 46.9861Z" stroke="#15021C" stroke-width="1.5"/>
<path d="M107.766 31.6128L107.765 31.611L106.71 14.3621L106.71 14.3616C106.633 13.0668 106.292 12.0543 105.706 11.3032C105.122 10.5548 104.216 9.98234 102.963 9.60135L101.621 9.28043L101.61 9.27786L101.61 9.27763C101.468 9.23715 101.339 9.18959 101.247 9.12782L101.226 9.11429L101.209 9.09711C101.119 9.00787 101.077 8.89372 101.077 8.77324C101.077 8.65282 101.119 8.53877 101.209 8.44956C101.323 8.33582 101.469 8.28857 101.62 8.28857H112.679C112.811 8.28857 112.959 8.32622 113.062 8.44674C113.155 8.52207 113.223 8.63215 113.223 8.77324C113.223 8.93298 113.136 9.053 113.024 9.12782L107.766 31.6128ZM107.766 31.6128C107.824 32.4705 107.873 33.397 107.912 34.3923L107.912 34.3923L107.912 34.3975C107.97 35.3687 108 36.566 108 37.9907C108 40.3047 107.547 42.2864 106.651 43.9442L106.871 44.063M107.766 31.6128L106.871 44.063M106.871 44.063L106.651 43.9442C105.754 45.6053 104.516 46.8704 102.936 47.7459C101.355 48.6222 99.5303 49.0639 97.4546 49.0639C95.0768 49.0639 93.162 48.2307 91.6873 46.5673C90.2217 44.895 89.4614 42.1437 89.4614 38.2548C89.4614 37.3959 89.4711 36.3316 89.4909 35.0611L89.4909 35.0611C89.5104 33.7938 89.559 32.409 89.637 30.9062C89.637 30.9057 89.637 30.9052 89.6371 30.9047L90.9567 10.2594C90.9567 10.2588 90.9568 10.2583 90.9568 10.2578C90.9715 10.0739 91.0421 9.967 91.1588 9.897L91.1663 9.89251L91.1734 9.88751C91.3256 9.78109 91.5861 9.68215 91.9817 9.60643L94.1183 9.28449L94.1301 9.28271L94.1417 9.27981C94.2992 9.24042 94.4446 9.1932 94.5425 9.12786L106.871 44.063ZM108.766 11.3663L108.764 11.3685C108.105 12.1563 107.809 13.0987 107.883 14.2129L107.883 14.2141L108.939 31.2839C108.939 31.2844 108.939 31.285 108.939 31.2855C109.018 32.3426 109.086 33.3897 109.145 34.427L109.145 34.427C109.204 35.4686 109.233 36.5292 109.233 37.6095C109.233 39.9681 108.797 42.1254 107.92 44.0773C107.037 46.0461 105.58 47.61 103.563 48.7679C101.537 49.9317 98.8387 50.5027 95.4892 50.5027C91.6359 50.5027 88.4419 49.9821 85.9177 48.9285L85.9171 48.9283C83.4186 47.8774 81.5372 46.432 80.2917 44.584L80.2899 44.5814C79.0685 42.7191 78.4596 40.5979 78.4596 38.2253C78.4596 37.6726 78.4793 36.9547 78.5186 36.0727L78.5189 36.0676L78.5189 36.0676L78.5304 35.8907C78.5852 35.0502 78.6399 34.2094 78.6949 33.3689L78.6953 33.3636L78.6953 33.3636C78.7733 32.4654 78.8416 31.7036 78.9004 31.0777L80.1909 10.1952L80.1912 10.1899L80.1913 10.1899C80.1977 10.1134 80.1842 10.0619 80.1632 10.0241C80.1418 9.98562 80.1023 9.94304 80.0273 9.90209L80.0199 9.89806L80.0128 9.89353C79.8382 9.7824 79.5533 9.68228 79.1366 9.60634L77.1443 9.28407L77.1318 9.28204L77.1319 9.28173C76.9836 9.24996 76.8467 9.20551 76.741 9.13758C76.6314 9.06715 76.5234 8.94778 76.5234 8.77324C76.5234 8.6228 76.6008 8.50806 76.7023 8.43301C76.8134 8.33121 76.9527 8.28857 77.0961 8.28857H94.1691C94.3004 8.28857 94.468 8.31718 94.5799 8.44607C94.673 8.52111 94.7418 8.63128 94.7418 8.77324C94.7418 8.93359 94.654 9.0534 94.5426 9.12782L108.766 11.3663ZM108.766 11.3663C109.435 10.5486 110.329 9.96826 111.46 9.62899C111.46 9.62891 111.46 9.62882 111.46 9.62874L112.66 9.27766C112.66 9.27758 112.661 9.2775 112.661 9.27742M108.766 11.3663L112.661 9.27742M112.661 9.27742C112.802 9.237 112.931 9.18951 113.023 9.12786L112.661 9.27742Z" fill="#C28CA7" stroke="#C28CA7" stroke-width="0.5"/>
<path d="M123.962 23.3529V47.8181C123.962 48.1115 124.02 48.346 124.138 48.522C124.255 48.698 124.431 48.8154 124.666 48.874L126.045 49.1381C126.26 49.1772 126.367 49.2555 126.367 49.3727C126.367 49.5292 126.27 49.6075 126.074 49.6075H112.991C112.932 49.6075 112.873 49.588 112.815 49.5489C112.756 49.5096 112.727 49.451 112.727 49.3727C112.727 49.3336 112.746 49.2946 112.785 49.2555C112.844 49.1967 112.932 49.1576 113.049 49.1381L114.428 48.874C114.702 48.8154 114.888 48.698 114.985 48.522C115.083 48.346 115.132 48.1212 115.132 47.8474V26.7263C115.132 26.5894 115.093 26.482 115.015 26.4036C114.956 26.3255 114.848 26.2862 114.692 26.2862H113.167C113.049 26.2862 112.971 26.2667 112.932 26.2276C112.893 26.1886 112.873 26.1297 112.873 26.0516C112.873 25.9735 112.893 25.9147 112.932 25.8756C112.991 25.8366 113.059 25.8073 113.137 25.7875L122.877 23.0888C123.092 23.0302 123.238 22.991 123.316 22.9714C123.395 22.9519 123.483 22.9421 123.581 22.9421C123.718 22.9421 123.815 22.9812 123.874 23.0595C123.933 23.1377 123.962 23.2355 123.962 23.3529ZM123.229 29.5717L122.877 29.1904L123.991 28.2223C125.986 26.4427 127.746 25.1324 129.272 24.2915C130.797 23.4311 132.185 23.0007 133.437 23.0007C135.217 23.0007 136.595 23.5289 137.573 24.5849C138.571 25.6408 139.196 27.3131 139.451 29.6012L141.563 47.7595C141.602 48.0724 141.67 48.3265 141.768 48.522C141.886 48.698 142.081 48.8154 142.355 48.874L143.616 49.1381C143.734 49.1576 143.812 49.1967 143.851 49.2555C143.91 49.2946 143.939 49.3336 143.939 49.3727C143.939 49.451 143.91 49.5096 143.851 49.5489C143.812 49.588 143.743 49.6075 143.645 49.6075H130.328C130.132 49.6075 130.034 49.5292 130.034 49.3727C130.034 49.275 130.152 49.1967 130.386 49.1381L131.765 48.874C132.058 48.8154 132.264 48.6883 132.381 48.4927C132.518 48.2972 132.567 48.0526 132.528 47.7595L130.768 30.5398C130.631 29.2688 130.347 28.3397 129.917 27.753C129.487 27.1664 128.822 26.873 127.922 26.873C127.316 26.873 126.719 27.0295 126.133 27.3424C125.546 27.6358 124.94 28.0659 124.314 28.6331L123.229 29.5717Z" fill="#C28CA7"/>
<path d="M154.595 23.3529V47.818C154.595 48.1114 154.644 48.346 154.741 48.522C154.859 48.6979 155.044 48.8153 155.299 48.8739L156.677 49.138C156.795 49.1576 156.873 49.1869 156.912 49.2262C156.971 49.2652 157 49.314 157 49.3726C157 49.451 156.971 49.5096 156.912 49.5488C156.873 49.5879 156.804 49.6074 156.707 49.6074H143.623C143.545 49.6074 143.477 49.5879 143.418 49.5488C143.379 49.5096 143.359 49.451 143.359 49.3726C143.359 49.3336 143.379 49.2945 143.418 49.2554C143.477 49.1966 143.565 49.1576 143.682 49.138L145.061 48.8739C145.335 48.8153 145.52 48.6979 145.618 48.522C145.716 48.346 145.765 48.1212 145.765 47.8473V26.7262C145.765 26.5893 145.726 26.4819 145.648 26.4035C145.589 26.3254 145.481 26.2861 145.325 26.2861H143.799C143.682 26.2861 143.604 26.2666 143.565 26.2275C143.526 26.1885 143.506 26.1297 143.506 26.0516C143.506 25.9734 143.526 25.9146 143.565 25.8756C143.623 25.8365 143.692 25.8072 143.77 25.7875L153.509 23.0888C153.724 23.0302 153.871 22.9909 153.949 22.9714C154.027 22.9519 154.116 22.9421 154.213 22.9421C154.35 22.9421 154.448 22.9811 154.507 23.0595C154.565 23.1376 154.595 23.2355 154.595 23.3529ZM150.048 20.2726C148.542 20.2726 147.32 19.7837 146.381 18.8059C145.442 17.828 144.973 16.6351 144.973 15.227C144.973 13.7994 145.442 12.5967 146.381 11.6188C147.339 10.641 148.561 10.1521 150.048 10.1521C151.573 10.1521 152.815 10.641 153.773 11.6188C154.751 12.5967 155.24 13.7994 155.24 15.227C155.24 16.6351 154.751 17.828 153.773 18.8059C152.815 19.7837 151.573 20.2726 150.048 20.2726Z" fill="#C28CA7"/>
<path d="M168.308 41.951V24.5414H174.336C174.614 24.5414 174.866 24.4894 175.061 24.3527C175.245 24.2367 175.407 24.0641 175.407 23.822C175.407 23.7019 175.372 23.5172 175.201 23.4309C175.096 23.3532 174.966 23.3374 174.864 23.3374H168.308V17.7204C168.308 17.5019 168.247 17.2983 168.098 17.1428C167.968 16.987 167.789 16.9131 167.589 16.9131C167.435 16.9131 167.268 16.9713 167.102 17.0536C166.941 17.1237 166.786 17.2249 166.636 17.3527L159.539 23.1594L159.53 23.1672L159.521 23.1759C159.446 23.2506 159.388 23.2962 159.345 23.3219C159.296 23.3317 159.238 23.3374 159.17 23.3374H156.706C156.591 23.3374 156.491 23.3905 156.42 23.438L156.399 23.4519L156.382 23.4698C156.294 23.5582 156.25 23.6713 156.25 23.7927C156.25 23.9106 156.29 24.0166 156.351 24.1074L156.378 24.1487L156.42 24.1763C156.506 24.2342 156.619 24.2817 156.744 24.3233L156.756 24.3272L156.768 24.33L159.112 24.8573C159.173 24.8729 159.211 24.8893 159.232 24.9018C159.237 24.9053 159.241 24.908 159.243 24.9098L159.25 24.9221L159.263 24.9398C159.272 24.9521 159.301 25.0116 159.301 25.1716V42.8016C159.301 45.349 159.998 47.2869 161.439 48.5624L161.44 48.5637C162.871 49.8104 164.913 50.4147 167.53 50.4147C169.042 50.4147 170.324 50.1663 171.366 49.6559L171.256 49.4314L171.366 49.6559C172.405 49.1462 173.242 48.3906 173.872 47.3943L173.873 47.3924C174.498 46.3847 174.966 45.1159 175.283 43.5941C175.306 43.5084 175.326 43.3775 175.257 43.257C175.18 43.1221 175.046 43.0853 174.947 43.0804C174.839 43.0651 174.727 43.0903 174.635 43.1693C174.548 43.2442 174.502 43.3468 174.477 43.4372L174.475 43.4447L174.473 43.4524C174.339 44.0618 174.16 44.5778 173.938 45.0033L173.938 45.0033L173.936 45.0073C173.732 45.415 173.496 45.7287 173.233 45.9571L173.233 45.957L173.227 45.9627C172.977 46.1949 172.703 46.3621 172.404 46.4675C172.099 46.5754 171.785 46.6292 171.461 46.6292C170.479 46.6292 169.724 46.2619 169.168 45.5269C168.608 44.768 168.308 43.5898 168.308 41.951ZM159.246 24.912C159.246 24.912 159.246 24.9119 159.246 24.9118C159.246 24.9119 159.246 24.912 159.246 24.912Z" fill="#C28CA7" stroke="#C28CA7" stroke-width="0.5"/>
<path d="M189.836 46.8793V46.5273L189.426 46.9381V26.7849C189.426 25.7289 189.181 24.9173 188.692 24.3503C188.223 23.7635 187.587 23.4701 186.785 23.4701C185.847 23.4701 185.123 23.7245 184.614 24.2329C184.126 24.7413 183.881 25.3672 183.881 26.1102V28.8384C183.881 29.9923 183.461 30.9799 182.62 31.8012C181.779 32.6226 180.684 33.0334 179.334 33.0334C178.415 33.0334 177.652 32.7693 177.046 32.2413C176.44 31.7133 176.137 30.9017 176.137 29.8065C176.137 28.7503 176.577 27.7041 177.457 26.6677C178.337 25.6115 179.647 24.7316 181.388 24.0276C183.148 23.3234 185.309 22.9714 187.871 22.9714C191.352 22.9714 193.953 23.6754 195.674 25.0836C197.414 26.4722 198.285 28.4669 198.285 31.068V45.9112C198.285 46.498 198.392 46.9283 198.607 47.202C198.842 47.4563 199.116 47.5835 199.429 47.5835C199.761 47.5835 200.064 47.4758 200.338 47.2608C200.612 47.0455 200.788 46.6642 200.866 46.1167C200.886 46.0189 200.905 45.9603 200.925 45.9405C200.964 45.9015 201.003 45.8819 201.042 45.8819C201.101 45.8819 201.14 45.9015 201.159 45.9405C201.179 45.9603 201.189 46.0189 201.189 46.1167C201.189 46.5273 200.993 47.0553 200.602 47.7007C200.211 48.3265 199.556 48.8938 198.637 49.4022C197.717 49.9107 196.476 50.1648 194.911 50.1648C193.112 50.1648 191.811 49.8518 191.009 49.2262C190.227 48.5808 189.836 47.7985 189.836 46.8793ZM174.582 43.8286C174.582 41.5796 175.511 39.7999 177.369 38.4896C179.246 37.1598 182.297 36.4949 186.521 36.4949C187.577 36.4949 188.418 36.6023 189.044 36.8176C189.689 37.0131 190.286 37.2869 190.833 37.6389L190.57 37.8735C190.002 37.5801 189.445 37.3651 188.897 37.2281C188.35 37.0912 187.724 37.0228 187.02 37.0228C185.847 37.0228 184.937 37.4922 184.292 38.431C183.646 39.3695 183.324 40.7484 183.324 42.5672C183.324 44.3075 183.646 45.5983 184.292 46.4394C184.937 47.2803 185.768 47.7007 186.785 47.7007C187.411 47.7007 188.037 47.5247 188.663 47.1727C189.308 46.8012 189.826 46.3123 190.217 45.7059L190.599 45.9405C189.777 47.3096 188.614 48.3558 187.108 49.0795C185.602 49.803 183.979 50.1648 182.238 50.1648C180.009 50.1648 178.171 49.5782 176.723 48.4049C175.296 47.2117 174.582 45.6864 174.582 43.8286Z" fill="#C28CA7"/>
<path d="M212.862 49.4608C214.055 49.4608 214.994 49.1576 215.678 48.5513C216.383 47.9257 216.735 47.1239 216.735 46.146C216.735 45.4223 216.559 44.7672 216.206 44.1806C215.874 43.5938 215.297 43.0463 214.476 42.5379C213.654 42.0099 212.52 41.511 211.073 41.0418C208.628 40.2204 206.712 39.3305 205.323 38.3722C203.935 37.3943 202.957 36.3091 202.39 35.116C201.823 33.9036 201.539 32.5445 201.539 31.0384C201.539 28.4376 202.419 26.4427 204.179 25.0543C205.939 23.6461 208.296 22.9421 211.249 22.9421C212.461 22.9421 213.459 23.0595 214.241 23.2941C215.023 23.5289 215.62 23.7635 216.03 23.9981C216.461 24.2134 216.735 24.3208 216.852 24.3208C217.067 24.3208 217.458 24.2134 218.025 23.9981C218.612 23.7635 219.189 23.5289 219.756 23.2941C220.323 23.0595 220.695 22.9421 220.871 22.9421C220.969 22.9421 221.056 22.9714 221.135 23.0303C221.232 23.0693 221.291 23.167 221.311 23.3234L222.689 32.1825C222.728 32.3782 222.738 32.5347 222.719 32.6519C222.699 32.7498 222.66 32.8181 222.602 32.8574C222.523 32.8769 222.455 32.8769 222.396 32.8574C222.337 32.8181 222.279 32.7595 222.22 32.6812C220.929 30.3735 219.717 28.5548 218.583 27.225C217.468 25.8952 216.343 24.9564 215.209 24.4089C214.094 23.8614 212.901 23.5875 211.63 23.5875C210.34 23.5875 209.352 23.92 208.667 24.5849C207.983 25.2303 207.641 26.0907 207.641 27.1664C207.641 27.9487 207.817 28.6527 208.169 29.2785C208.54 29.9044 209.195 30.4812 210.134 31.0091C211.092 31.5371 212.442 32.0458 214.182 32.5347C216.353 33.1603 218.074 33.9329 219.345 34.8521C220.636 35.7711 221.565 36.8176 222.132 37.9909C222.699 39.1643 222.983 40.4452 222.983 41.8337C222.983 43.5547 222.552 45.041 221.692 46.2927C220.851 47.5247 219.727 48.483 218.318 49.1674C216.911 49.8518 215.336 50.1941 213.596 50.1941C212.501 50.1941 211.552 50.0476 210.75 49.7542C209.968 49.4608 209.332 49.1772 208.844 48.9035C208.374 48.6101 208.09 48.4634 207.993 48.4634C207.856 48.4634 207.523 48.5906 206.995 48.8447C206.487 49.099 205.959 49.3532 205.411 49.6075C204.883 49.8814 204.521 50.0181 204.326 50.0181C204.208 50.0181 204.091 49.9595 203.974 49.8421C203.876 49.7444 203.808 49.5684 203.768 49.3141L202.625 41.8632C202.605 41.6284 202.605 41.4621 202.625 41.3645C202.644 41.2471 202.693 41.1687 202.771 41.1297C202.83 41.0906 202.879 41.0906 202.918 41.1297C202.977 41.1687 203.045 41.2373 203.123 41.335C204.864 44.2489 206.516 46.3318 208.081 47.5835C209.665 48.8349 211.259 49.4608 212.862 49.4608Z" fill="#C28CA7"/>
<path d="M231.101 50.2539C229.848 50.2539 228.723 49.947 227.725 49.3332C226.728 48.6939 225.935 47.85 225.347 46.8015C224.759 45.7529 224.465 44.6021 224.465 43.349C224.465 42.1215 224.759 40.9961 225.347 39.9731C225.935 38.9246 226.728 38.0935 227.725 37.4797C228.748 36.866 229.874 36.5591 231.101 36.5591C232.38 36.5591 233.518 36.866 234.515 37.4797C235.538 38.0935 236.344 38.9246 236.932 39.9731C237.546 40.9961 237.853 42.1215 237.853 43.349C237.853 44.6021 237.546 45.7529 236.932 46.8015C236.344 47.85 235.538 48.6939 234.515 49.3332C233.518 49.947 232.38 50.2539 231.101 50.2539Z" fill="#C28CA7"/>
</svg>
