<svg width="96" height="96" viewBox="0 0 96 96" fill="none" xmlns="http://www.w3.org/2000/svg">
<path d="M19.9997 52C19.9997 58.5935 22.6586 64.5661 26.9627 68.9038C27.3778 69.3222 27.5853 69.5314 27.7078 69.7325C27.8247 69.9244 27.8928 70.0897 27.945 70.3082C27.9997 70.5373 27.9997 70.798 27.9997 71.3193V80.8C27.9997 81.9201 27.9997 82.4802 28.2177 82.908C28.4095 83.2843 28.7154 83.5903 29.0917 83.782C29.5196 84 30.0796 84 31.1997 84H38.7997C39.9198 84 40.4799 84 40.9077 83.782C41.284 83.5903 41.59 83.2843 41.7817 82.908C41.9997 82.4802 41.9997 81.9201 41.9997 80.8V79.2C41.9997 78.0799 41.9997 77.5198 42.2177 77.092C42.4095 76.7157 42.7154 76.4097 43.0917 76.218C43.5196 76 44.0796 76 45.1997 76H50.7997C51.9198 76 52.4799 76 52.9077 76.218C53.284 76.4097 53.59 76.7157 53.7817 77.092C53.9997 77.5198 53.9997 78.0799 53.9997 79.2V80.8C53.9997 81.9201 53.9997 82.4802 54.2177 82.908C54.4095 83.2843 54.7154 83.5903 55.0917 83.782C55.5196 84 56.0796 84 57.1997 84H64.8C65.9201 84 66.4802 84 66.908 83.782C67.2843 83.5903 67.5903 83.2843 67.782 82.908C68 82.4802 68 81.9201 68 80.8V76.8973C68 76.0891 68 75.6849 68.1151 75.3606C68.2253 75.0496 68.3643 74.832 68.5999 74.601C68.8456 74.36 69.262 74.1667 70.0947 73.7801C74.0236 71.9561 77.3762 69.1003 79.8045 65.5607C80.2315 64.9382 80.445 64.627 80.673 64.4432C80.891 64.2674 81.0867 64.1643 81.355 64.084C81.6356 64 81.9687 64 82.635 64H84.8C85.9201 64 86.4802 64 86.908 63.782C87.2843 63.5903 87.5903 63.2843 87.782 62.908C88 62.4802 88 61.9201 88 60.8V47.143C88 46.0766 88 45.5435 87.8019 45.1321C87.6053 44.724 87.276 44.3947 86.8679 44.1981C86.4566 44 85.9234 44 84.857 44C84.0851 44 83.6992 44 83.3884 43.8952C83.0532 43.7822 82.8181 43.6319 82.575 43.3751C82.3494 43.1369 82.1653 42.7386 81.7971 41.9419C80.6152 39.3849 78.9966 37.0711 77.037 35.0961C76.6219 34.6778 76.4144 34.4687 76.2919 34.2675C76.175 34.0756 76.1069 33.9103 76.0547 33.6918C76 33.4627 76 33.202 76 32.6807V28.2423C76 26.8021 76 26.082 75.7001 25.598C75.4374 25.174 75.0257 24.8635 74.5459 24.7274C73.9981 24.572 73.3057 24.7698 71.9209 25.1654L62.4306 27.8769C62.2694 27.923 62.1887 27.946 62.1068 27.9622C62.0339 27.9765 61.9604 27.9868 61.8864 27.993C61.8032 28 61.7193 28 61.5515 28H59.8362M19.9997 52C19.9997 42.7837 25.1946 34.7808 32.8159 30.7596M19.9997 52H16C11.5817 52 8 48.4183 8 44C8 41.0389 9.60879 38.4535 12 37.0703M60 26C60 33.732 53.732 40 46 40C38.268 40 32 33.732 32 26C32 18.268 38.268 12 46 12C53.732 12 60 18.268 60 26Z" stroke="#FF958C" stroke-width="6" stroke-linecap="round" stroke-linejoin="round"/>
</svg>
