<svg width="33" height="32" viewBox="0 0 33 32" fill="none" xmlns="http://www.w3.org/2000/svg">
<path d="M8.4572 14.9716C8.37432 14.4375 8.33133 13.8903 8.33133 13.3332C8.33133 7.44213 13.1384 2.6665 19.0682 2.6665C24.998 2.6665 29.805 7.44213 29.805 13.3332C29.805 14.6639 29.5597 15.9378 29.1116 17.1125C29.0185 17.3565 28.972 17.4785 28.9508 17.5737C28.9299 17.6681 28.9218 17.7345 28.9196 17.8311C28.9173 17.9286 28.9305 18.0361 28.9569 18.2509L29.4937 22.6112C29.5518 23.0832 29.5809 23.3192 29.5024 23.4908C29.4336 23.6411 29.3114 23.7605 29.1595 23.8258C28.9862 23.9004 28.7509 23.8659 28.2803 23.7969L24.0333 23.1744C23.8116 23.1419 23.7007 23.1256 23.5997 23.1262C23.4998 23.1268 23.4307 23.1341 23.3329 23.1547C23.2341 23.1755 23.1078 23.2228 22.8554 23.3173C21.6776 23.7585 20.4013 23.9998 19.0682 23.9998C18.5106 23.9998 17.9629 23.9576 17.4283 23.8762M10.5068 29.3332C14.46 29.3332 17.6647 26.0499 17.6647 21.9998C17.6647 17.9497 14.46 14.6665 10.5068 14.6665C6.55362 14.6665 3.34892 17.9497 3.34892 21.9998C3.34892 22.814 3.47841 23.5971 3.71745 24.3288C3.81849 24.6381 3.86901 24.7928 3.88559 24.8984C3.9029 25.0087 3.90593 25.0707 3.89949 25.1821C3.89331 25.2889 3.8666 25.4096 3.81317 25.6509L2.99805 29.3332L6.99112 28.7878C7.20907 28.7581 7.31804 28.7432 7.41321 28.7438C7.51341 28.7445 7.56659 28.7499 7.66486 28.7695C7.75819 28.7881 7.89693 28.8371 8.17441 28.935C8.9055 29.1931 9.69019 29.3332 10.5068 29.3332Z" stroke="white" stroke-width="2" stroke-linecap="round" stroke-linejoin="round"/>
</svg>
