<svg width="33" height="32" viewBox="0 0 33 32" fill="none" xmlns="http://www.w3.org/2000/svg">
<path d="M12.332 12V8C12.332 5.79086 10.5412 4 8.33203 4C6.12289 4 4.33203 5.79086 4.33203 8C4.33203 10.2091 6.12289 12 8.33203 12H12.332ZM12.332 12V20M12.332 12H20.332M12.332 20V24C12.332 26.2091 10.5412 28 8.33203 28C6.12289 28 4.33203 26.2091 4.33203 24C4.33203 21.7909 6.12289 20 8.33203 20H12.332ZM12.332 20H20.332M20.332 20H24.332C26.5412 20 28.332 21.7909 28.332 24C28.332 26.2091 26.5412 28 24.332 28C22.1229 28 20.332 26.2091 20.332 24V20ZM20.332 20V12M20.332 12V8C20.332 5.79086 22.1229 4 24.332 4C26.5412 4 28.332 5.79086 28.332 8C28.332 10.2091 26.5412 12 24.332 12H20.332Z" stroke="white" stroke-width="2" stroke-linecap="round" stroke-linejoin="round"/>
</svg>
