<svg width="96" height="96" viewBox="0 0 96 96" fill="none" xmlns="http://www.w3.org/2000/svg">
<path d="M30 44H18.4C16.1598 44 15.0397 44 14.184 44.436C13.4314 44.8195 12.8195 45.4314 12.436 46.184C12 47.0397 12 48.1598 12 50.4V84M66 44H77.6C79.8402 44 80.9603 44 81.816 44.436C82.5686 44.8195 83.1805 45.4314 83.564 46.184C84 47.0397 84 48.1598 84 50.4V84M66 84V24.8C66 20.3196 66 18.0794 65.1281 16.3681C64.3611 14.8628 63.1372 13.6389 61.6319 12.8719C59.9206 12 57.6804 12 53.2 12H42.8C38.3196 12 36.0794 12 34.3681 12.8719C32.8628 13.6389 31.6389 14.8628 30.8719 16.3681C30 18.0794 30 20.3196 30 24.8V84M88 84H8M44 28H52M44 44H52M44 60H52" stroke="#FF958C" stroke-width="6" stroke-linecap="round" stroke-linejoin="round"/>
</svg>
