<svg width="96" height="96" viewBox="0 0 96 96" fill="none" xmlns="http://www.w3.org/2000/svg">
<path d="M22.08 10.56L15.84 18.88C14.6041 20.5279 13.9861 21.3519 14.0004 22.0416C14.0129 22.6418 14.2943 23.2046 14.767 23.5747C15.3102 24 16.3401 24 18.4 24H77.6C79.6599 24 80.6898 24 81.233 23.5747C81.7057 23.2046 81.9871 22.6418 81.9996 22.0416C82.0139 21.3519 81.3959 20.5279 80.16 18.88L73.92 10.56M22.08 10.56C22.784 9.62134 23.136 9.152 23.5821 8.8135C23.9772 8.5137 24.4246 8.28999 24.9015 8.15378C25.44 8 26.0267 8 27.2 8H68.8C69.9733 8 70.56 8 71.0985 8.15378C71.5754 8.28999 72.0228 8.5137 72.4179 8.8135C72.864 9.152 73.216 9.62134 73.92 10.56M22.08 10.56L14.56 20.5867C13.6102 21.8531 13.1352 22.4863 12.798 23.1837C12.4987 23.8025 12.2805 24.4572 12.1486 25.1318C12 25.892 12 26.6836 12 28.2667L12 75.2C12 79.6804 12 81.9206 12.8719 83.6319C13.6389 85.1372 14.8628 86.361 16.3681 87.128C18.0794 88 20.3196 88 24.8 88L71.2 88C75.6804 88 77.9206 88 79.6319 87.128C81.1372 86.3611 82.3611 85.1372 83.1281 83.6319C84 81.9206 84 79.6804 84 75.2V28.2667C84 26.6836 84 25.8921 83.8514 25.1318C83.7195 24.4573 83.5013 23.8025 83.202 23.1837C82.8648 22.4864 82.3898 21.8531 81.44 20.5867L73.92 10.56M64 40C64 44.2435 62.3143 48.3131 59.3137 51.3137C56.3131 54.3143 52.2435 56 48 56C43.7565 56 39.6869 54.3143 36.6863 51.3137C33.6857 48.3131 32 44.2435 32 40" stroke="#FF958C" stroke-width="6" stroke-linecap="round" stroke-linejoin="round"/>
</svg>
