<svg width="22" height="22" viewBox="0 0 22 22" fill="none" xmlns="http://www.w3.org/2000/svg">
<path d="M10.6665 20.5C15.9132 20.5 20.1665 16.2467 20.1665 11C20.1665 5.75329 15.9132 1.5 10.6665 1.5C5.4198 1.5 1.1665 5.75329 1.1665 11C1.1665 16.2467 5.4198 20.5 10.6665 20.5Z" stroke="#7E8192" stroke-width="2" stroke-linecap="round" stroke-linejoin="round"/>
<path d="M7.83173 16.4301C7.59867 16.4301 7.396 16.344 7.22373 16.1717C7.05147 15.9995 6.96533 15.7968 6.96533 15.5637V15.3661C6.96533 15.052 7.17307 14.7581 7.58853 14.4845C8.156 14.1096 8.43973 13.4053 8.43973 12.3717V11.6421C8.43973 11.5611 8.39413 11.5205 8.30293 11.5205H7.95333C7.75067 11.5205 7.5784 11.4496 7.43653 11.3077C7.29467 11.1557 7.22373 10.9784 7.22373 10.7757C7.22373 10.5731 7.29467 10.4008 7.43653 10.2589C7.5784 10.1171 7.75067 10.0461 7.95333 10.0461H8.30293C8.39413 10.0461 8.43973 10.0005 8.43973 9.90933V8.37413C8.43973 7.3608 8.75387 6.57546 9.38213 6.01813C10.0205 5.4608 10.9325 5.18213 12.1181 5.18213C12.5032 5.18213 12.8832 5.21253 13.2581 5.27333C13.5013 5.31386 13.6989 5.44053 13.8509 5.65333C14.0131 5.86613 14.0941 6.0992 14.0941 6.35253V6.39813C14.0941 6.6008 14.008 6.76293 13.8357 6.88453C13.6736 7.00613 13.4861 7.04159 13.2733 6.99093C12.9896 6.93013 12.6856 6.89973 12.3613 6.89973C11.7128 6.89973 11.2467 7.03146 10.9629 7.29493C10.6792 7.5584 10.5373 7.984 10.5373 8.57173V9.90933C10.5373 10.0005 10.5829 10.0461 10.6741 10.0461H12.6197C12.8224 10.0461 12.9947 10.1171 13.1365 10.2589C13.2784 10.4008 13.3493 10.5731 13.3493 10.7757C13.3493 10.9784 13.2784 11.1557 13.1365 11.3077C12.9947 11.4496 12.8224 11.5205 12.6197 11.5205H10.6741C10.5829 11.5205 10.5373 11.5611 10.5373 11.6421V12.3717C10.5373 12.9291 10.4411 13.4155 10.2485 13.8309C10.056 14.2363 9.80773 14.5149 9.50373 14.6669V14.6973C9.50373 14.7075 9.5088 14.7125 9.51893 14.7125H13.4557C13.6888 14.7125 13.8915 14.7987 14.0637 14.9709C14.236 15.1331 14.3221 15.3307 14.3221 15.5637C14.3221 15.7968 14.236 15.9995 14.0637 16.1717C13.8915 16.344 13.6888 16.4301 13.4557 16.4301H7.83173Z" fill="#7E8192"/>
</svg>
