<svg width="148" height="88" viewBox="0 0 148 88" fill="none" xmlns="http://www.w3.org/2000/svg">
<path d="M37.4242 87.6036C36.7656 86.8626 36.5504 85.5427 36.9183 84.5C37.1007 83.9831 37.2499 83.4144 37.2499 83.2363C37.2499 83.0581 37.7678 81.7788 38.4008 80.3933C39.8666 77.1847 40.0439 76.6904 41.4287 71.9511C42.5847 67.9949 43.8804 63.9208 44.6616 61.7856C44.8941 61.1502 45.2562 60.0066 45.4664 59.2442C45.9784 57.3871 46.7099 55.1939 46.9951 54.6611C47.5021 53.7136 49.4911 54.8439 49.8939 56.3083C50.0724 56.9575 50.077 58.2549 49.9292 66.4063L49.8413 71.258L50.4999 72.6835C51.2566 74.3213 51.9497 74.7623 53.3536 74.4989C54.0917 74.3604 56.0652 73.3983 56.4257 73.0012C56.4892 72.9312 56.9806 72.5758 57.5177 72.2116C58.5032 71.5431 61.2552 68.4404 62.5644 66.5218C65.2265 62.6206 66.4044 57.1933 65.6731 52.1977C65.0995 48.2793 64.7529 47.0183 63.4826 44.227C62.4818 42.0281 61.5312 40.5879 61.1716 40.7258C60.8116 40.864 60.0438 40.2667 60.2184 39.9842C60.2967 39.8575 60.2551 39.6885 60.126 39.6087C59.7049 39.3484 59.8647 38.0663 60.3733 37.6252C60.9601 37.1162 61.5512 37.292 62.9526 38.3924C64.2785 39.4334 64.8604 40.0961 65.7432 41.5701C68.877 46.803 70.1118 55.7325 68.5593 61.9341C67.397 66.577 63.9273 71.8431 59.6058 75.5232C56.516 78.1544 53.913 79.0932 51.6065 78.4083C49.1915 77.6911 48.0878 76.08 46.787 71.3735C46.6567 70.902 46.5513 71.1048 45.225 74.377C44.6328 75.8382 43.7818 77.8135 43.334 78.7666C41.2515 83.1987 40.5452 84.8449 40.2403 85.9772C39.7783 87.693 38.2753 88.561 37.4242 87.6036ZM46.4181 67.8647C46.3443 67.6804 46.2896 67.7351 46.2785 68.0042C46.2684 68.2478 46.323 68.3842 46.3998 68.3075C46.4766 68.2307 46.4848 68.0314 46.4181 67.8647ZM75.3705 85.7573C74.2067 85.5936 73.5516 85.1902 73.3062 84.4861C72.7014 82.7513 73.3764 81.0769 74.6805 81.0769C75.045 81.0769 75.4074 81.1809 75.486 81.3079C75.5645 81.435 76.3461 81.539 77.2229 81.539C79.2322 81.539 82.4685 81.1271 90.0411 79.9078C92.4554 79.519 95.0545 79.1019 95.8169 78.9808C97.5926 78.6987 102.537 77.9645 106.676 77.3684C108.454 77.1122 110.17 76.8599 110.488 76.8078C110.981 76.7269 116.622 76.044 119.96 75.661C125.784 74.9928 127.72 74.9791 128.519 75.6006C129.061 76.0224 129.503 77.2985 129.337 77.9616C129.14 78.7431 128.424 78.9917 125.62 79.2518C123.417 79.4561 119.697 79.8776 115.686 80.377C114.669 80.5035 113.266 80.6612 112.567 80.7274C111.868 80.7935 111.036 80.8917 110.719 80.9456C110.401 80.9996 109.153 81.1631 107.946 81.3091C106.739 81.455 104.816 81.7285 103.672 81.9168C102.528 82.1051 100.916 82.3511 100.089 82.4633C98.5616 82.6706 96.1998 83.0576 94.3152 83.4093C92.7675 83.6981 87.4049 84.5506 86.3446 84.6765C85.8363 84.7368 84.1728 84.9895 82.648 85.2381C79.9493 85.678 76.5375 85.9214 75.3705 85.7573ZM71.5555 69.8984C71.3008 69.3614 71.2082 68.7955 71.2962 68.3124C71.3715 67.8994 71.4812 67.1958 71.5402 66.749C71.5991 66.3021 72.0233 64.7946 72.4829 63.399C73.319 60.8603 73.6441 59.7622 74.3289 57.1649C74.7912 55.4115 75.1097 54.7796 75.6119 54.6202C76.5959 54.3079 78.1429 55.8737 78.1429 57.182C78.1429 57.8999 77.4344 60.2593 76.4261 62.8993C76.095 63.766 75.457 65.6894 75.0081 67.1735C74.5593 68.6575 74.0602 70.0052 73.8989 70.1683C73.7376 70.3314 73.2336 70.5252 72.7787 70.599C72.0056 70.7245 71.9259 70.6789 71.5555 69.8984ZM89.348 64.0852C89.2209 64.0498 88.833 63.9582 88.4858 63.8818C87.7198 63.713 86.229 62.4488 86.229 61.968C86.229 61.7222 86.1109 61.6736 85.8247 61.8018C85.6024 61.9015 84.9255 62.0267 84.3206 62.0801C83.2457 62.1749 83.213 62.1584 82.8766 61.3534C82.1593 59.6365 82.635 58.512 84.3308 57.9161C85.4136 57.5357 86.9221 56.3101 86.9221 55.8109C86.9221 55.6862 87.2509 54.9093 87.6528 54.0845C88.5785 52.1842 89.9091 50.8115 90.8253 50.8115C92.0866 50.8115 93.4975 52.6936 93.033 53.7567C92.9357 53.9793 92.8776 54.2935 92.9037 54.4548C92.9686 54.8546 91.6576 57.2769 90.9819 58.0056C90.6803 58.3309 90.1545 58.8165 89.8136 59.0846C89.0966 59.6486 89.2488 60.1568 90.0726 59.95C91.4213 59.6116 94.8971 57.7172 96.4162 56.4928C96.7457 56.2271 97.4202 55.6979 97.915 55.3167C99.2645 54.2768 100.932 52.5412 102.688 50.3494C104.322 48.3097 105.02 46.7087 105.761 43.3029C105.926 42.5405 106.168 41.5008 106.298 40.9926C106.428 40.4843 106.592 39.7565 106.662 39.3753C106.733 38.9941 107.006 37.6946 107.269 36.4874C107.532 35.2803 107.951 33.307 108.2 32.1024C108.449 30.8978 108.798 29.4254 108.974 28.8303C109.151 28.2352 109.237 27.6898 109.166 27.6183C109.094 27.5468 109.141 27.3558 109.27 27.1939C109.4 27.032 109.564 26.5876 109.636 26.2064C109.872 24.9523 110.061 24.1324 110.195 23.7806C110.267 23.59 110.353 23.309 110.385 23.1563C110.51 22.5629 112.471 19.3357 112.821 19.1482C113.091 19.003 113.392 19.1585 113.946 19.7297C114.891 20.7051 114.939 21.8978 114.103 23.6339C113.063 25.7932 112.344 28.4012 112.789 28.4012C113.042 28.4012 113.763 29.6692 113.602 29.8305C113.546 29.8864 113.455 31.2771 113.4 32.921C113.289 36.2429 112.773 38.822 111.612 41.8641C110.922 43.6719 109.008 47.4928 108.171 48.7322C107.298 50.0244 105.579 55.8976 105.618 57.4537C105.625 57.7396 105.541 57.9735 105.432 57.9735C105.323 57.9735 105.18 58.4478 105.115 59.0276C104.908 60.8617 103.375 61.7675 102.152 60.7774C101.692 60.405 101.615 60.1271 101.604 58.8133C101.598 57.9716 101.552 57.2824 101.503 57.2817C101.453 57.281 100.778 57.835 100.001 58.5127C98.0339 60.2298 95.8817 61.7557 94.347 62.5218C93.6306 62.8793 92.9926 63.2347 92.929 63.3116C92.6536 63.6449 89.9015 64.2395 89.348 64.0852ZM1.82138 62.2498C0.805312 61.2337 0.542501 57.2021 1.31671 54.508C2.97036 48.7536 6.84881 43.6132 10.2921 42.6122C11.0181 42.4011 12.0004 42.2621 12.475 42.3031C13.2798 42.3728 13.3847 42.305 14.031 41.2964C17.1917 36.3646 21.8238 26.546 23.2753 21.7013C23.4847 21.0024 23.7961 20.0147 23.9674 19.5064C24.1386 18.9982 24.4499 17.8026 24.659 16.8496C24.8682 15.8965 25.237 14.2851 25.4786 13.2685C25.8891 11.5411 26.0517 10.618 26.256 8.85475C26.476 6.95608 27.6094 6.58279 29.0446 7.93634C29.8467 8.69284 29.8802 8.78683 29.8313 10.1412C29.8033 10.9192 29.7153 11.596 29.6358 11.6451C29.5564 11.6942 29.4654 12.1203 29.4336 12.5921C29.4019 13.0638 29.2899 13.6169 29.1847 13.8212C29.0796 14.0255 28.9202 14.6085 28.8306 15.1168C28.741 15.6251 28.4045 16.9766 28.0829 18.1202C25.88 25.9526 22.2023 34.6265 18.2035 41.4211C17.497 42.6215 16.919 43.7558 16.919 43.9418C16.919 44.1278 17.2711 44.528 17.7014 44.8311C18.1317 45.1342 19.0619 45.8323 19.7683 46.3825C20.6895 47.0999 21.334 47.415 22.0471 47.4968C23.0677 47.6138 23.85 48.1106 23.85 48.6416C23.85 49.9701 22.3929 50.9573 20.7873 50.7165C19.8148 50.5707 17.5838 49.3523 16.6879 48.4777C16.1802 47.982 14.8234 47.051 14.7494 47.1475C14.7144 47.1931 14.282 47.9062 13.7886 48.7322C13.0192 50.0198 11.209 52.7297 10.6247 53.4684C10.4031 53.7486 8.11695 57.0498 7.79314 57.5572C7.66607 57.7563 6.96901 58.6478 6.24412 59.5382C3.99196 62.3046 2.68036 63.1087 1.82138 62.2498ZM6.59229 52.8367C6.99862 52.3621 7.54484 51.5824 7.80611 51.1039C8.39042 50.0338 9.3466 48.5783 9.9713 47.8081C10.5086 47.1456 10.5855 46.6529 10.1516 46.6529C9.33155 46.6529 6.36018 50.652 5.4449 52.9875C4.78762 54.6647 4.77078 55.0401 5.38705 54.277C5.6436 53.9593 6.18596 53.3112 6.59229 52.8367ZM111.788 55.6076C111.106 55.0934 110.869 53.0501 111.384 52.1261C111.683 51.5918 111.745 51.2014 111.611 50.7067C111.395 49.9095 111.538 49.1884 112.152 47.9622C112.496 47.2753 112.879 46.9516 113.859 46.5183C115.668 45.718 116.384 45.7779 117.359 46.8116C118.073 47.5687 118.15 47.771 118.053 48.6325C117.958 49.4712 118.032 49.6849 118.598 50.2192C120.019 51.5605 119.868 53.138 118.214 54.2221C116.267 55.4982 112.672 56.2735 111.788 55.6076ZM122.772 51.726C122.294 51.4351 122.064 51.0351 121.855 50.1328C121.482 48.5171 121.473 48.5578 122.328 48.0366C123.22 47.493 124.29 47.4454 124.966 47.9192C125.403 48.2247 125.612 48.2134 126.924 47.8133C133.062 45.9413 137.774 44.5736 138.086 44.5736C138.29 44.5736 138.517 44.4182 138.59 44.2284C138.662 44.0385 138.811 43.938 138.92 44.0052C139.028 44.0723 139.92 43.9214 140.902 43.67C141.883 43.4185 142.771 43.2652 142.875 43.3292C142.979 43.3933 143.063 43.3356 143.063 43.201C143.063 43.0665 143.275 42.9564 143.533 42.9564C143.791 42.9564 144.055 42.8174 144.12 42.6476C144.242 42.3297 145.027 42.3096 146.093 42.5969C146.534 42.7157 146.768 42.9962 146.959 43.6357C147.589 45.738 147.204 46.0418 142.119 47.449C138.415 48.474 134.061 49.7621 131.512 50.5868C126.482 52.2138 124.088 52.526 122.772 51.726ZM97.0341 44.1626C96.8992 44 96.7594 43.0124 96.7233 41.9677C96.6873 40.9231 96.5466 39.7052 96.4106 39.2613C96.0238 37.998 96.1099 36.8488 96.6423 36.172C97.326 35.3029 98.1033 35.3824 99.0834 36.4217L99.893 37.2801L99.7907 40.3709C99.7002 43.1076 99.6338 43.5163 99.2112 43.9389C98.6709 44.4792 97.4048 44.6093 97.0341 44.1626ZM29.1756 43.1469C28.6522 42.5851 28.353 41.3807 28.5683 40.7024C28.6461 40.4572 29.2018 39.9227 29.8031 39.5148C30.4045 39.1068 31.3124 38.4626 31.8206 38.0833C32.3289 37.7039 33.4497 36.9124 34.3112 36.3243C35.561 35.4713 36.0247 34.9793 36.6048 33.8911C37.0046 33.1408 37.7127 32.0977 38.1783 31.5731C38.877 30.7857 39.1714 30.6192 39.8638 30.6192C40.8418 30.6192 41.7563 31.343 42.2536 32.5108C42.5384 33.1793 42.531 33.3675 42.192 34.0818C41.9802 34.5282 41.1455 35.5364 40.337 36.3224C39.5286 37.1083 38.8672 37.8828 38.8672 38.0435C38.8672 38.7396 40.6798 38.1013 42.6792 36.7012C43.8681 35.8686 46.3045 33.4803 50.0723 29.4542C55.045 24.1404 57.2719 22.6585 58.6991 23.7136C59.9565 24.6433 60.3072 26.122 59.6685 27.8018C59.2323 28.9491 57.5112 31.2777 55.7677 33.0797C53.802 35.1112 53.2424 35.2852 51.9192 34.2759L51.1401 33.6816L48.1803 36.6636C44.4968 40.3749 42.0208 42.0417 39.7492 42.3394C38.2786 42.5321 37.2936 42.1653 36.2887 41.0505L35.443 40.1124L34.4404 40.897C33.889 41.3285 33.3043 41.7865 33.1411 41.9147C32.9778 42.0429 32.6962 42.2809 32.5151 42.4436C32.1168 42.8017 30.3134 43.6373 29.9236 43.6444C29.7697 43.6472 29.4331 43.4233 29.1756 43.1469ZM69.2481 29.587C67.5818 29.1491 66.8025 28.1749 66.2609 25.8531C65.6222 23.1152 66.3933 19.8556 68.9096 14.6566C69.6792 13.0666 70.5729 11.0642 70.8956 10.2068C71.2183 9.34939 71.5613 8.5439 71.6578 8.41683C71.7543 8.28976 71.9709 7.66597 72.1391 7.03063C72.5077 5.63855 73.8642 2.05149 74.4763 0.850483C75.0726 -0.319647 75.6448 -0.283469 76.3034 0.965999C77.1763 2.6219 76.8185 5.31594 75.2525 8.8789C75.085 9.26011 74.5642 10.5023 74.0952 11.6394C73.6261 12.7764 72.6411 14.9597 71.9063 16.4911C70.2806 19.8786 69.5863 21.8626 69.4261 23.5779C69.3221 24.6906 69.3752 24.9474 69.7962 25.3684C70.0671 25.6392 70.5827 25.8599 70.9447 25.8599C72.2382 25.8599 75.2032 24.6114 78.6049 22.6344C81.1776 21.1392 81.6585 20.668 82.114 19.1957C83.8791 13.491 87.9204 11.1202 90.1478 14.4828C90.9373 15.6749 91.006 16.2593 90.4991 17.4726C90.1599 18.2843 86.806 21.8175 85.8856 22.3326C85.2167 22.7069 85.6468 23.6621 86.8873 24.5572C87.7573 25.185 88.0604 25.2749 89.1466 25.227C90.3187 25.1754 90.4182 25.2133 90.6627 25.8046C90.8066 26.1527 90.9063 26.519 90.8843 26.6187C90.8163 26.9275 90.6539 27.8155 90.6358 27.9781C90.6264 28.063 90.2483 28.3615 89.7955 28.6413C89.1121 29.0636 88.7759 29.1239 87.8154 28.9965C86.1654 28.7777 84.3858 27.9225 83.514 26.9296C83.1012 26.4595 82.7602 26.0005 82.7562 25.9096C82.7519 25.8187 82.603 25.5519 82.4249 25.3167C82.1128 24.9048 82.0726 24.9099 81.3348 25.455C79.9165 26.5028 76.4234 28.3479 74.6774 28.9717C72.8622 29.6201 70.4252 29.8963 69.2481 29.587ZM82.5753 11.1416C82.0353 10.6898 81.2453 8.99442 81.5749 8.99442C81.6869 8.99442 81.8354 8.57049 81.9049 8.05235C82.1135 6.49763 83.2349 5.74018 84.1873 6.51081C85.6113 7.66304 85.7055 9.72563 84.3823 10.7833C83.4333 11.5419 83.1266 11.6027 82.5753 11.1416Z" fill="#310A31"/>
</svg>
