<svg width="96" height="96" viewBox="0 0 96 96" fill="none" xmlns="http://www.w3.org/2000/svg">
<path d="M88 32H8M56 70L66 60L56 50M40 50L30 60L40 70M8 27.2L8 60.8C8 67.5206 8 78.8809 9.30792 81.4479C10.4584 83.7058 12.2942 85.5416 14.5521 86.6921C17.1191 88 20.4794 88 27.2 88H68.8C75.5206 88 78.8809 88 81.4479 86.6921C83.7058 85.5416 85.5416 83.7058 86.6921 81.4479C88 78.8809 88 75.5206 88 68.8V27.2C88 20.4794 88 17.1191 86.6921 14.5521C85.5416 12.2942 83.7058 10.4584 81.4479 9.30793C78.881 8.00001 75.5206 8.00001 68.8 8L27.2 8C20.4794 8 17.1191 8 14.5521 9.30792C12.2942 10.4584 10.4584 12.2942 9.30792 14.5521C8 17.1191 8 20.4794 8 27.2Z" stroke="#FF958C" stroke-width="6" stroke-linecap="round" stroke-linejoin="round"/>
</svg>
