<svg width="198" height="198" viewBox="0 0 198 198" fill="none" xmlns="http://www.w3.org/2000/svg">
<path d="M133 80.1108L98.9999 98.9997M98.9999 98.9997L64.9999 80.1108M98.9999 98.9997L99 137M135 115.234V82.7656C135 81.3951 135 80.7098 134.798 80.0986C134.619 79.5579 134.327 79.0615 133.941 78.6428C133.505 78.1694 132.906 77.8366 131.708 77.171L102.108 60.7266C100.974 60.0963 100.406 59.7812 99.8058 59.6577C99.2742 59.5483 98.7258 59.5483 98.1942 59.6577C97.5935 59.7812 97.0263 60.0963 95.8919 60.7266L66.2919 77.171C65.0938 77.8366 64.4947 78.1694 64.0585 78.6428C63.6726 79.0616 63.3806 79.5579 63.2019 80.0986C63 80.7098 63 81.3951 63 82.7656V115.234C63 116.605 63 117.29 63.2019 117.901C63.3806 118.442 63.6726 118.938 64.0585 119.357C64.4947 119.83 65.0938 120.163 66.2919 120.829L95.8919 137.273C97.0263 137.903 97.5935 138.218 98.1942 138.342C98.7258 138.451 99.2742 138.451 99.8058 138.342C100.406 138.218 100.974 137.903 102.108 137.273L131.708 120.829C132.906 120.163 133.505 119.83 133.941 119.357C134.327 118.938 134.619 118.442 134.798 117.901C135 117.29 135 116.605 135 115.234Z" stroke="#FF958C" stroke-width="6" stroke-linecap="round" stroke-linejoin="round"/>
<rect x="3" y="3" width="192" height="192" rx="96" stroke="#FF958C" stroke-width="6"/>
</svg>
