<svg width="96" height="96" viewBox="0 0 96 96" fill="none" xmlns="http://www.w3.org/2000/svg">
<path d="M56.1986 24C60.1056 24.7623 63.6962 26.673 66.5109 29.4877C69.3256 32.3025 71.2364 35.8931 71.9986 39.8M56.1986 8C64.3157 8.90174 71.885 12.5367 77.6636 18.308C83.4422 24.0794 87.0867 31.644 87.9986 39.76M40.9066 55.4523C36.1002 50.646 32.3051 45.2114 29.5211 39.4129C29.2816 38.9142 29.1619 38.6648 29.0699 38.3492C28.743 37.2278 28.9778 35.8508 29.6579 34.901C29.8492 34.6338 30.0779 34.4052 30.5351 33.9479C31.9335 32.5495 32.6327 31.8503 33.0899 31.1472C34.8139 28.4956 34.8139 25.0773 33.0899 22.4257C32.6327 21.7226 31.9335 21.0234 30.5351 19.625L29.7556 18.8455C27.6299 16.7197 26.567 15.6568 25.4255 15.0795C23.1552 13.9312 20.4742 13.9312 18.2039 15.0795C17.0624 15.6568 15.9995 16.7197 13.8737 18.8455L13.2432 19.476C11.1247 21.5945 10.0655 22.6538 9.25646 24.0939C8.35878 25.6919 7.71333 28.1739 7.71878 30.0068C7.7237 31.6586 8.04411 32.7875 8.68494 35.0452C12.1288 47.1788 18.6267 58.6283 28.1786 68.1802C37.7306 77.7321 49.18 84.23 61.3136 87.6739C63.5714 88.3147 64.7003 88.6351 66.3521 88.6401C68.1849 88.6455 70.6669 88.0001 72.2649 87.1024C73.7051 86.2934 74.7643 85.2341 76.8828 83.1156L77.5133 82.4851C79.6391 80.3593 80.702 79.2965 81.2794 78.1549C82.4276 75.8847 82.4276 73.2036 81.2794 70.9334C80.702 69.7919 79.6391 68.729 77.5133 66.6032L76.7339 65.8237C75.3354 64.4253 74.6362 63.7261 73.9331 63.2689C71.2815 61.545 67.8632 61.545 65.2117 63.2689C64.5086 63.7261 63.8093 64.4253 62.4109 65.8237C61.9537 66.281 61.725 66.5096 61.4578 66.701C60.5081 67.381 59.131 67.6158 58.0096 67.2889C57.6941 67.1969 57.4447 67.0772 56.9459 66.8377C51.1474 64.0537 45.7129 60.2586 40.9066 55.4523Z" stroke="#FF958C" stroke-width="6" stroke-linecap="round" stroke-linejoin="round"/>
</svg>
