<svg width="180" height="39" viewBox="0 0 180 39" fill="none" xmlns="http://www.w3.org/2000/svg">
<g clip-path="url(#clip0_202_2831)">
<path d="M17.875 38.2955V12.3L18.0876 12.1138H18.3801V38.2867C18.2118 38.2955 18.0434 38.2955 17.875 38.2955Z" fill="white"/>
<path d="M18.9559 38.2601L17.8926 12.2823L18.0786 12.1138L18.3624 12.1049L19.435 38.2336C19.2754 38.2424 19.1159 38.2601 18.9564 38.269V38.2601H18.9559Z" fill="white"/>
<path d="M20.1167 38.1624L17.9102 12.273L18.0785 12.1221L18.3534 12.0956L20.5694 38.1005C20.4187 38.1182 20.2679 38.1447 20.1084 38.1624H20.1172H20.1167Z" fill="white"/>
<path d="M21.3576 37.9673L17.9277 12.2553L18.0784 12.1221L18.3445 12.0868L21.7921 37.8784C21.6502 37.9049 21.5084 37.9403 21.3576 37.9673Z" fill="white"/>
<path d="M22.6683 37.6657L17.9355 12.2376L18.0686 12.1222L18.3258 12.0779L23.0674 37.5591C22.9344 37.5945 22.8013 37.6387 22.66 37.6746L22.6688 37.6657H22.6683Z" fill="white"/>
<path d="M24.0516 37.2403L17.9453 12.2287L18.0607 12.1221L18.3091 12.0602L24.4154 37.0983C24.2912 37.1425 24.167 37.1872 24.0433 37.2403H24.0521H24.0516Z" fill="white"/>
<path d="M25.4776 36.6724L17.9531 12.2199L18.0508 12.131L18.2992 12.0602L25.8237 36.5127C25.7084 36.5658 25.5935 36.6193 25.4781 36.6724H25.4776Z" fill="white"/>
<path d="M26.9399 35.9365L17.9707 12.2111L18.0502 12.1403L18.2893 12.0514L27.2497 35.7591C27.1432 35.821 27.046 35.8834 26.9394 35.9365H26.9399Z" fill="white"/>
<path d="M28.3944 35.0316L17.9805 12.2111L18.0423 12.158L18.2814 12.0514L28.6772 34.8365C28.5883 34.8984 28.4911 34.9697 28.4023 35.0316H28.3934H28.3944Z" fill="white"/>
<path d="M29.8214 33.941L17.998 12.1934L18.0246 12.1669L18.273 12.0426L30.0693 33.7278C29.9897 33.7985 29.9097 33.8697 29.8302 33.9405H29.8214V33.941Z" fill="white"/>
<path d="M31.1674 32.6726L18.0059 12.1934L18.2543 12.0426L31.3799 32.4598C31.3092 32.5306 31.2381 32.6107 31.1762 32.6814L31.1674 32.6726Z" fill="white"/>
<path d="M32.3995 31.2533L18.0156 12.1934L18.237 12.0337L32.5772 31.0317C32.5242 31.1025 32.4618 31.1825 32.4088 31.2533H32.4H32.3995Z" fill="white"/>
<path d="M33.4897 29.7014L18.0332 12.2022L18.2281 12.0426L33.6315 29.4794C33.5873 29.5501 33.5427 29.6302 33.4985 29.7009H33.4897V29.7014Z" fill="white"/>
<path d="M34.3943 28.0518L18.043 12.2022L18.2025 12.0426L34.5009 27.8386C34.4655 27.9093 34.4302 27.9894 34.3943 28.0601V28.0513V28.0518Z" fill="white"/>
<path d="M35.1115 26.3486L18.0508 12.1934L18.1838 12.0337L35.1827 26.1358C35.1562 26.2066 35.1297 26.2778 35.112 26.3486H35.1115Z" fill="white"/>
<path d="M35.6342 24.637L18.0684 12.1845L18.1837 12.0337L35.6877 24.442C35.67 24.5039 35.6524 24.5751 35.6435 24.637H35.6347H35.6342Z" fill="white"/>
<path d="M35.9719 22.9697L18.0781 12.1845L18.167 12.0426L35.9901 22.7923C35.9812 22.8542 35.9724 22.9166 35.9636 22.9697H35.9724H35.9719Z" fill="white"/>
<path d="M36.1402 21.373L18.0957 12.1845L18.1664 12.0514L36.149 21.2134C36.149 21.2664 36.1402 21.32 36.1402 21.373Z" fill="white"/>
<path d="M36.1657 19.8742L18.1035 12.1757L18.1565 12.0602L36.1657 19.7323C36.1657 19.7765 36.1657 19.8212 36.1745 19.8742H36.1657Z" fill="white"/>
<path d="M36.0685 18.4904L18.1035 12.1669L18.1389 12.0691L36.0591 18.3749C36.0591 18.4103 36.068 18.4545 36.0768 18.4904H36.068H36.0685Z" fill="white"/>
<path d="M35.8922 17.2224L18.1133 12.158L18.1398 12.0784L35.8829 17.134C35.8917 17.1605 35.8917 17.1959 35.9005 17.2229H35.8917L35.8922 17.2224Z" fill="white"/>
<path d="M35.6516 16.0871L18.1211 12.1492L18.1299 12.0868L35.6339 16.0159L35.6516 16.0871Z" fill="white"/>
<path d="M35.3325 14.9429L18.1211 12.1491L18.1299 12.0872L35.306 14.881C35.3148 14.9076 35.3237 14.9253 35.3325 14.9518V14.9429Z" fill="white"/>
<path d="M34.9074 13.7723L18.1211 12.1492L18.1299 12.0868L34.8804 13.701L34.9074 13.7723Z" fill="white"/>
<path d="M34.3841 12.5834L18.1211 12.1487V12.0868L34.3488 12.5215C34.3576 12.5392 34.3664 12.5657 34.3841 12.5834Z" fill="white"/>
<path d="M33.7557 11.4039L18.1309 12.1492V12.0873L33.7204 11.342C33.7292 11.3597 33.7469 11.3862 33.7557 11.4039Z" fill="white"/>
<path d="M33.0194 10.2509L18.1299 12.1492L18.1211 12.0873L32.9752 10.1979C32.9929 10.2156 33.0017 10.2332 33.0194 10.2598V10.2509Z" fill="white"/>
<path d="M32.205 9.15984L18.131 12.1487L18.1133 12.0868L32.152 9.10678C32.1697 9.12447 32.1785 9.14215 32.1962 9.15984H32.205Z" fill="white"/>
<path d="M31.319 8.14882L18.131 12.1492L18.1133 12.0868H18.1221L31.2655 8.09576L31.319 8.14882Z" fill="white"/>
<path d="M30.3882 7.22674L18.1398 12.1403L18.1133 12.0868H18.1221L30.3352 7.18204L30.3882 7.22674Z" fill="white"/>
<path d="M29.4486 6.41076L18.1398 12.1403L18.1133 12.0873L18.1221 12.0784L29.3868 6.36655C29.4045 6.38423 29.4221 6.39307 29.4398 6.41076H29.4486Z" fill="white"/>
<path d="M28.5091 5.70973L18.1486 12.1398L18.1133 12.0868L18.131 12.0691L28.456 5.65668C28.4737 5.67436 28.4914 5.6832 28.5091 5.70089V5.70973Z" fill="white"/>
<path d="M27.5955 5.10693L18.1477 12.1403L18.1035 12.0956L18.1389 12.0602L27.5337 5.07156L27.5955 5.10693Z" fill="white"/>
<path d="M26.7191 4.60144L17.9094 12.3442L17.8652 12.3L19.7532 10.6326L26.6572 4.56607C26.6749 4.57491 26.7014 4.5926 26.7191 4.60144Z" fill="white"/>
<path d="M18.3801 2.19769V28.1937L18.1676 28.3799H17.875V2.20654C18.0434 2.19769 18.2118 2.19769 18.3801 2.19769Z" fill="white"/>
<path d="M17.2989 2.23306L18.3622 28.2109L18.1762 28.3794L17.8924 28.3882L16.8203 2.25958C16.9799 2.25074 17.1394 2.23306 17.2989 2.22421V2.23306Z" fill="white"/>
<path d="M16.1377 2.33081L18.3443 28.2202L18.1759 28.371L17.901 28.3976L15.6855 2.39271C15.8363 2.37502 15.987 2.3485 16.1465 2.33081H16.1377Z" fill="white"/>
<path d="M14.8968 2.52585L18.3268 28.2379L18.1761 28.371L17.91 28.4064L14.4629 2.61477C14.6048 2.58824 14.7466 2.55287 14.8973 2.52585H14.8968Z" fill="white"/>
<path d="M13.5763 2.82748L18.3091 28.2556L18.1761 28.371L17.9188 28.4153L13.1777 2.93359C13.3108 2.89822 13.4438 2.85401 13.5852 2.81815L13.5763 2.82699V2.82748Z" fill="white"/>
<path d="M12.2031 3.25293L18.3094 28.2645L18.194 28.3711L17.9457 28.433L11.8398 3.3949C11.964 3.35069 12.0882 3.30599 12.2119 3.25293H12.2031Z" fill="white"/>
<path d="M10.7655 3.82083L18.29 28.2733L18.1923 28.3622L17.9439 28.433L10.4199 3.98049C10.5353 3.92743 10.6502 3.87389 10.7655 3.82083Z" fill="white"/>
<path d="M9.3122 4.55673L18.2814 28.2821L18.2019 28.3529L17.9628 28.4418L9.00195 4.73408C9.10848 4.67218 9.20568 4.60979 9.3122 4.55673Z" fill="white"/>
<path d="M7.84966 5.47046L18.2636 28.291L18.2017 28.344L17.9627 28.4506L7.56641 5.66549C7.65526 5.60359 7.75246 5.53236 7.84131 5.47046H7.85015H7.84966Z" fill="white"/>
<path d="M6.43199 6.5527L18.2548 28.3003L18.2283 28.3268L17.9799 28.4511L6.18359 6.76542L6.42266 6.5527H6.4315H6.43199Z" fill="white"/>
<path d="M5.0861 7.82067L18.2471 28.2998L17.9987 28.4506L4.87305 8.03388C4.94374 7.96313 5.01492 7.88306 5.07677 7.81232L5.08561 7.82116L5.0861 7.82067Z" fill="white"/>
<path d="M3.853 9.2399L18.2373 28.2998L18.0159 28.4595L3.67578 9.46146C3.7288 9.39072 3.79114 9.31064 3.84416 9.2399H3.853Z" fill="white"/>
<path d="M2.76247 10.8006L18.2189 28.2998L18.024 28.4595L2.62109 11.0227C2.66527 10.9519 2.70995 10.8719 2.75413 10.8011H2.76296L2.76247 10.8006Z" fill="white"/>
<path d="M1.85067 12.4415L18.2025 28.291L18.043 28.4506L1.74414 12.6547C1.77949 12.5839 1.81483 12.5038 1.85067 12.4331V12.4419V12.4415Z" fill="white"/>
<path d="M1.13319 14.1447L18.1939 28.2998L18.0609 28.4595L1.0625 14.3574C1.08901 14.2866 1.11552 14.2154 1.13319 14.1447Z" fill="white"/>
<path d="M0.619423 15.8562L18.1853 28.3087L18.0699 28.4595L0.566406 16.0517C0.584079 15.9898 0.601751 15.9186 0.610587 15.8567H0.619423V15.8562Z" fill="white"/>
<path d="M0.281344 17.5235L18.1751 28.3087L18.0863 28.4506L0.263672 17.7014C0.272508 17.6395 0.281344 17.5771 0.29018 17.524H0.281344V17.5235Z" fill="white"/>
<path d="M0.114305 19.1201L18.1588 28.3086L18.0881 28.4418L0.105469 19.2798C0.105469 19.2267 0.114305 19.1732 0.114305 19.1201Z" fill="white"/>
<path d="M0.0869612 20.6278L18.1491 28.3263L18.0961 28.4418L0.0869612 20.7698C0.0869612 20.7256 0.0869612 20.6809 0.078125 20.6278H0.0869612Z" fill="white"/>
<path d="M0.174852 22.0117L18.1398 28.3357L18.1045 28.4334L0.183688 22.1271C0.183688 22.0918 0.174852 22.0476 0.166016 22.0117H0.174852Z" fill="white"/>
<path d="M0.352586 23.2713L18.1315 28.3357L18.105 28.4153L0.361422 23.3597C0.352586 23.3332 0.352586 23.2978 0.34375 23.2708H0.352586V23.2713Z" fill="white"/>
<path d="M0.601562 24.4154L18.1321 28.3534L18.1232 28.4153L0.619235 24.4862L0.601562 24.4154Z" fill="white"/>
<path d="M0.919922 25.5502L18.1313 28.344L18.1225 28.4059L0.94643 25.6126C0.937594 25.5861 0.928758 25.5684 0.919922 25.5419V25.5507V25.5502Z" fill="white"/>
<path d="M1.3457 26.7303L18.1315 28.344L18.1227 28.4153L1.37221 26.7922L1.3457 26.7303Z" fill="white"/>
<path d="M1.86914 27.9186L18.1321 28.3534V28.4153L1.90449 27.9805C1.89565 27.9628 1.88681 27.9363 1.86914 27.9186Z" fill="white"/>
<path d="M2.49805 29.0981L18.1229 28.3529V28.4148L2.53339 29.16C2.52456 29.1423 2.50688 29.1158 2.49805 29.0981Z" fill="white"/>
<path d="M3.23242 30.2423L18.1219 28.344L18.1307 28.4059L3.2766 30.2953C3.25893 30.2776 3.25009 30.2599 3.23242 30.2334V30.2423Z" fill="white"/>
<path d="M4.04883 31.3333L18.1229 28.3445L18.1406 28.4064L4.10185 31.3864C4.08417 31.3687 4.07534 31.351 4.05766 31.3333H4.04883Z" fill="white"/>
<path d="M4.93555 32.3532L18.1142 28.3534L18.1319 28.4064V28.4153L4.97973 32.4063L4.93555 32.3532Z" fill="white"/>
<path d="M5.86523 33.2669L18.1137 28.3534L18.1402 28.4064L18.1313 28.4153L5.90991 33.32L5.86523 33.2669Z" fill="white"/>
<path d="M6.80469 34.0829L18.1135 28.3534L18.14 28.4064L18.1312 28.4153L6.86654 34.1271C6.84887 34.1095 6.8312 34.1006 6.81352 34.0829H6.80469Z" fill="white"/>
<path d="M7.74414 34.7835L18.1046 28.3534L18.1399 28.4064L18.1222 28.4241L7.79716 34.8365C7.77949 34.8188 7.76181 34.81 7.74414 34.7923V34.7835Z" fill="white"/>
<path d="M8.65625 35.3862L18.1041 28.3534L18.1394 28.4064L18.1041 28.4329L8.71859 35.4221L8.65625 35.3862Z" fill="white"/>
<path d="M9.52539 35.8923L18.3351 28.1495L18.3793 28.1937L16.4913 29.8611L9.58724 35.9276C9.56957 35.9188 9.54306 35.9011 9.52539 35.8923Z" fill="white"/>
</g>
<path d="M44.1758 14.9748H52.719V17.0805H49.6356V25.5034H47.3795V17.0805H44.1758V14.9748Z" fill="white"/>
<path d="M56.3242 14.9748V19.2163H61.047V14.9748H63.3031V25.5034H61.047V21.2468H56.3242V25.5034H54.0681V14.9748H56.3242Z" fill="white"/>
<path d="M64.9521 23.3977V14.9748H72.5778V17.0655H67.2082V19.2163H71.9762V21.2619H67.2082V23.4127H72.5778V25.5034H66.1855L64.9521 23.3977Z" fill="white"/>
<path d="M78.2303 25.5034V14.9748H82.878C83.9108 14.9748 84.7881 15.3358 85.5101 16.0577C86.2421 16.7797 86.6081 17.632 86.6081 18.6147C86.6081 19.6174 86.2471 20.4647 85.5251 21.1566C84.8132 21.8384 83.9308 22.1844 82.878 22.1944L80.5015 22.2094V25.5034H78.2303ZM80.5015 20.194L82.7276 20.1789C83.2189 20.1789 83.625 20.0185 83.9459 19.6976C84.2667 19.3767 84.4272 18.9907 84.4272 18.5395C84.4272 18.0983 84.2667 17.7323 83.9459 17.4415C83.635 17.1507 83.2289 17.0053 82.7276 17.0053L80.5015 17.0203V20.194Z" fill="white"/>
<path d="M87.8953 25.5034V14.9748H92.5429C93.5757 14.9748 94.4531 15.3358 95.175 16.0577C95.907 16.7797 96.273 17.632 96.273 18.6147C96.273 19.2965 96.0775 19.9282 95.6864 20.5098C95.3054 21.0914 94.799 21.5075 94.1673 21.7582L96.4234 25.5034H94.0169L91.9262 22.044H90.1514V25.5034H87.8953ZM92.5429 20.0887C92.974 20.0887 93.34 19.9383 93.6409 19.6375C93.9417 19.3366 94.0921 18.9706 94.0921 18.5395C94.0921 18.1083 93.9417 17.7473 93.6409 17.4565C93.34 17.1557 92.974 17.0053 92.5429 17.0053H90.1514V20.0887H92.5429Z" fill="white"/>
<path d="M97.7071 25.5034V14.9748H99.888V25.5034H97.7071Z" fill="white"/>
<path d="M105.12 14.9748L107.692 22.8712L110.189 14.9748H113.769V25.5034H111.513L111.528 17.2309L108.866 25.5034H106.429L103.782 17.2309L103.797 25.5034H101.541V14.9748H105.12Z" fill="white"/>
<path d="M115.421 23.3977V14.9748H123.047V17.0655H117.677V19.2163H122.445V21.2619H117.677V23.4127H123.047V25.5034H116.655L115.421 23.3977Z" fill="white"/>
<path d="M129.827 16.4488C130.88 15.3959 132.149 14.8695 133.633 14.8695C134.706 14.8695 135.663 15.1503 136.506 15.7118C137.358 16.2733 138 17.0304 138.431 17.983L136.28 18.5996C136.029 18.0983 135.668 17.7122 135.197 17.4415C134.726 17.1607 134.204 17.0203 133.633 17.0203C132.74 17.0203 131.993 17.3312 131.392 17.9529C130.8 18.5746 130.504 19.3416 130.504 20.2541C130.504 21.1666 130.8 21.9337 131.392 22.5554C131.993 23.167 132.74 23.4729 133.633 23.4729C134.275 23.4729 134.856 23.3024 135.378 22.9615C135.909 22.6206 136.295 22.1292 136.536 21.4875L133.693 21.5025L133.663 19.5923H138.732V20.4497C138.732 21.9537 138.245 23.1921 137.273 24.1647C136.3 25.1374 135.087 25.6237 133.633 25.6237C132.149 25.6237 130.88 25.1023 129.827 24.0595C128.775 23.0066 128.248 21.7382 128.248 20.2541C128.248 18.7701 128.775 17.5017 129.827 16.4488Z" fill="white"/>
<path d="M139.936 25.5034V14.9748H144.584C145.616 14.9748 146.494 15.3358 147.216 16.0577C147.948 16.7797 148.314 17.632 148.314 18.6147C148.314 19.2965 148.118 19.9282 147.727 20.5098C147.346 21.0914 146.84 21.5075 146.208 21.7582L148.464 25.5034H146.058L143.967 22.044H142.192V25.5034H139.936ZM144.584 20.0887C145.015 20.0887 145.381 19.9383 145.682 19.6375C145.982 19.3366 146.133 18.9706 146.133 18.5395C146.133 18.1083 145.982 17.7473 145.682 17.4565C145.381 17.1557 145.015 17.0053 144.584 17.0053H142.192V20.0887H144.584Z" fill="white"/>
<path d="M149.225 20.2541C149.225 18.7701 149.751 17.5017 150.804 16.4488C151.857 15.3959 153.125 14.8695 154.609 14.8695C156.093 14.8695 157.357 15.3959 158.4 16.4488C159.453 17.5017 159.984 18.7701 159.994 20.2541C159.994 20.2642 159.994 20.2792 159.994 20.2992C159.994 21.7532 159.473 23.0016 158.43 24.0444C157.367 25.0973 156.093 25.6237 154.609 25.6237C153.125 25.6237 151.857 25.1023 150.804 24.0595C149.751 23.0066 149.225 21.7382 149.225 20.2541ZM151.481 20.2541C151.481 21.1666 151.782 21.9387 152.383 22.5704C152.975 23.2021 153.717 23.518 154.609 23.518C155.502 23.518 156.244 23.2021 156.836 22.5704C157.437 21.9387 157.738 21.1666 157.738 20.2541C157.738 19.3416 157.437 18.5696 156.836 17.9378C156.244 17.2961 155.502 16.9752 154.609 16.9752C153.727 16.9752 152.985 17.2961 152.383 17.9378C151.782 18.5696 151.481 19.3416 151.481 20.2541Z" fill="white"/>
<path d="M161.056 14.9898H163.327V21.2468C163.327 21.8886 163.543 22.425 163.974 22.8562C164.405 23.2874 164.916 23.5029 165.508 23.5029C166.1 23.5029 166.611 23.2874 167.042 22.8562C167.483 22.425 167.704 21.8886 167.704 21.2468V14.9898H169.96V21.2468C169.96 22.4902 169.534 23.533 168.682 24.3753C167.839 25.2076 166.782 25.6237 165.508 25.6237C164.255 25.6237 163.197 25.2126 162.334 24.3904C161.482 23.5581 161.056 22.5103 161.056 21.2468V14.9898Z" fill="white"/>
<path d="M171.545 25.5034V14.9748H176.193C177.226 14.9748 178.103 15.3358 178.825 16.0577C179.557 16.7797 179.923 17.632 179.923 18.6147C179.923 19.6174 179.562 20.4647 178.84 21.1566C178.128 21.8384 177.246 22.1844 176.193 22.1944L173.816 22.2094V25.5034H171.545ZM173.816 20.194L176.042 20.1789C176.534 20.1789 176.94 20.0185 177.261 19.6976C177.582 19.3767 177.742 18.9907 177.742 18.5395C177.742 18.0983 177.582 17.7323 177.261 17.4415C176.95 17.1507 176.544 17.0053 176.042 17.0053L173.816 17.0203V20.194Z" fill="white"/>
<defs>
<clipPath id="clip0_202_2831">
<rect width="36.0978" height="36.0978" fill="white" transform="translate(0.078125 2.19769)"/>
</clipPath>
</defs>
</svg>
