<svg width="41" height="34" viewBox="0 0 41 34" fill="none" xmlns="http://www.w3.org/2000/svg">
<path d="M12.9122 33.2511C28.0066 33.2511 36.2626 20.7455 36.2626 9.9007C36.2626 9.5455 36.2626 9.19191 36.2386 8.8399C37.8447 7.67816 39.2312 6.23971 40.333 4.5919C38.8353 5.25591 37.2464 5.69116 35.6194 5.8831C37.3327 4.85759 38.6149 3.24441 39.2274 1.3439C37.6165 2.29992 35.8541 2.97361 34.0162 3.3359C32.7789 2.0202 31.1424 1.14897 29.36 0.857045C27.5776 0.565117 25.7487 0.868762 24.1563 1.72099C22.5639 2.57322 21.2967 3.92653 20.5509 5.57148C19.8051 7.21644 19.6222 9.06134 20.0306 10.8207C16.7678 10.657 13.5759 9.80909 10.6621 8.33191C7.74826 6.85473 5.17761 4.78134 3.11701 2.2463C2.06755 4.05296 1.74613 6.19168 2.21817 8.22701C2.69022 10.2623 3.92024 12.0412 5.65781 13.2015C4.35173 13.1632 3.07409 12.8109 1.93301 12.1743V12.2783C1.93353 14.1731 2.58943 16.0093 3.78946 17.4756C4.98949 18.9419 6.65978 19.9479 8.51701 20.3231C7.30881 20.6527 6.04113 20.7008 4.81141 20.4639C5.33603 22.0944 6.35706 23.5203 7.73174 24.5421C9.10642 25.564 10.7661 26.1307 12.4786 26.1631C10.7771 27.5006 8.82853 28.4894 6.74447 29.0731C4.6604 29.6568 2.4817 29.8238 0.333008 29.5647C4.08606 31.9731 8.45288 33.2506 12.9122 33.2447" fill="#310A31"/>
</svg>
