<svg width="32" height="32" viewBox="0 0 32 32" fill="none" xmlns="http://www.w3.org/2000/svg">
<path d="M13 19.0002L27 5.00023M13.1701 19.4377L16.6743 28.4483C16.983 29.2421 17.1373 29.639 17.3597 29.7549C17.5525 29.8553 17.7822 29.8555 17.9751 29.7552C18.1976 29.6396 18.3525 29.2429 18.6621 28.4495L27.4492 5.93249C27.7287 5.21625 27.8685 4.85813 27.792 4.6293C27.7256 4.43056 27.5697 4.27461 27.3709 4.20822C27.1421 4.13177 26.784 4.27152 26.0678 4.55103L3.55075 13.3382C2.75732 13.6478 2.36061 13.8026 2.24499 14.0251C2.14477 14.2181 2.14491 14.4477 2.24536 14.6405C2.36123 14.8629 2.75813 15.0173 3.55192 15.326L12.5626 18.8301C12.7237 18.8928 12.8043 18.9241 12.8721 18.9725C12.9323 19.0154 12.9848 19.068 13.0277 19.1281C13.0761 19.196 13.1075 19.2765 13.1701 19.4377Z" stroke="white" stroke-width="3" stroke-linecap="round" stroke-linejoin="round"/>
</svg>
