<svg width="64" height="64" viewBox="0 0 64 64" fill="none" xmlns="http://www.w3.org/2000/svg">
<rect width="64" height="64" rx="32" fill="#FF958C"/>
<path d="M29 35.0002L43 21.0002M29.1701 35.4377L32.6743 44.4483C32.983 45.2421 33.1373 45.639 33.3597 45.7549C33.5525 45.8553 33.7822 45.8555 33.9751 45.7552C34.1976 45.6396 34.3525 45.2429 34.6621 44.4495L43.4492 21.9325C43.7287 21.2163 43.8685 20.8581 43.792 20.6293C43.7256 20.4306 43.5697 20.2746 43.3709 20.2082C43.1421 20.1318 42.784 20.2715 42.0678 20.551L19.5508 29.3382C18.7573 29.6478 18.3606 29.8026 18.245 30.0251C18.1448 30.2181 18.1449 30.4477 18.2454 30.6405C18.3612 30.8629 18.7581 31.0173 19.5519 31.326L28.5626 34.8301C28.7237 34.8928 28.8043 34.9241 28.8721 34.9725C28.9323 35.0154 28.9848 35.068 29.0277 35.1281C29.0761 35.196 29.1075 35.2765 29.1701 35.4377Z" stroke="white" stroke-width="3" stroke-linecap="round" stroke-linejoin="round"/>
</svg>
