<svg width="26" height="23" viewBox="0 0 26 23" fill="none" xmlns="http://www.w3.org/2000/svg">
<path id="Icon" d="M2.2 16.2999V5.7399C2.2 4.39578 2.2 3.72371 2.46158 3.21033C2.69168 2.75874 3.05883 2.39158 3.51042 2.16149C4.02381 1.8999 4.69587 1.8999 6.04 1.8999H19.96C21.3041 1.8999 21.9762 1.8999 22.4896 2.16149C22.9412 2.39158 23.3083 2.75874 23.5384 3.21033C23.8 3.72371 23.8 4.39578 23.8 5.7399V16.2999H17.3953C17.1018 16.2999 16.955 16.2999 16.8169 16.3331C16.6945 16.3625 16.5774 16.4109 16.4701 16.4767C16.349 16.5509 16.2452 16.6547 16.0376 16.8623L15.9624 16.9375C15.7548 17.1451 15.651 17.2489 15.5299 17.3231C15.4226 17.3889 15.3055 17.4374 15.1831 17.4667C15.045 17.4999 14.8982 17.4999 14.6047 17.4999H11.3953C11.1018 17.4999 10.955 17.4999 10.8169 17.4667C10.6945 17.4374 10.5774 17.3889 10.4701 17.3231C10.349 17.2489 10.2452 17.1451 10.0376 16.9375L9.96236 16.8623C9.75481 16.6547 9.65104 16.5509 9.52994 16.4767C9.42258 16.4109 9.30552 16.3625 9.18308 16.3331C9.04497 16.2999 8.89822 16.2999 8.60471 16.2999H2.2ZM2.2 16.2999C1.53726 16.2999 1 16.8372 1 17.4999V17.8999C1 18.6439 1 19.0159 1.08178 19.3211C1.3037 20.1493 1.95061 20.7962 2.77883 21.0181C3.08403 21.0999 3.45602 21.0999 4.2 21.0999H21.8C22.544 21.0999 22.916 21.0999 23.2212 21.0181C24.0494 20.7962 24.6963 20.1493 24.9182 19.3211C25 19.0159 25 18.6439 25 17.8999C25 17.5279 25 17.3419 24.9591 17.1893C24.8482 16.7752 24.5247 16.4518 24.1106 16.3408C23.958 16.2999 23.772 16.2999 23.4 16.2999H22.6" stroke="white" stroke-width="2" stroke-linecap="round" stroke-linejoin="round"/>
</svg>
