<svg width="32" height="32" viewBox="0 0 32 32" fill="none" xmlns="http://www.w3.org/2000/svg">
<g id="mail-01">
<path id="Icon" d="M2.66675 9.3335L13.5533 16.9541C14.4349 17.5712 14.8757 17.8797 15.3551 17.9992C15.7786 18.1048 16.2216 18.1048 16.6451 17.9992C17.1245 17.8797 17.5653 17.5712 18.4469 16.9541L29.3334 9.3335M9.06675 26.6668H22.9334C25.1736 26.6668 26.2937 26.6668 27.1494 26.2309C27.902 25.8474 28.5139 25.2354 28.8974 24.4828C29.3334 23.6271 29.3334 22.507 29.3334 20.2668V11.7335C29.3334 9.49329 29.3334 8.37318 28.8974 7.51753C28.5139 6.76489 27.902 6.15296 27.1494 5.76947C26.2937 5.3335 25.1736 5.3335 22.9334 5.3335H9.06675C6.82654 5.3335 5.70643 5.3335 4.85079 5.76947C4.09814 6.15296 3.48622 6.76489 3.10272 7.51753C2.66675 8.37318 2.66675 9.49329 2.66675 11.7335V20.2668C2.66675 22.507 2.66675 23.6271 3.10272 24.4828C3.48622 25.2354 4.09814 25.8474 4.85079 26.2309C5.70643 26.6668 6.82654 26.6668 9.06675 26.6668Z" stroke="white" stroke-width="2" stroke-linecap="round" stroke-linejoin="round"/>
</g>
</svg>
