<svg width="32" height="32" viewBox="0 0 32 32" fill="none" xmlns="http://www.w3.org/2000/svg">
<path d="M2.66602 9.3335L13.5526 16.9541C14.4341 17.5712 14.8749 17.8797 15.3544 17.9992C15.7779 18.1048 16.2208 18.1048 16.6443 17.9992C17.1238 17.8797 17.5646 17.5712 18.4461 16.9541L29.3327 9.3335M9.06602 26.6668H22.9327C25.1729 26.6668 26.293 26.6668 27.1486 26.2309C27.9013 25.8474 28.5132 25.2354 28.8967 24.4828C29.3327 23.6271 29.3327 22.507 29.3327 20.2668V11.7335C29.3327 9.49329 29.3327 8.37318 28.8967 7.51753C28.5132 6.76489 27.9013 6.15296 27.1486 5.76947C26.293 5.3335 25.1729 5.3335 22.9327 5.3335H9.06602C6.82581 5.3335 5.7057 5.3335 4.85005 5.76947C4.09741 6.15296 3.48548 6.76489 3.10199 7.51753C2.66602 8.37318 2.66602 9.49329 2.66602 11.7335V20.2668C2.66602 22.507 2.66602 23.6271 3.10199 24.4828C3.48548 25.2354 4.09741 25.8474 4.85005 26.2309C5.7057 26.6668 6.82581 26.6668 9.06602 26.6668Z" stroke="white" stroke-width="3" stroke-linecap="round" stroke-linejoin="round"/>
</svg>
