<svg width="38" height="38" viewBox="0 0 38 38" fill="none" xmlns="http://www.w3.org/2000/svg">
<path fill-rule="evenodd" clip-rule="evenodd" d="M19.1667 0.5C29.384 0.5 37.6667 8.83334 37.6667 19.1131C37.6667 28.4032 30.9016 36.1037 22.0574 37.5V24.4934H26.368L27.1882 19.1131H26.9665L27.0036 18.8715H22.0574V15.6231C22.0574 14.1497 22.7742 12.7148 25.0723 12.7148H27.405V8.13426C27.405 8.13426 27.3389 8.12291 27.2188 8.10422V8.0352C27.2188 8.0352 25.1165 7.67638 23.1064 7.67638C18.91 7.67638 16.1672 10.2197 16.1672 14.8241V18.8715H11.5026V24.182H11.5789V24.4934H16.1672V37.0199C16.2035 37.0255 16.2398 37.0311 16.2761 37.0366V37.5C7.43189 36.1037 0.666748 28.4032 0.666748 19.1131C0.666748 8.83334 8.94947 0.5 19.1667 0.5Z" fill="white"/>
</svg>
