<svg width="246" height="48" viewBox="0 0 246 48" fill="none" xmlns="http://www.w3.org/2000/svg">
<path d="M64.8047 16.7792H76.1648V19.5792H72.0647V30.7792H69.0647V19.5792H64.8047V16.7792Z" fill="#D3CDD0"/>
<path d="M80.9587 16.7792V22.4192H87.2387V16.7792H90.2387V30.7792H87.2387V25.1192H80.9587V30.7792H77.9587V16.7792H80.9587Z" fill="#D3CDD0"/>
<path d="M92.4314 27.9792V16.7792H102.571V19.5592H95.4314V22.4192H101.771V25.1392H95.4314V27.9992H102.571V30.7792H94.0714L92.4314 27.9792Z" fill="#D3CDD0"/>
<path d="M110.088 30.7792V16.7792H116.268C117.641 16.7792 118.808 17.2592 119.768 18.2192C120.741 19.1792 121.228 20.3125 121.228 21.6192C121.228 22.9525 120.748 24.0792 119.788 24.9992C118.841 25.9059 117.668 26.3659 116.268 26.3792L113.108 26.3992V30.7792H110.088ZM113.108 23.7192L116.068 23.6992C116.721 23.6992 117.261 23.4859 117.688 23.0592C118.114 22.6325 118.328 22.1192 118.328 21.5192C118.328 20.9325 118.114 20.4458 117.688 20.0592C117.274 19.6725 116.734 19.4792 116.068 19.4792L113.108 19.4992V23.7192Z" fill="#D3CDD0"/>
<path d="M122.939 30.7792V16.7792H129.119C130.493 16.7792 131.659 17.2592 132.619 18.2192C133.593 19.1792 134.079 20.3125 134.079 21.6192C134.079 22.5259 133.819 23.3659 133.299 24.1392C132.793 24.9125 132.119 25.4659 131.279 25.7992L134.279 30.7792H131.079L128.299 26.1792H125.939V30.7792H122.939ZM129.119 23.5792C129.693 23.5792 130.179 23.3792 130.579 22.9792C130.979 22.5792 131.179 22.0925 131.179 21.5192C131.179 20.9459 130.979 20.4658 130.579 20.0792C130.179 19.6792 129.693 19.4792 129.119 19.4792H125.939V23.5792H129.119Z" fill="#D3CDD0"/>
<path d="M135.986 30.7792V16.7792H138.886V30.7792H135.986Z" fill="#D3CDD0"/>
<path d="M145.844 16.7792L149.264 27.2792L152.584 16.7792H157.344V30.7792H154.344L154.364 19.7792L150.824 30.7792H147.584L144.064 19.7792L144.084 30.7792H141.084V16.7792H145.844Z" fill="#D3CDD0"/>
<path d="M159.541 27.9792V16.7792H169.681V19.5592H162.541V22.4192H168.881V25.1392H162.541V27.9992H169.681V30.7792H161.181L159.541 27.9792Z" fill="#D3CDD0"/>
<path d="M178.698 18.7392C180.098 17.3392 181.784 16.6392 183.758 16.6392C185.184 16.6392 186.458 17.0125 187.578 17.7592C188.711 18.5058 189.564 19.5125 190.138 20.7792L187.278 21.5992C186.944 20.9325 186.464 20.4192 185.838 20.0592C185.211 19.6858 184.518 19.4992 183.758 19.4992C182.571 19.4992 181.578 19.9125 180.778 20.7392C179.991 21.5659 179.598 22.5859 179.598 23.7992C179.598 25.0125 179.991 26.0325 180.778 26.8592C181.578 27.6726 182.571 28.0792 183.758 28.0792C184.611 28.0792 185.384 27.8526 186.078 27.3992C186.784 26.9459 187.298 26.2925 187.618 25.4392L183.838 25.4592L183.798 22.9192H190.538V24.0592C190.538 26.0592 189.891 27.7059 188.598 28.9992C187.304 30.2926 185.691 30.9392 183.758 30.9392C181.784 30.9392 180.098 30.2459 178.698 28.8592C177.297 27.4592 176.597 25.7725 176.597 23.7992C176.597 21.8259 177.297 20.1392 178.698 18.7392Z" fill="#D3CDD0"/>
<path d="M192.139 30.7792V16.7792H198.319C199.692 16.7792 200.859 17.2592 201.819 18.2192C202.792 19.1792 203.279 20.3125 203.279 21.6192C203.279 22.5259 203.019 23.3659 202.499 24.1392C201.992 24.9125 201.319 25.4659 200.479 25.7992L203.479 30.7792H200.279L197.499 26.1792H195.139V30.7792H192.139ZM198.319 23.5792C198.892 23.5792 199.379 23.3792 199.779 22.9792C200.179 22.5792 200.379 22.0925 200.379 21.5192C200.379 20.9459 200.179 20.4658 199.779 20.0792C199.379 19.6792 198.892 19.4792 198.319 19.4792H195.139V23.5792H198.319Z" fill="#D3CDD0"/>
<path d="M204.491 23.7992C204.491 21.8259 205.191 20.1392 206.591 18.7392C207.991 17.3392 209.677 16.6392 211.651 16.6392C213.624 16.6392 215.304 17.3392 216.691 18.7392C218.091 20.1392 218.797 21.8259 218.811 23.7992C218.811 23.8125 218.811 23.8325 218.811 23.8592C218.811 25.7925 218.117 27.4526 216.731 28.8392C215.317 30.2392 213.624 30.9392 211.651 30.9392C209.677 30.9392 207.991 30.2459 206.591 28.8592C205.191 27.4592 204.491 25.7725 204.491 23.7992ZM207.491 23.7992C207.491 25.0125 207.891 26.0392 208.691 26.8792C209.477 27.7192 210.464 28.1392 211.651 28.1392C212.837 28.1392 213.824 27.7192 214.611 26.8792C215.411 26.0392 215.811 25.0125 215.811 23.7992C215.811 22.5859 215.411 21.5592 214.611 20.7192C213.824 19.8658 212.837 19.4392 211.651 19.4392C210.477 19.4392 209.491 19.8658 208.691 20.7192C207.891 21.5592 207.491 22.5859 207.491 23.7992Z" fill="#D3CDD0"/>
<path d="M220.223 16.7992H223.243V25.1192C223.243 25.9725 223.529 26.6859 224.103 27.2592C224.676 27.8326 225.356 28.1192 226.143 28.1192C226.929 28.1192 227.609 27.8326 228.183 27.2592C228.769 26.6859 229.063 25.9725 229.063 25.1192V16.7992H232.063V25.1192C232.063 26.7726 231.496 28.1592 230.363 29.2792C229.243 30.3859 227.836 30.9392 226.143 30.9392C224.476 30.9392 223.069 30.3926 221.923 29.2992C220.789 28.1926 220.223 26.7992 220.223 25.1192V16.7992Z" fill="#D3CDD0"/>
<path d="M234.17 30.7792V16.7792H240.351C241.724 16.7792 242.891 17.2592 243.851 18.2192C244.824 19.1792 245.311 20.3125 245.311 21.6192C245.311 22.9525 244.831 24.0792 243.871 24.9992C242.924 25.9059 241.751 26.3659 240.351 26.3792L237.19 26.3992V30.7792H234.17ZM237.19 23.7192L240.151 23.6992C240.804 23.6992 241.344 23.4859 241.771 23.0592C242.197 22.6325 242.411 22.1192 242.411 21.5192C242.411 20.9325 242.197 20.4458 241.771 20.0592C241.357 19.6725 240.817 19.4792 240.151 19.4792L237.19 19.4992V23.7192Z" fill="#D3CDD0"/>
<g clip-path="url(#clip0_19_3511)">
<path d="M23.6641 47.9999V13.4331L23.9467 13.1855H24.3358V47.9882C24.1119 47.9999 23.888 47.9999 23.6641 47.9999Z" fill="#D3CDD0"/>
<path d="M25.1014 47.9529L23.6875 13.4096L23.9349 13.1856L24.3122 13.1738L25.7385 47.9177C25.5263 47.9294 25.3142 47.9529 25.102 47.9647V47.9529H25.1014Z" fill="#D3CDD0"/>
<path d="M26.6451 47.8231L23.7109 13.3974L23.9348 13.1969L24.3004 13.1616L27.2469 47.7408C27.0465 47.7643 26.8461 47.7996 26.634 47.8231H26.6457H26.6451Z" fill="#D3CDD0"/>
<path d="M28.2952 47.5638L23.7344 13.374L23.9348 13.1969L24.2886 13.1499L28.8729 47.4456C28.6842 47.4809 28.4956 47.5279 28.2952 47.5638Z" fill="#D3CDD0"/>
<path d="M30.0393 47.1628L23.7461 13.3505L23.923 13.197L24.265 13.1382L30.57 47.021C30.3931 47.0681 30.2162 47.1269 30.0282 47.1745L30.04 47.1628H30.0393Z" fill="#D3CDD0"/>
<path d="M31.8775 46.5972L23.7578 13.3388L23.9112 13.1971L24.2415 13.1147L32.3612 46.4084C32.196 46.4672 32.0309 46.5266 31.8664 46.5972H31.8781H31.8775Z" fill="#D3CDD0"/>
<path d="M33.775 45.842L23.7695 13.327L23.8994 13.2088L24.2297 13.1147L34.2352 45.6297C34.0818 45.7003 33.9291 45.7715 33.7757 45.842H33.775Z" fill="#D3CDD0"/>
<path d="M35.7195 44.8635L23.793 13.3153L23.8987 13.2213L24.2166 13.103L36.1314 44.6277C35.9898 44.71 35.8605 44.793 35.7189 44.8635H35.7195Z" fill="#D3CDD0"/>
<path d="M37.6523 43.6602L23.8047 13.3153L23.8869 13.2448L24.2048 13.103L38.0283 43.4009C37.9102 43.4832 37.7809 43.5779 37.6628 43.6602H37.651H37.6523Z" fill="#D3CDD0"/>
<path d="M39.5498 42.2096L23.8281 13.2914L23.8634 13.2561L24.1937 13.0908L39.8795 41.9261C39.7737 42.0202 39.6673 42.1149 39.5616 42.209H39.5498V42.2096Z" fill="#D3CDD0"/>
<path d="M41.341 40.5229L23.8398 13.2914L24.1701 13.0908L41.6236 40.2401C41.5296 40.3342 41.435 40.4406 41.3527 40.5347L41.341 40.5229Z" fill="#D3CDD0"/>
<path d="M42.98 38.6358L23.8535 13.2914L24.1479 13.0791L43.2163 38.3412C43.1458 38.4352 43.0629 38.5417 42.9924 38.6358H42.9807H42.98Z" fill="#D3CDD0"/>
<path d="M44.4297 36.5722L23.877 13.3031L24.1361 13.0908L44.6184 36.2769C44.5596 36.371 44.5002 36.4774 44.4415 36.5715H44.4297V36.5722Z" fill="#D3CDD0"/>
<path d="M45.6314 34.3786L23.8887 13.3031L24.1008 13.0908L45.7731 34.0951C45.7261 34.1891 45.6791 34.2956 45.6314 34.3897V34.3779V34.3786Z" fill="#D3CDD0"/>
<path d="M46.5864 32.1138L23.9004 13.2914L24.0773 13.0791L46.681 31.831C46.6458 31.925 46.6105 32.0198 46.587 32.1138H46.5864Z" fill="#D3CDD0"/>
<path d="M47.2815 29.8379L23.9238 13.2796L24.0772 13.0791L47.3527 29.5786C47.3292 29.6609 47.3057 29.7556 47.2939 29.8379H47.2822H47.2815Z" fill="#D3CDD0"/>
<path d="M47.7293 27.6208L23.9355 13.2796L24.0537 13.0908L47.7534 27.385C47.7417 27.4673 47.7299 27.5503 47.7182 27.6208H47.7299H47.7293Z" fill="#D3CDD0"/>
<path d="M47.9531 25.4982L23.959 13.2801L24.053 13.103L47.9649 25.2859C47.9649 25.3565 47.9531 25.4277 47.9531 25.4982Z" fill="#D3CDD0"/>
<path d="M47.9883 23.5052L23.9707 13.2683L24.0412 13.1147L47.9883 23.3164C47.9883 23.3752 47.9883 23.4346 48.0001 23.5052H47.9883Z" fill="#D3CDD0"/>
<path d="M47.8591 21.665L23.9707 13.2565L24.0177 13.1265L47.8467 21.5114C47.8467 21.5585 47.8584 21.6173 47.8702 21.665H47.8584H47.8591Z" fill="#D3CDD0"/>
<path d="M47.6234 19.9787L23.9824 13.2445L24.0177 13.1387L47.611 19.8612C47.6228 19.8964 47.6227 19.9435 47.6345 19.9794H47.6227L47.6234 19.9787Z" fill="#D3CDD0"/>
<path d="M47.3048 18.4692L23.9941 13.2329L24.0059 13.1499L47.2813 18.3745L47.3048 18.4692Z" fill="#D3CDD0"/>
<path d="M46.8805 16.9477L23.9941 13.2327L24.0059 13.1504L46.8453 16.8654C46.857 16.9006 46.8688 16.9242 46.8805 16.9594V16.9477Z" fill="#D3CDD0"/>
<path d="M46.3152 15.3912L23.9941 13.2329L24.0059 13.1499L46.2793 15.2964L46.3152 15.3912Z" fill="#D3CDD0"/>
<path d="M45.6194 13.8103L23.9941 13.2322V13.1499L45.5724 13.728C45.5842 13.7515 45.5959 13.7868 45.6194 13.8103Z" fill="#D3CDD0"/>
<path d="M44.7825 12.242L24.0059 13.2329V13.1506L44.7355 12.1597C44.7473 12.1832 44.7708 12.2185 44.7825 12.242Z" fill="#D3CDD0"/>
<path d="M43.8047 10.7087L24.0059 13.2328L23.9941 13.1505L43.746 10.6382C43.7695 10.6617 43.7812 10.6852 43.8047 10.7205V10.7087Z" fill="#D3CDD0"/>
<path d="M42.7205 9.25805L24.0059 13.2324L23.9824 13.15L42.65 9.1875C42.6735 9.21102 42.6853 9.23453 42.7088 9.25805H42.7205Z" fill="#D3CDD0"/>
<path d="M41.5423 7.91332L24.0059 13.2326L23.9824 13.1497H23.9942L41.4711 7.84277L41.5423 7.91332Z" fill="#D3CDD0"/>
<path d="M40.3047 6.68737L24.0177 13.2211L23.9824 13.1499H23.9942L40.2342 6.62793L40.3047 6.68737Z" fill="#D3CDD0"/>
<path d="M39.0553 5.60225L24.0177 13.221L23.9824 13.1504L23.9942 13.1387L38.973 5.54346C38.9965 5.56697 39.02 5.57873 39.0435 5.60225H39.0553Z" fill="#D3CDD0"/>
<path d="M37.8059 4.67016L24.0294 13.2204L23.9824 13.1499L24.0059 13.1263L37.7354 4.59961C37.7589 4.62313 37.7824 4.63488 37.8059 4.6584V4.67016Z" fill="#D3CDD0"/>
<path d="M36.5925 3.86881L24.0295 13.2212L23.9707 13.1618L24.0177 13.1148L36.5102 3.82178L36.5925 3.86881Z" fill="#D3CDD0"/>
<path d="M35.4255 3.19645L23.7111 13.4921L23.6523 13.4334L26.1629 11.2163L35.3433 3.14941C35.3668 3.16117 35.402 3.18469 35.4255 3.19645Z" fill="#D3CDD0"/>
<path d="M24.3358 0V34.5674L24.0531 34.815H23.6641V0.0117583C23.888 0 24.1119 0 24.3358 0Z" fill="#D3CDD0"/>
<path d="M22.8982 0.0469146L24.312 34.5902L24.0646 34.8143L23.6873 34.826L22.2617 0.0821895C22.4739 0.0704312 22.686 0.0469146 22.8982 0.0351562V0.0469146Z" fill="#D3CDD0"/>
<path d="M21.3551 0.177246L24.2893 34.6029L24.0654 34.8035L23.6998 34.8388L20.7539 0.259554C20.9543 0.236038 21.1547 0.200763 21.3668 0.177246H21.3551Z" fill="#D3CDD0"/>
<path d="M19.704 0.436523L24.2648 34.6264L24.0644 34.8034L23.7106 34.8505L19.127 0.55476C19.3156 0.519485 19.5042 0.472452 19.7046 0.436523H19.704Z" fill="#D3CDD0"/>
<path d="M17.948 0.837607L24.2413 34.6499L24.0644 34.8034L23.7223 34.8622L17.418 0.978706C17.5949 0.931673 17.7718 0.872882 17.9598 0.825195L17.948 0.836954V0.837607Z" fill="#D3CDD0"/>
<path d="M16.1217 1.40332L24.2414 34.6617L24.088 34.8034L23.7577 34.8857L15.6387 1.59211C15.8038 1.53331 15.969 1.47387 16.1335 1.40332H16.1217Z" fill="#D3CDD0"/>
<path d="M14.2134 2.1582L24.2189 34.6732L24.089 34.7914L23.7587 34.8855L13.7539 2.37051C13.9073 2.29996 14.06 2.22875 14.2134 2.1582Z" fill="#D3CDD0"/>
<path d="M12.2797 3.13672L24.2063 34.6849L24.1005 34.779L23.7827 34.8972L11.8672 3.37254C12.0088 3.29023 12.1381 3.20727 12.2797 3.13672Z" fill="#D3CDD0"/>
<path d="M10.3356 4.35205L24.1833 34.697L24.101 34.7675L23.7831 34.9093L9.95898 4.61139C10.0771 4.52908 10.2064 4.43436 10.3245 4.35205H10.3363H10.3356Z" fill="#D3CDD0"/>
<path d="M8.44944 5.79102L24.1705 34.7093L24.1352 34.7445L23.8049 34.9098L8.11914 6.07387L8.43703 5.79102H8.44878H8.44944Z" fill="#D3CDD0"/>
<path d="M6.6583 7.47693L24.1588 34.7085L23.8285 34.909L6.375 7.76043C6.469 7.66636 6.56365 7.55989 6.6459 7.46582L6.65764 7.47758L6.6583 7.47693Z" fill="#D3CDD0"/>
<path d="M5.0208 9.36426L24.148 34.7086L23.8536 34.9209L4.78516 9.65887C4.85565 9.5648 4.93855 9.45832 5.00905 9.36426H5.0208Z" fill="#D3CDD0"/>
<path d="M3.57081 11.4395L24.1236 34.7085L23.8644 34.9208L3.38281 11.7347C3.44156 11.6407 3.50096 11.5342 3.55971 11.4401H3.57146L3.57081 11.4395Z" fill="#D3CDD0"/>
<path d="M2.35649 13.6215L24.0999 34.6969L23.8878 34.9092L2.21484 13.905C2.26184 13.8109 2.30884 13.7044 2.35649 13.6104V13.6221V13.6215Z" fill="#D3CDD0"/>
<path d="M1.40259 15.8862L24.0886 34.7087L23.9117 34.921L1.30859 16.1691C1.34384 16.075 1.37909 15.9803 1.40259 15.8862Z" fill="#D3CDD0"/>
<path d="M0.718935 18.1621L24.0766 34.7204L23.9232 34.921L0.648438 18.4221C0.671937 18.3398 0.695436 18.2451 0.707186 18.1628H0.718935V18.1621Z" fill="#D3CDD0"/>
<path d="M0.271546 20.3789L24.0653 34.7201L23.9471 34.9089L0.248047 20.6154C0.259797 20.5331 0.271546 20.4501 0.283296 20.3796H0.271546V20.3789Z" fill="#D3CDD0"/>
<path d="M0.0469059 22.502L24.041 34.7201L23.947 34.8972L0.0351562 22.7143C0.0351562 22.6437 0.0469059 22.5725 0.0469059 22.502Z" fill="#D3CDD0"/>
<path d="M0.0117497 24.5068L24.0294 34.7437L23.9589 34.8973L0.0117497 24.6956C0.0117497 24.6368 0.0117497 24.5774 0 24.5068H0.0117497Z" fill="#D3CDD0"/>
<path d="M0.128937 26.3472L24.0173 34.7563L23.9703 34.8863L0.140687 26.5007C0.140687 26.4536 0.128937 26.3949 0.117188 26.3472H0.128937Z" fill="#D3CDD0"/>
<path d="M0.365265 28.0221L24.0062 34.7564L23.971 34.8622L0.377015 28.1397C0.365265 28.1044 0.365265 28.0574 0.353516 28.0215H0.365265V28.0221Z" fill="#D3CDD0"/>
<path d="M0.695312 29.5435L24.006 34.7798L23.9942 34.8621L0.718812 29.6375L0.695312 29.5435Z" fill="#D3CDD0"/>
<path d="M1.11914 31.0526L24.0055 34.7676L23.9938 34.8499L1.15439 31.1356C1.14264 31.1003 1.13089 31.0768 1.11914 31.0415V31.0533V31.0526Z" fill="#D3CDD0"/>
<path d="M1.68555 32.6216L24.006 34.7675L23.9942 34.8622L1.7208 32.7039L1.68555 32.6216Z" fill="#D3CDD0"/>
<path d="M2.38086 34.2017L24.0061 34.7798V34.8621L2.42786 34.284C2.41611 34.2605 2.40436 34.2252 2.38086 34.2017Z" fill="#D3CDD0"/>
<path d="M3.2168 35.7703L23.9935 34.7793V34.8616L3.2638 35.8526C3.25205 35.8291 3.22855 35.7938 3.2168 35.7703Z" fill="#D3CDD0"/>
<path d="M4.19531 37.2917L23.9942 34.7676L24.0059 34.8499L4.25406 37.3622C4.23056 37.3387 4.21881 37.3152 4.19531 37.2799V37.2917Z" fill="#D3CDD0"/>
<path d="M5.2793 38.7424L23.9939 34.7681L24.0174 34.8504L5.34979 38.8129C5.3263 38.7894 5.31455 38.7659 5.29105 38.7424H5.2793Z" fill="#D3CDD0"/>
<path d="M6.45898 40.0985L23.983 34.7798L24.0065 34.8503V34.8621L6.51773 40.169L6.45898 40.0985Z" fill="#D3CDD0"/>
<path d="M7.69531 41.3135L23.9823 34.7798L24.0176 34.8503L24.0058 34.8621L7.75471 41.384L7.69531 41.3135Z" fill="#D3CDD0"/>
<path d="M8.94531 42.3985L23.9829 34.7798L24.0182 34.8503L24.0064 34.8621L9.02756 42.4573C9.00406 42.4338 8.98056 42.422 8.95706 42.3985H8.94531Z" fill="#D3CDD0"/>
<path d="M10.1934 43.33L23.9698 34.7798L24.0168 34.8503L23.9933 34.8739L10.2639 43.4006C10.2404 43.3771 10.2169 43.3653 10.1934 43.3418V43.33Z" fill="#D3CDD0"/>
<path d="M11.4082 44.1316L23.9712 34.7798L24.0182 34.8503L23.9712 34.8856L11.4911 44.1792L11.4082 44.1316Z" fill="#D3CDD0"/>
<path d="M12.5625 44.8045L24.2769 34.5088L24.3357 34.5676L21.8252 36.7847L12.6447 44.8515C12.6212 44.8398 12.586 44.8162 12.5625 44.8045Z" fill="#D3CDD0"/>
</g>
<defs>
<clipPath id="clip0_19_3511">
<rect width="48" height="48" fill="white"/>
</clipPath>
</defs>
</svg>
