<svg width="198" height="56" viewBox="0 0 198 56" fill="none" xmlns="http://www.w3.org/2000/svg">
<g id="Group">
<g id="Group_2">
<path id="Vector" d="M88.4955 21.7628C90.8726 21.7628 92.786 22.4734 94.2361 23.8947C95.7099 25.3159 96.4469 27.4241 96.4469 30.2191V40.2437C96.4469 40.7512 96.0349 41.1626 95.527 41.1626H91.8043C91.2962 41.1626 90.8844 40.7512 90.8844 40.2437V31.0719C90.8844 29.5559 90.5516 28.4308 89.886 27.6964C89.2204 26.9385 88.2577 26.5594 86.9979 26.5594C85.5955 26.5594 84.4783 26.9977 83.6462 27.8742C82.8143 28.7268 82.3984 30.006 82.3984 31.7114V40.2437C82.3984 40.7512 81.9866 41.1626 81.4785 41.1626H77.7558C77.2477 41.1626 76.8359 40.7512 76.8359 40.2437V15.7177C76.8359 15.2102 77.2477 14.7988 77.7558 14.7988H81.4785C81.9866 14.7988 82.3984 15.2102 82.3984 15.7177V21.8222C82.3984 22.6403 83.4587 23.1174 84.1892 22.7476C84.4704 22.6054 84.7648 22.4783 85.0724 22.3668C86.1184 21.9643 87.2595 21.7628 88.4955 21.7628Z" fill="#EB52F9"/>
<path id="Vector_2" d="M118.114 22.0474C118.622 22.0474 119.034 22.4588 119.034 22.9663V40.2439C119.034 40.7514 118.622 41.1628 118.114 41.1628H114.384C114.038 41.1628 113.757 40.8824 113.757 40.5367C113.757 39.9609 113.005 39.6565 112.538 39.9949C112.1 40.3126 111.627 40.5835 111.118 40.8074C110.096 41.2338 108.991 41.4469 107.802 41.4469C105.283 41.4469 103.286 40.7246 101.812 39.2796C100.338 37.8348 99.6016 35.6912 99.6016 32.8486V22.9663C99.6016 22.4588 100.013 22.0474 100.521 22.0474H104.244C104.752 22.0474 105.164 22.4588 105.164 22.9663V32.0315C105.164 35.1106 106.459 36.6503 109.05 36.6503C110.381 36.6503 111.451 36.2241 112.259 35.3713C113.068 34.4948 113.472 33.204 113.472 31.4985V22.9663C113.472 22.4588 113.884 22.0474 114.392 22.0474H118.114Z" fill="#EB52F9"/>
<path id="Vector_3" d="M141.025 14.7988C141.533 14.7988 141.945 15.2102 141.945 15.7177V40.2437C141.945 40.7512 141.533 41.1626 141.025 41.1626H137.217C136.894 41.1626 136.632 40.901 136.632 40.5781C136.632 40.031 135.899 39.7445 135.456 40.0669C134.195 40.9868 132.59 41.4467 130.642 41.4467C128.836 41.4467 127.195 41.0442 125.722 40.2388C124.272 39.4335 123.131 38.2845 122.299 36.7924C121.467 35.3001 121.051 33.571 121.051 31.6049C121.051 29.6388 121.467 27.9097 122.299 26.4174C123.131 24.925 124.272 23.7763 125.722 22.9708C127.195 22.1655 128.836 21.7628 130.642 21.7628C132.12 21.7628 133.404 22.0434 134.492 22.6048C135.242 22.9917 136.383 22.5103 136.383 21.6669V15.7177C136.383 15.2102 136.795 14.7988 137.303 14.7988H141.025ZM131.605 36.8989C133.007 36.8989 134.172 36.4252 135.099 35.4777C136.026 34.5065 136.49 33.2156 136.49 31.6049C136.49 29.9942 136.026 28.715 135.099 27.7676C134.172 26.7964 133.007 26.3108 131.605 26.3108C130.179 26.3108 129.002 26.7964 128.075 27.7676C127.148 28.715 126.684 29.9942 126.684 31.6049C126.684 33.2156 127.148 34.5065 128.075 35.4777C129.002 36.4252 130.179 36.8989 131.605 36.8989Z" fill="#EB52F9"/>
<path id="Vector_4" d="M163.924 14.7988C164.432 14.7988 164.844 15.2102 164.844 15.7177V40.2437C164.844 40.7512 164.432 41.1626 163.924 41.1626H160.116C159.793 41.1626 159.531 40.901 159.531 40.5781C159.531 40.031 158.797 39.7445 158.355 40.0669C157.093 40.9868 155.488 41.4467 153.541 41.4467C151.734 41.4467 150.094 41.0442 148.62 40.2388C147.17 39.4335 146.029 38.2845 145.197 36.7924C144.365 35.3001 143.949 33.571 143.949 31.6049C143.949 29.6388 144.365 27.9097 145.197 26.4174C146.029 24.925 147.17 23.7763 148.62 22.9708C150.094 22.1655 151.734 21.7628 153.541 21.7628C155.019 21.7628 156.302 22.0434 157.39 22.6048C158.141 22.9917 159.281 22.5103 159.281 21.6669V15.7177C159.281 15.2102 159.693 14.7988 160.201 14.7988H163.924ZM154.503 36.8989C155.906 36.8989 157.071 36.4252 157.998 35.4777C158.925 34.5065 159.388 33.2156 159.388 31.6049C159.388 29.9942 158.925 28.715 157.998 27.7676C157.071 26.7964 155.906 26.3108 154.503 26.3108C153.077 26.3108 151.901 26.7964 150.973 27.7676C150.046 28.715 149.583 29.9942 149.583 31.6049C149.583 33.2156 150.046 34.5065 150.973 35.4777C151.901 36.4252 153.077 36.8989 154.503 36.8989Z" fill="#EB52F9"/>
<path id="Vector_5" d="M175.089 41.4467C172.926 41.4467 171.238 40.8783 170.026 39.7413C168.813 38.5807 168.207 36.9463 168.207 34.8381V15.7177C168.207 15.2102 168.619 14.7988 169.127 14.7988H172.85C173.357 14.7988 173.769 15.2102 173.769 15.7177V34.5183C173.769 35.3237 173.971 35.9514 174.375 36.4015C174.803 36.8279 175.398 37.041 176.158 37.041C176.444 37.041 176.729 37.0055 177.014 36.9345C177.354 36.8563 177.751 37.0937 177.771 37.4416L177.936 40.282C177.96 40.6967 177.704 41.0809 177.3 41.1808C176.583 41.3581 175.846 41.4467 175.089 41.4467Z" fill="#EB52F9"/>
<path id="Vector_6" d="M188.243 37.0054C189.242 37.0054 190.121 36.8633 190.882 36.579C191.394 36.3779 191.881 36.1064 192.342 35.764C192.756 35.4572 193.344 35.4681 193.694 35.8459L195.454 37.7485C195.774 38.0936 195.785 38.6285 195.442 38.9501C193.667 40.6145 191.22 41.4466 188.101 41.4466C185.938 41.4466 184.024 41.0322 182.36 40.2031C180.696 39.3503 179.412 38.1778 178.509 36.6855C177.606 35.1934 177.154 33.4996 177.154 31.6048C177.154 29.7334 177.594 28.0516 178.474 26.5593C179.377 25.0433 180.601 23.8708 182.146 23.0419C183.715 22.1891 185.474 21.7627 187.423 21.7627C189.253 21.7627 190.917 22.1536 192.415 22.9352C193.913 23.6933 195.101 24.8065 195.981 26.2752C196.767 27.5333 197.211 28.9978 197.312 30.6689C197.34 31.1085 197.023 31.4874 196.59 31.5708L184.263 33.9473C183.688 34.0582 183.356 34.6806 183.709 35.1482C184.065 35.6204 184.507 36.0026 185.034 36.2948C185.914 36.7686 186.984 37.0054 188.243 37.0054ZM187.423 25.9553C186.021 25.9553 184.88 26.4054 184 27.3056C183.344 27.9771 182.919 28.8399 182.726 29.894C182.62 30.4735 183.16 30.9295 183.739 30.8173L190.988 29.4112C191.51 29.3099 191.847 28.7813 191.605 28.3085C191.309 27.7294 190.89 27.2412 190.347 26.8437C189.539 26.2515 188.564 25.9553 187.423 25.9553Z" fill="#EB52F9"/>
</g>
<g id="Group_3">
<path id="Vector_7" d="M4.12974 26.8553C3.33835 26.8553 2.57966 27.2996 2.21436 28.0613C1.50989 29.5291 0.987105 31.082 0.662322 32.6756C0.394391 33.9923 0.257812 35.3457 0.257812 36.6964C0.257812 43.5591 3.71345 49.8593 9.50075 53.549C11.1443 54.5965 12.9263 55.3943 14.7973 55.9205C15.9285 56.2378 17.0975 55.5776 17.4158 54.4473C17.7328 53.3165 17.0734 52.1425 15.9448 51.8252C14.4751 51.4122 13.0734 50.7853 11.7814 49.9613C7.22466 47.057 4.50484 42.098 4.50484 36.6964C4.50484 35.6302 4.61265 34.5643 4.82375 33.527C5.07925 32.2758 5.48964 31.0552 6.04248 29.9023C6.55024 28.8433 6.10523 27.5731 5.04788 27.0646C4.75184 26.9214 4.43818 26.8545 4.12974 26.8545V26.8553Z" fill="#EB52F9"/>
<path id="Vector_8" d="M14.4354 36.2224C11.6524 34.1841 7.74473 34.7883 5.7072 37.5707C3.669 40.3537 4.27321 44.2614 7.05554 46.2989C9.8385 48.337 13.7462 47.7328 15.7837 44.9506C17.8219 42.1676 17.2177 38.2599 14.4354 36.2224Z" fill="#EB52F9"/>
<path id="Vector_9" d="M36.1172 29.9974C34.6101 33.9228 36.5712 38.3272 40.4967 39.8343C44.4223 41.3414 48.8267 39.3805 50.3338 35.4548C51.8409 31.5291 49.8798 27.125 45.9543 25.6177C42.0287 24.1106 37.6243 26.0717 36.1172 29.9974Z" fill="#EB52F9"/>
<path id="Vector_10" d="M49.5143 41.7409C56.8348 35.8128 59.0028 25.4497 54.6689 17.1004C54.1286 16.061 52.8488 15.6549 51.8079 16.1954C50.7663 16.7339 50.3624 18.0162 50.9028 19.0562C54.3127 25.6241 52.6063 33.7781 46.844 38.4443C42.5292 41.9384 36.8342 42.8897 31.6078 40.9909C30.509 40.5905 29.2907 41.1586 28.89 42.2594C28.4896 43.3607 29.0579 44.5781 30.1591 44.9783C36.6979 47.3544 44.1137 46.1141 49.5143 41.7409Z" fill="#EB52F9"/>
<path id="Vector_11" d="M19.7624 18.0555C23.9513 17.6893 27.0501 13.996 26.6839 9.80697C26.3177 5.61799 22.6243 2.51912 18.4354 2.88535C14.2464 3.25157 11.1475 6.94494 11.5138 11.1339C11.88 15.3229 15.5734 18.4218 19.7624 18.0555Z" fill="#EB52F9"/>
<path id="Vector_12" d="M23.1886 0.674579C14.0898 -1.76342 4.43143 2.57398 0.224281 10.9878C-0.299176 12.0358 0.124562 13.3098 1.17364 13.8343C2.22158 14.3604 3.4965 13.9335 4.02012 12.8849C7.32939 6.26566 14.9291 2.8535 22.0911 4.77259C27.454 6.20956 31.571 10.2577 33.107 15.602C33.4288 16.7264 34.6048 17.3781 35.7307 17.0553C36.857 16.7318 37.5078 15.5564 37.1844 14.4302C35.2633 7.74375 29.9009 2.47317 23.1886 0.674579Z" fill="#EB52F9"/>
</g>
</g>
</svg>
