<svg width="113" height="32" viewBox="0 0 113 32" fill="none" xmlns="http://www.w3.org/2000/svg">
<g id="Group">
<g id="Group_2">
<path id="Vector" d="M50.5689 12.436C51.9273 12.436 53.0207 12.842 53.8493 13.6542C54.6915 14.4664 55.1126 15.671 55.1126 17.2682V22.9966C55.1126 23.2866 54.8772 23.5217 54.5869 23.5217H52.4597C52.1694 23.5217 51.934 23.2866 51.934 22.9966V17.7555C51.934 16.8892 51.7438 16.2463 51.3635 15.8266C50.9832 15.3936 50.4331 15.177 49.7131 15.177C48.9118 15.177 48.2734 15.4274 47.7979 15.9282C47.3225 16.4155 47.0848 17.1464 47.0848 18.121V22.9966C47.0848 23.2866 46.8495 23.5217 46.5591 23.5217H44.4319C44.1416 23.5217 43.9062 23.2866 43.9062 22.9966V8.98163C43.9062 8.69164 44.1416 8.45654 44.4319 8.45654H46.5591C46.8495 8.45654 47.0848 8.69164 47.0848 8.98163V12.4699C47.0848 12.9374 47.6907 13.2101 48.1082 12.9988C48.2688 12.9175 48.4371 12.8449 48.6129 12.7811C49.2106 12.5511 49.8626 12.436 50.5689 12.436Z" fill="#FF3D00"/>
<path id="Vector_2" d="M67.4948 12.5991C67.7851 12.5991 68.0204 12.8342 68.0204 13.1242V22.9972C68.0204 23.2872 67.7851 23.5223 67.4948 23.5223H65.363C65.1653 23.5223 65.0049 23.3621 65.0049 23.1646C65.0049 22.8355 64.5751 22.6616 64.3085 22.8549C64.0582 23.0365 63.7878 23.1913 63.4972 23.3193C62.9131 23.5629 62.2815 23.6847 61.6022 23.6847C60.1625 23.6847 59.0214 23.2719 58.1792 22.4462C57.337 21.6206 56.916 20.3956 56.916 18.7713V13.1242C56.916 12.8342 57.1513 12.5991 57.4417 12.5991H59.5689C59.8591 12.5991 60.0945 12.8342 60.0945 13.1242V18.3044C60.0945 20.0639 60.8348 20.9437 62.3154 20.9437C63.076 20.9437 63.6873 20.7002 64.1491 20.2129C64.611 19.712 64.8419 18.9744 64.8419 17.9998V13.1242C64.8419 12.8342 65.0772 12.5991 65.3675 12.5991H67.4948Z" fill="#FF3D00"/>
<path id="Vector_3" d="M80.586 8.45654C80.8763 8.45654 81.1116 8.69164 81.1116 8.98163V22.9966C81.1116 23.2866 80.8763 23.5217 80.586 23.5217H78.4101C78.2254 23.5217 78.0758 23.3722 78.0758 23.1877C78.0758 22.8751 77.6565 22.7113 77.4037 22.8956C76.6827 23.4212 75.7657 23.6841 74.6528 23.6841C73.6204 23.6841 72.6832 23.454 71.841 22.9938C71.0124 22.5336 70.3604 21.8771 69.8849 21.0244C69.4096 20.1716 69.1719 19.1836 69.1719 18.0601C69.1719 16.9366 69.4096 15.9485 69.8849 15.0958C70.3604 14.243 71.0124 13.5866 71.841 13.1263C72.6832 12.6661 73.6204 12.436 74.6528 12.436C75.4974 12.436 76.2308 12.5963 76.8526 12.9171C77.2814 13.1382 77.9331 12.8631 77.9331 12.3812V8.98163C77.9331 8.69164 78.1685 8.45654 78.4588 8.45654H80.586ZM75.2029 21.0853C76.0042 21.0853 76.6698 20.8146 77.1997 20.2731C77.7294 19.7181 77.9942 18.9805 77.9942 18.0601C77.9942 17.1397 77.7294 16.4087 77.1997 15.8674C76.6698 15.3124 76.0042 15.0349 75.2029 15.0349C74.3879 15.0349 73.7154 15.3124 73.1857 15.8674C72.656 16.4087 72.3911 17.1397 72.3911 18.0601C72.3911 18.9805 72.656 19.7181 73.1857 20.2731C73.7154 20.8146 74.3879 21.0853 75.2029 21.0853Z" fill="#FF3D00"/>
<path id="Vector_4" d="M93.67 8.45654C93.9604 8.45654 94.1957 8.69164 94.1957 8.98163V22.9966C94.1957 23.2866 93.9604 23.5217 93.67 23.5217H91.4941C91.3095 23.5217 91.1598 23.3722 91.1598 23.1877C91.1598 22.8751 90.7405 22.7113 90.4877 22.8956C89.7667 23.4212 88.8498 23.6841 87.7368 23.6841C86.7044 23.6841 85.7672 23.454 84.925 22.9938C84.0964 22.5336 83.4444 21.8771 82.969 21.0244C82.4935 20.1716 82.2559 19.1836 82.2559 18.0601C82.2559 16.9366 82.4935 15.9485 82.969 15.0958C83.4444 14.243 84.0964 13.5866 84.925 13.1263C85.7672 12.6661 86.7044 12.436 87.7368 12.436C88.5815 12.436 89.3148 12.5963 89.9366 12.9171C90.3654 13.1382 91.0171 12.8631 91.0171 12.3812V8.98163C91.0171 8.69164 91.2524 8.45654 91.5428 8.45654H93.67ZM88.2869 21.0853C89.0883 21.0853 89.7539 20.8146 90.2837 20.2731C90.8134 19.7181 91.0782 18.9805 91.0782 18.0601C91.0782 17.1397 90.8134 16.4087 90.2837 15.8674C89.7539 15.3124 89.0883 15.0349 88.2869 15.0349C87.4719 15.0349 86.7995 15.3124 86.2697 15.8674C85.74 16.4087 85.4751 17.1397 85.4751 18.0601C85.4751 18.9805 85.74 19.7181 86.2697 20.2731C86.7995 20.8146 87.4719 21.0853 88.2869 21.0853Z" fill="#FF3D00"/>
<path id="Vector_5" d="M100.052 23.6841C98.8154 23.6841 97.8511 23.3592 97.1583 22.7095C96.4655 22.0463 96.1191 21.1124 96.1191 19.9077V8.98163C96.1191 8.69164 96.3545 8.45654 96.6448 8.45654H98.772C99.0623 8.45654 99.2977 8.69164 99.2977 8.98163V19.7249C99.2977 20.1852 99.4132 20.5439 99.644 20.801C99.8885 21.0447 100.228 21.1665 100.663 21.1665C100.826 21.1665 100.989 21.1462 101.152 21.1056C101.346 21.0609 101.573 21.1966 101.584 21.3954L101.679 23.0185C101.692 23.2555 101.546 23.475 101.315 23.5321C100.906 23.6334 100.484 23.6841 100.052 23.6841Z" fill="#FF3D00"/>
<path id="Vector_6" d="M107.569 21.1467C108.14 21.1467 108.642 21.0655 109.077 20.903C109.369 20.7881 109.648 20.633 109.911 20.4374C110.148 20.262 110.484 20.2682 110.684 20.4842L111.69 21.5713C111.872 21.7685 111.878 22.0742 111.682 22.258C110.668 23.2091 109.27 23.6846 107.488 23.6846C106.251 23.6846 105.158 23.4478 104.207 22.974C103.256 22.4867 102.523 21.8167 102.007 20.9639C101.491 20.1113 101.232 19.1434 101.232 18.0606C101.232 16.9912 101.484 16.0302 101.986 15.1775C102.502 14.3112 103.202 13.6412 104.085 13.1675C104.981 12.6802 105.987 12.4365 107.1 12.4365C108.146 12.4365 109.097 12.6599 109.953 13.1065C110.809 13.5397 111.488 14.1759 111.99 15.0151C112.44 15.734 112.694 16.5709 112.751 17.5258C112.767 17.777 112.586 17.9935 112.339 18.0412L105.295 19.3992C104.966 19.4626 104.776 19.8182 104.978 20.0855C105.181 20.3553 105.434 20.5737 105.735 20.7407C106.238 21.0114 106.849 21.1467 107.569 21.1467ZM107.1 14.8323C106.299 14.8323 105.647 15.0895 105.144 15.6039C104.769 15.9876 104.527 16.4807 104.416 17.083C104.356 17.4142 104.664 17.6748 104.995 17.6106L109.137 16.8071C109.436 16.7493 109.628 16.4472 109.49 16.177C109.321 15.8461 109.081 15.5672 108.771 15.34C108.309 15.0016 107.752 14.8323 107.1 14.8323Z" fill="#FF3D00"/>
</g>
<g id="Group_3">
<path id="Vector_7" d="M2.35708 15.3457C1.90485 15.3457 1.47131 15.5996 1.26257 16.0348C0.860014 16.8736 0.561274 17.761 0.375682 18.6716C0.222577 19.424 0.144531 20.1974 0.144531 20.9692C0.144531 24.8908 2.1192 28.4909 5.42626 30.5993C6.36543 31.1979 7.38376 31.6538 8.45288 31.9545C9.09928 32.1358 9.76733 31.7586 9.94919 31.1127C10.1303 30.4665 9.75351 29.7956 9.10861 29.6143C8.26877 29.3783 7.46777 29.0201 6.72951 28.5492C4.12563 26.8896 2.57143 24.0558 2.57143 20.9692C2.57143 20.36 2.63304 19.7509 2.75366 19.1581C2.89967 18.4431 3.13417 17.7456 3.45009 17.0868C3.74024 16.4817 3.48595 15.7559 2.88174 15.4653C2.71257 15.3834 2.53334 15.3452 2.35708 15.3452V15.3457Z" fill="#FF3D00"/>
<path id="Vector_8" d="M8.24969 20.6992C6.6594 19.5344 4.42642 19.8797 3.2621 21.4696C2.0974 23.0599 2.44267 25.2929 4.03259 26.4572C5.62287 27.6218 7.85585 27.2766 9.02017 25.6867C10.1849 24.0965 9.8396 21.8635 8.24969 20.6992Z" fill="#FF3D00"/>
<path id="Vector_9" d="M20.6378 17.142C19.7766 19.3851 20.8973 21.9019 23.1404 22.7632C25.3837 23.6244 27.9005 22.5038 28.7617 20.2606C29.6229 18.0173 28.5022 15.5006 26.2591 14.6393C24.0159 13.7781 21.4991 14.8988 20.6378 17.142Z" fill="#FF3D00"/>
<path id="Vector_10" d="M28.2923 23.852C32.4755 20.4645 33.7144 14.5426 31.2378 9.77161C30.9291 9.17762 30.1978 8.94558 29.603 9.25443C29.0078 9.56216 28.7769 10.2949 29.0858 10.8892C31.0343 14.6423 30.0592 19.3018 26.7664 21.9682C24.3008 23.9649 21.0465 24.5085 18.06 23.4234C17.432 23.1946 16.7359 23.5193 16.5069 24.1483C16.2781 24.7776 16.6028 25.4733 17.2321 25.702C20.9686 27.0598 25.2062 26.351 28.2923 23.852Z" fill="#FF3D00"/>
<path id="Vector_11" d="M11.2928 10.3174C13.6865 10.1081 15.4573 7.99762 15.248 5.60388C15.0388 3.21016 12.9282 1.43936 10.5345 1.64863C8.14082 1.8579 6.37002 3.96842 6.57929 6.36214C6.78857 8.75588 8.89909 10.5267 11.2928 10.3174Z" fill="#FF3D00"/>
<path id="Vector_12" d="M13.2507 0.385477C8.05138 -1.00768 2.53227 1.47086 0.128162 6.27879C-0.170959 6.87764 0.0711791 7.60568 0.670657 7.90536C1.26949 8.20602 1.99802 7.96208 2.29723 7.36287C4.18826 3.58041 8.53098 1.63059 12.6236 2.72722C15.6881 3.54835 18.0408 5.86157 18.9184 8.91549C19.1024 9.55804 19.7744 9.93042 20.4177 9.74596C21.0613 9.56112 21.4332 8.88947 21.2484 8.24592C20.1506 4.42504 17.0864 1.41325 13.2507 0.385477Z" fill="#FF3D00"/>
</g>
</g>
</svg>
