<svg width="48" height="48" viewBox="0 0 48 48" fill="none" xmlns="http://www.w3.org/2000/svg">
<g id="Logo">
<g id="Group">
<path id="Vector" d="M23.6646 48V13.4332L23.9472 13.1857H24.3362V47.9883C24.1123 48 23.8884 48 23.6646 48Z" fill="#D3CDD0"/>
<path id="Vector_2" d="M25.1019 47.953L23.688 13.4097L23.9354 13.1856L24.3127 13.1739L25.739 47.9177C25.5268 47.9295 25.3147 47.953 25.1025 47.9647V47.953H25.1019Z" fill="#D3CDD0"/>
<path id="Vector_3" d="M26.6456 47.823L23.7114 13.3973L23.9353 13.1968L24.3009 13.1615L27.2474 47.7407C27.047 47.7642 26.8466 47.7995 26.6345 47.823H26.6462H26.6456Z" fill="#D3CDD0"/>
<path id="Vector_4" d="M28.2957 47.5637L23.7349 13.3738L23.9353 13.1968L24.2891 13.1497L28.8734 47.4454C28.6847 47.4807 28.4961 47.5277 28.2957 47.5637Z" fill="#D3CDD0"/>
<path id="Vector_5" d="M30.0403 47.1626L23.7471 13.3503L23.924 13.1968L24.266 13.138L30.571 47.0209C30.3941 47.0679 30.2172 47.1267 30.0292 47.1744L30.041 47.1626H30.0403Z" fill="#D3CDD0"/>
<path id="Vector_6" d="M31.8785 46.5969L23.7588 13.3385L23.9122 13.1967L24.2425 13.1144L32.3622 46.4081C32.197 46.4669 32.0319 46.5263 31.8674 46.5969H31.8791H31.8785Z" fill="#D3CDD0"/>
<path id="Vector_7" d="M33.776 45.8417L23.7705 13.3267L23.9004 13.2085L24.2307 13.1144L34.2362 45.6294C34.0828 45.7 33.9301 45.7712 33.7767 45.8417H33.776Z" fill="#D3CDD0"/>
<path id="Vector_8" d="M35.7205 44.8632L23.7939 13.315L23.8997 13.221L24.2176 13.1027L36.1324 44.6274C35.9908 44.7097 35.8615 44.7927 35.7199 44.8632H35.7205Z" fill="#D3CDD0"/>
<path id="Vector_9" d="M37.6533 43.6599L23.8057 13.315L23.8879 13.2445L24.2058 13.1027L38.0293 43.4006C37.9111 43.4829 37.7819 43.5776 37.6637 43.6599H37.652H37.6533Z" fill="#D3CDD0"/>
<path id="Vector_10" d="M39.5508 42.2097L23.8291 13.2915L23.8644 13.2562L24.1946 13.0909L39.8805 41.9262C39.7747 42.0203 39.6683 42.115 39.5626 42.2091H39.5508V42.2097Z" fill="#D3CDD0"/>
<path id="Vector_11" d="M41.342 40.5231L23.8408 13.2915L24.1711 13.0909L41.6246 40.2402C41.5306 40.3343 41.4359 40.4408 41.3537 40.5348L41.342 40.5231Z" fill="#D3CDD0"/>
<path id="Vector_12" d="M42.9795 38.6358L23.853 13.2915L24.1474 13.0792L43.2158 38.3412C43.1453 38.4353 43.0624 38.5418 42.9919 38.6358H42.9802H42.9795Z" fill="#D3CDD0"/>
<path id="Vector_13" d="M44.4297 36.5723L23.877 13.3032L24.1361 13.0909L44.6184 36.277C44.5596 36.3711 44.5002 36.4776 44.4415 36.5716H44.4297V36.5723Z" fill="#D3CDD0"/>
<path id="Vector_14" d="M45.6314 34.3787L23.8887 13.3032L24.1008 13.0909L45.7731 34.0952C45.7261 34.1893 45.6791 34.2957 45.6314 34.3898V34.378V34.3787Z" fill="#D3CDD0"/>
<path id="Vector_15" d="M46.5864 32.1139L23.9004 13.2915L24.0773 13.0792L46.681 31.831C46.6458 31.9251 46.6105 32.0198 46.587 32.1139H46.5864Z" fill="#D3CDD0"/>
<path id="Vector_16" d="M47.2815 29.838L23.9238 13.2797L24.0772 13.0792L47.3527 29.5787C47.3292 29.661 47.3057 29.7557 47.2939 29.838H47.2822H47.2815Z" fill="#D3CDD0"/>
<path id="Vector_17" d="M47.7293 27.6209L23.9355 13.2797L24.0537 13.0909L47.7534 27.3851C47.7417 27.4674 47.7299 27.5504 47.7182 27.6209H47.7299H47.7293Z" fill="#D3CDD0"/>
<path id="Vector_18" d="M47.9531 25.4979L23.959 13.2797L24.053 13.1027L47.9649 25.2856C47.9649 25.3562 47.9531 25.4274 47.9531 25.4979Z" fill="#D3CDD0"/>
<path id="Vector_19" d="M47.9883 23.5049L23.9707 13.268L24.0412 13.1144L47.9883 23.3161C47.9883 23.3749 47.9883 23.4343 48.0001 23.5049H47.9883Z" fill="#D3CDD0"/>
<path id="Vector_20" d="M47.8591 21.6647L23.9707 13.2562L24.0177 13.1262L47.8467 21.5112C47.8467 21.5582 47.8584 21.617 47.8702 21.6647H47.8584H47.8591Z" fill="#D3CDD0"/>
<path id="Vector_21" d="M47.6234 19.9787L23.9824 13.2444L24.0177 13.1386L47.611 19.8611C47.6228 19.8964 47.6227 19.9434 47.6345 19.9793H47.6227L47.6234 19.9787Z" fill="#D3CDD0"/>
<path id="Vector_22" d="M47.3048 18.469L23.9941 13.2327L24.0059 13.1497L47.2813 18.3743L47.3048 18.469Z" fill="#D3CDD0"/>
<path id="Vector_23" d="M46.8805 16.9477L23.9941 13.2327L24.0059 13.1504L46.8453 16.8654C46.857 16.9006 46.8688 16.9242 46.8805 16.9594V16.9477Z" fill="#D3CDD0"/>
<path id="Vector_24" d="M46.3152 15.391L23.9941 13.2327L24.0059 13.1497L46.2793 15.2963L46.3152 15.391Z" fill="#D3CDD0"/>
<path id="Vector_25" d="M45.6194 13.8101L23.9941 13.232V13.1497L45.5724 13.7278C45.5842 13.7514 45.5959 13.7866 45.6194 13.8101Z" fill="#D3CDD0"/>
<path id="Vector_26" d="M44.7835 12.2417L24.0068 13.2327V13.1504L44.7365 12.1594C44.7483 12.1829 44.7718 12.2182 44.7835 12.2417Z" fill="#D3CDD0"/>
<path id="Vector_27" d="M43.8047 10.7085L24.0059 13.2327L23.9941 13.1504L43.746 10.638C43.7695 10.6615 43.7812 10.685 43.8047 10.7203V10.7085Z" fill="#D3CDD0"/>
<path id="Vector_28" d="M42.7205 9.25774L24.0059 13.2321L23.9824 13.1497L42.65 9.18719C42.6735 9.21071 42.6853 9.23423 42.7088 9.25774H42.7205Z" fill="#D3CDD0"/>
<path id="Vector_29" d="M41.5423 7.91338L24.0059 13.2327L23.9824 13.1497H23.9942L41.4711 7.84283L41.5423 7.91338Z" fill="#D3CDD0"/>
<path id="Vector_30" d="M40.3047 6.68725L24.0177 13.2209L23.9824 13.1497H23.9942L40.2342 6.62781L40.3047 6.68725Z" fill="#D3CDD0"/>
<path id="Vector_31" d="M39.0553 5.60219L24.0177 13.2209L23.9824 13.1504L23.9942 13.1386L38.973 5.5434C38.9965 5.56691 39.02 5.57867 39.0435 5.60219H39.0553Z" fill="#D3CDD0"/>
<path id="Vector_32" d="M37.8064 4.67004L24.0299 13.2203L23.9829 13.1497L24.0064 13.1262L37.7359 4.59949C37.7594 4.623 37.7829 4.63476 37.8064 4.65828V4.67004Z" fill="#D3CDD0"/>
<path id="Vector_33" d="M36.5925 3.86851L24.0295 13.2209L23.9707 13.1615L24.0177 13.1145L36.5102 3.82147L36.5925 3.86851Z" fill="#D3CDD0"/>
<path id="Vector_34" d="M35.426 3.19633L23.7116 13.492L23.6528 13.4332L26.1633 11.2161L35.3438 3.14929C35.3672 3.16105 35.4025 3.18457 35.426 3.19633Z" fill="#D3CDD0"/>
</g>
<g id="Group_2">
<path id="Vector_35" d="M24.3362 0V34.5674L24.0536 34.815H23.6646V0.0117583C23.8884 0 24.1123 0 24.3362 0Z" fill="#D3CDD0"/>
<path id="Vector_36" d="M22.8982 0.0470366L24.312 34.5903L24.0646 34.8144L23.6873 34.8261L22.2617 0.0823115C22.4739 0.0705532 22.686 0.0470366 22.8982 0.0352783V0.0470366Z" fill="#D3CDD0"/>
<path id="Vector_37" d="M21.3546 0.177002L24.2888 34.6027L24.0649 34.8032L23.6993 34.8385L20.7534 0.25931C20.9538 0.235793 21.1542 0.200519 21.3664 0.177002H21.3546Z" fill="#D3CDD0"/>
<path id="Vector_38" d="M19.704 0.43634L24.2648 34.6262L24.0644 34.8032L23.7106 34.8503L19.127 0.554577C19.3156 0.519302 19.5042 0.472268 19.7046 0.43634H19.704Z" fill="#D3CDD0"/>
<path id="Vector_39" d="M17.9485 0.837424L24.2417 34.6497L24.0649 34.8032L23.7228 34.862L17.4185 0.978523C17.5954 0.93149 17.7723 0.872699 17.9602 0.825012L17.9485 0.836771V0.837424Z" fill="#D3CDD0"/>
<path id="Vector_40" d="M16.1217 1.40314L24.2414 34.6615L24.088 34.8032L23.7577 34.8856L15.6387 1.59192C15.8038 1.53313 15.969 1.47369 16.1335 1.40314H16.1217Z" fill="#D3CDD0"/>
<path id="Vector_41" d="M14.2125 2.15833L24.218 34.6733L24.0881 34.7915L23.7578 34.8856L13.7529 2.37063C13.9063 2.30008 14.0591 2.22887 14.2125 2.15833Z" fill="#D3CDD0"/>
<path id="Vector_42" d="M12.2797 3.13684L24.2063 34.685L24.1005 34.7791L23.7827 34.8973L11.8672 3.37266C12.0088 3.29035 12.1381 3.20739 12.2797 3.13684Z" fill="#D3CDD0"/>
<path id="Vector_43" d="M10.3351 4.35187L24.1828 34.6968L24.1005 34.7673L23.7826 34.9091L9.9585 4.6112C10.0766 4.5289 10.2059 4.43418 10.324 4.35187H10.3358H10.3351Z" fill="#D3CDD0"/>
<path id="Vector_44" d="M8.44992 5.79095L24.171 34.7092L24.1357 34.7445L23.8054 34.9097L8.11963 6.07381L8.43752 5.79095H8.44927H8.44992Z" fill="#D3CDD0"/>
<path id="Vector_45" d="M6.65879 7.47699L24.1593 34.7086L23.829 34.9091L6.37549 7.76049C6.46949 7.66643 6.56414 7.55995 6.64638 7.46588L6.65813 7.47764L6.65879 7.47699Z" fill="#D3CDD0"/>
<path id="Vector_46" d="M5.02031 9.3642L24.1475 34.7086L23.8531 34.9209L4.78467 9.65881C4.85517 9.56474 4.93807 9.45826 5.00856 9.3642H5.02031Z" fill="#D3CDD0"/>
<path id="Vector_47" d="M3.57081 11.4395L24.1236 34.7085L23.8644 34.9208L3.38281 11.7348C3.44156 11.6407 3.50096 11.5342 3.55971 11.4402H3.57146L3.57081 11.4395Z" fill="#D3CDD0"/>
<path id="Vector_48" d="M2.35698 13.6213L24.1004 34.6968L23.8882 34.9091L2.21533 13.9048C2.26233 13.8108 2.30933 13.7043 2.35698 13.6102V13.622V13.6213Z" fill="#D3CDD0"/>
<path id="Vector_49" d="M1.4021 15.8861L24.0881 34.7085L23.9112 34.9208L1.30811 16.169C1.34335 16.0749 1.3786 15.9802 1.4021 15.8861Z" fill="#D3CDD0"/>
<path id="Vector_50" d="M0.718447 18.162L24.0761 34.7203L23.9227 34.9208L0.647949 18.422C0.671449 18.3397 0.694948 18.2449 0.706698 18.1626H0.718447V18.162Z" fill="#D3CDD0"/>
<path id="Vector_51" d="M0.271058 20.3791L24.0648 34.7203L23.9466 34.9091L0.247559 20.6156C0.259308 20.5333 0.271058 20.4503 0.282808 20.3797H0.271058V20.3791Z" fill="#D3CDD0"/>
<path id="Vector_52" d="M0.0469059 22.5021L24.041 34.7203L23.947 34.8973L0.0351562 22.7144C0.0351562 22.6439 0.0469059 22.5727 0.0469059 22.5021Z" fill="#D3CDD0"/>
<path id="Vector_53" d="M0.0117497 24.5069L24.0294 34.7438L23.9589 34.8973L0.0117497 24.6957C0.0117497 24.6369 0.0117497 24.5774 0 24.5069H0.0117497Z" fill="#D3CDD0"/>
<path id="Vector_54" d="M0.129914 26.3471L24.0183 34.7563L23.9713 34.8862L0.141663 26.5006C0.141663 26.4536 0.129914 26.3948 0.118164 26.3471H0.129914Z" fill="#D3CDD0"/>
<path id="Vector_55" d="M0.365754 28.022L24.0067 34.7563L23.9715 34.8621L0.377503 28.1396C0.365754 28.1043 0.365754 28.0573 0.354004 28.0214H0.365754V28.022Z" fill="#D3CDD0"/>
<path id="Vector_56" d="M0.695312 29.5434L24.006 34.7798L23.9942 34.8621L0.718812 29.6375L0.695312 29.5434Z" fill="#D3CDD0"/>
<path id="Vector_57" d="M1.11963 31.0524L24.006 34.7673L23.9943 34.8496L1.15488 31.1353C1.14313 31.1001 1.13138 31.0765 1.11963 31.0413V31.053V31.0524Z" fill="#D3CDD0"/>
<path id="Vector_58" d="M1.68555 32.6215L24.006 34.7673L23.9942 34.8621L1.7208 32.7038L1.68555 32.6215Z" fill="#D3CDD0"/>
<path id="Vector_59" d="M2.38037 34.2017L24.0056 34.7798V34.8621L2.42737 34.284C2.41562 34.2605 2.40387 34.2252 2.38037 34.2017Z" fill="#D3CDD0"/>
<path id="Vector_60" d="M3.21729 35.7701L23.994 34.7791V34.8614L3.26428 35.8524C3.25253 35.8289 3.22903 35.7936 3.21729 35.7701Z" fill="#D3CDD0"/>
<path id="Vector_61" d="M4.19531 37.2915L23.9942 34.7673L24.0059 34.8496L4.25406 37.362C4.23056 37.3385 4.21881 37.315 4.19531 37.2797V37.2915Z" fill="#D3CDD0"/>
<path id="Vector_62" d="M5.2793 38.7423L23.9939 34.768L24.0174 34.8503L5.34979 38.8129C5.3263 38.7893 5.31455 38.7658 5.29105 38.7423H5.2793Z" fill="#D3CDD0"/>
<path id="Vector_63" d="M6.4585 40.0984L23.9825 34.7797L24.006 34.8503V34.862L6.51724 40.1689L6.4585 40.0984Z" fill="#D3CDD0"/>
<path id="Vector_64" d="M7.69531 41.3134L23.9823 34.7797L24.0176 34.8503L24.0058 34.862L7.75471 41.384L7.69531 41.3134Z" fill="#D3CDD0"/>
<path id="Vector_65" d="M8.94482 42.3985L23.9824 34.7797L24.0177 34.8503L24.0059 34.862L9.02707 42.4572C9.00357 42.4337 8.98007 42.422 8.95657 42.3985H8.94482Z" fill="#D3CDD0"/>
<path id="Vector_66" d="M10.1943 43.33L23.9708 34.7797L24.0178 34.8503L23.9943 34.8738L10.2648 43.4005C10.2413 43.377 10.2178 43.3652 10.1943 43.3417V43.33Z" fill="#D3CDD0"/>
<path id="Vector_67" d="M11.4077 44.1315L23.9707 34.7797L24.0177 34.8503L23.9707 34.8855L11.4906 44.1792L11.4077 44.1315Z" fill="#D3CDD0"/>
<path id="Vector_68" d="M12.563 44.8044L24.2774 34.5087L24.3362 34.5675L21.8256 36.7845L12.6452 44.8514C12.6217 44.8396 12.5865 44.8161 12.563 44.8044Z" fill="#D3CDD0"/>
</g>
</g>
</svg>
