<svg width="22" height="22" viewBox="0 0 22 22" fill="none" xmlns="http://www.w3.org/2000/svg">
<g id="Container">
<path id="Icon" d="M11 20.5C16.2467 20.5 20.5 16.2467 20.5 11C20.5 5.75329 16.2467 1.5 11 1.5C5.75329 1.5 1.5 5.75329 1.5 11C1.5 16.2467 5.75329 20.5 11 20.5Z" stroke="#EB52F9" stroke-width="2" stroke-linecap="round" stroke-linejoin="round"/>
<path id="&#194;&#163;" d="M8.16523 16.4304C7.93216 16.4304 7.72949 16.3442 7.55723 16.172C7.38496 15.9997 7.29883 15.797 7.29883 15.564V15.3664C7.29883 15.0522 7.50656 14.7584 7.92203 14.4848C8.48949 14.1098 8.77323 13.4056 8.77323 12.372V11.6424C8.77323 11.5613 8.72763 11.5208 8.63643 11.5208H8.28683C8.08416 11.5208 7.91189 11.4498 7.77003 11.308C7.62816 11.156 7.55723 10.9786 7.55723 10.776C7.55723 10.5733 7.62816 10.401 7.77003 10.2592C7.91189 10.1173 8.08416 10.0464 8.28683 10.0464H8.63643C8.72763 10.0464 8.77323 10.0008 8.77323 9.90957V8.37437C8.77323 7.36104 9.08736 6.57571 9.71563 6.01837C10.354 5.46104 11.266 5.18237 12.4516 5.18237C12.8367 5.18237 13.2167 5.21277 13.5916 5.27357C13.8348 5.31411 14.0324 5.44077 14.1844 5.65357C14.3466 5.86637 14.4276 6.09944 14.4276 6.35277V6.39837C14.4276 6.60104 14.3415 6.76317 14.1692 6.88477C14.0071 7.00637 13.8196 7.04184 13.6068 6.99117C13.3231 6.93037 13.0191 6.89997 12.6948 6.89997C12.0463 6.89997 11.5802 7.03171 11.2964 7.29517C11.0127 7.55864 10.8708 7.98424 10.8708 8.57197V9.90957C10.8708 10.0008 10.9164 10.0464 11.0076 10.0464H12.9532C13.1559 10.0464 13.3282 10.1173 13.47 10.2592C13.6119 10.401 13.6828 10.5733 13.6828 10.776C13.6828 10.9786 13.6119 11.156 13.47 11.308C13.3282 11.4498 13.1559 11.5208 12.9532 11.5208H11.0076C10.9164 11.5208 10.8708 11.5613 10.8708 11.6424V12.372C10.8708 12.9293 10.7746 13.4157 10.582 13.8312C10.3895 14.2365 10.1412 14.5152 9.83723 14.6672V14.6976C9.83723 14.7077 9.8423 14.7128 9.85243 14.7128H13.7892C14.0223 14.7128 14.225 14.7989 14.3972 14.9712C14.5695 15.1333 14.6556 15.3309 14.6556 15.564C14.6556 15.797 14.5695 15.9997 14.3972 16.172C14.225 16.3442 14.0223 16.4304 13.7892 16.4304H8.16523Z" fill="#EB52F9"/>
</g>
</svg>
