<svg width="196" height="48" viewBox="0 0 196 48" fill="none" xmlns="http://www.w3.org/2000/svg">
<g id="Group">
<g id="Group_2">
<path id="Vector" d="M24.0371 48C37.2919 48 48.0371 37.2548 48.0371 24C48.0371 10.7452 37.2919 0 24.0371 0C10.7823 0 0.0371094 10.7452 0.0371094 24C0.0371094 37.2548 10.7823 48 24.0371 48Z" fill="#EB52F9"/>
<path id="Vector_2" d="M24.0372 26.6388C25.4945 26.6388 26.6759 25.4574 26.6759 24.0001C26.6759 22.5427 25.4945 21.3613 24.0372 21.3613C22.5798 21.3613 21.3984 22.5427 21.3984 24.0001C21.3984 25.4574 22.5798 26.6388 24.0372 26.6388Z" stroke="black" stroke-width="1.25"/>
<path id="Vector_3" d="M41.0004 15.2041C41.0004 15.2041 31.0978 18.8682 31.0977 23.7205C31.0977 28.5729 41.0004 32.831 41.0004 32.831" stroke="black" stroke-width="1.25" stroke-linecap="round"/>
<path id="Vector_4" d="M44.6498 23.9299C44.6498 25.387 43.4686 26.5683 42.0114 26.5683C40.5543 26.5683 39.373 25.387 39.373 23.9299C39.373 22.4728 40.5543 21.2915 42.0114 21.2915C43.4686 21.2915 44.6498 22.4728 44.6498 23.9299Z" stroke="black" stroke-width="1.25"/>
<path id="Vector_5" d="M29.8102 5.7832C29.8102 5.7832 25.3989 15.3763 28.83 18.8074C32.2611 22.2387 42.2743 18.2473 42.2743 18.2473" stroke="black" stroke-width="1.25" stroke-linecap="round"/>
<path id="Vector_6" d="M38.5695 9.36875C39.5999 10.3991 39.5999 12.0696 38.5695 13.1C37.5392 14.1304 35.8686 14.1304 34.8383 13.1C33.8079 12.0696 33.8079 10.3991 34.8383 9.36875C35.8686 8.3384 37.5392 8.3384 38.5695 9.36875Z" stroke="black" stroke-width="1.25"/>
<path id="Vector_7" d="M15.2383 7.03564C15.2383 7.03564 18.9023 16.9383 23.7546 16.9384C28.607 16.9384 32.8651 7.03564 32.8651 7.03564" stroke="black" stroke-width="1.25" stroke-linecap="round"/>
<path id="Vector_8" d="M23.9646 3.37996C25.4217 3.37996 26.603 4.56121 26.603 6.01835C26.603 7.47549 25.4217 8.65674 23.9646 8.65674C22.5074 8.65674 21.3262 7.47549 21.3262 6.01835C21.3262 4.56121 22.5074 3.37996 23.9646 3.37996Z" stroke="black" stroke-width="1.25"/>
<path id="Vector_9" d="M5.81836 18.2272C5.81836 18.2272 15.4115 22.6386 18.8425 19.2076C22.2738 15.7765 18.2824 5.76318 18.2824 5.76318" stroke="black" stroke-width="1.25" stroke-linecap="round"/>
<path id="Vector_10" d="M9.4 9.47198C10.4304 8.44162 12.1009 8.44162 13.1312 9.47198C14.1616 10.5023 14.1616 12.1729 13.1312 13.2032C12.1009 14.2336 10.4304 14.2336 9.4 13.2032C8.36965 12.1729 8.36965 10.5023 9.4 9.47198Z" stroke="black" stroke-width="1.25"/>
<path id="Vector_11" d="M7.06641 32.8021C7.06641 32.8021 16.9691 29.1382 16.9691 24.2859C16.9692 19.4335 7.06641 15.1753 7.06641 15.1753" stroke="black" stroke-width="1.25" stroke-linecap="round"/>
<path id="Vector_12" d="M3.41072 24.076C3.41072 22.6188 4.59197 21.4376 6.04911 21.4376C7.50625 21.4376 8.6875 22.6188 8.6875 24.076C8.6875 25.5331 7.50625 26.7144 6.04911 26.7144C4.59197 26.7144 3.41072 25.5331 3.41072 24.076Z" stroke="black" stroke-width="1.25"/>
<path id="Vector_13" d="M18.2609 42.2219C18.2609 42.2219 22.6723 32.6288 19.2412 29.1978C15.8102 25.7667 5.79688 29.7579 5.79688 29.7579" stroke="black" stroke-width="1.25" stroke-linecap="round"/>
<path id="Vector_14" d="M9.5086 38.6366C8.47824 37.6063 8.47824 35.9357 9.5086 34.9054C10.539 33.875 12.2095 33.875 13.2398 34.9054C14.2702 35.9357 14.2702 37.6063 13.2398 38.6366C12.2095 39.667 10.539 39.667 9.5086 38.6366Z" stroke="black" stroke-width="1.25"/>
<path id="Vector_15" d="M32.8339 40.9697C32.8339 40.9697 29.1699 31.0669 24.3175 31.0669C19.4652 31.0669 15.207 40.9697 15.207 40.9697" stroke="black" stroke-width="1.25" stroke-linecap="round"/>
<path id="Vector_16" d="M24.1077 44.6254C22.6506 44.6254 21.4693 43.4442 21.4693 41.987C21.4693 40.5299 22.6506 39.3486 24.1077 39.3486C25.5648 39.3486 26.7461 40.5299 26.7461 41.987C26.7461 43.4442 25.5648 44.6254 24.1077 44.6254Z" stroke="black" stroke-width="1.25"/>
<path id="Vector_17" d="M42.2524 29.7772C42.2524 29.7772 32.6593 25.3657 29.2281 28.7968C25.797 32.2278 29.7882 42.2412 29.7882 42.2412" stroke="black" stroke-width="1.25" stroke-linecap="round"/>
<path id="Vector_18" d="M38.6703 38.5324C37.64 39.5628 35.9694 39.5628 34.9391 38.5324C33.9087 37.5021 33.9087 35.8315 34.9391 34.8012C35.9694 33.7708 37.64 33.7708 38.6703 34.8012C39.7007 35.8315 39.7007 37.5021 38.6703 38.5324Z" stroke="black" stroke-width="1.25"/>
</g>
<g id="Group_3">
<path id="Vector_19" d="M88.7476 25.8419L88.7476 25.8415L87.8766 11.6146L87.8766 11.6144C87.8124 10.5246 87.5242 9.65617 87.016 9.00497C86.5081 8.35432 85.7285 7.86714 84.6713 7.54655L83.5596 7.28076L83.5574 7.28025L83.5574 7.2802C83.4437 7.24766 83.3567 7.21372 83.3016 7.17692L83.2934 7.17145L83.2941 7.17078C83.2516 7.12849 83.2309 7.07512 83.2309 7.01436C83.2309 6.95361 83.2516 6.90024 83.2941 6.85795M88.7476 25.8419L83.3294 6.89338M88.7476 25.8419C88.7961 26.551 88.8363 27.3167 88.8685 28.139L88.8685 28.14C88.9168 28.9452 88.9411 29.9361 88.9411 31.113C88.9411 33.0421 88.5633 34.7031 87.8098 36.0977C87.0562 37.4929 86.0144 38.5585 84.6843 39.2958C83.3538 40.033 81.822 40.4024 80.0872 40.4024C78.0842 40.4024 76.461 39.6982 75.2129 38.2901C73.9668 36.8682 73.3382 34.5522 73.3382 31.3309C73.3382 30.6213 73.3462 29.7426 73.3625 28.6942L73.3125 28.6935L73.3625 28.6942C73.3786 27.6465 73.4188 26.5021 73.4832 25.2607C73.4832 25.2606 73.4832 25.2605 73.4833 25.2604L74.572 8.22801C74.572 8.2279 74.572 8.22778 74.572 8.22767C74.5873 8.03203 74.6685 7.8946 74.814 7.8073L74.8141 7.8074L74.8169 7.8054C74.9696 7.69861 75.211 7.6116 75.5468 7.54757L77.3121 7.28158L77.3121 7.2818L77.3168 7.28064C77.4461 7.24831 77.5424 7.21444 77.5986 7.17692C77.6575 7.1376 77.6935 7.08309 77.6935 7.01436C77.6935 6.94876 77.6607 6.89612 77.6065 6.85727C77.5589 6.79402 77.4752 6.7708 77.3773 6.7708H63.2955C63.206 6.7708 63.129 6.79752 63.0701 6.85458C63.0137 6.89368 62.9793 6.94724 62.9793 7.01436C62.9793 7.08593 63.0223 7.14188 63.087 7.18346C63.1509 7.22454 63.2424 7.25634 63.3577 7.28102L63.3576 7.28109L63.3601 7.28149L65.0049 7.54755C65.3571 7.61162 65.6157 7.69886 65.785 7.8066L65.7849 7.8067L65.7879 7.80832C65.8701 7.85316 65.9269 7.9075 65.9617 7.97018C65.9965 8.03272 66.0114 8.10718 66.004 8.19579L66.0039 8.19685L64.9394 25.4224C64.9394 25.4227 64.9394 25.423 64.9394 25.4232C64.8909 25.9395 64.8345 26.5683 64.7701 27.31L64.77 27.3111C64.7247 28.0036 64.6796 28.6962 64.6345 29.3887L64.6248 29.537L64.6248 29.538C64.5924 30.2644 64.5762 30.8539 64.5762 31.3065C64.5762 33.2352 65.0707 34.9545 66.0603 36.4634L66.0607 36.4639C67.0675 37.9576 68.5923 39.1326 70.6316 39.9904L70.6317 39.9904C72.6883 40.8488 75.3004 41.2767 78.4661 41.2767C81.2132 41.2767 83.4084 40.8081 85.0479 39.8667C86.6853 38.9265 87.8625 37.6605 88.5769 36.0693C89.2898 34.4815 89.6459 32.7243 89.6459 30.7986C89.6459 29.9104 89.6217 29.0385 89.5734 28.1825L89.5234 28.1853M88.7476 25.8419L89.5234 28.1853M83.2941 6.85795L83.3294 6.89338M83.2941 6.85795C83.2941 6.85798 83.294 6.85801 83.294 6.85805L83.3294 6.89338M83.2941 6.85795C83.3535 6.79857 83.4317 6.7708 83.5229 6.7708H92.6446C92.731 6.7708 92.8043 6.79606 92.8497 6.85733M83.3294 6.89338C83.3777 6.845 83.4423 6.8208 83.5229 6.8208H92.6446C92.7252 6.8208 92.7817 6.845 92.814 6.89338M92.8497 6.85733C92.8471 6.85546 92.8444 6.85361 92.8417 6.8518L92.814 6.89338M92.8497 6.85733C92.9039 6.89626 92.9364 6.94891 92.9364 7.01436C92.9364 7.08297 92.9007 7.13753 92.8417 7.17692C92.7866 7.2137 92.6997 7.24763 92.5859 7.28016C92.5858 7.28017 92.5858 7.28019 92.5857 7.28021L91.5944 7.57036C91.5943 7.57038 91.5943 7.5704 91.5942 7.57041C90.635 7.85822 89.8696 8.35306 89.296 9.05424L89.2956 9.05469C88.7237 9.73766 88.469 10.5554 88.5329 11.5114L88.5329 11.5116L89.4038 25.5927C89.4038 25.5928 89.4038 25.5929 89.4038 25.5929C89.4684 26.4643 89.5248 27.3274 89.5734 28.1825L89.5234 28.1853M92.8497 6.85733C92.8517 6.86004 92.8537 6.86282 92.8556 6.86567L92.814 6.89338M92.814 6.89338L89.5234 28.1853" fill="#EB52F9" stroke="#EB52F9" stroke-width="0.1"/>
<path id="Vector_20" d="M101.951 19.0395V39.2184C101.951 39.4604 101.999 39.6539 102.096 39.7991C102.193 39.9442 102.338 40.041 102.531 40.0894L103.668 40.3072C103.846 40.3394 103.935 40.404 103.935 40.5007C103.935 40.6297 103.854 40.6944 103.693 40.6944H92.9014C92.8531 40.6944 92.8046 40.6782 92.7563 40.646C92.7079 40.6136 92.6836 40.5653 92.6836 40.5007C92.6836 40.4685 92.6999 40.4363 92.7321 40.404C92.7804 40.3555 92.8531 40.3233 92.9497 40.3072L94.087 40.0894C94.3129 40.041 94.4661 39.9442 94.5467 39.7991C94.6274 39.6539 94.6677 39.4685 94.6677 39.2426V21.8219C94.6677 21.7089 94.6355 21.6203 94.5708 21.5557C94.5225 21.4913 94.4337 21.4589 94.3047 21.4589H93.0466C92.9498 21.4589 92.8853 21.4428 92.8531 21.4106C92.8209 21.3783 92.8046 21.3298 92.8046 21.2654C92.8046 21.201 92.8209 21.1525 92.8531 21.1202C92.9014 21.088 92.958 21.0639 93.0224 21.0476L101.055 18.8217C101.233 18.7734 101.354 18.741 101.418 18.7248C101.483 18.7088 101.555 18.7007 101.636 18.7007C101.749 18.7007 101.83 18.7329 101.878 18.7975C101.926 18.8619 101.951 18.9427 101.951 19.0395ZM101.346 24.1688L101.055 23.8543L101.975 23.0558C103.62 21.5879 105.072 20.5072 106.33 19.8136C107.588 19.1039 108.733 18.749 109.766 18.749C111.234 18.749 112.371 19.1847 113.177 20.0556C114 20.9266 114.516 22.3059 114.726 24.1931L116.468 39.1701C116.5 39.4282 116.556 39.6378 116.637 39.7991C116.734 39.9442 116.895 40.041 117.121 40.0894L118.161 40.3072C118.258 40.3233 118.323 40.3555 118.355 40.404C118.403 40.4363 118.428 40.4685 118.428 40.5007C118.428 40.5653 118.403 40.6136 118.355 40.646C118.323 40.6782 118.266 40.6944 118.186 40.6944H107.201C107.04 40.6944 106.959 40.6297 106.959 40.5007C106.959 40.4201 107.056 40.3555 107.249 40.3072L108.387 40.0894C108.629 40.041 108.798 39.9362 108.895 39.7749C109.007 39.6136 109.048 39.4119 109.016 39.1701L107.564 24.9672C107.451 23.9189 107.217 23.1526 106.862 22.6687C106.507 22.1849 105.959 21.9429 105.217 21.9429C104.717 21.9429 104.225 22.0719 103.741 22.33C103.257 22.572 102.757 22.9268 102.241 23.3946L101.346 24.1688Z" fill="#EB52F9"/>
<path id="Vector_21" d="M127.216 19.0394V39.2183C127.216 39.4603 127.256 39.6538 127.337 39.7989C127.434 39.9441 127.587 40.0409 127.797 40.0893L128.934 40.3071C129.031 40.3232 129.095 40.3474 129.128 40.3798C129.176 40.412 129.2 40.4523 129.2 40.5006C129.2 40.5652 129.176 40.6135 129.128 40.6459C129.095 40.6781 129.039 40.6942 128.958 40.6942H118.167C118.102 40.6942 118.046 40.6781 117.998 40.6459C117.965 40.6135 117.949 40.5652 117.949 40.5006C117.949 40.4684 117.965 40.4361 117.998 40.4039C118.046 40.3554 118.119 40.3232 118.215 40.3071L119.352 40.0893C119.578 40.0409 119.732 39.9441 119.812 39.7989C119.893 39.6538 119.933 39.4684 119.933 39.2425V21.8218C119.933 21.7088 119.901 21.6202 119.836 21.5556C119.788 21.4912 119.699 21.4588 119.57 21.4588H118.312C118.215 21.4588 118.151 21.4427 118.119 21.4104C118.086 21.3782 118.07 21.3297 118.07 21.2653C118.07 21.2009 118.086 21.1523 118.119 21.1201C118.167 21.0879 118.223 21.0638 118.288 21.0475L126.321 18.8216C126.498 18.7732 126.619 18.7408 126.684 18.7247C126.748 18.7086 126.821 18.7006 126.901 18.7006C127.014 18.7006 127.095 18.7328 127.143 18.7974C127.192 18.8618 127.216 18.9426 127.216 19.0394ZM123.466 16.4988C122.224 16.4988 121.216 16.0955 120.441 15.289C119.667 14.4825 119.28 13.4986 119.28 12.3372C119.28 11.1597 119.667 10.1676 120.441 9.36113C121.232 8.55463 122.24 8.15137 123.466 8.15137C124.724 8.15137 125.748 8.55463 126.539 9.36113C127.345 10.1676 127.748 11.1597 127.748 12.3372C127.748 13.4986 127.345 14.4825 126.539 15.289C125.748 16.0955 124.724 16.4988 123.466 16.4988Z" fill="#EB52F9"/>
<path id="Vector_22" d="M138.372 19.864V34.3797C138.372 35.7461 138.622 36.7577 139.112 37.4227C139.602 38.0706 140.273 38.3945 141.129 38.3945C141.414 38.3945 141.69 38.3471 141.959 38.2522C142.226 38.1578 142.471 38.0083 142.692 37.803L142.693 37.8019L142.693 37.8019C142.929 37.5973 143.135 37.3208 143.31 36.9704L143.31 36.9696C143.502 36.6035 143.653 36.1642 143.766 35.6515L143.766 35.6484L143.766 35.6484C143.784 35.5876 143.81 35.5365 143.848 35.5032C143.888 35.4688 143.937 35.4578 143.989 35.467C144.044 35.468 144.096 35.4853 144.124 35.5345C144.15 35.5804 144.146 35.639 144.129 35.6982C143.87 36.9433 143.49 37.973 142.986 38.7855L142.986 38.7859C142.481 39.5838 141.813 40.1871 140.982 40.5945L140.96 40.5496L140.982 40.5945C140.15 41.002 139.118 41.2044 137.887 41.2044C135.75 41.2044 134.108 40.7109 132.966 39.7161L132.966 39.7159C131.823 38.7033 131.255 37.1549 131.255 35.0813V20.54C131.255 20.398 131.231 20.3067 131.193 20.2553L131.188 20.2481L131.188 20.2478C131.166 20.2039 131.105 20.1602 130.979 20.1288L129.044 19.6935L129.039 19.6924L129.039 19.6921C128.941 19.6594 128.864 19.6255 128.81 19.5894L128.801 19.5839L128.796 19.5756C128.759 19.5208 128.739 19.463 128.739 19.4027C128.739 19.3418 128.76 19.2887 128.802 19.2465L128.809 19.2393L128.81 19.2401C128.861 19.2062 128.911 19.1834 128.959 19.1834H130.991C131.066 19.1834 131.133 19.1761 131.191 19.162C131.248 19.1327 131.314 19.0811 131.391 19.0045L131.395 19.001L131.395 19.0012L137.249 14.2111C137.249 14.211 137.249 14.2109 137.25 14.2108C137.365 14.1119 137.482 14.0367 137.599 13.986M138.372 19.864L137.621 14.0313M138.372 19.864H143.5C143.714 19.864 143.887 19.8232 144.012 19.7346C144.146 19.6505 144.227 19.5488 144.227 19.4269C144.227 19.3437 144.203 19.2684 144.132 19.2384L138.372 19.864ZM137.599 13.986C137.6 13.9858 137.6 13.9856 137.601 13.9854L137.621 14.0313M137.599 13.986C137.599 13.9862 137.599 13.9864 137.598 13.9866L137.621 14.0313M137.599 13.986C137.73 13.9207 137.843 13.8846 137.935 13.8846C138.061 13.8846 138.164 13.9299 138.238 14.0222M137.621 14.0313C137.75 13.9668 137.854 13.9346 137.935 13.9346C138.048 13.9346 138.137 13.9749 138.201 14.0555M138.238 14.0222C138.238 14.0215 138.237 14.0208 138.236 14.0202L138.201 14.0555M138.238 14.0222C138.239 14.0229 138.24 14.0236 138.24 14.0243L138.201 14.0555M138.238 14.0222L138.201 14.0555M138.322 19.1834V19.2334L138.372 19.1834H138.322Z" fill="#EB52F9" stroke="#EB52F9" stroke-width="0.1"/>
<path id="Vector_23" d="M156.285 38.4449V38.1545L155.946 38.4934V21.8709C155.946 21 155.744 20.3306 155.341 19.8629C154.954 19.3789 154.43 19.1369 153.768 19.1369C152.994 19.1369 152.397 19.3467 151.978 19.766C151.575 20.1854 151.373 20.7016 151.373 21.3145V23.5647C151.373 24.5164 151.026 25.331 150.333 26.0084C149.639 26.6859 148.736 27.0247 147.623 27.0247C146.865 27.0247 146.236 26.8069 145.736 26.3714C145.235 25.9359 144.985 25.2665 144.985 24.3632C144.985 23.492 145.348 22.6291 146.074 21.7743C146.8 20.9031 147.881 20.1774 149.317 19.5967C150.768 19.0159 152.55 18.7256 154.664 18.7256C157.535 18.7256 159.68 19.3062 161.1 20.4677C162.535 21.613 163.253 23.2583 163.253 25.4036V37.6464C163.253 38.1304 163.342 38.4853 163.519 38.711C163.713 38.9208 163.939 39.0257 164.197 39.0257C164.471 39.0257 164.721 38.9369 164.947 38.7595C165.173 38.582 165.318 38.2675 165.382 37.8159C165.398 37.7352 165.415 37.6869 165.431 37.6706C165.463 37.6383 165.495 37.6222 165.527 37.6222C165.576 37.6222 165.608 37.6383 165.624 37.6706C165.64 37.6869 165.648 37.7352 165.648 37.8159C165.648 38.1545 165.487 38.59 165.164 39.1223C164.842 39.6385 164.301 40.1064 163.543 40.5258C162.785 40.9451 161.761 41.1547 160.471 41.1547C158.987 41.1547 157.914 40.8966 157.253 40.3806C156.607 39.8483 156.285 39.2031 156.285 38.4449ZM143.703 35.9287C143.703 34.0736 144.469 32.6057 146.002 31.525C147.55 30.4282 150.066 29.8798 153.551 29.8798C154.422 29.8798 155.115 29.9683 155.631 30.1459C156.164 30.3072 156.656 30.5331 157.107 30.8234L156.89 31.0169C156.422 30.7749 155.962 30.5975 155.51 30.4845C155.059 30.3716 154.543 30.3152 153.962 30.3152C152.994 30.3152 152.244 30.7024 151.712 31.4767C151.179 32.2508 150.913 33.3881 150.913 34.8882C150.913 36.3237 151.179 37.3883 151.712 38.0821C152.244 38.7756 152.93 39.1223 153.768 39.1223C154.285 39.1223 154.801 38.9772 155.317 38.6868C155.849 38.3804 156.277 37.9772 156.599 37.4771L156.914 37.6706C156.236 38.7998 155.277 39.6627 154.034 40.2596C152.792 40.8564 151.454 41.1547 150.018 41.1547C148.179 41.1547 146.663 40.6709 145.469 39.7031C144.292 38.7191 143.703 37.461 143.703 35.9287Z" fill="#EB52F9"/>
<path id="Vector_24" d="M175.277 40.5734C176.261 40.5734 177.035 40.3233 177.6 39.8232C178.18 39.3072 178.471 38.6458 178.471 37.8393C178.471 37.2424 178.326 36.702 178.035 36.2182C177.761 35.7342 177.285 35.2827 176.608 34.8633C175.93 34.4278 174.995 34.0163 173.801 33.6293C171.785 32.9519 170.204 32.2178 169.059 31.4274C167.914 30.6209 167.107 29.7258 166.639 28.7417C166.171 27.7417 165.938 26.6207 165.938 25.3785C165.938 23.2334 166.663 21.5879 168.115 20.4428C169.567 19.2813 171.51 18.7007 173.946 18.7007C174.946 18.7007 175.769 18.7975 176.414 18.991C177.059 19.1847 177.551 19.3782 177.89 19.5716C178.245 19.7492 178.471 19.8378 178.567 19.8378C178.745 19.8378 179.068 19.7492 179.535 19.5716C180.019 19.3782 180.495 19.1847 180.963 18.991C181.431 18.7975 181.737 18.7007 181.882 18.7007C181.963 18.7007 182.035 18.7248 182.1 18.7734C182.181 18.8056 182.229 18.8861 182.245 19.0152L183.382 26.3222C183.415 26.4836 183.423 26.6127 183.407 26.7093C183.39 26.79 183.358 26.8464 183.31 26.8788C183.245 26.8949 183.189 26.8949 183.14 26.8788C183.092 26.8464 183.044 26.7981 182.995 26.7335C181.931 24.8301 180.931 23.33 179.995 22.2332C179.076 21.1363 178.148 20.362 177.212 19.9105C176.293 19.4589 175.309 19.233 174.261 19.233C173.196 19.233 172.382 19.5072 171.817 20.0556C171.252 20.5879 170.97 21.2976 170.97 22.1849C170.97 22.8301 171.115 23.4107 171.406 23.927C171.712 24.4432 172.253 24.9189 173.027 25.3544C173.817 25.7898 174.93 26.2094 176.366 26.6127C178.156 27.1287 179.576 27.7659 180.624 28.5241C181.689 29.2821 182.455 30.1452 182.923 31.113C183.39 32.0807 183.624 33.1373 183.624 34.2825C183.624 35.702 183.269 36.9279 182.56 37.9603C181.866 38.9764 180.939 39.7668 179.777 40.3314C178.616 40.8959 177.317 41.1781 175.882 41.1781C174.979 41.1781 174.196 41.0573 173.535 40.8153C172.89 40.5734 172.365 40.3394 171.962 40.1137C171.575 39.8717 171.341 39.7507 171.26 39.7507C171.147 39.7507 170.873 39.8556 170.438 40.0652C170.018 40.275 169.583 40.4846 169.131 40.6944C168.696 40.9202 168.397 41.033 168.236 41.033C168.139 41.033 168.042 40.9847 167.946 40.8878C167.865 40.8073 167.809 40.6621 167.776 40.4524L166.833 34.3068C166.817 34.1131 166.817 33.976 166.833 33.8955C166.849 33.7987 166.889 33.734 166.954 33.7018C167.002 33.6696 167.042 33.6696 167.075 33.7018C167.123 33.734 167.179 33.7906 167.244 33.8711C168.68 36.2746 170.043 37.9925 171.333 39.0249C172.64 40.0572 173.954 40.5734 175.277 40.5734Z" fill="#EB52F9"/>
<path id="Vector_25" d="M190.319 41.2276C189.286 41.2276 188.358 40.9745 187.535 40.4683C186.712 39.941 186.059 39.2449 185.573 38.3801C185.088 37.5153 184.846 36.5661 184.846 35.5325C184.846 34.5201 185.088 33.5918 185.573 32.748C186.059 31.8832 186.712 31.1977 187.535 30.6915C188.379 30.1852 189.307 29.9321 190.319 29.9321C191.374 29.9321 192.313 30.1852 193.135 30.6915C193.979 31.1977 194.644 31.8832 195.129 32.748C195.635 33.5918 195.888 34.5201 195.888 35.5325C195.888 36.5661 195.635 37.5153 195.129 38.3801C194.644 39.2449 193.979 39.941 193.135 40.4683C192.313 40.9745 191.374 41.2276 190.319 41.2276Z" fill="#EB52F9"/>
</g>
</g>
</svg>
