<svg width="238" height="59" viewBox="0 0 238 59" fill="none" xmlns="http://www.w3.org/2000/svg">
<g clip-path="url(#clip0_907_25102)">
<path d="M29.4963 58.4652C45.5666 58.4652 58.5941 45.4377 58.5941 29.3674C58.5941 13.2971 45.5666 0.269531 29.4963 0.269531C13.426 0.269531 0.398438 13.2971 0.398438 29.3674C0.398438 45.4377 13.426 58.4652 29.4963 58.4652Z" fill="#EB52F9"/>
<path d="M29.4961 32.5664C31.263 32.5664 32.6953 31.1341 32.6953 29.3672C32.6953 27.6003 31.263 26.168 29.4961 26.168C27.7292 26.168 26.2969 27.6003 26.2969 29.3672C26.2969 31.1341 27.7292 32.5664 29.4961 32.5664Z" stroke="#15021C" stroke-width="1.5"/>
<path d="M50.0648 18.7031C50.0648 18.7031 38.0588 23.1455 38.0586 29.0285C38.0586 34.9116 50.0648 40.0741 50.0648 40.0741" stroke="#15021C" stroke-width="1.5" stroke-linecap="round"/>
<path d="M54.4874 29.2828C54.4874 31.0494 53.0552 32.4816 51.2886 32.4816C49.5219 32.4816 48.0898 31.0494 48.0898 29.2828C48.0898 27.5161 49.5219 26.084 51.2886 26.084C53.0552 26.084 54.4874 27.5161 54.4874 29.2828Z" stroke="#15021C" stroke-width="1.5"/>
<path d="M36.4952 7.28125C36.4952 7.28125 31.1469 18.912 35.3068 23.0719C39.4666 27.232 51.6068 22.3928 51.6068 22.3928" stroke="#15021C" stroke-width="1.5" stroke-linecap="round"/>
<path d="M47.117 11.6283C48.3663 12.8775 48.3663 14.9029 47.117 16.1521C45.8678 17.4013 43.8425 17.4013 42.5932 16.1521C41.344 14.9029 41.344 12.8775 42.5932 11.6283C43.8425 10.3791 45.8678 10.3791 47.117 11.6283Z" stroke="#15021C" stroke-width="1.5"/>
<path d="M18.8281 8.7998C18.8281 8.7998 23.2704 20.8059 29.1534 20.806C35.0365 20.806 40.199 8.7998 40.199 8.7998" stroke="#15021C" stroke-width="1.5" stroke-linecap="round"/>
<path d="M29.4098 4.36719C31.1764 4.36719 32.6086 5.79934 32.6086 7.566C32.6086 9.33265 31.1764 10.7648 29.4098 10.7648C27.6431 10.7648 26.2109 9.33265 26.2109 7.566C26.2109 5.79934 27.6431 4.36719 29.4098 4.36719Z" stroke="#15021C" stroke-width="1.5"/>
<path d="M7.40625 22.3684C7.40625 22.3684 19.037 27.7168 23.1969 23.5569C27.357 19.3971 22.5178 7.25684 22.5178 7.25684" stroke="#15021C" stroke-width="1.5" stroke-linecap="round"/>
<path d="M11.7494 11.7534C12.9986 10.5041 15.024 10.5041 16.2732 11.7534C17.5224 13.0026 17.5224 15.0279 16.2732 16.2772C15.024 17.5264 12.9986 17.5264 11.7494 16.2772C10.5002 15.0279 10.5002 13.0026 11.7494 11.7534Z" stroke="#15021C" stroke-width="1.5"/>
<path d="M8.92188 40.0398C8.92188 40.0398 20.928 35.5978 20.928 29.7147C20.9281 23.8317 8.92188 18.6689 8.92188 18.6689" stroke="#15021C" stroke-width="1.5" stroke-linecap="round"/>
<path d="M4.49219 29.4595C4.49219 27.6928 5.92434 26.2607 7.691 26.2607C9.45765 26.2607 10.8898 27.6928 10.8898 29.4595C10.8898 31.2261 9.45765 32.6583 7.691 32.6583C5.92434 32.6583 4.49219 31.2261 4.49219 29.4595Z" stroke="#15021C" stroke-width="1.5"/>
<path d="M22.4944 51.4599C22.4944 51.4599 27.8427 39.8291 23.6829 35.6693C19.523 31.5094 7.38281 36.3484 7.38281 36.3484" stroke="#15021C" stroke-width="1.5" stroke-linecap="round"/>
<path d="M11.8823 47.1131C10.633 45.8639 10.633 43.8385 11.8823 42.5893C13.1315 41.34 15.1568 41.34 16.4061 42.5893C17.6553 43.8385 17.6553 45.8639 16.4061 47.1131C15.1568 48.3623 13.1315 48.3623 11.8823 47.1131Z" stroke="#15021C" stroke-width="1.5"/>
<path d="M40.1601 49.9418C40.1601 49.9418 35.7178 37.9355 29.8347 37.9355C23.9517 37.9355 18.7891 49.9418 18.7891 49.9418" stroke="#15021C" stroke-width="1.5" stroke-linecap="round"/>
<path d="M29.5856 54.3732C27.8189 54.3732 26.3867 52.9411 26.3867 51.1744C26.3867 49.4077 27.8189 47.9756 29.5856 47.9756C31.3522 47.9756 32.7844 49.4077 32.7844 51.1744C32.7844 52.9411 31.3522 54.3732 29.5856 54.3732Z" stroke="#15021C" stroke-width="1.5"/>
<path d="M51.5803 36.3714C51.5803 36.3714 39.9495 31.0228 35.7894 35.1827C31.6295 39.3425 36.4685 51.4829 36.4685 51.4829" stroke="#15021C" stroke-width="1.5" stroke-linecap="round"/>
<path d="M47.238 46.9871C45.9888 48.2363 43.9634 48.2363 42.7142 46.9871C41.465 45.7379 41.465 43.7125 42.7142 42.4633C43.9634 41.2141 45.9888 41.2141 47.238 42.4633C48.4872 43.7125 48.4872 45.7379 47.238 46.9871Z" stroke="#15021C" stroke-width="1.5"/>
<path d="M108.015 31.5963L106.959 14.3474C106.881 13.0175 106.529 11.9517 105.903 11.1499C105.277 10.3481 104.319 9.75157 103.029 9.36043L101.679 9.03777C101.542 8.99864 101.444 8.95954 101.386 8.92041C101.347 8.8813 101.327 8.83241 101.327 8.77373C101.327 8.71508 101.347 8.66619 101.386 8.62706C101.444 8.5684 101.523 8.53906 101.62 8.53906H112.68C112.777 8.53906 112.846 8.5684 112.885 8.62706C112.944 8.66619 112.973 8.71508 112.973 8.77373C112.973 8.83241 112.944 8.8813 112.885 8.92041C112.826 8.95954 112.729 8.99864 112.592 9.03777L111.389 9.38977C110.216 9.7418 109.277 10.3481 108.573 11.2085C107.869 12.0495 107.556 13.0566 107.634 14.23L108.69 31.3029C108.768 32.359 108.837 33.4052 108.896 34.4416C108.954 35.4783 108.984 36.5342 108.984 37.6099C108.984 39.9371 108.553 42.059 107.693 43.9754C106.832 45.892 105.414 47.4176 103.439 48.5516C101.464 49.6859 98.8137 50.2532 95.4892 50.2532C91.656 50.2532 88.4977 49.735 86.014 48.6983C83.5499 47.6619 81.7117 46.244 80.499 44.4448C79.3061 42.626 78.7096 40.5532 78.7096 38.2258C78.7096 37.6783 78.7291 36.9646 78.7684 36.0844C78.827 35.1849 78.8856 34.2852 78.9444 33.3857C79.0225 32.486 79.0909 31.7234 79.1497 31.0976L80.4404 10.2111C80.46 9.97647 80.3621 9.80046 80.147 9.68312C79.932 9.54624 79.6093 9.43866 79.179 9.36043L77.1842 9.03777C76.9104 8.97909 76.7734 8.89109 76.7734 8.77373C76.7734 8.71508 76.803 8.66619 76.8616 8.62706C76.9201 8.5684 76.9985 8.53906 77.0961 8.53906H94.1691C94.2863 8.53906 94.3647 8.5684 94.4037 8.62706C94.4623 8.66619 94.4918 8.71508 94.4918 8.77373C94.4918 8.83241 94.4623 8.8813 94.4037 8.92041C94.3451 8.95954 94.2375 8.99864 94.081 9.03777L91.9396 9.36043C91.5288 9.43866 91.2259 9.54624 91.0301 9.68312C90.8346 9.80046 90.7272 9.98624 90.7074 10.2405L89.3874 30.8923C89.3093 32.3981 89.2605 33.7865 89.2409 35.0577C89.2212 36.3289 89.2114 37.3947 89.2114 38.2553C89.2114 42.1664 89.9742 44.9925 91.4995 46.7329C93.0251 48.454 95.01 49.3144 97.4546 49.3144C99.5668 49.3144 101.435 48.8646 103.058 47.9651C104.681 47.0654 105.952 45.7648 106.871 44.0635C107.791 42.3622 108.25 40.3379 108.25 37.9912C108.25 36.5635 108.221 35.3609 108.162 34.383C108.123 33.3857 108.074 32.4567 108.015 31.5963Z" fill="#EB52F9"/>
<path d="M123.962 23.3532V47.8183C123.962 48.1117 124.021 48.3463 124.138 48.5223C124.256 48.6983 124.432 48.8157 124.666 48.8743L126.045 49.1384C126.26 49.1774 126.368 49.2558 126.368 49.3729C126.368 49.5294 126.27 49.6077 126.074 49.6077H112.991C112.933 49.6077 112.874 49.5882 112.815 49.5492C112.757 49.5099 112.727 49.4513 112.727 49.3729C112.727 49.3339 112.747 49.2948 112.786 49.2558C112.844 49.1969 112.933 49.1579 113.05 49.1384L114.429 48.8743C114.702 48.8157 114.888 48.6983 114.986 48.5223C115.084 48.3463 115.133 48.1215 115.133 47.8476V26.7265C115.133 26.5896 115.093 26.4822 115.015 26.4039C114.957 26.3257 114.849 26.2864 114.692 26.2864H113.167C113.05 26.2864 112.972 26.2669 112.933 26.2279C112.893 26.1888 112.874 26.13 112.874 26.0519C112.874 25.9738 112.893 25.9149 112.933 25.8759C112.991 25.8368 113.06 25.8075 113.138 25.7878L122.877 23.0891C123.092 23.0305 123.239 22.9912 123.317 22.9717C123.395 22.9522 123.483 22.9424 123.581 22.9424C123.718 22.9424 123.816 22.9814 123.874 23.0598C123.933 23.1379 123.962 23.2358 123.962 23.3532ZM123.229 29.5719L122.877 29.1907L123.992 28.2226C125.986 26.4429 127.746 25.1326 129.272 24.2917C130.797 23.4313 132.186 23.001 133.437 23.001C135.217 23.001 136.596 23.5292 137.574 24.5851C138.571 25.6411 139.197 27.3133 139.451 29.6015L141.563 47.7597C141.602 48.0726 141.671 48.3267 141.769 48.5223C141.886 48.6983 142.082 48.8157 142.355 48.8743L143.617 49.1384C143.734 49.1579 143.812 49.1969 143.851 49.2558C143.91 49.2948 143.939 49.3339 143.939 49.3729C143.939 49.4513 143.91 49.5099 143.851 49.5492C143.812 49.5882 143.744 49.6077 143.646 49.6077H130.328C130.132 49.6077 130.035 49.5294 130.035 49.3729C130.035 49.2753 130.152 49.1969 130.387 49.1384L131.765 48.8743C132.059 48.8157 132.264 48.6885 132.382 48.493C132.518 48.2975 132.567 48.0529 132.528 47.7597L130.768 30.54C130.631 29.269 130.348 28.34 129.917 27.7532C129.487 27.1666 128.822 26.8732 127.922 26.8732C127.316 26.8732 126.72 27.0297 126.133 27.3426C125.546 27.636 124.94 28.0661 124.314 28.6334L123.229 29.5719Z" fill="#EB52F9"/>
<path d="M154.594 23.3531V47.8182C154.594 48.1116 154.643 48.3462 154.741 48.5222C154.858 48.6982 155.044 48.8156 155.298 48.8742L156.677 49.1383C156.794 49.1578 156.873 49.1871 156.912 49.2264C156.97 49.2655 156.999 49.3143 156.999 49.3729C156.999 49.4512 156.97 49.5098 156.912 49.5491C156.873 49.5881 156.804 49.6077 156.706 49.6077H143.623C143.545 49.6077 143.476 49.5881 143.417 49.5491C143.378 49.5098 143.359 49.4512 143.359 49.3729C143.359 49.3338 143.378 49.2947 143.417 49.2557C143.476 49.1969 143.564 49.1578 143.682 49.1383L145.06 48.8742C145.334 48.8156 145.52 48.6982 145.618 48.5222C145.715 48.3462 145.764 48.1214 145.764 47.8475V26.7265C145.764 26.5895 145.725 26.4821 145.647 26.4038C145.588 26.3257 145.481 26.2864 145.324 26.2864H143.799C143.682 26.2864 143.603 26.2669 143.564 26.2278C143.525 26.1887 143.506 26.1299 143.506 26.0518C143.506 25.9737 143.525 25.9149 143.564 25.8758C143.623 25.8368 143.691 25.8075 143.769 25.7877L153.509 23.089C153.724 23.0304 153.87 22.9911 153.949 22.9716C154.027 22.9521 154.115 22.9423 154.213 22.9423C154.35 22.9423 154.447 22.9814 154.506 23.0597C154.565 23.1378 154.594 23.2357 154.594 23.3531ZM150.047 20.2728C148.541 20.2728 147.319 19.7839 146.38 18.8061C145.442 17.8283 144.972 16.6353 144.972 15.2273C144.972 13.7996 145.442 12.5969 146.38 11.6191C147.339 10.6413 148.561 10.1523 150.047 10.1523C151.573 10.1523 152.814 10.6413 153.773 11.6191C154.751 12.5969 155.24 13.7996 155.24 15.2273C155.24 16.6353 154.751 17.8283 153.773 18.8061C152.814 19.7839 151.573 20.2728 150.047 20.2728Z" fill="#EB52F9"/>
<path d="M168.308 41.9519V24.5424H174.336C174.614 24.5424 174.866 24.4904 175.062 24.3537C175.245 24.2377 175.407 24.0651 175.407 23.823C175.407 23.7029 175.372 23.5182 175.202 23.4319C175.096 23.3541 174.966 23.3384 174.864 23.3384H168.308V17.7214C168.308 17.5029 168.248 17.2992 168.098 17.1438C167.968 16.9879 167.789 16.9141 167.589 16.9141C167.435 16.9141 167.268 16.9723 167.102 17.0546C166.941 17.1246 166.786 17.2259 166.637 17.3537L159.54 23.1603L159.53 23.1681L159.522 23.1768C159.447 23.2515 159.388 23.2972 159.345 23.3229C159.296 23.3327 159.238 23.3384 159.17 23.3384H156.706C156.592 23.3384 156.492 23.3915 156.421 23.439L156.4 23.4529L156.382 23.4707C156.294 23.5591 156.25 23.6723 156.25 23.7937C156.25 23.9116 156.291 24.0176 156.351 24.1083L156.379 24.1497L156.42 24.1773C156.506 24.2352 156.619 24.2827 156.744 24.3242L156.756 24.3282L156.768 24.331L159.112 24.8583C159.174 24.8739 159.211 24.8903 159.232 24.9027C159.238 24.9063 159.242 24.909 159.244 24.9107L159.25 24.9231L159.263 24.9408C159.273 24.9531 159.301 25.0126 159.301 25.1725V42.8026C159.301 45.35 159.999 47.2879 161.439 48.5634L161.441 48.5647C162.871 49.8114 164.914 50.4156 167.531 50.4156C169.043 50.4156 170.325 50.1673 171.366 49.6569C172.406 49.1472 173.242 48.3916 173.873 47.3953L173.874 47.3934C174.499 46.3857 174.966 45.1169 175.283 43.5951C175.307 43.5093 175.326 43.3785 175.257 43.258C175.18 43.123 175.046 43.0863 174.947 43.0814C174.839 43.0661 174.728 43.0912 174.635 43.1703C174.548 43.2452 174.503 43.3478 174.477 43.4382L174.475 43.4457L174.473 43.4533C174.34 44.0628 174.161 44.5787 173.938 45.0043L173.936 45.0083C173.733 45.4159 173.497 45.7297 173.234 45.9581L173.227 45.9636C172.977 46.1959 172.703 46.3631 172.405 46.4684C172.099 46.5764 171.785 46.6302 171.461 46.6302C170.479 46.6302 169.724 46.2628 169.168 45.5278C168.609 44.7689 168.308 43.5907 168.308 41.9519Z" fill="#EB52F9"/>
<path d="M171.366 49.6569C170.325 50.1673 169.043 50.4156 167.531 50.4156C164.914 50.4156 162.871 49.8114 161.441 48.5647L161.439 48.5634C159.999 47.2879 159.301 45.35 159.301 42.8026V25.1725C159.301 25.0126 159.273 24.9531 159.263 24.9408L159.25 24.9231L159.244 24.9107C159.242 24.909 159.238 24.9063 159.232 24.9027C159.211 24.8903 159.174 24.8739 159.112 24.8583L156.768 24.331L156.756 24.3282L156.744 24.3242C156.619 24.2827 156.506 24.2352 156.42 24.1773L156.379 24.1497L156.351 24.1083C156.291 24.0176 156.25 23.9116 156.25 23.7937C156.25 23.6723 156.294 23.5591 156.382 23.4707L156.4 23.4529L156.421 23.439C156.492 23.3915 156.592 23.3384 156.706 23.3384H159.17C159.238 23.3384 159.296 23.3327 159.345 23.3229C159.388 23.2972 159.447 23.2515 159.522 23.1768L159.53 23.1681L159.54 23.1603L166.637 17.3537C166.786 17.2259 166.941 17.1246 167.102 17.0546C167.268 16.9723 167.435 16.9141 167.589 16.9141C167.789 16.9141 167.968 16.9879 168.098 17.1438C168.248 17.2992 168.308 17.5029 168.308 17.7214V23.3384H174.864C174.966 23.3384 175.096 23.3541 175.202 23.4319C175.372 23.5182 175.407 23.7029 175.407 23.823C175.407 24.0651 175.245 24.2377 175.062 24.3537C174.866 24.4904 174.614 24.5424 174.336 24.5424H168.308V41.9519C168.308 43.5907 168.609 44.7689 169.168 45.5278C169.724 46.2628 170.479 46.6302 171.461 46.6302C171.785 46.6302 172.099 46.5764 172.405 46.4684C172.703 46.3631 172.977 46.1959 173.227 45.9636L173.234 45.9581C173.497 45.7297 173.733 45.4159 173.936 45.0083L173.938 45.0043C174.161 44.5787 174.34 44.0628 174.473 43.4533L174.475 43.4457L174.477 43.4382C174.503 43.3478 174.548 43.2452 174.635 43.1703C174.728 43.0912 174.839 43.0661 174.947 43.0814C175.046 43.0863 175.18 43.123 175.257 43.258C175.326 43.3785 175.307 43.5093 175.283 43.5951C174.966 45.1169 174.499 46.3857 173.874 47.3934L173.873 47.3953C173.242 48.3916 172.406 49.1472 171.366 49.6569ZM171.366 49.6569L171.256 49.4324" stroke="#EB52F9" stroke-width="0.5"/>
<path d="M189.84 46.8795V46.5275L189.429 46.9384V26.7851C189.429 25.7292 189.184 24.9176 188.696 24.3505C188.226 23.7638 187.591 23.4704 186.789 23.4704C185.85 23.4704 185.126 23.7247 184.618 24.2331C184.129 24.7416 183.885 25.3674 183.885 26.1105V28.8387C183.885 29.9925 183.464 30.9801 182.623 31.8015C181.782 32.6228 180.687 33.0336 179.338 33.0336C178.418 33.0336 177.656 32.7695 177.05 32.2416C176.443 31.7136 176.14 30.902 176.14 29.8067C176.14 28.7506 176.58 27.7044 177.46 26.668C178.34 25.6118 179.651 24.7318 181.391 24.0279C183.151 23.3237 185.312 22.9717 187.874 22.9717C191.355 22.9717 193.956 23.6756 195.677 25.0838C197.418 26.4724 198.288 28.4672 198.288 31.0682V45.9115C198.288 46.4983 198.395 46.9286 198.611 47.2022C198.845 47.4566 199.119 47.5837 199.432 47.5837C199.765 47.5837 200.068 47.4761 200.341 47.261C200.615 47.0458 200.791 46.6645 200.87 46.117C200.889 46.0191 200.909 45.9605 200.928 45.9408C200.967 45.9017 201.006 45.8822 201.046 45.8822C201.104 45.8822 201.143 45.9017 201.163 45.9408C201.182 45.9605 201.192 46.0191 201.192 46.117C201.192 46.5275 200.997 47.0555 200.606 47.7009C200.214 48.3268 199.559 48.894 198.64 49.4025C197.721 49.9109 196.479 50.165 194.914 50.165C193.115 50.165 191.815 49.8521 191.013 49.2265C190.231 48.5811 189.84 47.7988 189.84 46.8795ZM174.586 43.8289C174.586 41.5798 175.515 39.8001 177.372 38.4898C179.25 37.16 182.301 36.4951 186.525 36.4951C187.581 36.4951 188.422 36.6025 189.047 36.8178C189.693 37.0133 190.289 37.2872 190.837 37.6392L190.573 37.8738C190.006 37.5804 189.449 37.3653 188.901 37.2284C188.353 37.0914 187.727 37.0231 187.023 37.0231C185.85 37.0231 184.941 37.4925 184.295 38.4312C183.65 39.3698 183.327 40.7487 183.327 42.5674C183.327 44.3078 183.65 45.5985 184.295 46.4397C184.941 47.2806 185.772 47.7009 186.789 47.7009C187.415 47.7009 188.04 47.5249 188.666 47.1729C189.312 46.8014 189.83 46.3125 190.221 45.7062L190.602 45.9408C189.781 47.3099 188.617 48.356 187.111 49.0798C185.606 49.8033 183.982 50.165 182.242 50.165C180.012 50.165 178.174 49.5785 176.727 48.4051C175.299 47.212 174.586 45.6867 174.586 43.8289Z" fill="#EB52F9"/>
<path d="M212.862 49.461C214.055 49.461 214.993 49.1579 215.678 48.5516C216.382 47.9259 216.734 47.1241 216.734 46.1463C216.734 45.4225 216.558 44.7674 216.206 44.1808C215.873 43.594 215.297 43.0465 214.475 42.5381C213.654 42.0101 212.52 41.5112 211.072 41.0421C208.628 40.2207 206.711 39.3307 205.323 38.3724C203.934 37.3946 202.957 36.3093 202.389 35.1162C201.822 33.9038 201.539 32.5447 201.539 31.0387C201.539 28.4379 202.419 26.4429 204.179 25.0545C205.939 23.6463 208.295 22.9424 211.248 22.9424C212.461 22.9424 213.458 23.0598 214.24 23.2944C215.023 23.5292 215.619 23.7638 216.03 23.9983C216.46 24.2136 216.734 24.321 216.851 24.321C217.066 24.321 217.458 24.2136 218.025 23.9983C218.611 23.7638 219.188 23.5292 219.755 23.2944C220.323 23.0598 220.694 22.9424 220.87 22.9424C220.968 22.9424 221.056 22.9717 221.134 23.0305C221.232 23.0696 221.291 23.1672 221.31 23.3237L222.689 32.1827C222.728 32.3785 222.738 32.535 222.718 32.6521C222.699 32.75 222.66 32.8184 222.601 32.8576C222.523 32.8772 222.454 32.8772 222.396 32.8576C222.337 32.8184 222.278 32.7598 222.22 32.6814C220.929 30.3738 219.716 28.555 218.582 27.2252C217.467 25.8954 216.343 24.9566 215.208 24.4091C214.094 23.8616 212.901 23.5878 211.63 23.5878C210.339 23.5878 209.351 23.9202 208.667 24.5851C207.982 25.2305 207.64 26.0909 207.64 27.1666C207.64 27.949 207.816 28.6529 208.168 29.2788C208.54 29.9046 209.195 30.4814 210.134 31.0094C211.092 31.5374 212.441 32.046 214.182 32.535C216.353 33.1606 218.074 33.9331 219.345 34.8524C220.636 35.7714 221.564 36.8178 222.132 37.9911C222.699 39.1645 222.982 40.4455 222.982 41.8339C222.982 43.555 222.552 45.0413 221.692 46.293C220.851 47.5249 219.726 48.4832 218.318 49.1676C216.91 49.8521 215.336 50.1943 213.595 50.1943C212.5 50.1943 211.551 50.0478 210.75 49.7544C209.967 49.461 209.332 49.1774 208.843 48.9038C208.374 48.6104 208.09 48.4637 207.992 48.4637C207.855 48.4637 207.523 48.5908 206.995 48.845C206.486 49.0993 205.958 49.3534 205.411 49.6077C204.883 49.8816 204.521 50.0183 204.325 50.0183C204.208 50.0183 204.091 49.9597 203.973 49.8423C203.876 49.7447 203.807 49.5687 203.768 49.3143L202.624 41.8634C202.604 41.6286 202.604 41.4624 202.624 41.3647C202.644 41.2473 202.692 41.169 202.771 41.1299C202.829 41.0909 202.878 41.0909 202.917 41.1299C202.976 41.169 203.044 41.2376 203.123 41.3352C204.863 44.2492 206.516 46.332 208.08 47.5837C209.664 48.8352 211.258 49.461 212.862 49.461Z" fill="#EB52F9"/>
<path d="M231.102 50.2543C229.849 50.2543 228.723 49.9475 227.726 49.3337C226.729 48.6944 225.936 47.8504 225.348 46.8019C224.759 45.7534 224.465 44.6026 224.465 43.3495C224.465 42.122 224.759 40.9966 225.348 39.9736C225.936 38.9251 226.729 38.094 227.726 37.4802C228.749 36.8665 229.874 36.5596 231.102 36.5596C232.38 36.5596 233.519 36.8665 234.516 37.4802C235.539 38.094 236.344 38.9251 236.933 39.9736C237.546 40.9966 237.853 42.122 237.853 43.3495C237.853 44.6026 237.546 45.7534 236.933 46.8019C236.344 47.8504 235.539 48.6944 234.516 49.3337C233.519 49.9475 232.38 50.2543 231.102 50.2543Z" fill="#EB52F9"/>
</g>
<defs>
<clipPath id="clip0_907_25102">
<rect width="238" height="59" fill="white"/>
</clipPath>
</defs>
</svg>
