<svg width="131" height="32" viewBox="0 0 131 32" fill="none" xmlns="http://www.w3.org/2000/svg">
<path d="M16 32C24.8366 32 32 24.8366 32 16C32 7.16344 24.8366 0 16 0C7.16344 0 0 7.16344 0 16C0 24.8366 7.16344 32 16 32Z" fill="#FF3D00"/>
<path d="M15.9994 17.759C16.9709 17.759 17.7585 16.9714 17.7585 15.9999C17.7585 15.0283 16.9709 14.2407 15.9994 14.2407C15.0278 14.2407 14.2402 15.0283 14.2402 15.9999C14.2402 16.9714 15.0278 17.759 15.9994 17.759Z" stroke="black" stroke-width="0.75"/>
<path d="M27.3089 10.1362C27.3089 10.1362 20.7072 12.5789 20.707 15.8138C20.707 19.0487 27.3089 21.8875 27.3089 21.8875" stroke="black" stroke-width="0.75" stroke-linecap="round"/>
<path d="M29.7425 15.9533C29.7425 16.9247 28.955 17.7122 27.9835 17.7122C27.0121 17.7122 26.2246 16.9247 26.2246 15.9533C26.2246 14.9818 27.0121 14.1943 27.9835 14.1943C28.955 14.1943 29.7425 14.9818 29.7425 15.9533Z" stroke="black" stroke-width="0.75"/>
<path d="M19.8488 3.85547C19.8488 3.85547 16.9079 10.2509 19.1953 12.5383C21.4826 14.8258 28.1581 12.1648 28.1581 12.1648" stroke="black" stroke-width="0.75" stroke-linecap="round"/>
<path d="M25.6883 6.246C26.3752 6.9329 26.3752 8.04659 25.6883 8.7335C25.0014 9.4204 23.8877 9.4204 23.2008 8.7335C22.5139 8.04659 22.5139 6.9329 23.2008 6.246C23.8877 5.55909 25.0014 5.55909 25.6883 6.246Z" stroke="black" stroke-width="0.75"/>
<path d="M10.1348 4.69043C10.1348 4.69043 12.5774 11.2922 15.8123 11.2922C19.0472 11.2923 21.886 4.69043 21.886 4.69043" stroke="black" stroke-width="0.75" stroke-linecap="round"/>
<path d="M15.9523 2.25314C16.9237 2.25314 17.7112 3.04064 17.7112 4.01207C17.7112 4.9835 16.9237 5.771 15.9523 5.771C14.9809 5.771 14.1934 4.9835 14.1934 4.01207C14.1934 3.04064 14.9809 2.25314 15.9523 2.25314Z" stroke="black" stroke-width="0.75"/>
<path d="M3.85352 12.1517C3.85352 12.1517 10.2489 15.0926 12.5363 12.8052C14.8238 10.5178 12.1629 3.84229 12.1629 3.84229" stroke="black" stroke-width="0.75" stroke-linecap="round"/>
<path d="M6.24258 6.31465C6.92948 5.62775 8.04317 5.62775 8.73008 6.31465C9.41698 7.00155 9.41698 8.11525 8.73008 8.80215C8.04317 9.48905 6.92948 9.48905 6.24258 8.80215C5.55568 8.11525 5.55568 7.00155 6.24258 6.31465Z" stroke="black" stroke-width="0.75"/>
<path d="M4.68555 21.8679C4.68555 21.8679 11.2873 19.4253 11.2874 16.1904C11.2874 12.9555 4.68555 10.1167 4.68555 10.1167" stroke="black" stroke-width="0.75" stroke-linecap="round"/>
<path d="M2.24973 16.0506C2.24973 15.0792 3.03722 14.2917 4.00865 14.2917C4.98008 14.2917 5.76758 15.0792 5.76758 16.0506C5.76758 17.0221 4.98008 17.8096 4.00865 17.8096C3.03722 17.8096 2.24973 17.0221 2.24973 16.0506Z" stroke="black" stroke-width="0.75"/>
<path d="M12.1492 28.148C12.1492 28.148 15.0901 21.7526 12.8027 19.4652C10.5154 17.1778 3.83984 19.8386 3.83984 19.8386" stroke="black" stroke-width="0.75" stroke-linecap="round"/>
<path d="M6.31367 25.7579C5.62677 25.071 5.62677 23.9573 6.31367 23.2704C7.00058 22.5835 8.11427 22.5835 8.80117 23.2704C9.48808 23.9573 9.48808 25.071 8.80117 25.7579C8.11427 26.4448 7.00058 26.4448 6.31367 25.7579Z" stroke="black" stroke-width="0.75"/>
<path d="M21.8646 27.3133C21.8646 27.3133 19.4219 20.7114 16.187 20.7114C12.9521 20.7114 10.1133 27.3133 10.1133 27.3133" stroke="black" stroke-width="0.75" stroke-linecap="round"/>
<path d="M16.0477 29.7503C15.0763 29.7503 14.2888 28.9628 14.2888 27.9913C14.2888 27.0199 15.0763 26.2324 16.0477 26.2324C17.0191 26.2324 17.8066 27.0199 17.8066 27.9913C17.8066 28.9628 17.0191 29.7503 16.0477 29.7503Z" stroke="black" stroke-width="0.75"/>
<path d="M28.1442 19.8513C28.1442 19.8513 21.7488 16.9103 19.4613 19.1977C17.1739 21.4851 19.8347 28.1607 19.8347 28.1607" stroke="black" stroke-width="0.75" stroke-linecap="round"/>
<path d="M25.7555 25.6883C25.0686 26.3752 23.9549 26.3752 23.268 25.6883C22.5811 25.0014 22.5811 23.8877 23.268 23.2008C23.9549 22.5139 25.0686 22.5139 25.7555 23.2008C26.4424 23.8877 26.4424 25.0014 25.7555 25.6883Z" stroke="black" stroke-width="0.75"/>
<path d="M59.0731 17.2321L59.0731 17.2314L58.4925 7.74679L58.4925 7.74656C58.4502 7.02935 58.261 6.46462 57.9327 6.04401C57.6052 5.62448 57.0996 5.3061 56.4047 5.09508L55.6655 4.91836L55.6612 4.91733L55.6612 4.91724C55.5842 4.89518 55.5178 4.8703 55.472 4.83972L55.4639 4.83431L55.457 4.82744C55.4152 4.78588 55.3952 4.7329 55.3952 4.67591C55.3952 4.61893 55.4152 4.56596 55.457 4.52441M59.0731 17.2321L55.5275 4.59526M59.0731 17.2321C59.1054 17.7041 59.1322 18.214 59.1536 18.7616L59.1538 18.7637C59.1858 19.2987 59.202 19.9579 59.202 20.7417C59.202 22.019 58.9519 23.115 58.4559 24.0331L58.5438 24.0807M59.0731 17.2321L58.5438 24.0807M55.457 4.52441L55.5275 4.59526M55.457 4.52441C55.4569 4.52447 55.4568 4.52453 55.4568 4.52459L55.5275 4.59526M55.457 4.52441C55.5113 4.47015 55.5815 4.44687 55.6565 4.44687H61.7377C61.8046 4.44687 61.8744 4.46605 61.9215 4.52325M55.5275 4.59526C55.5598 4.56301 55.6028 4.54688 55.6565 4.54688H61.7377C61.7914 4.54688 61.8291 4.56301 61.8506 4.59526M61.9215 4.52325C61.9165 4.51935 61.9114 4.51563 61.9061 4.5121L61.8506 4.59526M61.9215 4.52325C61.967 4.55896 61.9989 4.61038 61.9989 4.67591C61.9989 4.7486 61.9597 4.80394 61.9061 4.83972M61.9215 4.52325C61.9258 4.52846 61.9299 4.53398 61.9338 4.53984L61.8506 4.59526M61.8506 4.59526L61.9061 4.83972M58.5438 24.0807L58.4559 24.0331C57.9592 24.9526 57.2736 25.6535 56.3985 26.1385C55.5227 26.6238 54.5129 26.868 53.3661 26.868C52.0486 26.868 50.9851 26.4057 50.1666 25.4824C49.3518 24.5526 48.9334 23.0285 48.9334 20.8869C48.9334 20.4144 48.9387 19.8289 48.9496 19.1302V19.1302C48.9603 18.4328 48.9871 17.6707 49.03 16.844C49.03 16.8438 49.03 16.8436 49.03 16.8434L49.7557 5.49018C49.7557 5.48997 49.7557 5.48976 49.7558 5.48955C49.7646 5.37788 49.809 5.30728 49.8849 5.2617L49.885 5.26191L49.8908 5.25791C49.9809 5.19484 50.1305 5.13913 50.3504 5.09711L51.5259 4.91998L51.526 4.92043L51.5353 4.91811C51.6218 4.89649 51.6961 4.87174 51.744 4.83974L58.5438 24.0807ZM61.9061 4.83972L61.8506 4.75657L61.9061 4.83974L61.9061 4.83972ZM43.9107 5.46013L43.9108 5.45801C43.9149 5.40983 43.9065 5.37381 43.8908 5.34551C43.8749 5.31694 43.8474 5.28891 43.8013 5.26374L43.7954 5.26051L43.7955 5.26032C43.6934 5.19535 43.5311 5.13918 43.2999 5.09708L42.2041 4.91981L42.199 4.919L42.1991 4.91888C42.1192 4.90177 42.0491 4.8785 41.9965 4.84473C41.9425 4.80996 41.8941 4.75452 41.8941 4.67591C41.8941 4.60674 41.9297 4.55348 41.9789 4.51778C42.0322 4.46825 42.0997 4.44687 42.1716 4.44687H51.5595C51.6288 4.44687 51.7081 4.46233 51.7591 4.52301C51.8047 4.5586 51.8369 4.61005 51.8369 4.67591C51.8369 4.74884 51.7974 4.8041 51.744 4.83972L43.9107 5.46013ZM43.9107 5.46013L43.201 16.9433L43.9107 5.46013ZM59.5561 6.07894L59.5569 6.07805L59.5439 17.064L59.6437 17.0578L59.6437 17.0572C59.6437 17.057 59.6436 17.0568 59.6436 17.0566L59.0631 7.66998L59.063 7.66949C59.0215 7.04796 59.1867 6.52007 59.5561 6.07894ZM61.6892 4.8211L61.7167 4.91725C61.7168 4.91721 61.717 4.91718 61.7171 4.91714L61.7173 4.91707L61.6892 4.8211ZM61.0567 5.11044L61.028 5.01465L61.056 5.11063L61.0563 5.11054C61.0564 5.11051 61.0566 5.11047 61.0567 5.11044Z" fill="#FF3D00" stroke="#FF3D00" stroke-width="0.2"/>
<path d="M67.9416 12.6927V26.1453C67.9416 26.3066 67.9738 26.4356 68.0384 26.5324C68.1029 26.6291 68.1997 26.6937 68.3287 26.7259L69.0869 26.8711C69.2052 26.8926 69.2643 26.9357 69.2643 27.0001C69.2643 27.0862 69.2105 27.1292 69.103 27.1292H61.9089C61.8767 27.1292 61.8443 27.1185 61.8121 27.097C61.7799 27.0754 61.7637 27.0432 61.7637 27.0001C61.7637 26.9787 61.7745 26.9572 61.796 26.9357C61.8282 26.9034 61.8767 26.8819 61.9411 26.8711L62.6993 26.7259C62.8499 26.6937 62.952 26.6291 63.0057 26.5324C63.0595 26.4356 63.0864 26.312 63.0864 26.1614V14.5476C63.0864 14.4723 63.0649 14.4132 63.0218 14.3702C62.9896 14.3272 62.9304 14.3056 62.8444 14.3056H62.0057C61.9411 14.3056 61.8982 14.2949 61.8767 14.2734C61.8552 14.2519 61.8443 14.2196 61.8443 14.1766C61.8443 14.1337 61.8552 14.1013 61.8767 14.0798C61.9089 14.0584 61.9466 14.0423 61.9896 14.0314L67.3449 12.5475C67.4631 12.5152 67.5438 12.4936 67.5867 12.4829C67.6298 12.4722 67.6782 12.4668 67.732 12.4668C67.8073 12.4668 67.861 12.4883 67.8933 12.5314C67.9255 12.5743 67.9416 12.6281 67.9416 12.6927ZM67.5384 16.1122L67.3449 15.9025L67.9577 15.3702C69.0546 14.3916 70.0224 13.6711 70.8613 13.2088C71.7 12.7356 72.4634 12.499 73.1517 12.499C74.1303 12.499 74.8884 12.7895 75.4261 13.3701C75.9745 13.9507 76.3186 14.8702 76.4585 16.1284L77.6199 26.1131C77.6413 26.2851 77.6789 26.4249 77.7327 26.5324C77.7973 26.6291 77.9048 26.6937 78.0553 26.7259L78.7489 26.8711C78.8135 26.8819 78.8564 26.9034 78.878 26.9357C78.9102 26.9572 78.9263 26.9787 78.9263 27.0001C78.9263 27.0432 78.9102 27.0754 78.878 27.097C78.8564 27.1185 78.8188 27.1292 78.765 27.1292H71.4419C71.3344 27.1292 71.2806 27.0862 71.2806 27.0001C71.2806 26.9464 71.3451 26.9034 71.4741 26.8711L72.2323 26.7259C72.3936 26.6937 72.5065 26.6238 72.5711 26.5163C72.6463 26.4088 72.6732 26.2743 72.6516 26.1131L71.6839 16.6445C71.6086 15.9456 71.4526 15.4348 71.2162 15.1121C70.9795 14.7896 70.6139 14.6283 70.1192 14.6283C69.7859 14.6283 69.4579 14.7143 69.1352 14.8864C68.8127 15.0477 68.4793 15.2842 68.1352 15.5961L67.5384 16.1122Z" fill="#FF3D00"/>
<path d="M84.7854 12.6928V26.1454C84.7854 26.3067 84.8122 26.4357 84.8659 26.5325C84.9305 26.6292 85.0326 26.6938 85.1725 26.726L85.9305 26.8712C85.9951 26.882 86.0382 26.8981 86.0596 26.9197C86.0919 26.9412 86.108 26.968 86.108 27.0002C86.108 27.0433 86.0919 27.0755 86.0596 27.0971C86.0382 27.1186 86.0005 27.1293 85.9466 27.1293H78.7527C78.7096 27.1293 78.672 27.1186 78.6396 27.0971C78.6182 27.0755 78.6074 27.0433 78.6074 27.0002C78.6074 26.9787 78.6182 26.9573 78.6396 26.9358C78.672 26.9034 78.7203 26.882 78.7849 26.8712L79.5429 26.726C79.6935 26.6938 79.7957 26.6292 79.8495 26.5325C79.9032 26.4357 79.9302 26.3121 79.9302 26.1615V14.5477C79.9302 14.4724 79.9085 14.4133 79.8656 14.3702C79.8334 14.3273 79.7742 14.3057 79.6882 14.3057H78.8494C78.7849 14.3057 78.7418 14.2949 78.7203 14.2735C78.6988 14.252 78.6881 14.2196 78.6881 14.1767C78.6881 14.1337 78.6988 14.1014 78.7203 14.0799C78.7526 14.0584 78.7902 14.0423 78.8332 14.0315L84.1885 12.5475C84.3068 12.5153 84.3874 12.4937 84.4305 12.483C84.4735 12.4723 84.5219 12.4669 84.5756 12.4669C84.6509 12.4669 84.7047 12.4884 84.7369 12.5314C84.7691 12.5744 84.7854 12.6282 84.7854 12.6928ZM82.2852 10.999C81.4572 10.999 80.785 10.7302 80.2688 10.1925C79.7527 9.65483 79.4946 8.99888 79.4946 8.22462C79.4946 7.43962 79.7527 6.77827 80.2688 6.24059C80.7957 5.70292 81.4679 5.43408 82.2852 5.43408C83.1239 5.43408 83.8068 5.70292 84.3337 6.24059C84.8714 6.77827 85.1402 7.43962 85.1402 8.22462C85.1402 8.99888 84.8714 9.65483 84.3337 10.1925C83.8068 10.7302 83.1239 10.999 82.2852 10.999Z" fill="#FF3D00"/>
<path d="M92.2894 22.9196V13.3092H95.6412C95.7905 13.3092 95.9208 13.2811 96.0194 13.2117C96.116 13.1508 96.1929 13.0656 96.1929 12.9511C96.1929 12.8892 96.1748 12.8059 96.0977 12.7682C96.0491 12.7309 95.9862 12.7221 95.9317 12.7221H92.2894V9.59603C92.2894 9.48232 92.2579 9.3803 92.1833 9.30343C92.1197 9.22641 92.0318 9.18955 91.9313 9.18955C91.855 9.18955 91.7692 9.21876 91.6795 9.26333C91.5944 9.30017 91.5118 9.35387 91.4315 9.42255L87.5289 12.6157L87.5286 12.6153L87.5216 12.6223C87.4765 12.6673 87.44 12.6956 87.4117 12.7116C87.3805 12.7183 87.344 12.7221 87.3019 12.7221H85.947C85.8954 12.7221 85.8481 12.7463 85.8109 12.7711L85.8025 12.7767L85.7954 12.7838C85.7544 12.8251 85.734 12.8776 85.734 12.935C85.734 12.9909 85.7531 13.0421 85.7831 13.0872L85.7941 13.1037L85.8106 13.1148C85.854 13.1438 85.9124 13.1687 85.9798 13.1912L85.9796 13.1916L85.9895 13.1939L87.2788 13.4839C87.3574 13.5037 87.3729 13.5263 87.3739 13.5283L87.3779 13.5362L87.3832 13.5433C87.3956 13.5599 87.4116 13.6028 87.4116 13.6932V23.3874C87.4116 24.7815 87.7931 25.8351 88.5745 26.527L88.5751 26.5275C89.3524 27.205 90.4655 27.5361 91.8991 27.5361C92.7267 27.5361 93.4256 27.4001 93.9916 27.1227L93.9476 27.0329L93.9917 27.1227C94.557 26.8455 95.0118 26.4348 95.3547 25.8927L95.3552 25.892C95.696 25.3424 95.952 24.6487 96.1256 23.8144C96.1378 23.7703 96.1459 23.71 96.1152 23.6564C96.0812 23.5969 96.0212 23.58 95.9736 23.578C95.9233 23.5704 95.8722 23.5819 95.8302 23.618C95.7902 23.6524 95.7681 23.7007 95.7548 23.7472L95.7546 23.7471L95.7533 23.7532C95.6794 24.0907 95.5799 24.3778 95.4558 24.6154L95.455 24.617C95.3413 24.8445 95.2088 25.0213 95.0596 25.1508L95.0596 25.1507L95.0571 25.153C94.9159 25.284 94.7609 25.3787 94.5917 25.4384C94.4196 25.4992 94.2427 25.5295 94.0605 25.5295C93.5094 25.5295 93.0828 25.3225 92.7696 24.9084C92.4549 24.4817 92.2894 23.8243 92.2894 22.9196Z" fill="#FF3D00" stroke="#FF3D00" stroke-width="0.2"/>
<path d="M104.165 25.6296V25.436L103.939 25.6619V14.5803C103.939 13.9997 103.805 13.5534 103.536 13.2416C103.278 12.9189 102.928 12.7576 102.487 12.7576C101.971 12.7576 101.573 12.8975 101.294 13.177C101.025 13.4566 100.891 13.8008 100.891 14.2093V15.7095C100.891 16.3439 100.659 16.887 100.197 17.3386C99.7346 17.7903 99.1324 18.0162 98.3904 18.0162C97.885 18.0162 97.4657 17.8709 97.1323 17.5806C96.7989 17.2903 96.6322 16.844 96.6322 16.2418C96.6322 15.661 96.8742 15.0858 97.358 14.5159C97.842 13.9351 98.5625 13.4512 99.5196 13.0642C100.487 12.6769 101.676 12.4834 103.084 12.4834C104.998 12.4834 106.429 12.8705 107.375 13.6448C108.332 14.4084 108.811 15.5052 108.811 16.9354V25.0973C108.811 25.4199 108.87 25.6566 108.988 25.807C109.117 25.9469 109.268 26.0168 109.44 26.0168C109.623 26.0168 109.789 25.9576 109.94 25.8394C110.09 25.721 110.187 25.5113 110.23 25.2103C110.241 25.1565 110.252 25.1242 110.262 25.1134C110.284 25.0919 110.305 25.0812 110.327 25.0812C110.359 25.0812 110.381 25.0919 110.391 25.1134C110.402 25.1242 110.407 25.1565 110.407 25.2103C110.407 25.436 110.3 25.7264 110.085 26.0812C109.87 26.4254 109.51 26.7373 109.004 27.0169C108.499 27.2964 107.816 27.4362 106.956 27.4362C105.966 27.4362 105.251 27.2641 104.81 26.9201C104.38 26.5652 104.165 26.135 104.165 25.6296ZM95.7773 23.9521C95.7773 22.7154 96.2882 21.7368 97.3097 21.0163C98.342 20.2851 100.02 19.9195 102.342 19.9195C102.923 19.9195 103.385 19.9786 103.73 20.0969C104.084 20.2045 104.412 20.355 104.713 20.5486L104.568 20.6776C104.256 20.5163 103.95 20.398 103.649 20.3227C103.348 20.2474 103.004 20.2098 102.617 20.2098C101.971 20.2098 101.471 20.4679 101.116 20.9841C100.762 21.5002 100.584 22.2584 100.584 23.2585C100.584 24.2155 100.762 24.9252 101.116 25.3877C101.471 25.8501 101.928 26.0812 102.487 26.0812C102.832 26.0812 103.176 25.9845 103.52 25.7909C103.875 25.5866 104.16 25.3178 104.375 24.9844L104.584 25.1134C104.133 25.8662 103.493 26.4415 102.665 26.8394C101.837 27.2372 100.944 27.4362 99.9874 27.4362C98.7614 27.4362 97.7506 27.1136 96.9548 26.4684C96.1698 25.8124 95.7773 24.9737 95.7773 23.9521Z" fill="#FF3D00"/>
<path d="M116.826 27.0486C117.482 27.0486 117.998 26.8819 118.374 26.5485C118.762 26.2045 118.955 25.7636 118.955 25.2259C118.955 24.8279 118.858 24.4677 118.665 24.1452C118.482 23.8225 118.165 23.5214 117.713 23.2419C117.261 22.9516 116.638 22.6772 115.842 22.4192C114.498 21.9676 113.444 21.4782 112.68 20.9513C111.917 20.4136 111.379 19.8169 111.067 19.1608C110.756 18.4942 110.6 17.7468 110.6 16.9187C110.6 15.4886 111.083 14.3916 112.051 13.6282C113.019 12.8539 114.315 12.4668 115.939 12.4668C116.605 12.4668 117.154 12.5314 117.584 12.6603C118.014 12.7895 118.342 12.9184 118.568 13.0474C118.805 13.1658 118.955 13.2249 119.02 13.2249C119.138 13.2249 119.353 13.1658 119.665 13.0474C119.987 12.9184 120.305 12.7895 120.616 12.6603C120.928 12.5314 121.133 12.4668 121.229 12.4668C121.283 12.4668 121.332 12.4829 121.375 12.5152C121.428 12.5367 121.461 12.5904 121.471 12.6764L122.23 17.5478C122.251 17.6554 122.256 17.7415 122.246 17.8059C122.235 17.8597 122.213 17.8973 122.181 17.9189C122.138 17.9296 122.101 17.9296 122.068 17.9189C122.036 17.8973 122.004 17.8651 121.971 17.822C121.262 16.5531 120.595 15.553 119.971 14.8218C119.358 14.0906 118.74 13.5744 118.116 13.2733C117.503 12.9723 116.847 12.8217 116.148 12.8217C115.439 12.8217 114.896 13.0045 114.519 13.3701C114.143 13.725 113.955 14.1981 113.955 14.7896C113.955 15.2198 114.051 15.6068 114.245 15.951C114.449 16.2951 114.81 16.6123 115.326 16.9026C115.853 17.1929 116.595 17.4726 117.552 17.7415C118.745 18.0855 119.692 18.5103 120.391 19.0157C121.1 19.5211 121.611 20.0965 121.923 20.7416C122.235 21.3868 122.391 22.0912 122.391 22.8546C122.391 23.801 122.154 24.6183 121.681 25.3066C121.219 25.984 120.6 26.5109 119.826 26.8872C119.052 27.2636 118.186 27.4518 117.229 27.4518C116.627 27.4518 116.105 27.3712 115.664 27.2099C115.234 27.0486 114.885 26.8926 114.616 26.7422C114.358 26.5808 114.202 26.5002 114.148 26.5002C114.073 26.5002 113.89 26.5701 113.6 26.7098C113.32 26.8497 113.03 26.9894 112.729 27.1292C112.438 27.2798 112.239 27.355 112.132 27.355C112.067 27.355 112.003 27.3228 111.938 27.2582C111.885 27.2045 111.847 27.1078 111.825 26.9679L111.196 22.8709C111.186 22.7418 111.186 22.6504 111.196 22.5967C111.207 22.5321 111.234 22.489 111.277 22.4676C111.309 22.4461 111.336 22.4461 111.358 22.4676C111.39 22.489 111.428 22.5267 111.471 22.5804C112.428 24.1827 113.336 25.328 114.197 26.0163C115.068 26.7044 115.944 27.0486 116.826 27.0486Z" fill="#FF3D00"/>
<path d="M126.854 27.4849C126.165 27.4849 125.546 27.3162 124.998 26.9787C124.45 26.6271 124.014 26.1631 123.69 25.5865C123.367 25.01 123.205 24.3772 123.205 23.6882C123.205 23.0132 123.367 22.3943 123.69 21.8319C124.014 21.2553 124.45 20.7983 124.998 20.4608C125.56 20.1233 126.179 19.9546 126.854 19.9546C127.557 19.9546 128.183 20.1233 128.732 20.4608C129.294 20.7983 129.737 21.2553 130.06 21.8319C130.398 22.3943 130.567 23.0132 130.567 23.6882C130.567 24.3772 130.398 25.01 130.06 25.5865C129.737 26.1631 129.294 26.6271 128.732 26.9787C128.183 27.3162 127.557 27.4849 126.854 27.4849Z" fill="#FF3D00"/>
</svg>
