<svg width="22" height="19" viewBox="0 0 22 19" fill="none" xmlns="http://www.w3.org/2000/svg">
<path d="M1 4.19768L9.16492 9.91312C9.82609 10.3759 10.1567 10.6074 10.5163 10.697C10.8339 10.7762 11.1661 10.7762 11.4837 10.697C11.8433 10.6074 12.1739 10.3759 12.8351 9.91312L21 4.19768M5.8 17.1977H16.2C17.8802 17.1977 18.7202 17.1977 19.362 16.8707C19.9265 16.5831 20.3854 16.1241 20.673 15.5596C21 14.9179 21 14.0778 21 12.3977V5.99768C21 4.31752 21 3.47744 20.673 2.83571C20.3854 2.27122 19.9265 1.81228 19.362 1.52466C18.7202 1.19768 17.8802 1.19768 16.2 1.19768H5.8C4.11984 1.19768 3.27976 1.19768 2.63803 1.52466C2.07354 1.81228 1.6146 2.27122 1.32698 2.83571C1 3.47744 1 4.31752 1 5.99768V12.3977C1 14.0778 1 14.9179 1.32698 15.5596C1.6146 16.1241 2.07354 16.5831 2.63803 16.8707C3.27976 17.1977 4.11984 17.1977 5.8 17.1977Z" stroke="#FF958C" stroke-width="2" stroke-linecap="round" stroke-linejoin="round"/>
</svg>
