<svg width="64" height="65" viewBox="0 0 64 65" fill="none" xmlns="http://www.w3.org/2000/svg">
<rect y="0.794922" width="64" height="64" rx="32" fill="#FF958C"/>
<path d="M28 28.7949V24.7949C28 22.5858 26.2091 20.7949 24 20.7949C21.7909 20.7949 20 22.5858 20 24.7949C20 27.0041 21.7909 28.7949 24 28.7949H28ZM28 28.7949V36.7949M28 28.7949H36M28 36.7949V40.7949C28 43.0041 26.2091 44.7949 24 44.7949C21.7909 44.7949 20 43.0041 20 40.7949C20 38.5858 21.7909 36.7949 24 36.7949H28ZM28 36.7949H36M36 36.7949H40C42.2091 36.7949 44 38.5858 44 40.7949C44 43.0041 42.2091 44.7949 40 44.7949C37.7909 44.7949 36 43.0041 36 40.7949V36.7949ZM36 36.7949V28.7949M36 28.7949V24.7949C36 22.5858 37.7909 20.7949 40 20.7949C42.2091 20.7949 44 22.5858 44 24.7949C44 27.0041 42.2091 28.7949 40 28.7949H36Z" stroke="white" stroke-width="3" stroke-linecap="round" stroke-linejoin="round"/>
</svg>
