<svg width="48" height="44" viewBox="0 0 48 44" fill="none" xmlns="http://www.w3.org/2000/svg">
<path d="M45.7836 21.7952C45.7836 32.8409 36.8293 41.7952 25.7836 41.7952C23.25 41.7952 20.8264 41.3241 18.5957 40.4647C18.1879 40.3075 17.9839 40.229 17.8218 40.1916C17.6623 40.1548 17.5468 40.1395 17.3833 40.1332C17.217 40.1269 17.0345 40.1457 16.6696 40.1834L4.62015 41.429C3.47135 41.5477 2.89694 41.6071 2.55811 41.4004C2.26299 41.2204 2.06198 40.9197 2.00847 40.5782C1.94704 40.1861 2.22153 39.678 2.77049 38.6619L6.6191 31.5383C6.93605 30.9516 7.09452 30.6583 7.1663 30.3762C7.23718 30.0977 7.25432 29.8968 7.23165 29.6103C7.20869 29.3202 7.0814 28.9425 6.82681 28.1872C6.15028 26.1801 5.78358 24.0304 5.78358 21.7952C5.78358 10.7495 14.7379 1.79517 25.7836 1.79517C36.8293 1.79517 45.7836 10.7495 45.7836 21.7952Z" stroke="white" stroke-width="3" stroke-linecap="round" stroke-linejoin="round"/>
<path fill-rule="evenodd" clip-rule="evenodd" d="M25.7763 15.7934C23.6594 13.349 20.1292 12.6915 17.4768 14.9298C14.8244 17.1681 14.451 20.9104 16.5339 23.5577C17.8244 25.1977 21.0633 28.1932 23.3411 30.2351C24.1778 30.9851 24.5962 31.3601 25.0982 31.5112C25.5289 31.6409 26.0237 31.6409 26.4544 31.5112C26.9565 31.3601 27.3748 30.9851 28.2115 30.2351C30.4893 28.1932 33.7283 25.1977 35.0188 23.5577C37.1017 20.9104 36.7739 17.1446 34.0759 14.9298C31.3779 12.7151 27.8933 13.349 25.7763 15.7934Z" stroke="white" stroke-width="3" stroke-linecap="round" stroke-linejoin="round"/>
</svg>
