<svg width="43" height="42" viewBox="0 0 43 42" fill="none" xmlns="http://www.w3.org/2000/svg">
<path d="M9.18873 19.4576C9.06442 18.6565 8.99992 17.8357 8.99992 17C8.99992 8.16344 16.2105 1 25.1052 1C33.9999 1 41.2104 8.16344 41.2104 17C41.2104 18.9961 40.8425 20.9069 40.1703 22.669C40.0307 23.035 39.9609 23.218 39.9292 23.3608C39.8978 23.5024 39.8857 23.6019 39.8823 23.7469C39.8788 23.8932 39.8987 24.0543 39.9383 24.3766L40.7435 30.917C40.8307 31.6251 40.8742 31.9791 40.7565 32.2364C40.6533 32.4619 40.47 32.641 40.2422 32.739C39.9822 32.8508 39.6293 32.7991 38.9234 32.6956L32.5529 31.7618C32.2203 31.7131 32.0539 31.6887 31.9025 31.6895C31.7526 31.6904 31.6489 31.7015 31.5023 31.7323C31.3541 31.7635 31.1647 31.8344 30.786 31.9762C29.0193 32.638 27.1048 33 25.1052 33C24.2688 33 23.4473 32.9367 22.6453 32.8146M12.2632 41C18.193 41 23 36.0751 23 30C23 23.9249 18.193 19 12.2632 19C6.33336 19 1.52632 23.9249 1.52632 30C1.52632 31.2212 1.72055 32.3959 2.0791 33.4935C2.23066 33.9574 2.30644 34.1894 2.33131 34.3479C2.35728 34.5133 2.36183 34.6062 2.35216 34.7734C2.3429 34.9336 2.30283 35.1146 2.22269 35.4766L1 41L6.9896 40.182C7.31653 40.1373 7.47999 40.115 7.62274 40.116C7.77304 40.117 7.85281 40.1252 8.00022 40.1545C8.14021 40.1824 8.34832 40.2559 8.76454 40.4028C9.86118 40.7898 11.0382 41 12.2632 41Z" stroke="#7E6739" stroke-width="2" stroke-linecap="round" stroke-linejoin="round"/>
</svg>
