<svg width="44" height="44" viewBox="0 0 44 44" fill="none" xmlns="http://www.w3.org/2000/svg">
<path d="M15.3333 15.1285V8.46183C15.3333 4.77993 12.3486 1.79517 8.66667 1.79517C4.98477 1.79517 2 4.77993 2 8.46183C2 12.1437 4.98477 15.1285 8.66667 15.1285H15.3333ZM15.3333 15.1285V28.4618M15.3333 15.1285H28.6667M15.3333 28.4618V35.1285C15.3333 38.8104 12.3486 41.7952 8.66667 41.7952C4.98477 41.7952 2 38.8104 2 35.1285C2 31.4466 4.98477 28.4618 8.66667 28.4618H15.3333ZM15.3333 28.4618H28.6667M28.6667 28.4618H35.3333C39.0152 28.4618 42 31.4466 42 35.1285C42 38.8104 39.0152 41.7952 35.3333 41.7952C31.6514 41.7952 28.6667 38.8104 28.6667 35.1285V28.4618ZM28.6667 28.4618V15.1285M28.6667 15.1285V8.46183C28.6667 4.77994 31.6514 1.79517 35.3333 1.79517C39.0152 1.79517 42 4.77993 42 8.46183C42 12.1437 39.0152 15.1285 35.3333 15.1285H28.6667Z" stroke="white" stroke-width="3" stroke-linecap="round" stroke-linejoin="round"/>
</svg>
