<svg width="44" height="44" viewBox="0 0 44 44" fill="none" xmlns="http://www.w3.org/2000/svg">
<path d="M10.1887 20.2528C10.0644 19.4516 9.99992 18.6309 9.99992 17.7952C9.99992 8.95861 17.2105 1.79517 26.1052 1.79517C34.9999 1.79517 42.2104 8.95861 42.2104 17.7952C42.2104 19.7913 41.8425 21.7021 41.1703 23.4642C41.0307 23.8301 40.9609 24.0131 40.9292 24.156C40.8978 24.2975 40.8857 24.3971 40.8823 24.5421C40.8788 24.6884 40.8987 24.8495 40.9383 25.1718L41.7435 31.7122C41.8307 32.4202 41.8742 32.7742 41.7565 33.0316C41.6533 33.2571 41.47 33.4362 41.2422 33.5342C40.9822 33.646 40.6293 33.5943 39.9234 33.4908L33.5529 32.557C33.2203 32.5082 33.0539 32.4839 32.9025 32.4847C32.7526 32.4856 32.6489 32.4966 32.5023 32.5275C32.3541 32.5586 32.1647 32.6296 31.786 32.7714C30.0193 33.4331 28.1048 33.7952 26.1052 33.7952C25.2688 33.7952 24.4473 33.7318 23.6453 33.6097M13.2632 41.7952C19.193 41.7952 24 36.8703 24 30.7952C24 24.72 19.193 19.7952 13.2632 19.7952C7.33336 19.7952 2.52632 24.72 2.52632 30.7952C2.52632 32.0163 2.72055 33.1911 3.0791 34.2886C3.23066 34.7526 3.30644 34.9846 3.33131 35.143C3.35728 35.3085 3.36183 35.4014 3.35216 35.5686C3.3429 35.7288 3.30283 35.9098 3.22269 36.2718L2 41.7952L7.9896 40.9772C8.31653 40.9325 8.47999 40.9102 8.62274 40.9112C8.77304 40.9122 8.85281 40.9203 9.00022 40.9497C9.14021 40.9776 9.34832 41.0511 9.76454 41.198C10.8612 41.585 12.0382 41.7952 13.2632 41.7952Z" stroke="white" stroke-width="3" stroke-linecap="round" stroke-linejoin="round"/>
</svg>
