<svg width="28" height="29" viewBox="0 0 28 29" fill="none" xmlns="http://www.w3.org/2000/svg">
<path fill-rule="evenodd" clip-rule="evenodd" d="M14 0.197693C21.732 0.197693 28 6.50401 28 14.2833C28 21.3137 22.8804 27.141 16.1875 28.1977V18.3549H19.4496L20.0703 14.2833H19.9015L19.9295 14.1005H16.1875V11.6422C16.1875 10.5272 16.73 9.44134 18.4691 9.44134H20.2344V5.97497C20.2344 5.97497 20.184 5.96632 20.0925 5.95208V5.9C20.0925 5.9 18.5015 5.62847 16.9804 5.62847C13.8047 5.62847 11.7291 7.55313 11.7291 11.0375V14.1005H8.19907V18.1192H8.25781V18.3549H11.7291V27.8344C11.7569 27.8387 11.7847 27.843 11.8125 27.8471V28.1977C5.11957 27.141 0 21.3137 0 14.2833C0 6.50401 6.26801 0.197693 14 0.197693Z" fill="#F6E27F"/>
</svg>
