<svg width="64" height="64" viewBox="0 0 64 64" fill="none" xmlns="http://www.w3.org/2000/svg">
<rect width="64" height="64" rx="32" fill="#FF958C"/>
<path d="M24.1258 30.9716C24.0429 30.4375 23.9999 29.8903 23.9999 29.3332C23.9999 23.4421 28.807 18.6665 34.7368 18.6665C40.6665 18.6665 45.4736 23.4421 45.4736 29.3332C45.4736 30.6639 45.2283 31.9378 44.7802 33.1125C44.6871 33.3565 44.6406 33.4785 44.6194 33.5737C44.5985 33.6681 44.5904 33.7345 44.5881 33.8311C44.5858 33.9286 44.5991 34.0361 44.6255 34.2509L45.1623 38.6112C45.2204 39.0832 45.2495 39.3192 45.1709 39.4908C45.1021 39.6411 44.98 39.7605 44.8281 39.8258C44.6547 39.9004 44.4195 39.8659 43.9489 39.7969L39.7019 39.1744C39.4802 39.1419 39.3693 39.1256 39.2683 39.1262C39.1684 39.1268 39.0993 39.1341 39.0015 39.1547C38.9027 39.1755 38.7764 39.2228 38.5239 39.3173C37.3462 39.7585 36.0698 39.9998 34.7368 39.9998C34.1792 39.9998 33.6315 39.9576 33.0968 39.8762M26.1754 45.3332C30.1286 45.3332 33.3333 42.0499 33.3333 37.9998C33.3333 33.9497 30.1286 30.6665 26.1754 30.6665C22.2222 30.6665 19.0175 33.9497 19.0175 37.9998C19.0175 38.814 19.147 39.5971 19.386 40.3288C19.4871 40.6381 19.5376 40.7928 19.5542 40.8984C19.5715 41.0087 19.5745 41.0707 19.5681 41.1821C19.5619 41.2889 19.5352 41.4096 19.4818 41.6509L18.6666 45.3332L22.6597 44.7878C22.8776 44.7581 22.9866 44.7432 23.0818 44.7438C23.182 44.7445 23.2352 44.7499 23.3334 44.7695C23.4268 44.7881 23.5655 44.8371 23.843 44.935C24.5741 45.1931 25.3588 45.3332 26.1754 45.3332Z" stroke="white" stroke-width="3" stroke-linecap="round" stroke-linejoin="round"/>
</svg>
