<svg width="22" height="22" viewBox="0 0 22 22" fill="none" xmlns="http://www.w3.org/2000/svg">
<path fill-rule="evenodd" clip-rule="evenodd" d="M5 5.86567C5 6.53085 5.55147 7.06141 6.26515 7.06141C6.97882 7.06141 7.53029 6.53085 7.53029 5.86567C7.53029 5.19257 6.97882 4.66992 6.26515 4.66992C5.55147 4.66992 5 5.19257 5 5.86567ZM5.0811 15.5663C5.0811 16.3185 5.52714 16.7699 6.26515 16.7699C6.99504 16.7699 7.4492 16.3185 7.4492 15.5663V9.15199C7.4492 8.3997 6.99504 7.94041 6.26515 7.94041C5.52714 7.94041 5.0811 8.3997 5.0811 9.15199V15.5663ZM9.03063 15.5663C9.03063 16.3581 9.52534 16.7699 10.2147 16.7699C10.9121 16.7699 11.3987 16.3581 11.3987 15.5663V11.7335C11.3987 10.6328 12.0718 9.87261 13.1342 9.87261C14.1966 9.87261 14.7319 10.5061 14.7319 11.6148V15.5663C14.7319 16.3581 15.2185 16.7699 15.916 16.7699C16.6053 16.7699 17.1 16.3581 17.1 15.5663V11.1317C17.1 9.14407 16.0133 7.95624 14.0831 7.95624C12.745 7.95624 11.8691 8.53432 11.4068 9.58753H11.3582V9.1124C11.3582 8.38386 10.8878 7.94041 10.1741 7.94041C9.46046 7.94041 9.03063 8.38386 9.03063 9.10448V15.5663Z" fill="#FF958C"/>
<path d="M1 17V5C1 2.79086 2.79086 1 5 1H17C19.2091 1 21 2.79086 21 5V17C21 19.2091 19.2091 21 17 21H5C2.79086 21 1 19.2091 1 17Z" stroke="#FF958C" stroke-width="2"/>
</svg>
