<svg width="1440" height="1179" viewBox="0 0 1440 1179" fill="none" xmlns="http://www.w3.org/2000/svg">
<path d="M-52.8859 -14.6959C-58.8997 0.967753 -51.0746 18.5416 -35.4109 24.5554C-19.7473 30.5692 -2.17347 22.7441 3.84035 7.08044C9.85417 -8.58321 2.02902 -26.157 -13.6346 -32.1709C-29.2983 -38.1847 -46.8721 -30.3595 -52.8859 -14.6959Z" fill="#9B7ED4"/>
<path d="M0.571645 32.1634C29.7814 8.50985 38.4321 -32.8409 21.1388 -66.1553C18.9835 -70.3029 13.8769 -71.9232 9.72352 -69.7667C5.56728 -67.6178 3.95521 -62.5011 6.11215 -58.3514C19.7182 -32.1443 12.9091 0.390838 -10.0833 19.0098C-27.2999 32.9514 -50.0235 36.7476 -70.8777 29.1714C-75.2624 27.5732 -80.1238 29.8406 -81.7227 34.2327C-83.32 38.6268 -81.0522 43.4845 -76.6581 45.0818C-50.5679 54.5623 -20.9773 49.6135 0.571645 32.1634Z" fill="#9B7ED4"/>
<path d="M-16.4454 215.322C0.269316 213.861 12.6342 199.124 11.1729 182.409C9.71164 165.695 -5.02541 153.33 -21.7401 154.791C-38.4548 156.252 -50.8197 170.989 -49.3584 187.704C-47.8971 204.419 -33.16 216.784 -16.4454 215.322Z" fill="#02C39A"/>
<path d="M-2.79803 145.971C-39.1033 136.243 -77.6415 153.55 -94.4287 187.122C-96.5173 191.303 -94.8265 196.387 -90.6406 198.48C-86.4591 200.579 -81.372 198.876 -79.2827 194.692C-66.0782 168.28 -35.7544 154.665 -7.17673 162.322C14.2219 168.056 30.6497 184.209 36.7782 205.533C38.0626 210.02 42.7544 212.62 47.2475 211.332C51.7412 210.041 54.3382 205.351 53.0477 200.858C45.3821 174.178 23.9855 153.147 -2.79803 145.971Z" fill="#02C39A"/>
<path d="M48.7987 262.972C42.7848 278.636 50.61 296.21 66.2736 302.223C81.9373 308.237 99.5111 300.412 105.525 284.748C111.539 269.085 103.714 251.511 88.0499 245.497C72.3863 239.483 54.8125 247.308 48.7987 262.972Z" fill="#9B7ED4"/>
<path d="M102.256 309.831C131.466 286.177 140.117 244.827 122.823 211.512C120.668 207.365 115.561 205.744 111.408 207.901C107.252 210.05 105.64 215.166 107.797 219.316C121.403 245.523 114.594 278.058 91.6012 296.677C74.3847 310.619 51.6611 314.415 30.8069 306.839C26.4221 305.241 21.5607 307.508 19.9618 311.9C18.3646 316.294 20.6323 321.152 25.0265 322.749C51.1167 332.23 80.7072 327.281 102.256 309.831Z" fill="#9B7ED4"/>
<path d="M101.054 64.1823C97.8963 64.1823 94.869 65.9553 93.4114 68.9948C90.6005 74.8517 88.5145 81.0481 87.2185 87.4065C86.1495 92.6602 85.6045 98.0602 85.6045 103.45C85.6045 130.834 99.393 155.972 122.485 170.694C129.043 174.874 136.154 178.057 143.619 180.157C148.133 181.423 152.798 178.789 154.067 174.279C155.332 169.767 152.701 165.082 148.198 163.816C142.334 162.168 136.74 159.667 131.585 156.379C113.403 144.791 102.551 125.003 102.551 103.45C102.551 99.1961 102.981 94.9424 103.823 90.8036C104.843 85.811 106.48 80.9411 108.686 76.3401C110.712 72.1152 108.937 67.0468 104.718 65.0179C103.536 64.446 102.285 64.1797 101.054 64.1797V64.1823Z" fill="#F6E27F"/>
<path d="M163.451 29.069C180.166 27.6077 192.531 12.8707 191.069 -3.84399C189.608 -20.5587 174.871 -32.9236 158.156 -31.4623C141.442 -30.001 129.077 -15.2639 130.538 1.45074C131.999 18.1654 146.736 30.5304 163.451 29.069Z" fill="#02C39A"/>
<path d="M142.193 101.559C131.088 93.4264 115.496 95.8372 107.366 106.939C99.233 118.044 101.644 133.636 112.746 141.766C123.85 149.899 139.442 147.488 147.573 136.386C155.705 125.281 153.294 109.689 142.193 101.559Z" fill="#F6E27F"/>
<path d="M177.097 -40.2827C140.792 -50.0106 102.254 -32.7038 85.4669 0.86844C83.3782 5.05005 85.069 10.1338 89.2549 12.2263C93.4364 14.3257 98.5235 12.6224 100.613 8.43824C113.817 -17.9734 144.141 -31.5884 172.719 -23.9311C194.117 -18.1973 210.545 -2.04482 216.674 19.2797C217.958 23.7664 222.65 26.3667 227.143 25.0786C231.637 23.788 234.234 19.0981 232.943 14.6043C225.278 -12.0757 203.881 -33.1061 177.097 -40.2827Z" fill="#02C39A"/>
<path d="M228.694 76.7196C222.68 92.3833 230.506 109.957 246.169 115.971C261.833 121.985 279.407 114.16 285.42 98.496C291.434 82.8323 283.609 65.2585 267.945 59.2447C252.282 53.2309 234.708 61.056 228.694 76.7196Z" fill="#9B7ED4"/>
<path d="M282.152 123.579C311.361 99.9254 320.012 58.5746 302.719 25.2602C300.564 21.1126 295.457 19.4923 291.304 21.6489C287.147 23.7977 285.535 28.9145 287.692 33.0641C301.298 59.2712 294.489 91.8064 271.497 110.425C254.28 124.367 231.557 128.163 210.702 120.587C206.318 118.989 201.456 121.256 199.857 125.648C198.26 130.042 200.528 134.9 204.922 136.497C231.012 145.978 260.603 141.029 282.152 123.579Z" fill="#9B7ED4"/>
<path d="M-39.1974 703.432C-45.2112 719.096 -37.3861 736.67 -21.7225 742.683C-6.05881 748.697 11.515 740.872 17.5288 725.208C23.5426 709.545 15.7175 691.971 0.0538545 685.957C-15.6098 679.943 -33.1836 687.768 -39.1974 703.432Z" fill="#9B7ED4"/>
<path d="M14.2601 750.291C43.4699 726.637 52.1205 685.287 34.8273 651.972C32.672 647.824 27.5653 646.204 23.412 648.361C19.2558 650.51 17.6437 655.626 19.8006 659.776C33.4067 685.983 26.5976 718.518 3.60513 737.137C-13.6114 751.079 -36.335 754.875 -57.1892 747.299C-61.574 745.701 -66.4354 747.968 -68.0342 752.36C-69.6315 756.754 -67.3637 761.612 -62.9696 763.209C-36.8794 772.69 -7.28885 767.741 14.2601 750.291Z" fill="#9B7ED4"/>
<path d="M13.0599 504.639C9.90217 504.639 6.87485 506.412 5.41725 509.451C2.60635 515.308 0.520337 521.504 -0.775597 527.863C-1.84468 533.117 -2.38965 538.517 -2.38965 543.906C-2.38965 571.29 11.3989 596.428 34.491 611.15C41.0489 615.331 48.1596 618.514 55.6249 620.613C60.1385 621.88 64.8034 619.245 66.0732 614.735C67.3379 610.223 64.7069 605.539 60.2037 604.272C54.3394 602.624 48.7463 600.123 43.5913 596.835C25.4091 585.247 14.5566 565.459 14.5566 543.906C14.5566 539.652 14.9868 535.399 15.8291 531.26C16.8486 526.267 18.4861 521.397 20.6921 516.796C22.7181 512.571 20.9424 507.503 16.7234 505.474C15.5422 504.902 14.2906 504.636 13.0599 504.636V504.639Z" fill="#F6E27F"/>
<path d="M75.458 469.526C92.1726 468.065 104.538 453.328 103.076 436.613C101.615 419.898 86.8779 407.533 70.1632 408.995C53.4485 410.456 41.0836 425.193 42.5449 441.908C44.0062 458.622 58.7433 470.987 75.458 469.526Z" fill="#02C39A"/>
<path d="M54.1993 542.016C43.0948 533.883 27.5026 536.294 19.3726 547.396C11.2399 558.5 13.6507 574.092 24.7526 582.222C35.8571 590.355 51.4493 587.944 59.5794 576.842C67.7121 565.738 65.3012 550.146 54.1993 542.016Z" fill="#F6E27F"/>
<path d="M89.1033 400.174C52.7981 390.446 14.2599 407.753 -2.52729 441.325C-4.61596 445.507 -2.92517 450.591 1.26079 452.683C5.44222 454.783 10.5293 453.079 12.6187 448.895C25.8232 422.484 56.147 408.869 84.7246 416.526C106.123 422.26 122.551 438.412 128.68 459.737C129.964 464.223 134.656 466.824 139.149 465.536C143.643 464.245 146.24 459.555 144.949 455.061C137.283 428.381 115.887 407.351 89.1033 400.174Z" fill="#02C39A"/>
<path d="M140.699 517.176C134.685 532.84 142.51 550.414 158.174 556.427C173.838 562.441 191.411 554.616 197.425 538.953C203.439 523.289 195.614 505.715 179.95 499.701C164.287 493.687 146.713 501.513 140.699 517.176Z" fill="#9B7ED4"/>
<path d="M194.157 564.035C223.366 540.381 232.017 499.03 214.724 465.716C212.568 461.568 207.462 459.948 203.308 462.105C199.152 464.254 197.54 469.37 199.697 473.52C213.303 499.727 206.494 532.262 183.502 550.881C166.285 564.823 143.561 568.619 122.707 561.043C118.323 559.445 113.461 561.712 111.862 566.104C110.265 570.498 112.533 575.356 116.927 576.953C143.017 586.434 172.608 581.485 194.157 564.035Z" fill="#9B7ED4"/>
<path d="M192.961 318.387C189.804 318.387 186.776 320.16 185.319 323.199C182.508 329.056 180.422 335.253 179.126 341.611C178.057 346.865 177.512 352.265 177.512 357.654C177.512 385.038 191.3 410.176 214.392 424.898C220.95 429.079 228.061 432.262 235.526 434.361C240.04 435.628 244.705 432.993 245.975 428.484C247.239 423.971 244.608 419.287 240.105 418.02C234.241 416.373 228.648 413.871 223.493 410.584C205.31 398.995 194.458 379.207 194.458 357.654C194.458 353.401 194.888 349.147 195.73 345.008C196.75 340.016 198.387 335.146 200.593 330.545C202.619 326.32 200.844 321.251 196.625 319.222C195.444 318.651 194.192 318.384 192.961 318.384V318.387Z" fill="#F6E27F"/>
<path d="M255.358 283.273C272.073 281.812 284.438 267.075 282.977 250.36C281.515 233.645 266.778 221.281 250.064 222.742C233.349 224.203 220.984 238.94 222.445 255.655C223.907 272.37 238.644 284.734 255.358 283.273Z" fill="#02C39A"/>
<path d="M234.1 355.763C222.995 347.63 207.403 350.041 199.273 361.143C191.14 372.248 193.551 387.84 204.653 395.97C215.757 404.103 231.35 401.692 239.48 390.59C247.612 379.485 245.202 363.893 234.1 355.763Z" fill="#F6E27F"/>
<path d="M269.004 213.922C232.699 204.194 194.16 221.501 177.373 255.073C175.284 259.255 176.975 264.338 181.161 266.431C185.343 268.53 190.43 266.827 192.519 262.643C205.724 236.231 236.047 222.616 264.625 230.274C286.024 236.007 302.451 252.16 308.58 273.484C309.864 277.971 314.556 280.571 319.049 279.283C323.543 277.993 326.14 273.303 324.849 268.809C317.184 242.129 295.787 221.099 269.004 213.922Z" fill="#02C39A"/>
<path d="M320.6 330.924C314.587 346.587 322.412 364.161 338.075 370.175C353.739 376.189 371.313 368.364 377.327 352.7C383.34 337.036 375.515 319.463 359.852 313.449C344.188 307.435 326.614 315.26 320.6 330.924Z" fill="#9B7ED4"/>
<path d="M374.058 377.783C403.268 354.129 411.918 312.779 394.625 279.464C392.47 275.317 387.363 273.696 383.21 275.853C379.054 278.002 377.442 283.119 379.598 287.268C393.205 313.475 386.395 346.01 363.403 364.629C346.186 378.571 323.463 382.367 302.609 374.791C298.224 373.193 293.362 375.46 291.764 379.852C290.166 384.246 292.434 389.104 296.828 390.701C322.918 400.182 352.509 395.233 374.058 377.783Z" fill="#9B7ED4"/>
<path d="M372.859 132.134C369.701 132.134 366.674 133.907 365.216 136.947C362.405 142.804 360.319 149 359.023 155.359C357.954 160.612 357.409 166.012 357.409 171.402C357.409 198.786 371.198 223.924 394.29 238.646C400.848 242.827 407.958 246.01 415.424 248.109C419.937 249.375 424.602 246.741 425.872 242.231C427.137 237.719 424.506 233.034 420.003 231.768C414.138 230.12 408.545 227.619 403.39 224.331C385.208 212.743 374.355 192.955 374.355 171.402C374.355 167.148 374.786 162.895 375.628 158.756C376.647 153.763 378.285 148.893 380.491 144.292C382.517 140.067 380.741 134.999 376.522 132.97C375.341 132.398 374.089 132.132 372.859 132.132V132.134Z" fill="#F6E27F"/>
<path d="M435.255 97.0212C451.97 95.5599 464.334 80.8228 462.873 64.1082C461.412 47.3935 446.675 35.0286 429.96 36.4899C413.245 37.9512 400.88 52.6882 402.342 69.4029C403.803 86.1176 418.54 98.4825 435.255 97.0212Z" fill="#02C39A"/>
<path d="M413.996 169.51C402.892 161.378 387.3 163.788 379.169 174.89C371.037 185.995 373.448 201.587 384.549 209.717C395.654 217.85 411.246 215.439 419.376 204.337C427.509 193.233 425.098 177.64 413.996 169.51Z" fill="#F6E27F"/>
<path d="M448.901 27.6695C412.596 17.9415 374.058 35.2483 357.271 68.8206C355.182 73.0022 356.873 78.0859 361.059 80.1785C365.24 82.2779 370.327 80.5745 372.417 76.3904C385.621 49.9787 415.945 36.3637 444.522 44.0211C465.921 49.7548 482.349 65.9073 488.477 87.2319C489.762 91.7186 494.454 94.3188 498.947 93.0308C503.44 91.7402 506.037 87.0502 504.747 82.5565C497.081 55.8765 475.685 34.8461 448.901 27.6695Z" fill="#02C39A"/>
<path d="M500.498 144.671C494.484 160.335 502.309 177.909 517.973 183.923C533.637 189.936 551.21 182.111 557.224 166.448C563.238 150.784 555.413 133.21 539.749 127.196C524.086 121.183 506.512 129.008 500.498 144.671Z" fill="#9B7ED4"/>
<path d="M553.955 191.531C583.165 167.877 591.816 126.526 574.523 93.2119C572.367 89.0642 567.261 87.444 563.107 89.6005C558.951 91.7494 557.339 96.8661 559.496 101.016C573.102 127.223 566.293 159.758 543.3 178.377C526.084 192.319 503.36 196.115 482.506 188.539C478.121 186.94 473.26 189.208 471.661 193.6C470.064 197.994 472.332 202.852 476.726 204.449C502.816 213.929 532.406 208.981 553.955 191.531Z" fill="#9B7ED4"/>
<path d="M399.479 1179.68C416.194 1178.22 428.559 1163.48 427.098 1146.77C425.636 1130.05 410.899 1117.69 394.185 1119.15C377.47 1120.61 365.105 1135.35 366.566 1152.06C368.028 1168.78 382.765 1181.14 399.479 1179.68Z" fill="#02C39A"/>
<path d="M413.126 1110.33C376.821 1100.6 338.282 1117.91 321.495 1151.48C319.407 1155.66 321.097 1160.75 325.283 1162.84C329.465 1164.94 334.552 1163.24 336.641 1159.05C349.846 1132.64 380.169 1119.02 408.747 1126.68C430.146 1132.42 446.574 1148.57 452.702 1169.89C453.986 1174.38 458.678 1176.98 463.171 1175.69C467.665 1174.4 470.262 1169.71 468.971 1165.22C461.306 1138.54 439.909 1117.51 413.126 1110.33Z" fill="#02C39A"/>
<path d="M518.179 1274.19C547.389 1250.54 556.039 1209.19 538.746 1175.87C536.591 1171.72 531.484 1170.1 527.331 1172.26C523.175 1174.41 521.563 1179.53 523.72 1183.68C537.326 1209.88 530.517 1242.42 507.524 1261.04C490.308 1274.98 467.584 1278.78 446.73 1271.2C442.345 1269.6 437.484 1271.87 435.885 1276.26C434.287 1280.65 436.555 1285.51 440.949 1287.11C467.04 1296.59 496.63 1291.64 518.179 1274.19Z" fill="#9B7ED4"/>
<path d="M511.605 1028.54C508.447 1028.54 505.42 1030.31 503.962 1033.35C501.151 1039.21 499.065 1045.41 497.769 1051.77C496.7 1057.02 496.155 1062.42 496.155 1067.81C496.155 1095.19 509.944 1120.33 533.036 1135.05C539.594 1139.23 546.705 1142.42 554.17 1144.52C558.683 1145.78 563.348 1143.15 564.618 1138.64C565.883 1134.13 563.252 1129.44 558.749 1128.18C552.884 1126.53 547.291 1124.03 542.136 1120.74C523.954 1109.15 513.102 1089.36 513.102 1067.81C513.102 1063.56 513.532 1059.3 514.374 1055.16C515.394 1050.17 517.031 1045.3 519.237 1040.7C521.263 1036.47 519.487 1031.41 515.268 1029.38C514.087 1028.81 512.836 1028.54 511.605 1028.54V1028.54Z" fill="#F6E27F"/>
<path d="M574.001 993.429C590.716 991.968 603.081 977.231 601.619 960.516C600.158 943.801 585.421 931.436 568.706 932.898C551.992 934.359 539.627 949.096 541.088 965.811C542.549 982.525 557.286 994.89 574.001 993.429Z" fill="#02C39A"/>
<path d="M552.743 1065.92C541.639 1057.79 526.047 1060.2 517.917 1071.3C509.784 1082.4 512.195 1098 523.297 1106.13C534.401 1114.26 549.993 1111.85 558.123 1100.75C566.256 1089.64 563.845 1074.05 552.743 1065.92Z" fill="#F6E27F"/>
<path d="M587.647 924.077C551.342 914.349 512.804 931.656 496.017 965.229C493.928 969.41 495.619 974.494 499.805 976.586C503.986 978.686 509.073 976.982 511.163 972.798C524.367 946.387 554.691 932.772 583.269 940.429C604.667 946.163 621.095 962.315 627.224 983.64C628.508 988.127 633.2 990.727 637.693 989.439C642.187 988.148 644.784 983.458 643.493 978.964C635.827 952.284 614.431 931.254 587.647 924.077Z" fill="#02C39A"/>
<path d="M639.244 1041.08C633.23 1056.74 641.055 1074.32 656.719 1080.33C672.383 1086.34 689.956 1078.52 695.97 1062.86C701.984 1047.19 694.159 1029.62 678.495 1023.6C662.832 1017.59 645.258 1025.42 639.244 1041.08Z" fill="#9B7ED4"/>
<path d="M692.702 1087.94C721.911 1064.28 730.562 1022.93 713.269 989.619C711.113 985.472 706.007 983.851 701.853 986.008C697.697 988.157 696.085 993.274 698.242 997.423C711.848 1023.63 705.039 1056.17 682.047 1074.78C664.83 1088.73 642.106 1092.52 621.252 1084.95C616.867 1083.35 612.006 1085.62 610.407 1090.01C608.81 1094.4 611.078 1099.26 615.472 1100.86C641.562 1110.34 671.153 1105.39 692.702 1087.94Z" fill="#9B7ED4"/>
<path d="M691.503 842.288C688.346 842.288 685.318 844.061 683.861 847.1C681.05 852.957 678.964 859.154 677.668 865.512C676.599 870.766 676.054 876.166 676.054 881.555C676.054 908.939 689.842 934.077 712.934 948.799C719.492 952.98 726.603 956.163 734.068 958.262C738.582 959.529 743.247 956.894 744.517 952.384C745.781 947.872 743.15 943.188 738.647 941.921C732.783 940.274 727.19 937.772 722.035 934.485C703.852 922.896 693 903.108 693 881.555C693 877.302 693.43 873.048 694.272 868.909C695.292 863.916 696.929 859.047 699.135 854.446C701.161 850.221 699.386 845.152 695.167 843.123C693.986 842.551 692.734 842.285 691.503 842.285V842.288Z" fill="#F6E27F"/>
<path d="M753.899 807.175C770.614 805.713 782.979 790.976 781.518 774.261C780.056 757.547 765.319 745.182 748.605 746.643C731.89 748.104 719.525 762.842 720.986 779.556C722.448 796.271 737.185 808.636 753.899 807.175Z" fill="#02C39A"/>
<path d="M732.642 879.664C721.537 871.532 705.945 873.942 697.815 885.044C689.682 896.149 692.093 911.741 703.195 919.871C714.299 928.004 729.892 925.593 738.022 914.491C746.154 903.387 743.744 887.794 732.642 879.664Z" fill="#F6E27F"/>
<path d="M767.546 737.823C731.24 728.095 692.702 745.402 675.915 778.974C673.826 783.156 675.517 788.239 679.703 790.332C683.885 792.431 688.972 790.728 691.061 786.544C704.266 760.132 734.589 746.517 763.167 754.175C784.566 759.908 800.993 776.061 807.122 797.385C808.406 801.872 813.098 804.472 817.591 803.184C822.085 801.894 824.682 797.204 823.391 792.71C815.726 766.03 794.329 745 767.546 737.823Z" fill="#02C39A"/>
<path d="M819.142 854.826C813.129 870.489 820.954 888.063 836.617 894.077C852.281 900.091 869.855 892.266 875.869 876.602C881.882 860.938 874.057 843.364 858.394 837.351C842.73 831.337 825.156 839.162 819.142 854.826Z" fill="#9B7ED4"/>
<path d="M872.6 901.684C901.81 878.03 910.46 836.68 893.167 803.365C891.012 799.218 885.905 797.597 881.752 799.754C877.596 801.903 875.984 807.019 878.14 811.169C891.747 837.376 884.937 869.911 861.945 888.53C844.728 902.472 822.005 906.268 801.151 898.692C796.766 897.094 791.904 899.361 790.306 903.753C788.708 908.147 790.976 913.005 795.37 914.602C821.46 924.083 851.051 919.134 872.6 901.684Z" fill="#9B7ED4"/>
<path d="M871.401 656.035C868.243 656.035 865.216 657.808 863.758 660.847C860.947 666.704 858.861 672.901 857.565 679.259C856.496 684.513 855.951 689.913 855.951 695.302C855.951 722.686 869.74 747.824 892.832 762.546C899.39 766.727 906.5 769.91 913.966 772.009C918.479 773.276 923.144 770.641 924.414 766.132C925.679 761.619 923.048 756.935 918.545 755.668C912.68 754.021 907.087 751.519 901.932 748.232C883.75 736.643 872.897 716.855 872.897 695.302C872.897 691.049 873.328 686.795 874.17 682.656C875.189 677.664 876.827 672.794 879.033 668.193C881.059 663.968 879.283 658.899 875.064 656.87C873.883 656.299 872.631 656.032 871.401 656.032V656.035Z" fill="#F6E27F"/>
<path d="M933.798 620.922C950.513 619.461 962.878 604.723 961.417 588.009C959.955 571.294 945.218 558.929 928.504 560.39C911.789 561.852 899.424 576.589 900.885 593.304C902.347 610.018 917.084 622.383 933.798 620.922Z" fill="#02C39A"/>
<path d="M912.539 693.411C901.435 685.279 885.842 687.69 877.712 698.791C869.58 709.896 871.991 725.488 883.092 733.618C894.197 741.751 909.789 739.34 917.919 728.238C926.052 717.134 923.641 701.541 912.539 693.411Z" fill="#F6E27F"/>
<path d="M947.444 551.57C911.139 541.842 872.601 559.149 855.814 592.721C853.725 596.903 855.416 601.987 859.602 604.079C863.783 606.179 868.87 604.475 870.959 600.291C884.164 573.88 914.488 560.265 943.065 567.922C964.464 573.656 980.892 589.808 987.02 611.133C988.305 615.619 992.997 618.22 997.49 616.932C1001.98 615.641 1004.58 610.951 1003.29 606.457C995.624 579.777 974.228 558.747 947.444 551.57Z" fill="#02C39A"/>
<path d="M999.039 668.572C993.026 684.236 1000.85 701.81 1016.51 707.824C1032.18 713.838 1049.75 706.012 1055.77 690.349C1061.78 674.685 1053.95 657.111 1038.29 651.097C1022.63 645.084 1005.05 652.909 999.039 668.572Z" fill="#9B7ED4"/>
<path d="M1052.5 715.431C1081.71 691.777 1090.36 650.426 1073.06 617.112C1070.91 612.964 1065.8 611.344 1061.65 613.5C1057.49 615.649 1055.88 620.766 1058.04 624.916C1071.64 651.123 1064.83 683.658 1041.84 702.277C1024.63 716.218 1001.9 720.015 981.048 712.438C976.663 710.84 971.801 713.108 970.203 717.5C968.605 721.894 970.873 726.752 975.267 728.349C1001.36 737.829 1030.95 732.881 1052.5 715.431Z" fill="#9B7ED4"/>
<path d="M1051.3 469.781C1048.14 469.781 1045.11 471.554 1043.66 474.594C1040.85 480.451 1038.76 486.647 1037.46 493.006C1036.39 498.259 1035.85 503.659 1035.85 509.049C1035.85 536.433 1049.64 561.571 1072.73 576.293C1079.29 580.473 1086.4 583.657 1093.86 585.756C1098.38 587.022 1103.04 584.388 1104.31 579.878C1105.58 575.366 1102.95 570.681 1098.44 569.415C1092.58 567.767 1086.99 565.266 1081.83 561.978C1063.65 550.39 1052.8 530.602 1052.8 509.049C1052.8 504.795 1053.23 500.542 1054.07 496.403C1055.09 491.41 1056.72 486.54 1058.93 481.939C1060.96 477.714 1059.18 472.646 1054.96 470.617C1053.78 470.045 1052.53 469.779 1051.3 469.779V469.781Z" fill="#F6E27F"/>
<path d="M1113.7 434.668C1130.41 433.207 1142.78 418.47 1141.31 401.755C1139.85 385.04 1125.12 372.676 1108.4 374.137C1091.69 375.598 1079.32 390.335 1080.78 407.05C1082.24 423.765 1096.98 436.129 1113.7 434.668Z" fill="#02C39A"/>
<path d="M1092.44 507.158C1081.33 499.025 1065.74 501.436 1057.61 512.538C1049.48 523.642 1051.89 539.234 1062.99 547.365C1074.1 555.497 1089.69 553.086 1097.82 541.984C1105.95 530.88 1103.54 515.288 1092.44 507.158Z" fill="#F6E27F"/>
<path d="M1127.34 365.317C1091.04 355.589 1052.5 372.896 1035.71 406.468C1033.62 410.65 1035.31 415.733 1039.5 417.826C1043.68 419.925 1048.77 418.222 1050.86 414.038C1064.06 387.626 1094.39 374.011 1122.96 381.669C1144.36 387.402 1160.79 403.555 1166.92 424.879C1168.2 429.366 1172.89 431.966 1177.39 430.678C1181.88 429.388 1184.48 424.698 1183.19 420.204C1175.52 393.524 1154.13 372.494 1127.34 365.317Z" fill="#02C39A"/>
<path d="M1178.94 482.319C1172.92 497.983 1180.75 515.557 1196.41 521.571C1212.08 527.585 1229.65 519.759 1235.66 504.096C1241.68 488.432 1233.85 470.858 1218.19 464.845C1202.53 458.831 1184.95 466.656 1178.94 482.319Z" fill="#9B7ED4"/>
<path d="M1232.4 529.177C1261.61 505.524 1270.26 464.173 1252.96 430.859C1250.81 426.711 1245.7 425.091 1241.55 427.247C1237.39 429.396 1235.78 434.513 1237.94 438.663C1251.54 464.87 1244.73 497.405 1221.74 516.024C1204.52 529.965 1181.8 533.761 1160.95 526.185C1156.56 524.587 1151.7 526.854 1150.1 531.247C1148.5 535.641 1150.77 540.498 1155.17 542.096C1181.26 551.576 1210.85 546.627 1232.4 529.177Z" fill="#9B7ED4"/>
<path d="M1225.82 270.329C1222.66 270.329 1219.64 272.102 1218.18 275.142C1215.37 280.999 1213.28 287.195 1211.99 293.553C1210.92 298.807 1210.37 304.207 1210.37 309.597C1210.37 336.981 1224.16 362.119 1247.25 376.841C1253.81 381.021 1260.92 384.204 1268.39 386.304C1272.9 387.57 1277.56 384.936 1278.83 380.426C1280.1 375.914 1277.47 371.229 1272.96 369.963C1267.1 368.315 1261.51 365.814 1256.35 362.526C1238.17 350.938 1227.32 331.15 1227.32 309.597C1227.32 305.343 1227.75 301.089 1228.59 296.951C1229.61 291.958 1231.25 287.088 1233.45 282.487C1235.48 278.262 1233.7 273.194 1229.48 271.165C1228.3 270.593 1227.05 270.327 1225.82 270.327V270.329Z" fill="#F6E27F"/>
<path d="M1288.22 235.216C1304.93 233.755 1317.3 219.018 1315.84 202.303C1314.38 185.588 1299.64 173.223 1282.92 174.685C1266.21 176.146 1253.84 190.883 1255.31 207.598C1256.77 224.312 1271.5 236.677 1288.22 235.216Z" fill="#02C39A"/>
<path d="M1266.96 307.706C1255.86 299.573 1240.26 301.984 1232.13 313.086C1224 324.19 1226.41 339.782 1237.51 347.912C1248.62 356.045 1264.21 353.634 1272.34 342.532C1280.47 331.428 1278.06 315.836 1266.96 307.706Z" fill="#F6E27F"/>
<path d="M1301.86 165.865C1265.56 156.137 1227.02 173.444 1210.23 207.016C1208.15 211.198 1209.84 216.281 1214.02 218.374C1218.2 220.473 1223.29 218.77 1225.38 214.586C1238.58 188.174 1268.91 174.559 1297.49 182.216C1318.88 187.95 1335.31 204.103 1341.44 225.427C1342.73 229.914 1347.42 232.514 1351.91 231.226C1356.4 229.935 1359 225.246 1357.71 220.752C1350.04 194.072 1328.65 173.041 1301.86 165.865Z" fill="#02C39A"/>
<path d="M1353.46 282.867C1347.45 298.531 1355.27 316.105 1370.94 322.118C1386.6 328.132 1404.17 320.307 1410.19 304.643C1416.2 288.98 1408.38 271.406 1392.71 265.392C1377.05 259.378 1359.47 267.203 1353.46 282.867Z" fill="#9B7ED4"/>
<path d="M1406.92 329.725C1436.13 306.072 1444.78 264.721 1427.49 231.407C1425.33 227.259 1420.22 225.639 1416.07 227.795C1411.91 229.944 1410.3 235.061 1412.46 239.211C1426.06 265.418 1419.26 297.953 1396.26 316.572C1379.05 330.513 1356.32 334.31 1335.47 326.733C1331.08 325.135 1326.22 327.403 1324.62 331.795C1323.03 336.189 1325.29 341.047 1329.69 342.644C1355.78 352.124 1385.37 347.175 1406.92 329.725Z" fill="#9B7ED4"/>
<path d="M1405.72 84.0763C1402.56 84.0763 1399.53 85.8494 1398.07 88.8888C1395.26 94.7458 1393.18 100.942 1391.88 107.3C1390.81 112.554 1390.27 117.954 1390.27 123.344C1390.27 150.728 1404.06 175.866 1427.15 190.588C1433.71 194.768 1440.82 197.951 1448.28 200.051C1452.8 201.317 1457.46 198.683 1458.73 194.173C1460 189.661 1457.36 184.976 1452.86 183.71C1447 182.062 1441.4 179.561 1436.25 176.273C1418.07 164.685 1407.21 144.897 1407.21 123.344C1407.21 119.09 1407.64 114.836 1408.49 110.698C1409.51 105.705 1411.14 100.835 1413.35 96.2342C1415.38 92.0092 1413.6 86.9408 1409.38 84.9119C1408.2 84.3401 1406.95 84.0737 1405.72 84.0737V84.0763Z" fill="#F6E27F"/>
<path d="M1468.11 48.9636C1484.83 47.5023 1497.19 32.7652 1495.73 16.0505C1494.27 -0.664136 1479.53 -13.0291 1462.82 -11.5678C1446.11 -10.1065 1433.74 4.63059 1435.2 21.3453C1436.66 38.06 1451.4 50.4249 1468.11 48.9636Z" fill="#02C39A"/>
<path d="M1446.86 121.453C1435.75 113.32 1420.16 115.731 1412.03 126.833C1403.9 137.937 1406.31 153.529 1417.41 161.659C1428.51 169.792 1444.11 167.381 1452.24 156.279C1460.37 145.175 1457.96 129.583 1446.86 121.453Z" fill="#F6E27F"/>
<path d="M1481.76 -20.3881C1445.46 -30.1161 1406.92 -12.8093 1390.13 20.763C1388.04 24.9446 1389.73 30.0283 1393.92 32.1208C1398.1 34.2203 1403.19 32.5169 1405.28 28.3328C1418.48 1.9211 1448.8 -11.6939 1477.38 -4.03654C1498.78 1.69721 1515.21 17.8497 1521.34 39.1743C1522.62 43.661 1527.31 46.2612 1531.81 44.9731C1536.3 43.6825 1538.9 38.9926 1537.61 34.4988C1529.94 7.81887 1508.54 -13.2115 1481.76 -20.3881Z" fill="#02C39A"/>
<path d="M699.147 1238.83C715.862 1237.37 728.227 1222.63 726.766 1205.92C725.304 1189.2 710.567 1176.84 693.853 1178.3C677.138 1179.76 664.773 1194.5 666.234 1211.21C667.696 1227.93 682.433 1240.29 699.147 1238.83Z" fill="#02C39A"/>
<path d="M712.793 1169.48C676.488 1159.75 637.949 1177.06 621.162 1210.63C619.073 1214.81 620.764 1219.9 624.95 1221.99C629.132 1224.09 634.219 1222.39 636.308 1218.2C649.513 1191.79 679.836 1178.17 708.414 1185.83C729.813 1191.57 746.241 1207.72 752.369 1229.04C753.653 1233.53 758.345 1236.13 762.838 1234.84C767.332 1233.55 769.929 1228.86 768.638 1224.37C760.973 1197.69 739.576 1176.66 712.793 1169.48Z" fill="#02C39A"/>
<path d="M816.649 1087.69C813.491 1087.69 810.464 1089.47 809.006 1092.51C806.195 1098.36 804.109 1104.56 802.813 1110.92C801.744 1116.17 801.199 1121.57 801.199 1126.96C801.199 1154.34 814.988 1179.48 838.08 1194.2C844.638 1198.38 851.748 1201.57 859.214 1203.67C863.727 1204.93 868.392 1202.3 869.662 1197.79C870.927 1193.28 868.296 1188.59 863.793 1187.33C857.928 1185.68 852.335 1183.18 847.18 1179.89C828.998 1168.3 818.145 1148.51 818.145 1126.96C818.145 1122.71 818.576 1118.45 819.418 1114.31C820.437 1109.32 822.075 1104.45 824.281 1099.85C826.307 1095.63 824.531 1090.56 820.312 1088.53C819.131 1087.96 817.879 1087.69 816.649 1087.69V1087.69Z" fill="#F6E27F"/>
<path d="M879.046 1052.58C895.761 1051.12 908.125 1036.38 906.664 1019.67C905.203 1002.95 890.466 990.587 873.751 992.048C857.036 993.509 844.672 1008.25 846.133 1024.96C847.594 1041.68 862.331 1054.04 879.046 1052.58Z" fill="#02C39A"/>
<path d="M857.787 1125.07C846.683 1116.94 831.091 1119.35 822.96 1130.45C814.828 1141.55 817.239 1157.15 828.34 1165.28C839.445 1173.41 855.037 1171 863.167 1159.9C871.3 1148.79 868.889 1133.2 857.787 1125.07Z" fill="#F6E27F"/>
<path d="M892.691 983.228C856.386 973.5 817.848 990.807 801.061 1024.38C798.972 1028.56 800.663 1033.64 804.849 1035.74C809.03 1037.84 814.117 1036.13 816.207 1031.95C829.411 1005.54 859.735 991.922 888.313 999.58C909.711 1005.31 926.139 1021.47 932.267 1042.79C933.552 1047.28 938.244 1049.88 942.737 1048.59C947.23 1047.3 949.828 1042.61 948.537 1038.12C940.871 1011.44 919.475 990.405 892.691 983.228Z" fill="#02C39A"/>
<path d="M944.287 1100.23C938.273 1115.89 946.098 1133.47 961.762 1139.48C977.426 1145.5 994.999 1137.67 1001.01 1122.01C1007.03 1106.34 999.202 1088.77 983.538 1082.76C967.875 1076.74 950.301 1084.57 944.287 1100.23Z" fill="#9B7ED4"/>
<path d="M997.744 1147.09C1026.95 1123.44 1035.6 1082.08 1018.31 1048.77C1016.16 1044.62 1011.05 1043 1006.9 1045.16C1002.74 1047.31 1001.13 1052.42 1003.28 1056.57C1016.89 1082.78 1010.08 1115.32 987.09 1133.94C969.873 1147.88 947.149 1151.67 926.295 1144.1C921.91 1142.5 917.049 1144.77 915.45 1149.16C913.853 1153.55 916.121 1158.41 920.515 1160.01C946.605 1169.49 976.196 1164.54 997.744 1147.09Z" fill="#9B7ED4"/>
<path d="M996.547 901.44C993.389 901.44 990.362 903.213 988.904 906.252C986.093 912.109 984.007 918.305 982.711 924.664C981.642 929.918 981.097 935.318 981.097 940.707C981.097 968.091 994.886 993.229 1017.98 1007.95C1024.54 1012.13 1031.65 1015.31 1039.11 1017.41C1043.63 1018.68 1048.29 1016.05 1049.56 1011.54C1050.82 1007.02 1048.19 1002.34 1043.69 1001.07C1037.83 999.425 1032.23 996.924 1027.08 993.636C1008.9 982.048 998.043 962.26 998.043 940.707C998.043 936.453 998.474 932.2 999.316 928.061C1000.34 923.068 1001.97 918.198 1004.18 913.597C1006.2 909.372 1004.43 904.304 1000.21 902.275C999.029 901.703 997.777 901.437 996.547 901.437V901.44Z" fill="#F6E27F"/>
<path d="M1058.94 866.327C1075.66 864.865 1088.02 850.128 1086.56 833.414C1085.1 816.699 1070.36 804.334 1053.65 805.795C1036.93 807.257 1024.57 821.994 1026.03 838.708C1027.49 855.423 1042.23 867.788 1058.94 866.327Z" fill="#02C39A"/>
<path d="M1037.69 938.816C1026.58 930.683 1010.99 933.094 1002.86 944.196C994.727 955.3 997.138 970.893 1008.24 979.023C1019.34 987.155 1034.94 984.745 1043.07 973.643C1051.2 962.538 1048.79 946.946 1037.69 938.816Z" fill="#F6E27F"/>
<path d="M1072.59 796.975C1036.28 787.247 997.747 804.554 980.96 838.126C978.871 842.308 980.562 847.391 984.748 849.484C988.929 851.583 994.016 849.88 996.105 845.696C1009.31 819.284 1039.63 805.669 1068.21 813.326C1089.61 819.06 1106.04 835.213 1112.17 856.537C1113.45 861.024 1118.14 863.624 1122.64 862.336C1127.13 861.046 1129.73 856.356 1128.44 851.862C1120.77 825.182 1099.37 804.152 1072.59 796.975Z" fill="#02C39A"/>
<path d="M1124.18 913.977C1118.17 929.641 1126 947.215 1141.66 953.228C1157.32 959.242 1174.9 951.417 1180.91 935.754C1186.92 920.09 1179.1 902.516 1163.44 896.502C1147.77 890.488 1130.2 898.314 1124.18 913.977Z" fill="#9B7ED4"/>
<path d="M1177.64 960.835C1206.85 937.181 1215.5 895.831 1198.21 862.516C1196.05 858.369 1190.95 856.748 1186.79 858.905C1182.64 861.054 1181.03 866.171 1183.18 870.32C1196.79 896.527 1189.98 929.062 1166.99 947.681C1149.77 961.623 1127.05 965.419 1106.19 957.843C1101.81 956.245 1096.95 958.512 1095.35 962.904C1093.75 967.298 1096.02 972.156 1100.41 973.753C1126.5 983.234 1156.09 978.285 1177.64 960.835Z" fill="#9B7ED4"/>
<path d="M1176.45 715.185C1173.29 715.185 1170.26 716.958 1168.8 719.998C1165.99 725.855 1163.91 732.051 1162.61 738.41C1161.54 743.663 1161 749.063 1161 754.453C1161 781.837 1174.78 806.975 1197.88 821.697C1204.43 825.878 1211.54 829.061 1219.01 831.16C1223.52 832.426 1228.19 829.792 1229.46 825.282C1230.72 820.77 1228.09 816.085 1223.59 814.819C1217.72 813.171 1212.13 810.67 1206.98 807.382C1188.79 795.794 1177.94 776.006 1177.94 754.453C1177.94 750.199 1178.37 745.946 1179.21 741.807C1180.23 736.814 1181.87 731.944 1184.08 727.343C1186.1 723.118 1184.33 718.05 1180.11 716.021C1178.93 715.449 1177.68 715.183 1176.45 715.183V715.185Z" fill="#F6E27F"/>
<path d="M1238.84 680.073C1255.56 678.611 1267.92 663.874 1266.46 647.16C1265 630.445 1250.26 618.08 1233.55 619.541C1216.83 621.003 1204.47 635.74 1205.93 652.454C1207.39 669.169 1222.13 681.534 1238.84 680.073Z" fill="#02C39A"/>
<path d="M1217.58 752.562C1206.48 744.429 1190.89 746.84 1182.76 757.942C1174.63 769.047 1177.04 784.639 1188.14 792.769C1199.24 800.902 1214.83 798.491 1222.96 787.389C1231.1 776.284 1228.69 760.692 1217.58 752.562Z" fill="#F6E27F"/>
<path d="M1252.49 610.721C1216.18 600.993 1177.65 618.3 1160.86 651.872C1158.77 656.054 1160.46 661.137 1164.65 663.23C1168.83 665.329 1173.92 663.626 1176 659.442C1189.21 633.03 1219.53 619.415 1248.11 627.073C1269.51 632.806 1285.94 648.959 1292.07 670.283C1293.35 674.77 1298.04 677.37 1302.54 676.082C1307.03 674.792 1309.63 670.102 1308.34 665.608C1300.67 638.928 1279.27 617.898 1252.49 610.721Z" fill="#02C39A"/>
<path d="M1304.08 727.723C1298.07 743.386 1305.9 760.96 1321.56 766.974C1337.22 772.988 1354.8 765.163 1360.81 749.499C1366.82 733.835 1359 716.262 1343.34 710.248C1327.67 704.234 1310.1 712.059 1304.08 727.723Z" fill="#9B7ED4"/>
<path d="M1357.54 774.581C1386.75 750.928 1395.4 709.577 1378.11 676.262C1375.95 672.115 1370.85 670.495 1366.69 672.651C1362.54 674.8 1360.93 679.917 1363.08 684.066C1376.69 710.273 1369.88 742.809 1346.89 761.427C1329.67 775.369 1306.95 779.165 1286.09 771.589C1281.71 769.991 1276.85 772.258 1275.25 776.65C1273.65 781.045 1275.92 785.902 1280.31 787.5C1306.4 796.98 1335.99 792.031 1357.54 774.581Z" fill="#9B7ED4"/>
<path d="M1350.97 515.734C1347.81 515.734 1344.78 517.507 1343.32 520.546C1340.51 526.403 1338.43 532.599 1337.13 538.958C1336.06 544.211 1335.52 549.611 1335.52 555.001C1335.52 582.385 1349.3 607.523 1372.4 622.245C1378.95 626.426 1386.07 629.609 1393.53 631.708C1398.04 632.975 1402.71 630.34 1403.98 625.83C1405.24 621.318 1402.61 616.634 1398.11 615.367C1392.25 613.719 1386.65 611.218 1381.5 607.93C1363.31 596.342 1352.46 576.554 1352.46 555.001C1352.46 550.747 1352.89 546.494 1353.73 542.355C1354.75 537.362 1356.39 532.492 1358.6 527.891C1360.62 523.666 1358.85 518.598 1354.63 516.569C1353.45 515.997 1352.2 515.731 1350.97 515.731V515.734Z" fill="#F6E27F"/>
<path d="M1413.36 480.621C1430.08 479.159 1442.44 464.422 1440.98 447.708C1439.52 430.993 1424.78 418.628 1408.07 420.089C1391.35 421.551 1378.99 436.288 1380.45 453.002C1381.91 469.717 1396.65 482.082 1413.36 480.621Z" fill="#02C39A"/>
<path d="M1392.11 553.11C1381 544.977 1365.41 547.388 1357.28 558.49C1349.15 569.595 1351.56 585.187 1362.66 593.317C1373.76 601.45 1389.36 599.039 1397.49 587.937C1405.62 576.832 1403.21 561.24 1392.11 553.11Z" fill="#F6E27F"/>
<path d="M1427.01 411.269C1390.7 401.541 1352.17 418.848 1335.38 452.42C1333.29 456.602 1334.98 461.686 1339.17 463.778C1343.35 465.877 1348.44 464.174 1350.52 459.99C1363.73 433.578 1394.05 419.963 1422.63 427.621C1444.03 433.354 1460.46 449.507 1466.59 470.832C1467.87 475.318 1472.56 477.918 1477.05 476.63C1481.55 475.34 1484.15 470.65 1482.85 466.156C1475.19 439.476 1453.79 418.446 1427.01 411.269Z" fill="#02C39A"/>
<path d="M1532.06 575.13C1561.27 551.476 1569.92 510.125 1552.63 476.811C1550.48 472.663 1545.37 471.043 1541.22 473.199C1537.06 475.348 1535.45 480.465 1537.6 484.615C1551.21 510.822 1544.4 543.357 1521.41 561.976C1504.19 575.917 1481.47 579.714 1460.61 572.137C1456.23 570.539 1451.37 572.807 1449.77 577.199C1448.17 581.593 1450.44 586.451 1454.83 588.048C1480.92 597.528 1510.51 592.58 1532.06 575.13Z" fill="#9B7ED4"/>
<path d="M1160.62 1144C1177.34 1142.53 1189.7 1127.8 1188.24 1111.08C1186.78 1094.37 1172.04 1082 1155.33 1083.46C1138.62 1084.93 1126.25 1099.66 1127.71 1116.38C1129.17 1133.09 1143.91 1145.46 1160.62 1144Z" fill="#02C39A"/>
<path d="M1174.27 1074.64C1137.97 1064.92 1099.43 1082.22 1082.64 1115.79C1080.55 1119.98 1082.24 1125.06 1086.43 1127.15C1090.61 1129.25 1095.7 1127.55 1097.79 1123.36C1110.99 1096.95 1141.31 1083.34 1169.89 1091C1191.29 1096.73 1207.72 1112.88 1213.85 1134.21C1215.13 1138.69 1219.82 1141.29 1224.32 1140C1228.81 1138.71 1231.41 1134.02 1230.12 1129.53C1222.45 1102.85 1201.05 1081.82 1174.27 1074.64Z" fill="#02C39A"/>
<path d="M1225.87 1191.65C1219.85 1207.31 1227.68 1224.88 1243.34 1230.9C1259.01 1236.91 1276.58 1229.09 1282.59 1213.42C1288.61 1197.76 1280.78 1180.18 1265.12 1174.17C1249.46 1168.16 1231.88 1175.98 1225.87 1191.65Z" fill="#9B7ED4"/>
<path d="M1279.33 1238.5C1308.53 1214.85 1317.19 1173.5 1299.89 1140.19C1297.74 1136.04 1292.63 1134.42 1288.48 1136.57C1284.32 1138.72 1282.71 1143.84 1284.87 1147.99C1298.47 1174.2 1291.66 1206.73 1268.67 1225.35C1251.45 1239.29 1228.73 1243.09 1207.88 1235.51C1203.49 1233.91 1198.63 1236.18 1197.03 1240.57C1195.43 1244.97 1197.7 1249.83 1202.1 1251.42C1228.19 1260.9 1257.78 1255.96 1279.33 1238.5Z" fill="#9B7ED4"/>
<path d="M1278.13 992.855C1274.97 992.855 1271.94 994.628 1270.49 997.668C1267.67 1003.52 1265.59 1009.72 1264.29 1016.08C1263.22 1021.33 1262.68 1026.73 1262.68 1032.12C1262.68 1059.51 1276.47 1084.64 1299.56 1099.37C1306.12 1103.55 1313.23 1106.73 1320.69 1108.83C1325.21 1110.1 1329.87 1107.46 1331.14 1102.95C1332.41 1098.44 1329.77 1093.76 1325.27 1092.49C1319.41 1090.84 1313.81 1088.34 1308.66 1085.05C1290.48 1073.46 1279.62 1053.68 1279.62 1032.12C1279.62 1027.87 1280.05 1023.62 1280.9 1019.48C1281.92 1014.48 1283.55 1009.61 1285.76 1005.01C1287.79 1000.79 1286.01 995.72 1281.79 993.691C1280.61 993.119 1279.36 992.853 1278.13 992.853V992.855Z" fill="#F6E27F"/>
<path d="M1340.52 957.742C1357.24 956.281 1369.6 941.544 1368.14 924.829C1366.68 908.114 1351.94 895.749 1335.23 897.211C1318.52 898.672 1306.15 913.409 1307.61 930.124C1309.07 946.839 1323.81 959.203 1340.52 957.742Z" fill="#02C39A"/>
<path d="M1319.27 1030.23C1308.16 1022.1 1292.57 1024.51 1284.44 1035.61C1276.31 1046.72 1278.72 1062.31 1289.82 1070.44C1300.92 1078.57 1316.52 1076.16 1324.65 1065.06C1332.78 1053.95 1330.37 1038.36 1319.27 1030.23Z" fill="#F6E27F"/>
<path d="M1354.17 888.391C1317.87 878.663 1279.33 895.97 1262.54 929.542C1260.45 933.724 1262.14 938.807 1266.33 940.9C1270.51 942.999 1275.6 941.296 1277.69 937.112C1290.89 910.7 1321.22 897.085 1349.79 904.743C1371.19 910.476 1387.62 926.629 1393.75 947.953C1395.03 952.44 1399.72 955.04 1404.22 953.752C1408.71 952.462 1411.31 947.772 1410.02 943.278C1402.35 916.598 1380.96 895.568 1354.17 888.391Z" fill="#02C39A"/>
<path d="M1405.77 1005.39C1399.75 1021.06 1407.58 1038.63 1423.24 1044.64C1438.91 1050.66 1456.48 1042.83 1462.49 1027.17C1468.51 1011.51 1460.68 993.931 1445.02 987.918C1429.35 981.904 1411.78 989.729 1405.77 1005.39Z" fill="#9B7ED4"/>
<path d="M1459.22 1052.25C1488.43 1028.6 1497.08 987.247 1479.79 953.933C1477.64 949.785 1472.53 948.165 1468.38 950.321C1464.22 952.47 1462.61 957.587 1464.76 961.737C1478.37 987.944 1471.56 1020.48 1448.57 1039.1C1431.35 1053.04 1408.63 1056.84 1387.78 1049.26C1383.39 1047.66 1378.53 1049.93 1376.93 1054.32C1375.33 1058.71 1377.6 1063.57 1381.99 1065.17C1408.08 1074.65 1437.68 1069.7 1459.22 1052.25Z" fill="#9B7ED4"/>
<path d="M1452.65 793.403C1449.49 793.403 1446.46 795.176 1445 798.215C1442.19 804.072 1440.11 810.268 1438.81 816.627C1437.74 821.88 1437.2 827.28 1437.2 832.67C1437.2 860.054 1450.99 885.192 1474.08 899.914C1480.64 904.095 1487.75 907.278 1495.21 909.377C1499.73 910.644 1504.39 908.009 1505.66 903.499C1506.93 898.987 1504.29 894.303 1499.79 893.036C1493.93 891.388 1488.33 888.887 1483.18 885.599C1465 874.011 1454.14 854.223 1454.14 832.67C1454.14 828.416 1454.57 824.163 1455.42 820.024C1456.44 815.031 1458.07 810.161 1460.28 805.56C1462.31 801.335 1460.53 796.267 1456.31 794.238C1455.13 793.666 1453.88 793.4 1452.65 793.4V793.403Z" fill="#F6E27F"/>
<path d="M1528.69 688.938C1492.39 679.21 1453.85 696.517 1437.06 730.089C1434.97 734.271 1436.66 739.354 1440.85 741.447C1445.03 743.546 1450.12 741.843 1452.21 737.659C1465.41 711.247 1495.74 697.632 1524.31 705.289C1545.71 711.023 1562.14 727.176 1568.27 748.5C1569.55 752.987 1574.24 755.587 1578.74 754.299C1583.23 753.008 1585.83 748.319 1584.54 743.825C1576.87 717.145 1555.48 696.114 1528.69 688.938Z" fill="#02C39A"/>
<path d="M1432.43 1211.95C1449.14 1210.49 1461.51 1195.75 1460.05 1179.03C1458.58 1162.32 1443.85 1149.95 1427.13 1151.42C1410.42 1152.88 1398.05 1167.61 1399.51 1184.33C1400.98 1201.04 1415.71 1213.41 1432.43 1211.95Z" fill="#02C39A"/>
<path d="M1446.07 1142.6C1409.77 1132.87 1371.23 1150.17 1354.44 1183.75C1352.35 1187.93 1354.05 1193.01 1358.23 1195.1C1362.41 1197.2 1367.5 1195.5 1369.59 1191.32C1382.79 1164.9 1413.12 1151.29 1441.69 1158.95C1463.09 1164.68 1479.52 1180.83 1485.65 1202.16C1486.93 1206.64 1491.63 1209.24 1496.12 1207.96C1500.61 1206.67 1503.21 1201.98 1501.92 1197.48C1494.25 1170.8 1472.86 1149.77 1446.07 1142.6Z" fill="#02C39A"/>
<path d="M-16.0469 873.66C0.667753 872.199 13.0327 857.462 11.5714 840.747C10.1101 824.032 -4.62697 811.667 -21.3417 813.129C-38.0563 814.59 -50.4213 829.327 -48.96 846.042C-47.4987 862.756 -32.7616 875.121 -16.0469 873.66Z" fill="#02C39A"/>
<path d="M-2.3996 804.308C-38.7048 794.58 -77.243 811.887 -94.0302 845.46C-96.1189 849.641 -94.4281 854.725 -90.2421 856.817C-86.0607 858.917 -80.9736 857.213 -78.8843 853.029C-65.6798 826.618 -35.3559 813.003 -6.7783 820.66C14.6203 826.394 31.0482 842.546 37.1766 863.871C38.461 868.358 43.1528 870.958 47.6459 869.67C52.1396 868.379 54.7367 863.689 53.4461 859.195C45.7805 832.515 24.3839 811.485 -2.3996 804.308Z" fill="#02C39A"/>
<path d="M49.1961 921.31C43.1823 936.974 51.0075 954.548 66.6711 960.562C82.3347 966.575 99.9086 958.75 105.922 943.087C111.936 927.423 104.111 909.849 88.4474 903.835C72.7838 897.821 55.2099 905.647 49.1961 921.31Z" fill="#9B7ED4"/>
<path d="M102.654 968.169C131.863 944.515 140.514 903.164 123.221 869.85C121.066 865.702 115.959 864.082 111.806 866.238C107.649 868.387 106.037 873.504 108.194 877.654C121.8 903.861 114.991 936.396 91.9987 955.015C74.7822 968.957 52.0585 972.753 31.2044 965.176C26.8196 963.578 21.9582 965.846 20.3593 970.238C18.7621 974.632 21.0298 979.49 25.4239 981.087C51.5142 990.567 81.1047 985.619 102.654 968.169Z" fill="#9B7ED4"/>
<path d="M96.0775 722.518C92.9198 722.518 89.8924 724.291 88.4348 727.331C85.6239 733.188 83.5379 739.384 82.242 745.742C81.1729 750.996 80.6279 756.396 80.6279 761.786C80.6279 789.17 94.4165 814.308 117.509 829.03C124.067 833.21 131.177 836.393 138.643 838.493C143.156 839.759 147.821 837.125 149.091 832.615C150.355 828.103 147.724 823.418 143.221 822.152C137.357 820.504 131.764 818.003 126.609 814.715C108.427 803.126 97.5742 783.339 97.5742 761.786C97.5742 757.532 98.0044 753.278 98.8466 749.14C99.8662 744.147 101.504 739.277 103.71 734.676C105.736 730.451 103.96 725.383 99.741 723.354C98.5598 722.782 97.3082 722.516 96.0775 722.516V722.518Z" fill="#F6E27F"/>
<path d="M158.474 687.405C175.188 685.943 187.553 671.206 186.092 654.492C184.631 637.777 169.894 625.412 153.179 626.873C136.464 628.335 124.099 643.072 125.561 659.786C127.022 676.501 141.759 688.866 158.474 687.405Z" fill="#02C39A"/>
<path d="M137.217 759.895C126.112 751.762 110.52 754.173 102.39 765.275C94.2574 776.379 96.6683 791.971 107.77 800.101C118.875 808.234 134.467 805.823 142.597 794.721C150.73 783.617 148.319 768.025 137.217 759.895Z" fill="#F6E27F"/>
<path d="M172.121 618.054C135.816 608.326 97.2775 625.632 80.4903 659.205C78.4016 663.386 80.0924 668.47 84.2784 670.562C88.4598 672.662 93.5469 670.959 95.6362 666.774C108.841 640.363 139.165 626.748 167.742 634.405C189.141 640.139 205.569 656.291 211.697 677.616C212.982 682.103 217.673 684.703 222.166 683.415C226.66 682.124 229.257 677.434 227.967 672.94C220.301 646.261 198.904 625.23 172.121 618.054Z" fill="#02C39A"/>
<path d="M223.717 735.056C217.703 750.719 225.528 768.293 241.192 774.307C256.855 780.321 274.429 772.496 280.443 756.832C286.457 741.169 278.632 723.595 262.968 717.581C247.304 711.567 229.73 719.392 223.717 735.056Z" fill="#9B7ED4"/>
<path d="M277.174 781.914C306.384 758.26 315.035 716.91 297.741 683.595C295.586 679.448 290.479 677.827 286.326 679.984C282.17 682.133 280.558 687.249 282.715 691.399C296.321 717.606 289.512 750.141 266.519 768.76C249.303 782.702 226.579 786.498 205.725 778.922C201.34 777.324 196.479 779.591 194.88 783.983C193.283 788.377 195.55 793.235 199.944 794.832C226.035 804.313 255.625 799.364 277.174 781.914Z" fill="#9B7ED4"/>
<path d="M275.976 536.266C272.818 536.266 269.791 538.039 268.333 541.078C265.522 546.935 263.436 553.132 262.14 559.49C261.071 564.744 260.526 570.144 260.526 575.533C260.526 602.917 274.315 628.055 297.407 642.777C303.965 646.958 311.076 650.141 318.541 652.24C323.055 653.507 327.719 650.872 328.989 646.362C330.254 641.85 327.623 637.166 323.12 635.899C317.255 634.252 311.662 631.75 306.507 628.463C288.325 616.874 277.473 597.086 277.473 575.533C277.473 571.28 277.903 567.026 278.745 562.887C279.765 557.894 281.402 553.025 283.608 548.424C285.634 544.199 283.858 539.13 279.639 537.101C278.458 536.53 277.207 536.263 275.976 536.263V536.266Z" fill="#F6E27F"/>
<path d="M338.373 501.153C355.088 499.691 367.453 484.954 365.991 468.24C364.53 451.525 349.793 439.16 333.078 440.621C316.364 442.083 303.999 456.82 305.46 473.534C306.921 490.249 321.658 502.614 338.373 501.153Z" fill="#02C39A"/>
<path d="M317.114 573.642C306.01 565.509 290.418 567.92 282.288 579.022C274.155 590.127 276.566 605.719 287.668 613.849C298.772 621.982 314.364 619.571 322.494 608.469C330.627 597.364 328.216 581.772 317.114 573.642Z" fill="#F6E27F"/>
<path d="M352.02 431.801C315.715 422.073 277.177 439.38 260.39 472.952C258.301 477.134 259.992 482.218 264.178 484.31C268.359 486.41 273.446 484.706 275.536 480.522C288.74 454.111 319.064 440.496 347.642 448.153C369.04 453.887 385.468 470.039 391.597 491.364C392.881 495.85 397.573 498.451 402.066 497.163C406.56 495.872 409.157 491.182 407.866 486.688C400.2 460.008 378.804 438.978 352.02 431.801Z" fill="#02C39A"/>
<path d="M403.616 548.803C397.602 564.467 405.427 582.041 421.091 588.055C436.755 594.068 454.328 586.243 460.342 570.58C466.356 554.916 458.531 537.342 442.867 531.328C427.204 525.315 409.63 533.14 403.616 548.803Z" fill="#9B7ED4"/>
<path d="M457.074 595.662C486.283 572.008 494.934 530.658 477.641 497.343C475.485 493.196 470.379 491.575 466.225 493.732C462.069 495.881 460.457 500.997 462.614 505.147C476.22 531.354 469.411 563.889 446.419 582.508C429.202 596.45 406.478 600.246 385.624 592.67C381.24 591.072 376.378 593.339 374.779 597.731C373.182 602.125 375.45 606.983 379.844 608.58C405.934 618.061 435.525 613.112 457.074 595.662Z" fill="#9B7ED4"/>
<path d="M455.873 350.012C452.716 350.012 449.688 351.785 448.231 354.825C445.42 360.682 443.334 366.878 442.038 373.237C440.969 378.49 440.424 383.89 440.424 389.28C440.424 416.664 454.212 441.802 477.305 456.524C483.862 460.704 490.973 463.888 498.438 465.987C502.952 467.253 507.617 464.619 508.887 460.109C510.151 455.597 507.52 450.912 503.017 449.646C497.153 447.998 491.56 445.497 486.405 442.209C468.223 430.621 457.37 410.833 457.37 389.28C457.37 385.026 457.8 380.772 458.643 376.634C459.662 371.641 461.3 366.771 463.506 362.17C465.532 357.945 463.756 352.877 459.537 350.848C458.356 350.276 457.104 350.01 455.873 350.01V350.012Z" fill="#F6E27F"/>
<path d="M518.271 314.9C534.986 313.438 547.351 298.701 545.89 281.987C544.428 265.272 529.691 252.907 512.977 254.368C496.262 255.83 483.897 270.567 485.358 287.281C486.82 303.996 501.557 316.361 518.271 314.9Z" fill="#02C39A"/>
<path d="M497.014 387.389C485.909 379.256 470.317 381.667 462.187 392.769C454.054 403.873 456.465 419.465 467.567 427.596C478.672 435.728 494.264 433.317 502.394 422.215C510.527 411.111 508.116 395.519 497.014 387.389Z" fill="#F6E27F"/>
<path d="M531.919 245.548C495.614 235.82 457.075 253.127 440.288 286.699C438.199 290.881 439.89 295.964 444.076 298.057C448.258 300.156 453.345 298.453 455.434 294.269C468.639 267.857 498.962 254.242 527.54 261.899C548.939 267.633 565.367 283.786 571.495 305.11C572.779 309.597 577.471 312.197 581.964 310.909C586.458 309.619 589.055 304.929 587.764 300.435C580.099 273.755 558.702 252.725 531.919 245.548Z" fill="#02C39A"/>
<path d="M583.514 362.55C577.5 378.214 585.325 395.788 600.988 401.801C616.652 407.815 634.226 399.99 640.24 384.327C646.254 368.663 638.428 351.089 622.765 345.075C607.101 339.061 589.527 346.887 583.514 362.55Z" fill="#9B7ED4"/>
<path d="M636.971 409.408C666.181 385.754 674.831 344.404 657.538 311.089C655.383 306.942 650.276 305.321 646.123 307.478C641.967 309.627 640.355 314.744 642.512 318.893C656.118 345.1 649.309 377.635 626.316 396.254C609.1 410.196 586.376 413.992 565.522 406.416C561.137 404.818 556.276 407.085 554.677 411.477C553.079 415.871 555.347 420.729 559.741 422.326C585.832 431.807 615.422 426.858 636.971 409.408Z" fill="#9B7ED4"/>
<path d="M635.773 163.758C632.615 163.758 629.588 165.531 628.13 168.571C625.319 174.428 623.233 180.624 621.937 186.983C620.868 192.236 620.323 197.636 620.323 203.026C620.323 230.41 634.112 255.548 657.204 270.27C663.762 274.451 670.873 277.634 678.338 279.733C682.851 280.999 687.516 278.365 688.786 273.855C690.051 269.343 687.42 264.658 682.917 263.392C677.052 261.744 671.459 259.243 666.304 255.955C648.122 244.367 637.269 224.579 637.269 203.026C637.269 198.772 637.7 194.519 638.542 190.38C639.561 185.387 641.199 180.517 643.405 175.916C645.431 171.691 643.655 166.623 639.436 164.594C638.255 164.022 637.004 163.756 635.773 163.756V163.758Z" fill="#F6E27F"/>
<path d="M698.169 128.645C714.884 127.184 727.249 112.447 725.787 95.7322C724.326 79.0175 709.589 66.6526 692.874 68.1139C676.159 69.5752 663.795 84.3122 665.256 101.027C666.717 117.742 681.454 130.107 698.169 128.645Z" fill="#02C39A"/>
<path d="M676.911 201.135C665.807 193.002 650.215 195.413 642.084 206.515C633.952 217.619 636.363 233.212 647.465 241.342C658.569 249.474 674.161 247.063 682.291 235.962C690.424 224.857 688.013 209.265 676.911 201.135Z" fill="#F6E27F"/>
<path d="M711.816 59.294C675.511 49.566 636.973 66.8728 620.186 100.445C618.097 104.627 619.788 109.71 623.974 111.803C628.155 113.902 633.242 112.199 635.332 108.015C648.536 81.6032 678.86 67.9882 707.438 75.6456C728.836 81.3793 745.264 97.5318 751.392 118.856C752.677 123.343 757.369 125.943 761.862 124.655C766.355 123.365 768.953 118.675 767.662 114.181C759.996 87.501 738.6 66.4706 711.816 59.294Z" fill="#02C39A"/>
<path d="M763.411 176.297C757.397 191.96 765.222 209.534 780.886 215.548C796.55 221.562 814.123 213.737 820.137 198.073C826.151 182.409 818.326 164.836 802.662 158.822C786.999 152.808 769.425 160.633 763.411 176.297Z" fill="#9B7ED4"/>
<path d="M816.869 223.155C846.078 199.501 854.729 158.15 837.436 124.836C835.28 120.688 830.174 119.068 826.02 121.225C821.864 123.373 820.252 128.49 822.409 132.64C836.015 158.847 829.206 191.382 806.214 210.001C788.997 223.943 766.273 227.739 745.419 220.163C741.034 218.564 736.173 220.832 734.574 225.224C732.977 229.618 735.245 234.476 739.639 236.073C765.729 245.554 795.32 240.605 816.869 223.155Z" fill="#9B7ED4"/>
<path d="M810.293 -35.6932C807.136 -35.6932 804.108 -33.9202 802.651 -30.8807C799.84 -25.0238 797.754 -18.8273 796.458 -12.469C795.389 -7.21527 794.844 -1.81528 794.844 3.57427C794.844 30.9581 808.632 56.0963 831.724 70.8183C838.282 74.9989 845.393 78.1819 852.858 80.2814C857.372 81.5478 862.037 78.9131 863.307 74.4035C864.571 69.8913 861.94 65.2068 857.437 63.9404C851.573 62.2927 845.98 59.7911 840.825 56.5036C822.642 44.915 811.79 25.1273 811.79 3.57427C811.79 -0.679398 812.22 -4.93307 813.062 -9.07184C814.082 -14.0645 815.72 -18.9344 817.925 -23.5354C819.952 -27.7603 818.176 -32.8287 813.957 -34.8576C812.776 -35.4295 811.524 -35.6958 810.293 -35.6958V-35.6932Z" fill="#F6E27F"/>
<path d="M851.432 1.6831C840.327 -6.44958 824.735 -4.03874 816.605 7.06315C808.472 18.1676 810.883 33.7599 821.985 41.8899C833.09 50.0226 848.682 47.6118 856.812 36.5099C864.944 25.4054 862.534 9.81318 851.432 1.6831Z" fill="#F6E27F"/>
<path d="M937.932 -23.1554C931.919 -7.49172 939.744 10.0821 955.407 16.0959C971.071 22.1098 988.645 14.2846 994.659 -1.37904C1000.67 -17.0427 992.847 -34.6165 977.184 -40.6303C961.52 -46.6441 943.946 -38.819 937.932 -23.1554Z" fill="#9B7ED4"/>
<path d="M991.39 23.7025C1020.6 0.0489149 1029.25 -41.3018 1011.96 -74.6162C1009.8 -78.7639 1004.7 -80.3842 1000.54 -78.2276C996.386 -76.0788 994.774 -70.962 996.931 -66.8123C1010.54 -40.6053 1003.73 -8.0701 980.735 10.5488C963.519 24.4905 940.795 28.2866 919.941 20.7104C915.556 19.1123 910.695 21.3796 909.096 25.7717C907.498 30.1658 909.766 35.0236 914.16 36.6208C940.25 46.1014 969.841 41.1525 991.39 23.7025Z" fill="#9B7ED4"/>
<path d="M13.4603 1162.98C10.3026 1162.98 7.27524 1164.75 5.81764 1167.79C3.00674 1173.65 0.920728 1179.84 -0.375206 1186.2C-1.44429 1191.46 -1.98926 1196.86 -1.98926 1202.24C-1.98926 1229.63 11.7993 1254.77 34.8914 1269.49C41.4493 1273.67 48.56 1276.85 56.0253 1278.95C60.5389 1280.22 65.2038 1277.58 66.4736 1273.07C67.7383 1268.56 65.1073 1263.88 60.6041 1262.61C54.7398 1260.96 49.1467 1258.46 43.9916 1255.17C25.8095 1243.59 14.957 1223.8 14.957 1202.24C14.957 1197.99 15.3872 1193.74 16.2294 1189.6C17.249 1184.61 18.8865 1179.74 21.0925 1175.14C23.1185 1170.91 21.3428 1165.84 17.1238 1163.81C15.9426 1163.24 14.691 1162.97 13.4603 1162.97V1162.98Z" fill="#F6E27F"/>
<path d="M75.8574 1127.86C92.5721 1126.4 104.937 1111.67 103.476 1094.95C102.014 1078.24 87.2773 1065.87 70.5626 1067.33C53.848 1068.79 41.483 1083.53 42.9443 1100.25C44.4056 1116.96 59.1427 1129.33 75.8574 1127.86Z" fill="#02C39A"/>
<path d="M89.5037 1058.51C53.1985 1048.78 14.6603 1066.09 -2.1269 1099.66C-4.21557 1103.85 -2.52478 1108.93 1.66118 1111.02C5.84261 1113.12 10.9297 1111.42 13.0191 1107.23C26.2235 1080.82 56.5474 1067.21 85.125 1074.86C106.524 1080.6 122.951 1096.75 129.08 1118.08C130.364 1122.56 135.056 1125.16 139.549 1123.87C144.043 1122.58 146.64 1117.89 145.349 1113.4C137.684 1086.72 116.287 1065.69 89.5037 1058.51Z" fill="#02C39A"/>
<path d="M141.098 1175.51C135.085 1191.18 142.91 1208.75 158.573 1214.77C174.237 1220.78 191.811 1212.95 197.825 1197.29C203.839 1181.63 196.013 1164.05 180.35 1158.04C164.686 1152.03 147.112 1159.85 141.098 1175.51Z" fill="#9B7ED4"/>
<path d="M194.556 1222.37C223.766 1198.72 232.416 1157.37 215.123 1124.06C212.968 1119.91 207.861 1118.29 203.708 1120.44C199.552 1122.59 197.94 1127.71 200.097 1131.86C213.703 1158.07 206.893 1190.6 183.901 1209.22C166.685 1223.16 143.961 1226.96 123.107 1219.38C118.722 1217.78 113.861 1220.05 112.262 1224.44C110.664 1228.84 112.932 1233.69 117.326 1235.29C143.417 1244.77 173.007 1239.82 194.556 1222.37Z" fill="#9B7ED4"/>
<path d="M187.982 976.723C184.824 976.723 181.797 978.496 180.339 981.535C177.528 987.392 175.442 993.588 174.146 999.947C173.077 1005.2 172.532 1010.6 172.532 1015.99C172.532 1043.37 186.321 1068.51 209.413 1083.23C215.971 1087.41 223.082 1090.6 230.547 1092.7C235.06 1093.96 239.725 1091.33 240.995 1086.82C242.26 1082.31 239.629 1077.62 235.126 1076.36C229.261 1074.71 223.668 1072.21 218.513 1068.92C200.331 1057.33 189.478 1037.54 189.478 1015.99C189.478 1011.74 189.909 1007.48 190.751 1003.34C191.77 998.351 193.408 993.481 195.614 988.88C197.64 984.655 195.864 979.587 191.645 977.558C190.464 976.986 189.212 976.72 187.982 976.72V976.723Z" fill="#F6E27F"/>
<path d="M250.378 941.61C267.093 940.149 279.457 925.411 277.996 908.697C276.535 891.982 261.798 879.617 245.083 881.078C228.368 882.54 216.004 897.277 217.465 913.992C218.926 930.706 233.663 943.071 250.378 941.61Z" fill="#02C39A"/>
<path d="M229.12 1014.1C218.016 1005.97 202.424 1008.38 194.293 1019.48C186.161 1030.58 188.572 1046.18 199.673 1054.31C210.778 1062.44 226.37 1060.03 234.5 1048.93C242.633 1037.82 240.222 1022.23 229.12 1014.1Z" fill="#F6E27F"/>
<path d="M264.025 872.258C227.72 862.53 189.182 879.837 172.395 913.409C170.306 917.591 171.997 922.675 176.183 924.767C180.364 926.866 185.451 925.163 187.541 920.979C200.745 894.567 231.069 880.952 259.647 888.61C281.045 894.343 297.473 910.496 303.601 931.821C304.886 936.307 309.578 938.907 314.071 937.619C318.564 936.329 321.161 931.639 319.871 927.145C312.205 900.465 290.809 879.435 264.025 872.258Z" fill="#02C39A"/>
<path d="M315.621 989.26C309.607 1004.92 317.432 1022.5 333.096 1028.51C348.76 1034.52 366.333 1026.7 372.347 1011.04C378.361 995.372 370.536 977.799 354.872 971.785C339.209 965.771 321.635 973.596 315.621 989.26Z" fill="#9B7ED4"/>
<path d="M369.078 1036.12C398.288 1012.47 406.939 971.114 389.646 937.8C387.49 933.652 382.384 932.032 378.23 934.189C374.074 936.337 372.462 941.454 374.619 945.604C388.225 971.811 381.416 1004.35 358.423 1022.97C341.207 1036.91 318.483 1040.7 297.629 1033.13C293.244 1031.53 288.383 1033.8 286.784 1038.19C285.187 1042.58 287.455 1047.44 291.849 1049.04C317.939 1058.52 347.53 1053.57 369.078 1036.12Z" fill="#9B7ED4"/>
<path d="M367.881 790.47C364.723 790.47 361.696 792.243 360.239 795.283C357.428 801.14 355.342 807.336 354.046 813.694C352.977 818.948 352.432 824.348 352.432 829.738C352.432 857.121 366.22 882.26 389.312 896.982C395.87 901.162 402.981 904.345 410.446 906.445C414.96 907.711 419.625 905.076 420.895 900.567C422.159 896.055 419.528 891.37 415.025 890.104C409.161 888.456 403.568 885.954 398.413 882.667C380.23 871.078 369.378 851.291 369.378 829.738C369.378 825.484 369.808 821.23 370.65 817.091C371.67 812.099 373.307 807.229 375.513 802.628C377.539 798.403 375.764 793.335 371.545 791.306C370.364 790.734 369.112 790.468 367.881 790.468V790.47Z" fill="#F6E27F"/>
<path d="M430.277 755.357C446.992 753.896 459.357 739.159 457.896 722.444C456.434 705.729 441.697 693.364 424.983 694.826C408.268 696.287 395.903 711.024 397.364 727.739C398.826 744.453 413.563 756.818 430.277 755.357Z" fill="#02C39A"/>
<path d="M409.02 827.846C397.915 819.714 382.323 822.125 374.193 833.226C366.06 844.331 368.471 859.923 379.573 868.053C390.677 876.186 406.27 873.775 414.4 862.673C422.532 851.569 420.122 835.977 409.02 827.846Z" fill="#F6E27F"/>
<path d="M443.925 686.006C407.619 676.278 369.081 693.585 352.294 727.157C350.205 731.338 351.896 736.422 356.082 738.515C360.264 740.614 365.351 738.911 367.44 734.727C380.644 708.315 410.968 694.7 439.546 702.357C460.945 708.091 477.372 724.244 483.501 745.568C484.785 750.055 489.477 752.655 493.97 751.367C498.464 750.076 501.061 745.386 499.77 740.893C492.105 714.213 470.708 693.182 443.925 686.006Z" fill="#02C39A"/>
<path d="M495.523 803.006C489.509 818.67 497.335 836.244 512.998 842.258C528.662 848.272 546.236 840.446 552.25 824.783C558.263 809.119 550.438 791.545 534.775 785.532C519.111 779.518 501.537 787.343 495.523 803.006Z" fill="#9B7ED4"/>
<path d="M548.981 849.865C578.191 826.211 586.841 784.86 569.548 751.546C567.393 747.398 562.286 745.778 558.133 747.935C553.976 750.083 552.364 755.2 554.521 759.35C568.127 785.557 561.318 818.092 538.326 836.711C521.109 850.653 498.386 854.449 477.532 846.873C473.147 845.274 468.285 847.542 466.686 851.934C465.089 856.328 467.357 861.186 471.751 862.783C497.841 872.263 527.432 867.315 548.981 849.865Z" fill="#9B7ED4"/>
<path d="M547.778 604.217C544.62 604.217 541.593 605.99 540.135 609.029C537.324 614.886 535.238 621.083 533.942 627.441C532.873 632.695 532.328 638.095 532.328 643.484C532.328 670.868 546.117 696.006 569.209 710.728C575.767 714.909 582.877 718.092 590.343 720.192C594.856 721.458 599.521 718.823 600.791 714.314C602.056 709.801 599.425 705.117 594.922 703.851C589.057 702.203 583.464 699.701 578.309 696.414C560.127 684.825 549.274 665.037 549.274 643.484C549.274 639.231 549.705 634.977 550.547 630.838C551.566 625.846 553.204 620.976 555.41 616.375C557.436 612.15 555.66 607.081 551.441 605.053C550.26 604.481 549.008 604.214 547.778 604.214V604.217Z" fill="#F6E27F"/>
<path d="M610.175 569.104C626.889 567.642 639.254 552.905 637.793 536.191C636.332 519.476 621.595 507.111 604.88 508.572C588.165 510.034 575.8 524.771 577.262 541.485C578.723 558.2 593.46 570.565 610.175 569.104Z" fill="#02C39A"/>
<path d="M588.916 641.594C577.812 633.461 562.219 635.872 554.089 646.974C545.957 658.078 548.368 673.671 559.469 681.801C570.574 689.933 586.166 687.522 594.296 676.421C602.429 665.316 600.018 649.724 588.916 641.594Z" fill="#F6E27F"/>
<path d="M623.821 499.752C587.516 490.024 548.978 507.331 532.19 540.903C530.102 545.085 531.793 550.169 535.979 552.261C540.16 554.361 545.247 552.657 547.336 548.473C560.541 522.061 590.865 508.446 619.442 516.104C640.841 521.838 657.269 537.99 663.397 559.315C664.682 563.801 669.374 566.402 673.867 565.114C678.36 563.823 680.957 559.133 679.667 554.639C672.001 527.959 650.605 506.929 623.821 499.752Z" fill="#02C39A"/>
<path d="M675.417 616.755C669.403 632.418 677.228 649.992 692.892 656.006C708.555 662.02 726.129 654.195 732.143 638.531C738.157 622.867 730.332 605.293 714.668 599.28C699.004 593.266 681.431 601.091 675.417 616.755Z" fill="#9B7ED4"/>
<path d="M728.874 663.613C758.084 639.959 766.735 598.608 749.442 565.294C747.286 561.146 742.18 559.526 738.026 561.683C733.87 563.831 732.258 568.948 734.415 573.098C748.021 599.305 741.212 631.84 718.219 650.459C701.003 664.401 678.279 668.197 657.425 660.621C653.04 659.022 648.179 661.29 646.58 665.682C644.983 670.076 647.251 674.934 651.645 676.531C677.735 686.012 707.325 681.063 728.874 663.613Z" fill="#9B7ED4"/>
<path d="M727.678 417.963C724.52 417.963 721.493 419.736 720.035 422.776C717.225 428.633 715.139 434.829 713.843 441.187C712.773 446.441 712.229 451.841 712.229 457.231C712.229 484.615 726.017 509.753 749.109 524.475C755.667 528.655 762.778 531.838 770.243 533.938C774.757 535.204 779.422 532.57 780.691 528.06C781.956 523.548 779.325 518.863 774.822 517.597C768.958 515.949 763.364 513.448 758.209 510.16C740.027 498.572 729.175 478.784 729.175 457.231C729.175 452.977 729.605 448.723 730.447 444.585C731.467 439.592 733.104 434.722 735.31 430.121C737.336 425.896 735.561 420.828 731.342 418.799C730.16 418.227 728.909 417.961 727.678 417.961V417.963Z" fill="#F6E27F"/>
<path d="M790.074 382.85C806.789 381.389 819.154 366.652 817.692 349.937C816.231 333.223 801.494 320.858 784.779 322.319C768.065 323.78 755.7 338.517 757.161 355.232C758.622 371.947 773.359 384.312 790.074 382.85Z" fill="#02C39A"/>
<path d="M768.817 455.34C757.712 447.207 742.12 449.618 733.99 460.72C725.857 471.824 728.268 487.416 739.37 495.546C750.474 503.679 766.066 501.268 774.197 490.166C782.329 479.062 779.918 463.47 768.817 455.34Z" fill="#F6E27F"/>
<path d="M803.721 313.499C767.415 303.771 728.877 321.077 712.09 354.65C710.001 358.831 711.692 363.915 715.878 366.008C720.059 368.107 725.147 366.404 727.236 362.219C740.44 335.808 770.764 322.193 799.342 329.85C820.74 335.584 837.168 351.736 843.297 373.061C844.581 377.548 849.273 380.148 853.766 378.86C858.26 377.569 860.857 372.879 859.566 368.386C851.901 341.706 830.504 320.675 803.721 313.499Z" fill="#02C39A"/>
<path d="M855.316 430.501C849.302 446.164 857.128 463.738 872.791 469.752C888.455 475.766 906.029 467.941 912.042 452.277C918.056 436.613 910.231 419.04 894.568 413.026C878.904 407.012 861.33 414.837 855.316 430.501Z" fill="#9B7ED4"/>
<path d="M908.774 477.359C937.984 453.706 946.634 412.355 929.341 379.041C927.186 374.893 922.079 373.273 917.926 375.429C913.769 377.578 912.157 382.695 914.314 386.845C927.92 413.052 921.111 445.587 898.119 464.206C880.902 478.147 858.179 481.944 837.324 474.367C832.94 472.769 828.078 475.037 826.479 479.429C824.882 483.823 827.15 488.681 831.544 490.278C857.634 499.758 887.225 494.809 908.774 477.359Z" fill="#9B7ED4"/>
<path d="M902.199 218.511C899.041 218.511 896.014 220.284 894.556 223.323C891.745 229.18 889.659 235.377 888.363 241.735C887.294 246.989 886.749 252.389 886.749 257.778C886.749 285.162 900.538 310.3 923.63 325.022C930.188 329.203 937.298 332.386 944.764 334.485C949.277 335.752 953.942 333.117 955.212 328.608C956.477 324.095 953.846 319.411 949.342 318.144C943.478 316.497 937.885 313.995 932.73 310.708C914.548 299.119 903.695 279.331 903.695 257.778C903.695 253.525 904.125 249.271 904.968 245.132C905.987 240.14 907.625 235.27 909.831 230.669C911.857 226.444 910.081 221.375 905.862 219.346C904.681 218.775 903.429 218.508 902.199 218.508V218.511Z" fill="#F6E27F"/>
<path d="M964.595 183.398C981.31 181.936 993.675 167.199 992.213 150.485C990.752 133.77 976.015 121.405 959.3 122.866C942.586 124.328 930.221 139.065 931.682 155.779C933.143 172.494 947.88 184.859 964.595 183.398Z" fill="#02C39A"/>
<path d="M943.338 255.887C932.233 247.755 916.641 250.165 908.511 261.267C900.378 272.372 902.789 287.964 913.891 296.094C924.995 304.227 940.587 301.816 948.718 290.714C956.85 279.609 954.439 264.017 943.338 255.887Z" fill="#F6E27F"/>
<path d="M978.242 114.046C941.936 104.318 903.398 121.625 886.611 155.198C884.522 159.379 886.213 164.463 890.399 166.555C894.58 168.655 899.668 166.951 901.757 162.767C914.961 136.356 945.285 122.741 973.863 130.398C995.261 136.132 1011.69 152.284 1017.82 173.609C1019.1 178.096 1023.79 180.696 1028.29 179.408C1032.78 178.117 1035.38 173.427 1034.09 168.933C1026.42 142.253 1005.03 121.223 978.242 114.046Z" fill="#02C39A"/>
<path d="M1029.84 231.049C1023.82 246.712 1031.65 264.286 1047.31 270.3C1062.98 276.314 1080.55 268.489 1086.56 252.825C1092.58 237.161 1084.75 219.588 1069.09 213.574C1053.42 207.56 1035.85 215.385 1029.84 231.049Z" fill="#9B7ED4"/>
<path d="M1083.29 277.907C1112.5 254.253 1121.16 212.902 1103.86 179.588C1101.71 175.44 1096.6 173.82 1092.45 175.976C1088.29 178.125 1086.68 183.242 1088.84 187.392C1102.44 213.599 1095.63 246.134 1072.64 264.753C1055.42 278.695 1032.7 282.491 1011.85 274.915C1007.46 273.316 1002.6 275.584 1001 279.976C999.403 284.37 1001.67 289.228 1006.07 290.825C1032.16 300.305 1061.75 295.357 1083.29 277.907Z" fill="#9B7ED4"/>
<path d="M1082.1 32.2575C1078.94 32.2575 1075.91 34.0305 1074.45 37.07C1071.64 42.9269 1069.56 49.1233 1068.26 55.4816C1067.19 60.7354 1066.65 66.1354 1066.65 71.525C1066.65 98.9088 1080.43 124.047 1103.53 138.769C1110.08 142.95 1117.2 146.133 1124.66 148.232C1129.17 149.498 1133.84 146.864 1135.11 142.354C1136.37 137.842 1133.74 133.157 1129.24 131.891C1123.38 130.243 1117.78 127.742 1112.63 124.454C1094.44 112.866 1083.59 93.0779 1083.59 71.525C1083.59 67.2713 1084.02 63.0176 1084.86 58.8788C1085.88 53.8862 1087.52 49.0163 1089.73 44.4153C1091.75 40.1904 1089.98 35.122 1085.76 33.0931C1084.58 32.5212 1083.33 32.2549 1082.1 32.2549V32.2575Z" fill="#F6E27F"/>
<path d="M1144.49 -2.85527C1161.21 -4.31657 1173.57 -19.0536 1172.11 -35.7683C1170.65 -52.483 1155.91 -64.8479 1139.2 -63.3866C1122.48 -61.9253 1110.12 -47.1883 1111.58 -30.4736C1113.04 -13.7589 1127.78 -1.39396 1144.49 -2.85527Z" fill="#02C39A"/>
<path d="M1123.23 69.6343C1112.13 61.5016 1096.54 63.9124 1088.41 75.0143C1080.28 86.1188 1082.69 101.711 1093.79 109.841C1104.89 117.974 1120.48 115.563 1128.62 104.461C1136.75 93.3566 1134.34 77.7644 1123.23 69.6343Z" fill="#F6E27F"/>
<path d="M1158.14 -72.207C1121.83 -81.935 1083.3 -64.6281 1066.51 -31.0559C1064.42 -26.8743 1066.11 -21.7905 1070.3 -19.698C1074.48 -17.5986 1079.56 -19.302 1081.65 -23.4861C1094.86 -49.8977 1125.18 -63.5127 1153.76 -55.8554C1175.16 -50.1216 1191.59 -33.9691 1197.72 -12.6446C1199 -8.15788 1203.69 -5.55763 1208.18 -6.8457C1212.68 -8.1363 1215.28 -12.8263 1213.98 -17.32C1206.32 -44 1184.92 -65.0304 1158.14 -72.207Z" fill="#02C39A"/>
<path d="M1209.74 44.7953C1203.72 60.459 1211.55 78.0328 1227.21 84.0466C1242.87 90.0604 1260.45 82.2353 1266.46 66.5716C1272.48 50.908 1264.65 33.3342 1248.99 27.3204C1233.32 21.3065 1215.75 29.1317 1209.74 44.7953Z" fill="#9B7ED4"/>
<path d="M1263.19 91.6532C1292.4 67.9996 1301.05 26.6488 1283.76 -6.66555C1281.61 -10.8132 1276.5 -12.4335 1272.35 -10.2769C1268.19 -8.12808 1266.58 -3.01131 1268.73 1.13837C1282.34 27.3454 1275.53 59.8806 1252.54 78.4995C1235.32 92.4412 1212.6 96.2373 1191.74 88.6611C1187.36 87.063 1182.5 89.3303 1180.9 93.7224C1179.3 98.1165 1181.57 102.974 1185.96 104.572C1212.05 114.052 1241.64 109.103 1263.19 91.6532Z" fill="#9B7ED4"/>
</svg>
