<svg width="65" height="64" viewBox="0 0 65 64" fill="none" xmlns="http://www.w3.org/2000/svg">
<rect x="0.333984" width="64" height="64" rx="32" fill="#02C39A"/>
<path d="M44.6662 31.3333C44.6662 37.5926 39.5921 42.6667 33.3328 42.6667C31.8971 42.6667 30.5238 42.3997 29.2597 41.9127C29.0286 41.8237 28.913 41.7792 28.8211 41.758C28.7308 41.7371 28.6653 41.7284 28.5726 41.7249C28.4784 41.7213 28.375 41.732 28.1683 41.7534L21.3402 42.4592C20.6892 42.5265 20.3637 42.5601 20.1717 42.443C20.0045 42.341 19.8906 42.1706 19.8603 41.977C19.8255 41.7548 19.981 41.4669 20.2921 40.8911L22.473 36.8544C22.6526 36.522 22.7424 36.3558 22.783 36.1959C22.8232 36.0381 22.8329 35.9243 22.8201 35.7619C22.8071 35.5975 22.7349 35.3835 22.5907 34.9555C22.2073 33.8181 21.9995 32.6 21.9995 31.3333C21.9995 25.0741 27.0736 20 33.3328 20C39.5921 20 44.6662 25.0741 44.6662 31.3333Z" stroke="white" stroke-width="3" stroke-linecap="round" stroke-linejoin="round"/>
<path fill-rule="evenodd" clip-rule="evenodd" d="M33.3287 27.9323C32.1291 26.5472 30.1287 26.1746 28.6257 27.443C27.1226 28.7113 26.911 30.832 28.0914 32.3321C28.8226 33.2615 30.658 34.9589 31.9488 36.1159C32.4229 36.541 32.66 36.7535 32.9445 36.8391C33.1885 36.9126 33.4689 36.9126 33.713 36.8391C33.9975 36.7535 34.2345 36.541 34.7087 36.1159C35.9994 34.9589 37.8348 33.2615 38.5661 32.3321C39.7464 30.832 39.5607 28.698 38.0318 27.443C36.5029 26.1879 34.5283 26.5472 33.3287 27.9323Z" stroke="white" stroke-width="3" stroke-linecap="round" stroke-linejoin="round"/>
</svg>
