<svg width="65" height="64" viewBox="0 0 65 64" fill="none" xmlns="http://www.w3.org/2000/svg">
<rect x="0.666992" width="64" height="64" rx="32" fill="#02C39A"/>
<path d="M24.4601 30.9716C24.3773 30.4375 24.3343 29.8903 24.3343 29.3332C24.3343 23.4421 29.1413 18.6665 35.0711 18.6665C41.0009 18.6665 45.8079 23.4421 45.8079 29.3332C45.8079 30.6639 45.5626 31.9378 45.1145 33.1125C45.0214 33.3565 44.9749 33.4785 44.9538 33.5737C44.9328 33.6681 44.9248 33.7345 44.9225 33.8311C44.9202 33.9286 44.9334 34.0361 44.9599 34.2509L45.4966 38.6112C45.5548 39.0832 45.5838 39.3192 45.5053 39.4908C45.4365 39.6411 45.3143 39.7605 45.1624 39.8258C44.9891 39.9004 44.7538 39.8659 44.2833 39.7969L40.0362 39.1744C39.8145 39.1419 39.7036 39.1256 39.6026 39.1262C39.5027 39.1268 39.4336 39.1341 39.3358 39.1547C39.237 39.1755 39.1108 39.2228 38.8583 39.3173C37.6805 39.7585 36.4042 39.9998 35.0711 39.9998C34.5135 39.9998 33.9659 39.9576 33.4312 39.8762M26.5097 45.3332C30.4629 45.3332 33.6676 42.0499 33.6676 37.9998C33.6676 33.9497 30.4629 30.6665 26.5097 30.6665C22.5566 30.6665 19.3519 33.9497 19.3519 37.9998C19.3519 38.814 19.4813 39.5971 19.7204 40.3288C19.8214 40.6381 19.8719 40.7928 19.8885 40.8984C19.9058 41.0087 19.9089 41.0707 19.9024 41.1821C19.8962 41.2889 19.8695 41.4096 19.8161 41.6509L19.001 45.3332L22.994 44.7878C23.212 44.7581 23.321 44.7432 23.4161 44.7438C23.5163 44.7445 23.5695 44.7499 23.6678 44.7695C23.7611 44.7881 23.8999 44.8371 24.1773 44.935C24.9084 45.1931 25.6931 45.3332 26.5097 45.3332Z" stroke="white" stroke-width="3" stroke-linecap="round" stroke-linejoin="round"/>
</svg>
