<svg width="33" height="32" viewBox="0 0 33 32" fill="none" xmlns="http://www.w3.org/2000/svg">
<path d="M28.6662 15.3333C28.6662 21.5926 23.5921 26.6667 17.3328 26.6667C15.8971 26.6667 14.5238 26.3997 13.2597 25.9127C13.0286 25.8237 12.913 25.7792 12.8211 25.758C12.7308 25.7371 12.6653 25.7284 12.5726 25.7249C12.4784 25.7213 12.375 25.732 12.1683 25.7534L5.34022 26.4592C4.68923 26.5265 4.36374 26.5601 4.17173 26.443C4.0045 26.341 3.89059 26.1706 3.86027 25.977C3.82546 25.7548 3.981 25.4669 4.29208 24.8911L6.47296 20.8544C6.65256 20.522 6.74236 20.3558 6.78304 20.1959C6.82321 20.0381 6.83292 19.9243 6.82007 19.7619C6.80706 19.5975 6.73493 19.3835 6.59066 18.9555C6.2073 17.8181 5.9995 16.6 5.9995 15.3333C5.9995 9.07411 11.0736 4 17.3328 4C23.5921 4 28.6662 9.07411 28.6662 15.3333Z" stroke="white" stroke-width="2" stroke-linecap="round" stroke-linejoin="round"/>
<path fill-rule="evenodd" clip-rule="evenodd" d="M17.3287 11.9323C16.1291 10.5472 14.1287 10.1746 12.6257 11.443C11.1226 12.7113 10.911 14.832 12.0914 16.3321C12.8226 17.2615 14.658 18.9589 15.9488 20.1159C16.4229 20.541 16.66 20.7535 16.9445 20.8391C17.1885 20.9126 17.4689 20.9126 17.713 20.8391C17.9975 20.7535 18.2345 20.541 18.7087 20.1159C19.9994 18.9589 21.8348 17.2615 22.5661 16.3321C23.7464 14.832 23.5607 12.698 22.0318 11.443C20.5029 10.1879 18.5283 10.5472 17.3287 11.9323Z" stroke="white" stroke-width="2" stroke-linecap="round" stroke-linejoin="round"/>
</svg>
