<svg width="65" height="64" viewBox="0 0 65 64" fill="none" xmlns="http://www.w3.org/2000/svg">
<rect x="0.333984" width="64" height="64" rx="32" fill="#02C39A"/>
<path d="M28.334 28V24C28.334 21.7909 26.5431 20 24.334 20C22.1248 20 20.334 21.7909 20.334 24C20.334 26.2091 22.1248 28 24.334 28H28.334ZM28.334 28V36M28.334 28H36.334M28.334 36V40C28.334 42.2091 26.5431 44 24.334 44C22.1248 44 20.334 42.2091 20.334 40C20.334 37.7909 22.1248 36 24.334 36H28.334ZM28.334 36H36.334M36.334 36H40.334C42.5431 36 44.334 37.7909 44.334 40C44.334 42.2091 42.5431 44 40.334 44C38.1248 44 36.334 42.2091 36.334 40V36ZM36.334 36V28M36.334 28V24C36.334 21.7909 38.1248 20 40.334 20C42.5431 20 44.334 21.7909 44.334 24C44.334 26.2091 42.5431 28 40.334 28H36.334Z" stroke="white" stroke-width="3" stroke-linecap="round" stroke-linejoin="round"/>
</svg>
