<svg width="22" height="22" viewBox="0 0 22 22" fill="none" xmlns="http://www.w3.org/2000/svg">
<path d="M11 20.5C16.2467 20.5 20.5 16.2467 20.5 11C20.5 5.75329 16.2467 1.5 11 1.5C5.75329 1.5 1.5 5.75329 1.5 11C1.5 16.2467 5.75329 20.5 11 20.5Z" stroke="#FF958C" stroke-width="2" stroke-linecap="round" stroke-linejoin="round"/>
<path d="M8.16523 16.4301C7.93216 16.4301 7.72949 16.344 7.55723 16.1717C7.38496 15.9995 7.29883 15.7968 7.29883 15.5637V15.3661C7.29883 15.052 7.50656 14.7581 7.92203 14.4845C8.48949 14.1096 8.77323 13.4053 8.77323 12.3717V11.6421C8.77323 11.5611 8.72763 11.5205 8.63643 11.5205H8.28683C8.08416 11.5205 7.91189 11.4496 7.77003 11.3077C7.62816 11.1557 7.55723 10.9784 7.55723 10.7757C7.55723 10.5731 7.62816 10.4008 7.77003 10.2589C7.91189 10.1171 8.08416 10.0461 8.28683 10.0461H8.63643C8.72763 10.0461 8.77323 10.0005 8.77323 9.90933V8.37413C8.77323 7.3608 9.08736 6.57546 9.71563 6.01813C10.354 5.4608 11.266 5.18213 12.4516 5.18213C12.8367 5.18213 13.2167 5.21253 13.5916 5.27333C13.8348 5.31386 14.0324 5.44053 14.1844 5.65333C14.3466 5.86613 14.4276 6.0992 14.4276 6.35253V6.39813C14.4276 6.6008 14.3415 6.76293 14.1692 6.88453C14.0071 7.00613 13.8196 7.04159 13.6068 6.99093C13.3231 6.93013 13.0191 6.89973 12.6948 6.89973C12.0463 6.89973 11.5802 7.03146 11.2964 7.29493C11.0127 7.5584 10.8708 7.984 10.8708 8.57173V9.90933C10.8708 10.0005 10.9164 10.0461 11.0076 10.0461H12.9532C13.1559 10.0461 13.3282 10.1171 13.47 10.2589C13.6119 10.4008 13.6828 10.5731 13.6828 10.7757C13.6828 10.9784 13.6119 11.1557 13.47 11.3077C13.3282 11.4496 13.1559 11.5205 12.9532 11.5205H11.0076C10.9164 11.5205 10.8708 11.5611 10.8708 11.6421V12.3717C10.8708 12.9291 10.7746 13.4155 10.582 13.8309C10.3895 14.2363 10.1412 14.5149 9.83723 14.6669V14.6973C9.83723 14.7075 9.8423 14.7125 9.85243 14.7125H13.7892C14.0223 14.7125 14.225 14.7987 14.3972 14.9709C14.5695 15.1331 14.6556 15.3307 14.6556 15.5637C14.6556 15.7968 14.5695 15.9995 14.3972 16.1717C14.225 16.344 14.0223 16.4301 13.7892 16.4301H8.16523Z" fill="#FF958C"/>
</svg>
