<svg width="114" height="88" viewBox="0 0 114 88" fill="none" xmlns="http://www.w3.org/2000/svg">
<path d="M8.59528 87.6825C5.75958 86.9636 2.80405 85.0065 1.32629 82.8099C0.527502 81.6516 0.0881675 79.6547 0.207986 77.4979C0.407684 73.464 2.08514 68.5515 5.12055 63.1197C6.39861 60.8431 8.63522 57.8477 10.3526 56.1303C13.428 53.0549 17.8213 49.74 19.9381 48.9412C20.3375 48.7814 20.6171 48.5817 20.5372 48.5418C20.4573 48.5018 19.8582 48.6217 19.1793 48.9412C17.5018 49.6601 14.9856 50.2192 13.2682 50.2192C12.07 50.2192 11.7505 50.0994 11.1115 49.4604C9.91329 48.2622 10.3127 46.7445 11.7904 47.0241C12.07 47.064 12.3895 47.1439 12.4694 47.1439C12.5892 47.1439 12.6691 47.3436 12.6691 47.5832C12.6691 47.9027 12.8289 47.9427 13.5078 47.8229C15.0255 47.5033 17.382 46.6646 19.2192 45.7859L21.0165 44.9472L21.1762 41.5524C21.4558 35.5215 23.1732 29.251 26.3284 22.9405C28.0458 19.4658 29.5635 17.0295 29.883 17.2292C30.0428 17.3091 30.0827 17.2691 29.9629 17.0694C29.7233 16.71 30.2824 15.9511 30.602 16.1508C30.7218 16.2307 30.7617 16.1109 30.6818 15.9112C30.602 15.6716 30.7617 15.4319 31.0812 15.2322C31.4407 15.0325 31.5605 14.7929 31.4806 14.5532C31.3608 14.2737 31.4407 14.1938 31.7203 14.3136C31.9599 14.3935 32.0398 14.3536 31.9599 14.1139C31.88 13.9142 32.3593 13.2352 33.0782 12.5163C33.7572 11.8374 34.6358 10.8788 34.9953 10.3995C36.513 8.4425 40.1475 4.96777 42.424 3.29031C44.7006 1.61285 47.9357 0.135084 48.8144 0.374721C48.9342 0.414661 49.0141 0.334782 49.0141 0.214963C49.0141 -0.0646134 50.4119 -0.0646134 52.4489 0.175024C54.6455 0.4546 55.6041 1.13357 56.5227 3.01073C57.6809 5.4071 57.4812 8.36262 55.8437 12.1169C53.4474 17.6286 49.3336 24.1787 45.0201 29.2111C39.4286 35.8011 33.2779 41.0331 26.0089 45.3067C24.2915 46.3451 24.1318 46.4649 24.2116 47.1838C24.2915 47.8628 24.4113 47.9826 25.3299 48.2223C26.7678 48.5817 28.0858 49.4604 28.8446 50.5787C29.5236 51.5772 30.4422 54.0534 30.7218 55.6909C31.0413 57.6879 31.1212 57.6879 32.2395 54.9321C33.8371 50.9381 35.195 49.1009 36.5929 48.9811C37.831 48.8613 38.7896 50.3391 38.7896 52.336C38.7896 53.1748 39.3088 53.5342 39.6682 52.9351C39.7481 52.7754 40.2673 52.6955 40.8265 52.6955C42.5838 52.6955 43.103 53.6141 43.8619 57.8077C44.3012 60.1642 45.5793 66.0752 45.779 66.5944C46.0186 67.2335 46.2582 67.1136 46.7775 66.0752C48.0955 63.3194 48.3351 62.2011 48.2952 58.2071C48.2952 56.0903 48.2153 53.7738 48.0955 53.0549C47.9357 51.8568 47.9756 51.697 48.5747 51.3375C49.8528 50.4988 50.8513 51.5772 51.0909 54.1333C51.1708 54.7324 51.2107 54.6525 51.3705 53.6141C51.8897 50.1793 52.9281 48.3021 54.6056 47.5832C55.684 47.1439 57.2017 47.6232 57.8806 48.5817C59.4782 50.8583 60.0773 54.2531 59.8377 59.8447C59.7578 61.8816 59.7179 63.4791 59.7578 63.4392C59.7977 63.3993 60.5965 61.8816 61.5151 60.1242C63.592 56.1303 64.231 54.2531 64.231 52.1363C64.231 49.9796 65.3493 45.5863 66.0682 44.9872C66.7472 44.3881 67.4262 44.428 68.0652 45.067C68.6244 45.6262 68.7042 47.1838 68.3448 49.5403C68.1052 51.018 68.4646 57.608 68.864 59.5651C69.1835 61.0828 69.6628 61.2825 70.5415 60.3239C70.9409 59.8846 71.3403 58.5266 72.139 54.3729C73.4171 47.9826 74.0561 46.425 75.5738 45.9058C76.2528 45.6661 76.6921 45.6661 77.0117 45.8259C77.6906 46.1853 78.2498 47.4235 78.3297 48.6217C78.3696 49.4204 78.4495 49.5802 78.6891 49.3805C78.8888 49.2207 79.0885 48.9012 79.1684 48.6217C79.2483 48.3421 80.087 47.5832 81.0456 46.9442C82.0041 46.2652 82.8029 45.6661 82.8828 45.5863C82.9627 45.5064 83.5617 45.107 84.2407 44.7076C87.4359 42.9103 89.5127 44.6676 89.5926 49.2207L89.6326 51.4973L90.5911 50.4189C91.9091 48.9412 92.1887 48.3021 93.1872 45.1469C94.2655 41.6322 96.3025 36.2803 96.9814 35.162C97.3409 34.5629 97.6205 34.3633 97.94 34.4431C98.1796 34.523 98.6189 34.4032 98.8985 34.2035C99.3778 33.884 99.4577 33.884 99.8571 34.4831C100.536 35.5215 100.017 38.8764 98.4192 43.1899C97.7403 44.9872 96.2226 48.1424 95.7034 48.7015C95.3439 49.1009 93.4667 55.5312 93.6265 55.8906C93.6664 56.0105 94.0259 55.7708 94.4652 55.3714C94.9046 54.972 95.8631 54.1732 96.622 53.5342C97.3808 52.8952 98.1397 52.2561 98.2994 52.1363C98.4592 52.0165 99.7372 50.8982 101.175 49.74C103.452 47.8628 103.811 47.4634 104.171 46.3052C104.81 44.3481 108.484 37.2788 109.722 35.6014C110.561 34.4431 111 34.0837 111.679 33.9639C112.398 33.844 112.638 33.884 113.037 34.3632C113.796 35.3218 113.556 37.199 112.198 40.1944C111.919 40.7935 111.519 41.792 111.28 42.3512C110.84 43.5094 108.883 46.5049 107.765 47.7829C106.807 48.8613 106.567 49.4204 105.489 52.8952C104.969 54.5726 104.45 56.2501 104.29 56.5696C104.171 56.8891 103.891 57.8077 103.691 58.6065C103.492 59.4053 103.132 60.6834 102.932 61.4422C102.693 62.2011 102.413 63.4791 102.253 64.238C101.854 66.4347 101.814 66.5545 101.055 66.5545C100.137 66.5545 99.7772 65.8755 99.5775 63.7987C99.4577 62.3209 99.5775 61.5221 100.456 58.2471C101.015 56.1303 101.535 54.1732 101.654 53.8937C101.774 53.6141 101.734 53.4943 101.614 53.654C101.495 53.8138 100.656 54.5327 99.7373 55.3315C98.8186 56.0903 98.0199 56.8093 97.94 56.8891C97.4607 57.4483 94.7049 59.4852 93.5466 60.1642C92.5082 60.7633 92.0689 61.1627 91.949 61.6819C91.7094 62.6804 91.1103 64.7173 89.9521 68.2319C89.2332 70.4286 89.0335 71.507 89.1133 72.1061C89.2332 72.825 89.1932 72.9848 88.6341 73.1845C87.7554 73.5439 86.5572 73.1046 86.1978 72.2658C86.038 71.9064 85.9182 71.0677 85.9182 70.4286C85.9182 69.7496 85.7984 68.7512 85.6386 68.192C85.4788 67.6329 85.3191 66.874 85.2392 66.5545C85.1593 66.195 85.0395 65.8755 84.9996 65.8356C84.9596 65.7956 84.4005 66.2749 83.7614 66.9139C82.4035 68.3118 81.1654 68.871 79.5279 68.871C77.0516 68.871 75.6138 67.3133 75.4141 64.3978C75.3741 64.0782 75.1744 64.4377 74.8549 65.2365C74.136 67.0737 73.3772 67.8725 72.2589 67.8725C71.7796 67.8725 71.1006 67.6329 70.7012 67.3533C70.1021 66.9139 70.0222 66.6344 70.0222 65.4362C70.0222 64.3179 69.9424 64.0383 69.5829 64.0383C69.3433 64.0383 68.6643 63.7587 68.0253 63.3593C67.3862 62.9999 66.8271 62.7602 66.7472 62.8401C66.6673 62.92 66.5475 63.3993 66.4676 63.9584C66.1881 66.1551 65.1097 69.7896 64.5505 70.3487C63.3124 71.7067 61.2755 70.6283 61.2755 68.6313V67.553L60.1572 69.0707C59.5581 69.9094 58.5996 70.9478 58.0404 71.4271C57.4812 71.9064 56.8822 72.4256 56.6825 72.5854C55.7239 73.3842 54.9251 73.7835 54.2461 73.7835C53.4474 73.7835 52.369 73.2244 52.0095 72.5854C51.8498 72.3457 51.5702 72.3058 51.051 72.3857C49.8528 72.6652 48.8144 71.8664 48.6147 70.5484C48.4549 69.51 48.1753 69.1905 47.8958 69.6698C47.8159 69.7896 47.3366 69.9493 46.8174 70.0292C45.739 70.189 44.1814 69.55 43.5823 68.6713C43.143 68.0323 43.0231 68.192 42.7835 69.7497C42.5439 71.3472 41.6652 72.6253 40.7466 72.7451C40.0676 72.825 40.0277 72.8649 40.1076 74.3427C40.1874 77.0186 38.9493 77.418 36.7127 75.461C34.3962 73.4241 34.4361 73.504 35.9139 73.7037L37.2319 73.8634L37.1121 71.3472C37.0322 69.9493 36.9523 68.192 36.8725 67.4332C36.7926 66.6743 36.6728 65.1167 36.5929 63.9984C36.513 62.8801 36.4331 61.9215 36.3932 61.8816C36.3133 61.8017 34.9154 63.9984 33.7572 66.1152C33.1581 67.1935 32.4392 68.4716 32.1995 68.9509C31.8001 69.6298 31.6404 70.7881 31.4007 73.6637C31.241 75.7805 31.0013 78.4964 30.9215 79.7345C30.8017 81.2522 30.602 82.051 30.3623 82.2108C29.7632 82.6102 28.9644 82.4904 28.4852 81.9312C28.0858 81.4919 28.0458 81.0126 28.0858 78.5363C28.1656 73.464 28.2056 72.825 28.4852 72.6652C28.605 72.5854 28.0858 72.5055 27.247 72.5454C25.8891 72.5854 25.7693 72.6652 25.6495 73.2244C25.0504 76.2598 23.2531 80.6531 22.0549 82.091C21.8153 82.4105 21.296 83.0096 20.9366 83.4489C20.0579 84.5672 17.5018 86.4444 15.8243 87.2432C14.2667 88.042 10.752 88.2417 8.59528 87.6825ZM14.2268 85.1663C18.0609 83.6087 21.0564 79.8544 22.5741 74.782C23.9321 70.3487 24.1717 65.7557 23.3729 60.0843C22.8537 56.29 21.8552 50.6985 21.6954 50.5387C21.4159 50.2592 18.2207 52.0964 16.2237 53.694C13.7475 55.6909 10.3926 59.2456 8.63522 61.7617C4.60133 67.513 1.84551 75.9003 2.72418 79.7345C3.28333 82.1309 4.28182 83.369 6.59831 84.5672C9.19438 85.8852 11.9103 86.0849 14.2268 85.1663ZM27.7662 69.8295L28.5251 68.9908L28.4053 62.6005C28.2855 56.4099 28.2855 56.1303 27.5665 54.0534C26.8077 51.7769 25.8492 50.4589 24.9705 50.4589C24.5311 50.4589 24.4912 50.5787 24.6909 51.6571C25.969 59.2056 26.4882 63.8386 26.4482 66.7941C26.4083 68.5515 26.4083 70.1491 26.4482 70.3088C26.4882 70.9079 27.0074 70.7082 27.7662 69.8295ZM55.4044 67.6728C56.4828 64.1581 56.9221 60.6035 56.7623 56.6096C56.5626 51.5772 55.8038 49.3006 54.9651 51.2976C54.326 52.8952 54.0464 54.8123 53.3675 62.9999C53.2876 64.0383 53.048 65.9953 52.8882 67.2734C52.7284 68.5914 52.6086 69.7097 52.6885 69.7497C52.7684 69.8295 53.2477 69.8695 53.7669 69.8695H54.7254L55.4044 67.6728ZM87.9551 64.3578C88.3545 63.1197 88.7139 61.9615 88.7539 61.8017C88.8338 61.602 88.5941 61.4822 87.995 61.4822C87.1563 61.4822 87.0764 61.5621 86.4773 62.9999L85.8383 64.5176L86.5173 65.556C86.8767 66.1152 87.1962 66.5944 87.2362 66.5944C87.2362 66.5944 87.5557 65.5959 87.9551 64.3578ZM80.4465 65.5959C81.2053 65.0767 82.044 64.0383 81.7245 63.9984C80.5663 63.9185 79.6876 63.7188 79.4879 63.5191C78.9687 62.9999 78.8089 63.2795 78.8089 64.6773C78.8489 66.2749 79.1684 66.4347 80.4465 65.5959ZM33.5175 61.4023C33.6773 61.0828 34.3563 59.9245 35.0352 58.8462L36.2734 56.8492L36.2334 54.7324C36.1935 53.5742 36.1535 52.5757 36.0737 52.5357C36.0337 52.4958 35.6343 53.1348 35.195 53.9735C34.556 55.2516 33.9968 57.0888 32.9983 61.3624C32.7986 62.1611 33.1581 62.1611 33.5175 61.4023ZM81.6447 60.7633C81.6447 60.5236 79.8074 59.645 79.6477 59.8047C79.6077 59.8447 79.6876 60.1242 79.8474 60.4437C80.0471 60.8032 80.3666 60.963 80.8858 60.963C81.3251 60.963 81.6447 60.8831 81.6447 60.7633ZM89.7923 57.648C89.9521 57.2086 90.0319 56.8891 89.992 56.8891C89.9521 56.8891 89.5527 57.2486 89.0734 57.648L88.2347 58.4068H88.8737C89.3929 58.4068 89.5926 58.2071 89.7923 57.648ZM83.9212 57.2486C84.6801 56.6894 84.6801 55.9705 83.8813 52.0165C83.6416 50.9381 83.1624 49.9397 82.9627 50.1394C82.8428 50.2592 82.3636 51.1378 81.8443 52.0964C80.8858 53.9735 80.766 54.6925 81.2053 56.4897C81.4849 57.5681 81.5248 57.608 82.4434 57.608C82.9227 57.648 83.6017 57.4483 83.9212 57.2486ZM86.5572 47.8628C86.4773 46.8643 86.1578 46.7046 85.359 47.2637C84.9197 47.5832 84.9197 47.6631 85.6386 49.3406L86.3975 51.058L86.5173 49.9397C86.5971 49.3406 86.5972 48.382 86.5572 47.8628ZM26.4882 41.792C28.9245 40.2743 32.7587 37.4386 35.7941 34.8825C40.0676 31.3278 45.5793 24.5781 49.4135 18.2676C50.9312 15.7514 53.3275 11.3581 53.3275 11.0386C53.3275 10.8389 53.4474 10.5992 53.5672 10.4395C54.0065 10.0001 54.6056 7.64371 54.7254 6.12601C54.9251 3.33025 54.0065 2.29182 51.3306 2.29182C48.2552 2.29182 45.2997 3.6897 41.7451 6.7251C37.6313 10.2797 35.3148 12.9157 32.3194 17.349C27.247 24.8976 24.3315 33.0053 23.8122 40.6737C23.5327 43.8289 23.333 43.749 26.4882 41.792Z" fill="#310A31"/>
</svg>
