<svg width="110" height="24" viewBox="0 0 110 24" fill="none" xmlns="http://www.w3.org/2000/svg">
<path d="M11.247 6.272C13.3879 6.272 15.1113 6.912 16.4172 8.192C17.7445 9.472 18.4082 11.3707 18.4082 13.888V22.9164C18.4082 23.3735 18.0373 23.744 17.5797 23.744H14.227C13.7695 23.744 13.3986 23.3735 13.3986 22.9164V14.656C13.3986 13.2907 13.0989 12.2773 12.4994 11.616C11.9 10.9333 11.0329 10.592 9.89827 10.592C8.63516 10.592 7.62896 10.9867 6.87966 11.776C6.13036 12.544 5.75571 13.696 5.75571 15.232V22.9164C5.75571 23.3735 5.3848 23.744 4.92726 23.744H1.57454C1.117 23.744 0.746094 23.3735 0.746094 22.9164V0.827586C0.746094 0.370523 1.117 0 1.57454 0H4.92726C5.3848 0 5.75571 0.370523 5.75571 0.827586V6.32554C5.75571 7.06234 6.71086 7.49201 7.36875 7.15889C7.62184 7.03074 7.88698 6.91644 8.16417 6.816C9.10615 6.45333 10.1338 6.272 11.247 6.272Z" fill="#7E6739"/>
<path d="M37.9203 6.528C38.3778 6.528 38.7487 6.89852 38.7487 7.35559V22.9164C38.7487 23.3735 38.3778 23.744 37.9203 23.744H34.5604C34.2487 23.744 33.996 23.4916 33.996 23.1802C33.996 22.6616 33.3185 22.3873 32.8985 22.6921C32.504 22.9783 32.0777 23.2223 31.6196 23.424C30.6991 23.808 29.7036 24 28.6331 24C26.3638 24 24.5655 23.3493 23.2382 22.048C21.9108 20.7467 21.2472 18.816 21.2472 16.256V7.35559C21.2472 6.89852 21.6181 6.528 22.0756 6.528H25.4283C25.8859 6.528 26.2568 6.89852 26.2568 7.35559V15.52C26.2568 18.2933 27.4235 19.68 29.7571 19.68C30.956 19.68 31.9194 19.296 32.6472 18.528C33.3751 17.7387 33.7391 16.576 33.7391 15.04V7.35559C33.7391 6.89852 34.11 6.528 34.5675 6.528H37.9203Z" fill="#7E6739"/>
<path d="M58.5535 0C59.0111 0 59.382 0.370523 59.382 0.827586V22.9164C59.382 23.3735 59.0111 23.744 58.5535 23.744H55.1241C54.8331 23.744 54.5972 23.5083 54.5972 23.2176C54.5972 22.7248 53.9365 22.4667 53.538 22.7572C52.4016 23.5857 50.9563 24 49.2022 24C47.5751 24 46.0979 23.6373 44.7706 22.912C43.4647 22.1867 42.4371 21.152 41.6878 19.808C40.9385 18.464 40.5638 16.9067 40.5638 15.136C40.5638 13.3653 40.9385 11.808 41.6878 10.464C42.4371 9.12 43.4647 8.08533 44.7706 7.36C46.0979 6.63467 47.5751 6.272 49.2022 6.272C50.5335 6.272 51.6893 6.52473 52.6694 7.0302C53.3452 7.37869 54.3724 6.94524 54.3724 6.18554V0.827586C54.3724 0.370523 54.7433 0 55.2008 0H58.5535ZM50.0692 19.904C51.3324 19.904 52.3814 19.4773 53.2163 18.624C54.0512 17.7493 54.4687 16.5867 54.4687 15.136C54.4687 13.6853 54.0512 12.5333 53.2163 11.68C52.3814 10.8053 51.3324 10.368 50.0692 10.368C48.7847 10.368 47.725 10.8053 46.8901 11.68C46.0551 12.5333 45.6377 13.6853 45.6377 15.136C45.6377 16.5867 46.0551 17.7493 46.8901 18.624C47.725 19.4773 48.7847 19.904 50.0692 19.904Z" fill="#7E6739"/>
<path d="M79.1823 0C79.6398 0 80.0108 0.370523 80.0108 0.827586V22.9164C80.0108 23.3735 79.6398 23.744 79.1823 23.744H75.7529C75.4619 23.744 75.2259 23.5083 75.2259 23.2176C75.2259 22.7248 74.5653 22.4667 74.1668 22.7572C73.0303 23.5857 71.5851 24 69.831 24C68.2039 24 66.7267 23.6373 65.3994 22.912C64.0935 22.1867 63.0659 21.152 62.3166 19.808C61.5672 18.464 61.1926 16.9067 61.1926 15.136C61.1926 13.3653 61.5672 11.808 62.3166 10.464C63.0659 9.12 64.0935 8.08533 65.3994 7.36C66.7267 6.63467 68.2039 6.272 69.831 6.272C71.1623 6.272 72.318 6.52473 73.2982 7.0302C73.974 7.37869 75.0011 6.94524 75.0011 6.18554V0.827586C75.0011 0.370523 75.3721 0 75.8296 0H79.1823ZM70.698 19.904C71.9611 19.904 73.0101 19.4773 73.8451 18.624C74.68 17.7493 75.0975 16.5867 75.0975 15.136C75.0975 13.6853 74.68 12.5333 73.8451 11.68C73.0101 10.8053 71.9611 10.368 70.698 10.368C69.4135 10.368 68.3538 10.8053 67.5188 11.68C66.6839 12.5333 66.2664 13.6853 66.2664 15.136C66.2664 16.5867 66.6839 17.7493 67.5188 18.624C68.3538 19.4773 69.4135 19.904 70.698 19.904Z" fill="#7E6739"/>
<path d="M89.2395 24C87.2913 24 85.7713 23.488 84.6794 22.464C83.5876 21.4187 83.0417 19.9467 83.0417 18.048V0.827585C83.0417 0.370522 83.4126 0 83.8701 0H87.2228C87.6804 0 88.0513 0.370523 88.0513 0.827586V17.76C88.0513 18.4853 88.2332 19.0507 88.5972 19.456C88.9825 19.84 89.5178 20.032 90.2028 20.032C90.4597 20.032 90.7166 20 90.9735 19.936C91.2797 19.8656 91.6371 20.0794 91.6553 20.3927L91.8038 22.9509C91.8255 23.3244 91.5946 23.6705 91.231 23.7604C90.5856 23.9201 89.9218 24 89.2395 24Z" fill="#7E6739"/>
<path d="M101.083 20C101.983 20 102.775 19.872 103.46 19.616C103.921 19.435 104.359 19.1903 104.775 18.882C105.147 18.6056 105.677 18.6155 105.992 18.9558L107.578 20.6692C107.866 20.9801 107.875 21.4618 107.566 21.7516C105.968 23.2505 103.764 24 100.955 24C99.0067 24 97.2833 23.6267 95.7847 22.88C94.2861 22.112 93.13 21.056 92.3165 19.712C91.503 18.368 91.0962 16.8427 91.0962 15.136C91.0962 13.4507 91.4923 11.936 92.2844 10.592C93.0979 9.22667 94.2005 8.17067 95.592 7.424C97.005 6.656 98.5892 6.272 100.345 6.272C101.993 6.272 103.492 6.624 104.841 7.328C106.189 8.01067 107.26 9.01333 108.052 10.336C108.76 11.4691 109.16 12.7881 109.252 14.2932C109.276 14.689 108.99 15.0303 108.601 15.1054L97.4985 17.2458C96.9802 17.3457 96.682 17.9061 96.9994 18.3273C97.32 18.7527 97.7179 19.0969 98.1932 19.36C98.9853 19.7867 99.9487 20 101.083 20ZM100.345 10.048C99.0816 10.048 98.054 10.4533 97.2619 11.264C96.6709 11.8689 96.2884 12.646 96.1145 13.5953C96.019 14.1171 96.5052 14.5279 97.0265 14.4267L103.555 13.1603C104.025 13.0692 104.329 12.5932 104.111 12.1674C103.844 11.6459 103.467 11.2061 102.978 10.848C102.25 10.3147 101.372 10.048 100.345 10.048Z" fill="#7E6739"/>
</svg>
