<svg width="64" height="65" viewBox="0 0 64 65" fill="none" xmlns="http://www.w3.org/2000/svg">
<rect y="0.794922" width="64" height="64" rx="32" fill="#FF958C"/>
<path d="M23.7931 31.7666C23.7103 31.2325 23.6673 30.6854 23.6673 30.1282C23.6673 24.2372 28.4743 19.4615 34.4041 19.4615C40.3339 19.4615 45.141 24.2372 45.141 30.1282C45.141 31.459 44.8957 32.7328 44.4475 33.9076C44.3545 34.1515 44.3079 34.2735 44.2868 34.3688C44.2658 34.4631 44.2578 34.5295 44.2555 34.6261C44.2532 34.7237 44.2664 34.8311 44.2929 35.046L44.8297 39.4062C44.8878 39.8783 44.9168 40.1143 44.8383 40.2858C44.7695 40.4362 44.6473 40.5556 44.4954 40.6209C44.3221 40.6954 44.0868 40.6609 43.6163 40.592L39.3693 39.9694C39.1475 39.9369 39.0366 39.9207 38.9356 39.9212C38.8357 39.9218 38.7666 39.9292 38.6689 39.9497C38.57 39.9705 38.4438 40.0178 38.1913 40.1124C37.0136 40.5535 35.7372 40.7949 34.4041 40.7949C33.8465 40.7949 33.2989 40.7527 32.7642 40.6712M25.8428 46.1282C29.796 46.1282 33.0007 42.845 33.0007 38.7949C33.0007 34.7448 29.796 31.4615 25.8428 31.4615C21.8896 31.4615 18.6849 34.7448 18.6849 38.7949C18.6849 39.609 18.8144 40.3921 19.0534 41.1239C19.1544 41.4332 19.2049 41.5878 19.2215 41.6935C19.2388 41.8038 19.2419 41.8657 19.2354 41.9772C19.2292 42.0839 19.2025 42.2046 19.1491 42.446L18.334 46.1282L22.3271 45.5829C22.545 45.5531 22.654 45.5382 22.7491 45.5389C22.8493 45.5396 22.9025 45.545 23.0008 45.5646C23.0941 45.5832 23.2329 45.6321 23.5103 45.7301C24.2414 45.9881 25.0261 46.1282 25.8428 46.1282Z" stroke="white" stroke-width="3" stroke-linecap="round" stroke-linejoin="round"/>
</svg>
