<svg width="64" height="65" viewBox="0 0 64 65" fill="none" xmlns="http://www.w3.org/2000/svg">
<rect y="0.794922" width="64" height="64" rx="32" fill="#FF958C"/>
<path d="M44.3332 32.1283C44.3332 38.3875 39.2591 43.4616 32.9998 43.4616C31.5641 43.4616 30.1908 43.1946 28.9267 42.7076C28.6956 42.6186 28.58 42.5741 28.4881 42.5529C28.3978 42.5321 28.3323 42.5234 28.2396 42.5198C28.1454 42.5162 28.042 42.5269 27.8352 42.5483L21.0072 43.2541C20.3562 43.3214 20.0307 43.355 19.8387 43.2379C19.6715 43.1359 19.5576 42.9655 19.5273 42.772C19.4925 42.5498 19.648 42.2619 19.9591 41.6861L22.1399 37.6493C22.3196 37.3169 22.4094 37.1507 22.45 36.9909C22.4902 36.833 22.4999 36.7192 22.4871 36.5568C22.4741 36.3924 22.4019 36.1784 22.2577 35.7504C21.8743 34.613 21.6665 33.3949 21.6665 32.1283C21.6665 25.869 26.7406 20.7949 32.9998 20.7949C39.2591 20.7949 44.3332 25.869 44.3332 32.1283Z" stroke="white" stroke-width="3" stroke-linecap="round" stroke-linejoin="round"/>
<path fill-rule="evenodd" clip-rule="evenodd" d="M32.9957 28.7273C31.7961 27.3421 29.7957 26.9695 28.2926 28.2379C26.7896 29.5063 26.578 31.6269 27.7583 33.127C28.4896 34.0564 30.325 35.7538 31.6158 36.9109C32.0899 37.3359 32.327 37.5484 32.6115 37.634C32.8555 37.7075 33.1359 37.7075 33.38 37.634C33.6645 37.5484 33.9015 37.3359 34.3757 36.9109C35.6664 35.7538 37.5018 34.0564 38.2331 33.127C39.4134 31.6269 39.2277 29.4929 37.6988 28.2379C36.1699 26.9829 34.1953 27.3421 32.9957 28.7273Z" stroke="white" stroke-width="3" stroke-linecap="round" stroke-linejoin="round"/>
</svg>
