<svg width="195" height="60" viewBox="0 0 195 60" fill="none" xmlns="http://www.w3.org/2000/svg">
<path d="M87.7175 23.7499C90.061 23.7499 91.9475 24.4505 93.377 25.8517C94.83 27.2528 95.5565 29.3312 95.5565 32.0868V41.9698C95.5565 42.4701 95.1505 42.8757 94.6496 42.8757H90.9796C90.4787 42.8757 90.0727 42.4701 90.0727 41.9698V32.9275C90.0727 31.4329 89.7446 30.3237 89.0884 29.5997C88.4323 28.8525 87.4831 28.4788 86.2411 28.4788C84.8584 28.4788 83.757 28.9108 82.9368 29.7749C82.1165 30.6156 81.7064 31.8766 81.7064 33.558V41.9698C81.7064 42.4701 81.3004 42.8757 80.7996 42.8757H77.1295C76.6287 42.8757 76.2227 42.4701 76.2227 41.9698V17.7902C76.2227 17.2899 76.6287 16.8843 77.1295 16.8843H80.7996C81.3004 16.8843 81.7064 17.2899 81.7064 17.7902V23.8085C81.7064 24.6151 82.752 25.0854 83.4721 24.7208C83.7492 24.5805 84.0394 24.4554 84.3429 24.3454C85.374 23.9484 86.4989 23.7499 87.7175 23.7499Z" fill="#310A31"/>
<path d="M116.915 24.0302C117.416 24.0302 117.822 24.4358 117.822 24.9361V41.9698C117.822 42.4701 117.416 42.8757 116.915 42.8757H113.238C112.896 42.8757 112.62 42.5993 112.62 42.2585C112.62 41.6908 111.878 41.3906 111.418 41.7242C110.987 42.0375 110.52 42.3046 110.018 42.5254C109.011 42.9457 107.921 43.1559 106.749 43.1559C104.265 43.1559 102.297 42.4437 100.844 41.0191C99.3907 39.5946 98.6642 37.4812 98.6642 34.6789V24.9361C98.6642 24.4358 99.0702 24.0302 99.571 24.0302H103.241C103.742 24.0302 104.148 24.4358 104.148 24.9361V33.8733C104.148 36.9091 105.425 38.427 107.98 38.427C109.292 38.427 110.347 38.0067 111.143 37.166C111.94 36.3019 112.338 35.0292 112.338 33.3478V24.9361C112.338 24.4358 112.744 24.0302 113.245 24.0302H116.915Z" fill="#310A31"/>
<path d="M139.502 16.8843C140.002 16.8843 140.408 17.2899 140.408 17.7902V41.9698C140.408 42.4701 140.002 42.8757 139.502 42.8757H135.748C135.429 42.8757 135.171 42.6177 135.171 42.2994C135.171 41.76 134.448 41.4775 134.011 41.7955C132.767 42.7024 131.185 43.1559 129.265 43.1559C127.484 43.1559 125.867 42.7589 124.414 41.9649C122.985 41.1709 121.86 40.0383 121.04 38.5671C120.219 37.0959 119.809 35.3912 119.809 33.4529C119.809 31.5147 120.219 29.8099 121.04 28.3387C121.86 26.8675 122.985 25.7349 124.414 24.9409C125.867 24.1469 127.484 23.7499 129.265 23.7499C130.723 23.7499 131.988 24.0266 133.061 24.5799C133.8 24.9614 134.925 24.4869 134.925 23.6553V17.7902C134.925 17.2899 135.331 16.8843 135.832 16.8843H139.502ZM130.214 38.6722C131.597 38.6722 132.745 38.2052 133.659 37.2711C134.573 36.3136 135.03 35.0409 135.03 33.4529C135.03 31.8649 134.573 30.6039 133.659 29.6698C132.745 28.7123 131.597 28.2336 130.214 28.2336C128.808 28.2336 127.648 28.7123 126.734 29.6698C125.82 30.6039 125.363 31.8649 125.363 33.4529C125.363 35.0409 125.82 36.3136 126.734 37.2711C127.648 38.2052 128.808 38.6722 130.214 38.6722Z" fill="#310A31"/>
<path d="M162.083 16.8843C162.584 16.8843 162.99 17.2899 162.99 17.7902V41.9698C162.99 42.4701 162.584 42.8757 162.083 42.8757H158.329C158.01 42.8757 157.752 42.6177 157.752 42.2994C157.752 41.76 157.029 41.4775 156.593 41.7955C155.349 42.7024 153.767 43.1559 151.846 43.1559C150.065 43.1559 148.448 42.7589 146.995 41.9649C145.566 41.1709 144.441 40.0383 143.621 38.5671C142.801 37.0959 142.39 35.3912 142.39 33.4529C142.39 31.5147 142.801 29.8099 143.621 28.3387C144.441 26.8675 145.566 25.7349 146.995 24.9409C148.448 24.1469 150.065 23.7499 151.846 23.7499C153.304 23.7499 154.569 24.0266 155.642 24.5799C156.382 24.9614 157.506 24.4869 157.506 23.6553V17.7902C157.506 17.2899 157.912 16.8843 158.413 16.8843H162.083ZM152.796 38.6722C154.178 38.6722 155.327 38.2052 156.241 37.2711C157.155 36.3136 157.611 35.0409 157.611 33.4529C157.611 31.8649 157.155 30.6039 156.241 29.6698C155.327 28.7123 154.178 28.2336 152.796 28.2336C151.39 28.2336 150.229 28.7123 149.316 29.6698C148.402 30.6039 147.945 31.8649 147.945 33.4529C147.945 35.0409 148.402 36.3136 149.316 37.2711C150.229 38.2052 151.39 38.6722 152.796 38.6722Z" fill="#310A31"/>
<path d="M173.092 43.1559C170.959 43.1559 169.296 42.5954 168.1 41.4745C166.905 40.3302 166.308 38.7189 166.308 36.6405V17.7902C166.308 17.2899 166.714 16.8843 167.214 16.8843H170.885C171.385 16.8843 171.791 17.2899 171.791 17.7902V36.3253C171.791 37.1193 171.991 37.7381 172.389 38.1818C172.811 38.6022 173.397 38.8123 174.147 38.8123C174.428 38.8123 174.709 38.7773 174.99 38.7072C175.325 38.6302 175.717 38.8642 175.737 39.2071L175.899 42.0075C175.923 42.4164 175.67 42.7952 175.272 42.8937C174.566 43.0685 173.839 43.1559 173.092 43.1559Z" fill="#310A31"/>
<path d="M186.057 38.7773C187.041 38.7773 187.908 38.6372 188.658 38.357C189.163 38.1588 189.643 37.8909 190.098 37.5534C190.506 37.2509 191.086 37.2618 191.43 37.6343L193.166 39.5098C193.481 39.8501 193.492 40.3775 193.154 40.6947C191.404 42.3355 188.991 43.1559 185.916 43.1559C183.784 43.1559 181.897 42.7472 180.257 41.9299C178.616 41.0892 177.351 39.9333 176.46 38.462C175.57 36.9908 175.125 35.3211 175.125 33.4529C175.125 31.6081 175.558 29.95 176.425 28.4788C177.316 26.9843 178.523 25.8283 180.046 25.011C181.593 24.1703 183.327 23.7499 185.248 23.7499C187.053 23.7499 188.693 24.1352 190.17 24.9059C191.646 25.6532 192.818 26.7507 193.685 28.1986C194.46 29.4389 194.898 30.8828 194.998 32.5303C195.025 32.9637 194.712 33.3372 194.286 33.4195L182.133 35.7624C181.565 35.8718 181.239 36.4853 181.586 36.9463C181.937 37.4119 182.373 37.7887 182.893 38.0767C183.76 38.5438 184.815 38.7773 186.057 38.7773ZM185.248 27.8833C183.866 27.8833 182.741 28.327 181.874 29.2144C181.227 29.8766 180.808 30.7272 180.618 31.7664C180.513 32.3376 181.045 32.7872 181.616 32.6765L188.763 31.2903C189.277 31.1905 189.61 30.6695 189.371 30.2033C189.079 29.6324 188.666 29.151 188.131 28.7591C187.334 28.1752 186.373 27.8833 185.248 27.8833Z" fill="#310A31"/>
<path d="M4.54184 31.0338C3.76164 31.0338 3.01366 31.4719 2.65352 32.2229C1.95901 33.67 1.4436 35.201 1.12341 36.772C0.859259 38.0701 0.724609 39.4043 0.724609 40.736C0.724609 47.5019 4.13145 53.713 9.837 57.3505C11.4573 58.3834 13.2142 59.1698 15.0587 59.6886C16.1739 60.0015 17.3265 59.3505 17.6403 58.2363C17.9527 57.1214 17.3027 55.964 16.19 55.6511C14.7411 55.244 13.3592 54.6259 12.0855 53.8136C7.59305 50.9503 4.91164 46.0612 4.91164 40.736C4.91164 39.685 5.01795 38.634 5.22604 37.6114C5.47795 36.3778 5.88254 35.1746 6.42758 34.0378C6.92817 32.9939 6.48943 31.7416 5.44702 31.2403C5.15517 31.099 4.84593 31.0332 4.54184 31.0332V31.0338Z" fill="#F6E27F"/>
<path d="M19.9583 22.3579C24.0882 21.9969 27.1433 18.3557 26.7822 14.2259C26.4211 10.096 22.7799 7.04093 18.6501 7.40199C14.5203 7.76304 11.4652 11.4042 11.8263 15.5341C12.1873 19.6639 15.8285 22.719 19.9583 22.3579Z" fill="#02C39A"/>
<path d="M14.7062 40.2688C11.9625 38.2594 8.11004 38.855 6.10128 41.598C4.09187 44.3417 4.68754 48.1942 7.43057 50.203C10.1742 52.2124 14.0267 51.6167 16.0355 48.8737C18.0449 46.13 17.4492 42.2775 14.7062 40.2688Z" fill="#F6E27F"/>
<path d="M23.3317 5.22285C14.3615 2.81929 4.83955 7.09542 0.691815 15.3904C0.175751 16.4236 0.593506 17.6796 1.62776 18.1966C2.6609 18.7154 3.91781 18.2945 4.43404 17.2607C7.69658 10.735 15.1889 7.37101 22.2498 9.26297C27.5369 10.6796 31.5959 14.6706 33.1101 19.9394C33.4274 21.048 34.5867 21.6904 35.6968 21.3722C36.8071 21.0533 37.4488 19.8945 37.1299 18.7842C35.2359 12.1922 29.9493 6.99603 23.3317 5.22285Z" fill="#02C39A"/>
<path d="M36.0754 34.1316C34.5895 38.0017 36.5229 42.3438 40.3931 43.8297C44.2632 45.3156 48.6053 43.3822 50.0912 39.512C51.5771 35.6419 49.6437 31.2998 45.7735 29.8139C41.9034 28.328 37.5613 30.2615 36.0754 34.1316Z" fill="#9B7ED4"/>
<path d="M49.2835 45.7092C56.5006 39.865 58.638 29.6481 54.3652 21.4169C53.8327 20.3921 52.5709 19.9918 51.5447 20.5246C50.5178 21.0555 50.1195 22.3198 50.6524 23.3451C54.0142 29.8202 52.3318 37.8589 46.6509 42.4593C42.3971 45.9039 36.7826 46.8419 31.63 44.97C30.5466 44.5751 29.3455 45.1353 28.9504 46.2205C28.5558 47.3062 29.1161 48.5064 30.2018 48.9011C36.6481 51.2435 43.9592 50.0208 49.2835 45.7092Z" fill="#9B7ED4"/>
</svg>
