<svg width="180" height="41" viewBox="0 0 180 41" fill="none" xmlns="http://www.w3.org/2000/svg">
<path d="M17.4197 11.0922C20.9712 11.0922 23.8301 12.143 25.9964 14.2445C28.1983 16.346 29.2993 19.4632 29.2993 23.5961V38.4189C29.2993 39.1693 28.684 39.7776 27.925 39.7776H22.3632C21.6042 39.7776 20.9889 39.1693 20.9889 38.4189V24.857C20.9889 22.6154 20.4917 20.9517 19.4973 19.866C18.5029 18.7452 17.0646 18.1848 15.1823 18.1848C13.087 18.1848 11.4178 18.8327 10.1748 20.1287C8.93184 21.3895 8.31034 23.2809 8.31034 25.8027V38.4189C8.31034 39.1693 7.69505 39.7776 6.93605 39.7776H1.37429C0.61529 39.7776 0 39.1693 0 38.4189V2.15365C0 1.40324 0.615289 0.794922 1.37429 0.794922H6.93605C7.69505 0.794922 8.31034 1.40324 8.31034 2.15365V11.1801C8.31034 12.3898 9.89483 13.0952 10.9862 12.5483C11.406 12.3379 11.8459 12.1503 12.3057 11.9854C13.8683 11.3899 15.573 11.0922 17.4197 11.0922Z" fill="#310A31"/>
<path d="M61.6674 11.5125C62.4264 11.5125 63.0417 12.1209 63.0417 12.8713V38.4189C63.0417 39.1693 62.4264 39.7776 61.6674 39.7776H56.0938C55.5767 39.7776 55.1575 39.3632 55.1575 38.8519C55.1575 38.0005 54.0337 37.5502 53.3369 38.0506C52.6825 38.5205 51.9754 38.9211 51.2154 39.2522C49.6883 39.8827 48.0369 40.1979 46.2612 40.1979C42.4967 40.1979 39.5135 39.1297 37.3116 36.9931C35.1097 34.8566 34.0088 31.6869 34.0088 27.4839V12.8713C34.0088 12.1209 34.6241 11.5125 35.3831 11.5125H40.9448C41.7038 11.5125 42.3191 12.1209 42.3191 12.8713V26.2755C42.3191 30.8288 44.2547 33.1054 48.1257 33.1054C50.1145 33.1054 51.7126 32.4749 52.9201 31.214C54.1276 29.9181 54.7314 28.0092 54.7314 25.4875V12.8713C54.7314 12.1209 55.3466 11.5125 56.1056 11.5125H61.6674Z" fill="#310A31"/>
<path d="M95.8955 0.794922C96.6545 0.794922 97.2698 1.40324 97.2698 2.15365V38.4189C97.2698 39.1693 96.6545 39.7776 95.8955 39.7776H90.2065C89.7237 39.7776 89.3324 39.3907 89.3324 38.9134C89.3324 38.1043 88.2364 37.6806 87.5754 38.1575C85.6902 39.5178 83.2926 40.1979 80.3828 40.1979C77.6837 40.1979 75.2332 39.6025 73.0313 38.4116C70.865 37.2208 69.1603 35.5221 67.9173 33.3155C66.6743 31.109 66.0528 28.5521 66.0528 25.6451C66.0528 22.738 66.6743 20.1812 67.9173 17.9746C69.1603 15.7681 70.865 14.0693 73.0313 12.8785C75.2332 11.6877 77.6837 11.0922 80.3828 11.0922C82.5913 11.0922 84.5085 11.5072 86.1345 12.337C87.2555 12.9092 88.9595 12.1975 88.9595 10.9503V2.15365C88.9595 1.40324 89.5748 0.794922 90.3338 0.794922H95.8955ZM81.8211 33.4731C83.9165 33.4731 85.6566 32.7726 87.0417 31.3716C88.4268 29.9356 89.1193 28.0268 89.1193 25.6451C89.1193 23.2634 88.4268 21.372 87.0417 19.971C85.6566 18.535 83.9165 17.817 81.8211 17.817C79.6903 17.817 77.9323 18.535 76.5472 19.971C75.1622 21.372 74.4697 23.2634 74.4697 25.6451C74.4697 28.0268 75.1622 29.9356 76.5472 31.3716C77.9323 32.7726 79.6903 33.4731 81.8211 33.4731Z" fill="#310A31"/>
<path d="M130.116 0.794922C130.875 0.794922 131.49 1.40324 131.49 2.15365V38.4189C131.49 39.1693 130.875 39.7776 130.116 39.7776H124.427C123.944 39.7776 123.553 39.3907 123.553 38.9134C123.553 38.1043 122.457 37.6806 121.796 38.1575C119.911 39.5178 117.513 40.1979 114.603 40.1979C111.904 40.1979 109.454 39.6025 107.252 38.4116C105.086 37.2208 103.381 35.5221 102.138 33.3155C100.895 31.109 100.273 28.5521 100.273 25.6451C100.273 22.738 100.895 20.1812 102.138 17.9746C103.381 15.7681 105.086 14.0693 107.252 12.8785C109.454 11.6877 111.904 11.0922 114.603 11.0922C116.812 11.0922 118.729 11.5072 120.355 12.337C121.476 12.9092 123.18 12.1975 123.18 10.9503V2.15365C123.18 1.40324 123.795 0.794922 124.554 0.794922H130.116ZM116.042 33.4731C118.137 33.4731 119.877 32.7726 121.262 31.3716C122.647 29.9356 123.34 28.0268 123.34 25.6451C123.34 23.2634 122.647 21.372 121.262 19.971C119.877 18.535 118.137 17.817 116.042 17.817C113.911 17.817 112.153 18.535 110.768 19.971C109.383 21.372 108.69 23.2634 108.69 25.6451C108.69 28.0268 109.383 29.9356 110.768 31.3716C112.153 32.7726 113.911 33.4731 116.042 33.4731Z" fill="#310A31"/>
<path d="M146.8 40.1979C143.568 40.1979 141.046 39.3573 139.235 37.6761C137.424 35.9599 136.518 33.5432 136.518 30.426V2.15364C136.518 1.40324 137.134 0.794922 137.893 0.794922H143.454C144.213 0.794922 144.829 1.40324 144.829 2.15365V29.9531C144.829 31.144 145.131 32.0721 145.734 32.7376C146.374 33.3681 147.261 33.6833 148.398 33.6833C148.824 33.6833 149.25 33.6307 149.676 33.5257C150.184 33.4101 150.777 33.761 150.807 34.2754L151.054 38.4755C151.09 39.0887 150.707 39.6569 150.103 39.8046C149.033 40.0668 147.932 40.1979 146.8 40.1979Z" fill="#310A31"/>
<path d="M166.447 33.6307C167.939 33.6307 169.253 33.4206 170.389 33.0003C171.154 32.7031 171.882 32.3013 172.571 31.7951C173.189 31.3415 174.068 31.3577 174.59 31.9164L177.221 34.7294C177.698 35.2398 177.714 36.0308 177.202 36.5065C174.55 38.9674 170.894 40.1979 166.234 40.1979C163.002 40.1979 160.143 39.585 157.658 38.3591C155.172 37.0982 153.254 35.3645 151.904 33.1579C150.555 30.9513 149.88 28.4471 149.88 25.6451C149.88 22.8781 150.537 20.3913 151.851 18.1848C153.2 15.9432 155.029 14.2094 157.338 12.9836C159.682 11.7227 162.31 11.0922 165.222 11.0922C167.957 11.0922 170.443 11.6701 172.68 12.826C174.917 13.9468 176.693 15.5929 178.007 17.7645C179.182 19.6247 179.846 21.7904 179.998 24.2613C180.038 24.9113 179.564 25.4715 178.918 25.5949L160.5 29.1089C159.641 29.273 159.146 30.1931 159.673 30.8846C160.204 31.5829 160.864 32.148 161.653 32.58C162.967 33.2805 164.565 33.6307 166.447 33.6307ZM165.222 17.2916C163.127 17.2916 161.422 17.9571 160.108 19.2881C159.128 20.2812 158.493 21.557 158.205 23.1156C158.046 23.9723 158.853 24.6466 159.717 24.4806L170.548 22.4015C171.327 22.2518 171.831 21.4704 171.47 20.7712C171.028 19.915 170.401 19.1929 169.59 18.6051C168.383 17.7294 166.927 17.2916 165.222 17.2916Z" fill="#310A31"/>
</svg>
