<svg width="30" height="25" viewBox="0 0 30 25" fill="none" xmlns="http://www.w3.org/2000/svg">
<path d="M9.4344 24.386C20.7552 24.386 26.9472 15.0068 26.9472 6.87317C26.9472 6.60677 26.9472 6.34158 26.9292 6.07758C28.1338 5.20627 29.1736 4.12743 30 2.89158C28.8767 3.38958 27.685 3.71602 26.4648 3.85997C27.7498 3.09084 28.7114 1.88095 29.1708 0.455575C27.9626 1.17259 26.6408 1.67786 25.2624 1.94958C24.3344 0.962796 23.107 0.309377 21.7702 0.0904306C20.4335 -0.128515 19.0618 0.0992184 17.8675 0.738391C16.6731 1.37756 15.7228 2.39254 15.1634 3.62626C14.6041 4.85998 14.4669 6.24366 14.7732 7.56317C12.3261 7.44042 9.9322 6.80446 7.74682 5.69658C5.56144 4.5887 3.63345 3.03365 2.088 1.13237C1.30091 2.48737 1.05984 4.09141 1.41387 5.6179C1.76791 7.1444 2.69043 8.47857 3.9936 9.34877C3.01404 9.32007 2.05581 9.05582 1.2 8.57837V8.65637C1.20039 10.0774 1.69231 11.4546 2.59234 12.5543C3.49236 13.654 4.74508 14.4086 6.138 14.69C5.23185 14.9371 4.28109 14.9733 3.3588 14.7956C3.75227 16.0185 4.51804 17.0879 5.54905 17.8542C6.58006 18.6206 7.82478 19.0457 9.1092 19.07C7.83305 20.0731 6.37164 20.8147 4.80859 21.2525C3.24554 21.6902 1.61152 21.8155 0 21.6212C2.81479 23.4274 6.08991 24.3856 9.4344 24.3812" fill="#F6E27F"/>
</svg>
